<?xml version="1.0" encoding="utf-8" standalone="no"?>
<!DOCTYPE svg PUBLIC "-//W3C//DTD SVG 1.1//EN"
  "http://www.w3.org/Graphics/SVG/1.1/DTD/svg11.dtd">
<svg xmlns:xlink="http://www.w3.org/1999/xlink" width="460.8pt" height="345.6pt" viewBox="0 0 460.8 345.6" xmlns="http://www.w3.org/2000/svg" version="1.1">
 <metadata>
  <rdf:RDF xmlns:dc="http://purl.org/dc/elements/1.1/" xmlns:cc="http://creativecommons.org/ns#" xmlns:rdf="http://www.w3.org/1999/02/22-rdf-syntax-ns#">
   <cc:Work>
    <dc:type rdf:resource="http://purl.org/dc/dcmitype/StillImage"/>
    <dc:date>2024-03-09T21:52:53.819847</dc:date>
    <dc:format>image/svg+xml</dc:format>
    <dc:creator>
     <cc:Agent>
      <dc:title>Matplotlib v3.8.3, https://matplotlib.org/</dc:title>
     </cc:Agent>
    </dc:creator>
   </cc:Work>
  </rdf:RDF>
 </metadata>
 <defs>
  <style type="text/css">*{stroke-linejoin: round; stroke-linecap: butt}</style>
 </defs>
 <g id="figure_1">
  <g id="patch_1">
   <path d="M 0 345.6 
L 460.8 345.6 
L 460.8 0 
L 0 0 
z
" style="fill: #ffffff"/>
  </g>
  <g id="axes_1">
   <g id="patch_2">
    <path d="M 57.6 307.584 
L 414.72 307.584 
L 414.72 41.472 
L 57.6 41.472 
z
" style="fill: #ffffff"/>
   </g>
   <g id="patch_3">
    <path d="M 73.832727 57666.377375 
L 74.421937 57666.377375 
L 74.421937 260.947283 
L 73.832727 260.947283 
z
" clip-path="url(#pb3baa3ea07)" style="fill: #1f77b4"/>
   </g>
   <g id="patch_4">
    <path d="M 74.569239 57666.377375 
L 75.158449 57666.377375 
L 75.158449 238.117111 
L 74.569239 238.117111 
z
" clip-path="url(#pb3baa3ea07)" style="fill: #1f77b4"/>
   </g>
   <g id="patch_5">
    <path d="M 76.042264 57666.377375 
L 76.631473 57666.377375 
L 76.631473 198.01658 
L 76.042264 198.01658 
z
" clip-path="url(#pb3baa3ea07)" style="fill: #1f77b4"/>
   </g>
   <g id="patch_6">
    <path d="M 76.778776 57666.377375 
L 77.367985 57666.377375 
L 77.367985 175.791681 
L 76.778776 175.791681 
z
" clip-path="url(#pb3baa3ea07)" style="fill: #1f77b4"/>
   </g>
   <g id="patch_7">
    <path d="M 78.988312 57666.377375 
L 79.577522 57666.377375 
L 79.577522 121.182465 
L 78.988312 121.182465 
z
" clip-path="url(#pb3baa3ea07)" style="fill: #1f77b4"/>
   </g>
   <g id="patch_8">
    <path d="M 75.305752 57666.377375 
L 75.894961 57666.377375 
L 75.894961 222.124769 
L 75.305752 222.124769 
z
" clip-path="url(#pb3baa3ea07)" style="fill: #1f77b4"/>
   </g>
   <g id="patch_9">
    <path d="M 77.515288 57666.377375 
L 78.104498 57666.377375 
L 78.104498 158.521322 
L 77.515288 158.521322 
z
" clip-path="url(#pb3baa3ea07)" style="fill: #1f77b4"/>
   </g>
   <g id="patch_10">
    <path d="M 79.724824 57666.377375 
L 80.314034 57666.377375 
L 80.314034 104.853756 
L 79.724824 104.853756 
z
" clip-path="url(#pb3baa3ea07)" style="fill: #1f77b4"/>
   </g>
   <g id="patch_11">
    <path d="M 78.2518 57666.377375 
L 78.84101 57666.377375 
L 78.84101 140.946489 
L 78.2518 140.946489 
z
" clip-path="url(#pb3baa3ea07)" style="fill: #1f77b4"/>
   </g>
   <g id="patch_12">
    <path d="M 81.197849 57666.377375 
L 81.787058 57666.377375 
L 81.787058 81.050011 
L 81.197849 81.050011 
z
" clip-path="url(#pb3baa3ea07)" style="fill: #1f77b4"/>
   </g>
   <g id="patch_13">
    <path d="M 80.461336 57666.377375 
L 81.050546 57666.377375 
L 81.050546 93.126925 
L 80.461336 93.126925 
z
" clip-path="url(#pb3baa3ea07)" style="fill: #1f77b4"/>
   </g>
   <g id="patch_14">
    <path d="M 82.670873 57666.377375 
L 83.260082 57666.377375 
L 83.260082 60.436657 
L 82.670873 60.436657 
z
" clip-path="url(#pb3baa3ea07)" style="fill: #1f77b4"/>
   </g>
   <g id="patch_15">
    <path d="M 81.934361 57666.377375 
L 82.52357 57666.377375 
L 82.52357 69.240537 
L 81.934361 69.240537 
z
" clip-path="url(#pb3baa3ea07)" style="fill: #1f77b4"/>
   </g>
   <g id="patch_16">
    <path d="M 85.616921 57666.377375 
L 86.206131 57666.377375 
L 86.206131 73.188905 
L 85.616921 73.188905 
z
" clip-path="url(#pb3baa3ea07)" style="fill: #1f77b4"/>
   </g>
   <g id="patch_17">
    <path d="M 83.407385 57666.377375 
L 83.996595 57666.377375 
L 83.996595 54.486178 
L 83.407385 54.486178 
z
" clip-path="url(#pb3baa3ea07)" style="fill: #1f77b4"/>
   </g>
   <g id="patch_18">
    <path d="M 87.089946 57666.377375 
L 87.679155 57666.377375 
L 87.679155 107.135069 
L 87.089946 107.135069 
z
" clip-path="url(#pb3baa3ea07)" style="fill: #1f77b4"/>
   </g>
   <g id="patch_19">
    <path d="M 84.880409 57666.377375 
L 85.469619 57666.377375 
L 85.469619 59.978603 
L 84.880409 59.978603 
z
" clip-path="url(#pb3baa3ea07)" style="fill: #1f77b4"/>
   </g>
   <g id="patch_20">
    <path d="M 87.826458 57666.377375 
L 88.415667 57666.377375 
L 88.415667 137.163401 
L 87.826458 137.163401 
z
" clip-path="url(#pb3baa3ea07)" style="fill: #1f77b4"/>
   </g>
   <g id="patch_21">
    <path d="M 89.299482 57666.377375 
L 89.888692 57666.377375 
L 89.888692 168.118424 
L 89.299482 168.118424 
z
" clip-path="url(#pb3baa3ea07)" style="fill: #1f77b4"/>
   </g>
   <g id="patch_22">
    <path d="M 84.143897 57666.377375 
L 84.733107 57666.377375 
L 84.733107 53.568 
L 84.143897 53.568 
z
" clip-path="url(#pb3baa3ea07)" style="fill: #1f77b4"/>
   </g>
   <g id="patch_23">
    <path d="M 94.455067 57666.377375 
L 95.044277 57666.377375 
L 95.044277 168.57283 
L 94.455067 168.57283 
z
" clip-path="url(#pb3baa3ea07)" style="fill: #1f77b4"/>
   </g>
   <g id="patch_24">
    <path d="M 90.035994 57666.377375 
L 90.625204 57666.377375 
L 90.625204 168.726159 
L 90.035994 168.726159 
z
" clip-path="url(#pb3baa3ea07)" style="fill: #1f77b4"/>
   </g>
   <g id="patch_25">
    <path d="M 88.56297 57666.377375 
L 89.15218 57666.377375 
L 89.15218 160.652181 
L 88.56297 160.652181 
z
" clip-path="url(#pb3baa3ea07)" style="fill: #1f77b4"/>
   </g>
   <g id="patch_26">
    <path d="M 86.353433 57666.377375 
L 86.942643 57666.377375 
L 86.942643 86.284951 
L 86.353433 86.284951 
z
" clip-path="url(#pb3baa3ea07)" style="fill: #1f77b4"/>
   </g>
   <g id="patch_27">
    <path d="M 93.718555 57666.377375 
L 94.307764 57666.377375 
L 94.307764 168.880437 
L 93.718555 168.880437 
z
" clip-path="url(#pb3baa3ea07)" style="fill: #1f77b4"/>
   </g>
   <g id="patch_28">
    <path d="M 90.772506 57666.377375 
L 91.361716 57666.377375 
L 91.361716 167.089305 
L 90.772506 167.089305 
z
" clip-path="url(#pb3baa3ea07)" style="fill: #1f77b4"/>
   </g>
   <g id="patch_29">
    <path d="M 91.509018 57666.377375 
L 92.098228 57666.377375 
L 92.098228 168.118424 
L 91.509018 168.118424 
z
" clip-path="url(#pb3baa3ea07)" style="fill: #1f77b4"/>
   </g>
   <g id="patch_30">
    <path d="M 92.982043 57666.377375 
L 93.571252 57666.377375 
L 93.571252 169.191889 
L 92.982043 169.191889 
z
" clip-path="url(#pb3baa3ea07)" style="fill: #1f77b4"/>
   </g>
   <g id="patch_31">
    <path d="M 100.347164 57666.377375 
L 100.936374 57666.377375 
L 100.936374 180.252822 
L 100.347164 180.252822 
z
" clip-path="url(#pb3baa3ea07)" style="fill: #1f77b4"/>
   </g>
   <g id="patch_32">
    <path d="M 95.191579 57666.377375 
L 95.780789 57666.377375 
L 95.780789 175.588285 
L 95.191579 175.588285 
z
" clip-path="url(#pb3baa3ea07)" style="fill: #1f77b4"/>
   </g>
   <g id="patch_33">
    <path d="M 95.928091 57666.377375 
L 96.517301 57666.377375 
L 96.517301 177.263932 
L 95.928091 177.263932 
z
" clip-path="url(#pb3baa3ea07)" style="fill: #1f77b4"/>
   </g>
   <g id="patch_34">
    <path d="M 98.137627 57666.377375 
L 98.726837 57666.377375 
L 98.726837 178.828671 
L 98.137627 178.828671 
z
" clip-path="url(#pb3baa3ea07)" style="fill: #1f77b4"/>
   </g>
   <g id="patch_35">
    <path d="M 98.87414 57666.377375 
L 99.463349 57666.377375 
L 99.463349 188.248514 
L 98.87414 188.248514 
z
" clip-path="url(#pb3baa3ea07)" style="fill: #1f77b4"/>
   </g>
   <g id="patch_36">
    <path d="M 101.083676 57666.377375 
L 101.672886 57666.377375 
L 101.672886 183.649762 
L 101.083676 183.649762 
z
" clip-path="url(#pb3baa3ea07)" style="fill: #1f77b4"/>
   </g>
   <g id="patch_37">
    <path d="M 92.24553 57666.377375 
L 92.83474 57666.377375 
L 92.83474 165.825694 
L 92.24553 165.825694 
z
" clip-path="url(#pb3baa3ea07)" style="fill: #1f77b4"/>
   </g>
   <g id="patch_38">
    <path d="M 106.975773 57666.377375 
L 107.564983 57666.377375 
L 107.564983 188.248514 
L 106.975773 188.248514 
z
" clip-path="url(#pb3baa3ea07)" style="fill: #1f77b4"/>
   </g>
   <g id="patch_39">
    <path d="M 96.664603 57666.377375 
L 97.253813 57666.377375 
L 97.253813 177.481539 
L 96.664603 177.481539 
z
" clip-path="url(#pb3baa3ea07)" style="fill: #1f77b4"/>
   </g>
   <g id="patch_40">
    <path d="M 99.610652 57666.377375 
L 100.199861 57666.377375 
L 100.199861 180.4983 
L 99.610652 180.4983 
z
" clip-path="url(#pb3baa3ea07)" style="fill: #1f77b4"/>
   </g>
   <g id="patch_41">
    <path d="M 111.394846 57666.377375 
L 111.984055 57666.377375 
L 111.984055 190.355334 
L 111.394846 190.355334 
z
" clip-path="url(#pb3baa3ea07)" style="fill: #1f77b4"/>
   </g>
   <g id="patch_42">
    <path d="M 103.293212 57666.377375 
L 103.882422 57666.377375 
L 103.882422 183.096053 
L 103.293212 183.096053 
z
" clip-path="url(#pb3baa3ea07)" style="fill: #1f77b4"/>
   </g>
   <g id="patch_43">
    <path d="M 108.448797 57666.377375 
L 109.038007 57666.377375 
L 109.038007 189.279662 
L 108.448797 189.279662 
z
" clip-path="url(#pb3baa3ea07)" style="fill: #1f77b4"/>
   </g>
   <g id="patch_44">
    <path d="M 106.239261 57666.377375 
L 106.828471 57666.377375 
L 106.828471 184.504103 
L 106.239261 184.504103 
z
" clip-path="url(#pb3baa3ea07)" style="fill: #1f77b4"/>
   </g>
   <g id="patch_45">
    <path d="M 97.401115 57666.377375 
L 97.990325 57666.377375 
L 97.990325 177.048209 
L 97.401115 177.048209 
z
" clip-path="url(#pb3baa3ea07)" style="fill: #1f77b4"/>
   </g>
   <g id="patch_46">
    <path d="M 104.029724 57666.377375 
L 104.618934 57666.377375 
L 104.618934 180.746221 
L 104.029724 180.746221 
z
" clip-path="url(#pb3baa3ea07)" style="fill: #1f77b4"/>
   </g>
   <g id="patch_47">
    <path d="M 115.813918 57666.377375 
L 116.403128 57666.377375 
L 116.403128 195.192898 
L 115.813918 195.192898 
z
" clip-path="url(#pb3baa3ea07)" style="fill: #1f77b4"/>
   </g>
   <g id="patch_48">
    <path d="M 118.023455 57666.377375 
L 118.612665 57666.377375 
L 118.612665 191.479548 
L 118.023455 191.479548 
z
" clip-path="url(#pb3baa3ea07)" style="fill: #1f77b4"/>
   </g>
   <g id="patch_49">
    <path d="M 110.658334 57666.377375 
L 111.247543 57666.377375 
L 111.247543 191.099146 
L 110.658334 191.099146 
z
" clip-path="url(#pb3baa3ea07)" style="fill: #1f77b4"/>
   </g>
   <g id="patch_50">
    <path d="M 109.185309 57666.377375 
L 109.774519 57666.377375 
L 109.774519 187.584051 
L 109.185309 187.584051 
z
" clip-path="url(#pb3baa3ea07)" style="fill: #1f77b4"/>
   </g>
   <g id="patch_51">
    <path d="M 101.820188 57666.377375 
L 102.409398 57666.377375 
L 102.409398 183.096053 
L 101.820188 183.096053 
z
" clip-path="url(#pb3baa3ea07)" style="fill: #1f77b4"/>
   </g>
   <g id="patch_52">
    <path d="M 118.759967 57666.377375 
L 119.349177 57666.377375 
L 119.349177 194.318568 
L 118.759967 194.318568 
z
" clip-path="url(#pb3baa3ea07)" style="fill: #1f77b4"/>
   </g>
   <g id="patch_53">
    <path d="M 121.706016 57666.377375 
L 122.295225 57666.377375 
L 122.295225 194.751898 
L 121.706016 194.751898 
z
" clip-path="url(#pb3baa3ea07)" style="fill: #1f77b4"/>
   </g>
   <g id="patch_54">
    <path d="M 105.502749 57666.377375 
L 106.091958 57666.377375 
L 106.091958 189.991592 
L 105.502749 189.991592 
z
" clip-path="url(#pb3baa3ea07)" style="fill: #1f77b4"/>
   </g>
   <g id="patch_55">
    <path d="M 104.766237 57666.377375 
L 105.355446 57666.377375 
L 105.355446 188.931183 
L 104.766237 188.931183 
z
" clip-path="url(#pb3baa3ea07)" style="fill: #1f77b4"/>
   </g>
   <g id="patch_56">
    <path d="M 114.340894 57666.377375 
L 114.930104 57666.377375 
L 114.930104 191.479548 
L 114.340894 191.479548 
z
" clip-path="url(#pb3baa3ea07)" style="fill: #1f77b4"/>
   </g>
   <g id="patch_57">
    <path d="M 116.550431 57666.377375 
L 117.13964 57666.377375 
L 117.13964 203.576393 
L 116.550431 203.576393 
z
" clip-path="url(#pb3baa3ea07)" style="fill: #1f77b4"/>
   </g>
   <g id="patch_58">
    <path d="M 133.49021 57666.377375 
L 134.079419 57666.377375 
L 134.079419 211.588926 
L 133.49021 211.588926 
z
" clip-path="url(#pb3baa3ea07)" style="fill: #1f77b4"/>
   </g>
   <g id="patch_59">
    <path d="M 117.286943 57666.377375 
L 117.876152 57666.377375 
L 117.876152 202.961156 
L 117.286943 202.961156 
z
" clip-path="url(#pb3baa3ea07)" style="fill: #1f77b4"/>
   </g>
   <g id="patch_60">
    <path d="M 102.5567 57666.377375 
L 103.14591 57666.377375 
L 103.14591 184.216056 
L 102.5567 184.216056 
z
" clip-path="url(#pb3baa3ea07)" style="fill: #1f77b4"/>
   </g>
   <g id="patch_61">
    <path d="M 107.712285 57666.377375 
L 108.301495 57666.377375 
L 108.301495 189.279662 
L 107.712285 189.279662 
z
" clip-path="url(#pb3baa3ea07)" style="fill: #1f77b4"/>
   </g>
   <g id="patch_62">
    <path d="M 113.604382 57666.377375 
L 114.193592 57666.377375 
L 114.193592 195.192898 
L 113.604382 195.192898 
z
" clip-path="url(#pb3baa3ea07)" style="fill: #1f77b4"/>
   </g>
   <g id="patch_63">
    <path d="M 119.496479 57666.377375 
L 120.085689 57666.377375 
L 120.085689 202.360745 
L 119.496479 202.360745 
z
" clip-path="url(#pb3baa3ea07)" style="fill: #1f77b4"/>
   </g>
   <g id="patch_64">
    <path d="M 120.232991 57666.377375 
L 120.822201 57666.377375 
L 120.822201 202.360745 
L 120.232991 202.360745 
z
" clip-path="url(#pb3baa3ea07)" style="fill: #1f77b4"/>
   </g>
   <g id="patch_65">
    <path d="M 109.921821 57666.377375 
L 110.511031 57666.377375 
L 110.511031 195.641845 
L 109.921821 195.641845 
z
" clip-path="url(#pb3baa3ea07)" style="fill: #1f77b4"/>
   </g>
   <g id="patch_66">
    <path d="M 112.86787 57666.377375 
L 113.45708 57666.377375 
L 113.45708 189.279662 
L 112.86787 189.279662 
z
" clip-path="url(#pb3baa3ea07)" style="fill: #1f77b4"/>
   </g>
   <g id="patch_67">
    <path d="M 120.969503 57666.377375 
L 121.558713 57666.377375 
L 121.558713 202.360745 
L 120.969503 202.360745 
z
" clip-path="url(#pb3baa3ea07)" style="fill: #1f77b4"/>
   </g>
   <g id="patch_68">
    <path d="M 124.652064 57666.377375 
L 125.241274 57666.377375 
L 125.241274 200.641728 
L 124.652064 200.641728 
z
" clip-path="url(#pb3baa3ea07)" style="fill: #1f77b4"/>
   </g>
   <g id="patch_69">
    <path d="M 112.131358 57666.377375 
L 112.720568 57666.377375 
L 112.720568 194.751898 
L 112.131358 194.751898 
z
" clip-path="url(#pb3baa3ea07)" style="fill: #1f77b4"/>
   </g>
   <g id="patch_70">
    <path d="M 122.442528 57666.377375 
L 123.031737 57666.377375 
L 123.031737 197.039362 
L 122.442528 197.039362 
z
" clip-path="url(#pb3baa3ea07)" style="fill: #1f77b4"/>
   </g>
   <g id="patch_71">
    <path d="M 139.382307 57666.377375 
L 139.971516 57666.377375 
L 139.971516 214.309721 
L 139.382307 214.309721 
z
" clip-path="url(#pb3baa3ea07)" style="fill: #1f77b4"/>
   </g>
   <g id="patch_72">
    <path d="M 123.17904 57666.377375 
L 123.768249 57666.377375 
L 123.768249 204.207208 
L 123.17904 204.207208 
z
" clip-path="url(#pb3baa3ea07)" style="fill: #1f77b4"/>
   </g>
   <g id="patch_73">
    <path d="M 126.125088 57666.377375 
L 126.714298 57666.377375 
L 126.714298 205.518872 
L 126.125088 205.518872 
z
" clip-path="url(#pb3baa3ea07)" style="fill: #1f77b4"/>
   </g>
   <g id="patch_74">
    <path d="M 132.017185 57666.377375 
L 132.606395 57666.377375 
L 132.606395 206.903443 
L 132.017185 206.903443 
z
" clip-path="url(#pb3baa3ea07)" style="fill: #1f77b4"/>
   </g>
   <g id="patch_75">
    <path d="M 136.436258 57666.377375 
L 137.025468 57666.377375 
L 137.025468 219.631103 
L 136.436258 219.631103 
z
" clip-path="url(#pb3baa3ea07)" style="fill: #1f77b4"/>
   </g>
   <g id="patch_76">
    <path d="M 129.807649 57666.377375 
L 130.396859 57666.377375 
L 130.396859 220.846752 
L 129.807649 220.846752 
z
" clip-path="url(#pb3baa3ea07)" style="fill: #1f77b4"/>
   </g>
   <g id="patch_77">
    <path d="M 128.334625 57666.377375 
L 128.923834 57666.377375 
L 128.923834 202.961156 
L 128.334625 202.961156 
z
" clip-path="url(#pb3baa3ea07)" style="fill: #1f77b4"/>
   </g>
   <g id="patch_78">
    <path d="M 132.753697 57666.377375 
L 133.342907 57666.377375 
L 133.342907 209.136207 
L 132.753697 209.136207 
z
" clip-path="url(#pb3baa3ea07)" style="fill: #1f77b4"/>
   </g>
   <g id="patch_79">
    <path d="M 126.8616 57666.377375 
L 127.45081 57666.377375 
L 127.45081 211.588926 
L 126.8616 211.588926 
z
" clip-path="url(#pb3baa3ea07)" style="fill: #1f77b4"/>
   </g>
   <g id="patch_80">
    <path d="M 148.220452 57666.377375 
L 148.809662 57666.377375 
L 148.809662 226.406566 
L 148.220452 226.406566 
z
" clip-path="url(#pb3baa3ea07)" style="fill: #1f77b4"/>
   </g>
   <g id="patch_81">
    <path d="M 138.645794 57666.377375 
L 139.235004 57666.377375 
L 139.235004 214.309721 
L 138.645794 214.309721 
z
" clip-path="url(#pb3baa3ea07)" style="fill: #1f77b4"/>
   </g>
   <g id="patch_82">
    <path d="M 129.071137 57666.377375 
L 129.660346 57666.377375 
L 129.660346 204.207208 
L 129.071137 204.207208 
z
" clip-path="url(#pb3baa3ea07)" style="fill: #1f77b4"/>
   </g>
   <g id="patch_83">
    <path d="M 115.077406 57666.377375 
L 115.666616 57666.377375 
L 115.666616 203.576393 
L 115.077406 203.576393 
z
" clip-path="url(#pb3baa3ea07)" style="fill: #1f77b4"/>
   </g>
   <g id="patch_84">
    <path d="M 127.598113 57666.377375 
L 128.187322 57666.377375 
L 128.187322 201.774462 
L 127.598113 201.774462 
z
" clip-path="url(#pb3baa3ea07)" style="fill: #1f77b4"/>
   </g>
   <g id="patch_85">
    <path d="M 135.699746 57666.377375 
L 136.288956 57666.377375 
L 136.288956 217.364463 
L 135.699746 217.364463 
z
" clip-path="url(#pb3baa3ea07)" style="fill: #1f77b4"/>
   </g>
   <g id="patch_86">
    <path d="M 140.855331 57666.377375 
L 141.444541 57666.377375 
L 141.444541 217.364463 
L 140.855331 217.364463 
z
" clip-path="url(#pb3baa3ea07)" style="fill: #1f77b4"/>
   </g>
   <g id="patch_87">
    <path d="M 154.849061 57666.377375 
L 155.438271 57666.377375 
L 155.438271 224.896051 
L 154.849061 224.896051 
z
" clip-path="url(#pb3baa3ea07)" style="fill: #1f77b4"/>
   </g>
   <g id="patch_88">
    <path d="M 125.388576 57666.377375 
L 125.977786 57666.377375 
L 125.977786 206.201541 
L 125.388576 206.201541 
z
" clip-path="url(#pb3baa3ea07)" style="fill: #1f77b4"/>
   </g>
   <g id="patch_89">
    <path d="M 123.915552 57666.377375 
L 124.504762 57666.377375 
L 124.504762 204.207208 
L 123.915552 204.207208 
z
" clip-path="url(#pb3baa3ea07)" style="fill: #1f77b4"/>
   </g>
   <g id="patch_90">
    <path d="M 137.909282 57666.377375 
L 138.498492 57666.377375 
L 138.498492 211.588926 
L 137.909282 211.588926 
z
" clip-path="url(#pb3baa3ea07)" style="fill: #1f77b4"/>
   </g>
   <g id="patch_91">
    <path d="M 144.537891 57666.377375 
L 145.127101 57666.377375 
L 145.127101 224.896051 
L 144.537891 224.896051 
z
" clip-path="url(#pb3baa3ea07)" style="fill: #1f77b4"/>
   </g>
   <g id="patch_92">
    <path d="M 130.544161 57666.377375 
L 131.133371 57666.377375 
L 131.133371 216.304054 
L 130.544161 216.304054 
z
" clip-path="url(#pb3baa3ea07)" style="fill: #1f77b4"/>
   </g>
   <g id="patch_93">
    <path d="M 143.064867 57666.377375 
L 143.654077 57666.377375 
L 143.654077 222.124769 
L 143.064867 222.124769 
z
" clip-path="url(#pb3baa3ea07)" style="fill: #1f77b4"/>
   </g>
   <g id="patch_94">
    <path d="M 131.280673 57666.377375 
L 131.869883 57666.377375 
L 131.869883 216.304054 
L 131.280673 216.304054 
z
" clip-path="url(#pb3baa3ea07)" style="fill: #1f77b4"/>
   </g>
   <g id="patch_95">
    <path d="M 157.79511 57666.377375 
L 158.384319 57666.377375 
L 158.384319 250.844771 
L 157.79511 250.844771 
z
" clip-path="url(#pb3baa3ea07)" style="fill: #1f77b4"/>
   </g>
   <g id="patch_96">
    <path d="M 151.903013 57666.377375 
L 152.492222 57666.377375 
L 152.492222 220.846752 
L 151.903013 220.846752 
z
" clip-path="url(#pb3baa3ea07)" style="fill: #1f77b4"/>
   </g>
   <g id="patch_97">
    <path d="M 134.963234 57666.377375 
L 135.552443 57666.377375 
L 135.552443 222.124769 
L 134.963234 222.124769 
z
" clip-path="url(#pb3baa3ea07)" style="fill: #1f77b4"/>
   </g>
   <g id="patch_98">
    <path d="M 134.226722 57666.377375 
L 134.815931 57666.377375 
L 134.815931 212.463257 
L 134.226722 212.463257 
z
" clip-path="url(#pb3baa3ea07)" style="fill: #1f77b4"/>
   </g>
   <g id="patch_99">
    <path d="M 141.591843 57666.377375 
L 142.181053 57666.377375 
L 142.181053 220.846752 
L 141.591843 220.846752 
z
" clip-path="url(#pb3baa3ea07)" style="fill: #1f77b4"/>
   </g>
   <g id="patch_100">
    <path d="M 149.693476 57666.377375 
L 150.282686 57666.377375 
L 150.282686 223.4719 
L 149.693476 223.4719 
z
" clip-path="url(#pb3baa3ea07)" style="fill: #1f77b4"/>
   </g>
   <g id="patch_101">
    <path d="M 166.633255 57666.377375 
L 167.222465 57666.377375 
L 167.222465 220.846752 
L 166.633255 220.846752 
z
" clip-path="url(#pb3baa3ea07)" style="fill: #1f77b4"/>
   </g>
   <g id="patch_102">
    <path d="M 146.010916 57666.377375 
L 146.600125 57666.377375 
L 146.600125 229.733615 
L 146.010916 229.733615 
z
" clip-path="url(#pb3baa3ea07)" style="fill: #1f77b4"/>
   </g>
   <g id="patch_103">
    <path d="M 160.741158 57666.377375 
L 161.330368 57666.377375 
L 161.330368 231.580079 
L 160.741158 231.580079 
z
" clip-path="url(#pb3baa3ea07)" style="fill: #1f77b4"/>
   </g>
   <g id="patch_104">
    <path d="M 147.48394 57666.377375 
L 148.07315 57666.377375 
L 148.07315 218.472017 
L 147.48394 218.472017 
z
" clip-path="url(#pb3baa3ea07)" style="fill: #1f77b4"/>
   </g>
   <g id="patch_105">
    <path d="M 137.17277 57666.377375 
L 137.76198 57666.377375 
L 137.76198 213.369388 
L 137.17277 213.369388 
z
" clip-path="url(#pb3baa3ea07)" style="fill: #1f77b4"/>
   </g>
   <g id="patch_106">
    <path d="M 152.639525 57666.377375 
L 153.228735 57666.377375 
L 153.228735 231.580079 
L 152.639525 231.580079 
z
" clip-path="url(#pb3baa3ea07)" style="fill: #1f77b4"/>
   </g>
   <g id="patch_107">
    <path d="M 145.274404 57666.377375 
L 145.863613 57666.377375 
L 145.863613 214.309721 
L 145.274404 214.309721 
z
" clip-path="url(#pb3baa3ea07)" style="fill: #1f77b4"/>
   </g>
   <g id="patch_108">
    <path d="M 140.118819 57666.377375 
L 140.708028 57666.377375 
L 140.708028 216.304054 
L 140.118819 216.304054 
z
" clip-path="url(#pb3baa3ea07)" style="fill: #1f77b4"/>
   </g>
   <g id="patch_109">
    <path d="M 143.801379 57666.377375 
L 144.390589 57666.377375 
L 144.390589 219.631103 
L 143.801379 219.631103 
z
" clip-path="url(#pb3baa3ea07)" style="fill: #1f77b4"/>
   </g>
   <g id="patch_110">
    <path d="M 142.328355 57666.377375 
L 142.917565 57666.377375 
L 142.917565 220.846752 
L 142.328355 220.846752 
z
" clip-path="url(#pb3baa3ea07)" style="fill: #1f77b4"/>
   </g>
   <g id="patch_111">
    <path d="M 148.956964 57666.377375 
L 149.546174 57666.377375 
L 149.546174 224.896051 
L 148.956964 224.896051 
z
" clip-path="url(#pb3baa3ea07)" style="fill: #1f77b4"/>
   </g>
   <g id="patch_112">
    <path d="M 188.728619 57666.377375 
L 189.317829 57666.377375 
L 189.317829 238.117111 
L 188.728619 238.117111 
z
" clip-path="url(#pb3baa3ea07)" style="fill: #1f77b4"/>
   </g>
   <g id="patch_113">
    <path d="M 165.896743 57666.377375 
L 166.485953 57666.377375 
L 166.485953 228.014598 
L 165.896743 228.014598 
z
" clip-path="url(#pb3baa3ea07)" style="fill: #1f77b4"/>
   </g>
   <g id="patch_114">
    <path d="M 164.423719 57666.377375 
L 165.012929 57666.377375 
L 165.012929 238.117111 
L 164.423719 238.117111 
z
" clip-path="url(#pb3baa3ea07)" style="fill: #1f77b4"/>
   </g>
   <g id="patch_115">
    <path d="M 170.315816 57666.377375 
L 170.905026 57666.377375 
L 170.905026 233.574412 
L 170.315816 233.574412 
z
" clip-path="url(#pb3baa3ea07)" style="fill: #1f77b4"/>
   </g>
   <g id="patch_116">
    <path d="M 182.10001 57666.377375 
L 182.68922 57666.377375 
L 182.68922 243.676924 
L 182.10001 243.676924 
z
" clip-path="url(#pb3baa3ea07)" style="fill: #1f77b4"/>
   </g>
   <g id="patch_117">
    <path d="M 158.531622 57666.377375 
L 159.120832 57666.377375 
L 159.120832 228.014598 
L 158.531622 228.014598 
z
" clip-path="url(#pb3baa3ea07)" style="fill: #1f77b4"/>
   </g>
   <g id="patch_118">
    <path d="M 156.322085 57666.377375 
L 156.911295 57666.377375 
L 156.911295 228.014598 
L 156.322085 228.014598 
z
" clip-path="url(#pb3baa3ea07)" style="fill: #1f77b4"/>
   </g>
   <g id="patch_119">
    <path d="M 153.376037 57666.377375 
L 153.965247 57666.377375 
L 153.965247 223.4719 
L 153.376037 223.4719 
z
" clip-path="url(#pb3baa3ea07)" style="fill: #1f77b4"/>
   </g>
   <g id="patch_120">
    <path d="M 151.166501 57666.377375 
L 151.75571 57666.377375 
L 151.75571 229.733615 
L 151.166501 229.733615 
z
" clip-path="url(#pb3baa3ea07)" style="fill: #1f77b4"/>
   </g>
   <g id="patch_121">
    <path d="M 173.998377 57666.377375 
L 174.587586 57666.377375 
L 174.587586 250.844771 
L 173.998377 250.844771 
z
" clip-path="url(#pb3baa3ea07)" style="fill: #1f77b4"/>
   </g>
   <g id="patch_122">
    <path d="M 167.369767 57666.377375 
L 167.958977 57666.377375 
L 167.958977 233.574412 
L 167.369767 233.574412 
z
" clip-path="url(#pb3baa3ea07)" style="fill: #1f77b4"/>
   </g>
   <g id="patch_123">
    <path d="M 146.747428 57666.377375 
L 147.336638 57666.377375 
L 147.336638 226.406566 
L 146.747428 226.406566 
z
" clip-path="url(#pb3baa3ea07)" style="fill: #1f77b4"/>
   </g>
   <g id="patch_124">
    <path d="M 159.268134 57666.377375 
L 159.857344 57666.377375 
L 159.857344 223.4719 
L 159.268134 223.4719 
z
" clip-path="url(#pb3baa3ea07)" style="fill: #1f77b4"/>
   </g>
   <g id="patch_125">
    <path d="M 189.465131 57666.377375 
L 190.054341 57666.377375 
L 190.054341 235.742375 
L 189.465131 235.742375 
z
" clip-path="url(#pb3baa3ea07)" style="fill: #1f77b4"/>
   </g>
   <g id="patch_126">
    <path d="M 231.446322 57666.377375 
L 232.035532 57666.377375 
L 232.035532 260.947283 
L 231.446322 260.947283 
z
" clip-path="url(#pb3baa3ea07)" style="fill: #1f77b4"/>
   </g>
   <g id="patch_127">
    <path d="M 246.176565 57666.377375 
L 246.765775 57666.377375 
L 246.765775 260.947283 
L 246.176565 260.947283 
z
" clip-path="url(#pb3baa3ea07)" style="fill: #1f77b4"/>
   </g>
   <g id="patch_128">
    <path d="M 165.160231 57666.377375 
L 165.749441 57666.377375 
L 165.749441 229.733615 
L 165.160231 229.733615 
z
" clip-path="url(#pb3baa3ea07)" style="fill: #1f77b4"/>
   </g>
   <g id="patch_129">
    <path d="M 176.207913 57666.377375 
L 176.797123 57666.377375 
L 176.797123 226.406566 
L 176.207913 226.406566 
z
" clip-path="url(#pb3baa3ea07)" style="fill: #1f77b4"/>
   </g>
   <g id="patch_130">
    <path d="M 179.890474 57666.377375 
L 180.479683 57666.377375 
L 180.479683 238.117111 
L 179.890474 238.117111 
z
" clip-path="url(#pb3baa3ea07)" style="fill: #1f77b4"/>
   </g>
   <g id="patch_131">
    <path d="M 155.585573 57666.377375 
L 156.174783 57666.377375 
L 156.174783 219.631103 
L 155.585573 219.631103 
z
" clip-path="url(#pb3baa3ea07)" style="fill: #1f77b4"/>
   </g>
   <g id="patch_132">
    <path d="M 150.429988 57666.377375 
L 151.019198 57666.377375 
L 151.019198 228.014598 
L 150.429988 228.014598 
z
" clip-path="url(#pb3baa3ea07)" style="fill: #1f77b4"/>
   </g>
   <g id="patch_133">
    <path d="M 162.950695 57666.377375 
L 163.539904 57666.377375 
L 163.539904 231.580079 
L 162.950695 231.580079 
z
" clip-path="url(#pb3baa3ea07)" style="fill: #1f77b4"/>
   </g>
   <g id="patch_134">
    <path d="M 190.201643 57666.377375 
L 190.790853 57666.377375 
L 190.790853 255.387469 
L 190.201643 255.387469 
z
" clip-path="url(#pb3baa3ea07)" style="fill: #1f77b4"/>
   </g>
   <g id="patch_135">
    <path d="M 171.78884 57666.377375 
L 172.37805 57666.377375 
L 172.37805 243.676924 
L 171.78884 243.676924 
z
" clip-path="url(#pb3baa3ea07)" style="fill: #1f77b4"/>
   </g>
   <g id="patch_136">
    <path d="M 207.141422 57666.377375 
L 207.730632 57666.377375 
L 207.730632 250.844771 
L 207.141422 250.844771 
z
" clip-path="url(#pb3baa3ea07)" style="fill: #1f77b4"/>
   </g>
   <g id="patch_137">
    <path d="M 160.004646 57666.377375 
L 160.593856 57666.377375 
L 160.593856 224.896051 
L 160.004646 224.896051 
z
" clip-path="url(#pb3baa3ea07)" style="fill: #1f77b4"/>
   </g>
   <g id="patch_138">
    <path d="M 179.153961 57666.377375 
L 179.743171 57666.377375 
L 179.743171 238.117111 
L 179.153961 238.117111 
z
" clip-path="url(#pb3baa3ea07)" style="fill: #1f77b4"/>
   </g>
   <g id="patch_139">
    <path d="M 173.261864 57666.377375 
L 173.851074 57666.377375 
L 173.851074 238.117111 
L 173.261864 238.117111 
z
" clip-path="url(#pb3baa3ea07)" style="fill: #1f77b4"/>
   </g>
   <g id="patch_140">
    <path d="M 193.884204 57666.377375 
L 194.473414 57666.377375 
L 194.473414 260.947283 
L 193.884204 260.947283 
z
" clip-path="url(#pb3baa3ea07)" style="fill: #1f77b4"/>
   </g>
   <g id="patch_141">
    <path d="M 187.255595 57666.377375 
L 187.844804 57666.377375 
L 187.844804 255.387469 
L 187.255595 255.387469 
z
" clip-path="url(#pb3baa3ea07)" style="fill: #1f77b4"/>
   </g>
   <g id="patch_142">
    <path d="M 154.112549 57666.377375 
L 154.701759 57666.377375 
L 154.701759 224.896051 
L 154.112549 224.896051 
z
" clip-path="url(#pb3baa3ea07)" style="fill: #1f77b4"/>
   </g>
   <g id="patch_143">
    <path d="M 172.525352 57666.377375 
L 173.114562 57666.377375 
L 173.114562 243.676924 
L 172.525352 243.676924 
z
" clip-path="url(#pb3baa3ea07)" style="fill: #1f77b4"/>
   </g>
   <g id="patch_144">
    <path d="M 184.309546 57666.377375 
L 184.898756 57666.377375 
L 184.898756 278.217641 
L 184.309546 278.217641 
z
" clip-path="url(#pb3baa3ea07)" style="fill: #1f77b4"/>
   </g>
   <g id="patch_145">
    <path d="M 205.668398 57666.377375 
L 206.257608 57666.377375 
L 206.257608 243.676924 
L 205.668398 243.676924 
z
" clip-path="url(#pb3baa3ea07)" style="fill: #1f77b4"/>
   </g>
   <g id="patch_146">
    <path d="M 181.363498 57666.377375 
L 181.952707 57666.377375 
L 181.952707 255.387469 
L 181.363498 255.387469 
z
" clip-path="url(#pb3baa3ea07)" style="fill: #1f77b4"/>
   </g>
   <g id="patch_147">
    <path d="M 208.614446 57666.377375 
L 209.203656 57666.377375 
L 209.203656 250.844771 
L 208.614446 250.844771 
z
" clip-path="url(#pb3baa3ea07)" style="fill: #1f77b4"/>
   </g>
   <g id="patch_148">
    <path d="M 195.357228 57666.377375 
L 195.946438 57666.377375 
L 195.946438 268.115129 
L 195.357228 268.115129 
z
" clip-path="url(#pb3baa3ea07)" style="fill: #1f77b4"/>
   </g>
   <g id="patch_149">
    <path d="M 182.836522 57666.377375 
L 183.425732 57666.377375 
L 183.425732 235.742375 
L 182.836522 235.742375 
z
" clip-path="url(#pb3baa3ea07)" style="fill: #1f77b4"/>
   </g>
   <g id="patch_150">
    <path d="M 213.033519 57666.377375 
L 213.622729 57666.377375 
L 213.622729 278.217641 
L 213.033519 278.217641 
z
" clip-path="url(#pb3baa3ea07)" style="fill: #1f77b4"/>
   </g>
   <g id="patch_151">
    <path d="M 157.058598 57666.377375 
L 157.647807 57666.377375 
L 157.647807 238.117111 
L 157.058598 238.117111 
z
" clip-path="url(#pb3baa3ea07)" style="fill: #1f77b4"/>
   </g>
   <g id="patch_152">
    <path d="M 202.722349 57666.377375 
L 203.311559 57666.377375 
L 203.311559 250.844771 
L 202.722349 250.844771 
z
" clip-path="url(#pb3baa3ea07)" style="fill: #1f77b4"/>
   </g>
   <g id="patch_153">
    <path d="M 203.458862 57666.377375 
L 204.048071 57666.377375 
L 204.048071 250.844771 
L 203.458862 250.844771 
z
" clip-path="url(#pb3baa3ea07)" style="fill: #1f77b4"/>
   </g>
   <g id="patch_154">
    <path d="M 221.135153 57666.377375 
L 221.724362 57666.377375 
L 221.724362 243.676924 
L 221.135153 243.676924 
z
" clip-path="url(#pb3baa3ea07)" style="fill: #1f77b4"/>
   </g>
   <g id="patch_155">
    <path d="M 168.106279 57666.377375 
L 168.695489 57666.377375 
L 168.695489 240.742259 
L 168.106279 240.742259 
z
" clip-path="url(#pb3baa3ea07)" style="fill: #1f77b4"/>
   </g>
   <g id="patch_156">
    <path d="M 177.680937 57666.377375 
L 178.270147 57666.377375 
L 178.270147 238.117111 
L 177.680937 238.117111 
z
" clip-path="url(#pb3baa3ea07)" style="fill: #1f77b4"/>
   </g>
   <g id="patch_157">
    <path d="M 185.782571 57666.377375 
L 186.37178 57666.377375 
L 186.37178 238.117111 
L 185.782571 238.117111 
z
" clip-path="url(#pb3baa3ea07)" style="fill: #1f77b4"/>
   </g>
   <g id="patch_158">
    <path d="M 168.842792 57666.377375 
L 169.432001 57666.377375 
L 169.432001 243.676924 
L 168.842792 243.676924 
z
" clip-path="url(#pb3baa3ea07)" style="fill: #1f77b4"/>
   </g>
   <g id="patch_159">
    <path d="M 171.052328 57666.377375 
L 171.641538 57666.377375 
L 171.641538 235.742375 
L 171.052328 235.742375 
z
" clip-path="url(#pb3baa3ea07)" style="fill: #1f77b4"/>
   </g>
   <g id="patch_160">
    <path d="M 213.770031 57666.377375 
L 214.359241 57666.377375 
L 214.359241 260.947283 
L 213.770031 260.947283 
z
" clip-path="url(#pb3baa3ea07)" style="fill: #1f77b4"/>
   </g>
   <g id="patch_161">
    <path d="M 162.214182 57666.377375 
L 162.803392 57666.377375 
L 162.803392 231.580079 
L 162.214182 231.580079 
z
" clip-path="url(#pb3baa3ea07)" style="fill: #1f77b4"/>
   </g>
   <g id="patch_162">
    <path d="M 222.608177 57666.377375 
L 223.197387 57666.377375 
L 223.197387 268.115129 
L 222.608177 268.115129 
z
" clip-path="url(#pb3baa3ea07)" style="fill: #1f77b4"/>
   </g>
   <g id="patch_163">
    <path d="M 180.626986 57666.377375 
L 181.216195 57666.377375 
L 181.216195 238.117111 
L 180.626986 238.117111 
z
" clip-path="url(#pb3baa3ea07)" style="fill: #1f77b4"/>
   </g>
   <g id="patch_164">
    <path d="M 175.471401 57666.377375 
L 176.06061 57666.377375 
L 176.06061 231.580079 
L 175.471401 231.580079 
z
" clip-path="url(#pb3baa3ea07)" style="fill: #1f77b4"/>
   </g>
   <g id="patch_165">
    <path d="M 218.925616 57666.377375 
L 219.514826 57666.377375 
L 219.514826 295.488 
L 218.925616 295.488 
z
" clip-path="url(#pb3baa3ea07)" style="fill: #1f77b4"/>
   </g>
   <g id="patch_166">
    <path d="M 211.560495 57666.377375 
L 212.149705 57666.377375 
L 212.149705 268.115129 
L 211.560495 268.115129 
z
" clip-path="url(#pb3baa3ea07)" style="fill: #1f77b4"/>
   </g>
   <g id="patch_167">
    <path d="M 199.776301 57666.377375 
L 200.365511 57666.377375 
L 200.365511 247.003974 
L 199.776301 247.003974 
z
" clip-path="url(#pb3baa3ea07)" style="fill: #1f77b4"/>
   </g>
   <g id="patch_168">
    <path d="M 192.41118 57666.377375 
L 193.000389 57666.377375 
L 193.000389 250.844771 
L 192.41118 250.844771 
z
" clip-path="url(#pb3baa3ea07)" style="fill: #1f77b4"/>
   </g>
   <g id="patch_169">
    <path d="M 187.992107 57666.377375 
L 188.581317 57666.377375 
L 188.581317 235.742375 
L 187.992107 235.742375 
z
" clip-path="url(#pb3baa3ea07)" style="fill: #1f77b4"/>
   </g>
   <g id="patch_170">
    <path d="M 190.938155 57666.377375 
L 191.527365 57666.377375 
L 191.527365 243.676924 
L 190.938155 243.676924 
z
" clip-path="url(#pb3baa3ea07)" style="fill: #1f77b4"/>
   </g>
   <g id="patch_171">
    <path d="M 183.573034 57666.377375 
L 184.162244 57666.377375 
L 184.162244 243.676924 
L 183.573034 243.676924 
z
" clip-path="url(#pb3baa3ea07)" style="fill: #1f77b4"/>
   </g>
   <g id="patch_172">
    <path d="M 224.817713 57666.377375 
L 225.406923 57666.377375 
L 225.406923 247.003974 
L 224.817713 247.003974 
z
" clip-path="url(#pb3baa3ea07)" style="fill: #1f77b4"/>
   </g>
   <g id="patch_173">
    <path d="M 239.547956 57666.377375 
L 240.137165 57666.377375 
L 240.137165 295.488 
L 239.547956 295.488 
z
" clip-path="url(#pb3baa3ea07)" style="fill: #1f77b4"/>
   </g>
   <g id="patch_174">
    <path d="M 191.674668 57666.377375 
L 192.263877 57666.377375 
L 192.263877 238.117111 
L 191.674668 238.117111 
z
" clip-path="url(#pb3baa3ea07)" style="fill: #1f77b4"/>
   </g>
   <g id="patch_175">
    <path d="M 174.734889 57666.377375 
L 175.324098 57666.377375 
L 175.324098 250.844771 
L 174.734889 250.844771 
z
" clip-path="url(#pb3baa3ea07)" style="fill: #1f77b4"/>
   </g>
   <g id="patch_176">
    <path d="M 178.417449 57666.377375 
L 179.006659 57666.377375 
L 179.006659 235.742375 
L 178.417449 235.742375 
z
" clip-path="url(#pb3baa3ea07)" style="fill: #1f77b4"/>
   </g>
   <g id="patch_177">
    <path d="M 169.579304 57666.377375 
L 170.168513 57666.377375 
L 170.168513 240.742259 
L 169.579304 240.742259 
z
" clip-path="url(#pb3baa3ea07)" style="fill: #1f77b4"/>
   </g>
   <g id="patch_178">
    <path d="M 204.931886 57666.377375 
L 205.521096 57666.377375 
L 205.521096 278.217641 
L 204.931886 278.217641 
z
" clip-path="url(#pb3baa3ea07)" style="fill: #1f77b4"/>
   </g>
   <g id="patch_179">
    <path d="M 207.877934 57666.377375 
L 208.467144 57666.377375 
L 208.467144 278.217641 
L 207.877934 278.217641 
z
" clip-path="url(#pb3baa3ea07)" style="fill: #1f77b4"/>
   </g>
   <g id="patch_180">
    <path d="M 210.823983 57666.377375 
L 211.413193 57666.377375 
L 211.413193 268.115129 
L 210.823983 268.115129 
z
" clip-path="url(#pb3baa3ea07)" style="fill: #1f77b4"/>
   </g>
   <g id="patch_181">
    <path d="M 196.830252 57666.377375 
L 197.419462 57666.377375 
L 197.419462 250.844771 
L 196.830252 250.844771 
z
" clip-path="url(#pb3baa3ea07)" style="fill: #1f77b4"/>
   </g>
   <g id="patch_182">
    <path d="M 215.979568 57666.377375 
L 216.568777 57666.377375 
L 216.568777 260.947283 
L 215.979568 260.947283 
z
" clip-path="url(#pb3baa3ea07)" style="fill: #1f77b4"/>
   </g>
   <g id="patch_183">
    <path d="M 201.249325 57666.377375 
L 201.838535 57666.377375 
L 201.838535 240.742259 
L 201.249325 240.742259 
z
" clip-path="url(#pb3baa3ea07)" style="fill: #1f77b4"/>
   </g>
   <g id="patch_184">
    <path d="M 161.47767 57666.377375 
L 162.06688 57666.377375 
L 162.06688 243.676924 
L 161.47767 243.676924 
z
" clip-path="url(#pb3baa3ea07)" style="fill: #1f77b4"/>
   </g>
   <g id="patch_185">
    <path d="M 200.512813 57666.377375 
L 201.102023 57666.377375 
L 201.102023 243.676924 
L 200.512813 243.676924 
z
" clip-path="url(#pb3baa3ea07)" style="fill: #1f77b4"/>
   </g>
   <g id="patch_186">
    <path d="M 176.944425 57666.377375 
L 177.533635 57666.377375 
L 177.533635 250.844771 
L 176.944425 250.844771 
z
" clip-path="url(#pb3baa3ea07)" style="fill: #1f77b4"/>
   </g>
   <g id="patch_187">
    <path d="M 227.763762 57666.377375 
L 228.352971 57666.377375 
L 228.352971 268.115129 
L 227.763762 268.115129 
z
" clip-path="url(#pb3baa3ea07)" style="fill: #1f77b4"/>
   </g>
   <g id="patch_188">
    <path d="M 235.865395 57666.377375 
L 236.454605 57666.377375 
L 236.454605 278.217641 
L 235.865395 278.217641 
z
" clip-path="url(#pb3baa3ea07)" style="fill: #1f77b4"/>
   </g>
   <g id="patch_189">
    <path d="M 194.620716 57666.377375 
L 195.209926 57666.377375 
L 195.209926 250.844771 
L 194.620716 250.844771 
z
" clip-path="url(#pb3baa3ea07)" style="fill: #1f77b4"/>
   </g>
   <g id="patch_190">
    <path d="M 163.687207 57666.377375 
L 164.276416 57666.377375 
L 164.276416 243.676924 
L 163.687207 243.676924 
z
" clip-path="url(#pb3baa3ea07)" style="fill: #1f77b4"/>
   </g>
   <g id="patch_191">
    <path d="M 201.985837 57666.377375 
L 202.575047 57666.377375 
L 202.575047 250.844771 
L 201.985837 250.844771 
z
" clip-path="url(#pb3baa3ea07)" style="fill: #1f77b4"/>
   </g>
   <g id="patch_192">
    <path d="M 209.350959 57666.377375 
L 209.940168 57666.377375 
L 209.940168 260.947283 
L 209.350959 260.947283 
z
" clip-path="url(#pb3baa3ea07)" style="fill: #1f77b4"/>
   </g>
   <g id="patch_193">
    <path d="M 253.541686 57666.377375 
L 254.130896 57666.377375 
L 254.130896 295.488 
L 253.541686 295.488 
z
" clip-path="url(#pb3baa3ea07)" style="fill: #1f77b4"/>
   </g>
   <g id="patch_194">
    <path d="M 218.189104 57666.377375 
L 218.778314 57666.377375 
L 218.778314 260.947283 
L 218.189104 260.947283 
z
" clip-path="url(#pb3baa3ea07)" style="fill: #1f77b4"/>
   </g>
   <g id="patch_195">
    <path d="M 229.236786 57666.377375 
L 229.825996 57666.377375 
L 229.825996 260.947283 
L 229.236786 260.947283 
z
" clip-path="url(#pb3baa3ea07)" style="fill: #1f77b4"/>
   </g>
   <g id="patch_196">
    <path d="M 198.303277 57666.377375 
L 198.892486 57666.377375 
L 198.892486 238.117111 
L 198.303277 238.117111 
z
" clip-path="url(#pb3baa3ea07)" style="fill: #1f77b4"/>
   </g>
   <g id="patch_197">
    <path d="M 249.859126 57666.377375 
L 250.448335 57666.377375 
L 250.448335 260.947283 
L 249.859126 260.947283 
z
" clip-path="url(#pb3baa3ea07)" style="fill: #1f77b4"/>
   </g>
   <g id="patch_198">
    <path d="M 257.224247 57666.377375 
L 257.813457 57666.377375 
L 257.813457 295.488 
L 257.224247 295.488 
z
" clip-path="url(#pb3baa3ea07)" style="fill: #1f77b4"/>
   </g>
   <g id="patch_199">
    <path d="M 206.40491 57666.377375 
L 206.99412 57666.377375 
L 206.99412 268.115129 
L 206.40491 268.115129 
z
" clip-path="url(#pb3baa3ea07)" style="fill: #1f77b4"/>
   </g>
   <g id="patch_200">
    <path d="M 223.344689 57666.377375 
L 223.933899 57666.377375 
L 223.933899 260.947283 
L 223.344689 260.947283 
z
" clip-path="url(#pb3baa3ea07)" style="fill: #1f77b4"/>
   </g>
   <g id="patch_201">
    <path d="M 235.128883 57666.377375 
L 235.718093 57666.377375 
L 235.718093 260.947283 
L 235.128883 260.947283 
z
" clip-path="url(#pb3baa3ea07)" style="fill: #1f77b4"/>
   </g>
   <g id="patch_202">
    <path d="M 255.751223 57666.377375 
L 256.340432 57666.377375 
L 256.340432 278.217641 
L 255.751223 278.217641 
z
" clip-path="url(#pb3baa3ea07)" style="fill: #1f77b4"/>
   </g>
   <g id="patch_203">
    <path d="M 262.379832 57666.377375 
L 262.969041 57666.377375 
L 262.969041 278.217641 
L 262.379832 278.217641 
z
" clip-path="url(#pb3baa3ea07)" style="fill: #1f77b4"/>
   </g>
   <g id="patch_204">
    <path d="M 185.046058 57666.377375 
L 185.635268 57666.377375 
L 185.635268 247.003974 
L 185.046058 247.003974 
z
" clip-path="url(#pb3baa3ea07)" style="fill: #1f77b4"/>
   </g>
   <g id="patch_205">
    <path d="M 247.649589 57666.377375 
L 248.238799 57666.377375 
L 248.238799 278.217641 
L 247.649589 278.217641 
z
" clip-path="url(#pb3baa3ea07)" style="fill: #1f77b4"/>
   </g>
   <g id="patch_206">
    <path d="M 197.566765 57666.377375 
L 198.155974 57666.377375 
L 198.155974 255.387469 
L 197.566765 255.387469 
z
" clip-path="url(#pb3baa3ea07)" style="fill: #1f77b4"/>
   </g>
   <g id="patch_207">
    <path d="M 217.452592 57666.377375 
L 218.041802 57666.377375 
L 218.041802 255.387469 
L 217.452592 255.387469 
z
" clip-path="url(#pb3baa3ea07)" style="fill: #1f77b4"/>
   </g>
   <g id="patch_208">
    <path d="M 290.367293 57666.377375 
L 290.956502 57666.377375 
L 290.956502 295.488 
L 290.367293 295.488 
z
" clip-path="url(#pb3baa3ea07)" style="fill: #1f77b4"/>
   </g>
   <g id="patch_209">
    <path d="M 199.039789 57666.377375 
L 199.628999 57666.377375 
L 199.628999 260.947283 
L 199.039789 260.947283 
z
" clip-path="url(#pb3baa3ea07)" style="fill: #1f77b4"/>
   </g>
   <g id="patch_210">
    <path d="M 240.284468 57666.377375 
L 240.873678 57666.377375 
L 240.873678 260.947283 
L 240.284468 260.947283 
z
" clip-path="url(#pb3baa3ea07)" style="fill: #1f77b4"/>
   </g>
   <g id="patch_211">
    <path d="M 216.71608 57666.377375 
L 217.30529 57666.377375 
L 217.30529 268.115129 
L 216.71608 268.115129 
z
" clip-path="url(#pb3baa3ea07)" style="fill: #1f77b4"/>
   </g>
   <g id="patch_212">
    <path d="M 212.297007 57666.377375 
L 212.886217 57666.377375 
L 212.886217 260.947283 
L 212.297007 260.947283 
z
" clip-path="url(#pb3baa3ea07)" style="fill: #1f77b4"/>
   </g>
   <g id="patch_213">
    <path d="M 228.500274 57666.377375 
L 229.089484 57666.377375 
L 229.089484 268.115129 
L 228.500274 268.115129 
z
" clip-path="url(#pb3baa3ea07)" style="fill: #1f77b4"/>
   </g>
   <g id="patch_214">
    <path d="M 245.440053 57666.377375 
L 246.029262 57666.377375 
L 246.029262 295.488 
L 245.440053 295.488 
z
" clip-path="url(#pb3baa3ea07)" style="fill: #1f77b4"/>
   </g>
   <g id="patch_215">
    <path d="M 233.655859 57666.377375 
L 234.245068 57666.377375 
L 234.245068 255.387469 
L 233.655859 255.387469 
z
" clip-path="url(#pb3baa3ea07)" style="fill: #1f77b4"/>
   </g>
   <g id="patch_216">
    <path d="M 302.151487 57666.377375 
L 302.740696 57666.377375 
L 302.740696 278.217641 
L 302.151487 278.217641 
z
" clip-path="url(#pb3baa3ea07)" style="fill: #1f77b4"/>
   </g>
   <g id="patch_217">
    <path d="M 283.002171 57666.377375 
L 283.591381 57666.377375 
L 283.591381 278.217641 
L 283.002171 278.217641 
z
" clip-path="url(#pb3baa3ea07)" style="fill: #1f77b4"/>
   </g>
   <g id="patch_218">
    <path d="M 219.662128 57666.377375 
L 220.251338 57666.377375 
L 220.251338 268.115129 
L 219.662128 268.115129 
z
" clip-path="url(#pb3baa3ea07)" style="fill: #1f77b4"/>
   </g>
   <g id="patch_219">
    <path d="M 241.02098 57666.377375 
L 241.61019 57666.377375 
L 241.61019 278.217641 
L 241.02098 278.217641 
z
" clip-path="url(#pb3baa3ea07)" style="fill: #1f77b4"/>
   </g>
   <g id="patch_220">
    <path d="M 193.147692 57666.377375 
L 193.736902 57666.377375 
L 193.736902 278.217641 
L 193.147692 278.217641 
z
" clip-path="url(#pb3baa3ea07)" style="fill: #1f77b4"/>
   </g>
   <g id="patch_221">
    <path d="M 271.217977 57666.377375 
L 271.807187 57666.377375 
L 271.807187 278.217641 
L 271.217977 278.217641 
z
" clip-path="url(#pb3baa3ea07)" style="fill: #1f77b4"/>
   </g>
   <g id="patch_222">
    <path d="M 238.811444 57666.377375 
L 239.400653 57666.377375 
L 239.400653 278.217641 
L 238.811444 278.217641 
z
" clip-path="url(#pb3baa3ea07)" style="fill: #1f77b4"/>
   </g>
   <g id="patch_223">
    <path d="M 224.081201 57666.377375 
L 224.670411 57666.377375 
L 224.670411 268.115129 
L 224.081201 268.115129 
z
" clip-path="url(#pb3baa3ea07)" style="fill: #1f77b4"/>
   </g>
   <g id="patch_224">
    <path d="M 242.494004 57666.377375 
L 243.083214 57666.377375 
L 243.083214 295.488 
L 242.494004 295.488 
z
" clip-path="url(#pb3baa3ea07)" style="fill: #1f77b4"/>
   </g>
   <g id="patch_225">
    <path d="M 226.290738 57666.377375 
L 226.879947 57666.377375 
L 226.879947 268.115129 
L 226.290738 268.115129 
z
" clip-path="url(#pb3baa3ea07)" style="fill: #1f77b4"/>
   </g>
   <g id="patch_226">
    <path d="M 266.062392 57666.377375 
L 266.651602 57666.377375 
L 266.651602 268.115129 
L 266.062392 268.115129 
z
" clip-path="url(#pb3baa3ea07)" style="fill: #1f77b4"/>
   </g>
   <g id="patch_227">
    <path d="M 186.519083 57666.377375 
L 187.108292 57666.377375 
L 187.108292 268.115129 
L 186.519083 268.115129 
z
" clip-path="url(#pb3baa3ea07)" style="fill: #1f77b4"/>
   </g>
   <g id="patch_228">
    <path d="M 243.230516 57666.377375 
L 243.819726 57666.377375 
L 243.819726 268.115129 
L 243.230516 268.115129 
z
" clip-path="url(#pb3baa3ea07)" style="fill: #1f77b4"/>
   </g>
   <g id="patch_229">
    <path d="M 288.894268 57666.377375 
L 289.483478 57666.377375 
L 289.483478 278.217641 
L 288.894268 278.217641 
z
" clip-path="url(#pb3baa3ea07)" style="fill: #1f77b4"/>
   </g>
   <g id="patch_230">
    <path d="M 237.338419 57666.377375 
L 237.927629 57666.377375 
L 237.927629 260.947283 
L 237.338419 260.947283 
z
" clip-path="url(#pb3baa3ea07)" style="fill: #1f77b4"/>
   </g>
   <g id="patch_231">
    <path d="M 272.691001 57666.377375 
L 273.280211 57666.377375 
L 273.280211 268.115129 
L 272.691001 268.115129 
z
" clip-path="url(#pb3baa3ea07)" style="fill: #1f77b4"/>
   </g>
   <g id="patch_232">
    <path d="M 258.697271 57666.377375 
L 259.286481 57666.377375 
L 259.286481 278.217641 
L 258.697271 278.217641 
z
" clip-path="url(#pb3baa3ea07)" style="fill: #1f77b4"/>
   </g>
   <g id="patch_233">
    <path d="M 234.392371 57666.377375 
L 234.981581 57666.377375 
L 234.981581 268.115129 
L 234.392371 268.115129 
z
" clip-path="url(#pb3baa3ea07)" style="fill: #1f77b4"/>
   </g>
   <g id="patch_234">
    <path d="M 263.116344 57666.377375 
L 263.705554 57666.377375 
L 263.705554 260.947283 
L 263.116344 260.947283 
z
" clip-path="url(#pb3baa3ea07)" style="fill: #1f77b4"/>
   </g>
   <g id="patch_235">
    <path d="M 210.087471 57666.377375 
L 210.67668 57666.377375 
L 210.67668 260.947283 
L 210.087471 260.947283 
z
" clip-path="url(#pb3baa3ea07)" style="fill: #1f77b4"/>
   </g>
   <g id="patch_236">
    <path d="M 241.757492 57666.377375 
L 242.346702 57666.377375 
L 242.346702 295.488 
L 241.757492 295.488 
z
" clip-path="url(#pb3baa3ea07)" style="fill: #1f77b4"/>
   </g>
   <g id="patch_237">
    <path d="M 269.008441 57666.377375 
L 269.597651 57666.377375 
L 269.597651 295.488 
L 269.008441 295.488 
z
" clip-path="url(#pb3baa3ea07)" style="fill: #1f77b4"/>
   </g>
   <g id="patch_238">
    <path d="M 225.554225 57666.377375 
L 226.143435 57666.377375 
L 226.143435 260.947283 
L 225.554225 260.947283 
z
" clip-path="url(#pb3baa3ea07)" style="fill: #1f77b4"/>
   </g>
   <g id="patch_239">
    <path d="M 305.097535 57666.377375 
L 305.686745 57666.377375 
L 305.686745 268.115129 
L 305.097535 268.115129 
z
" clip-path="url(#pb3baa3ea07)" style="fill: #1f77b4"/>
   </g>
   <g id="patch_240">
    <path d="M 204.195374 57666.377375 
L 204.784583 57666.377375 
L 204.784583 255.387469 
L 204.195374 255.387469 
z
" clip-path="url(#pb3baa3ea07)" style="fill: #1f77b4"/>
   </g>
   <g id="patch_241">
    <path d="M 274.164026 57666.377375 
L 274.753235 57666.377375 
L 274.753235 278.217641 
L 274.164026 278.217641 
z
" clip-path="url(#pb3baa3ea07)" style="fill: #1f77b4"/>
   </g>
   <g id="patch_242">
    <path d="M 232.919347 57666.377375 
L 233.508556 57666.377375 
L 233.508556 268.115129 
L 232.919347 268.115129 
z
" clip-path="url(#pb3baa3ea07)" style="fill: #1f77b4"/>
   </g>
   <g id="patch_243">
    <path d="M 215.243056 57666.377375 
L 215.832265 57666.377375 
L 215.832265 278.217641 
L 215.243056 278.217641 
z
" clip-path="url(#pb3baa3ea07)" style="fill: #1f77b4"/>
   </g>
   <g id="patch_244">
    <path d="M 221.871665 57666.377375 
L 222.460874 57666.377375 
L 222.460874 278.217641 
L 221.871665 278.217641 
z
" clip-path="url(#pb3baa3ea07)" style="fill: #1f77b4"/>
   </g>
   <g id="patch_245">
    <path d="M 266.798904 57666.377375 
L 267.388114 57666.377375 
L 267.388114 295.488 
L 266.798904 295.488 
z
" clip-path="url(#pb3baa3ea07)" style="fill: #1f77b4"/>
   </g>
   <g id="patch_246">
    <path d="M 310.25312 57666.377375 
L 310.84233 57666.377375 
L 310.84233 295.488 
L 310.25312 295.488 
z
" clip-path="url(#pb3baa3ea07)" style="fill: #1f77b4"/>
   </g>
   <g id="patch_247">
    <path d="M 230.70981 57666.377375 
L 231.29902 57666.377375 
L 231.29902 255.387469 
L 230.70981 255.387469 
z
" clip-path="url(#pb3baa3ea07)" style="fill: #1f77b4"/>
   </g>
   <g id="patch_248">
    <path d="M 285.211708 57666.377375 
L 285.800917 57666.377375 
L 285.800917 295.488 
L 285.211708 295.488 
z
" clip-path="url(#pb3baa3ea07)" style="fill: #1f77b4"/>
   </g>
   <g id="patch_249">
    <path d="M 308.780096 57666.377375 
L 309.369305 57666.377375 
L 309.369305 278.217641 
L 308.780096 278.217641 
z
" clip-path="url(#pb3baa3ea07)" style="fill: #1f77b4"/>
   </g>
   <g id="patch_250">
    <path d="M 214.506543 57666.377375 
L 215.095753 57666.377375 
L 215.095753 255.387469 
L 214.506543 255.387469 
z
" clip-path="url(#pb3baa3ea07)" style="fill: #1f77b4"/>
   </g>
   <g id="patch_251">
    <path d="M 318.354753 57666.377375 
L 318.943963 57666.377375 
L 318.943963 295.488 
L 318.354753 295.488 
z
" clip-path="url(#pb3baa3ea07)" style="fill: #1f77b4"/>
   </g>
   <g id="patch_252">
    <path d="M 255.01471 57666.377375 
L 255.60392 57666.377375 
L 255.60392 278.217641 
L 255.01471 278.217641 
z
" clip-path="url(#pb3baa3ea07)" style="fill: #1f77b4"/>
   </g>
   <g id="patch_253">
    <path d="M 244.703541 57666.377375 
L 245.29275 57666.377375 
L 245.29275 295.488 
L 244.703541 295.488 
z
" clip-path="url(#pb3baa3ea07)" style="fill: #1f77b4"/>
   </g>
   <g id="patch_254">
    <path d="M 287.421244 57666.377375 
L 288.010454 57666.377375 
L 288.010454 278.217641 
L 287.421244 278.217641 
z
" clip-path="url(#pb3baa3ea07)" style="fill: #1f77b4"/>
   </g>
   <g id="patch_255">
    <path d="M 229.973298 57666.377375 
L 230.562508 57666.377375 
L 230.562508 268.115129 
L 229.973298 268.115129 
z
" clip-path="url(#pb3baa3ea07)" style="fill: #1f77b4"/>
   </g>
   <g id="patch_256">
    <path d="M 236.601907 57666.377375 
L 237.191117 57666.377375 
L 237.191117 295.488 
L 236.601907 295.488 
z
" clip-path="url(#pb3baa3ea07)" style="fill: #1f77b4"/>
   </g>
   <g id="patch_257">
    <path d="M 267.535417 57666.377375 
L 268.124626 57666.377375 
L 268.124626 278.217641 
L 267.535417 278.217641 
z
" clip-path="url(#pb3baa3ea07)" style="fill: #1f77b4"/>
   </g>
   <g id="patch_258">
    <path d="M 347.815238 57666.377375 
L 348.404448 57666.377375 
L 348.404448 295.488 
L 347.815238 295.488 
z
" clip-path="url(#pb3baa3ea07)" style="fill: #1f77b4"/>
   </g>
   <g id="patch_259">
    <path d="M 250.595638 57666.377375 
L 251.184847 57666.377375 
L 251.184847 268.115129 
L 250.595638 268.115129 
z
" clip-path="url(#pb3baa3ea07)" style="fill: #1f77b4"/>
   </g>
   <g id="patch_260">
    <path d="M 232.182835 57666.377375 
L 232.772044 57666.377375 
L 232.772044 278.217641 
L 232.182835 278.217641 
z
" clip-path="url(#pb3baa3ea07)" style="fill: #1f77b4"/>
   </g>
   <g id="patch_261">
    <path d="M 280.056123 57666.377375 
L 280.645332 57666.377375 
L 280.645332 295.488 
L 280.056123 295.488 
z
" clip-path="url(#pb3baa3ea07)" style="fill: #1f77b4"/>
   </g>
   <g id="patch_262">
    <path d="M 261.64332 57666.377375 
L 262.232529 57666.377375 
L 262.232529 278.217641 
L 261.64332 278.217641 
z
" clip-path="url(#pb3baa3ea07)" style="fill: #1f77b4"/>
   </g>
   <g id="patch_263">
    <path d="M 323.510338 57666.377375 
L 324.099548 57666.377375 
L 324.099548 295.488 
L 323.510338 295.488 
z
" clip-path="url(#pb3baa3ea07)" style="fill: #1f77b4"/>
   </g>
   <g id="patch_264">
    <path d="M 254.278198 57666.377375 
L 254.867408 57666.377375 
L 254.867408 278.217641 
L 254.278198 278.217641 
z
" clip-path="url(#pb3baa3ea07)" style="fill: #1f77b4"/>
   </g>
   <g id="patch_265">
    <path d="M 281.529147 57666.377375 
L 282.118357 57666.377375 
L 282.118357 295.488 
L 281.529147 295.488 
z
" clip-path="url(#pb3baa3ea07)" style="fill: #1f77b4"/>
   </g>
   <g id="patch_266">
    <path d="M 252.068662 57666.377375 
L 252.657872 57666.377375 
L 252.657872 295.488 
L 252.068662 295.488 
z
" clip-path="url(#pb3baa3ea07)" style="fill: #1f77b4"/>
   </g>
   <g id="patch_267">
    <path d="M 283.738683 57666.377375 
L 284.327893 57666.377375 
L 284.327893 278.217641 
L 283.738683 278.217641 
z
" clip-path="url(#pb3baa3ea07)" style="fill: #1f77b4"/>
   </g>
   <g id="patch_268">
    <path d="M 249.122613 57666.377375 
L 249.711823 57666.377375 
L 249.711823 268.115129 
L 249.122613 268.115129 
z
" clip-path="url(#pb3baa3ea07)" style="fill: #1f77b4"/>
   </g>
   <g id="patch_269">
    <path d="M 319.091265 57666.377375 
L 319.680475 57666.377375 
L 319.680475 295.488 
L 319.091265 295.488 
z
" clip-path="url(#pb3baa3ea07)" style="fill: #1f77b4"/>
   </g>
   <g id="patch_270">
    <path d="M 265.32588 57666.377375 
L 265.91509 57666.377375 
L 265.91509 295.488 
L 265.32588 295.488 
z
" clip-path="url(#pb3baa3ea07)" style="fill: #1f77b4"/>
   </g>
   <g id="patch_271">
    <path d="M 313.199168 57666.377375 
L 313.788378 57666.377375 
L 313.788378 295.488 
L 313.199168 295.488 
z
" clip-path="url(#pb3baa3ea07)" style="fill: #1f77b4"/>
   </g>
   <g id="patch_272">
    <path d="M 252.805174 57666.377375 
L 253.394384 57666.377375 
L 253.394384 295.488 
L 252.805174 295.488 
z
" clip-path="url(#pb3baa3ea07)" style="fill: #1f77b4"/>
   </g>
   <g id="patch_273">
    <path d="M 227.02725 57666.377375 
L 227.616459 57666.377375 
L 227.616459 295.488 
L 227.02725 295.488 
z
" clip-path="url(#pb3baa3ea07)" style="fill: #1f77b4"/>
   </g>
   <g id="patch_274">
    <path d="M 280.792635 57666.377375 
L 281.381845 57666.377375 
L 281.381845 295.488 
L 280.792635 295.488 
z
" clip-path="url(#pb3baa3ea07)" style="fill: #1f77b4"/>
   </g>
   <g id="patch_275">
    <path d="M 260.906807 57666.377375 
L 261.496017 57666.377375 
L 261.496017 278.217641 
L 260.906807 278.217641 
z
" clip-path="url(#pb3baa3ea07)" style="fill: #1f77b4"/>
   </g>
   <g id="patch_276">
    <path d="M 263.852856 57666.377375 
L 264.442066 57666.377375 
L 264.442066 295.488 
L 263.852856 295.488 
z
" clip-path="url(#pb3baa3ea07)" style="fill: #1f77b4"/>
   </g>
   <g id="patch_277">
    <path d="M 243.967029 57666.377375 
L 244.556238 57666.377375 
L 244.556238 295.488 
L 243.967029 295.488 
z
" clip-path="url(#pb3baa3ea07)" style="fill: #1f77b4"/>
   </g>
   <g id="patch_278">
    <path d="M 264.589368 57666.377375 
L 265.178578 57666.377375 
L 265.178578 278.217641 
L 264.589368 278.217641 
z
" clip-path="url(#pb3baa3ea07)" style="fill: #1f77b4"/>
   </g>
   <g id="patch_279">
    <path d="M 286.684732 57666.377375 
L 287.273942 57666.377375 
L 287.273942 295.488 
L 286.684732 295.488 
z
" clip-path="url(#pb3baa3ea07)" style="fill: #1f77b4"/>
   </g>
   <g id="patch_280">
    <path d="M 238.074932 57666.377375 
L 238.664141 57666.377375 
L 238.664141 295.488 
L 238.074932 295.488 
z
" clip-path="url(#pb3baa3ea07)" style="fill: #1f77b4"/>
   </g>
   <g id="patch_281">
    <path d="M 336.767557 57666.377375 
L 337.356766 57666.377375 
L 337.356766 295.488 
L 336.767557 295.488 
z
" clip-path="url(#pb3baa3ea07)" style="fill: #1f77b4"/>
   </g>
   <g id="patch_282">
    <path d="M 397.898063 57666.377375 
L 398.487273 57666.377375 
L 398.487273 295.488 
L 397.898063 295.488 
z
" clip-path="url(#pb3baa3ea07)" style="fill: #1f77b4"/>
   </g>
   <g id="patch_283">
    <path d="M 291.103805 57666.377375 
L 291.693014 57666.377375 
L 291.693014 295.488 
L 291.103805 295.488 
z
" clip-path="url(#pb3baa3ea07)" style="fill: #1f77b4"/>
   </g>
   <g id="patch_284">
    <path d="M 220.39864 57666.377375 
L 220.98785 57666.377375 
L 220.98785 295.488 
L 220.39864 295.488 
z
" clip-path="url(#pb3baa3ea07)" style="fill: #1f77b4"/>
   </g>
   <g id="patch_285">
    <path d="M 277.110074 57666.377375 
L 277.699284 57666.377375 
L 277.699284 295.488 
L 277.110074 295.488 
z
" clip-path="url(#pb3baa3ea07)" style="fill: #1f77b4"/>
   </g>
   <g id="patch_286">
    <path d="M 375.066187 57666.377375 
L 375.655397 57666.377375 
L 375.655397 295.488 
L 375.066187 295.488 
z
" clip-path="url(#pb3baa3ea07)" style="fill: #1f77b4"/>
   </g>
   <g id="patch_287">
    <path d="M 319.827778 57666.377375 
L 320.416987 57666.377375 
L 320.416987 295.488 
L 319.827778 295.488 
z
" clip-path="url(#pb3baa3ea07)" style="fill: #1f77b4"/>
   </g>
   <g id="patch_288">
    <path d="M 329.402435 57666.377375 
L 329.991645 57666.377375 
L 329.991645 295.488 
L 329.402435 295.488 
z
" clip-path="url(#pb3baa3ea07)" style="fill: #1f77b4"/>
   </g>
   <g id="patch_289">
    <path d="M 322.773826 57666.377375 
L 323.363036 57666.377375 
L 323.363036 295.488 
L 322.773826 295.488 
z
" clip-path="url(#pb3baa3ea07)" style="fill: #1f77b4"/>
   </g>
   <g id="patch_290">
    <path d="M 248.386101 57666.377375 
L 248.975311 57666.377375 
L 248.975311 295.488 
L 248.386101 295.488 
z
" clip-path="url(#pb3baa3ea07)" style="fill: #1f77b4"/>
   </g>
   <g id="patch_291">
    <path d="M 300.678462 57666.377375 
L 301.267672 57666.377375 
L 301.267672 295.488 
L 300.678462 295.488 
z
" clip-path="url(#pb3baa3ea07)" style="fill: #1f77b4"/>
   </g>
   <g id="patch_292">
    <path d="M 331.611972 57666.377375 
L 332.201181 57666.377375 
L 332.201181 295.488 
L 331.611972 295.488 
z
" clip-path="url(#pb3baa3ea07)" style="fill: #1f77b4"/>
   </g>
   <g id="matplotlib.axis_1">
    <g id="xtick_1">
     <g id="line2d_1">
      <defs>
       <path id="m4f65fae5c1" d="M 0 0 
L 0 3.5 
" style="stroke: #000000; stroke-width: 0.8"/>
      </defs>
      <g>
       <use xlink:href="#m4f65fae5c1" x="74.127332" y="307.584" style="stroke: #000000; stroke-width: 0.8"/>
      </g>
     </g>
     <g id="text_1">
      <!-- 0 -->
      <g transform="translate(70.946082 322.182437) scale(0.1 -0.1)">
       <defs>
        <path id="DejaVuSans-30" d="M 2034 4250 
Q 1547 4250 1301 3770 
Q 1056 3291 1056 2328 
Q 1056 1369 1301 889 
Q 1547 409 2034 409 
Q 2525 409 2770 889 
Q 3016 1369 3016 2328 
Q 3016 3291 2770 3770 
Q 2525 4250 2034 4250 
z
M 2034 4750 
Q 2819 4750 3233 4129 
Q 3647 3509 3647 2328 
Q 3647 1150 3233 529 
Q 2819 -91 2034 -91 
Q 1250 -91 836 529 
Q 422 1150 422 2328 
Q 422 3509 836 4129 
Q 1250 4750 2034 4750 
z
" transform="scale(0.015625)"/>
       </defs>
       <use xlink:href="#DejaVuSans-30"/>
      </g>
     </g>
    </g>
    <g id="xtick_2">
     <g id="line2d_2">
      <g>
       <use xlink:href="#m4f65fae5c1" x="147.778545" y="307.584" style="stroke: #000000; stroke-width: 0.8"/>
      </g>
     </g>
     <g id="text_2">
      <!-- 100 -->
      <g transform="translate(138.234795 322.182437) scale(0.1 -0.1)">
       <defs>
        <path id="DejaVuSans-31" d="M 794 531 
L 1825 531 
L 1825 4091 
L 703 3866 
L 703 4441 
L 1819 4666 
L 2450 4666 
L 2450 531 
L 3481 531 
L 3481 0 
L 794 0 
L 794 531 
z
" transform="scale(0.015625)"/>
       </defs>
       <use xlink:href="#DejaVuSans-31"/>
       <use xlink:href="#DejaVuSans-30" x="63.623047"/>
       <use xlink:href="#DejaVuSans-30" x="127.246094"/>
      </g>
     </g>
    </g>
    <g id="xtick_3">
     <g id="line2d_3">
      <g>
       <use xlink:href="#m4f65fae5c1" x="221.429757" y="307.584" style="stroke: #000000; stroke-width: 0.8"/>
      </g>
     </g>
     <g id="text_3">
      <!-- 200 -->
      <g transform="translate(211.886007 322.182437) scale(0.1 -0.1)">
       <defs>
        <path id="DejaVuSans-32" d="M 1228 531 
L 3431 531 
L 3431 0 
L 469 0 
L 469 531 
Q 828 903 1448 1529 
Q 2069 2156 2228 2338 
Q 2531 2678 2651 2914 
Q 2772 3150 2772 3378 
Q 2772 3750 2511 3984 
Q 2250 4219 1831 4219 
Q 1534 4219 1204 4116 
Q 875 4013 500 3803 
L 500 4441 
Q 881 4594 1212 4672 
Q 1544 4750 1819 4750 
Q 2544 4750 2975 4387 
Q 3406 4025 3406 3419 
Q 3406 3131 3298 2873 
Q 3191 2616 2906 2266 
Q 2828 2175 2409 1742 
Q 1991 1309 1228 531 
z
" transform="scale(0.015625)"/>
       </defs>
       <use xlink:href="#DejaVuSans-32"/>
       <use xlink:href="#DejaVuSans-30" x="63.623047"/>
       <use xlink:href="#DejaVuSans-30" x="127.246094"/>
      </g>
     </g>
    </g>
    <g id="xtick_4">
     <g id="line2d_4">
      <g>
       <use xlink:href="#m4f65fae5c1" x="295.08097" y="307.584" style="stroke: #000000; stroke-width: 0.8"/>
      </g>
     </g>
     <g id="text_4">
      <!-- 300 -->
      <g transform="translate(285.53722 322.182437) scale(0.1 -0.1)">
       <defs>
        <path id="DejaVuSans-33" d="M 2597 2516 
Q 3050 2419 3304 2112 
Q 3559 1806 3559 1356 
Q 3559 666 3084 287 
Q 2609 -91 1734 -91 
Q 1441 -91 1130 -33 
Q 819 25 488 141 
L 488 750 
Q 750 597 1062 519 
Q 1375 441 1716 441 
Q 2309 441 2620 675 
Q 2931 909 2931 1356 
Q 2931 1769 2642 2001 
Q 2353 2234 1838 2234 
L 1294 2234 
L 1294 2753 
L 1863 2753 
Q 2328 2753 2575 2939 
Q 2822 3125 2822 3475 
Q 2822 3834 2567 4026 
Q 2313 4219 1838 4219 
Q 1578 4219 1281 4162 
Q 984 4106 628 3988 
L 628 4550 
Q 988 4650 1302 4700 
Q 1616 4750 1894 4750 
Q 2613 4750 3031 4423 
Q 3450 4097 3450 3541 
Q 3450 3153 3228 2886 
Q 3006 2619 2597 2516 
z
" transform="scale(0.015625)"/>
       </defs>
       <use xlink:href="#DejaVuSans-33"/>
       <use xlink:href="#DejaVuSans-30" x="63.623047"/>
       <use xlink:href="#DejaVuSans-30" x="127.246094"/>
      </g>
     </g>
    </g>
    <g id="xtick_5">
     <g id="line2d_5">
      <g>
       <use xlink:href="#m4f65fae5c1" x="368.732183" y="307.584" style="stroke: #000000; stroke-width: 0.8"/>
      </g>
     </g>
     <g id="text_5">
      <!-- 400 -->
      <g transform="translate(359.188433 322.182437) scale(0.1 -0.1)">
       <defs>
        <path id="DejaVuSans-34" d="M 2419 4116 
L 825 1625 
L 2419 1625 
L 2419 4116 
z
M 2253 4666 
L 3047 4666 
L 3047 1625 
L 3713 1625 
L 3713 1100 
L 3047 1100 
L 3047 0 
L 2419 0 
L 2419 1100 
L 313 1100 
L 313 1709 
L 2253 4666 
z
" transform="scale(0.015625)"/>
       </defs>
       <use xlink:href="#DejaVuSans-34"/>
       <use xlink:href="#DejaVuSans-30" x="63.623047"/>
       <use xlink:href="#DejaVuSans-30" x="127.246094"/>
      </g>
     </g>
    </g>
    <g id="text_6">
     <!-- Depth of Element -->
     <g transform="translate(192.231875 335.860562) scale(0.1 -0.1)">
      <defs>
       <path id="DejaVuSans-44" d="M 1259 4147 
L 1259 519 
L 2022 519 
Q 2988 519 3436 956 
Q 3884 1394 3884 2338 
Q 3884 3275 3436 3711 
Q 2988 4147 2022 4147 
L 1259 4147 
z
M 628 4666 
L 1925 4666 
Q 3281 4666 3915 4102 
Q 4550 3538 4550 2338 
Q 4550 1131 3912 565 
Q 3275 0 1925 0 
L 628 0 
L 628 4666 
z
" transform="scale(0.015625)"/>
       <path id="DejaVuSans-65" d="M 3597 1894 
L 3597 1613 
L 953 1613 
Q 991 1019 1311 708 
Q 1631 397 2203 397 
Q 2534 397 2845 478 
Q 3156 559 3463 722 
L 3463 178 
Q 3153 47 2828 -22 
Q 2503 -91 2169 -91 
Q 1331 -91 842 396 
Q 353 884 353 1716 
Q 353 2575 817 3079 
Q 1281 3584 2069 3584 
Q 2775 3584 3186 3129 
Q 3597 2675 3597 1894 
z
M 3022 2063 
Q 3016 2534 2758 2815 
Q 2500 3097 2075 3097 
Q 1594 3097 1305 2825 
Q 1016 2553 972 2059 
L 3022 2063 
z
" transform="scale(0.015625)"/>
       <path id="DejaVuSans-70" d="M 1159 525 
L 1159 -1331 
L 581 -1331 
L 581 3500 
L 1159 3500 
L 1159 2969 
Q 1341 3281 1617 3432 
Q 1894 3584 2278 3584 
Q 2916 3584 3314 3078 
Q 3713 2572 3713 1747 
Q 3713 922 3314 415 
Q 2916 -91 2278 -91 
Q 1894 -91 1617 61 
Q 1341 213 1159 525 
z
M 3116 1747 
Q 3116 2381 2855 2742 
Q 2594 3103 2138 3103 
Q 1681 3103 1420 2742 
Q 1159 2381 1159 1747 
Q 1159 1113 1420 752 
Q 1681 391 2138 391 
Q 2594 391 2855 752 
Q 3116 1113 3116 1747 
z
" transform="scale(0.015625)"/>
       <path id="DejaVuSans-74" d="M 1172 4494 
L 1172 3500 
L 2356 3500 
L 2356 3053 
L 1172 3053 
L 1172 1153 
Q 1172 725 1289 603 
Q 1406 481 1766 481 
L 2356 481 
L 2356 0 
L 1766 0 
Q 1100 0 847 248 
Q 594 497 594 1153 
L 594 3053 
L 172 3053 
L 172 3500 
L 594 3500 
L 594 4494 
L 1172 4494 
z
" transform="scale(0.015625)"/>
       <path id="DejaVuSans-68" d="M 3513 2113 
L 3513 0 
L 2938 0 
L 2938 2094 
Q 2938 2591 2744 2837 
Q 2550 3084 2163 3084 
Q 1697 3084 1428 2787 
Q 1159 2491 1159 1978 
L 1159 0 
L 581 0 
L 581 4863 
L 1159 4863 
L 1159 2956 
Q 1366 3272 1645 3428 
Q 1925 3584 2291 3584 
Q 2894 3584 3203 3211 
Q 3513 2838 3513 2113 
z
" transform="scale(0.015625)"/>
       <path id="DejaVuSans-20" transform="scale(0.015625)"/>
       <path id="DejaVuSans-6f" d="M 1959 3097 
Q 1497 3097 1228 2736 
Q 959 2375 959 1747 
Q 959 1119 1226 758 
Q 1494 397 1959 397 
Q 2419 397 2687 759 
Q 2956 1122 2956 1747 
Q 2956 2369 2687 2733 
Q 2419 3097 1959 3097 
z
M 1959 3584 
Q 2709 3584 3137 3096 
Q 3566 2609 3566 1747 
Q 3566 888 3137 398 
Q 2709 -91 1959 -91 
Q 1206 -91 779 398 
Q 353 888 353 1747 
Q 353 2609 779 3096 
Q 1206 3584 1959 3584 
z
" transform="scale(0.015625)"/>
       <path id="DejaVuSans-66" d="M 2375 4863 
L 2375 4384 
L 1825 4384 
Q 1516 4384 1395 4259 
Q 1275 4134 1275 3809 
L 1275 3500 
L 2222 3500 
L 2222 3053 
L 1275 3053 
L 1275 0 
L 697 0 
L 697 3053 
L 147 3053 
L 147 3500 
L 697 3500 
L 697 3744 
Q 697 4328 969 4595 
Q 1241 4863 1831 4863 
L 2375 4863 
z
" transform="scale(0.015625)"/>
       <path id="DejaVuSans-45" d="M 628 4666 
L 3578 4666 
L 3578 4134 
L 1259 4134 
L 1259 2753 
L 3481 2753 
L 3481 2222 
L 1259 2222 
L 1259 531 
L 3634 531 
L 3634 0 
L 628 0 
L 628 4666 
z
" transform="scale(0.015625)"/>
       <path id="DejaVuSans-6c" d="M 603 4863 
L 1178 4863 
L 1178 0 
L 603 0 
L 603 4863 
z
" transform="scale(0.015625)"/>
       <path id="DejaVuSans-6d" d="M 3328 2828 
Q 3544 3216 3844 3400 
Q 4144 3584 4550 3584 
Q 5097 3584 5394 3201 
Q 5691 2819 5691 2113 
L 5691 0 
L 5113 0 
L 5113 2094 
Q 5113 2597 4934 2840 
Q 4756 3084 4391 3084 
Q 3944 3084 3684 2787 
Q 3425 2491 3425 1978 
L 3425 0 
L 2847 0 
L 2847 2094 
Q 2847 2600 2669 2842 
Q 2491 3084 2119 3084 
Q 1678 3084 1418 2786 
Q 1159 2488 1159 1978 
L 1159 0 
L 581 0 
L 581 3500 
L 1159 3500 
L 1159 2956 
Q 1356 3278 1631 3431 
Q 1906 3584 2284 3584 
Q 2666 3584 2933 3390 
Q 3200 3197 3328 2828 
z
" transform="scale(0.015625)"/>
       <path id="DejaVuSans-6e" d="M 3513 2113 
L 3513 0 
L 2938 0 
L 2938 2094 
Q 2938 2591 2744 2837 
Q 2550 3084 2163 3084 
Q 1697 3084 1428 2787 
Q 1159 2491 1159 1978 
L 1159 0 
L 581 0 
L 581 3500 
L 1159 3500 
L 1159 2956 
Q 1366 3272 1645 3428 
Q 1925 3584 2291 3584 
Q 2894 3584 3203 3211 
Q 3513 2838 3513 2113 
z
" transform="scale(0.015625)"/>
      </defs>
      <use xlink:href="#DejaVuSans-44"/>
      <use xlink:href="#DejaVuSans-65" x="77.001953"/>
      <use xlink:href="#DejaVuSans-70" x="138.525391"/>
      <use xlink:href="#DejaVuSans-74" x="202.001953"/>
      <use xlink:href="#DejaVuSans-68" x="241.210938"/>
      <use xlink:href="#DejaVuSans-20" x="304.589844"/>
      <use xlink:href="#DejaVuSans-6f" x="336.376953"/>
      <use xlink:href="#DejaVuSans-66" x="397.558594"/>
      <use xlink:href="#DejaVuSans-20" x="432.763672"/>
      <use xlink:href="#DejaVuSans-45" x="464.550781"/>
      <use xlink:href="#DejaVuSans-6c" x="527.734375"/>
      <use xlink:href="#DejaVuSans-65" x="555.517578"/>
      <use xlink:href="#DejaVuSans-6d" x="617.041016"/>
      <use xlink:href="#DejaVuSans-65" x="714.453125"/>
      <use xlink:href="#DejaVuSans-6e" x="775.976562"/>
      <use xlink:href="#DejaVuSans-74" x="839.355469"/>
     </g>
    </g>
   </g>
   <g id="matplotlib.axis_2">
    <g id="ytick_1">
     <g id="line2d_6">
      <defs>
       <path id="m62d4f07cc8" d="M 0 0 
L -3.5 0 
" style="stroke: #000000; stroke-width: 0.8"/>
      </defs>
      <g>
       <use xlink:href="#m62d4f07cc8" x="57.6" y="295.488" style="stroke: #000000; stroke-width: 0.8"/>
      </g>
     </g>
     <g id="text_7">
      <!-- $\mathdefault{10^{0}}$ -->
      <g transform="translate(33 299.287219) scale(0.1 -0.1)">
       <use xlink:href="#DejaVuSans-31" transform="translate(0 0.765625)"/>
       <use xlink:href="#DejaVuSans-30" transform="translate(63.623047 0.765625)"/>
       <use xlink:href="#DejaVuSans-30" transform="translate(128.203125 39.046875) scale(0.7)"/>
      </g>
     </g>
    </g>
    <g id="ytick_2">
     <g id="line2d_7">
      <g>
       <use xlink:href="#m62d4f07cc8" x="57.6" y="238.117111" style="stroke: #000000; stroke-width: 0.8"/>
      </g>
     </g>
     <g id="text_8">
      <!-- $\mathdefault{10^{1}}$ -->
      <g transform="translate(33 241.916329) scale(0.1 -0.1)">
       <use xlink:href="#DejaVuSans-31" transform="translate(0 0.684375)"/>
       <use xlink:href="#DejaVuSans-30" transform="translate(63.623047 0.684375)"/>
       <use xlink:href="#DejaVuSans-31" transform="translate(128.203125 38.965625) scale(0.7)"/>
      </g>
     </g>
    </g>
    <g id="ytick_3">
     <g id="line2d_8">
      <g>
       <use xlink:href="#m62d4f07cc8" x="57.6" y="180.746221" style="stroke: #000000; stroke-width: 0.8"/>
      </g>
     </g>
     <g id="text_9">
      <!-- $\mathdefault{10^{2}}$ -->
      <g transform="translate(33 184.54544) scale(0.1 -0.1)">
       <use xlink:href="#DejaVuSans-31" transform="translate(0 0.765625)"/>
       <use xlink:href="#DejaVuSans-30" transform="translate(63.623047 0.765625)"/>
       <use xlink:href="#DejaVuSans-32" transform="translate(128.203125 39.046875) scale(0.7)"/>
      </g>
     </g>
    </g>
    <g id="ytick_4">
     <g id="line2d_9">
      <g>
       <use xlink:href="#m62d4f07cc8" x="57.6" y="123.375332" style="stroke: #000000; stroke-width: 0.8"/>
      </g>
     </g>
     <g id="text_10">
      <!-- $\mathdefault{10^{3}}$ -->
      <g transform="translate(33 127.174551) scale(0.1 -0.1)">
       <use xlink:href="#DejaVuSans-31" transform="translate(0 0.765625)"/>
       <use xlink:href="#DejaVuSans-30" transform="translate(63.623047 0.765625)"/>
       <use xlink:href="#DejaVuSans-33" transform="translate(128.203125 39.046875) scale(0.7)"/>
      </g>
     </g>
    </g>
    <g id="ytick_5">
     <g id="line2d_10">
      <g>
       <use xlink:href="#m62d4f07cc8" x="57.6" y="66.004443" style="stroke: #000000; stroke-width: 0.8"/>
      </g>
     </g>
     <g id="text_11">
      <!-- $\mathdefault{10^{4}}$ -->
      <g transform="translate(33 69.803661) scale(0.1 -0.1)">
       <use xlink:href="#DejaVuSans-31" transform="translate(0 0.684375)"/>
       <use xlink:href="#DejaVuSans-30" transform="translate(63.623047 0.684375)"/>
       <use xlink:href="#DejaVuSans-34" transform="translate(128.203125 38.965625) scale(0.7)"/>
      </g>
     </g>
    </g>
    <g id="ytick_6">
     <g id="line2d_11">
      <defs>
       <path id="m8a94671799" d="M 0 0 
L -2 0 
" style="stroke: #000000; stroke-width: 0.6"/>
      </defs>
      <g>
       <use xlink:href="#m8a94671799" x="57.6" y="304.374863" style="stroke: #000000; stroke-width: 0.6"/>
      </g>
     </g>
    </g>
    <g id="ytick_7">
     <g id="line2d_12">
      <g>
       <use xlink:href="#m8a94671799" x="57.6" y="301.047814" style="stroke: #000000; stroke-width: 0.6"/>
      </g>
     </g>
    </g>
    <g id="ytick_8">
     <g id="line2d_13">
      <g>
       <use xlink:href="#m8a94671799" x="57.6" y="298.113148" style="stroke: #000000; stroke-width: 0.6"/>
      </g>
     </g>
    </g>
    <g id="ytick_9">
     <g id="line2d_14">
      <g>
       <use xlink:href="#m8a94671799" x="57.6" y="278.217641" style="stroke: #000000; stroke-width: 0.6"/>
      </g>
     </g>
    </g>
    <g id="ytick_10">
     <g id="line2d_15">
      <g>
       <use xlink:href="#m8a94671799" x="57.6" y="268.115129" style="stroke: #000000; stroke-width: 0.6"/>
      </g>
     </g>
    </g>
    <g id="ytick_11">
     <g id="line2d_16">
      <g>
       <use xlink:href="#m8a94671799" x="57.6" y="260.947283" style="stroke: #000000; stroke-width: 0.6"/>
      </g>
     </g>
    </g>
    <g id="ytick_12">
     <g id="line2d_17">
      <g>
       <use xlink:href="#m8a94671799" x="57.6" y="255.387469" style="stroke: #000000; stroke-width: 0.6"/>
      </g>
     </g>
    </g>
    <g id="ytick_13">
     <g id="line2d_18">
      <g>
       <use xlink:href="#m8a94671799" x="57.6" y="250.844771" style="stroke: #000000; stroke-width: 0.6"/>
      </g>
     </g>
    </g>
    <g id="ytick_14">
     <g id="line2d_19">
      <g>
       <use xlink:href="#m8a94671799" x="57.6" y="247.003974" style="stroke: #000000; stroke-width: 0.6"/>
      </g>
     </g>
    </g>
    <g id="ytick_15">
     <g id="line2d_20">
      <g>
       <use xlink:href="#m8a94671799" x="57.6" y="243.676924" style="stroke: #000000; stroke-width: 0.6"/>
      </g>
     </g>
    </g>
    <g id="ytick_16">
     <g id="line2d_21">
      <g>
       <use xlink:href="#m8a94671799" x="57.6" y="240.742259" style="stroke: #000000; stroke-width: 0.6"/>
      </g>
     </g>
    </g>
    <g id="ytick_17">
     <g id="line2d_22">
      <g>
       <use xlink:href="#m8a94671799" x="57.6" y="220.846752" style="stroke: #000000; stroke-width: 0.6"/>
      </g>
     </g>
    </g>
    <g id="ytick_18">
     <g id="line2d_23">
      <g>
       <use xlink:href="#m8a94671799" x="57.6" y="210.74424" style="stroke: #000000; stroke-width: 0.6"/>
      </g>
     </g>
    </g>
    <g id="ytick_19">
     <g id="line2d_24">
      <g>
       <use xlink:href="#m8a94671799" x="57.6" y="203.576393" style="stroke: #000000; stroke-width: 0.6"/>
      </g>
     </g>
    </g>
    <g id="ytick_20">
     <g id="line2d_25">
      <g>
       <use xlink:href="#m8a94671799" x="57.6" y="198.01658" style="stroke: #000000; stroke-width: 0.6"/>
      </g>
     </g>
    </g>
    <g id="ytick_21">
     <g id="line2d_26">
      <g>
       <use xlink:href="#m8a94671799" x="57.6" y="193.473881" style="stroke: #000000; stroke-width: 0.6"/>
      </g>
     </g>
    </g>
    <g id="ytick_22">
     <g id="line2d_27">
      <g>
       <use xlink:href="#m8a94671799" x="57.6" y="189.633084" style="stroke: #000000; stroke-width: 0.6"/>
      </g>
     </g>
    </g>
    <g id="ytick_23">
     <g id="line2d_28">
      <g>
       <use xlink:href="#m8a94671799" x="57.6" y="186.306035" style="stroke: #000000; stroke-width: 0.6"/>
      </g>
     </g>
    </g>
    <g id="ytick_24">
     <g id="line2d_29">
      <g>
       <use xlink:href="#m8a94671799" x="57.6" y="183.371369" style="stroke: #000000; stroke-width: 0.6"/>
      </g>
     </g>
    </g>
    <g id="ytick_25">
     <g id="line2d_30">
      <g>
       <use xlink:href="#m8a94671799" x="57.6" y="163.475863" style="stroke: #000000; stroke-width: 0.6"/>
      </g>
     </g>
    </g>
    <g id="ytick_26">
     <g id="line2d_31">
      <g>
       <use xlink:href="#m8a94671799" x="57.6" y="153.373351" style="stroke: #000000; stroke-width: 0.6"/>
      </g>
     </g>
    </g>
    <g id="ytick_27">
     <g id="line2d_32">
      <g>
       <use xlink:href="#m8a94671799" x="57.6" y="146.205504" style="stroke: #000000; stroke-width: 0.6"/>
      </g>
     </g>
    </g>
    <g id="ytick_28">
     <g id="line2d_33">
      <g>
       <use xlink:href="#m8a94671799" x="57.6" y="140.64569" style="stroke: #000000; stroke-width: 0.6"/>
      </g>
     </g>
    </g>
    <g id="ytick_29">
     <g id="line2d_34">
      <g>
       <use xlink:href="#m8a94671799" x="57.6" y="136.102992" style="stroke: #000000; stroke-width: 0.6"/>
      </g>
     </g>
    </g>
    <g id="ytick_30">
     <g id="line2d_35">
      <g>
       <use xlink:href="#m8a94671799" x="57.6" y="132.262195" style="stroke: #000000; stroke-width: 0.6"/>
      </g>
     </g>
    </g>
    <g id="ytick_31">
     <g id="line2d_36">
      <g>
       <use xlink:href="#m8a94671799" x="57.6" y="128.935146" style="stroke: #000000; stroke-width: 0.6"/>
      </g>
     </g>
    </g>
    <g id="ytick_32">
     <g id="line2d_37">
      <g>
       <use xlink:href="#m8a94671799" x="57.6" y="126.00048" style="stroke: #000000; stroke-width: 0.6"/>
      </g>
     </g>
    </g>
    <g id="ytick_33">
     <g id="line2d_38">
      <g>
       <use xlink:href="#m8a94671799" x="57.6" y="106.104973" style="stroke: #000000; stroke-width: 0.6"/>
      </g>
     </g>
    </g>
    <g id="ytick_34">
     <g id="line2d_39">
      <g>
       <use xlink:href="#m8a94671799" x="57.6" y="96.002461" style="stroke: #000000; stroke-width: 0.6"/>
      </g>
     </g>
    </g>
    <g id="ytick_35">
     <g id="line2d_40">
      <g>
       <use xlink:href="#m8a94671799" x="57.6" y="88.834615" style="stroke: #000000; stroke-width: 0.6"/>
      </g>
     </g>
    </g>
    <g id="ytick_36">
     <g id="line2d_41">
      <g>
       <use xlink:href="#m8a94671799" x="57.6" y="83.274801" style="stroke: #000000; stroke-width: 0.6"/>
      </g>
     </g>
    </g>
    <g id="ytick_37">
     <g id="line2d_42">
      <g>
       <use xlink:href="#m8a94671799" x="57.6" y="78.732103" style="stroke: #000000; stroke-width: 0.6"/>
      </g>
     </g>
    </g>
    <g id="ytick_38">
     <g id="line2d_43">
      <g>
       <use xlink:href="#m8a94671799" x="57.6" y="74.891306" style="stroke: #000000; stroke-width: 0.6"/>
      </g>
     </g>
    </g>
    <g id="ytick_39">
     <g id="line2d_44">
      <g>
       <use xlink:href="#m8a94671799" x="57.6" y="71.564256" style="stroke: #000000; stroke-width: 0.6"/>
      </g>
     </g>
    </g>
    <g id="ytick_40">
     <g id="line2d_45">
      <g>
       <use xlink:href="#m8a94671799" x="57.6" y="68.62959" style="stroke: #000000; stroke-width: 0.6"/>
      </g>
     </g>
    </g>
    <g id="ytick_41">
     <g id="line2d_46">
      <g>
       <use xlink:href="#m8a94671799" x="57.6" y="48.734084" style="stroke: #000000; stroke-width: 0.6"/>
      </g>
     </g>
    </g>
    <g id="text_12">
     <!-- Number of Elements -->
     <g transform="translate(26.920312 225.917062) rotate(-90) scale(0.1 -0.1)">
      <defs>
       <path id="DejaVuSans-4e" d="M 628 4666 
L 1478 4666 
L 3547 763 
L 3547 4666 
L 4159 4666 
L 4159 0 
L 3309 0 
L 1241 3903 
L 1241 0 
L 628 0 
L 628 4666 
z
" transform="scale(0.015625)"/>
       <path id="DejaVuSans-75" d="M 544 1381 
L 544 3500 
L 1119 3500 
L 1119 1403 
Q 1119 906 1312 657 
Q 1506 409 1894 409 
Q 2359 409 2629 706 
Q 2900 1003 2900 1516 
L 2900 3500 
L 3475 3500 
L 3475 0 
L 2900 0 
L 2900 538 
Q 2691 219 2414 64 
Q 2138 -91 1772 -91 
Q 1169 -91 856 284 
Q 544 659 544 1381 
z
M 1991 3584 
L 1991 3584 
z
" transform="scale(0.015625)"/>
       <path id="DejaVuSans-62" d="M 3116 1747 
Q 3116 2381 2855 2742 
Q 2594 3103 2138 3103 
Q 1681 3103 1420 2742 
Q 1159 2381 1159 1747 
Q 1159 1113 1420 752 
Q 1681 391 2138 391 
Q 2594 391 2855 752 
Q 3116 1113 3116 1747 
z
M 1159 2969 
Q 1341 3281 1617 3432 
Q 1894 3584 2278 3584 
Q 2916 3584 3314 3078 
Q 3713 2572 3713 1747 
Q 3713 922 3314 415 
Q 2916 -91 2278 -91 
Q 1894 -91 1617 61 
Q 1341 213 1159 525 
L 1159 0 
L 581 0 
L 581 4863 
L 1159 4863 
L 1159 2969 
z
" transform="scale(0.015625)"/>
       <path id="DejaVuSans-72" d="M 2631 2963 
Q 2534 3019 2420 3045 
Q 2306 3072 2169 3072 
Q 1681 3072 1420 2755 
Q 1159 2438 1159 1844 
L 1159 0 
L 581 0 
L 581 3500 
L 1159 3500 
L 1159 2956 
Q 1341 3275 1631 3429 
Q 1922 3584 2338 3584 
Q 2397 3584 2469 3576 
Q 2541 3569 2628 3553 
L 2631 2963 
z
" transform="scale(0.015625)"/>
       <path id="DejaVuSans-73" d="M 2834 3397 
L 2834 2853 
Q 2591 2978 2328 3040 
Q 2066 3103 1784 3103 
Q 1356 3103 1142 2972 
Q 928 2841 928 2578 
Q 928 2378 1081 2264 
Q 1234 2150 1697 2047 
L 1894 2003 
Q 2506 1872 2764 1633 
Q 3022 1394 3022 966 
Q 3022 478 2636 193 
Q 2250 -91 1575 -91 
Q 1294 -91 989 -36 
Q 684 19 347 128 
L 347 722 
Q 666 556 975 473 
Q 1284 391 1588 391 
Q 1994 391 2212 530 
Q 2431 669 2431 922 
Q 2431 1156 2273 1281 
Q 2116 1406 1581 1522 
L 1381 1569 
Q 847 1681 609 1914 
Q 372 2147 372 2553 
Q 372 3047 722 3315 
Q 1072 3584 1716 3584 
Q 2034 3584 2315 3537 
Q 2597 3491 2834 3397 
z
" transform="scale(0.015625)"/>
      </defs>
      <use xlink:href="#DejaVuSans-4e"/>
      <use xlink:href="#DejaVuSans-75" x="74.804688"/>
      <use xlink:href="#DejaVuSans-6d" x="138.183594"/>
      <use xlink:href="#DejaVuSans-62" x="235.595703"/>
      <use xlink:href="#DejaVuSans-65" x="299.072266"/>
      <use xlink:href="#DejaVuSans-72" x="360.595703"/>
      <use xlink:href="#DejaVuSans-20" x="401.708984"/>
      <use xlink:href="#DejaVuSans-6f" x="433.496094"/>
      <use xlink:href="#DejaVuSans-66" x="494.677734"/>
      <use xlink:href="#DejaVuSans-20" x="529.882812"/>
      <use xlink:href="#DejaVuSans-45" x="561.669922"/>
      <use xlink:href="#DejaVuSans-6c" x="624.853516"/>
      <use xlink:href="#DejaVuSans-65" x="652.636719"/>
      <use xlink:href="#DejaVuSans-6d" x="714.160156"/>
      <use xlink:href="#DejaVuSans-65" x="811.572266"/>
      <use xlink:href="#DejaVuSans-6e" x="873.095703"/>
      <use xlink:href="#DejaVuSans-74" x="936.474609"/>
      <use xlink:href="#DejaVuSans-73" x="975.683594"/>
     </g>
    </g>
   </g>
   <g id="patch_293">
    <path d="M 57.6 307.584 
L 57.6 41.472 
" style="fill: none; stroke: #000000; stroke-width: 0.8; stroke-linejoin: miter; stroke-linecap: square"/>
   </g>
   <g id="patch_294">
    <path d="M 414.72 307.584 
L 414.72 41.472 
" style="fill: none; stroke: #000000; stroke-width: 0.8; stroke-linejoin: miter; stroke-linecap: square"/>
   </g>
   <g id="patch_295">
    <path d="M 57.6 307.584 
L 414.72 307.584 
" style="fill: none; stroke: #000000; stroke-width: 0.8; stroke-linejoin: miter; stroke-linecap: square"/>
   </g>
   <g id="patch_296">
    <path d="M 57.6 41.472 
L 414.72 41.472 
" style="fill: none; stroke: #000000; stroke-width: 0.8; stroke-linejoin: miter; stroke-linecap: square"/>
   </g>
  </g>
 </g>
 <defs>
  <clipPath id="pb3baa3ea07">
   <rect x="57.6" y="41.472" width="357.12" height="266.112"/>
  </clipPath>
 </defs>
</svg>
