<?xml version="1.0" encoding="utf-8" standalone="no"?>
<!DOCTYPE svg PUBLIC "-//W3C//DTD SVG 1.1//EN"
  "http://www.w3.org/Graphics/SVG/1.1/DTD/svg11.dtd">
<svg xmlns:xlink="http://www.w3.org/1999/xlink" width="460.8pt" height="345.6pt" viewBox="0 0 460.8 345.6" xmlns="http://www.w3.org/2000/svg" version="1.1">
 <metadata>
  <rdf:RDF xmlns:dc="http://purl.org/dc/elements/1.1/" xmlns:cc="http://creativecommons.org/ns#" xmlns:rdf="http://www.w3.org/1999/02/22-rdf-syntax-ns#">
   <cc:Work>
    <dc:type rdf:resource="http://purl.org/dc/dcmitype/StillImage"/>
    <dc:date>2024-03-03T23:23:58.905927</dc:date>
    <dc:format>image/svg+xml</dc:format>
    <dc:creator>
     <cc:Agent>
      <dc:title>Matplotlib v3.8.3, https://matplotlib.org/</dc:title>
     </cc:Agent>
    </dc:creator>
   </cc:Work>
  </rdf:RDF>
 </metadata>
 <defs>
  <style type="text/css">*{stroke-linejoin: round; stroke-linecap: butt}</style>
 </defs>
 <g id="figure_1">
  <g id="patch_1">
   <path d="M 0 345.6 
L 460.8 345.6 
L 460.8 0 
L 0 0 
z
" style="fill: #ffffff"/>
  </g>
  <g id="axes_1">
   <g id="patch_2">
    <path d="M 57.6 307.584 
L 414.72 307.584 
L 414.72 41.472 
L 57.6 41.472 
z
" style="fill: #ffffff"/>
   </g>
   <g id="patch_3">
    <path d="M 73.832727 60003.867038 
L 75.28532 60003.867038 
L 75.28532 259.539974 
L 73.832727 259.539974 
z
" clip-path="url(#pc480eaf796)" style="fill: #1f77b4"/>
   </g>
   <g id="patch_4">
    <path d="M 75.648469 60003.867038 
L 77.101062 60003.867038 
L 77.101062 235.779621 
L 75.648469 235.779621 
z
" clip-path="url(#pc480eaf796)" style="fill: #1f77b4"/>
   </g>
   <g id="patch_5">
    <path d="M 79.279951 60003.867038 
L 80.732544 60003.867038 
L 80.732544 194.045255 
L 79.279951 194.045255 
z
" clip-path="url(#pc480eaf796)" style="fill: #1f77b4"/>
   </g>
   <g id="patch_6">
    <path d="M 81.095692 60003.867038 
L 82.548286 60003.867038 
L 82.548286 170.914836 
L 81.095692 170.914836 
z
" clip-path="url(#pc480eaf796)" style="fill: #1f77b4"/>
   </g>
   <g id="patch_7">
    <path d="M 86.542916 60003.867038 
L 87.995509 60003.867038 
L 87.995509 115.445757 
L 86.542916 115.445757 
z
" clip-path="url(#pc480eaf796)" style="fill: #1f77b4"/>
   </g>
   <g id="patch_8">
    <path d="M 77.46421 60003.867038 
L 78.916803 60003.867038 
L 78.916803 219.135695 
L 77.46421 219.135695 
z
" clip-path="url(#pc480eaf796)" style="fill: #1f77b4"/>
   </g>
   <g id="patch_9">
    <path d="M 82.911434 60003.867038 
L 84.364027 60003.867038 
L 84.364027 152.940823 
L 82.911434 152.940823 
z
" clip-path="url(#pc480eaf796)" style="fill: #1f77b4"/>
   </g>
   <g id="patch_10">
    <path d="M 88.358658 60003.867038 
L 89.811251 60003.867038 
L 89.811251 100.820178 
L 88.358658 100.820178 
z
" clip-path="url(#pc480eaf796)" style="fill: #1f77b4"/>
   </g>
   <g id="patch_11">
    <path d="M 84.727175 60003.867038 
L 86.179768 60003.867038 
L 86.179768 134.64993 
L 84.727175 134.64993 
z
" clip-path="url(#pc480eaf796)" style="fill: #1f77b4"/>
   </g>
   <g id="patch_12">
    <path d="M 91.99014 60003.867038 
L 93.442733 60003.867038 
L 93.442733 77.884479 
L 91.99014 77.884479 
z
" clip-path="url(#pc480eaf796)" style="fill: #1f77b4"/>
   </g>
   <g id="patch_13">
    <path d="M 90.174399 60003.867038 
L 91.626992 60003.867038 
L 91.626992 88.187781 
L 90.174399 88.187781 
z
" clip-path="url(#pc480eaf796)" style="fill: #1f77b4"/>
   </g>
   <g id="patch_14">
    <path d="M 95.621623 60003.867038 
L 97.074216 60003.867038 
L 97.074216 60.370222 
L 95.621623 60.370222 
z
" clip-path="url(#pc480eaf796)" style="fill: #1f77b4"/>
   </g>
   <g id="patch_15">
    <path d="M 93.805882 60003.867038 
L 95.258475 60003.867038 
L 95.258475 68.077681 
L 93.805882 68.077681 
z
" clip-path="url(#pc480eaf796)" style="fill: #1f77b4"/>
   </g>
   <g id="patch_16">
    <path d="M 102.884588 60003.867038 
L 104.337181 60003.867038 
L 104.337181 62.099494 
L 102.884588 62.099494 
z
" clip-path="url(#pc480eaf796)" style="fill: #1f77b4"/>
   </g>
   <g id="patch_17">
    <path d="M 97.437364 60003.867038 
L 98.889957 60003.867038 
L 98.889957 55.5553 
L 97.437364 55.5553 
z
" clip-path="url(#pc480eaf796)" style="fill: #1f77b4"/>
   </g>
   <g id="patch_18">
    <path d="M 106.516071 60003.867038 
L 107.968664 60003.867038 
L 107.968664 98.272422 
L 106.516071 98.272422 
z
" clip-path="url(#pc480eaf796)" style="fill: #1f77b4"/>
   </g>
   <g id="patch_19">
    <path d="M 101.068847 60003.867038 
L 102.52144 60003.867038 
L 102.52144 54.870961 
L 101.068847 54.870961 
z
" clip-path="url(#pc480eaf796)" style="fill: #1f77b4"/>
   </g>
   <g id="patch_20">
    <path d="M 108.331812 60003.867038 
L 109.784405 60003.867038 
L 109.784405 130.22132 
L 108.331812 130.22132 
z
" clip-path="url(#pc480eaf796)" style="fill: #1f77b4"/>
   </g>
   <g id="patch_21">
    <path d="M 111.963295 60003.867038 
L 113.415888 60003.867038 
L 113.415888 171.560455 
L 111.963295 171.560455 
z
" clip-path="url(#pc480eaf796)" style="fill: #1f77b4"/>
   </g>
   <g id="patch_22">
    <path d="M 99.253106 60003.867038 
L 100.705699 60003.867038 
L 100.705699 53.568 
L 99.253106 53.568 
z
" clip-path="url(#pc480eaf796)" style="fill: #1f77b4"/>
   </g>
   <g id="patch_23">
    <path d="M 104.700329 60003.867038 
L 106.152923 60003.867038 
L 106.152923 76.33249 
L 104.700329 76.33249 
z
" clip-path="url(#pc480eaf796)" style="fill: #1f77b4"/>
   </g>
   <g id="patch_24">
    <path d="M 124.673484 60003.867038 
L 126.126077 60003.867038 
L 126.126077 187.643922 
L 124.673484 187.643922 
z
" clip-path="url(#pc480eaf796)" style="fill: #1f77b4"/>
   </g>
   <g id="patch_25">
    <path d="M 110.147553 60003.867038 
L 111.600146 60003.867038 
L 111.600146 155.981777 
L 110.147553 155.981777 
z
" clip-path="url(#pc480eaf796)" style="fill: #1f77b4"/>
   </g>
   <g id="patch_26">
    <path d="M 122.857743 60003.867038 
L 124.310336 60003.867038 
L 124.310336 181.857582 
L 122.857743 181.857582 
z
" clip-path="url(#pc480eaf796)" style="fill: #1f77b4"/>
   </g>
   <g id="patch_27">
    <path d="M 113.779036 60003.867038 
L 115.231629 60003.867038 
L 115.231629 172.673545 
L 113.779036 172.673545 
z
" clip-path="url(#pc480eaf796)" style="fill: #1f77b4"/>
   </g>
   <g id="patch_28">
    <path d="M 115.594777 60003.867038 
L 117.04737 60003.867038 
L 117.04737 176.331857 
L 115.594777 176.331857 
z
" clip-path="url(#pc480eaf796)" style="fill: #1f77b4"/>
   </g>
   <g id="patch_29">
    <path d="M 117.410519 60003.867038 
L 118.863112 60003.867038 
L 118.863112 181.535453 
L 117.410519 181.535453 
z
" clip-path="url(#pc480eaf796)" style="fill: #1f77b4"/>
   </g>
   <g id="patch_30">
    <path d="M 121.042001 60003.867038 
L 122.494594 60003.867038 
L 122.494594 181.217277 
L 121.042001 181.217277 
z
" clip-path="url(#pc480eaf796)" style="fill: #1f77b4"/>
   </g>
   <g id="patch_31">
    <path d="M 139.199414 60003.867038 
L 140.652007 60003.867038 
L 140.652007 192.049577 
L 139.199414 192.049577 
z
" clip-path="url(#pc480eaf796)" style="fill: #1f77b4"/>
   </g>
   <g id="patch_32">
    <path d="M 126.489225 60003.867038 
L 127.941818 60003.867038 
L 127.941818 186.845981 
L 126.489225 186.845981 
z
" clip-path="url(#pc480eaf796)" style="fill: #1f77b4"/>
   </g>
   <g id="patch_33">
    <path d="M 128.304966 60003.867038 
L 129.757559 60003.867038 
L 129.757559 186.845981 
L 128.304966 186.845981 
z
" clip-path="url(#pc480eaf796)" style="fill: #1f77b4"/>
   </g>
   <g id="patch_34">
    <path d="M 133.75219 60003.867038 
L 135.204783 60003.867038 
L 135.204783 183.187669 
L 133.75219 183.187669 
z
" clip-path="url(#pc480eaf796)" style="fill: #1f77b4"/>
   </g>
   <g id="patch_35">
    <path d="M 141.015156 60003.867038 
L 142.467749 60003.867038 
L 142.467749 193.028222 
L 141.015156 193.028222 
z
" clip-path="url(#pc480eaf796)" style="fill: #1f77b4"/>
   </g>
   <g id="patch_36">
    <path d="M 119.22626 60003.867038 
L 120.678853 60003.867038 
L 120.678853 174.806063 
L 119.22626 174.806063 
z
" clip-path="url(#pc480eaf796)" style="fill: #1f77b4"/>
   </g>
   <g id="patch_37">
    <path d="M 148.278121 60003.867038 
L 149.730714 60003.867038 
L 149.730714 192.049577 
L 148.278121 192.049577 
z
" clip-path="url(#pc480eaf796)" style="fill: #1f77b4"/>
   </g>
   <g id="patch_38">
    <path d="M 155.541086 60003.867038 
L 156.993679 60003.867038 
L 156.993679 203.2942 
L 155.541086 203.2942 
z
" clip-path="url(#pc480eaf796)" style="fill: #1f77b4"/>
   </g>
   <g id="patch_39">
    <path d="M 130.120708 60003.867038 
L 131.573301 60003.867038 
L 131.573301 187.241882 
L 130.120708 187.241882 
z
" clip-path="url(#pc480eaf796)" style="fill: #1f77b4"/>
   </g>
   <g id="patch_40">
    <path d="M 137.383673 60003.867038 
L 138.836266 60003.867038 
L 138.836266 194.045255 
L 137.383673 194.045255 
z
" clip-path="url(#pc480eaf796)" style="fill: #1f77b4"/>
   </g>
   <g id="patch_41">
    <path d="M 159.172569 60003.867038 
L 160.625162 60003.867038 
L 160.625162 201.161682 
L 159.172569 201.161682 
z
" clip-path="url(#pc480eaf796)" style="fill: #1f77b4"/>
   </g>
   <g id="patch_42">
    <path d="M 146.462379 60003.867038 
L 147.914973 60003.867038 
L 147.914973 197.360105 
L 146.462379 197.360105 
z
" clip-path="url(#pc480eaf796)" style="fill: #1f77b4"/>
   </g>
   <g id="patch_43">
    <path d="M 131.936449 60003.867038 
L 133.389042 60003.867038 
L 133.389042 188.052292 
L 131.936449 188.052292 
z
" clip-path="url(#pc480eaf796)" style="fill: #1f77b4"/>
   </g>
   <g id="patch_44">
    <path d="M 153.725345 60003.867038 
L 155.177938 60003.867038 
L 155.177938 197.360105 
L 153.725345 197.360105 
z
" clip-path="url(#pc480eaf796)" style="fill: #1f77b4"/>
   </g>
   <g id="patch_45">
    <path d="M 195.487395 60003.867038 
L 196.939988 60003.867038 
L 196.939988 227.054553 
L 195.487395 227.054553 
z
" clip-path="url(#pc480eaf796)" style="fill: #1f77b4"/>
   </g>
   <g id="patch_46">
    <path d="M 182.777206 60003.867038 
L 184.229799 60003.867038 
L 184.229799 206.441211 
L 182.777206 206.441211 
z
" clip-path="url(#pc480eaf796)" style="fill: #1f77b4"/>
   </g>
   <g id="patch_47">
    <path d="M 164.619793 60003.867038 
L 166.072386 60003.867038 
L 166.072386 204.819994 
L 164.619793 204.819994 
z
" clip-path="url(#pc480eaf796)" style="fill: #1f77b4"/>
   </g>
   <g id="patch_48">
    <path d="M 160.98831 60003.867038 
L 162.440903 60003.867038 
L 162.440903 201.161682 
L 160.98831 201.161682 
z
" clip-path="url(#pc480eaf796)" style="fill: #1f77b4"/>
   </g>
   <g id="patch_49">
    <path d="M 142.830897 60003.867038 
L 144.28349 60003.867038 
L 144.28349 202.5637 
L 142.830897 202.5637 
z
" clip-path="url(#pc480eaf796)" style="fill: #1f77b4"/>
   </g>
   <g id="patch_50">
    <path d="M 184.592947 60003.867038 
L 186.04554 60003.867038 
L 186.04554 210.02359 
L 184.592947 210.02359 
z
" clip-path="url(#pc480eaf796)" style="fill: #1f77b4"/>
   </g>
   <g id="patch_51">
    <path d="M 151.909603 60003.867038 
L 153.362196 60003.867038 
L 153.362196 211.002235 
L 151.909603 211.002235 
z
" clip-path="url(#pc480eaf796)" style="fill: #1f77b4"/>
   </g>
   <g id="patch_52">
    <path d="M 190.040171 60003.867038 
L 191.492764 60003.867038 
L 191.492764 228.976248 
L 190.040171 228.976248 
z
" clip-path="url(#pc480eaf796)" style="fill: #1f77b4"/>
   </g>
   <g id="patch_53">
    <path d="M 157.356827 60003.867038 
L 158.80942 60003.867038 
L 158.80942 204.819994 
L 157.356827 204.819994 
z
" clip-path="url(#pc480eaf796)" style="fill: #1f77b4"/>
   </g>
   <g id="patch_54">
    <path d="M 173.698499 60003.867038 
L 175.151092 60003.867038 
L 175.151092 212.019268 
L 173.698499 212.019268 
z
" clip-path="url(#pc480eaf796)" style="fill: #1f77b4"/>
   </g>
   <g id="patch_55">
    <path d="M 150.093862 60003.867038 
L 151.546455 60003.867038 
L 151.546455 203.2942 
L 150.093862 203.2942 
z
" clip-path="url(#pc480eaf796)" style="fill: #1f77b4"/>
   </g>
   <g id="patch_56">
    <path d="M 179.145723 60003.867038 
L 180.598316 60003.867038 
L 180.598316 228.976248 
L 179.145723 228.976248 
z
" clip-path="url(#pc480eaf796)" style="fill: #1f77b4"/>
   </g>
   <g id="patch_57">
    <path d="M 213.644808 60003.867038 
L 215.097401 60003.867038 
L 215.097401 253.753634 
L 213.644808 253.753634 
z
" clip-path="url(#pc480eaf796)" style="fill: #1f77b4"/>
   </g>
   <g id="patch_58">
    <path d="M 175.51424 60003.867038 
L 176.966833 60003.867038 
L 176.966833 217.805608 
L 175.51424 217.805608 
z
" clip-path="url(#pc480eaf796)" style="fill: #1f77b4"/>
   </g>
   <g id="patch_59">
    <path d="M 135.567932 60003.867038 
L 137.020525 60003.867038 
L 137.020525 197.956246 
L 135.567932 197.956246 
z
" clip-path="url(#pc480eaf796)" style="fill: #1f77b4"/>
   </g>
   <g id="patch_60">
    <path d="M 144.646638 60003.867038 
L 146.099231 60003.867038 
L 146.099231 201.853217 
L 144.646638 201.853217 
z
" clip-path="url(#pc480eaf796)" style="fill: #1f77b4"/>
   </g>
   <g id="patch_61">
    <path d="M 171.882758 60003.867038 
L 173.335351 60003.867038 
L 173.335351 209.08054 
L 171.882758 209.08054 
z
" clip-path="url(#pc480eaf796)" style="fill: #1f77b4"/>
   </g>
   <g id="patch_62">
    <path d="M 186.408688 60003.867038 
L 187.861281 60003.867038 
L 187.861281 222.019889 
L 186.408688 222.019889 
z
" clip-path="url(#pc480eaf796)" style="fill: #1f77b4"/>
   </g>
   <g id="patch_63">
    <path d="M 162.804051 60003.867038 
L 164.256644 60003.867038 
L 164.256644 205.617935 
L 162.804051 205.617935 
z
" clip-path="url(#pc480eaf796)" style="fill: #1f77b4"/>
   </g>
   <g id="patch_64">
    <path d="M 170.067016 60003.867038 
L 171.51961 60003.867038 
L 171.51961 214.181438 
L 170.067016 214.181438 
z
" clip-path="url(#pc480eaf796)" style="fill: #1f77b4"/>
   </g>
   <g id="patch_65">
    <path d="M 199.118877 60003.867038 
L 200.57147 60003.867038 
L 200.57147 227.054553 
L 199.118877 227.054553 
z
" clip-path="url(#pc480eaf796)" style="fill: #1f77b4"/>
   </g>
   <g id="patch_66">
    <path d="M 166.435534 60003.867038 
L 167.888127 60003.867038 
L 167.888127 210.02359 
L 166.435534 210.02359 
z
" clip-path="url(#pc480eaf796)" style="fill: #1f77b4"/>
   </g>
   <g id="patch_67">
    <path d="M 168.251275 60003.867038 
L 169.703868 60003.867038 
L 169.703868 215.334118 
L 168.251275 215.334118 
z
" clip-path="url(#pc480eaf796)" style="fill: #1f77b4"/>
   </g>
   <g id="patch_68">
    <path d="M 193.671653 60003.867038 
L 195.124246 60003.867038 
L 195.124246 225.265497 
L 193.671653 225.265497 
z
" clip-path="url(#pc480eaf796)" style="fill: #1f77b4"/>
   </g>
   <g id="patch_69">
    <path d="M 177.329982 60003.867038 
L 178.782575 60003.867038 
L 178.782575 206.441211 
L 177.329982 206.441211 
z
" clip-path="url(#pc480eaf796)" style="fill: #1f77b4"/>
   </g>
   <g id="patch_70">
    <path d="M 228.170738 60003.867038 
L 229.623331 60003.867038 
L 229.623331 241.565961 
L 228.170738 241.565961 
z
" clip-path="url(#pc480eaf796)" style="fill: #1f77b4"/>
   </g>
   <g id="patch_71">
    <path d="M 197.303136 60003.867038 
L 198.755729 60003.867038 
L 198.755729 220.537713 
L 197.303136 220.537713 
z
" clip-path="url(#pc480eaf796)" style="fill: #1f77b4"/>
   </g>
   <g id="patch_72">
    <path d="M 188.22443 60003.867038 
L 189.677023 60003.867038 
L 189.677023 227.054553 
L 188.22443 227.054553 
z
" clip-path="url(#pc480eaf796)" style="fill: #1f77b4"/>
   </g>
   <g id="patch_73">
    <path d="M 217.27629 60003.867038 
L 218.728883 60003.867038 
L 218.728883 245.028566 
L 217.27629 245.028566 
z
" clip-path="url(#pc480eaf796)" style="fill: #1f77b4"/>
   </g>
   <g id="patch_74">
    <path d="M 226.354997 60003.867038 
L 227.80759 60003.867038 
L 227.80759 259.539974 
L 226.354997 259.539974 
z
" clip-path="url(#pc480eaf796)" style="fill: #1f77b4"/>
   </g>
   <g id="patch_75">
    <path d="M 191.855912 60003.867038 
L 193.308505 60003.867038 
L 193.308505 213.077824 
L 191.855912 213.077824 
z
" clip-path="url(#pc480eaf796)" style="fill: #1f77b4"/>
   </g>
   <g id="patch_76">
    <path d="M 219.092032 60003.867038 
L 220.544625 60003.867038 
L 220.544625 249.02585 
L 219.092032 249.02585 
z
" clip-path="url(#pc480eaf796)" style="fill: #1f77b4"/>
   </g>
   <g id="patch_77">
    <path d="M 210.013325 60003.867038 
L 211.465918 60003.867038 
L 211.465918 227.054553 
L 210.013325 227.054553 
z
" clip-path="url(#pc480eaf796)" style="fill: #1f77b4"/>
   </g>
   <g id="patch_78">
    <path d="M 180.961464 60003.867038 
L 182.414057 60003.867038 
L 182.414057 220.537713 
L 180.961464 220.537713 
z
" clip-path="url(#pc480eaf796)" style="fill: #1f77b4"/>
   </g>
   <g id="patch_79">
    <path d="M 220.907773 60003.867038 
L 222.360366 60003.867038 
L 222.360366 241.565961 
L 220.907773 241.565961 
z
" clip-path="url(#pc480eaf796)" style="fill: #1f77b4"/>
   </g>
   <g id="patch_80">
    <path d="M 211.829067 60003.867038 
L 213.28166 60003.867038 
L 213.28166 235.779621 
L 211.829067 235.779621 
z
" clip-path="url(#pc480eaf796)" style="fill: #1f77b4"/>
   </g>
   <g id="patch_81">
    <path d="M 257.222599 60003.867038 
L 258.675192 60003.867038 
L 258.675192 266.999863 
L 257.222599 266.999863 
z
" clip-path="url(#pc480eaf796)" style="fill: #1f77b4"/>
   </g>
   <g id="patch_82">
    <path d="M 233.617962 60003.867038 
L 235.070555 60003.867038 
L 235.070555 245.028566 
L 233.617962 245.028566 
z
" clip-path="url(#pc480eaf796)" style="fill: #1f77b4"/>
   </g>
   <g id="patch_83">
    <path d="M 206.381843 60003.867038 
L 207.834436 60003.867038 
L 207.834436 225.265497 
L 206.381843 225.265497 
z
" clip-path="url(#pc480eaf796)" style="fill: #1f77b4"/>
   </g>
   <g id="patch_84">
    <path d="M 204.566101 60003.867038 
L 206.018694 60003.867038 
L 206.018694 231.051837 
L 204.566101 231.051837 
z
" clip-path="url(#pc480eaf796)" style="fill: #1f77b4"/>
   </g>
   <g id="patch_85">
    <path d="M 239.065186 60003.867038 
L 240.517779 60003.867038 
L 240.517779 241.565961 
L 239.065186 241.565961 
z
" clip-path="url(#pc480eaf796)" style="fill: #1f77b4"/>
   </g>
   <g id="patch_86">
    <path d="M 273.564271 60003.867038 
L 275.016864 60003.867038 
L 275.016864 295.488 
L 273.564271 295.488 
z
" clip-path="url(#pc480eaf796)" style="fill: #1f77b4"/>
   </g>
   <g id="patch_87">
    <path d="M 200.934619 60003.867038 
L 202.387212 60003.867038 
L 202.387212 223.591948 
L 200.934619 223.591948 
z
" clip-path="url(#pc480eaf796)" style="fill: #1f77b4"/>
   </g>
   <g id="patch_88">
    <path d="M 248.143893 60003.867038 
L 249.596486 60003.867038 
L 249.596486 266.999863 
L 248.143893 266.999863 
z
" clip-path="url(#pc480eaf796)" style="fill: #1f77b4"/>
   </g>
   <g id="patch_89">
    <path d="M 208.197584 60003.867038 
L 209.650177 60003.867038 
L 209.650177 241.565961 
L 208.197584 241.565961 
z
" clip-path="url(#pc480eaf796)" style="fill: #1f77b4"/>
   </g>
   <g id="patch_90">
    <path d="M 244.51241 60003.867038 
L 245.965003 60003.867038 
L 245.965003 259.539974 
L 244.51241 259.539974 
z
" clip-path="url(#pc480eaf796)" style="fill: #1f77b4"/>
   </g>
   <g id="patch_91">
    <path d="M 224.539256 60003.867038 
L 225.991849 60003.867038 
L 225.991849 231.051837 
L 224.539256 231.051837 
z
" clip-path="url(#pc480eaf796)" style="fill: #1f77b4"/>
   </g>
   <g id="patch_92">
    <path d="M 215.460549 60003.867038 
L 216.913142 60003.867038 
L 216.913142 249.02585 
L 215.460549 249.02585 
z
" clip-path="url(#pc480eaf796)" style="fill: #1f77b4"/>
   </g>
   <g id="patch_93">
    <path d="M 222.723514 60003.867038 
L 224.176107 60003.867038 
L 224.176107 241.565961 
L 222.723514 241.565961 
z
" clip-path="url(#pc480eaf796)" style="fill: #1f77b4"/>
   </g>
   <g id="patch_94">
    <path d="M 275.380012 60003.867038 
L 276.832605 60003.867038 
L 276.832605 295.488 
L 275.380012 295.488 
z
" clip-path="url(#pc480eaf796)" style="fill: #1f77b4"/>
   </g>
   <g id="patch_95">
    <path d="M 266.301306 60003.867038 
L 267.753899 60003.867038 
L 267.753899 253.753634 
L 266.301306 253.753634 
z
" clip-path="url(#pc480eaf796)" style="fill: #1f77b4"/>
   </g>
   <g id="patch_96">
    <path d="M 231.802221 60003.867038 
L 233.254814 60003.867038 
L 233.254814 253.753634 
L 231.802221 253.753634 
z
" clip-path="url(#pc480eaf796)" style="fill: #1f77b4"/>
   </g>
   <g id="patch_97">
    <path d="M 235.433703 60003.867038 
L 236.886297 60003.867038 
L 236.886297 249.02585 
L 235.433703 249.02585 
z
" clip-path="url(#pc480eaf796)" style="fill: #1f77b4"/>
   </g>
   <g id="patch_98">
    <path d="M 237.249445 60003.867038 
L 238.702038 60003.867038 
L 238.702038 266.999863 
L 237.249445 266.999863 
z
" clip-path="url(#pc480eaf796)" style="fill: #1f77b4"/>
   </g>
   <g id="patch_99">
    <path d="M 297.168908 60003.867038 
L 298.621501 60003.867038 
L 298.621501 295.488 
L 297.168908 295.488 
z
" clip-path="url(#pc480eaf796)" style="fill: #1f77b4"/>
   </g>
   <g id="patch_100">
    <path d="M 253.591117 60003.867038 
L 255.04371 60003.867038 
L 255.04371 249.02585 
L 253.591117 249.02585 
z
" clip-path="url(#pc480eaf796)" style="fill: #1f77b4"/>
   </g>
   <g id="patch_101">
    <path d="M 288.090201 60003.867038 
L 289.542794 60003.867038 
L 289.542794 266.999863 
L 288.090201 266.999863 
z
" clip-path="url(#pc480eaf796)" style="fill: #1f77b4"/>
   </g>
   <g id="patch_102">
    <path d="M 260.854082 60003.867038 
L 262.306675 60003.867038 
L 262.306675 277.513987 
L 260.854082 277.513987 
z
" clip-path="url(#pc480eaf796)" style="fill: #1f77b4"/>
   </g>
   <g id="patch_103">
    <path d="M 242.696669 60003.867038 
L 244.149262 60003.867038 
L 244.149262 259.539974 
L 242.696669 259.539974 
z
" clip-path="url(#pc480eaf796)" style="fill: #1f77b4"/>
   </g>
   <g id="patch_104">
    <path d="M 262.669823 60003.867038 
L 264.122416 60003.867038 
L 264.122416 277.513987 
L 262.669823 277.513987 
z
" clip-path="url(#pc480eaf796)" style="fill: #1f77b4"/>
   </g>
   <g id="patch_105">
    <path d="M 229.98648 60003.867038 
L 231.439073 60003.867038 
L 231.439073 259.539974 
L 229.98648 259.539974 
z
" clip-path="url(#pc480eaf796)" style="fill: #1f77b4"/>
   </g>
   <g id="patch_106">
    <path d="M 202.75036 60003.867038 
L 204.202953 60003.867038 
L 204.202953 235.779621 
L 202.75036 235.779621 
z
" clip-path="url(#pc480eaf796)" style="fill: #1f77b4"/>
   </g>
   <g id="patch_107">
    <path d="M 259.03834 60003.867038 
L 260.490933 60003.867038 
L 260.490933 266.999863 
L 259.03834 266.999863 
z
" clip-path="url(#pc480eaf796)" style="fill: #1f77b4"/>
   </g>
   <g id="patch_108">
    <path d="M 264.485564 60003.867038 
L 265.938157 60003.867038 
L 265.938157 295.488 
L 264.485564 295.488 
z
" clip-path="url(#pc480eaf796)" style="fill: #1f77b4"/>
   </g>
   <g id="patch_109">
    <path d="M 357.088371 60003.867038 
L 358.540964 60003.867038 
L 358.540964 295.488 
L 357.088371 295.488 
z
" clip-path="url(#pc480eaf796)" style="fill: #1f77b4"/>
   </g>
   <g id="patch_110">
    <path d="M 317.142062 60003.867038 
L 318.594655 60003.867038 
L 318.594655 295.488 
L 317.142062 295.488 
z
" clip-path="url(#pc480eaf796)" style="fill: #1f77b4"/>
   </g>
   <g id="patch_111">
    <path d="M 246.328151 60003.867038 
L 247.780744 60003.867038 
L 247.780744 295.488 
L 246.328151 295.488 
z
" clip-path="url(#pc480eaf796)" style="fill: #1f77b4"/>
   </g>
   <g id="patch_112">
    <path d="M 300.80039 60003.867038 
L 302.252984 60003.867038 
L 302.252984 277.513987 
L 300.80039 277.513987 
z
" clip-path="url(#pc480eaf796)" style="fill: #1f77b4"/>
   </g>
   <g id="patch_113">
    <path d="M 302.616132 60003.867038 
L 304.068725 60003.867038 
L 304.068725 295.488 
L 302.616132 295.488 
z
" clip-path="url(#pc480eaf796)" style="fill: #1f77b4"/>
   </g>
   <g id="patch_114">
    <path d="M 255.406858 60003.867038 
L 256.859451 60003.867038 
L 256.859451 277.513987 
L 255.406858 277.513987 
z
" clip-path="url(#pc480eaf796)" style="fill: #1f77b4"/>
   </g>
   <g id="patch_115">
    <path d="M 311.694838 60003.867038 
L 313.147431 60003.867038 
L 313.147431 295.488 
L 311.694838 295.488 
z
" clip-path="url(#pc480eaf796)" style="fill: #1f77b4"/>
   </g>
   <g id="patch_116">
    <path d="M 342.562441 60003.867038 
L 344.015034 60003.867038 
L 344.015034 295.488 
L 342.562441 295.488 
z
" clip-path="url(#pc480eaf796)" style="fill: #1f77b4"/>
   </g>
   <g id="patch_117">
    <path d="M 280.827236 60003.867038 
L 282.279829 60003.867038 
L 282.279829 259.539974 
L 280.827236 259.539974 
z
" clip-path="url(#pc480eaf796)" style="fill: #1f77b4"/>
   </g>
   <g id="patch_118">
    <path d="M 315.326321 60003.867038 
L 316.778914 60003.867038 
L 316.778914 295.488 
L 315.326321 295.488 
z
" clip-path="url(#pc480eaf796)" style="fill: #1f77b4"/>
   </g>
   <g id="patch_119">
    <path d="M 240.880927 60003.867038 
L 242.33352 60003.867038 
L 242.33352 259.539974 
L 240.880927 259.539974 
z
" clip-path="url(#pc480eaf796)" style="fill: #1f77b4"/>
   </g>
   <g id="patch_120">
    <path d="M 277.195754 60003.867038 
L 278.648347 60003.867038 
L 278.648347 295.488 
L 277.195754 295.488 
z
" clip-path="url(#pc480eaf796)" style="fill: #1f77b4"/>
   </g>
   <g id="patch_121">
    <path d="M 251.775375 60003.867038 
L 253.227968 60003.867038 
L 253.227968 277.513987 
L 251.775375 277.513987 
z
" clip-path="url(#pc480eaf796)" style="fill: #1f77b4"/>
   </g>
   <g id="patch_122">
    <path d="M 322.589286 60003.867038 
L 324.041879 60003.867038 
L 324.041879 295.488 
L 322.589286 295.488 
z
" clip-path="url(#pc480eaf796)" style="fill: #1f77b4"/>
   </g>
   <g id="patch_123">
    <path d="M 289.905943 60003.867038 
L 291.358536 60003.867038 
L 291.358536 295.488 
L 289.905943 295.488 
z
" clip-path="url(#pc480eaf796)" style="fill: #1f77b4"/>
   </g>
   <g id="patch_124">
    <path d="M 397.03468 60003.867038 
L 398.487273 60003.867038 
L 398.487273 295.488 
L 397.03468 295.488 
z
" clip-path="url(#pc480eaf796)" style="fill: #1f77b4"/>
   </g>
   <g id="patch_125">
    <path d="M 249.959634 60003.867038 
L 251.412227 60003.867038 
L 251.412227 266.999863 
L 249.959634 266.999863 
z
" clip-path="url(#pc480eaf796)" style="fill: #1f77b4"/>
   </g>
   <g id="patch_126">
    <path d="M 291.721684 60003.867038 
L 293.174277 60003.867038 
L 293.174277 295.488 
L 291.721684 295.488 
z
" clip-path="url(#pc480eaf796)" style="fill: #1f77b4"/>
   </g>
   <g id="patch_127">
    <path d="M 360.719854 60003.867038 
L 362.172447 60003.867038 
L 362.172447 295.488 
L 360.719854 295.488 
z
" clip-path="url(#pc480eaf796)" style="fill: #1f77b4"/>
   </g>
   <g id="matplotlib.axis_1">
    <g id="xtick_1">
     <g id="line2d_1">
      <defs>
       <path id="m132c4efff9" d="M 0 0 
L 0 3.5 
" style="stroke: #000000; stroke-width: 0.8"/>
      </defs>
      <g>
       <use xlink:href="#m132c4efff9" x="74.559024" y="307.584" style="stroke: #000000; stroke-width: 0.8"/>
      </g>
     </g>
     <g id="text_1">
      <!-- 0 -->
      <g transform="translate(71.377774 322.182437) scale(0.1 -0.1)">
       <defs>
        <path id="DejaVuSans-30" d="M 2034 4250 
Q 1547 4250 1301 3770 
Q 1056 3291 1056 2328 
Q 1056 1369 1301 889 
Q 1547 409 2034 409 
Q 2525 409 2770 889 
Q 3016 1369 3016 2328 
Q 3016 3291 2770 3770 
Q 2525 4250 2034 4250 
z
M 2034 4750 
Q 2819 4750 3233 4129 
Q 3647 3509 3647 2328 
Q 3647 1150 3233 529 
Q 2819 -91 2034 -91 
Q 1250 -91 836 529 
Q 422 1150 422 2328 
Q 422 3509 836 4129 
Q 1250 4750 2034 4750 
z
" transform="scale(0.015625)"/>
       </defs>
       <use xlink:href="#DejaVuSans-30"/>
      </g>
     </g>
    </g>
    <g id="xtick_2">
     <g id="line2d_2">
      <g>
       <use xlink:href="#m132c4efff9" x="119.952556" y="307.584" style="stroke: #000000; stroke-width: 0.8"/>
      </g>
     </g>
     <g id="text_2">
      <!-- 25 -->
      <g transform="translate(113.590056 322.182437) scale(0.1 -0.1)">
       <defs>
        <path id="DejaVuSans-32" d="M 1228 531 
L 3431 531 
L 3431 0 
L 469 0 
L 469 531 
Q 828 903 1448 1529 
Q 2069 2156 2228 2338 
Q 2531 2678 2651 2914 
Q 2772 3150 2772 3378 
Q 2772 3750 2511 3984 
Q 2250 4219 1831 4219 
Q 1534 4219 1204 4116 
Q 875 4013 500 3803 
L 500 4441 
Q 881 4594 1212 4672 
Q 1544 4750 1819 4750 
Q 2544 4750 2975 4387 
Q 3406 4025 3406 3419 
Q 3406 3131 3298 2873 
Q 3191 2616 2906 2266 
Q 2828 2175 2409 1742 
Q 1991 1309 1228 531 
z
" transform="scale(0.015625)"/>
        <path id="DejaVuSans-35" d="M 691 4666 
L 3169 4666 
L 3169 4134 
L 1269 4134 
L 1269 2991 
Q 1406 3038 1543 3061 
Q 1681 3084 1819 3084 
Q 2600 3084 3056 2656 
Q 3513 2228 3513 1497 
Q 3513 744 3044 326 
Q 2575 -91 1722 -91 
Q 1428 -91 1123 -41 
Q 819 9 494 109 
L 494 744 
Q 775 591 1075 516 
Q 1375 441 1709 441 
Q 2250 441 2565 725 
Q 2881 1009 2881 1497 
Q 2881 1984 2565 2268 
Q 2250 2553 1709 2553 
Q 1456 2553 1204 2497 
Q 953 2441 691 2322 
L 691 4666 
z
" transform="scale(0.015625)"/>
       </defs>
       <use xlink:href="#DejaVuSans-32"/>
       <use xlink:href="#DejaVuSans-35" x="63.623047"/>
      </g>
     </g>
    </g>
    <g id="xtick_3">
     <g id="line2d_3">
      <g>
       <use xlink:href="#m132c4efff9" x="165.346089" y="307.584" style="stroke: #000000; stroke-width: 0.8"/>
      </g>
     </g>
     <g id="text_3">
      <!-- 50 -->
      <g transform="translate(158.983589 322.182437) scale(0.1 -0.1)">
       <use xlink:href="#DejaVuSans-35"/>
       <use xlink:href="#DejaVuSans-30" x="63.623047"/>
      </g>
     </g>
    </g>
    <g id="xtick_4">
     <g id="line2d_4">
      <g>
       <use xlink:href="#m132c4efff9" x="210.739622" y="307.584" style="stroke: #000000; stroke-width: 0.8"/>
      </g>
     </g>
     <g id="text_4">
      <!-- 75 -->
      <g transform="translate(204.377122 322.182437) scale(0.1 -0.1)">
       <defs>
        <path id="DejaVuSans-37" d="M 525 4666 
L 3525 4666 
L 3525 4397 
L 1831 0 
L 1172 0 
L 2766 4134 
L 525 4134 
L 525 4666 
z
" transform="scale(0.015625)"/>
       </defs>
       <use xlink:href="#DejaVuSans-37"/>
       <use xlink:href="#DejaVuSans-35" x="63.623047"/>
      </g>
     </g>
    </g>
    <g id="xtick_5">
     <g id="line2d_5">
      <g>
       <use xlink:href="#m132c4efff9" x="256.133154" y="307.584" style="stroke: #000000; stroke-width: 0.8"/>
      </g>
     </g>
     <g id="text_5">
      <!-- 100 -->
      <g transform="translate(246.589404 322.182437) scale(0.1 -0.1)">
       <defs>
        <path id="DejaVuSans-31" d="M 794 531 
L 1825 531 
L 1825 4091 
L 703 3866 
L 703 4441 
L 1819 4666 
L 2450 4666 
L 2450 531 
L 3481 531 
L 3481 0 
L 794 0 
L 794 531 
z
" transform="scale(0.015625)"/>
       </defs>
       <use xlink:href="#DejaVuSans-31"/>
       <use xlink:href="#DejaVuSans-30" x="63.623047"/>
       <use xlink:href="#DejaVuSans-30" x="127.246094"/>
      </g>
     </g>
    </g>
    <g id="xtick_6">
     <g id="line2d_6">
      <g>
       <use xlink:href="#m132c4efff9" x="301.526687" y="307.584" style="stroke: #000000; stroke-width: 0.8"/>
      </g>
     </g>
     <g id="text_6">
      <!-- 125 -->
      <g transform="translate(291.982937 322.182437) scale(0.1 -0.1)">
       <use xlink:href="#DejaVuSans-31"/>
       <use xlink:href="#DejaVuSans-32" x="63.623047"/>
       <use xlink:href="#DejaVuSans-35" x="127.246094"/>
      </g>
     </g>
    </g>
    <g id="xtick_7">
     <g id="line2d_7">
      <g>
       <use xlink:href="#m132c4efff9" x="346.92022" y="307.584" style="stroke: #000000; stroke-width: 0.8"/>
      </g>
     </g>
     <g id="text_7">
      <!-- 150 -->
      <g transform="translate(337.37647 322.182437) scale(0.1 -0.1)">
       <use xlink:href="#DejaVuSans-31"/>
       <use xlink:href="#DejaVuSans-35" x="63.623047"/>
       <use xlink:href="#DejaVuSans-30" x="127.246094"/>
      </g>
     </g>
    </g>
    <g id="xtick_8">
     <g id="line2d_8">
      <g>
       <use xlink:href="#m132c4efff9" x="392.313752" y="307.584" style="stroke: #000000; stroke-width: 0.8"/>
      </g>
     </g>
     <g id="text_8">
      <!-- 175 -->
      <g transform="translate(382.770002 322.182437) scale(0.1 -0.1)">
       <use xlink:href="#DejaVuSans-31"/>
       <use xlink:href="#DejaVuSans-37" x="63.623047"/>
       <use xlink:href="#DejaVuSans-35" x="127.246094"/>
      </g>
     </g>
    </g>
    <g id="text_9">
     <!-- Depth of Element -->
     <g transform="translate(192.231875 335.860562) scale(0.1 -0.1)">
      <defs>
       <path id="DejaVuSans-44" d="M 1259 4147 
L 1259 519 
L 2022 519 
Q 2988 519 3436 956 
Q 3884 1394 3884 2338 
Q 3884 3275 3436 3711 
Q 2988 4147 2022 4147 
L 1259 4147 
z
M 628 4666 
L 1925 4666 
Q 3281 4666 3915 4102 
Q 4550 3538 4550 2338 
Q 4550 1131 3912 565 
Q 3275 0 1925 0 
L 628 0 
L 628 4666 
z
" transform="scale(0.015625)"/>
       <path id="DejaVuSans-65" d="M 3597 1894 
L 3597 1613 
L 953 1613 
Q 991 1019 1311 708 
Q 1631 397 2203 397 
Q 2534 397 2845 478 
Q 3156 559 3463 722 
L 3463 178 
Q 3153 47 2828 -22 
Q 2503 -91 2169 -91 
Q 1331 -91 842 396 
Q 353 884 353 1716 
Q 353 2575 817 3079 
Q 1281 3584 2069 3584 
Q 2775 3584 3186 3129 
Q 3597 2675 3597 1894 
z
M 3022 2063 
Q 3016 2534 2758 2815 
Q 2500 3097 2075 3097 
Q 1594 3097 1305 2825 
Q 1016 2553 972 2059 
L 3022 2063 
z
" transform="scale(0.015625)"/>
       <path id="DejaVuSans-70" d="M 1159 525 
L 1159 -1331 
L 581 -1331 
L 581 3500 
L 1159 3500 
L 1159 2969 
Q 1341 3281 1617 3432 
Q 1894 3584 2278 3584 
Q 2916 3584 3314 3078 
Q 3713 2572 3713 1747 
Q 3713 922 3314 415 
Q 2916 -91 2278 -91 
Q 1894 -91 1617 61 
Q 1341 213 1159 525 
z
M 3116 1747 
Q 3116 2381 2855 2742 
Q 2594 3103 2138 3103 
Q 1681 3103 1420 2742 
Q 1159 2381 1159 1747 
Q 1159 1113 1420 752 
Q 1681 391 2138 391 
Q 2594 391 2855 752 
Q 3116 1113 3116 1747 
z
" transform="scale(0.015625)"/>
       <path id="DejaVuSans-74" d="M 1172 4494 
L 1172 3500 
L 2356 3500 
L 2356 3053 
L 1172 3053 
L 1172 1153 
Q 1172 725 1289 603 
Q 1406 481 1766 481 
L 2356 481 
L 2356 0 
L 1766 0 
Q 1100 0 847 248 
Q 594 497 594 1153 
L 594 3053 
L 172 3053 
L 172 3500 
L 594 3500 
L 594 4494 
L 1172 4494 
z
" transform="scale(0.015625)"/>
       <path id="DejaVuSans-68" d="M 3513 2113 
L 3513 0 
L 2938 0 
L 2938 2094 
Q 2938 2591 2744 2837 
Q 2550 3084 2163 3084 
Q 1697 3084 1428 2787 
Q 1159 2491 1159 1978 
L 1159 0 
L 581 0 
L 581 4863 
L 1159 4863 
L 1159 2956 
Q 1366 3272 1645 3428 
Q 1925 3584 2291 3584 
Q 2894 3584 3203 3211 
Q 3513 2838 3513 2113 
z
" transform="scale(0.015625)"/>
       <path id="DejaVuSans-20" transform="scale(0.015625)"/>
       <path id="DejaVuSans-6f" d="M 1959 3097 
Q 1497 3097 1228 2736 
Q 959 2375 959 1747 
Q 959 1119 1226 758 
Q 1494 397 1959 397 
Q 2419 397 2687 759 
Q 2956 1122 2956 1747 
Q 2956 2369 2687 2733 
Q 2419 3097 1959 3097 
z
M 1959 3584 
Q 2709 3584 3137 3096 
Q 3566 2609 3566 1747 
Q 3566 888 3137 398 
Q 2709 -91 1959 -91 
Q 1206 -91 779 398 
Q 353 888 353 1747 
Q 353 2609 779 3096 
Q 1206 3584 1959 3584 
z
" transform="scale(0.015625)"/>
       <path id="DejaVuSans-66" d="M 2375 4863 
L 2375 4384 
L 1825 4384 
Q 1516 4384 1395 4259 
Q 1275 4134 1275 3809 
L 1275 3500 
L 2222 3500 
L 2222 3053 
L 1275 3053 
L 1275 0 
L 697 0 
L 697 3053 
L 147 3053 
L 147 3500 
L 697 3500 
L 697 3744 
Q 697 4328 969 4595 
Q 1241 4863 1831 4863 
L 2375 4863 
z
" transform="scale(0.015625)"/>
       <path id="DejaVuSans-45" d="M 628 4666 
L 3578 4666 
L 3578 4134 
L 1259 4134 
L 1259 2753 
L 3481 2753 
L 3481 2222 
L 1259 2222 
L 1259 531 
L 3634 531 
L 3634 0 
L 628 0 
L 628 4666 
z
" transform="scale(0.015625)"/>
       <path id="DejaVuSans-6c" d="M 603 4863 
L 1178 4863 
L 1178 0 
L 603 0 
L 603 4863 
z
" transform="scale(0.015625)"/>
       <path id="DejaVuSans-6d" d="M 3328 2828 
Q 3544 3216 3844 3400 
Q 4144 3584 4550 3584 
Q 5097 3584 5394 3201 
Q 5691 2819 5691 2113 
L 5691 0 
L 5113 0 
L 5113 2094 
Q 5113 2597 4934 2840 
Q 4756 3084 4391 3084 
Q 3944 3084 3684 2787 
Q 3425 2491 3425 1978 
L 3425 0 
L 2847 0 
L 2847 2094 
Q 2847 2600 2669 2842 
Q 2491 3084 2119 3084 
Q 1678 3084 1418 2786 
Q 1159 2488 1159 1978 
L 1159 0 
L 581 0 
L 581 3500 
L 1159 3500 
L 1159 2956 
Q 1356 3278 1631 3431 
Q 1906 3584 2284 3584 
Q 2666 3584 2933 3390 
Q 3200 3197 3328 2828 
z
" transform="scale(0.015625)"/>
       <path id="DejaVuSans-6e" d="M 3513 2113 
L 3513 0 
L 2938 0 
L 2938 2094 
Q 2938 2591 2744 2837 
Q 2550 3084 2163 3084 
Q 1697 3084 1428 2787 
Q 1159 2491 1159 1978 
L 1159 0 
L 581 0 
L 581 3500 
L 1159 3500 
L 1159 2956 
Q 1366 3272 1645 3428 
Q 1925 3584 2291 3584 
Q 2894 3584 3203 3211 
Q 3513 2838 3513 2113 
z
" transform="scale(0.015625)"/>
      </defs>
      <use xlink:href="#DejaVuSans-44"/>
      <use xlink:href="#DejaVuSans-65" x="77.001953"/>
      <use xlink:href="#DejaVuSans-70" x="138.525391"/>
      <use xlink:href="#DejaVuSans-74" x="202.001953"/>
      <use xlink:href="#DejaVuSans-68" x="241.210938"/>
      <use xlink:href="#DejaVuSans-20" x="304.589844"/>
      <use xlink:href="#DejaVuSans-6f" x="336.376953"/>
      <use xlink:href="#DejaVuSans-66" x="397.558594"/>
      <use xlink:href="#DejaVuSans-20" x="432.763672"/>
      <use xlink:href="#DejaVuSans-45" x="464.550781"/>
      <use xlink:href="#DejaVuSans-6c" x="527.734375"/>
      <use xlink:href="#DejaVuSans-65" x="555.517578"/>
      <use xlink:href="#DejaVuSans-6d" x="617.041016"/>
      <use xlink:href="#DejaVuSans-65" x="714.453125"/>
      <use xlink:href="#DejaVuSans-6e" x="775.976562"/>
      <use xlink:href="#DejaVuSans-74" x="839.355469"/>
     </g>
    </g>
   </g>
   <g id="matplotlib.axis_2">
    <g id="ytick_1">
     <g id="line2d_9">
      <defs>
       <path id="m96903ac547" d="M 0 0 
L -3.5 0 
" style="stroke: #000000; stroke-width: 0.8"/>
      </defs>
      <g>
       <use xlink:href="#m96903ac547" x="57.6" y="295.488" style="stroke: #000000; stroke-width: 0.8"/>
      </g>
     </g>
     <g id="text_10">
      <!-- $\mathdefault{10^{0}}$ -->
      <g transform="translate(33 299.287219) scale(0.1 -0.1)">
       <use xlink:href="#DejaVuSans-31" transform="translate(0 0.765625)"/>
       <use xlink:href="#DejaVuSans-30" transform="translate(63.623047 0.765625)"/>
       <use xlink:href="#DejaVuSans-30" transform="translate(128.203125 39.046875) scale(0.7)"/>
      </g>
     </g>
    </g>
    <g id="ytick_2">
     <g id="line2d_10">
      <g>
       <use xlink:href="#m96903ac547" x="57.6" y="235.779621" style="stroke: #000000; stroke-width: 0.8"/>
      </g>
     </g>
     <g id="text_11">
      <!-- $\mathdefault{10^{1}}$ -->
      <g transform="translate(33 239.57884) scale(0.1 -0.1)">
       <use xlink:href="#DejaVuSans-31" transform="translate(0 0.684375)"/>
       <use xlink:href="#DejaVuSans-30" transform="translate(63.623047 0.684375)"/>
       <use xlink:href="#DejaVuSans-31" transform="translate(128.203125 38.965625) scale(0.7)"/>
      </g>
     </g>
    </g>
    <g id="ytick_3">
     <g id="line2d_11">
      <g>
       <use xlink:href="#m96903ac547" x="57.6" y="176.071242" style="stroke: #000000; stroke-width: 0.8"/>
      </g>
     </g>
     <g id="text_12">
      <!-- $\mathdefault{10^{2}}$ -->
      <g transform="translate(33 179.870461) scale(0.1 -0.1)">
       <use xlink:href="#DejaVuSans-31" transform="translate(0 0.765625)"/>
       <use xlink:href="#DejaVuSans-30" transform="translate(63.623047 0.765625)"/>
       <use xlink:href="#DejaVuSans-32" transform="translate(128.203125 39.046875) scale(0.7)"/>
      </g>
     </g>
    </g>
    <g id="ytick_4">
     <g id="line2d_12">
      <g>
       <use xlink:href="#m96903ac547" x="57.6" y="116.362863" style="stroke: #000000; stroke-width: 0.8"/>
      </g>
     </g>
     <g id="text_13">
      <!-- $\mathdefault{10^{3}}$ -->
      <g transform="translate(33 120.162082) scale(0.1 -0.1)">
       <defs>
        <path id="DejaVuSans-33" d="M 2597 2516 
Q 3050 2419 3304 2112 
Q 3559 1806 3559 1356 
Q 3559 666 3084 287 
Q 2609 -91 1734 -91 
Q 1441 -91 1130 -33 
Q 819 25 488 141 
L 488 750 
Q 750 597 1062 519 
Q 1375 441 1716 441 
Q 2309 441 2620 675 
Q 2931 909 2931 1356 
Q 2931 1769 2642 2001 
Q 2353 2234 1838 2234 
L 1294 2234 
L 1294 2753 
L 1863 2753 
Q 2328 2753 2575 2939 
Q 2822 3125 2822 3475 
Q 2822 3834 2567 4026 
Q 2313 4219 1838 4219 
Q 1578 4219 1281 4162 
Q 984 4106 628 3988 
L 628 4550 
Q 988 4650 1302 4700 
Q 1616 4750 1894 4750 
Q 2613 4750 3031 4423 
Q 3450 4097 3450 3541 
Q 3450 3153 3228 2886 
Q 3006 2619 2597 2516 
z
" transform="scale(0.015625)"/>
       </defs>
       <use xlink:href="#DejaVuSans-31" transform="translate(0 0.765625)"/>
       <use xlink:href="#DejaVuSans-30" transform="translate(63.623047 0.765625)"/>
       <use xlink:href="#DejaVuSans-33" transform="translate(128.203125 39.046875) scale(0.7)"/>
      </g>
     </g>
    </g>
    <g id="ytick_5">
     <g id="line2d_13">
      <g>
       <use xlink:href="#m96903ac547" x="57.6" y="56.654484" style="stroke: #000000; stroke-width: 0.8"/>
      </g>
     </g>
     <g id="text_14">
      <!-- $\mathdefault{10^{4}}$ -->
      <g transform="translate(33 60.453703) scale(0.1 -0.1)">
       <defs>
        <path id="DejaVuSans-34" d="M 2419 4116 
L 825 1625 
L 2419 1625 
L 2419 4116 
z
M 2253 4666 
L 3047 4666 
L 3047 1625 
L 3713 1625 
L 3713 1100 
L 3047 1100 
L 3047 0 
L 2419 0 
L 2419 1100 
L 313 1100 
L 313 1709 
L 2253 4666 
z
" transform="scale(0.015625)"/>
       </defs>
       <use xlink:href="#DejaVuSans-31" transform="translate(0 0.684375)"/>
       <use xlink:href="#DejaVuSans-30" transform="translate(63.623047 0.684375)"/>
       <use xlink:href="#DejaVuSans-34" transform="translate(128.203125 38.965625) scale(0.7)"/>
      </g>
     </g>
    </g>
    <g id="ytick_6">
     <g id="line2d_14">
      <defs>
       <path id="m9be9c1a36b" d="M 0 0 
L -2 0 
" style="stroke: #000000; stroke-width: 0.6"/>
      </defs>
      <g>
       <use xlink:href="#m9be9c1a36b" x="57.6" y="304.736945" style="stroke: #000000; stroke-width: 0.6"/>
      </g>
     </g>
    </g>
    <g id="ytick_7">
     <g id="line2d_15">
      <g>
       <use xlink:href="#m9be9c1a36b" x="57.6" y="301.27434" style="stroke: #000000; stroke-width: 0.6"/>
      </g>
     </g>
    </g>
    <g id="ytick_8">
     <g id="line2d_16">
      <g>
       <use xlink:href="#m9be9c1a36b" x="57.6" y="298.220106" style="stroke: #000000; stroke-width: 0.6"/>
      </g>
     </g>
    </g>
    <g id="ytick_9">
     <g id="line2d_17">
      <g>
       <use xlink:href="#m9be9c1a36b" x="57.6" y="277.513987" style="stroke: #000000; stroke-width: 0.6"/>
      </g>
     </g>
    </g>
    <g id="ytick_10">
     <g id="line2d_18">
      <g>
       <use xlink:href="#m9be9c1a36b" x="57.6" y="266.999863" style="stroke: #000000; stroke-width: 0.6"/>
      </g>
     </g>
    </g>
    <g id="ytick_11">
     <g id="line2d_19">
      <g>
       <use xlink:href="#m9be9c1a36b" x="57.6" y="259.539974" style="stroke: #000000; stroke-width: 0.6"/>
      </g>
     </g>
    </g>
    <g id="ytick_12">
     <g id="line2d_20">
      <g>
       <use xlink:href="#m9be9c1a36b" x="57.6" y="253.753634" style="stroke: #000000; stroke-width: 0.6"/>
      </g>
     </g>
    </g>
    <g id="ytick_13">
     <g id="line2d_21">
      <g>
       <use xlink:href="#m9be9c1a36b" x="57.6" y="249.02585" style="stroke: #000000; stroke-width: 0.6"/>
      </g>
     </g>
    </g>
    <g id="ytick_14">
     <g id="line2d_22">
      <g>
       <use xlink:href="#m9be9c1a36b" x="57.6" y="245.028566" style="stroke: #000000; stroke-width: 0.6"/>
      </g>
     </g>
    </g>
    <g id="ytick_15">
     <g id="line2d_23">
      <g>
       <use xlink:href="#m9be9c1a36b" x="57.6" y="241.565961" style="stroke: #000000; stroke-width: 0.6"/>
      </g>
     </g>
    </g>
    <g id="ytick_16">
     <g id="line2d_24">
      <g>
       <use xlink:href="#m9be9c1a36b" x="57.6" y="238.511727" style="stroke: #000000; stroke-width: 0.6"/>
      </g>
     </g>
    </g>
    <g id="ytick_17">
     <g id="line2d_25">
      <g>
       <use xlink:href="#m9be9c1a36b" x="57.6" y="217.805608" style="stroke: #000000; stroke-width: 0.6"/>
      </g>
     </g>
    </g>
    <g id="ytick_18">
     <g id="line2d_26">
      <g>
       <use xlink:href="#m9be9c1a36b" x="57.6" y="207.291484" style="stroke: #000000; stroke-width: 0.6"/>
      </g>
     </g>
    </g>
    <g id="ytick_19">
     <g id="line2d_27">
      <g>
       <use xlink:href="#m9be9c1a36b" x="57.6" y="199.831595" style="stroke: #000000; stroke-width: 0.6"/>
      </g>
     </g>
    </g>
    <g id="ytick_20">
     <g id="line2d_28">
      <g>
       <use xlink:href="#m9be9c1a36b" x="57.6" y="194.045255" style="stroke: #000000; stroke-width: 0.6"/>
      </g>
     </g>
    </g>
    <g id="ytick_21">
     <g id="line2d_29">
      <g>
       <use xlink:href="#m9be9c1a36b" x="57.6" y="189.317471" style="stroke: #000000; stroke-width: 0.6"/>
      </g>
     </g>
    </g>
    <g id="ytick_22">
     <g id="line2d_30">
      <g>
       <use xlink:href="#m9be9c1a36b" x="57.6" y="185.320187" style="stroke: #000000; stroke-width: 0.6"/>
      </g>
     </g>
    </g>
    <g id="ytick_23">
     <g id="line2d_31">
      <g>
       <use xlink:href="#m9be9c1a36b" x="57.6" y="181.857582" style="stroke: #000000; stroke-width: 0.6"/>
      </g>
     </g>
    </g>
    <g id="ytick_24">
     <g id="line2d_32">
      <g>
       <use xlink:href="#m9be9c1a36b" x="57.6" y="178.803348" style="stroke: #000000; stroke-width: 0.6"/>
      </g>
     </g>
    </g>
    <g id="ytick_25">
     <g id="line2d_33">
      <g>
       <use xlink:href="#m9be9c1a36b" x="57.6" y="158.097229" style="stroke: #000000; stroke-width: 0.6"/>
      </g>
     </g>
    </g>
    <g id="ytick_26">
     <g id="line2d_34">
      <g>
       <use xlink:href="#m9be9c1a36b" x="57.6" y="147.583105" style="stroke: #000000; stroke-width: 0.6"/>
      </g>
     </g>
    </g>
    <g id="ytick_27">
     <g id="line2d_35">
      <g>
       <use xlink:href="#m9be9c1a36b" x="57.6" y="140.123216" style="stroke: #000000; stroke-width: 0.6"/>
      </g>
     </g>
    </g>
    <g id="ytick_28">
     <g id="line2d_36">
      <g>
       <use xlink:href="#m9be9c1a36b" x="57.6" y="134.336876" style="stroke: #000000; stroke-width: 0.6"/>
      </g>
     </g>
    </g>
    <g id="ytick_29">
     <g id="line2d_37">
      <g>
       <use xlink:href="#m9be9c1a36b" x="57.6" y="129.609092" style="stroke: #000000; stroke-width: 0.6"/>
      </g>
     </g>
    </g>
    <g id="ytick_30">
     <g id="line2d_38">
      <g>
       <use xlink:href="#m9be9c1a36b" x="57.6" y="125.611808" style="stroke: #000000; stroke-width: 0.6"/>
      </g>
     </g>
    </g>
    <g id="ytick_31">
     <g id="line2d_39">
      <g>
       <use xlink:href="#m9be9c1a36b" x="57.6" y="122.149203" style="stroke: #000000; stroke-width: 0.6"/>
      </g>
     </g>
    </g>
    <g id="ytick_32">
     <g id="line2d_40">
      <g>
       <use xlink:href="#m9be9c1a36b" x="57.6" y="119.094968" style="stroke: #000000; stroke-width: 0.6"/>
      </g>
     </g>
    </g>
    <g id="ytick_33">
     <g id="line2d_41">
      <g>
       <use xlink:href="#m9be9c1a36b" x="57.6" y="98.38885" style="stroke: #000000; stroke-width: 0.6"/>
      </g>
     </g>
    </g>
    <g id="ytick_34">
     <g id="line2d_42">
      <g>
       <use xlink:href="#m9be9c1a36b" x="57.6" y="87.874726" style="stroke: #000000; stroke-width: 0.6"/>
      </g>
     </g>
    </g>
    <g id="ytick_35">
     <g id="line2d_43">
      <g>
       <use xlink:href="#m9be9c1a36b" x="57.6" y="80.414837" style="stroke: #000000; stroke-width: 0.6"/>
      </g>
     </g>
    </g>
    <g id="ytick_36">
     <g id="line2d_44">
      <g>
       <use xlink:href="#m9be9c1a36b" x="57.6" y="74.628497" style="stroke: #000000; stroke-width: 0.6"/>
      </g>
     </g>
    </g>
    <g id="ytick_37">
     <g id="line2d_45">
      <g>
       <use xlink:href="#m9be9c1a36b" x="57.6" y="69.900713" style="stroke: #000000; stroke-width: 0.6"/>
      </g>
     </g>
    </g>
    <g id="ytick_38">
     <g id="line2d_46">
      <g>
       <use xlink:href="#m9be9c1a36b" x="57.6" y="65.903429" style="stroke: #000000; stroke-width: 0.6"/>
      </g>
     </g>
    </g>
    <g id="ytick_39">
     <g id="line2d_47">
      <g>
       <use xlink:href="#m9be9c1a36b" x="57.6" y="62.440824" style="stroke: #000000; stroke-width: 0.6"/>
      </g>
     </g>
    </g>
    <g id="ytick_40">
     <g id="line2d_48">
      <g>
       <use xlink:href="#m9be9c1a36b" x="57.6" y="59.386589" style="stroke: #000000; stroke-width: 0.6"/>
      </g>
     </g>
    </g>
    <g id="text_15">
     <!-- Number of Elements -->
     <g transform="translate(26.920312 225.917062) rotate(-90) scale(0.1 -0.1)">
      <defs>
       <path id="DejaVuSans-4e" d="M 628 4666 
L 1478 4666 
L 3547 763 
L 3547 4666 
L 4159 4666 
L 4159 0 
L 3309 0 
L 1241 3903 
L 1241 0 
L 628 0 
L 628 4666 
z
" transform="scale(0.015625)"/>
       <path id="DejaVuSans-75" d="M 544 1381 
L 544 3500 
L 1119 3500 
L 1119 1403 
Q 1119 906 1312 657 
Q 1506 409 1894 409 
Q 2359 409 2629 706 
Q 2900 1003 2900 1516 
L 2900 3500 
L 3475 3500 
L 3475 0 
L 2900 0 
L 2900 538 
Q 2691 219 2414 64 
Q 2138 -91 1772 -91 
Q 1169 -91 856 284 
Q 544 659 544 1381 
z
M 1991 3584 
L 1991 3584 
z
" transform="scale(0.015625)"/>
       <path id="DejaVuSans-62" d="M 3116 1747 
Q 3116 2381 2855 2742 
Q 2594 3103 2138 3103 
Q 1681 3103 1420 2742 
Q 1159 2381 1159 1747 
Q 1159 1113 1420 752 
Q 1681 391 2138 391 
Q 2594 391 2855 752 
Q 3116 1113 3116 1747 
z
M 1159 2969 
Q 1341 3281 1617 3432 
Q 1894 3584 2278 3584 
Q 2916 3584 3314 3078 
Q 3713 2572 3713 1747 
Q 3713 922 3314 415 
Q 2916 -91 2278 -91 
Q 1894 -91 1617 61 
Q 1341 213 1159 525 
L 1159 0 
L 581 0 
L 581 4863 
L 1159 4863 
L 1159 2969 
z
" transform="scale(0.015625)"/>
       <path id="DejaVuSans-72" d="M 2631 2963 
Q 2534 3019 2420 3045 
Q 2306 3072 2169 3072 
Q 1681 3072 1420 2755 
Q 1159 2438 1159 1844 
L 1159 0 
L 581 0 
L 581 3500 
L 1159 3500 
L 1159 2956 
Q 1341 3275 1631 3429 
Q 1922 3584 2338 3584 
Q 2397 3584 2469 3576 
Q 2541 3569 2628 3553 
L 2631 2963 
z
" transform="scale(0.015625)"/>
       <path id="DejaVuSans-73" d="M 2834 3397 
L 2834 2853 
Q 2591 2978 2328 3040 
Q 2066 3103 1784 3103 
Q 1356 3103 1142 2972 
Q 928 2841 928 2578 
Q 928 2378 1081 2264 
Q 1234 2150 1697 2047 
L 1894 2003 
Q 2506 1872 2764 1633 
Q 3022 1394 3022 966 
Q 3022 478 2636 193 
Q 2250 -91 1575 -91 
Q 1294 -91 989 -36 
Q 684 19 347 128 
L 347 722 
Q 666 556 975 473 
Q 1284 391 1588 391 
Q 1994 391 2212 530 
Q 2431 669 2431 922 
Q 2431 1156 2273 1281 
Q 2116 1406 1581 1522 
L 1381 1569 
Q 847 1681 609 1914 
Q 372 2147 372 2553 
Q 372 3047 722 3315 
Q 1072 3584 1716 3584 
Q 2034 3584 2315 3537 
Q 2597 3491 2834 3397 
z
" transform="scale(0.015625)"/>
      </defs>
      <use xlink:href="#DejaVuSans-4e"/>
      <use xlink:href="#DejaVuSans-75" x="74.804688"/>
      <use xlink:href="#DejaVuSans-6d" x="138.183594"/>
      <use xlink:href="#DejaVuSans-62" x="235.595703"/>
      <use xlink:href="#DejaVuSans-65" x="299.072266"/>
      <use xlink:href="#DejaVuSans-72" x="360.595703"/>
      <use xlink:href="#DejaVuSans-20" x="401.708984"/>
      <use xlink:href="#DejaVuSans-6f" x="433.496094"/>
      <use xlink:href="#DejaVuSans-66" x="494.677734"/>
      <use xlink:href="#DejaVuSans-20" x="529.882812"/>
      <use xlink:href="#DejaVuSans-45" x="561.669922"/>
      <use xlink:href="#DejaVuSans-6c" x="624.853516"/>
      <use xlink:href="#DejaVuSans-65" x="652.636719"/>
      <use xlink:href="#DejaVuSans-6d" x="714.160156"/>
      <use xlink:href="#DejaVuSans-65" x="811.572266"/>
      <use xlink:href="#DejaVuSans-6e" x="873.095703"/>
      <use xlink:href="#DejaVuSans-74" x="936.474609"/>
      <use xlink:href="#DejaVuSans-73" x="975.683594"/>
     </g>
    </g>
   </g>
   <g id="patch_128">
    <path d="M 57.6 307.584 
L 57.6 41.472 
" style="fill: none; stroke: #000000; stroke-width: 0.8; stroke-linejoin: miter; stroke-linecap: square"/>
   </g>
   <g id="patch_129">
    <path d="M 414.72 307.584 
L 414.72 41.472 
" style="fill: none; stroke: #000000; stroke-width: 0.8; stroke-linejoin: miter; stroke-linecap: square"/>
   </g>
   <g id="patch_130">
    <path d="M 57.6 307.584 
L 414.72 307.584 
" style="fill: none; stroke: #000000; stroke-width: 0.8; stroke-linejoin: miter; stroke-linecap: square"/>
   </g>
   <g id="patch_131">
    <path d="M 57.6 41.472 
L 414.72 41.472 
" style="fill: none; stroke: #000000; stroke-width: 0.8; stroke-linejoin: miter; stroke-linecap: square"/>
   </g>
  </g>
 </g>
 <defs>
  <clipPath id="pc480eaf796">
   <rect x="57.6" y="41.472" width="357.12" height="266.112"/>
  </clipPath>
 </defs>
</svg>
