<?xml version="1.0" encoding="utf-8" standalone="no"?>
<!DOCTYPE svg PUBLIC "-//W3C//DTD SVG 1.1//EN"
  "http://www.w3.org/Graphics/SVG/1.1/DTD/svg11.dtd">
<svg xmlns:xlink="http://www.w3.org/1999/xlink" width="460.8pt" height="345.6pt" viewBox="0 0 460.8 345.6" xmlns="http://www.w3.org/2000/svg" version="1.1">
 <metadata>
  <rdf:RDF xmlns:dc="http://purl.org/dc/elements/1.1/" xmlns:cc="http://creativecommons.org/ns#" xmlns:rdf="http://www.w3.org/1999/02/22-rdf-syntax-ns#">
   <cc:Work>
    <dc:type rdf:resource="http://purl.org/dc/dcmitype/StillImage"/>
    <dc:date>2024-03-05T23:39:58.645185</dc:date>
    <dc:format>image/svg+xml</dc:format>
    <dc:creator>
     <cc:Agent>
      <dc:title>Matplotlib v3.8.3, https://matplotlib.org/</dc:title>
     </cc:Agent>
    </dc:creator>
   </cc:Work>
  </rdf:RDF>
 </metadata>
 <defs>
  <style type="text/css">*{stroke-linejoin: round; stroke-linecap: butt}</style>
 </defs>
 <g id="figure_1">
  <g id="patch_1">
   <path d="M 0 345.6 
L 460.8 345.6 
L 460.8 0 
L 0 0 
z
" style="fill: #ffffff"/>
  </g>
  <g id="axes_1">
   <g id="patch_2">
    <path d="M 57.6 307.584 
L 414.72 307.584 
L 414.72 41.472 
L 57.6 41.472 
z
" style="fill: #ffffff"/>
   </g>
   <g id="patch_3">
    <path d="M 73.832727 59528.359341 
L 74.848066 59528.359341 
L 74.848066 259.826258 
L 73.832727 259.826258 
z
" clip-path="url(#p76afc6f1e0)" style="fill: #1f77b4"/>
   </g>
   <g id="patch_4">
    <path d="M 75.101901 59528.359341 
L 76.117239 59528.359341 
L 76.117239 236.255129 
L 75.101901 236.255129 
z
" clip-path="url(#p76afc6f1e0)" style="fill: #1f77b4"/>
   </g>
   <g id="patch_5">
    <path d="M 77.640247 59528.359341 
L 78.655586 59528.359341 
L 78.655586 194.853128 
L 77.640247 194.853128 
z
" clip-path="url(#p76afc6f1e0)" style="fill: #1f77b4"/>
   </g>
   <g id="patch_6">
    <path d="M 78.909421 59528.359341 
L 79.924759 59528.359341 
L 79.924759 171.906917 
L 78.909421 171.906917 
z
" clip-path="url(#p76afc6f1e0)" style="fill: #1f77b4"/>
   </g>
   <g id="patch_7">
    <path d="M 82.716941 59528.359341 
L 83.732279 59528.359341 
L 83.732279 115.525349 
L 82.716941 115.525349 
z
" clip-path="url(#p76afc6f1e0)" style="fill: #1f77b4"/>
   </g>
   <g id="patch_8">
    <path d="M 76.371074 59528.359341 
L 77.386413 59528.359341 
L 77.386413 219.743752 
L 76.371074 219.743752 
z
" clip-path="url(#p76afc6f1e0)" style="fill: #1f77b4"/>
   </g>
   <g id="patch_9">
    <path d="M 80.178594 59528.359341 
L 81.193933 59528.359341 
L 81.193933 154.076046 
L 80.178594 154.076046 
z
" clip-path="url(#p76afc6f1e0)" style="fill: #1f77b4"/>
   </g>
   <g id="patch_10">
    <path d="M 83.986114 59528.359341 
L 85.001453 59528.359341 
L 85.001453 100.570257 
L 83.986114 100.570257 
z
" clip-path="url(#p76afc6f1e0)" style="fill: #1f77b4"/>
   </g>
   <g id="patch_11">
    <path d="M 81.447767 59528.359341 
L 82.463106 59528.359341 
L 82.463106 135.930818 
L 81.447767 135.930818 
z
" clip-path="url(#p76afc6f1e0)" style="fill: #1f77b4"/>
   </g>
   <g id="patch_12">
    <path d="M 86.524461 59528.359341 
L 87.5398 59528.359341 
L 87.5398 76.542198 
L 86.524461 76.542198 
z
" clip-path="url(#p76afc6f1e0)" style="fill: #1f77b4"/>
   </g>
   <g id="patch_13">
    <path d="M 85.255288 59528.359341 
L 86.270626 59528.359341 
L 86.270626 87.980694 
L 85.255288 87.980694 
z
" clip-path="url(#p76afc6f1e0)" style="fill: #1f77b4"/>
   </g>
   <g id="patch_14">
    <path d="M 89.062808 59528.359341 
L 90.078146 59528.359341 
L 90.078146 57.9188 
L 89.062808 57.9188 
z
" clip-path="url(#p76afc6f1e0)" style="fill: #1f77b4"/>
   </g>
   <g id="patch_15">
    <path d="M 87.793634 59528.359341 
L 88.808973 59528.359341 
L 88.808973 65.701027 
L 87.793634 65.701027 
z
" clip-path="url(#p76afc6f1e0)" style="fill: #1f77b4"/>
   </g>
   <g id="patch_16">
    <path d="M 94.139501 59528.359341 
L 95.15484 59528.359341 
L 95.15484 64.597572 
L 94.139501 64.597572 
z
" clip-path="url(#p76afc6f1e0)" style="fill: #1f77b4"/>
   </g>
   <g id="patch_17">
    <path d="M 90.331981 59528.359341 
L 91.34732 59528.359341 
L 91.34732 53.568 
L 90.331981 53.568 
z
" clip-path="url(#p76afc6f1e0)" style="fill: #1f77b4"/>
   </g>
   <g id="patch_18">
    <path d="M 96.677848 59528.359341 
L 97.693186 59528.359341 
L 97.693186 100.504483 
L 96.677848 100.504483 
z
" clip-path="url(#p76afc6f1e0)" style="fill: #1f77b4"/>
   </g>
   <g id="patch_19">
    <path d="M 92.870328 59528.359341 
L 93.885666 59528.359341 
L 93.885666 57.215806 
L 92.870328 57.215806 
z
" clip-path="url(#p76afc6f1e0)" style="fill: #1f77b4"/>
   </g>
   <g id="patch_20">
    <path d="M 97.947021 59528.359341 
L 98.96236 59528.359341 
L 98.96236 132.02495 
L 97.947021 132.02495 
z
" clip-path="url(#p76afc6f1e0)" style="fill: #1f77b4"/>
   </g>
   <g id="patch_21">
    <path d="M 100.485368 59528.359341 
L 101.500707 59528.359341 
L 101.500707 171.281999 
L 100.485368 171.281999 
z
" clip-path="url(#p76afc6f1e0)" style="fill: #1f77b4"/>
   </g>
   <g id="patch_22">
    <path d="M 91.601154 59528.359341 
L 92.616493 59528.359341 
L 92.616493 54.344559 
L 91.601154 54.344559 
z
" clip-path="url(#p76afc6f1e0)" style="fill: #1f77b4"/>
   </g>
   <g id="patch_23">
    <path d="M 95.408674 59528.359341 
L 96.424013 59528.359341 
L 96.424013 78.740088 
L 95.408674 78.740088 
z
" clip-path="url(#p76afc6f1e0)" style="fill: #1f77b4"/>
   </g>
   <g id="patch_24">
    <path d="M 109.369581 59528.359341 
L 110.38492 59528.359341 
L 110.38492 185.118037 
L 109.369581 185.118037 
z
" clip-path="url(#p76afc6f1e0)" style="fill: #1f77b4"/>
   </g>
   <g id="patch_25">
    <path d="M 99.216194 59528.359341 
L 100.231533 59528.359341 
L 100.231533 158.059074 
L 99.216194 158.059074 
z
" clip-path="url(#p76afc6f1e0)" style="fill: #1f77b4"/>
   </g>
   <g id="patch_26">
    <path d="M 108.100408 59528.359341 
L 109.115747 59528.359341 
L 109.115747 183.745738 
L 108.100408 183.745738 
z
" clip-path="url(#p76afc6f1e0)" style="fill: #1f77b4"/>
   </g>
   <g id="patch_27">
    <path d="M 101.754541 59528.359341 
L 102.76988 59528.359341 
L 102.76988 172.76448 
L 101.754541 172.76448 
z
" clip-path="url(#p76afc6f1e0)" style="fill: #1f77b4"/>
   </g>
   <g id="patch_28">
    <path d="M 103.023715 59528.359341 
L 104.039053 59528.359341 
L 104.039053 174.337647 
L 103.023715 174.337647 
z
" clip-path="url(#p76afc6f1e0)" style="fill: #1f77b4"/>
   </g>
   <g id="patch_29">
    <path d="M 104.292888 59528.359341 
L 105.308227 59528.359341 
L 105.308227 180.902102 
L 104.292888 180.902102 
z
" clip-path="url(#p76afc6f1e0)" style="fill: #1f77b4"/>
   </g>
   <g id="patch_30">
    <path d="M 106.831235 59528.359341 
L 107.846573 59528.359341 
L 107.846573 181.507413 
L 106.831235 181.507413 
z
" clip-path="url(#p76afc6f1e0)" style="fill: #1f77b4"/>
   </g>
   <g id="patch_31">
    <path d="M 119.522968 59528.359341 
L 120.538307 59528.359341 
L 120.538307 194.343715 
L 119.522968 194.343715 
z
" clip-path="url(#p76afc6f1e0)" style="fill: #1f77b4"/>
   </g>
   <g id="patch_32">
    <path d="M 110.638755 59528.359341 
L 111.654093 59528.359341 
L 111.654093 189.737788 
L 110.638755 189.737788 
z
" clip-path="url(#p76afc6f1e0)" style="fill: #1f77b4"/>
   </g>
   <g id="patch_33">
    <path d="M 111.907928 59528.359341 
L 112.923267 59528.359341 
L 112.923267 189.319494 
L 111.907928 189.319494 
z
" clip-path="url(#p76afc6f1e0)" style="fill: #1f77b4"/>
   </g>
   <g id="patch_34">
    <path d="M 115.715448 59528.359341 
L 116.730787 59528.359341 
L 116.730787 187.711188 
L 115.715448 187.711188 
z
" clip-path="url(#p76afc6f1e0)" style="fill: #1f77b4"/>
   </g>
   <g id="patch_35">
    <path d="M 120.792142 59528.359341 
L 121.80748 59528.359341 
L 121.80748 193.354189 
L 120.792142 193.354189 
z
" clip-path="url(#p76afc6f1e0)" style="fill: #1f77b4"/>
   </g>
   <g id="patch_36">
    <path d="M 105.562061 59528.359341 
L 106.5774 59528.359341 
L 106.5774 178.613972 
L 105.562061 178.613972 
z
" clip-path="url(#p76afc6f1e0)" style="fill: #1f77b4"/>
   </g>
   <g id="patch_37">
    <path d="M 125.868835 59528.359341 
L 126.884174 59528.359341 
L 126.884174 194.343715 
L 125.868835 194.343715 
z
" clip-path="url(#p76afc6f1e0)" style="fill: #1f77b4"/>
   </g>
   <g id="patch_38">
    <path d="M 130.945528 59528.359341 
L 131.960867 59528.359341 
L 131.960867 201.912881 
L 130.945528 201.912881 
z
" clip-path="url(#p76afc6f1e0)" style="fill: #1f77b4"/>
   </g>
   <g id="patch_39">
    <path d="M 113.177101 59528.359341 
L 114.19244 59528.359341 
L 114.19244 188.907893 
L 113.177101 188.907893 
z
" clip-path="url(#p76afc6f1e0)" style="fill: #1f77b4"/>
   </g>
   <g id="patch_40">
    <path d="M 118.253795 59528.359341 
L 119.269134 59528.359341 
L 119.269134 195.903254 
L 118.253795 195.903254 
z
" clip-path="url(#p76afc6f1e0)" style="fill: #1f77b4"/>
   </g>
   <g id="patch_41">
    <path d="M 133.483875 59528.359341 
L 134.499214 59528.359341 
L 134.499214 204.774106 
L 133.483875 204.774106 
z
" clip-path="url(#p76afc6f1e0)" style="fill: #1f77b4"/>
   </g>
   <g id="patch_42">
    <path d="M 124.599662 59528.359341 
L 125.615 59528.359341 
L 125.615 199.338284 
L 124.599662 199.338284 
z
" clip-path="url(#p76afc6f1e0)" style="fill: #1f77b4"/>
   </g>
   <g id="patch_43">
    <path d="M 129.676355 59528.359341 
L 130.691694 59528.359341 
L 130.691694 197.563476 
L 129.676355 197.563476 
z
" clip-path="url(#p76afc6f1e0)" style="fill: #1f77b4"/>
   </g>
   <g id="patch_44">
    <path d="M 114.446275 59528.359341 
L 115.461613 59528.359341 
L 115.461613 185.472863 
L 114.446275 185.472863 
z
" clip-path="url(#p76afc6f1e0)" style="fill: #1f77b4"/>
   </g>
   <g id="patch_45">
    <path d="M 158.867342 59528.359341 
L 159.882681 59528.359341 
L 159.882681 227.599546 
L 158.867342 227.599546 
z
" clip-path="url(#p76afc6f1e0)" style="fill: #1f77b4"/>
   </g>
   <g id="patch_46">
    <path d="M 149.983129 59528.359341 
L 150.998468 59528.359341 
L 150.998468 205.542059 
L 149.983129 205.542059 
z
" clip-path="url(#p76afc6f1e0)" style="fill: #1f77b4"/>
   </g>
   <g id="patch_47">
    <path d="M 137.291395 59528.359341 
L 138.306734 59528.359341 
L 138.306734 209.768675 
L 137.291395 209.768675 
z
" clip-path="url(#p76afc6f1e0)" style="fill: #1f77b4"/>
   </g>
   <g id="patch_48">
    <path d="M 134.753049 59528.359341 
L 135.768387 59528.359341 
L 135.768387 203.303734 
L 134.753049 203.303734 
z
" clip-path="url(#p76afc6f1e0)" style="fill: #1f77b4"/>
   </g>
   <g id="patch_49">
    <path d="M 122.061315 59528.359341 
L 123.076654 59528.359341 
L 123.076654 201.244675 
L 122.061315 201.244675 
z
" clip-path="url(#p76afc6f1e0)" style="fill: #1f77b4"/>
   </g>
   <g id="patch_50">
    <path d="M 151.252302 59528.359341 
L 152.267641 59528.359341 
L 152.267641 210.704214 
L 151.252302 210.704214 
z
" clip-path="url(#p76afc6f1e0)" style="fill: #1f77b4"/>
   </g>
   <g id="patch_51">
    <path d="M 128.407182 59528.359341 
L 129.42252 59528.359341 
L 129.42252 210.704214 
L 128.407182 210.704214 
z
" clip-path="url(#p76afc6f1e0)" style="fill: #1f77b4"/>
   </g>
   <g id="patch_52">
    <path d="M 143.637262 59528.359341 
L 144.652601 59528.359341 
L 144.652601 212.683999 
L 143.637262 212.683999 
z
" clip-path="url(#p76afc6f1e0)" style="fill: #1f77b4"/>
   </g>
   <g id="patch_53">
    <path d="M 127.138008 59528.359341 
L 128.153347 59528.359341 
L 128.153347 201.912881 
L 127.138008 201.912881 
z
" clip-path="url(#p76afc6f1e0)" style="fill: #1f77b4"/>
   </g>
   <g id="patch_54">
    <path d="M 147.444782 59528.359341 
L 148.460121 59528.359341 
L 148.460121 227.599546 
L 147.444782 227.599546 
z
" clip-path="url(#p76afc6f1e0)" style="fill: #1f77b4"/>
   </g>
   <g id="patch_55">
    <path d="M 171.559076 59528.359341 
L 172.574415 59528.359341 
L 172.574415 249.395867 
L 171.559076 249.395867 
z
" clip-path="url(#p76afc6f1e0)" style="fill: #1f77b4"/>
   </g>
   <g id="patch_56">
    <path d="M 144.906435 59528.359341 
L 145.921774 59528.359341 
L 145.921774 219.743752 
L 144.906435 219.743752 
z
" clip-path="url(#p76afc6f1e0)" style="fill: #1f77b4"/>
   </g>
   <g id="patch_57">
    <path d="M 116.984622 59528.359341 
L 117.99996 59528.359341 
L 117.99996 199.338284 
L 116.984622 199.338284 
z
" clip-path="url(#p76afc6f1e0)" style="fill: #1f77b4"/>
   </g>
   <g id="patch_58">
    <path d="M 123.330488 59528.359341 
L 124.345827 59528.359341 
L 124.345827 201.912881 
L 123.330488 201.912881 
z
" clip-path="url(#p76afc6f1e0)" style="fill: #1f77b4"/>
   </g>
   <g id="patch_59">
    <path d="M 132.214702 59528.359341 
L 133.230041 59528.359341 
L 133.230041 206.333645 
L 132.214702 206.333645 
z
" clip-path="url(#p76afc6f1e0)" style="fill: #1f77b4"/>
   </g>
   <g id="patch_60">
    <path d="M 142.368089 59528.359341 
L 143.383427 59528.359341 
L 143.383427 209.768675 
L 142.368089 209.768675 
z
" clip-path="url(#p76afc6f1e0)" style="fill: #1f77b4"/>
   </g>
   <g id="patch_61">
    <path d="M 152.521476 59528.359341 
L 153.536814 59528.359341 
L 153.536814 229.505937 
L 152.521476 229.505937 
z
" clip-path="url(#p76afc6f1e0)" style="fill: #1f77b4"/>
   </g>
   <g id="patch_62">
    <path d="M 136.022222 59528.359341 
L 137.037561 59528.359341 
L 137.037561 207.150365 
L 136.022222 207.150365 
z
" clip-path="url(#p76afc6f1e0)" style="fill: #1f77b4"/>
   </g>
   <g id="patch_63">
    <path d="M 141.098915 59528.359341 
L 142.114254 59528.359341 
L 142.114254 209.768675 
L 141.098915 209.768675 
z
" clip-path="url(#p76afc6f1e0)" style="fill: #1f77b4"/>
   </g>
   <g id="patch_64">
    <path d="M 155.059822 59528.359341 
L 156.075161 59528.359341 
L 156.075161 229.505937 
L 155.059822 229.505937 
z
" clip-path="url(#p76afc6f1e0)" style="fill: #1f77b4"/>
   </g>
   <g id="patch_65">
    <path d="M 161.405689 59528.359341 
L 162.421028 59528.359341 
L 162.421028 227.599546 
L 161.405689 227.599546 
z
" clip-path="url(#p76afc6f1e0)" style="fill: #1f77b4"/>
   </g>
   <g id="patch_66">
    <path d="M 138.560569 59528.359341 
L 139.575907 59528.359341 
L 139.575907 210.704214 
L 138.560569 210.704214 
z
" clip-path="url(#p76afc6f1e0)" style="fill: #1f77b4"/>
   </g>
   <g id="patch_67">
    <path d="M 139.829742 59528.359341 
L 140.845081 59528.359341 
L 140.845081 215.97245 
L 139.829742 215.97245 
z
" clip-path="url(#p76afc6f1e0)" style="fill: #1f77b4"/>
   </g>
   <g id="patch_68">
    <path d="M 157.598169 59528.359341 
L 158.613508 59528.359341 
L 158.613508 227.599546 
L 157.598169 227.599546 
z
" clip-path="url(#p76afc6f1e0)" style="fill: #1f77b4"/>
   </g>
   <g id="patch_69">
    <path d="M 146.175609 59528.359341 
L 147.190947 59528.359341 
L 147.190947 207.993867 
L 146.175609 207.993867 
z
" clip-path="url(#p76afc6f1e0)" style="fill: #1f77b4"/>
   </g>
   <g id="patch_70">
    <path d="M 181.712463 59528.359341 
L 182.727802 59528.359341 
L 182.727802 233.803321 
L 181.712463 233.803321 
z
" clip-path="url(#p76afc6f1e0)" style="fill: #1f77b4"/>
   </g>
   <g id="patch_71">
    <path d="M 160.136516 59528.359341 
L 161.151854 59528.359341 
L 161.151854 221.134605 
L 160.136516 221.134605 
z
" clip-path="url(#p76afc6f1e0)" style="fill: #1f77b4"/>
   </g>
   <g id="patch_72">
    <path d="M 153.790649 59528.359341 
L 154.805988 59528.359341 
L 154.805988 225.824738 
L 153.790649 225.824738 
z
" clip-path="url(#p76afc6f1e0)" style="fill: #1f77b4"/>
   </g>
   <g id="patch_73">
    <path d="M 174.097423 59528.359341 
L 175.112761 59528.359341 
L 175.112761 249.395867 
L 174.097423 249.395867 
z
" clip-path="url(#p76afc6f1e0)" style="fill: #1f77b4"/>
   </g>
   <g id="patch_74">
    <path d="M 180.44329 59528.359341 
L 181.458628 59528.359341 
L 181.458628 267.226738 
L 180.44329 267.226738 
z
" clip-path="url(#p76afc6f1e0)" style="fill: #1f77b4"/>
   </g>
   <g id="patch_75">
    <path d="M 156.328996 59528.359341 
L 157.344334 59528.359341 
L 157.344334 221.134605 
L 156.328996 221.134605 
z
" clip-path="url(#p76afc6f1e0)" style="fill: #1f77b4"/>
   </g>
   <g id="patch_76">
    <path d="M 175.366596 59528.359341 
L 176.381935 59528.359341 
L 176.381935 249.395867 
L 175.366596 249.395867 
z
" clip-path="url(#p76afc6f1e0)" style="fill: #1f77b4"/>
   </g>
   <g id="patch_77">
    <path d="M 167.751556 59528.359341 
L 168.766895 59528.359341 
L 168.766895 241.995387 
L 167.751556 241.995387 
z
" clip-path="url(#p76afc6f1e0)" style="fill: #1f77b4"/>
   </g>
   <g id="patch_78">
    <path d="M 148.713956 59528.359341 
L 149.729294 59528.359341 
L 149.729294 221.134605 
L 148.713956 221.134605 
z
" clip-path="url(#p76afc6f1e0)" style="fill: #1f77b4"/>
   </g>
   <g id="patch_79">
    <path d="M 165.213209 59528.359341 
L 166.228548 59528.359341 
L 166.228548 231.564996 
L 165.213209 231.564996 
z
" clip-path="url(#p76afc6f1e0)" style="fill: #1f77b4"/>
   </g>
   <g id="patch_80">
    <path d="M 202.019237 59528.359341 
L 203.034575 59528.359341 
L 203.034575 277.657129 
L 202.019237 277.657129 
z
" clip-path="url(#p76afc6f1e0)" style="fill: #1f77b4"/>
   </g>
   <g id="patch_81">
    <path d="M 185.519983 59528.359341 
L 186.535322 59528.359341 
L 186.535322 238.965476 
L 185.519983 238.965476 
z
" clip-path="url(#p76afc6f1e0)" style="fill: #1f77b4"/>
   </g>
   <g id="patch_82">
    <path d="M 166.482383 59528.359341 
L 167.497721 59528.359341 
L 167.497721 219.743752 
L 166.482383 219.743752 
z
" clip-path="url(#p76afc6f1e0)" style="fill: #1f77b4"/>
   </g>
   <g id="patch_83">
    <path d="M 189.327503 59528.359341 
L 190.342842 59528.359341 
L 190.342842 249.395867 
L 189.327503 249.395867 
z
" clip-path="url(#p76afc6f1e0)" style="fill: #1f77b4"/>
   </g>
   <g id="patch_84">
    <path d="M 213.441797 59528.359341 
L 214.457136 59528.359341 
L 214.457136 295.488 
L 213.441797 295.488 
z
" clip-path="url(#p76afc6f1e0)" style="fill: #1f77b4"/>
   </g>
   <g id="patch_85">
    <path d="M 162.674862 59528.359341 
L 163.690201 59528.359341 
L 163.690201 221.134605 
L 162.674862 221.134605 
z
" clip-path="url(#p76afc6f1e0)" style="fill: #1f77b4"/>
   </g>
   <g id="patch_86">
    <path d="M 184.25081 59528.359341 
L 185.266148 59528.359341 
L 185.266148 249.395867 
L 184.25081 249.395867 
z
" clip-path="url(#p76afc6f1e0)" style="fill: #1f77b4"/>
   </g>
   <g id="patch_87">
    <path d="M 169.020729 59528.359341 
L 170.036068 59528.359341 
L 170.036068 233.803321 
L 169.020729 233.803321 
z
" clip-path="url(#p76afc6f1e0)" style="fill: #1f77b4"/>
   </g>
   <g id="patch_88">
    <path d="M 170.289903 59528.359341 
L 171.305241 59528.359341 
L 171.305241 241.995387 
L 170.289903 241.995387 
z
" clip-path="url(#p76afc6f1e0)" style="fill: #1f77b4"/>
   </g>
   <g id="patch_89">
    <path d="M 195.67337 59528.359341 
L 196.688709 59528.359341 
L 196.688709 267.226738 
L 195.67337 267.226738 
z
" clip-path="url(#p76afc6f1e0)" style="fill: #1f77b4"/>
   </g>
   <g id="patch_90">
    <path d="M 172.828249 59528.359341 
L 173.843588 59528.359341 
L 173.843588 245.430417 
L 172.828249 245.430417 
z
" clip-path="url(#p76afc6f1e0)" style="fill: #1f77b4"/>
   </g>
   <g id="patch_91">
    <path d="M 193.135023 59528.359341 
L 194.150362 59528.359341 
L 194.150362 254.086 
L 193.135023 254.086 
z
" clip-path="url(#p76afc6f1e0)" style="fill: #1f77b4"/>
   </g>
   <g id="patch_92">
    <path d="M 176.635769 59528.359341 
L 177.651108 59528.359341 
L 177.651108 249.395867 
L 176.635769 249.395867 
z
" clip-path="url(#p76afc6f1e0)" style="fill: #1f77b4"/>
   </g>
   <g id="patch_93">
    <path d="M 177.904943 59528.359341 
L 178.920281 59528.359341 
L 178.920281 238.965476 
L 177.904943 238.965476 
z
" clip-path="url(#p76afc6f1e0)" style="fill: #1f77b4"/>
   </g>
   <g id="patch_94">
    <path d="M 214.71097 59528.359341 
L 215.726309 59528.359341 
L 215.726309 295.488 
L 214.71097 295.488 
z
" clip-path="url(#p76afc6f1e0)" style="fill: #1f77b4"/>
   </g>
   <g id="patch_95">
    <path d="M 208.365103 59528.359341 
L 209.380442 59528.359341 
L 209.380442 259.826258 
L 208.365103 259.826258 
z
" clip-path="url(#p76afc6f1e0)" style="fill: #1f77b4"/>
   </g>
   <g id="patch_96">
    <path d="M 179.174116 59528.359341 
L 180.189455 59528.359341 
L 180.189455 233.803321 
L 179.174116 233.803321 
z
" clip-path="url(#p76afc6f1e0)" style="fill: #1f77b4"/>
   </g>
   <g id="patch_97">
    <path d="M 163.944036 59528.359341 
L 164.959375 59528.359341 
L 164.959375 233.803321 
L 163.944036 233.803321 
z
" clip-path="url(#p76afc6f1e0)" style="fill: #1f77b4"/>
   </g>
   <g id="patch_98">
    <path d="M 186.789156 59528.359341 
L 187.804495 59528.359341 
L 187.804495 245.430417 
L 186.789156 245.430417 
z
" clip-path="url(#p76afc6f1e0)" style="fill: #1f77b4"/>
   </g>
   <g id="patch_99">
    <path d="M 190.596676 59528.359341 
L 191.612015 59528.359341 
L 191.612015 254.086 
L 190.596676 254.086 
z
" clip-path="url(#p76afc6f1e0)" style="fill: #1f77b4"/>
   </g>
   <g id="patch_100">
    <path d="M 204.557583 59528.359341 
L 205.572922 59528.359341 
L 205.572922 267.226738 
L 204.557583 267.226738 
z
" clip-path="url(#p76afc6f1e0)" style="fill: #1f77b4"/>
   </g>
   <g id="patch_101">
    <path d="M 229.941051 59528.359341 
L 230.956389 59528.359341 
L 230.956389 277.657129 
L 229.941051 277.657129 
z
" clip-path="url(#p76afc6f1e0)" style="fill: #1f77b4"/>
   </g>
   <g id="patch_102">
    <path d="M 199.48089 59528.359341 
L 200.496229 59528.359341 
L 200.496229 267.226738 
L 199.48089 267.226738 
z
" clip-path="url(#p76afc6f1e0)" style="fill: #1f77b4"/>
   </g>
   <g id="patch_103">
    <path d="M 223.595184 59528.359341 
L 224.610522 59528.359341 
L 224.610522 267.226738 
L 223.595184 267.226738 
z
" clip-path="url(#p76afc6f1e0)" style="fill: #1f77b4"/>
   </g>
   <g id="patch_104">
    <path d="M 203.28841 59528.359341 
L 204.303749 59528.359341 
L 204.303749 259.826258 
L 203.28841 259.826258 
z
" clip-path="url(#p76afc6f1e0)" style="fill: #1f77b4"/>
   </g>
   <g id="patch_105">
    <path d="M 196.942543 59528.359341 
L 197.957882 59528.359341 
L 197.957882 254.086 
L 196.942543 254.086 
z
" clip-path="url(#p76afc6f1e0)" style="fill: #1f77b4"/>
   </g>
   <g id="patch_106">
    <path d="M 182.981636 59528.359341 
L 183.996975 59528.359341 
L 183.996975 277.657129 
L 182.981636 277.657129 
z
" clip-path="url(#p76afc6f1e0)" style="fill: #1f77b4"/>
   </g>
   <g id="patch_107">
    <path d="M 200.750063 59528.359341 
L 201.765402 59528.359341 
L 201.765402 277.657129 
L 200.750063 277.657129 
z
" clip-path="url(#p76afc6f1e0)" style="fill: #1f77b4"/>
   </g>
   <g id="patch_108">
    <path d="M 198.211717 59528.359341 
L 199.227055 59528.359341 
L 199.227055 267.226738 
L 198.211717 267.226738 
z
" clip-path="url(#p76afc6f1e0)" style="fill: #1f77b4"/>
   </g>
   <g id="patch_109">
    <path d="M 194.404196 59528.359341 
L 195.419535 59528.359341 
L 195.419535 277.657129 
L 194.404196 277.657129 
z
" clip-path="url(#p76afc6f1e0)" style="fill: #1f77b4"/>
   </g>
   <g id="patch_110">
    <path d="M 268.016251 59528.359341 
L 269.03159 59528.359341 
L 269.03159 295.488 
L 268.016251 295.488 
z
" clip-path="url(#p76afc6f1e0)" style="fill: #1f77b4"/>
   </g>
   <g id="patch_111">
    <path d="M 243.901957 59528.359341 
L 244.917296 59528.359341 
L 244.917296 277.657129 
L 243.901957 277.657129 
z
" clip-path="url(#p76afc6f1e0)" style="fill: #1f77b4"/>
   </g>
   <g id="patch_112">
    <path d="M 233.748571 59528.359341 
L 234.763909 59528.359341 
L 234.763909 295.488 
L 233.748571 295.488 
z
" clip-path="url(#p76afc6f1e0)" style="fill: #1f77b4"/>
   </g>
   <g id="patch_113">
    <path d="M 240.094437 59528.359341 
L 241.109776 59528.359341 
L 241.109776 295.488 
L 240.094437 295.488 
z
" clip-path="url(#p76afc6f1e0)" style="fill: #1f77b4"/>
   </g>
   <g id="patch_114">
    <path d="M 188.05833 59528.359341 
L 189.073668 59528.359341 
L 189.073668 295.488 
L 188.05833 295.488 
z
" clip-path="url(#p76afc6f1e0)" style="fill: #1f77b4"/>
   </g>
   <g id="patch_115">
    <path d="M 260.401211 59528.359341 
L 261.41655 59528.359341 
L 261.41655 295.488 
L 260.401211 295.488 
z
" clip-path="url(#p76afc6f1e0)" style="fill: #1f77b4"/>
   </g>
   <g id="patch_116">
    <path d="M 218.51849 59528.359341 
L 219.533829 59528.359341 
L 219.533829 259.826258 
L 218.51849 259.826258 
z
" clip-path="url(#p76afc6f1e0)" style="fill: #1f77b4"/>
   </g>
   <g id="patch_117">
    <path d="M 215.980144 59528.359341 
L 216.995482 59528.359341 
L 216.995482 295.488 
L 215.980144 295.488 
z
" clip-path="url(#p76afc6f1e0)" style="fill: #1f77b4"/>
   </g>
   <g id="patch_118">
    <path d="M 191.86585 59528.359341 
L 192.881188 59528.359341 
L 192.881188 277.657129 
L 191.86585 277.657129 
z
" clip-path="url(#p76afc6f1e0)" style="fill: #1f77b4"/>
   </g>
   <g id="patch_119">
    <path d="M 205.826757 59528.359341 
L 206.842095 59528.359341 
L 206.842095 295.488 
L 205.826757 295.488 
z
" clip-path="url(#p76afc6f1e0)" style="fill: #1f77b4"/>
   </g>
   <g id="patch_120">
    <path d="M 246.440304 59528.359341 
L 247.455643 59528.359341 
L 247.455643 295.488 
L 246.440304 295.488 
z
" clip-path="url(#p76afc6f1e0)" style="fill: #1f77b4"/>
   </g>
   <g id="patch_121">
    <path d="M 221.056837 59528.359341 
L 222.072176 59528.359341 
L 222.072176 295.488 
L 221.056837 295.488 
z
" clip-path="url(#p76afc6f1e0)" style="fill: #1f77b4"/>
   </g>
   <g id="patch_122">
    <path d="M 290.861372 59528.359341 
L 291.87671 59528.359341 
L 291.87671 295.488 
L 290.861372 295.488 
z
" clip-path="url(#p76afc6f1e0)" style="fill: #1f77b4"/>
   </g>
   <g id="patch_123">
    <path d="M 226.13353 59528.359341 
L 227.148869 59528.359341 
L 227.148869 295.488 
L 226.13353 295.488 
z
" clip-path="url(#p76afc6f1e0)" style="fill: #1f77b4"/>
   </g>
   <g id="patch_124">
    <path d="M 232.479397 59528.359341 
L 233.494736 59528.359341 
L 233.494736 295.488 
L 232.479397 295.488 
z
" clip-path="url(#p76afc6f1e0)" style="fill: #1f77b4"/>
   </g>
   <g id="patch_125">
    <path d="M 273.092945 59528.359341 
L 274.108283 59528.359341 
L 274.108283 295.488 
L 273.092945 295.488 
z
" clip-path="url(#p76afc6f1e0)" style="fill: #1f77b4"/>
   </g>
   <g id="patch_126">
    <path d="M 397.471934 59528.359341 
L 398.487273 59528.359341 
L 398.487273 295.488 
L 397.471934 295.488 
z
" clip-path="url(#p76afc6f1e0)" style="fill: #1f77b4"/>
   </g>
   <g id="patch_127">
    <path d="M 363.204253 59528.359341 
L 364.219592 59528.359341 
L 364.219592 295.488 
L 363.204253 295.488 
z
" clip-path="url(#p76afc6f1e0)" style="fill: #1f77b4"/>
   </g>
   <g id="patch_128">
    <path d="M 370.819293 59528.359341 
L 371.834632 59528.359341 
L 371.834632 295.488 
L 370.819293 295.488 
z
" clip-path="url(#p76afc6f1e0)" style="fill: #1f77b4"/>
   </g>
   <g id="matplotlib.axis_1">
    <g id="xtick_1">
     <g id="line2d_1">
      <defs>
       <path id="mc0ed3bac41" d="M 0 0 
L 0 3.5 
" style="stroke: #000000; stroke-width: 0.8"/>
      </defs>
      <g>
       <use xlink:href="#mc0ed3bac41" x="74.340397" y="307.584" style="stroke: #000000; stroke-width: 0.8"/>
      </g>
     </g>
     <g id="text_1">
      <!-- 0 -->
      <g transform="translate(71.159147 322.182437) scale(0.1 -0.1)">
       <defs>
        <path id="DejaVuSans-30" d="M 2034 4250 
Q 1547 4250 1301 3770 
Q 1056 3291 1056 2328 
Q 1056 1369 1301 889 
Q 1547 409 2034 409 
Q 2525 409 2770 889 
Q 3016 1369 3016 2328 
Q 3016 3291 2770 3770 
Q 2525 4250 2034 4250 
z
M 2034 4750 
Q 2819 4750 3233 4129 
Q 3647 3509 3647 2328 
Q 3647 1150 3233 529 
Q 2819 -91 2034 -91 
Q 1250 -91 836 529 
Q 422 1150 422 2328 
Q 422 3509 836 4129 
Q 1250 4750 2034 4750 
z
" transform="scale(0.015625)"/>
       </defs>
       <use xlink:href="#DejaVuSans-30"/>
      </g>
     </g>
    </g>
    <g id="xtick_2">
     <g id="line2d_2">
      <g>
       <use xlink:href="#mc0ed3bac41" x="137.799065" y="307.584" style="stroke: #000000; stroke-width: 0.8"/>
      </g>
     </g>
     <g id="text_2">
      <!-- 50 -->
      <g transform="translate(131.436565 322.182437) scale(0.1 -0.1)">
       <defs>
        <path id="DejaVuSans-35" d="M 691 4666 
L 3169 4666 
L 3169 4134 
L 1269 4134 
L 1269 2991 
Q 1406 3038 1543 3061 
Q 1681 3084 1819 3084 
Q 2600 3084 3056 2656 
Q 3513 2228 3513 1497 
Q 3513 744 3044 326 
Q 2575 -91 1722 -91 
Q 1428 -91 1123 -41 
Q 819 9 494 109 
L 494 744 
Q 775 591 1075 516 
Q 1375 441 1709 441 
Q 2250 441 2565 725 
Q 2881 1009 2881 1497 
Q 2881 1984 2565 2268 
Q 2250 2553 1709 2553 
Q 1456 2553 1204 2497 
Q 953 2441 691 2322 
L 691 4666 
z
" transform="scale(0.015625)"/>
       </defs>
       <use xlink:href="#DejaVuSans-35"/>
       <use xlink:href="#DejaVuSans-30" x="63.623047"/>
      </g>
     </g>
    </g>
    <g id="xtick_3">
     <g id="line2d_3">
      <g>
       <use xlink:href="#mc0ed3bac41" x="201.257733" y="307.584" style="stroke: #000000; stroke-width: 0.8"/>
      </g>
     </g>
     <g id="text_3">
      <!-- 100 -->
      <g transform="translate(191.713983 322.182437) scale(0.1 -0.1)">
       <defs>
        <path id="DejaVuSans-31" d="M 794 531 
L 1825 531 
L 1825 4091 
L 703 3866 
L 703 4441 
L 1819 4666 
L 2450 4666 
L 2450 531 
L 3481 531 
L 3481 0 
L 794 0 
L 794 531 
z
" transform="scale(0.015625)"/>
       </defs>
       <use xlink:href="#DejaVuSans-31"/>
       <use xlink:href="#DejaVuSans-30" x="63.623047"/>
       <use xlink:href="#DejaVuSans-30" x="127.246094"/>
      </g>
     </g>
    </g>
    <g id="xtick_4">
     <g id="line2d_4">
      <g>
       <use xlink:href="#mc0ed3bac41" x="264.716401" y="307.584" style="stroke: #000000; stroke-width: 0.8"/>
      </g>
     </g>
     <g id="text_4">
      <!-- 150 -->
      <g transform="translate(255.172651 322.182437) scale(0.1 -0.1)">
       <use xlink:href="#DejaVuSans-31"/>
       <use xlink:href="#DejaVuSans-35" x="63.623047"/>
       <use xlink:href="#DejaVuSans-30" x="127.246094"/>
      </g>
     </g>
    </g>
    <g id="xtick_5">
     <g id="line2d_5">
      <g>
       <use xlink:href="#mc0ed3bac41" x="328.175069" y="307.584" style="stroke: #000000; stroke-width: 0.8"/>
      </g>
     </g>
     <g id="text_5">
      <!-- 200 -->
      <g transform="translate(318.631319 322.182437) scale(0.1 -0.1)">
       <defs>
        <path id="DejaVuSans-32" d="M 1228 531 
L 3431 531 
L 3431 0 
L 469 0 
L 469 531 
Q 828 903 1448 1529 
Q 2069 2156 2228 2338 
Q 2531 2678 2651 2914 
Q 2772 3150 2772 3378 
Q 2772 3750 2511 3984 
Q 2250 4219 1831 4219 
Q 1534 4219 1204 4116 
Q 875 4013 500 3803 
L 500 4441 
Q 881 4594 1212 4672 
Q 1544 4750 1819 4750 
Q 2544 4750 2975 4387 
Q 3406 4025 3406 3419 
Q 3406 3131 3298 2873 
Q 3191 2616 2906 2266 
Q 2828 2175 2409 1742 
Q 1991 1309 1228 531 
z
" transform="scale(0.015625)"/>
       </defs>
       <use xlink:href="#DejaVuSans-32"/>
       <use xlink:href="#DejaVuSans-30" x="63.623047"/>
       <use xlink:href="#DejaVuSans-30" x="127.246094"/>
      </g>
     </g>
    </g>
    <g id="xtick_6">
     <g id="line2d_6">
      <g>
       <use xlink:href="#mc0ed3bac41" x="391.633737" y="307.584" style="stroke: #000000; stroke-width: 0.8"/>
      </g>
     </g>
     <g id="text_6">
      <!-- 250 -->
      <g transform="translate(382.089987 322.182437) scale(0.1 -0.1)">
       <use xlink:href="#DejaVuSans-32"/>
       <use xlink:href="#DejaVuSans-35" x="63.623047"/>
       <use xlink:href="#DejaVuSans-30" x="127.246094"/>
      </g>
     </g>
    </g>
    <g id="text_7">
     <!-- Depth of Element -->
     <g transform="translate(192.231875 335.860562) scale(0.1 -0.1)">
      <defs>
       <path id="DejaVuSans-44" d="M 1259 4147 
L 1259 519 
L 2022 519 
Q 2988 519 3436 956 
Q 3884 1394 3884 2338 
Q 3884 3275 3436 3711 
Q 2988 4147 2022 4147 
L 1259 4147 
z
M 628 4666 
L 1925 4666 
Q 3281 4666 3915 4102 
Q 4550 3538 4550 2338 
Q 4550 1131 3912 565 
Q 3275 0 1925 0 
L 628 0 
L 628 4666 
z
" transform="scale(0.015625)"/>
       <path id="DejaVuSans-65" d="M 3597 1894 
L 3597 1613 
L 953 1613 
Q 991 1019 1311 708 
Q 1631 397 2203 397 
Q 2534 397 2845 478 
Q 3156 559 3463 722 
L 3463 178 
Q 3153 47 2828 -22 
Q 2503 -91 2169 -91 
Q 1331 -91 842 396 
Q 353 884 353 1716 
Q 353 2575 817 3079 
Q 1281 3584 2069 3584 
Q 2775 3584 3186 3129 
Q 3597 2675 3597 1894 
z
M 3022 2063 
Q 3016 2534 2758 2815 
Q 2500 3097 2075 3097 
Q 1594 3097 1305 2825 
Q 1016 2553 972 2059 
L 3022 2063 
z
" transform="scale(0.015625)"/>
       <path id="DejaVuSans-70" d="M 1159 525 
L 1159 -1331 
L 581 -1331 
L 581 3500 
L 1159 3500 
L 1159 2969 
Q 1341 3281 1617 3432 
Q 1894 3584 2278 3584 
Q 2916 3584 3314 3078 
Q 3713 2572 3713 1747 
Q 3713 922 3314 415 
Q 2916 -91 2278 -91 
Q 1894 -91 1617 61 
Q 1341 213 1159 525 
z
M 3116 1747 
Q 3116 2381 2855 2742 
Q 2594 3103 2138 3103 
Q 1681 3103 1420 2742 
Q 1159 2381 1159 1747 
Q 1159 1113 1420 752 
Q 1681 391 2138 391 
Q 2594 391 2855 752 
Q 3116 1113 3116 1747 
z
" transform="scale(0.015625)"/>
       <path id="DejaVuSans-74" d="M 1172 4494 
L 1172 3500 
L 2356 3500 
L 2356 3053 
L 1172 3053 
L 1172 1153 
Q 1172 725 1289 603 
Q 1406 481 1766 481 
L 2356 481 
L 2356 0 
L 1766 0 
Q 1100 0 847 248 
Q 594 497 594 1153 
L 594 3053 
L 172 3053 
L 172 3500 
L 594 3500 
L 594 4494 
L 1172 4494 
z
" transform="scale(0.015625)"/>
       <path id="DejaVuSans-68" d="M 3513 2113 
L 3513 0 
L 2938 0 
L 2938 2094 
Q 2938 2591 2744 2837 
Q 2550 3084 2163 3084 
Q 1697 3084 1428 2787 
Q 1159 2491 1159 1978 
L 1159 0 
L 581 0 
L 581 4863 
L 1159 4863 
L 1159 2956 
Q 1366 3272 1645 3428 
Q 1925 3584 2291 3584 
Q 2894 3584 3203 3211 
Q 3513 2838 3513 2113 
z
" transform="scale(0.015625)"/>
       <path id="DejaVuSans-20" transform="scale(0.015625)"/>
       <path id="DejaVuSans-6f" d="M 1959 3097 
Q 1497 3097 1228 2736 
Q 959 2375 959 1747 
Q 959 1119 1226 758 
Q 1494 397 1959 397 
Q 2419 397 2687 759 
Q 2956 1122 2956 1747 
Q 2956 2369 2687 2733 
Q 2419 3097 1959 3097 
z
M 1959 3584 
Q 2709 3584 3137 3096 
Q 3566 2609 3566 1747 
Q 3566 888 3137 398 
Q 2709 -91 1959 -91 
Q 1206 -91 779 398 
Q 353 888 353 1747 
Q 353 2609 779 3096 
Q 1206 3584 1959 3584 
z
" transform="scale(0.015625)"/>
       <path id="DejaVuSans-66" d="M 2375 4863 
L 2375 4384 
L 1825 4384 
Q 1516 4384 1395 4259 
Q 1275 4134 1275 3809 
L 1275 3500 
L 2222 3500 
L 2222 3053 
L 1275 3053 
L 1275 0 
L 697 0 
L 697 3053 
L 147 3053 
L 147 3500 
L 697 3500 
L 697 3744 
Q 697 4328 969 4595 
Q 1241 4863 1831 4863 
L 2375 4863 
z
" transform="scale(0.015625)"/>
       <path id="DejaVuSans-45" d="M 628 4666 
L 3578 4666 
L 3578 4134 
L 1259 4134 
L 1259 2753 
L 3481 2753 
L 3481 2222 
L 1259 2222 
L 1259 531 
L 3634 531 
L 3634 0 
L 628 0 
L 628 4666 
z
" transform="scale(0.015625)"/>
       <path id="DejaVuSans-6c" d="M 603 4863 
L 1178 4863 
L 1178 0 
L 603 0 
L 603 4863 
z
" transform="scale(0.015625)"/>
       <path id="DejaVuSans-6d" d="M 3328 2828 
Q 3544 3216 3844 3400 
Q 4144 3584 4550 3584 
Q 5097 3584 5394 3201 
Q 5691 2819 5691 2113 
L 5691 0 
L 5113 0 
L 5113 2094 
Q 5113 2597 4934 2840 
Q 4756 3084 4391 3084 
Q 3944 3084 3684 2787 
Q 3425 2491 3425 1978 
L 3425 0 
L 2847 0 
L 2847 2094 
Q 2847 2600 2669 2842 
Q 2491 3084 2119 3084 
Q 1678 3084 1418 2786 
Q 1159 2488 1159 1978 
L 1159 0 
L 581 0 
L 581 3500 
L 1159 3500 
L 1159 2956 
Q 1356 3278 1631 3431 
Q 1906 3584 2284 3584 
Q 2666 3584 2933 3390 
Q 3200 3197 3328 2828 
z
" transform="scale(0.015625)"/>
       <path id="DejaVuSans-6e" d="M 3513 2113 
L 3513 0 
L 2938 0 
L 2938 2094 
Q 2938 2591 2744 2837 
Q 2550 3084 2163 3084 
Q 1697 3084 1428 2787 
Q 1159 2491 1159 1978 
L 1159 0 
L 581 0 
L 581 3500 
L 1159 3500 
L 1159 2956 
Q 1366 3272 1645 3428 
Q 1925 3584 2291 3584 
Q 2894 3584 3203 3211 
Q 3513 2838 3513 2113 
z
" transform="scale(0.015625)"/>
      </defs>
      <use xlink:href="#DejaVuSans-44"/>
      <use xlink:href="#DejaVuSans-65" x="77.001953"/>
      <use xlink:href="#DejaVuSans-70" x="138.525391"/>
      <use xlink:href="#DejaVuSans-74" x="202.001953"/>
      <use xlink:href="#DejaVuSans-68" x="241.210938"/>
      <use xlink:href="#DejaVuSans-20" x="304.589844"/>
      <use xlink:href="#DejaVuSans-6f" x="336.376953"/>
      <use xlink:href="#DejaVuSans-66" x="397.558594"/>
      <use xlink:href="#DejaVuSans-20" x="432.763672"/>
      <use xlink:href="#DejaVuSans-45" x="464.550781"/>
      <use xlink:href="#DejaVuSans-6c" x="527.734375"/>
      <use xlink:href="#DejaVuSans-65" x="555.517578"/>
      <use xlink:href="#DejaVuSans-6d" x="617.041016"/>
      <use xlink:href="#DejaVuSans-65" x="714.453125"/>
      <use xlink:href="#DejaVuSans-6e" x="775.976562"/>
      <use xlink:href="#DejaVuSans-74" x="839.355469"/>
     </g>
    </g>
   </g>
   <g id="matplotlib.axis_2">
    <g id="ytick_1">
     <g id="line2d_7">
      <defs>
       <path id="m3239801669" d="M 0 0 
L -3.5 0 
" style="stroke: #000000; stroke-width: 0.8"/>
      </defs>
      <g>
       <use xlink:href="#m3239801669" x="57.6" y="295.488" style="stroke: #000000; stroke-width: 0.8"/>
      </g>
     </g>
     <g id="text_8">
      <!-- $\mathdefault{10^{0}}$ -->
      <g transform="translate(33 299.287219) scale(0.1 -0.1)">
       <use xlink:href="#DejaVuSans-31" transform="translate(0 0.765625)"/>
       <use xlink:href="#DejaVuSans-30" transform="translate(63.623047 0.765625)"/>
       <use xlink:href="#DejaVuSans-30" transform="translate(128.203125 39.046875) scale(0.7)"/>
      </g>
     </g>
    </g>
    <g id="ytick_2">
     <g id="line2d_8">
      <g>
       <use xlink:href="#m3239801669" x="57.6" y="236.255129" style="stroke: #000000; stroke-width: 0.8"/>
      </g>
     </g>
     <g id="text_9">
      <!-- $\mathdefault{10^{1}}$ -->
      <g transform="translate(33 240.054347) scale(0.1 -0.1)">
       <use xlink:href="#DejaVuSans-31" transform="translate(0 0.684375)"/>
       <use xlink:href="#DejaVuSans-30" transform="translate(63.623047 0.684375)"/>
       <use xlink:href="#DejaVuSans-31" transform="translate(128.203125 38.965625) scale(0.7)"/>
      </g>
     </g>
    </g>
    <g id="ytick_3">
     <g id="line2d_9">
      <g>
       <use xlink:href="#m3239801669" x="57.6" y="177.022257" style="stroke: #000000; stroke-width: 0.8"/>
      </g>
     </g>
     <g id="text_10">
      <!-- $\mathdefault{10^{2}}$ -->
      <g transform="translate(33 180.821476) scale(0.1 -0.1)">
       <use xlink:href="#DejaVuSans-31" transform="translate(0 0.765625)"/>
       <use xlink:href="#DejaVuSans-30" transform="translate(63.623047 0.765625)"/>
       <use xlink:href="#DejaVuSans-32" transform="translate(128.203125 39.046875) scale(0.7)"/>
      </g>
     </g>
    </g>
    <g id="ytick_4">
     <g id="line2d_10">
      <g>
       <use xlink:href="#m3239801669" x="57.6" y="117.789386" style="stroke: #000000; stroke-width: 0.8"/>
      </g>
     </g>
     <g id="text_11">
      <!-- $\mathdefault{10^{3}}$ -->
      <g transform="translate(33 121.588605) scale(0.1 -0.1)">
       <defs>
        <path id="DejaVuSans-33" d="M 2597 2516 
Q 3050 2419 3304 2112 
Q 3559 1806 3559 1356 
Q 3559 666 3084 287 
Q 2609 -91 1734 -91 
Q 1441 -91 1130 -33 
Q 819 25 488 141 
L 488 750 
Q 750 597 1062 519 
Q 1375 441 1716 441 
Q 2309 441 2620 675 
Q 2931 909 2931 1356 
Q 2931 1769 2642 2001 
Q 2353 2234 1838 2234 
L 1294 2234 
L 1294 2753 
L 1863 2753 
Q 2328 2753 2575 2939 
Q 2822 3125 2822 3475 
Q 2822 3834 2567 4026 
Q 2313 4219 1838 4219 
Q 1578 4219 1281 4162 
Q 984 4106 628 3988 
L 628 4550 
Q 988 4650 1302 4700 
Q 1616 4750 1894 4750 
Q 2613 4750 3031 4423 
Q 3450 4097 3450 3541 
Q 3450 3153 3228 2886 
Q 3006 2619 2597 2516 
z
" transform="scale(0.015625)"/>
       </defs>
       <use xlink:href="#DejaVuSans-31" transform="translate(0 0.765625)"/>
       <use xlink:href="#DejaVuSans-30" transform="translate(63.623047 0.765625)"/>
       <use xlink:href="#DejaVuSans-33" transform="translate(128.203125 39.046875) scale(0.7)"/>
      </g>
     </g>
    </g>
    <g id="ytick_5">
     <g id="line2d_11">
      <g>
       <use xlink:href="#m3239801669" x="57.6" y="58.556515" style="stroke: #000000; stroke-width: 0.8"/>
      </g>
     </g>
     <g id="text_12">
      <!-- $\mathdefault{10^{4}}$ -->
      <g transform="translate(33 62.355733) scale(0.1 -0.1)">
       <defs>
        <path id="DejaVuSans-34" d="M 2419 4116 
L 825 1625 
L 2419 1625 
L 2419 4116 
z
M 2253 4666 
L 3047 4666 
L 3047 1625 
L 3713 1625 
L 3713 1100 
L 3047 1100 
L 3047 0 
L 2419 0 
L 2419 1100 
L 313 1100 
L 313 1709 
L 2253 4666 
z
" transform="scale(0.015625)"/>
       </defs>
       <use xlink:href="#DejaVuSans-31" transform="translate(0 0.684375)"/>
       <use xlink:href="#DejaVuSans-30" transform="translate(63.623047 0.684375)"/>
       <use xlink:href="#DejaVuSans-34" transform="translate(128.203125 38.965625) scale(0.7)"/>
      </g>
     </g>
    </g>
    <g id="ytick_6">
     <g id="line2d_12">
      <defs>
       <path id="m342c6cabf0" d="M 0 0 
L -2 0 
" style="stroke: #000000; stroke-width: 0.6"/>
      </defs>
      <g>
       <use xlink:href="#m342c6cabf0" x="57.6" y="304.663288" style="stroke: #000000; stroke-width: 0.6"/>
      </g>
     </g>
    </g>
    <g id="ytick_7">
     <g id="line2d_13">
      <g>
       <use xlink:href="#m342c6cabf0" x="57.6" y="301.228258" style="stroke: #000000; stroke-width: 0.6"/>
      </g>
     </g>
    </g>
    <g id="ytick_8">
     <g id="line2d_14">
      <g>
       <use xlink:href="#m342c6cabf0" x="57.6" y="298.198348" style="stroke: #000000; stroke-width: 0.6"/>
      </g>
     </g>
    </g>
    <g id="ytick_9">
     <g id="line2d_15">
      <g>
       <use xlink:href="#m342c6cabf0" x="57.6" y="277.657129" style="stroke: #000000; stroke-width: 0.6"/>
      </g>
     </g>
    </g>
    <g id="ytick_10">
     <g id="line2d_16">
      <g>
       <use xlink:href="#m342c6cabf0" x="57.6" y="267.226738" style="stroke: #000000; stroke-width: 0.6"/>
      </g>
     </g>
    </g>
    <g id="ytick_11">
     <g id="line2d_17">
      <g>
       <use xlink:href="#m342c6cabf0" x="57.6" y="259.826258" style="stroke: #000000; stroke-width: 0.6"/>
      </g>
     </g>
    </g>
    <g id="ytick_12">
     <g id="line2d_18">
      <g>
       <use xlink:href="#m342c6cabf0" x="57.6" y="254.086" style="stroke: #000000; stroke-width: 0.6"/>
      </g>
     </g>
    </g>
    <g id="ytick_13">
     <g id="line2d_19">
      <g>
       <use xlink:href="#m342c6cabf0" x="57.6" y="249.395867" style="stroke: #000000; stroke-width: 0.6"/>
      </g>
     </g>
    </g>
    <g id="ytick_14">
     <g id="line2d_20">
      <g>
       <use xlink:href="#m342c6cabf0" x="57.6" y="245.430417" style="stroke: #000000; stroke-width: 0.6"/>
      </g>
     </g>
    </g>
    <g id="ytick_15">
     <g id="line2d_21">
      <g>
       <use xlink:href="#m342c6cabf0" x="57.6" y="241.995387" style="stroke: #000000; stroke-width: 0.6"/>
      </g>
     </g>
    </g>
    <g id="ytick_16">
     <g id="line2d_22">
      <g>
       <use xlink:href="#m342c6cabf0" x="57.6" y="238.965476" style="stroke: #000000; stroke-width: 0.6"/>
      </g>
     </g>
    </g>
    <g id="ytick_17">
     <g id="line2d_23">
      <g>
       <use xlink:href="#m342c6cabf0" x="57.6" y="218.424258" style="stroke: #000000; stroke-width: 0.6"/>
      </g>
     </g>
    </g>
    <g id="ytick_18">
     <g id="line2d_24">
      <g>
       <use xlink:href="#m342c6cabf0" x="57.6" y="207.993867" style="stroke: #000000; stroke-width: 0.6"/>
      </g>
     </g>
    </g>
    <g id="ytick_19">
     <g id="line2d_25">
      <g>
       <use xlink:href="#m342c6cabf0" x="57.6" y="200.593387" style="stroke: #000000; stroke-width: 0.6"/>
      </g>
     </g>
    </g>
    <g id="ytick_20">
     <g id="line2d_26">
      <g>
       <use xlink:href="#m342c6cabf0" x="57.6" y="194.853128" style="stroke: #000000; stroke-width: 0.6"/>
      </g>
     </g>
    </g>
    <g id="ytick_21">
     <g id="line2d_27">
      <g>
       <use xlink:href="#m342c6cabf0" x="57.6" y="190.162996" style="stroke: #000000; stroke-width: 0.6"/>
      </g>
     </g>
    </g>
    <g id="ytick_22">
     <g id="line2d_28">
      <g>
       <use xlink:href="#m342c6cabf0" x="57.6" y="186.197545" style="stroke: #000000; stroke-width: 0.6"/>
      </g>
     </g>
    </g>
    <g id="ytick_23">
     <g id="line2d_29">
      <g>
       <use xlink:href="#m342c6cabf0" x="57.6" y="182.762516" style="stroke: #000000; stroke-width: 0.6"/>
      </g>
     </g>
    </g>
    <g id="ytick_24">
     <g id="line2d_30">
      <g>
       <use xlink:href="#m342c6cabf0" x="57.6" y="179.732605" style="stroke: #000000; stroke-width: 0.6"/>
      </g>
     </g>
    </g>
    <g id="ytick_25">
     <g id="line2d_31">
      <g>
       <use xlink:href="#m342c6cabf0" x="57.6" y="159.191386" style="stroke: #000000; stroke-width: 0.6"/>
      </g>
     </g>
    </g>
    <g id="ytick_26">
     <g id="line2d_32">
      <g>
       <use xlink:href="#m342c6cabf0" x="57.6" y="148.760995" style="stroke: #000000; stroke-width: 0.6"/>
      </g>
     </g>
    </g>
    <g id="ytick_27">
     <g id="line2d_33">
      <g>
       <use xlink:href="#m342c6cabf0" x="57.6" y="141.360515" style="stroke: #000000; stroke-width: 0.6"/>
      </g>
     </g>
    </g>
    <g id="ytick_28">
     <g id="line2d_34">
      <g>
       <use xlink:href="#m342c6cabf0" x="57.6" y="135.620257" style="stroke: #000000; stroke-width: 0.6"/>
      </g>
     </g>
    </g>
    <g id="ytick_29">
     <g id="line2d_35">
      <g>
       <use xlink:href="#m342c6cabf0" x="57.6" y="130.930124" style="stroke: #000000; stroke-width: 0.6"/>
      </g>
     </g>
    </g>
    <g id="ytick_30">
     <g id="line2d_36">
      <g>
       <use xlink:href="#m342c6cabf0" x="57.6" y="126.964674" style="stroke: #000000; stroke-width: 0.6"/>
      </g>
     </g>
    </g>
    <g id="ytick_31">
     <g id="line2d_37">
      <g>
       <use xlink:href="#m342c6cabf0" x="57.6" y="123.529644" style="stroke: #000000; stroke-width: 0.6"/>
      </g>
     </g>
    </g>
    <g id="ytick_32">
     <g id="line2d_38">
      <g>
       <use xlink:href="#m342c6cabf0" x="57.6" y="120.499734" style="stroke: #000000; stroke-width: 0.6"/>
      </g>
     </g>
    </g>
    <g id="ytick_33">
     <g id="line2d_39">
      <g>
       <use xlink:href="#m342c6cabf0" x="57.6" y="99.958515" style="stroke: #000000; stroke-width: 0.6"/>
      </g>
     </g>
    </g>
    <g id="ytick_34">
     <g id="line2d_40">
      <g>
       <use xlink:href="#m342c6cabf0" x="57.6" y="89.528124" style="stroke: #000000; stroke-width: 0.6"/>
      </g>
     </g>
    </g>
    <g id="ytick_35">
     <g id="line2d_41">
      <g>
       <use xlink:href="#m342c6cabf0" x="57.6" y="82.127644" style="stroke: #000000; stroke-width: 0.6"/>
      </g>
     </g>
    </g>
    <g id="ytick_36">
     <g id="line2d_42">
      <g>
       <use xlink:href="#m342c6cabf0" x="57.6" y="76.387386" style="stroke: #000000; stroke-width: 0.6"/>
      </g>
     </g>
    </g>
    <g id="ytick_37">
     <g id="line2d_43">
      <g>
       <use xlink:href="#m342c6cabf0" x="57.6" y="71.697253" style="stroke: #000000; stroke-width: 0.6"/>
      </g>
     </g>
    </g>
    <g id="ytick_38">
     <g id="line2d_44">
      <g>
       <use xlink:href="#m342c6cabf0" x="57.6" y="67.731803" style="stroke: #000000; stroke-width: 0.6"/>
      </g>
     </g>
    </g>
    <g id="ytick_39">
     <g id="line2d_45">
      <g>
       <use xlink:href="#m342c6cabf0" x="57.6" y="64.296773" style="stroke: #000000; stroke-width: 0.6"/>
      </g>
     </g>
    </g>
    <g id="ytick_40">
     <g id="line2d_46">
      <g>
       <use xlink:href="#m342c6cabf0" x="57.6" y="61.266862" style="stroke: #000000; stroke-width: 0.6"/>
      </g>
     </g>
    </g>
    <g id="text_13">
     <!-- Number of Elements -->
     <g transform="translate(26.920312 225.917062) rotate(-90) scale(0.1 -0.1)">
      <defs>
       <path id="DejaVuSans-4e" d="M 628 4666 
L 1478 4666 
L 3547 763 
L 3547 4666 
L 4159 4666 
L 4159 0 
L 3309 0 
L 1241 3903 
L 1241 0 
L 628 0 
L 628 4666 
z
" transform="scale(0.015625)"/>
       <path id="DejaVuSans-75" d="M 544 1381 
L 544 3500 
L 1119 3500 
L 1119 1403 
Q 1119 906 1312 657 
Q 1506 409 1894 409 
Q 2359 409 2629 706 
Q 2900 1003 2900 1516 
L 2900 3500 
L 3475 3500 
L 3475 0 
L 2900 0 
L 2900 538 
Q 2691 219 2414 64 
Q 2138 -91 1772 -91 
Q 1169 -91 856 284 
Q 544 659 544 1381 
z
M 1991 3584 
L 1991 3584 
z
" transform="scale(0.015625)"/>
       <path id="DejaVuSans-62" d="M 3116 1747 
Q 3116 2381 2855 2742 
Q 2594 3103 2138 3103 
Q 1681 3103 1420 2742 
Q 1159 2381 1159 1747 
Q 1159 1113 1420 752 
Q 1681 391 2138 391 
Q 2594 391 2855 752 
Q 3116 1113 3116 1747 
z
M 1159 2969 
Q 1341 3281 1617 3432 
Q 1894 3584 2278 3584 
Q 2916 3584 3314 3078 
Q 3713 2572 3713 1747 
Q 3713 922 3314 415 
Q 2916 -91 2278 -91 
Q 1894 -91 1617 61 
Q 1341 213 1159 525 
L 1159 0 
L 581 0 
L 581 4863 
L 1159 4863 
L 1159 2969 
z
" transform="scale(0.015625)"/>
       <path id="DejaVuSans-72" d="M 2631 2963 
Q 2534 3019 2420 3045 
Q 2306 3072 2169 3072 
Q 1681 3072 1420 2755 
Q 1159 2438 1159 1844 
L 1159 0 
L 581 0 
L 581 3500 
L 1159 3500 
L 1159 2956 
Q 1341 3275 1631 3429 
Q 1922 3584 2338 3584 
Q 2397 3584 2469 3576 
Q 2541 3569 2628 3553 
L 2631 2963 
z
" transform="scale(0.015625)"/>
       <path id="DejaVuSans-73" d="M 2834 3397 
L 2834 2853 
Q 2591 2978 2328 3040 
Q 2066 3103 1784 3103 
Q 1356 3103 1142 2972 
Q 928 2841 928 2578 
Q 928 2378 1081 2264 
Q 1234 2150 1697 2047 
L 1894 2003 
Q 2506 1872 2764 1633 
Q 3022 1394 3022 966 
Q 3022 478 2636 193 
Q 2250 -91 1575 -91 
Q 1294 -91 989 -36 
Q 684 19 347 128 
L 347 722 
Q 666 556 975 473 
Q 1284 391 1588 391 
Q 1994 391 2212 530 
Q 2431 669 2431 922 
Q 2431 1156 2273 1281 
Q 2116 1406 1581 1522 
L 1381 1569 
Q 847 1681 609 1914 
Q 372 2147 372 2553 
Q 372 3047 722 3315 
Q 1072 3584 1716 3584 
Q 2034 3584 2315 3537 
Q 2597 3491 2834 3397 
z
" transform="scale(0.015625)"/>
      </defs>
      <use xlink:href="#DejaVuSans-4e"/>
      <use xlink:href="#DejaVuSans-75" x="74.804688"/>
      <use xlink:href="#DejaVuSans-6d" x="138.183594"/>
      <use xlink:href="#DejaVuSans-62" x="235.595703"/>
      <use xlink:href="#DejaVuSans-65" x="299.072266"/>
      <use xlink:href="#DejaVuSans-72" x="360.595703"/>
      <use xlink:href="#DejaVuSans-20" x="401.708984"/>
      <use xlink:href="#DejaVuSans-6f" x="433.496094"/>
      <use xlink:href="#DejaVuSans-66" x="494.677734"/>
      <use xlink:href="#DejaVuSans-20" x="529.882812"/>
      <use xlink:href="#DejaVuSans-45" x="561.669922"/>
      <use xlink:href="#DejaVuSans-6c" x="624.853516"/>
      <use xlink:href="#DejaVuSans-65" x="652.636719"/>
      <use xlink:href="#DejaVuSans-6d" x="714.160156"/>
      <use xlink:href="#DejaVuSans-65" x="811.572266"/>
      <use xlink:href="#DejaVuSans-6e" x="873.095703"/>
      <use xlink:href="#DejaVuSans-74" x="936.474609"/>
      <use xlink:href="#DejaVuSans-73" x="975.683594"/>
     </g>
    </g>
   </g>
   <g id="patch_129">
    <path d="M 57.6 307.584 
L 57.6 41.472 
" style="fill: none; stroke: #000000; stroke-width: 0.8; stroke-linejoin: miter; stroke-linecap: square"/>
   </g>
   <g id="patch_130">
    <path d="M 414.72 307.584 
L 414.72 41.472 
" style="fill: none; stroke: #000000; stroke-width: 0.8; stroke-linejoin: miter; stroke-linecap: square"/>
   </g>
   <g id="patch_131">
    <path d="M 57.6 307.584 
L 414.72 307.584 
" style="fill: none; stroke: #000000; stroke-width: 0.8; stroke-linejoin: miter; stroke-linecap: square"/>
   </g>
   <g id="patch_132">
    <path d="M 57.6 41.472 
L 414.72 41.472 
" style="fill: none; stroke: #000000; stroke-width: 0.8; stroke-linejoin: miter; stroke-linecap: square"/>
   </g>
  </g>
 </g>
 <defs>
  <clipPath id="p76afc6f1e0">
   <rect x="57.6" y="41.472" width="357.12" height="266.112"/>
  </clipPath>
 </defs>
</svg>
