<?xml version="1.0" encoding="utf-8" standalone="no"?>
<!DOCTYPE svg PUBLIC "-//W3C//DTD SVG 1.1//EN"
  "http://www.w3.org/Graphics/SVG/1.1/DTD/svg11.dtd">
<svg xmlns:xlink="http://www.w3.org/1999/xlink" width="460.8pt" height="345.6pt" viewBox="0 0 460.8 345.6" xmlns="http://www.w3.org/2000/svg" version="1.1">
 <metadata>
  <rdf:RDF xmlns:dc="http://purl.org/dc/elements/1.1/" xmlns:cc="http://creativecommons.org/ns#" xmlns:rdf="http://www.w3.org/1999/02/22-rdf-syntax-ns#">
   <cc:Work>
    <dc:type rdf:resource="http://purl.org/dc/dcmitype/StillImage"/>
    <dc:date>2024-03-09T21:19:45.535243</dc:date>
    <dc:format>image/svg+xml</dc:format>
    <dc:creator>
     <cc:Agent>
      <dc:title>Matplotlib v3.8.3, https://matplotlib.org/</dc:title>
     </cc:Agent>
    </dc:creator>
   </cc:Work>
  </rdf:RDF>
 </metadata>
 <defs>
  <style type="text/css">*{stroke-linejoin: round; stroke-linecap: butt}</style>
 </defs>
 <g id="figure_1">
  <g id="patch_1">
   <path d="M 0 345.6 
L 460.8 345.6 
L 460.8 0 
L 0 0 
z
" style="fill: #ffffff"/>
  </g>
  <g id="axes_1">
   <g id="patch_2">
    <path d="M 57.6 307.584 
L 414.72 307.584 
L 414.72 41.472 
L 57.6 41.472 
z
" style="fill: #ffffff"/>
   </g>
   <g id="patch_3">
    <path d="M 73.832727 57666.377375 
L 74.601595 57666.377375 
L 74.601595 260.947283 
L 73.832727 260.947283 
z
" clip-path="url(#p3339b0d4c7)" style="fill: #1f77b4"/>
   </g>
   <g id="patch_4">
    <path d="M 74.793812 57666.377375 
L 75.56268 57666.377375 
L 75.56268 238.117111 
L 74.793812 238.117111 
z
" clip-path="url(#p3339b0d4c7)" style="fill: #1f77b4"/>
   </g>
   <g id="patch_5">
    <path d="M 76.715983 57666.377375 
L 77.484851 57666.377375 
L 77.484851 198.01658 
L 76.715983 198.01658 
z
" clip-path="url(#p3339b0d4c7)" style="fill: #1f77b4"/>
   </g>
   <g id="patch_6">
    <path d="M 77.677068 57666.377375 
L 78.445936 57666.377375 
L 78.445936 175.791681 
L 77.677068 175.791681 
z
" clip-path="url(#p3339b0d4c7)" style="fill: #1f77b4"/>
   </g>
   <g id="patch_7">
    <path d="M 80.560323 57666.377375 
L 81.329191 57666.377375 
L 81.329191 121.182465 
L 80.560323 121.182465 
z
" clip-path="url(#p3339b0d4c7)" style="fill: #1f77b4"/>
   </g>
   <g id="patch_8">
    <path d="M 75.754897 57666.377375 
L 76.523766 57666.377375 
L 76.523766 222.124769 
L 75.754897 222.124769 
z
" clip-path="url(#p3339b0d4c7)" style="fill: #1f77b4"/>
   </g>
   <g id="patch_9">
    <path d="M 78.638153 57666.377375 
L 79.407021 57666.377375 
L 79.407021 158.521322 
L 78.638153 158.521322 
z
" clip-path="url(#p3339b0d4c7)" style="fill: #1f77b4"/>
   </g>
   <g id="patch_10">
    <path d="M 81.521408 57666.377375 
L 82.290276 57666.377375 
L 82.290276 104.853756 
L 81.521408 104.853756 
z
" clip-path="url(#p3339b0d4c7)" style="fill: #1f77b4"/>
   </g>
   <g id="patch_11">
    <path d="M 79.599238 57666.377375 
L 80.368106 57666.377375 
L 80.368106 140.946489 
L 79.599238 140.946489 
z
" clip-path="url(#p3339b0d4c7)" style="fill: #1f77b4"/>
   </g>
   <g id="patch_12">
    <path d="M 83.443578 57666.377375 
L 84.212446 57666.377375 
L 84.212446 81.050011 
L 83.443578 81.050011 
z
" clip-path="url(#p3339b0d4c7)" style="fill: #1f77b4"/>
   </g>
   <g id="patch_13">
    <path d="M 82.482493 57666.377375 
L 83.251361 57666.377375 
L 83.251361 93.126925 
L 82.482493 93.126925 
z
" clip-path="url(#p3339b0d4c7)" style="fill: #1f77b4"/>
   </g>
   <g id="patch_14">
    <path d="M 85.365748 57666.377375 
L 86.134617 57666.377375 
L 86.134617 60.436657 
L 85.365748 60.436657 
z
" clip-path="url(#p3339b0d4c7)" style="fill: #1f77b4"/>
   </g>
   <g id="patch_15">
    <path d="M 84.404663 57666.377375 
L 85.173531 57666.377375 
L 85.173531 69.240537 
L 84.404663 69.240537 
z
" clip-path="url(#p3339b0d4c7)" style="fill: #1f77b4"/>
   </g>
   <g id="patch_16">
    <path d="M 89.210089 57666.377375 
L 89.978957 57666.377375 
L 89.978957 73.188905 
L 89.210089 73.188905 
z
" clip-path="url(#p3339b0d4c7)" style="fill: #1f77b4"/>
   </g>
   <g id="patch_17">
    <path d="M 86.326834 57666.377375 
L 87.095702 57666.377375 
L 87.095702 54.486178 
L 86.326834 54.486178 
z
" clip-path="url(#p3339b0d4c7)" style="fill: #1f77b4"/>
   </g>
   <g id="patch_18">
    <path d="M 91.132259 57666.377375 
L 91.901127 57666.377375 
L 91.901127 107.135069 
L 91.132259 107.135069 
z
" clip-path="url(#p3339b0d4c7)" style="fill: #1f77b4"/>
   </g>
   <g id="patch_19">
    <path d="M 88.249004 57666.377375 
L 89.017872 57666.377375 
L 89.017872 59.978603 
L 88.249004 59.978603 
z
" clip-path="url(#p3339b0d4c7)" style="fill: #1f77b4"/>
   </g>
   <g id="patch_20">
    <path d="M 92.093344 57666.377375 
L 92.862212 57666.377375 
L 92.862212 137.163401 
L 92.093344 137.163401 
z
" clip-path="url(#p3339b0d4c7)" style="fill: #1f77b4"/>
   </g>
   <g id="patch_21">
    <path d="M 94.015514 57666.377375 
L 94.784382 57666.377375 
L 94.784382 168.268974 
L 94.015514 168.268974 
z
" clip-path="url(#p3339b0d4c7)" style="fill: #1f77b4"/>
   </g>
   <g id="patch_22">
    <path d="M 87.287919 57666.377375 
L 88.056787 57666.377375 
L 88.056787 53.568 
L 87.287919 53.568 
z
" clip-path="url(#p3339b0d4c7)" style="fill: #1f77b4"/>
   </g>
   <g id="patch_23">
    <path d="M 100.74311 57666.377375 
L 101.511978 57666.377375 
L 101.511978 168.57283 
L 100.74311 168.57283 
z
" clip-path="url(#p3339b0d4c7)" style="fill: #1f77b4"/>
   </g>
   <g id="patch_24">
    <path d="M 94.976599 57666.377375 
L 95.745467 57666.377375 
L 95.745467 168.726159 
L 94.976599 168.726159 
z
" clip-path="url(#p3339b0d4c7)" style="fill: #1f77b4"/>
   </g>
   <g id="patch_25">
    <path d="M 93.054429 57666.377375 
L 93.823297 57666.377375 
L 93.823297 160.652181 
L 93.054429 160.652181 
z
" clip-path="url(#p3339b0d4c7)" style="fill: #1f77b4"/>
   </g>
   <g id="patch_26">
    <path d="M 90.171174 57666.377375 
L 90.940042 57666.377375 
L 90.940042 86.284951 
L 90.171174 86.284951 
z
" clip-path="url(#p3339b0d4c7)" style="fill: #1f77b4"/>
   </g>
   <g id="patch_27">
    <path d="M 99.782025 57666.377375 
L 100.550893 57666.377375 
L 100.550893 168.880437 
L 99.782025 168.880437 
z
" clip-path="url(#p3339b0d4c7)" style="fill: #1f77b4"/>
   </g>
   <g id="patch_28">
    <path d="M 95.937684 57666.377375 
L 96.706553 57666.377375 
L 96.706553 167.233745 
L 95.937684 167.233745 
z
" clip-path="url(#p3339b0d4c7)" style="fill: #1f77b4"/>
   </g>
   <g id="patch_29">
    <path d="M 96.89877 57666.377375 
L 97.667638 57666.377375 
L 97.667638 168.118424 
L 96.89877 168.118424 
z
" clip-path="url(#p3339b0d4c7)" style="fill: #1f77b4"/>
   </g>
   <g id="patch_30">
    <path d="M 98.82094 57666.377375 
L 99.589808 57666.377375 
L 99.589808 169.191889 
L 98.82094 169.191889 
z
" clip-path="url(#p3339b0d4c7)" style="fill: #1f77b4"/>
   </g>
   <g id="patch_31">
    <path d="M 108.431791 57666.377375 
L 109.200659 57666.377375 
L 109.200659 180.4983 
L 108.431791 180.4983 
z
" clip-path="url(#p3339b0d4c7)" style="fill: #1f77b4"/>
   </g>
   <g id="patch_32">
    <path d="M 101.704195 57666.377375 
L 102.473063 57666.377375 
L 102.473063 175.588285 
L 101.704195 175.588285 
z
" clip-path="url(#p3339b0d4c7)" style="fill: #1f77b4"/>
   </g>
   <g id="patch_33">
    <path d="M 102.66528 57666.377375 
L 103.434148 57666.377375 
L 103.434148 177.263932 
L 102.66528 177.263932 
z
" clip-path="url(#p3339b0d4c7)" style="fill: #1f77b4"/>
   </g>
   <g id="patch_34">
    <path d="M 105.548535 57666.377375 
L 106.317404 57666.377375 
L 106.317404 178.828671 
L 105.548535 178.828671 
z
" clip-path="url(#p3339b0d4c7)" style="fill: #1f77b4"/>
   </g>
   <g id="patch_35">
    <path d="M 106.509621 57666.377375 
L 107.278489 57666.377375 
L 107.278489 188.248514 
L 106.509621 188.248514 
z
" clip-path="url(#p3339b0d4c7)" style="fill: #1f77b4"/>
   </g>
   <g id="patch_36">
    <path d="M 109.392876 57666.377375 
L 110.161744 57666.377375 
L 110.161744 183.649762 
L 109.392876 183.649762 
z
" clip-path="url(#p3339b0d4c7)" style="fill: #1f77b4"/>
   </g>
   <g id="patch_37">
    <path d="M 97.859855 57666.377375 
L 98.628723 57666.377375 
L 98.628723 165.825694 
L 97.859855 165.825694 
z
" clip-path="url(#p3339b0d4c7)" style="fill: #1f77b4"/>
   </g>
   <g id="patch_38">
    <path d="M 117.081557 57666.377375 
L 117.850425 57666.377375 
L 117.850425 188.58751 
L 117.081557 188.58751 
z
" clip-path="url(#p3339b0d4c7)" style="fill: #1f77b4"/>
   </g>
   <g id="patch_39">
    <path d="M 103.626365 57666.377375 
L 104.395233 57666.377375 
L 104.395233 177.92254 
L 103.626365 177.92254 
z
" clip-path="url(#p3339b0d4c7)" style="fill: #1f77b4"/>
   </g>
   <g id="patch_40">
    <path d="M 107.470706 57666.377375 
L 108.239574 57666.377375 
L 108.239574 180.4983 
L 107.470706 180.4983 
z
" clip-path="url(#p3339b0d4c7)" style="fill: #1f77b4"/>
   </g>
   <g id="patch_41">
    <path d="M 122.848067 57666.377375 
L 123.616935 57666.377375 
L 123.616935 191.099146 
L 122.848067 191.099146 
z
" clip-path="url(#p3339b0d4c7)" style="fill: #1f77b4"/>
   </g>
   <g id="patch_42">
    <path d="M 112.276131 57666.377375 
L 113.044999 57666.377375 
L 113.044999 183.649762 
L 112.276131 183.649762 
z
" clip-path="url(#p3339b0d4c7)" style="fill: #1f77b4"/>
   </g>
   <g id="patch_43">
    <path d="M 119.003727 57666.377375 
L 119.772595 57666.377375 
L 119.772595 189.279662 
L 119.003727 189.279662 
z
" clip-path="url(#p3339b0d4c7)" style="fill: #1f77b4"/>
   </g>
   <g id="patch_44">
    <path d="M 116.120472 57666.377375 
L 116.88934 57666.377375 
L 116.88934 185.090386 
L 116.120472 185.090386 
z
" clip-path="url(#p3339b0d4c7)" style="fill: #1f77b4"/>
   </g>
   <g id="patch_45">
    <path d="M 104.58745 57666.377375 
L 105.356318 57666.377375 
L 105.356318 177.263932 
L 104.58745 177.263932 
z
" clip-path="url(#p3339b0d4c7)" style="fill: #1f77b4"/>
   </g>
   <g id="patch_46">
    <path d="M 113.237216 57666.377375 
L 114.006084 57666.377375 
L 114.006084 180.746221 
L 113.237216 180.746221 
z
" clip-path="url(#p3339b0d4c7)" style="fill: #1f77b4"/>
   </g>
   <g id="patch_47">
    <path d="M 128.614578 57666.377375 
L 129.383446 57666.377375 
L 129.383446 195.192898 
L 128.614578 195.192898 
z
" clip-path="url(#p3339b0d4c7)" style="fill: #1f77b4"/>
   </g>
   <g id="patch_48">
    <path d="M 131.497833 57666.377375 
L 132.266701 57666.377375 
L 132.266701 191.479548 
L 131.497833 191.479548 
z
" clip-path="url(#p3339b0d4c7)" style="fill: #1f77b4"/>
   </g>
   <g id="patch_49">
    <path d="M 121.886982 57666.377375 
L 122.65585 57666.377375 
L 122.65585 191.099146 
L 121.886982 191.099146 
z
" clip-path="url(#p3339b0d4c7)" style="fill: #1f77b4"/>
   </g>
   <g id="patch_50">
    <path d="M 119.964812 57666.377375 
L 120.73368 57666.377375 
L 120.73368 187.914068 
L 119.964812 187.914068 
z
" clip-path="url(#p3339b0d4c7)" style="fill: #1f77b4"/>
   </g>
   <g id="patch_51">
    <path d="M 110.353961 57666.377375 
L 111.122829 57666.377375 
L 111.122829 183.096053 
L 110.353961 183.096053 
z
" clip-path="url(#p3339b0d4c7)" style="fill: #1f77b4"/>
   </g>
   <g id="patch_52">
    <path d="M 132.458918 57666.377375 
L 133.227786 57666.377375 
L 133.227786 194.751898 
L 132.458918 194.751898 
z
" clip-path="url(#p3339b0d4c7)" style="fill: #1f77b4"/>
   </g>
   <g id="patch_53">
    <path d="M 136.303259 57666.377375 
L 137.072127 57666.377375 
L 137.072127 195.641845 
L 136.303259 195.641845 
z
" clip-path="url(#p3339b0d4c7)" style="fill: #1f77b4"/>
   </g>
   <g id="patch_54">
    <path d="M 115.159386 57666.377375 
L 115.928254 57666.377375 
L 115.928254 190.724465 
L 115.159386 190.724465 
z
" clip-path="url(#p3339b0d4c7)" style="fill: #1f77b4"/>
   </g>
   <g id="patch_55">
    <path d="M 114.198301 57666.377375 
L 114.967169 57666.377375 
L 114.967169 189.279662 
L 114.198301 189.279662 
z
" clip-path="url(#p3339b0d4c7)" style="fill: #1f77b4"/>
   </g>
   <g id="patch_56">
    <path d="M 126.692408 57666.377375 
L 127.461276 57666.377375 
L 127.461276 192.656895 
L 126.692408 192.656895 
z
" clip-path="url(#p3339b0d4c7)" style="fill: #1f77b4"/>
   </g>
   <g id="patch_57">
    <path d="M 129.575663 57666.377375 
L 130.344531 57666.377375 
L 130.344531 204.207208 
L 129.575663 204.207208 
z
" clip-path="url(#p3339b0d4c7)" style="fill: #1f77b4"/>
   </g>
   <g id="patch_58">
    <path d="M 151.68062 57666.377375 
L 152.449488 57666.377375 
L 152.449488 210.74424 
L 151.68062 210.74424 
z
" clip-path="url(#p3339b0d4c7)" style="fill: #1f77b4"/>
   </g>
   <g id="patch_59">
    <path d="M 130.536748 57666.377375 
L 131.305616 57666.377375 
L 131.305616 202.961156 
L 130.536748 202.961156 
z
" clip-path="url(#p3339b0d4c7)" style="fill: #1f77b4"/>
   </g>
   <g id="patch_60">
    <path d="M 111.315046 57666.377375 
L 112.083914 57666.377375 
L 112.083914 184.216056 
L 111.315046 184.216056 
z
" clip-path="url(#p3339b0d4c7)" style="fill: #1f77b4"/>
   </g>
   <g id="patch_61">
    <path d="M 118.042642 57666.377375 
L 118.81151 57666.377375 
L 118.81151 189.633084 
L 118.042642 189.633084 
z
" clip-path="url(#p3339b0d4c7)" style="fill: #1f77b4"/>
   </g>
   <g id="patch_62">
    <path d="M 125.731322 57666.377375 
L 126.500191 57666.377375 
L 126.500191 195.641845 
L 125.731322 195.641845 
z
" clip-path="url(#p3339b0d4c7)" style="fill: #1f77b4"/>
   </g>
   <g id="patch_63">
    <path d="M 133.420003 57666.377375 
L 134.188871 57666.377375 
L 134.188871 202.961156 
L 133.420003 202.961156 
z
" clip-path="url(#p3339b0d4c7)" style="fill: #1f77b4"/>
   </g>
   <g id="patch_64">
    <path d="M 134.381088 57666.377375 
L 135.149956 57666.377375 
L 135.149956 203.576393 
L 134.381088 203.576393 
z
" clip-path="url(#p3339b0d4c7)" style="fill: #1f77b4"/>
   </g>
   <g id="patch_65">
    <path d="M 120.925897 57666.377375 
L 121.694765 57666.377375 
L 121.694765 195.641845 
L 120.925897 195.641845 
z
" clip-path="url(#p3339b0d4c7)" style="fill: #1f77b4"/>
   </g>
   <g id="patch_66">
    <path d="M 124.770237 57666.377375 
L 125.539105 57666.377375 
L 125.539105 189.633084 
L 124.770237 189.633084 
z
" clip-path="url(#p3339b0d4c7)" style="fill: #1f77b4"/>
   </g>
   <g id="patch_67">
    <path d="M 135.342173 57666.377375 
L 136.111041 57666.377375 
L 136.111041 204.207208 
L 135.342173 204.207208 
z
" clip-path="url(#p3339b0d4c7)" style="fill: #1f77b4"/>
   </g>
   <g id="patch_68">
    <path d="M 140.147599 57666.377375 
L 140.916467 57666.377375 
L 140.916467 204.85441 
L 140.147599 204.85441 
z
" clip-path="url(#p3339b0d4c7)" style="fill: #1f77b4"/>
   </g>
   <g id="patch_69">
    <path d="M 123.809152 57666.377375 
L 124.57802 57666.377375 
L 124.57802 195.641845 
L 123.809152 195.641845 
z
" clip-path="url(#p3339b0d4c7)" style="fill: #1f77b4"/>
   </g>
   <g id="patch_70">
    <path d="M 137.264344 57666.377375 
L 138.033212 57666.377375 
L 138.033212 198.519948 
L 137.264344 198.519948 
z
" clip-path="url(#p3339b0d4c7)" style="fill: #1f77b4"/>
   </g>
   <g id="patch_71">
    <path d="M 159.369301 57666.377375 
L 160.138169 57666.377375 
L 160.138169 217.364463 
L 159.369301 217.364463 
z
" clip-path="url(#p3339b0d4c7)" style="fill: #1f77b4"/>
   </g>
   <g id="patch_72">
    <path d="M 138.225429 57666.377375 
L 138.994297 57666.377375 
L 138.994297 206.201541 
L 138.225429 206.201541 
z
" clip-path="url(#p3339b0d4c7)" style="fill: #1f77b4"/>
   </g>
   <g id="patch_73">
    <path d="M 142.069769 57666.377375 
L 142.838637 57666.377375 
L 142.838637 207.625692 
L 142.069769 207.625692 
z
" clip-path="url(#p3339b0d4c7)" style="fill: #1f77b4"/>
   </g>
   <g id="patch_74">
    <path d="M 149.75845 57666.377375 
L 150.527318 57666.377375 
L 150.527318 209.136207 
L 149.75845 209.136207 
z
" clip-path="url(#p3339b0d4c7)" style="fill: #1f77b4"/>
   </g>
   <g id="patch_75">
    <path d="M 155.52496 57666.377375 
L 156.293829 57666.377375 
L 156.293829 219.631103 
L 155.52496 219.631103 
z
" clip-path="url(#p3339b0d4c7)" style="fill: #1f77b4"/>
   </g>
   <g id="patch_76">
    <path d="M 146.875195 57666.377375 
L 147.644063 57666.377375 
L 147.644063 223.4719 
L 146.875195 223.4719 
z
" clip-path="url(#p3339b0d4c7)" style="fill: #1f77b4"/>
   </g>
   <g id="patch_77">
    <path d="M 144.953024 57666.377375 
L 145.721892 57666.377375 
L 145.721892 204.207208 
L 144.953024 204.207208 
z
" clip-path="url(#p3339b0d4c7)" style="fill: #1f77b4"/>
   </g>
   <g id="patch_78">
    <path d="M 150.719535 57666.377375 
L 151.488403 57666.377375 
L 151.488403 212.463257 
L 150.719535 212.463257 
z
" clip-path="url(#p3339b0d4c7)" style="fill: #1f77b4"/>
   </g>
   <g id="patch_79">
    <path d="M 143.030854 57666.377375 
L 143.799722 57666.377375 
L 143.799722 213.369388 
L 143.030854 213.369388 
z
" clip-path="url(#p3339b0d4c7)" style="fill: #1f77b4"/>
   </g>
   <g id="patch_80">
    <path d="M 170.902322 57666.377375 
L 171.67119 57666.377375 
L 171.67119 228.014598 
L 170.902322 228.014598 
z
" clip-path="url(#p3339b0d4c7)" style="fill: #1f77b4"/>
   </g>
   <g id="patch_81">
    <path d="M 158.408216 57666.377375 
L 159.177084 57666.377375 
L 159.177084 217.364463 
L 158.408216 217.364463 
z
" clip-path="url(#p3339b0d4c7)" style="fill: #1f77b4"/>
   </g>
   <g id="patch_82">
    <path d="M 145.914109 57666.377375 
L 146.682978 57666.377375 
L 146.682978 206.903443 
L 145.914109 206.903443 
z
" clip-path="url(#p3339b0d4c7)" style="fill: #1f77b4"/>
   </g>
   <g id="patch_83">
    <path d="M 127.653493 57666.377375 
L 128.422361 57666.377375 
L 128.422361 204.85441 
L 127.653493 204.85441 
z
" clip-path="url(#p3339b0d4c7)" style="fill: #1f77b4"/>
   </g>
   <g id="patch_84">
    <path d="M 143.991939 57666.377375 
L 144.760807 57666.377375 
L 144.760807 203.576393 
L 143.991939 203.576393 
z
" clip-path="url(#p3339b0d4c7)" style="fill: #1f77b4"/>
   </g>
   <g id="patch_85">
    <path d="M 154.563875 57666.377375 
L 155.332743 57666.377375 
L 155.332743 220.846752 
L 154.563875 220.846752 
z
" clip-path="url(#p3339b0d4c7)" style="fill: #1f77b4"/>
   </g>
   <g id="patch_86">
    <path d="M 161.291471 57666.377375 
L 162.060339 57666.377375 
L 162.060339 220.846752 
L 161.291471 220.846752 
z
" clip-path="url(#p3339b0d4c7)" style="fill: #1f77b4"/>
   </g>
   <g id="patch_87">
    <path d="M 179.552088 57666.377375 
L 180.320956 57666.377375 
L 180.320956 226.406566 
L 179.552088 226.406566 
z
" clip-path="url(#p3339b0d4c7)" style="fill: #1f77b4"/>
   </g>
   <g id="patch_88">
    <path d="M 141.108684 57666.377375 
L 141.877552 57666.377375 
L 141.877552 206.903443 
L 141.108684 206.903443 
z
" clip-path="url(#p3339b0d4c7)" style="fill: #1f77b4"/>
   </g>
   <g id="patch_89">
    <path d="M 139.186514 57666.377375 
L 139.955382 57666.377375 
L 139.955382 206.201541 
L 139.186514 206.201541 
z
" clip-path="url(#p3339b0d4c7)" style="fill: #1f77b4"/>
   </g>
   <g id="patch_90">
    <path d="M 157.447131 57666.377375 
L 158.215999 57666.377375 
L 158.215999 212.463257 
L 157.447131 212.463257 
z
" clip-path="url(#p3339b0d4c7)" style="fill: #1f77b4"/>
   </g>
   <g id="patch_91">
    <path d="M 166.096896 57666.377375 
L 166.865765 57666.377375 
L 166.865765 229.733615 
L 166.096896 229.733615 
z
" clip-path="url(#p3339b0d4c7)" style="fill: #1f77b4"/>
   </g>
   <g id="patch_92">
    <path d="M 147.83628 57666.377375 
L 148.605148 57666.377375 
L 148.605148 220.846752 
L 147.83628 220.846752 
z
" clip-path="url(#p3339b0d4c7)" style="fill: #1f77b4"/>
   </g>
   <g id="patch_93">
    <path d="M 164.174726 57666.377375 
L 164.943594 57666.377375 
L 164.943594 224.896051 
L 164.174726 224.896051 
z
" clip-path="url(#p3339b0d4c7)" style="fill: #1f77b4"/>
   </g>
   <g id="patch_94">
    <path d="M 148.797365 57666.377375 
L 149.566233 57666.377375 
L 149.566233 218.472017 
L 148.797365 218.472017 
z
" clip-path="url(#p3339b0d4c7)" style="fill: #1f77b4"/>
   </g>
   <g id="patch_95">
    <path d="M 183.396428 57666.377375 
L 184.165296 57666.377375 
L 184.165296 250.844771 
L 183.396428 250.844771 
z
" clip-path="url(#p3339b0d4c7)" style="fill: #1f77b4"/>
   </g>
   <g id="patch_96">
    <path d="M 175.707747 57666.377375 
L 176.476616 57666.377375 
L 176.476616 229.733615 
L 175.707747 229.733615 
z
" clip-path="url(#p3339b0d4c7)" style="fill: #1f77b4"/>
   </g>
   <g id="patch_97">
    <path d="M 153.60279 57666.377375 
L 154.371658 57666.377375 
L 154.371658 222.124769 
L 153.60279 222.124769 
z
" clip-path="url(#p3339b0d4c7)" style="fill: #1f77b4"/>
   </g>
   <g id="patch_98">
    <path d="M 152.641705 57666.377375 
L 153.410573 57666.377375 
L 153.410573 213.369388 
L 152.641705 213.369388 
z
" clip-path="url(#p3339b0d4c7)" style="fill: #1f77b4"/>
   </g>
   <g id="patch_99">
    <path d="M 162.252556 57666.377375 
L 163.021424 57666.377375 
L 163.021424 223.4719 
L 162.252556 223.4719 
z
" clip-path="url(#p3339b0d4c7)" style="fill: #1f77b4"/>
   </g>
   <g id="patch_100">
    <path d="M 172.824492 57666.377375 
L 173.59336 57666.377375 
L 173.59336 226.406566 
L 172.824492 226.406566 
z
" clip-path="url(#p3339b0d4c7)" style="fill: #1f77b4"/>
   </g>
   <g id="patch_101">
    <path d="M 194.929449 57666.377375 
L 195.698317 57666.377375 
L 195.698317 224.896051 
L 194.929449 224.896051 
z
" clip-path="url(#p3339b0d4c7)" style="fill: #1f77b4"/>
   </g>
   <g id="patch_102">
    <path d="M 168.019067 57666.377375 
L 168.787935 57666.377375 
L 168.787935 229.733615 
L 168.019067 229.733615 
z
" clip-path="url(#p3339b0d4c7)" style="fill: #1f77b4"/>
   </g>
   <g id="patch_103">
    <path d="M 187.240769 57666.377375 
L 188.009637 57666.377375 
L 188.009637 235.742375 
L 187.240769 235.742375 
z
" clip-path="url(#p3339b0d4c7)" style="fill: #1f77b4"/>
   </g>
   <g id="patch_104">
    <path d="M 169.941237 57666.377375 
L 170.710105 57666.377375 
L 170.710105 222.124769 
L 169.941237 222.124769 
z
" clip-path="url(#p3339b0d4c7)" style="fill: #1f77b4"/>
   </g>
   <g id="patch_105">
    <path d="M 156.486046 57666.377375 
L 157.254914 57666.377375 
L 157.254914 215.286938 
L 156.486046 215.286938 
z
" clip-path="url(#p3339b0d4c7)" style="fill: #1f77b4"/>
   </g>
   <g id="patch_106">
    <path d="M 176.668833 57666.377375 
L 177.437701 57666.377375 
L 177.437701 235.742375 
L 176.668833 235.742375 
z
" clip-path="url(#p3339b0d4c7)" style="fill: #1f77b4"/>
   </g>
   <g id="patch_107">
    <path d="M 167.057982 57666.377375 
L 167.82685 57666.377375 
L 167.82685 218.472017 
L 167.057982 218.472017 
z
" clip-path="url(#p3339b0d4c7)" style="fill: #1f77b4"/>
   </g>
   <g id="patch_108">
    <path d="M 160.330386 57666.377375 
L 161.099254 57666.377375 
L 161.099254 219.631103 
L 160.330386 219.631103 
z
" clip-path="url(#p3339b0d4c7)" style="fill: #1f77b4"/>
   </g>
   <g id="patch_109">
    <path d="M 165.135811 57666.377375 
L 165.904679 57666.377375 
L 165.904679 228.014598 
L 165.135811 228.014598 
z
" clip-path="url(#p3339b0d4c7)" style="fill: #1f77b4"/>
   </g>
   <g id="patch_110">
    <path d="M 163.213641 57666.377375 
L 163.982509 57666.377375 
L 163.982509 223.4719 
L 163.213641 223.4719 
z
" clip-path="url(#p3339b0d4c7)" style="fill: #1f77b4"/>
   </g>
   <g id="patch_111">
    <path d="M 171.863407 57666.377375 
L 172.632275 57666.377375 
L 172.632275 231.580079 
L 171.863407 231.580079 
z
" clip-path="url(#p3339b0d4c7)" style="fill: #1f77b4"/>
   </g>
   <g id="patch_112">
    <path d="M 223.762002 57666.377375 
L 224.53087 57666.377375 
L 224.53087 247.003974 
L 223.762002 247.003974 
z
" clip-path="url(#p3339b0d4c7)" style="fill: #1f77b4"/>
   </g>
   <g id="patch_113">
    <path d="M 193.968364 57666.377375 
L 194.737232 57666.377375 
L 194.737232 231.580079 
L 193.968364 231.580079 
z
" clip-path="url(#p3339b0d4c7)" style="fill: #1f77b4"/>
   </g>
   <g id="patch_114">
    <path d="M 192.046194 57666.377375 
L 192.815062 57666.377375 
L 192.815062 240.742259 
L 192.046194 240.742259 
z
" clip-path="url(#p3339b0d4c7)" style="fill: #1f77b4"/>
   </g>
   <g id="patch_115">
    <path d="M 199.734875 57666.377375 
L 200.503743 57666.377375 
L 200.503743 247.003974 
L 199.734875 247.003974 
z
" clip-path="url(#p3339b0d4c7)" style="fill: #1f77b4"/>
   </g>
   <g id="patch_116">
    <path d="M 215.112236 57666.377375 
L 215.881104 57666.377375 
L 215.881104 255.387469 
L 215.112236 255.387469 
z
" clip-path="url(#p3339b0d4c7)" style="fill: #1f77b4"/>
   </g>
   <g id="patch_117">
    <path d="M 184.357513 57666.377375 
L 185.126381 57666.377375 
L 185.126381 231.580079 
L 184.357513 231.580079 
z
" clip-path="url(#p3339b0d4c7)" style="fill: #1f77b4"/>
   </g>
   <g id="patch_118">
    <path d="M 181.474258 57666.377375 
L 182.243126 57666.377375 
L 182.243126 231.580079 
L 181.474258 231.580079 
z
" clip-path="url(#p3339b0d4c7)" style="fill: #1f77b4"/>
   </g>
   <g id="patch_119">
    <path d="M 177.629918 57666.377375 
L 178.398786 57666.377375 
L 178.398786 229.733615 
L 177.629918 229.733615 
z
" clip-path="url(#p3339b0d4c7)" style="fill: #1f77b4"/>
   </g>
   <g id="patch_120">
    <path d="M 174.746662 57666.377375 
L 175.51553 57666.377375 
L 175.51553 229.733615 
L 174.746662 229.733615 
z
" clip-path="url(#p3339b0d4c7)" style="fill: #1f77b4"/>
   </g>
   <g id="patch_121">
    <path d="M 204.5403 57666.377375 
L 205.309168 57666.377375 
L 205.309168 260.947283 
L 204.5403 260.947283 
z
" clip-path="url(#p3339b0d4c7)" style="fill: #1f77b4"/>
   </g>
   <g id="patch_122">
    <path d="M 195.890534 57666.377375 
L 196.659403 57666.377375 
L 196.659403 233.574412 
L 195.890534 233.574412 
z
" clip-path="url(#p3339b0d4c7)" style="fill: #1f77b4"/>
   </g>
   <g id="patch_123">
    <path d="M 168.980152 57666.377375 
L 169.74902 57666.377375 
L 169.74902 226.406566 
L 168.980152 226.406566 
z
" clip-path="url(#p3339b0d4c7)" style="fill: #1f77b4"/>
   </g>
   <g id="patch_124">
    <path d="M 185.318598 57666.377375 
L 186.087466 57666.377375 
L 186.087466 233.574412 
L 185.318598 233.574412 
z
" clip-path="url(#p3339b0d4c7)" style="fill: #1f77b4"/>
   </g>
   <g id="patch_125">
    <path d="M 224.723087 57666.377375 
L 225.491955 57666.377375 
L 225.491955 243.676924 
L 224.723087 243.676924 
z
" clip-path="url(#p3339b0d4c7)" style="fill: #1f77b4"/>
   </g>
   <g id="patch_126">
    <path d="M 279.504938 57666.377375 
L 280.273806 57666.377375 
L 280.273806 278.217641 
L 279.504938 278.217641 
z
" clip-path="url(#p3339b0d4c7)" style="fill: #1f77b4"/>
   </g>
   <g id="patch_127">
    <path d="M 298.72664 57666.377375 
L 299.495508 57666.377375 
L 299.495508 268.115129 
L 298.72664 268.115129 
z
" clip-path="url(#p3339b0d4c7)" style="fill: #1f77b4"/>
   </g>
   <g id="patch_128">
    <path d="M 193.007279 57666.377375 
L 193.776147 57666.377375 
L 193.776147 240.742259 
L 193.007279 240.742259 
z
" clip-path="url(#p3339b0d4c7)" style="fill: #1f77b4"/>
   </g>
   <g id="patch_129">
    <path d="M 207.423556 57666.377375 
L 208.192424 57666.377375 
L 208.192424 235.742375 
L 207.423556 235.742375 
z
" clip-path="url(#p3339b0d4c7)" style="fill: #1f77b4"/>
   </g>
   <g id="patch_130">
    <path d="M 212.228981 57666.377375 
L 212.997849 57666.377375 
L 212.997849 250.844771 
L 212.228981 250.844771 
z
" clip-path="url(#p3339b0d4c7)" style="fill: #1f77b4"/>
   </g>
   <g id="patch_131">
    <path d="M 180.513173 57666.377375 
L 181.282041 57666.377375 
L 181.282041 223.4719 
L 180.513173 223.4719 
z
" clip-path="url(#p3339b0d4c7)" style="fill: #1f77b4"/>
   </g>
   <g id="patch_132">
    <path d="M 173.785577 57666.377375 
L 174.554445 57666.377375 
L 174.554445 229.733615 
L 173.785577 229.733615 
z
" clip-path="url(#p3339b0d4c7)" style="fill: #1f77b4"/>
   </g>
   <g id="patch_133">
    <path d="M 190.124024 57666.377375 
L 190.892892 57666.377375 
L 190.892892 233.574412 
L 190.124024 233.574412 
z
" clip-path="url(#p3339b0d4c7)" style="fill: #1f77b4"/>
   </g>
   <g id="patch_134">
    <path d="M 225.684172 57666.377375 
L 226.453041 57666.377375 
L 226.453041 260.947283 
L 225.684172 260.947283 
z
" clip-path="url(#p3339b0d4c7)" style="fill: #1f77b4"/>
   </g>
   <g id="patch_135">
    <path d="M 201.657045 57666.377375 
L 202.425913 57666.377375 
L 202.425913 247.003974 
L 201.657045 247.003974 
z
" clip-path="url(#p3339b0d4c7)" style="fill: #1f77b4"/>
   </g>
   <g id="patch_136">
    <path d="M 247.78913 57666.377375 
L 248.557998 57666.377375 
L 248.557998 260.947283 
L 247.78913 260.947283 
z
" clip-path="url(#p3339b0d4c7)" style="fill: #1f77b4"/>
   </g>
   <g id="patch_137">
    <path d="M 186.279684 57666.377375 
L 187.048552 57666.377375 
L 187.048552 233.574412 
L 186.279684 233.574412 
z
" clip-path="url(#p3339b0d4c7)" style="fill: #1f77b4"/>
   </g>
   <g id="patch_138">
    <path d="M 211.267896 57666.377375 
L 212.036764 57666.377375 
L 212.036764 250.844771 
L 211.267896 250.844771 
z
" clip-path="url(#p3339b0d4c7)" style="fill: #1f77b4"/>
   </g>
   <g id="patch_139">
    <path d="M 203.579215 57666.377375 
L 204.348083 57666.377375 
L 204.348083 250.844771 
L 203.579215 250.844771 
z
" clip-path="url(#p3339b0d4c7)" style="fill: #1f77b4"/>
   </g>
   <g id="patch_140">
    <path d="M 230.489598 57666.377375 
L 231.258466 57666.377375 
L 231.258466 278.217641 
L 230.489598 278.217641 
z
" clip-path="url(#p3339b0d4c7)" style="fill: #1f77b4"/>
   </g>
   <g id="patch_141">
    <path d="M 221.839832 57666.377375 
L 222.6087 57666.377375 
L 222.6087 278.217641 
L 221.839832 278.217641 
z
" clip-path="url(#p3339b0d4c7)" style="fill: #1f77b4"/>
   </g>
   <g id="patch_142">
    <path d="M 178.591003 57666.377375 
L 179.359871 57666.377375 
L 179.359871 228.014598 
L 178.591003 228.014598 
z
" clip-path="url(#p3339b0d4c7)" style="fill: #1f77b4"/>
   </g>
   <g id="patch_143">
    <path d="M 202.61813 57666.377375 
L 203.386998 57666.377375 
L 203.386998 250.844771 
L 202.61813 250.844771 
z
" clip-path="url(#p3339b0d4c7)" style="fill: #1f77b4"/>
   </g>
   <g id="patch_144">
    <path d="M 217.995492 57666.377375 
L 218.76436 57666.377375 
L 218.76436 278.217641 
L 217.995492 278.217641 
z
" clip-path="url(#p3339b0d4c7)" style="fill: #1f77b4"/>
   </g>
   <g id="patch_145">
    <path d="M 245.866959 57666.377375 
L 246.635828 57666.377375 
L 246.635828 247.003974 
L 245.866959 247.003974 
z
" clip-path="url(#p3339b0d4c7)" style="fill: #1f77b4"/>
   </g>
   <g id="patch_146">
    <path d="M 214.151151 57666.377375 
L 214.920019 57666.377375 
L 214.920019 247.003974 
L 214.151151 247.003974 
z
" clip-path="url(#p3339b0d4c7)" style="fill: #1f77b4"/>
   </g>
   <g id="patch_147">
    <path d="M 249.7113 57666.377375 
L 250.480168 57666.377375 
L 250.480168 250.844771 
L 249.7113 250.844771 
z
" clip-path="url(#p3339b0d4c7)" style="fill: #1f77b4"/>
   </g>
   <g id="patch_148">
    <path d="M 232.411768 57666.377375 
L 233.180636 57666.377375 
L 233.180636 268.115129 
L 232.411768 268.115129 
z
" clip-path="url(#p3339b0d4c7)" style="fill: #1f77b4"/>
   </g>
   <g id="patch_149">
    <path d="M 216.073321 57666.377375 
L 216.84219 57666.377375 
L 216.84219 243.676924 
L 216.073321 243.676924 
z
" clip-path="url(#p3339b0d4c7)" style="fill: #1f77b4"/>
   </g>
   <g id="patch_150">
    <path d="M 255.47781 57666.377375 
L 256.246679 57666.377375 
L 256.246679 278.217641 
L 255.47781 278.217641 
z
" clip-path="url(#p3339b0d4c7)" style="fill: #1f77b4"/>
   </g>
   <g id="patch_151">
    <path d="M 182.435343 57666.377375 
L 183.204211 57666.377375 
L 183.204211 243.676924 
L 182.435343 243.676924 
z
" clip-path="url(#p3339b0d4c7)" style="fill: #1f77b4"/>
   </g>
   <g id="patch_152">
    <path d="M 242.022619 57666.377375 
L 242.791487 57666.377375 
L 242.791487 268.115129 
L 242.022619 268.115129 
z
" clip-path="url(#p3339b0d4c7)" style="fill: #1f77b4"/>
   </g>
   <g id="patch_153">
    <path d="M 242.983704 57666.377375 
L 243.752572 57666.377375 
L 243.752572 255.387469 
L 242.983704 255.387469 
z
" clip-path="url(#p3339b0d4c7)" style="fill: #1f77b4"/>
   </g>
   <g id="patch_154">
    <path d="M 266.049746 57666.377375 
L 266.818615 57666.377375 
L 266.818615 250.844771 
L 266.049746 250.844771 
z
" clip-path="url(#p3339b0d4c7)" style="fill: #1f77b4"/>
   </g>
   <g id="patch_155">
    <path d="M 196.85162 57666.377375 
L 197.620488 57666.377375 
L 197.620488 247.003974 
L 196.85162 247.003974 
z
" clip-path="url(#p3339b0d4c7)" style="fill: #1f77b4"/>
   </g>
   <g id="patch_156">
    <path d="M 209.345726 57666.377375 
L 210.114594 57666.377375 
L 210.114594 243.676924 
L 209.345726 243.676924 
z
" clip-path="url(#p3339b0d4c7)" style="fill: #1f77b4"/>
   </g>
   <g id="patch_157">
    <path d="M 219.917662 57666.377375 
L 220.68653 57666.377375 
L 220.68653 243.676924 
L 219.917662 243.676924 
z
" clip-path="url(#p3339b0d4c7)" style="fill: #1f77b4"/>
   </g>
   <g id="patch_158">
    <path d="M 197.812705 57666.377375 
L 198.581573 57666.377375 
L 198.581573 268.115129 
L 197.812705 268.115129 
z
" clip-path="url(#p3339b0d4c7)" style="fill: #1f77b4"/>
   </g>
   <g id="patch_159">
    <path d="M 200.69596 57666.377375 
L 201.464828 57666.377375 
L 201.464828 240.742259 
L 200.69596 240.742259 
z
" clip-path="url(#p3339b0d4c7)" style="fill: #1f77b4"/>
   </g>
   <g id="patch_160">
    <path d="M 256.438896 57666.377375 
L 257.207764 57666.377375 
L 257.207764 295.488 
L 256.438896 295.488 
z
" clip-path="url(#p3339b0d4c7)" style="fill: #1f77b4"/>
   </g>
   <g id="patch_161">
    <path d="M 189.162939 57666.377375 
L 189.931807 57666.377375 
L 189.931807 238.117111 
L 189.162939 238.117111 
z
" clip-path="url(#p3339b0d4c7)" style="fill: #1f77b4"/>
   </g>
   <g id="patch_162">
    <path d="M 267.971917 57666.377375 
L 268.740785 57666.377375 
L 268.740785 268.115129 
L 267.971917 268.115129 
z
" clip-path="url(#p3339b0d4c7)" style="fill: #1f77b4"/>
   </g>
   <g id="patch_163">
    <path d="M 213.190066 57666.377375 
L 213.958934 57666.377375 
L 213.958934 247.003974 
L 213.190066 247.003974 
z
" clip-path="url(#p3339b0d4c7)" style="fill: #1f77b4"/>
   </g>
   <g id="patch_164">
    <path d="M 206.462471 57666.377375 
L 207.231339 57666.377375 
L 207.231339 247.003974 
L 206.462471 247.003974 
z
" clip-path="url(#p3339b0d4c7)" style="fill: #1f77b4"/>
   </g>
   <g id="patch_165">
    <path d="M 263.166491 57666.377375 
L 263.935359 57666.377375 
L 263.935359 295.488 
L 263.166491 295.488 
z
" clip-path="url(#p3339b0d4c7)" style="fill: #1f77b4"/>
   </g>
   <g id="patch_166">
    <path d="M 253.55564 57666.377375 
L 254.324508 57666.377375 
L 254.324508 268.115129 
L 253.55564 268.115129 
z
" clip-path="url(#p3339b0d4c7)" style="fill: #1f77b4"/>
   </g>
   <g id="patch_167">
    <path d="M 238.178279 57666.377375 
L 238.947147 57666.377375 
L 238.947147 250.844771 
L 238.178279 250.844771 
z
" clip-path="url(#p3339b0d4c7)" style="fill: #1f77b4"/>
   </g>
   <g id="patch_168">
    <path d="M 228.567428 57666.377375 
L 229.336296 57666.377375 
L 229.336296 260.947283 
L 228.567428 260.947283 
z
" clip-path="url(#p3339b0d4c7)" style="fill: #1f77b4"/>
   </g>
   <g id="patch_169">
    <path d="M 222.800917 57666.377375 
L 223.569785 57666.377375 
L 223.569785 243.676924 
L 222.800917 243.676924 
z
" clip-path="url(#p3339b0d4c7)" style="fill: #1f77b4"/>
   </g>
   <g id="patch_170">
    <path d="M 226.645258 57666.377375 
L 227.414126 57666.377375 
L 227.414126 250.844771 
L 226.645258 250.844771 
z
" clip-path="url(#p3339b0d4c7)" style="fill: #1f77b4"/>
   </g>
   <g id="patch_171">
    <path d="M 217.034407 57666.377375 
L 217.803275 57666.377375 
L 217.803275 268.115129 
L 217.034407 268.115129 
z
" clip-path="url(#p3339b0d4c7)" style="fill: #1f77b4"/>
   </g>
   <g id="patch_172">
    <path d="M 270.855172 57666.377375 
L 271.62404 57666.377375 
L 271.62404 255.387469 
L 270.855172 255.387469 
z
" clip-path="url(#p3339b0d4c7)" style="fill: #1f77b4"/>
   </g>
   <g id="patch_173">
    <path d="M 290.076874 57666.377375 
L 290.845742 57666.377375 
L 290.845742 278.217641 
L 290.076874 278.217641 
z
" clip-path="url(#p3339b0d4c7)" style="fill: #1f77b4"/>
   </g>
   <g id="patch_174">
    <path d="M 227.606343 57666.377375 
L 228.375211 57666.377375 
L 228.375211 247.003974 
L 227.606343 247.003974 
z
" clip-path="url(#p3339b0d4c7)" style="fill: #1f77b4"/>
   </g>
   <g id="patch_175">
    <path d="M 205.501385 57666.377375 
L 206.270254 57666.377375 
L 206.270254 247.003974 
L 205.501385 247.003974 
z
" clip-path="url(#p3339b0d4c7)" style="fill: #1f77b4"/>
   </g>
   <g id="patch_176">
    <path d="M 210.306811 57666.377375 
L 211.075679 57666.377375 
L 211.075679 250.844771 
L 210.306811 250.844771 
z
" clip-path="url(#p3339b0d4c7)" style="fill: #1f77b4"/>
   </g>
   <g id="patch_177">
    <path d="M 198.77379 57666.377375 
L 199.542658 57666.377375 
L 199.542658 255.387469 
L 198.77379 255.387469 
z
" clip-path="url(#p3339b0d4c7)" style="fill: #1f77b4"/>
   </g>
   <g id="patch_178">
    <path d="M 244.905874 57666.377375 
L 245.674742 57666.377375 
L 245.674742 268.115129 
L 244.905874 268.115129 
z
" clip-path="url(#p3339b0d4c7)" style="fill: #1f77b4"/>
   </g>
   <g id="patch_179">
    <path d="M 248.750215 57666.377375 
L 249.519083 57666.377375 
L 249.519083 278.217641 
L 248.750215 278.217641 
z
" clip-path="url(#p3339b0d4c7)" style="fill: #1f77b4"/>
   </g>
   <g id="patch_180">
    <path d="M 252.594555 57666.377375 
L 253.363423 57666.377375 
L 253.363423 268.115129 
L 252.594555 268.115129 
z
" clip-path="url(#p3339b0d4c7)" style="fill: #1f77b4"/>
   </g>
   <g id="patch_181">
    <path d="M 234.333938 57666.377375 
L 235.102806 57666.377375 
L 235.102806 260.947283 
L 234.333938 260.947283 
z
" clip-path="url(#p3339b0d4c7)" style="fill: #1f77b4"/>
   </g>
   <g id="patch_182">
    <path d="M 259.322151 57666.377375 
L 260.091019 57666.377375 
L 260.091019 268.115129 
L 259.322151 268.115129 
z
" clip-path="url(#p3339b0d4c7)" style="fill: #1f77b4"/>
   </g>
   <g id="patch_183">
    <path d="M 240.100449 57666.377375 
L 240.869317 57666.377375 
L 240.869317 255.387469 
L 240.100449 255.387469 
z
" clip-path="url(#p3339b0d4c7)" style="fill: #1f77b4"/>
   </g>
   <g id="patch_184">
    <path d="M 188.201854 57666.377375 
L 188.970722 57666.377375 
L 188.970722 243.676924 
L 188.201854 243.676924 
z
" clip-path="url(#p3339b0d4c7)" style="fill: #1f77b4"/>
   </g>
   <g id="patch_185">
    <path d="M 239.139364 57666.377375 
L 239.908232 57666.377375 
L 239.908232 260.947283 
L 239.139364 260.947283 
z
" clip-path="url(#p3339b0d4c7)" style="fill: #1f77b4"/>
   </g>
   <g id="patch_186">
    <path d="M 258.361066 57666.377375 
L 259.129934 57666.377375 
L 259.129934 295.488 
L 258.361066 295.488 
z
" clip-path="url(#p3339b0d4c7)" style="fill: #1f77b4"/>
   </g>
   <g id="patch_187">
    <path d="M 208.384641 57666.377375 
L 209.153509 57666.377375 
L 209.153509 268.115129 
L 208.384641 268.115129 
z
" clip-path="url(#p3339b0d4c7)" style="fill: #1f77b4"/>
   </g>
   <g id="patch_188">
    <path d="M 274.699512 57666.377375 
L 275.46838 57666.377375 
L 275.46838 278.217641 
L 274.699512 278.217641 
z
" clip-path="url(#p3339b0d4c7)" style="fill: #1f77b4"/>
   </g>
   <g id="patch_189">
    <path d="M 285.271448 57666.377375 
L 286.040316 57666.377375 
L 286.040316 295.488 
L 285.271448 295.488 
z
" clip-path="url(#p3339b0d4c7)" style="fill: #1f77b4"/>
   </g>
   <g id="patch_190">
    <path d="M 231.450683 57666.377375 
L 232.219551 57666.377375 
L 232.219551 260.947283 
L 231.450683 260.947283 
z
" clip-path="url(#p3339b0d4c7)" style="fill: #1f77b4"/>
   </g>
   <g id="patch_191">
    <path d="M 191.085109 57666.377375 
L 191.853977 57666.377375 
L 191.853977 250.844771 
L 191.085109 250.844771 
z
" clip-path="url(#p3339b0d4c7)" style="fill: #1f77b4"/>
   </g>
   <g id="patch_192">
    <path d="M 241.061534 57666.377375 
L 241.830402 57666.377375 
L 241.830402 250.844771 
L 241.061534 250.844771 
z
" clip-path="url(#p3339b0d4c7)" style="fill: #1f77b4"/>
   </g>
   <g id="patch_193">
    <path d="M 250.672385 57666.377375 
L 251.441253 57666.377375 
L 251.441253 260.947283 
L 250.672385 260.947283 
z
" clip-path="url(#p3339b0d4c7)" style="fill: #1f77b4"/>
   </g>
   <g id="patch_194">
    <path d="M 308.337491 57666.377375 
L 309.106359 57666.377375 
L 309.106359 295.488 
L 308.337491 295.488 
z
" clip-path="url(#p3339b0d4c7)" style="fill: #1f77b4"/>
   </g>
   <g id="patch_195">
    <path d="M 262.205406 57666.377375 
L 262.974274 57666.377375 
L 262.974274 268.115129 
L 262.205406 268.115129 
z
" clip-path="url(#p3339b0d4c7)" style="fill: #1f77b4"/>
   </g>
   <g id="patch_196">
    <path d="M 276.621683 57666.377375 
L 277.390551 57666.377375 
L 277.390551 268.115129 
L 276.621683 268.115129 
z
" clip-path="url(#p3339b0d4c7)" style="fill: #1f77b4"/>
   </g>
   <g id="patch_197">
    <path d="M 236.256109 57666.377375 
L 237.024977 57666.377375 
L 237.024977 255.387469 
L 236.256109 255.387469 
z
" clip-path="url(#p3339b0d4c7)" style="fill: #1f77b4"/>
   </g>
   <g id="patch_198">
    <path d="M 303.532065 57666.377375 
L 304.300933 57666.377375 
L 304.300933 278.217641 
L 303.532065 278.217641 
z
" clip-path="url(#p3339b0d4c7)" style="fill: #1f77b4"/>
   </g>
   <g id="patch_199">
    <path d="M 218.956577 57666.377375 
L 219.725445 57666.377375 
L 219.725445 247.003974 
L 218.956577 247.003974 
z
" clip-path="url(#p3339b0d4c7)" style="fill: #1f77b4"/>
   </g>
   <g id="patch_200">
    <path d="M 313.142916 57666.377375 
L 313.911784 57666.377375 
L 313.911784 295.488 
L 313.142916 295.488 
z
" clip-path="url(#p3339b0d4c7)" style="fill: #1f77b4"/>
   </g>
   <g id="patch_201">
    <path d="M 246.828045 57666.377375 
L 247.596913 57666.377375 
L 247.596913 278.217641 
L 246.828045 278.217641 
z
" clip-path="url(#p3339b0d4c7)" style="fill: #1f77b4"/>
   </g>
   <g id="patch_202">
    <path d="M 268.933002 57666.377375 
L 269.70187 57666.377375 
L 269.70187 268.115129 
L 268.933002 268.115129 
z
" clip-path="url(#p3339b0d4c7)" style="fill: #1f77b4"/>
   </g>
   <g id="patch_203">
    <path d="M 229.528513 57666.377375 
L 230.297381 57666.377375 
L 230.297381 278.217641 
L 229.528513 278.217641 
z
" clip-path="url(#p3339b0d4c7)" style="fill: #1f77b4"/>
   </g>
   <g id="patch_204">
    <path d="M 284.310363 57666.377375 
L 285.079231 57666.377375 
L 285.079231 278.217641 
L 284.310363 278.217641 
z
" clip-path="url(#p3339b0d4c7)" style="fill: #1f77b4"/>
   </g>
   <g id="patch_205">
    <path d="M 311.220746 57666.377375 
L 311.989614 57666.377375 
L 311.989614 295.488 
L 311.220746 295.488 
z
" clip-path="url(#p3339b0d4c7)" style="fill: #1f77b4"/>
   </g>
   <g id="patch_206">
    <path d="M 310.259661 57666.377375 
L 311.028529 57666.377375 
L 311.028529 278.217641 
L 310.259661 278.217641 
z
" clip-path="url(#p3339b0d4c7)" style="fill: #1f77b4"/>
   </g>
   <g id="patch_207">
    <path d="M 319.870512 57666.377375 
L 320.63938 57666.377375 
L 320.63938 295.488 
L 319.870512 295.488 
z
" clip-path="url(#p3339b0d4c7)" style="fill: #1f77b4"/>
   </g>
   <g id="patch_208">
    <path d="M 300.64881 57666.377375 
L 301.417678 57666.377375 
L 301.417678 278.217641 
L 300.64881 278.217641 
z
" clip-path="url(#p3339b0d4c7)" style="fill: #1f77b4"/>
   </g>
   <g id="patch_209">
    <path d="M 235.295023 57666.377375 
L 236.063891 57666.377375 
L 236.063891 268.115129 
L 235.295023 268.115129 
z
" clip-path="url(#p3339b0d4c7)" style="fill: #1f77b4"/>
   </g>
   <g id="patch_210">
    <path d="M 261.244321 57666.377375 
L 262.013189 57666.377375 
L 262.013189 295.488 
L 261.244321 295.488 
z
" clip-path="url(#p3339b0d4c7)" style="fill: #1f77b4"/>
   </g>
   <g id="patch_211">
    <path d="M 356.391746 57666.377375 
L 357.160614 57666.377375 
L 357.160614 295.488 
L 356.391746 295.488 
z
" clip-path="url(#p3339b0d4c7)" style="fill: #1f77b4"/>
   </g>
   <g id="patch_212">
    <path d="M 291.037959 57666.377375 
L 291.806827 57666.377375 
L 291.806827 268.115129 
L 291.037959 268.115129 
z
" clip-path="url(#p3339b0d4c7)" style="fill: #1f77b4"/>
   </g>
   <g id="patch_213">
    <path d="M 260.283236 57666.377375 
L 261.052104 57666.377375 
L 261.052104 295.488 
L 260.283236 295.488 
z
" clip-path="url(#p3339b0d4c7)" style="fill: #1f77b4"/>
   </g>
   <g id="patch_214">
    <path d="M 254.516725 57666.377375 
L 255.285593 57666.377375 
L 255.285593 268.115129 
L 254.516725 268.115129 
z
" clip-path="url(#p3339b0d4c7)" style="fill: #1f77b4"/>
   </g>
   <g id="patch_215">
    <path d="M 297.765555 57666.377375 
L 298.534423 57666.377375 
L 298.534423 278.217641 
L 297.765555 278.217641 
z
" clip-path="url(#p3339b0d4c7)" style="fill: #1f77b4"/>
   </g>
   <g id="patch_216">
    <path d="M 282.388193 57666.377375 
L 283.157061 57666.377375 
L 283.157061 268.115129 
L 282.388193 268.115129 
z
" clip-path="url(#p3339b0d4c7)" style="fill: #1f77b4"/>
   </g>
   <g id="patch_217">
    <path d="M 371.769107 57666.377375 
L 372.537975 57666.377375 
L 372.537975 295.488 
L 371.769107 295.488 
z
" clip-path="url(#p3339b0d4c7)" style="fill: #1f77b4"/>
   </g>
   <g id="patch_218">
    <path d="M 280.466023 57666.377375 
L 281.234891 57666.377375 
L 281.234891 295.488 
L 280.466023 295.488 
z
" clip-path="url(#p3339b0d4c7)" style="fill: #1f77b4"/>
   </g>
   <g id="patch_219">
    <path d="M 346.780895 57666.377375 
L 347.549763 57666.377375 
L 347.549763 295.488 
L 346.780895 295.488 
z
" clip-path="url(#p3339b0d4c7)" style="fill: #1f77b4"/>
   </g>
   <g id="patch_220">
    <path d="M 264.127576 57666.377375 
L 264.896444 57666.377375 
L 264.896444 278.217641 
L 264.127576 278.217641 
z
" clip-path="url(#p3339b0d4c7)" style="fill: #1f77b4"/>
   </g>
   <g id="patch_221">
    <path d="M 237.217194 57666.377375 
L 237.986062 57666.377375 
L 237.986062 268.115129 
L 237.217194 268.115129 
z
" clip-path="url(#p3339b0d4c7)" style="fill: #1f77b4"/>
   </g>
   <g id="patch_222">
    <path d="M 291.999044 57666.377375 
L 292.767912 57666.377375 
L 292.767912 295.488 
L 291.999044 295.488 
z
" clip-path="url(#p3339b0d4c7)" style="fill: #1f77b4"/>
   </g>
   <g id="patch_223">
    <path d="M 337.170044 57666.377375 
L 337.938912 57666.377375 
L 337.938912 295.488 
L 337.170044 295.488 
z
" clip-path="url(#p3339b0d4c7)" style="fill: #1f77b4"/>
   </g>
   <g id="patch_224">
    <path d="M 289.115789 57666.377375 
L 289.884657 57666.377375 
L 289.884657 295.488 
L 289.115789 295.488 
z
" clip-path="url(#p3339b0d4c7)" style="fill: #1f77b4"/>
   </g>
   <g id="patch_225">
    <path d="M 288.154704 57666.377375 
L 288.923572 57666.377375 
L 288.923572 295.488 
L 288.154704 295.488 
z
" clip-path="url(#p3339b0d4c7)" style="fill: #1f77b4"/>
   </g>
   <g id="patch_226">
    <path d="M 269.894087 57666.377375 
L 270.662955 57666.377375 
L 270.662955 278.217641 
L 269.894087 278.217641 
z
" clip-path="url(#p3339b0d4c7)" style="fill: #1f77b4"/>
   </g>
   <g id="patch_227">
    <path d="M 293.921214 57666.377375 
L 294.690082 57666.377375 
L 294.690082 295.488 
L 293.921214 295.488 
z
" clip-path="url(#p3339b0d4c7)" style="fill: #1f77b4"/>
   </g>
   <g id="patch_228">
    <path d="M 272.777342 57666.377375 
L 273.54621 57666.377375 
L 273.54621 295.488 
L 272.777342 295.488 
z
" clip-path="url(#p3339b0d4c7)" style="fill: #1f77b4"/>
   </g>
   <g id="patch_229">
    <path d="M 324.675937 57666.377375 
L 325.444805 57666.377375 
L 325.444805 295.488 
L 324.675937 295.488 
z
" clip-path="url(#p3339b0d4c7)" style="fill: #1f77b4"/>
   </g>
   <g id="patch_230">
    <path d="M 220.878747 57666.377375 
L 221.647615 57666.377375 
L 221.647615 278.217641 
L 220.878747 278.217641 
z
" clip-path="url(#p3339b0d4c7)" style="fill: #1f77b4"/>
   </g>
   <g id="patch_231">
    <path d="M 294.882299 57666.377375 
L 295.651167 57666.377375 
L 295.651167 295.488 
L 294.882299 295.488 
z
" clip-path="url(#p3339b0d4c7)" style="fill: #1f77b4"/>
   </g>
   <g id="patch_232">
    <path d="M 354.469575 57666.377375 
L 355.238443 57666.377375 
L 355.238443 295.488 
L 354.469575 295.488 
z
" clip-path="url(#p3339b0d4c7)" style="fill: #1f77b4"/>
   </g>
   <g id="patch_233">
    <path d="M 287.193619 57666.377375 
L 287.962487 57666.377375 
L 287.962487 295.488 
L 287.193619 295.488 
z
" clip-path="url(#p3339b0d4c7)" style="fill: #1f77b4"/>
   </g>
   <g id="patch_234">
    <path d="M 339.092214 57666.377375 
L 339.861082 57666.377375 
L 339.861082 278.217641 
L 339.092214 278.217641 
z
" clip-path="url(#p3339b0d4c7)" style="fill: #1f77b4"/>
   </g>
   <g id="patch_235">
    <path d="M 315.065086 57666.377375 
L 315.833954 57666.377375 
L 315.833954 278.217641 
L 315.065086 278.217641 
z
" clip-path="url(#p3339b0d4c7)" style="fill: #1f77b4"/>
   </g>
   <g id="patch_236">
    <path d="M 343.897639 57666.377375 
L 344.666507 57666.377375 
L 344.666507 295.488 
L 343.897639 295.488 
z
" clip-path="url(#p3339b0d4c7)" style="fill: #1f77b4"/>
   </g>
   <g id="patch_237">
    <path d="M 251.63347 57666.377375 
L 252.402338 57666.377375 
L 252.402338 295.488 
L 251.63347 295.488 
z
" clip-path="url(#p3339b0d4c7)" style="fill: #1f77b4"/>
   </g>
   <g id="patch_238">
    <path d="M 296.80447 57666.377375 
L 297.573338 57666.377375 
L 297.573338 278.217641 
L 296.80447 278.217641 
z
" clip-path="url(#p3339b0d4c7)" style="fill: #1f77b4"/>
   </g>
   <g id="patch_239">
    <path d="M 271.816257 57666.377375 
L 272.585125 57666.377375 
L 272.585125 295.488 
L 271.816257 295.488 
z
" clip-path="url(#p3339b0d4c7)" style="fill: #1f77b4"/>
   </g>
   <g id="patch_240">
    <path d="M 374.652362 57666.377375 
L 375.42123 57666.377375 
L 375.42123 295.488 
L 374.652362 295.488 
z
" clip-path="url(#p3339b0d4c7)" style="fill: #1f77b4"/>
   </g>
   <g id="patch_241">
    <path d="M 347.74198 57666.377375 
L 348.510848 57666.377375 
L 348.510848 295.488 
L 347.74198 295.488 
z
" clip-path="url(#p3339b0d4c7)" style="fill: #1f77b4"/>
   </g>
   <g id="patch_242">
    <path d="M 281.427108 57666.377375 
L 282.195976 57666.377375 
L 282.195976 295.488 
L 281.427108 295.488 
z
" clip-path="url(#p3339b0d4c7)" style="fill: #1f77b4"/>
   </g>
   <g id="patch_243">
    <path d="M 243.944789 57666.377375 
L 244.713657 57666.377375 
L 244.713657 278.217641 
L 243.944789 278.217641 
z
" clip-path="url(#p3339b0d4c7)" style="fill: #1f77b4"/>
   </g>
   <g id="patch_244">
    <path d="M 267.010832 57666.377375 
L 267.7797 57666.377375 
L 267.7797 295.488 
L 267.010832 295.488 
z
" clip-path="url(#p3339b0d4c7)" style="fill: #1f77b4"/>
   </g>
   <g id="patch_245">
    <path d="M 325.637022 57666.377375 
L 326.405891 57666.377375 
L 326.405891 295.488 
L 325.637022 295.488 
z
" clip-path="url(#p3339b0d4c7)" style="fill: #1f77b4"/>
   </g>
   <g id="patch_246">
    <path d="M 382.341043 57666.377375 
L 383.109911 57666.377375 
L 383.109911 295.488 
L 382.341043 295.488 
z
" clip-path="url(#p3339b0d4c7)" style="fill: #1f77b4"/>
   </g>
   <g id="patch_247">
    <path d="M 278.543853 57666.377375 
L 279.312721 57666.377375 
L 279.312721 295.488 
L 278.543853 295.488 
z
" clip-path="url(#p3339b0d4c7)" style="fill: #1f77b4"/>
   </g>
   <g id="patch_248">
    <path d="M 364.080426 57666.377375 
L 364.849294 57666.377375 
L 364.849294 295.488 
L 364.080426 295.488 
z
" clip-path="url(#p3339b0d4c7)" style="fill: #1f77b4"/>
   </g>
   <g id="patch_249">
    <path d="M 397.718405 57666.377375 
L 398.487273 57666.377375 
L 398.487273 295.488 
L 397.718405 295.488 
z
" clip-path="url(#p3339b0d4c7)" style="fill: #1f77b4"/>
   </g>
   <g id="patch_250">
    <path d="M 257.399981 57666.377375 
L 258.168849 57666.377375 
L 258.168849 295.488 
L 257.399981 295.488 
z
" clip-path="url(#p3339b0d4c7)" style="fill: #1f77b4"/>
   </g>
   <g id="patch_251">
    <path d="M 393.874064 57666.377375 
L 394.642932 57666.377375 
L 394.642932 295.488 
L 393.874064 295.488 
z
" clip-path="url(#p3339b0d4c7)" style="fill: #1f77b4"/>
   </g>
   <g id="patch_252">
    <path d="M 283.349278 57666.377375 
L 284.118146 57666.377375 
L 284.118146 295.488 
L 283.349278 295.488 
z
" clip-path="url(#p3339b0d4c7)" style="fill: #1f77b4"/>
   </g>
   <g id="patch_253">
    <path d="M 352.547405 57666.377375 
L 353.316273 57666.377375 
L 353.316273 295.488 
L 352.547405 295.488 
z
" clip-path="url(#p3339b0d4c7)" style="fill: #1f77b4"/>
   </g>
   <g id="matplotlib.axis_1">
    <g id="xtick_1">
     <g id="line2d_1">
      <defs>
       <path id="mde5bd8e7d6" d="M 0 0 
L 0 3.5 
" style="stroke: #000000; stroke-width: 0.8"/>
      </defs>
      <g>
       <use xlink:href="#mde5bd8e7d6" x="74.217161" y="307.584" style="stroke: #000000; stroke-width: 0.8"/>
      </g>
     </g>
     <g id="text_1">
      <!-- 0 -->
      <g transform="translate(71.035911 322.182437) scale(0.1 -0.1)">
       <defs>
        <path id="DejaVuSans-30" d="M 2034 4250 
Q 1547 4250 1301 3770 
Q 1056 3291 1056 2328 
Q 1056 1369 1301 889 
Q 1547 409 2034 409 
Q 2525 409 2770 889 
Q 3016 1369 3016 2328 
Q 3016 3291 2770 3770 
Q 2525 4250 2034 4250 
z
M 2034 4750 
Q 2819 4750 3233 4129 
Q 3647 3509 3647 2328 
Q 3647 1150 3233 529 
Q 2819 -91 2034 -91 
Q 1250 -91 836 529 
Q 422 1150 422 2328 
Q 422 3509 836 4129 
Q 1250 4750 2034 4750 
z
" transform="scale(0.015625)"/>
       </defs>
       <use xlink:href="#DejaVuSans-30"/>
      </g>
     </g>
    </g>
    <g id="xtick_2">
     <g id="line2d_2">
      <g>
       <use xlink:href="#mde5bd8e7d6" x="122.271416" y="307.584" style="stroke: #000000; stroke-width: 0.8"/>
      </g>
     </g>
     <g id="text_2">
      <!-- 50 -->
      <g transform="translate(115.908916 322.182437) scale(0.1 -0.1)">
       <defs>
        <path id="DejaVuSans-35" d="M 691 4666 
L 3169 4666 
L 3169 4134 
L 1269 4134 
L 1269 2991 
Q 1406 3038 1543 3061 
Q 1681 3084 1819 3084 
Q 2600 3084 3056 2656 
Q 3513 2228 3513 1497 
Q 3513 744 3044 326 
Q 2575 -91 1722 -91 
Q 1428 -91 1123 -41 
Q 819 9 494 109 
L 494 744 
Q 775 591 1075 516 
Q 1375 441 1709 441 
Q 2250 441 2565 725 
Q 2881 1009 2881 1497 
Q 2881 1984 2565 2268 
Q 2250 2553 1709 2553 
Q 1456 2553 1204 2497 
Q 953 2441 691 2322 
L 691 4666 
z
" transform="scale(0.015625)"/>
       </defs>
       <use xlink:href="#DejaVuSans-35"/>
       <use xlink:href="#DejaVuSans-30" x="63.623047"/>
      </g>
     </g>
    </g>
    <g id="xtick_3">
     <g id="line2d_3">
      <g>
       <use xlink:href="#mde5bd8e7d6" x="170.325671" y="307.584" style="stroke: #000000; stroke-width: 0.8"/>
      </g>
     </g>
     <g id="text_3">
      <!-- 100 -->
      <g transform="translate(160.781921 322.182437) scale(0.1 -0.1)">
       <defs>
        <path id="DejaVuSans-31" d="M 794 531 
L 1825 531 
L 1825 4091 
L 703 3866 
L 703 4441 
L 1819 4666 
L 2450 4666 
L 2450 531 
L 3481 531 
L 3481 0 
L 794 0 
L 794 531 
z
" transform="scale(0.015625)"/>
       </defs>
       <use xlink:href="#DejaVuSans-31"/>
       <use xlink:href="#DejaVuSans-30" x="63.623047"/>
       <use xlink:href="#DejaVuSans-30" x="127.246094"/>
      </g>
     </g>
    </g>
    <g id="xtick_4">
     <g id="line2d_4">
      <g>
       <use xlink:href="#mde5bd8e7d6" x="218.379926" y="307.584" style="stroke: #000000; stroke-width: 0.8"/>
      </g>
     </g>
     <g id="text_4">
      <!-- 150 -->
      <g transform="translate(208.836176 322.182437) scale(0.1 -0.1)">
       <use xlink:href="#DejaVuSans-31"/>
       <use xlink:href="#DejaVuSans-35" x="63.623047"/>
       <use xlink:href="#DejaVuSans-30" x="127.246094"/>
      </g>
     </g>
    </g>
    <g id="xtick_5">
     <g id="line2d_5">
      <g>
       <use xlink:href="#mde5bd8e7d6" x="266.434181" y="307.584" style="stroke: #000000; stroke-width: 0.8"/>
      </g>
     </g>
     <g id="text_5">
      <!-- 200 -->
      <g transform="translate(256.890431 322.182437) scale(0.1 -0.1)">
       <defs>
        <path id="DejaVuSans-32" d="M 1228 531 
L 3431 531 
L 3431 0 
L 469 0 
L 469 531 
Q 828 903 1448 1529 
Q 2069 2156 2228 2338 
Q 2531 2678 2651 2914 
Q 2772 3150 2772 3378 
Q 2772 3750 2511 3984 
Q 2250 4219 1831 4219 
Q 1534 4219 1204 4116 
Q 875 4013 500 3803 
L 500 4441 
Q 881 4594 1212 4672 
Q 1544 4750 1819 4750 
Q 2544 4750 2975 4387 
Q 3406 4025 3406 3419 
Q 3406 3131 3298 2873 
Q 3191 2616 2906 2266 
Q 2828 2175 2409 1742 
Q 1991 1309 1228 531 
z
" transform="scale(0.015625)"/>
       </defs>
       <use xlink:href="#DejaVuSans-32"/>
       <use xlink:href="#DejaVuSans-30" x="63.623047"/>
       <use xlink:href="#DejaVuSans-30" x="127.246094"/>
      </g>
     </g>
    </g>
    <g id="xtick_6">
     <g id="line2d_6">
      <g>
       <use xlink:href="#mde5bd8e7d6" x="314.488435" y="307.584" style="stroke: #000000; stroke-width: 0.8"/>
      </g>
     </g>
     <g id="text_6">
      <!-- 250 -->
      <g transform="translate(304.944685 322.182437) scale(0.1 -0.1)">
       <use xlink:href="#DejaVuSans-32"/>
       <use xlink:href="#DejaVuSans-35" x="63.623047"/>
       <use xlink:href="#DejaVuSans-30" x="127.246094"/>
      </g>
     </g>
    </g>
    <g id="xtick_7">
     <g id="line2d_7">
      <g>
       <use xlink:href="#mde5bd8e7d6" x="362.54269" y="307.584" style="stroke: #000000; stroke-width: 0.8"/>
      </g>
     </g>
     <g id="text_7">
      <!-- 300 -->
      <g transform="translate(352.99894 322.182437) scale(0.1 -0.1)">
       <defs>
        <path id="DejaVuSans-33" d="M 2597 2516 
Q 3050 2419 3304 2112 
Q 3559 1806 3559 1356 
Q 3559 666 3084 287 
Q 2609 -91 1734 -91 
Q 1441 -91 1130 -33 
Q 819 25 488 141 
L 488 750 
Q 750 597 1062 519 
Q 1375 441 1716 441 
Q 2309 441 2620 675 
Q 2931 909 2931 1356 
Q 2931 1769 2642 2001 
Q 2353 2234 1838 2234 
L 1294 2234 
L 1294 2753 
L 1863 2753 
Q 2328 2753 2575 2939 
Q 2822 3125 2822 3475 
Q 2822 3834 2567 4026 
Q 2313 4219 1838 4219 
Q 1578 4219 1281 4162 
Q 984 4106 628 3988 
L 628 4550 
Q 988 4650 1302 4700 
Q 1616 4750 1894 4750 
Q 2613 4750 3031 4423 
Q 3450 4097 3450 3541 
Q 3450 3153 3228 2886 
Q 3006 2619 2597 2516 
z
" transform="scale(0.015625)"/>
       </defs>
       <use xlink:href="#DejaVuSans-33"/>
       <use xlink:href="#DejaVuSans-30" x="63.623047"/>
       <use xlink:href="#DejaVuSans-30" x="127.246094"/>
      </g>
     </g>
    </g>
    <g id="xtick_8">
     <g id="line2d_8">
      <g>
       <use xlink:href="#mde5bd8e7d6" x="410.596945" y="307.584" style="stroke: #000000; stroke-width: 0.8"/>
      </g>
     </g>
     <g id="text_8">
      <!-- 350 -->
      <g transform="translate(401.053195 322.182437) scale(0.1 -0.1)">
       <use xlink:href="#DejaVuSans-33"/>
       <use xlink:href="#DejaVuSans-35" x="63.623047"/>
       <use xlink:href="#DejaVuSans-30" x="127.246094"/>
      </g>
     </g>
    </g>
    <g id="text_9">
     <!-- Depth of Element -->
     <g transform="translate(192.231875 335.860562) scale(0.1 -0.1)">
      <defs>
       <path id="DejaVuSans-44" d="M 1259 4147 
L 1259 519 
L 2022 519 
Q 2988 519 3436 956 
Q 3884 1394 3884 2338 
Q 3884 3275 3436 3711 
Q 2988 4147 2022 4147 
L 1259 4147 
z
M 628 4666 
L 1925 4666 
Q 3281 4666 3915 4102 
Q 4550 3538 4550 2338 
Q 4550 1131 3912 565 
Q 3275 0 1925 0 
L 628 0 
L 628 4666 
z
" transform="scale(0.015625)"/>
       <path id="DejaVuSans-65" d="M 3597 1894 
L 3597 1613 
L 953 1613 
Q 991 1019 1311 708 
Q 1631 397 2203 397 
Q 2534 397 2845 478 
Q 3156 559 3463 722 
L 3463 178 
Q 3153 47 2828 -22 
Q 2503 -91 2169 -91 
Q 1331 -91 842 396 
Q 353 884 353 1716 
Q 353 2575 817 3079 
Q 1281 3584 2069 3584 
Q 2775 3584 3186 3129 
Q 3597 2675 3597 1894 
z
M 3022 2063 
Q 3016 2534 2758 2815 
Q 2500 3097 2075 3097 
Q 1594 3097 1305 2825 
Q 1016 2553 972 2059 
L 3022 2063 
z
" transform="scale(0.015625)"/>
       <path id="DejaVuSans-70" d="M 1159 525 
L 1159 -1331 
L 581 -1331 
L 581 3500 
L 1159 3500 
L 1159 2969 
Q 1341 3281 1617 3432 
Q 1894 3584 2278 3584 
Q 2916 3584 3314 3078 
Q 3713 2572 3713 1747 
Q 3713 922 3314 415 
Q 2916 -91 2278 -91 
Q 1894 -91 1617 61 
Q 1341 213 1159 525 
z
M 3116 1747 
Q 3116 2381 2855 2742 
Q 2594 3103 2138 3103 
Q 1681 3103 1420 2742 
Q 1159 2381 1159 1747 
Q 1159 1113 1420 752 
Q 1681 391 2138 391 
Q 2594 391 2855 752 
Q 3116 1113 3116 1747 
z
" transform="scale(0.015625)"/>
       <path id="DejaVuSans-74" d="M 1172 4494 
L 1172 3500 
L 2356 3500 
L 2356 3053 
L 1172 3053 
L 1172 1153 
Q 1172 725 1289 603 
Q 1406 481 1766 481 
L 2356 481 
L 2356 0 
L 1766 0 
Q 1100 0 847 248 
Q 594 497 594 1153 
L 594 3053 
L 172 3053 
L 172 3500 
L 594 3500 
L 594 4494 
L 1172 4494 
z
" transform="scale(0.015625)"/>
       <path id="DejaVuSans-68" d="M 3513 2113 
L 3513 0 
L 2938 0 
L 2938 2094 
Q 2938 2591 2744 2837 
Q 2550 3084 2163 3084 
Q 1697 3084 1428 2787 
Q 1159 2491 1159 1978 
L 1159 0 
L 581 0 
L 581 4863 
L 1159 4863 
L 1159 2956 
Q 1366 3272 1645 3428 
Q 1925 3584 2291 3584 
Q 2894 3584 3203 3211 
Q 3513 2838 3513 2113 
z
" transform="scale(0.015625)"/>
       <path id="DejaVuSans-20" transform="scale(0.015625)"/>
       <path id="DejaVuSans-6f" d="M 1959 3097 
Q 1497 3097 1228 2736 
Q 959 2375 959 1747 
Q 959 1119 1226 758 
Q 1494 397 1959 397 
Q 2419 397 2687 759 
Q 2956 1122 2956 1747 
Q 2956 2369 2687 2733 
Q 2419 3097 1959 3097 
z
M 1959 3584 
Q 2709 3584 3137 3096 
Q 3566 2609 3566 1747 
Q 3566 888 3137 398 
Q 2709 -91 1959 -91 
Q 1206 -91 779 398 
Q 353 888 353 1747 
Q 353 2609 779 3096 
Q 1206 3584 1959 3584 
z
" transform="scale(0.015625)"/>
       <path id="DejaVuSans-66" d="M 2375 4863 
L 2375 4384 
L 1825 4384 
Q 1516 4384 1395 4259 
Q 1275 4134 1275 3809 
L 1275 3500 
L 2222 3500 
L 2222 3053 
L 1275 3053 
L 1275 0 
L 697 0 
L 697 3053 
L 147 3053 
L 147 3500 
L 697 3500 
L 697 3744 
Q 697 4328 969 4595 
Q 1241 4863 1831 4863 
L 2375 4863 
z
" transform="scale(0.015625)"/>
       <path id="DejaVuSans-45" d="M 628 4666 
L 3578 4666 
L 3578 4134 
L 1259 4134 
L 1259 2753 
L 3481 2753 
L 3481 2222 
L 1259 2222 
L 1259 531 
L 3634 531 
L 3634 0 
L 628 0 
L 628 4666 
z
" transform="scale(0.015625)"/>
       <path id="DejaVuSans-6c" d="M 603 4863 
L 1178 4863 
L 1178 0 
L 603 0 
L 603 4863 
z
" transform="scale(0.015625)"/>
       <path id="DejaVuSans-6d" d="M 3328 2828 
Q 3544 3216 3844 3400 
Q 4144 3584 4550 3584 
Q 5097 3584 5394 3201 
Q 5691 2819 5691 2113 
L 5691 0 
L 5113 0 
L 5113 2094 
Q 5113 2597 4934 2840 
Q 4756 3084 4391 3084 
Q 3944 3084 3684 2787 
Q 3425 2491 3425 1978 
L 3425 0 
L 2847 0 
L 2847 2094 
Q 2847 2600 2669 2842 
Q 2491 3084 2119 3084 
Q 1678 3084 1418 2786 
Q 1159 2488 1159 1978 
L 1159 0 
L 581 0 
L 581 3500 
L 1159 3500 
L 1159 2956 
Q 1356 3278 1631 3431 
Q 1906 3584 2284 3584 
Q 2666 3584 2933 3390 
Q 3200 3197 3328 2828 
z
" transform="scale(0.015625)"/>
       <path id="DejaVuSans-6e" d="M 3513 2113 
L 3513 0 
L 2938 0 
L 2938 2094 
Q 2938 2591 2744 2837 
Q 2550 3084 2163 3084 
Q 1697 3084 1428 2787 
Q 1159 2491 1159 1978 
L 1159 0 
L 581 0 
L 581 3500 
L 1159 3500 
L 1159 2956 
Q 1366 3272 1645 3428 
Q 1925 3584 2291 3584 
Q 2894 3584 3203 3211 
Q 3513 2838 3513 2113 
z
" transform="scale(0.015625)"/>
      </defs>
      <use xlink:href="#DejaVuSans-44"/>
      <use xlink:href="#DejaVuSans-65" x="77.001953"/>
      <use xlink:href="#DejaVuSans-70" x="138.525391"/>
      <use xlink:href="#DejaVuSans-74" x="202.001953"/>
      <use xlink:href="#DejaVuSans-68" x="241.210938"/>
      <use xlink:href="#DejaVuSans-20" x="304.589844"/>
      <use xlink:href="#DejaVuSans-6f" x="336.376953"/>
      <use xlink:href="#DejaVuSans-66" x="397.558594"/>
      <use xlink:href="#DejaVuSans-20" x="432.763672"/>
      <use xlink:href="#DejaVuSans-45" x="464.550781"/>
      <use xlink:href="#DejaVuSans-6c" x="527.734375"/>
      <use xlink:href="#DejaVuSans-65" x="555.517578"/>
      <use xlink:href="#DejaVuSans-6d" x="617.041016"/>
      <use xlink:href="#DejaVuSans-65" x="714.453125"/>
      <use xlink:href="#DejaVuSans-6e" x="775.976562"/>
      <use xlink:href="#DejaVuSans-74" x="839.355469"/>
     </g>
    </g>
   </g>
   <g id="matplotlib.axis_2">
    <g id="ytick_1">
     <g id="line2d_9">
      <defs>
       <path id="m1c9124e0e0" d="M 0 0 
L -3.5 0 
" style="stroke: #000000; stroke-width: 0.8"/>
      </defs>
      <g>
       <use xlink:href="#m1c9124e0e0" x="57.6" y="295.488" style="stroke: #000000; stroke-width: 0.8"/>
      </g>
     </g>
     <g id="text_10">
      <!-- $\mathdefault{10^{0}}$ -->
      <g transform="translate(33 299.287219) scale(0.1 -0.1)">
       <use xlink:href="#DejaVuSans-31" transform="translate(0 0.765625)"/>
       <use xlink:href="#DejaVuSans-30" transform="translate(63.623047 0.765625)"/>
       <use xlink:href="#DejaVuSans-30" transform="translate(128.203125 39.046875) scale(0.7)"/>
      </g>
     </g>
    </g>
    <g id="ytick_2">
     <g id="line2d_10">
      <g>
       <use xlink:href="#m1c9124e0e0" x="57.6" y="238.117111" style="stroke: #000000; stroke-width: 0.8"/>
      </g>
     </g>
     <g id="text_11">
      <!-- $\mathdefault{10^{1}}$ -->
      <g transform="translate(33 241.916329) scale(0.1 -0.1)">
       <use xlink:href="#DejaVuSans-31" transform="translate(0 0.684375)"/>
       <use xlink:href="#DejaVuSans-30" transform="translate(63.623047 0.684375)"/>
       <use xlink:href="#DejaVuSans-31" transform="translate(128.203125 38.965625) scale(0.7)"/>
      </g>
     </g>
    </g>
    <g id="ytick_3">
     <g id="line2d_11">
      <g>
       <use xlink:href="#m1c9124e0e0" x="57.6" y="180.746221" style="stroke: #000000; stroke-width: 0.8"/>
      </g>
     </g>
     <g id="text_12">
      <!-- $\mathdefault{10^{2}}$ -->
      <g transform="translate(33 184.54544) scale(0.1 -0.1)">
       <use xlink:href="#DejaVuSans-31" transform="translate(0 0.765625)"/>
       <use xlink:href="#DejaVuSans-30" transform="translate(63.623047 0.765625)"/>
       <use xlink:href="#DejaVuSans-32" transform="translate(128.203125 39.046875) scale(0.7)"/>
      </g>
     </g>
    </g>
    <g id="ytick_4">
     <g id="line2d_12">
      <g>
       <use xlink:href="#m1c9124e0e0" x="57.6" y="123.375332" style="stroke: #000000; stroke-width: 0.8"/>
      </g>
     </g>
     <g id="text_13">
      <!-- $\mathdefault{10^{3}}$ -->
      <g transform="translate(33 127.174551) scale(0.1 -0.1)">
       <use xlink:href="#DejaVuSans-31" transform="translate(0 0.765625)"/>
       <use xlink:href="#DejaVuSans-30" transform="translate(63.623047 0.765625)"/>
       <use xlink:href="#DejaVuSans-33" transform="translate(128.203125 39.046875) scale(0.7)"/>
      </g>
     </g>
    </g>
    <g id="ytick_5">
     <g id="line2d_13">
      <g>
       <use xlink:href="#m1c9124e0e0" x="57.6" y="66.004443" style="stroke: #000000; stroke-width: 0.8"/>
      </g>
     </g>
     <g id="text_14">
      <!-- $\mathdefault{10^{4}}$ -->
      <g transform="translate(33 69.803661) scale(0.1 -0.1)">
       <defs>
        <path id="DejaVuSans-34" d="M 2419 4116 
L 825 1625 
L 2419 1625 
L 2419 4116 
z
M 2253 4666 
L 3047 4666 
L 3047 1625 
L 3713 1625 
L 3713 1100 
L 3047 1100 
L 3047 0 
L 2419 0 
L 2419 1100 
L 313 1100 
L 313 1709 
L 2253 4666 
z
" transform="scale(0.015625)"/>
       </defs>
       <use xlink:href="#DejaVuSans-31" transform="translate(0 0.684375)"/>
       <use xlink:href="#DejaVuSans-30" transform="translate(63.623047 0.684375)"/>
       <use xlink:href="#DejaVuSans-34" transform="translate(128.203125 38.965625) scale(0.7)"/>
      </g>
     </g>
    </g>
    <g id="ytick_6">
     <g id="line2d_14">
      <defs>
       <path id="mdaa9fc80ed" d="M 0 0 
L -2 0 
" style="stroke: #000000; stroke-width: 0.6"/>
      </defs>
      <g>
       <use xlink:href="#mdaa9fc80ed" x="57.6" y="304.374863" style="stroke: #000000; stroke-width: 0.6"/>
      </g>
     </g>
    </g>
    <g id="ytick_7">
     <g id="line2d_15">
      <g>
       <use xlink:href="#mdaa9fc80ed" x="57.6" y="301.047814" style="stroke: #000000; stroke-width: 0.6"/>
      </g>
     </g>
    </g>
    <g id="ytick_8">
     <g id="line2d_16">
      <g>
       <use xlink:href="#mdaa9fc80ed" x="57.6" y="298.113148" style="stroke: #000000; stroke-width: 0.6"/>
      </g>
     </g>
    </g>
    <g id="ytick_9">
     <g id="line2d_17">
      <g>
       <use xlink:href="#mdaa9fc80ed" x="57.6" y="278.217641" style="stroke: #000000; stroke-width: 0.6"/>
      </g>
     </g>
    </g>
    <g id="ytick_10">
     <g id="line2d_18">
      <g>
       <use xlink:href="#mdaa9fc80ed" x="57.6" y="268.115129" style="stroke: #000000; stroke-width: 0.6"/>
      </g>
     </g>
    </g>
    <g id="ytick_11">
     <g id="line2d_19">
      <g>
       <use xlink:href="#mdaa9fc80ed" x="57.6" y="260.947283" style="stroke: #000000; stroke-width: 0.6"/>
      </g>
     </g>
    </g>
    <g id="ytick_12">
     <g id="line2d_20">
      <g>
       <use xlink:href="#mdaa9fc80ed" x="57.6" y="255.387469" style="stroke: #000000; stroke-width: 0.6"/>
      </g>
     </g>
    </g>
    <g id="ytick_13">
     <g id="line2d_21">
      <g>
       <use xlink:href="#mdaa9fc80ed" x="57.6" y="250.844771" style="stroke: #000000; stroke-width: 0.6"/>
      </g>
     </g>
    </g>
    <g id="ytick_14">
     <g id="line2d_22">
      <g>
       <use xlink:href="#mdaa9fc80ed" x="57.6" y="247.003974" style="stroke: #000000; stroke-width: 0.6"/>
      </g>
     </g>
    </g>
    <g id="ytick_15">
     <g id="line2d_23">
      <g>
       <use xlink:href="#mdaa9fc80ed" x="57.6" y="243.676924" style="stroke: #000000; stroke-width: 0.6"/>
      </g>
     </g>
    </g>
    <g id="ytick_16">
     <g id="line2d_24">
      <g>
       <use xlink:href="#mdaa9fc80ed" x="57.6" y="240.742259" style="stroke: #000000; stroke-width: 0.6"/>
      </g>
     </g>
    </g>
    <g id="ytick_17">
     <g id="line2d_25">
      <g>
       <use xlink:href="#mdaa9fc80ed" x="57.6" y="220.846752" style="stroke: #000000; stroke-width: 0.6"/>
      </g>
     </g>
    </g>
    <g id="ytick_18">
     <g id="line2d_26">
      <g>
       <use xlink:href="#mdaa9fc80ed" x="57.6" y="210.74424" style="stroke: #000000; stroke-width: 0.6"/>
      </g>
     </g>
    </g>
    <g id="ytick_19">
     <g id="line2d_27">
      <g>
       <use xlink:href="#mdaa9fc80ed" x="57.6" y="203.576393" style="stroke: #000000; stroke-width: 0.6"/>
      </g>
     </g>
    </g>
    <g id="ytick_20">
     <g id="line2d_28">
      <g>
       <use xlink:href="#mdaa9fc80ed" x="57.6" y="198.01658" style="stroke: #000000; stroke-width: 0.6"/>
      </g>
     </g>
    </g>
    <g id="ytick_21">
     <g id="line2d_29">
      <g>
       <use xlink:href="#mdaa9fc80ed" x="57.6" y="193.473881" style="stroke: #000000; stroke-width: 0.6"/>
      </g>
     </g>
    </g>
    <g id="ytick_22">
     <g id="line2d_30">
      <g>
       <use xlink:href="#mdaa9fc80ed" x="57.6" y="189.633084" style="stroke: #000000; stroke-width: 0.6"/>
      </g>
     </g>
    </g>
    <g id="ytick_23">
     <g id="line2d_31">
      <g>
       <use xlink:href="#mdaa9fc80ed" x="57.6" y="186.306035" style="stroke: #000000; stroke-width: 0.6"/>
      </g>
     </g>
    </g>
    <g id="ytick_24">
     <g id="line2d_32">
      <g>
       <use xlink:href="#mdaa9fc80ed" x="57.6" y="183.371369" style="stroke: #000000; stroke-width: 0.6"/>
      </g>
     </g>
    </g>
    <g id="ytick_25">
     <g id="line2d_33">
      <g>
       <use xlink:href="#mdaa9fc80ed" x="57.6" y="163.475863" style="stroke: #000000; stroke-width: 0.6"/>
      </g>
     </g>
    </g>
    <g id="ytick_26">
     <g id="line2d_34">
      <g>
       <use xlink:href="#mdaa9fc80ed" x="57.6" y="153.373351" style="stroke: #000000; stroke-width: 0.6"/>
      </g>
     </g>
    </g>
    <g id="ytick_27">
     <g id="line2d_35">
      <g>
       <use xlink:href="#mdaa9fc80ed" x="57.6" y="146.205504" style="stroke: #000000; stroke-width: 0.6"/>
      </g>
     </g>
    </g>
    <g id="ytick_28">
     <g id="line2d_36">
      <g>
       <use xlink:href="#mdaa9fc80ed" x="57.6" y="140.64569" style="stroke: #000000; stroke-width: 0.6"/>
      </g>
     </g>
    </g>
    <g id="ytick_29">
     <g id="line2d_37">
      <g>
       <use xlink:href="#mdaa9fc80ed" x="57.6" y="136.102992" style="stroke: #000000; stroke-width: 0.6"/>
      </g>
     </g>
    </g>
    <g id="ytick_30">
     <g id="line2d_38">
      <g>
       <use xlink:href="#mdaa9fc80ed" x="57.6" y="132.262195" style="stroke: #000000; stroke-width: 0.6"/>
      </g>
     </g>
    </g>
    <g id="ytick_31">
     <g id="line2d_39">
      <g>
       <use xlink:href="#mdaa9fc80ed" x="57.6" y="128.935146" style="stroke: #000000; stroke-width: 0.6"/>
      </g>
     </g>
    </g>
    <g id="ytick_32">
     <g id="line2d_40">
      <g>
       <use xlink:href="#mdaa9fc80ed" x="57.6" y="126.00048" style="stroke: #000000; stroke-width: 0.6"/>
      </g>
     </g>
    </g>
    <g id="ytick_33">
     <g id="line2d_41">
      <g>
       <use xlink:href="#mdaa9fc80ed" x="57.6" y="106.104973" style="stroke: #000000; stroke-width: 0.6"/>
      </g>
     </g>
    </g>
    <g id="ytick_34">
     <g id="line2d_42">
      <g>
       <use xlink:href="#mdaa9fc80ed" x="57.6" y="96.002461" style="stroke: #000000; stroke-width: 0.6"/>
      </g>
     </g>
    </g>
    <g id="ytick_35">
     <g id="line2d_43">
      <g>
       <use xlink:href="#mdaa9fc80ed" x="57.6" y="88.834615" style="stroke: #000000; stroke-width: 0.6"/>
      </g>
     </g>
    </g>
    <g id="ytick_36">
     <g id="line2d_44">
      <g>
       <use xlink:href="#mdaa9fc80ed" x="57.6" y="83.274801" style="stroke: #000000; stroke-width: 0.6"/>
      </g>
     </g>
    </g>
    <g id="ytick_37">
     <g id="line2d_45">
      <g>
       <use xlink:href="#mdaa9fc80ed" x="57.6" y="78.732103" style="stroke: #000000; stroke-width: 0.6"/>
      </g>
     </g>
    </g>
    <g id="ytick_38">
     <g id="line2d_46">
      <g>
       <use xlink:href="#mdaa9fc80ed" x="57.6" y="74.891306" style="stroke: #000000; stroke-width: 0.6"/>
      </g>
     </g>
    </g>
    <g id="ytick_39">
     <g id="line2d_47">
      <g>
       <use xlink:href="#mdaa9fc80ed" x="57.6" y="71.564256" style="stroke: #000000; stroke-width: 0.6"/>
      </g>
     </g>
    </g>
    <g id="ytick_40">
     <g id="line2d_48">
      <g>
       <use xlink:href="#mdaa9fc80ed" x="57.6" y="68.62959" style="stroke: #000000; stroke-width: 0.6"/>
      </g>
     </g>
    </g>
    <g id="ytick_41">
     <g id="line2d_49">
      <g>
       <use xlink:href="#mdaa9fc80ed" x="57.6" y="48.734084" style="stroke: #000000; stroke-width: 0.6"/>
      </g>
     </g>
    </g>
    <g id="text_15">
     <!-- Number of Elements -->
     <g transform="translate(26.920312 225.917062) rotate(-90) scale(0.1 -0.1)">
      <defs>
       <path id="DejaVuSans-4e" d="M 628 4666 
L 1478 4666 
L 3547 763 
L 3547 4666 
L 4159 4666 
L 4159 0 
L 3309 0 
L 1241 3903 
L 1241 0 
L 628 0 
L 628 4666 
z
" transform="scale(0.015625)"/>
       <path id="DejaVuSans-75" d="M 544 1381 
L 544 3500 
L 1119 3500 
L 1119 1403 
Q 1119 906 1312 657 
Q 1506 409 1894 409 
Q 2359 409 2629 706 
Q 2900 1003 2900 1516 
L 2900 3500 
L 3475 3500 
L 3475 0 
L 2900 0 
L 2900 538 
Q 2691 219 2414 64 
Q 2138 -91 1772 -91 
Q 1169 -91 856 284 
Q 544 659 544 1381 
z
M 1991 3584 
L 1991 3584 
z
" transform="scale(0.015625)"/>
       <path id="DejaVuSans-62" d="M 3116 1747 
Q 3116 2381 2855 2742 
Q 2594 3103 2138 3103 
Q 1681 3103 1420 2742 
Q 1159 2381 1159 1747 
Q 1159 1113 1420 752 
Q 1681 391 2138 391 
Q 2594 391 2855 752 
Q 3116 1113 3116 1747 
z
M 1159 2969 
Q 1341 3281 1617 3432 
Q 1894 3584 2278 3584 
Q 2916 3584 3314 3078 
Q 3713 2572 3713 1747 
Q 3713 922 3314 415 
Q 2916 -91 2278 -91 
Q 1894 -91 1617 61 
Q 1341 213 1159 525 
L 1159 0 
L 581 0 
L 581 4863 
L 1159 4863 
L 1159 2969 
z
" transform="scale(0.015625)"/>
       <path id="DejaVuSans-72" d="M 2631 2963 
Q 2534 3019 2420 3045 
Q 2306 3072 2169 3072 
Q 1681 3072 1420 2755 
Q 1159 2438 1159 1844 
L 1159 0 
L 581 0 
L 581 3500 
L 1159 3500 
L 1159 2956 
Q 1341 3275 1631 3429 
Q 1922 3584 2338 3584 
Q 2397 3584 2469 3576 
Q 2541 3569 2628 3553 
L 2631 2963 
z
" transform="scale(0.015625)"/>
       <path id="DejaVuSans-73" d="M 2834 3397 
L 2834 2853 
Q 2591 2978 2328 3040 
Q 2066 3103 1784 3103 
Q 1356 3103 1142 2972 
Q 928 2841 928 2578 
Q 928 2378 1081 2264 
Q 1234 2150 1697 2047 
L 1894 2003 
Q 2506 1872 2764 1633 
Q 3022 1394 3022 966 
Q 3022 478 2636 193 
Q 2250 -91 1575 -91 
Q 1294 -91 989 -36 
Q 684 19 347 128 
L 347 722 
Q 666 556 975 473 
Q 1284 391 1588 391 
Q 1994 391 2212 530 
Q 2431 669 2431 922 
Q 2431 1156 2273 1281 
Q 2116 1406 1581 1522 
L 1381 1569 
Q 847 1681 609 1914 
Q 372 2147 372 2553 
Q 372 3047 722 3315 
Q 1072 3584 1716 3584 
Q 2034 3584 2315 3537 
Q 2597 3491 2834 3397 
z
" transform="scale(0.015625)"/>
      </defs>
      <use xlink:href="#DejaVuSans-4e"/>
      <use xlink:href="#DejaVuSans-75" x="74.804688"/>
      <use xlink:href="#DejaVuSans-6d" x="138.183594"/>
      <use xlink:href="#DejaVuSans-62" x="235.595703"/>
      <use xlink:href="#DejaVuSans-65" x="299.072266"/>
      <use xlink:href="#DejaVuSans-72" x="360.595703"/>
      <use xlink:href="#DejaVuSans-20" x="401.708984"/>
      <use xlink:href="#DejaVuSans-6f" x="433.496094"/>
      <use xlink:href="#DejaVuSans-66" x="494.677734"/>
      <use xlink:href="#DejaVuSans-20" x="529.882812"/>
      <use xlink:href="#DejaVuSans-45" x="561.669922"/>
      <use xlink:href="#DejaVuSans-6c" x="624.853516"/>
      <use xlink:href="#DejaVuSans-65" x="652.636719"/>
      <use xlink:href="#DejaVuSans-6d" x="714.160156"/>
      <use xlink:href="#DejaVuSans-65" x="811.572266"/>
      <use xlink:href="#DejaVuSans-6e" x="873.095703"/>
      <use xlink:href="#DejaVuSans-74" x="936.474609"/>
      <use xlink:href="#DejaVuSans-73" x="975.683594"/>
     </g>
    </g>
   </g>
   <g id="patch_254">
    <path d="M 57.6 307.584 
L 57.6 41.472 
" style="fill: none; stroke: #000000; stroke-width: 0.8; stroke-linejoin: miter; stroke-linecap: square"/>
   </g>
   <g id="patch_255">
    <path d="M 414.72 307.584 
L 414.72 41.472 
" style="fill: none; stroke: #000000; stroke-width: 0.8; stroke-linejoin: miter; stroke-linecap: square"/>
   </g>
   <g id="patch_256">
    <path d="M 57.6 307.584 
L 414.72 307.584 
" style="fill: none; stroke: #000000; stroke-width: 0.8; stroke-linejoin: miter; stroke-linecap: square"/>
   </g>
   <g id="patch_257">
    <path d="M 57.6 41.472 
L 414.72 41.472 
" style="fill: none; stroke: #000000; stroke-width: 0.8; stroke-linejoin: miter; stroke-linecap: square"/>
   </g>
  </g>
 </g>
 <defs>
  <clipPath id="p3339b0d4c7">
   <rect x="57.6" y="41.472" width="357.12" height="266.112"/>
  </clipPath>
 </defs>
</svg>
