<?xml version="1.0" encoding="utf-8" standalone="no"?>
<!DOCTYPE svg PUBLIC "-//W3C//DTD SVG 1.1//EN"
  "http://www.w3.org/Graphics/SVG/1.1/DTD/svg11.dtd">
<svg xmlns:xlink="http://www.w3.org/1999/xlink" width="460.8pt" height="345.6pt" viewBox="0 0 460.8 345.6" xmlns="http://www.w3.org/2000/svg" version="1.1">
 <metadata>
  <rdf:RDF xmlns:dc="http://purl.org/dc/elements/1.1/" xmlns:cc="http://creativecommons.org/ns#" xmlns:rdf="http://www.w3.org/1999/02/22-rdf-syntax-ns#">
   <cc:Work>
    <dc:type rdf:resource="http://purl.org/dc/dcmitype/StillImage"/>
    <dc:date>2024-03-04T20:11:55.757374</dc:date>
    <dc:format>image/svg+xml</dc:format>
    <dc:creator>
     <cc:Agent>
      <dc:title>Matplotlib v3.8.3, https://matplotlib.org/</dc:title>
     </cc:Agent>
    </dc:creator>
   </cc:Work>
  </rdf:RDF>
 </metadata>
 <defs>
  <style type="text/css">*{stroke-linejoin: round; stroke-linecap: butt}</style>
 </defs>
 <g id="figure_1">
  <g id="patch_1">
   <path d="M 0 345.6 
L 460.8 345.6 
L 460.8 0 
L 0 0 
z
" style="fill: #ffffff"/>
  </g>
  <g id="axes_1">
   <g id="patch_2">
    <path d="M 57.6 307.584 
L 414.72 307.584 
L 414.72 41.472 
L 57.6 41.472 
z
" style="fill: #ffffff"/>
   </g>
   <g id="patch_3">
    <path d="M 73.832727 60086.904188 
L 75.344506 60086.904188 
L 75.344506 259.48998 
L 73.832727 259.48998 
z
" clip-path="url(#p980f47574e)" style="fill: #1f77b4"/>
   </g>
   <g id="patch_4">
    <path d="M 75.722451 60086.904188 
L 77.23423 60086.904188 
L 77.23423 235.696584 
L 75.722451 235.696584 
z
" clip-path="url(#p980f47574e)" style="fill: #1f77b4"/>
   </g>
   <g id="patch_5">
    <path d="M 79.501899 60086.904188 
L 81.013678 60086.904188 
L 81.013678 193.904177 
L 79.501899 193.904177 
z
" clip-path="url(#p980f47574e)" style="fill: #1f77b4"/>
   </g>
   <g id="patch_6">
    <path d="M 81.391622 60086.904188 
L 82.903401 60086.904188 
L 82.903401 170.741591 
L 81.391622 170.741591 
z
" clip-path="url(#p980f47574e)" style="fill: #1f77b4"/>
   </g>
   <g id="patch_7">
    <path d="M 87.060794 60086.904188 
L 88.572573 60086.904188 
L 88.572573 114.429761 
L 87.060794 114.429761 
z
" clip-path="url(#p980f47574e)" style="fill: #1f77b4"/>
   </g>
   <g id="patch_8">
    <path d="M 77.612175 60086.904188 
L 79.123954 60086.904188 
L 79.123954 219.029511 
L 77.612175 219.029511 
z
" clip-path="url(#p980f47574e)" style="fill: #1f77b4"/>
   </g>
   <g id="patch_9">
    <path d="M 83.281346 60086.904188 
L 84.793125 60086.904188 
L 84.793125 152.742581 
L 83.281346 152.742581 
z
" clip-path="url(#p980f47574e)" style="fill: #1f77b4"/>
   </g>
   <g id="patch_10">
    <path d="M 88.950518 60086.904188 
L 90.462297 60086.904188 
L 90.462297 99.957342 
L 88.950518 99.957342 
z
" clip-path="url(#p980f47574e)" style="fill: #1f77b4"/>
   </g>
   <g id="patch_11">
    <path d="M 85.17107 60086.904188 
L 86.682849 60086.904188 
L 86.682849 134.426251 
L 85.17107 134.426251 
z
" clip-path="url(#p980f47574e)" style="fill: #1f77b4"/>
   </g>
   <g id="patch_12">
    <path d="M 92.729965 60086.904188 
L 94.241744 60086.904188 
L 94.241744 76.216965 
L 92.729965 76.216965 
z
" clip-path="url(#p980f47574e)" style="fill: #1f77b4"/>
   </g>
   <g id="patch_13">
    <path d="M 90.840241 60086.904188 
L 92.35202 60086.904188 
L 92.35202 87.207911 
L 90.840241 87.207911 
z
" clip-path="url(#p980f47574e)" style="fill: #1f77b4"/>
   </g>
   <g id="patch_14">
    <path d="M 96.509413 60086.904188 
L 98.021192 60086.904188 
L 98.021192 58.586489 
L 96.509413 58.586489 
z
" clip-path="url(#p980f47574e)" style="fill: #1f77b4"/>
   </g>
   <g id="patch_15">
    <path d="M 94.619689 60086.904188 
L 96.131468 60086.904188 
L 96.131468 66.135259 
L 94.619689 66.135259 
z
" clip-path="url(#p980f47574e)" style="fill: #1f77b4"/>
   </g>
   <g id="patch_16">
    <path d="M 104.068308 60086.904188 
L 105.580087 60086.904188 
L 105.580087 61.954933 
L 104.068308 61.954933 
z
" clip-path="url(#p980f47574e)" style="fill: #1f77b4"/>
   </g>
   <g id="patch_17">
    <path d="M 98.399136 60086.904188 
L 99.910915 60086.904188 
L 99.910915 54.410583 
L 98.399136 54.410583 
z
" clip-path="url(#p980f47574e)" style="fill: #1f77b4"/>
   </g>
   <g id="patch_18">
    <path d="M 107.847755 60086.904188 
L 109.359534 60086.904188 
L 109.359534 98.218818 
L 107.847755 98.218818 
z
" clip-path="url(#p980f47574e)" style="fill: #1f77b4"/>
   </g>
   <g id="patch_19">
    <path d="M 102.178584 60086.904188 
L 103.690363 60086.904188 
L 103.690363 54.67975 
L 102.178584 54.67975 
z
" clip-path="url(#p980f47574e)" style="fill: #1f77b4"/>
   </g>
   <g id="patch_20">
    <path d="M 109.737479 60086.904188 
L 111.249258 60086.904188 
L 111.249258 130.213994 
L 109.737479 130.213994 
z
" clip-path="url(#p980f47574e)" style="fill: #1f77b4"/>
   </g>
   <g id="patch_21">
    <path d="M 113.516927 60086.904188 
L 115.028706 60086.904188 
L 115.028706 171.170809 
L 113.516927 171.170809 
z
" clip-path="url(#p980f47574e)" style="fill: #1f77b4"/>
   </g>
   <g id="patch_22">
    <path d="M 100.28886 60086.904188 
L 101.800639 60086.904188 
L 101.800639 53.568 
L 100.28886 53.568 
z
" clip-path="url(#p980f47574e)" style="fill: #1f77b4"/>
   </g>
   <g id="patch_23">
    <path d="M 105.958032 60086.904188 
L 107.469811 60086.904188 
L 107.469811 76.250507 
L 105.958032 76.250507 
z
" clip-path="url(#p980f47574e)" style="fill: #1f77b4"/>
   </g>
   <g id="patch_24">
    <path d="M 126.744993 60086.904188 
L 128.256772 60086.904188 
L 128.256772 187.90288 
L 126.744993 187.90288 
z
" clip-path="url(#p980f47574e)" style="fill: #1f77b4"/>
   </g>
   <g id="patch_25">
    <path d="M 111.627203 60086.904188 
L 113.138982 60086.904188 
L 113.138982 156.270886 
L 111.627203 156.270886 
z
" clip-path="url(#p980f47574e)" style="fill: #1f77b4"/>
   </g>
   <g id="patch_26">
    <path d="M 124.855269 60086.904188 
L 126.367048 60086.904188 
L 126.367048 181.699555 
L 124.855269 181.699555 
z
" clip-path="url(#p980f47574e)" style="fill: #1f77b4"/>
   </g>
   <g id="patch_27">
    <path d="M 115.40665 60086.904188 
L 116.918429 60086.904188 
L 116.918429 172.275958 
L 115.40665 172.275958 
z
" clip-path="url(#p980f47574e)" style="fill: #1f77b4"/>
   </g>
   <g id="patch_28">
    <path d="M 117.296374 60086.904188 
L 118.808153 60086.904188 
L 118.808153 174.392094 
L 117.296374 174.392094 
z
" clip-path="url(#p980f47574e)" style="fill: #1f77b4"/>
   </g>
   <g id="patch_29">
    <path d="M 119.186098 60086.904188 
L 120.697877 60086.904188 
L 120.697877 181.376978 
L 119.186098 181.376978 
z
" clip-path="url(#p980f47574e)" style="fill: #1f77b4"/>
   </g>
   <g id="patch_30">
    <path d="M 122.965546 60086.904188 
L 124.477325 60086.904188 
L 124.477325 181.376978 
L 122.965546 181.376978 
z
" clip-path="url(#p980f47574e)" style="fill: #1f77b4"/>
   </g>
   <g id="patch_31">
    <path d="M 141.862783 60086.904188 
L 143.374562 60086.904188 
L 143.374562 192.391104 
L 141.862783 192.391104 
z
" clip-path="url(#p980f47574e)" style="fill: #1f77b4"/>
   </g>
   <g id="patch_32">
    <path d="M 128.634717 60086.904188 
L 130.146496 60086.904188 
L 130.146496 187.091343 
L 128.634717 187.091343 
z
" clip-path="url(#p980f47574e)" style="fill: #1f77b4"/>
   </g>
   <g id="patch_33">
    <path d="M 130.524441 60086.904188 
L 132.03622 60086.904188 
L 132.03622 187.091343 
L 130.524441 187.091343 
z
" clip-path="url(#p980f47574e)" style="fill: #1f77b4"/>
   </g>
   <g id="patch_34">
    <path d="M 136.193612 60086.904188 
L 137.705391 60086.904188 
L 137.705391 184.798642 
L 136.193612 184.798642 
z
" clip-path="url(#p980f47574e)" style="fill: #1f77b4"/>
   </g>
   <g id="patch_35">
    <path d="M 143.752507 60086.904188 
L 145.264286 60086.904188 
L 145.264286 193.389961 
L 143.752507 193.389961 
z
" clip-path="url(#p980f47574e)" style="fill: #1f77b4"/>
   </g>
   <g id="patch_36">
    <path d="M 121.075822 60086.904188 
L 122.587601 60086.904188 
L 122.587601 175.646787 
L 121.075822 175.646787 
z
" clip-path="url(#p980f47574e)" style="fill: #1f77b4"/>
   </g>
   <g id="patch_37">
    <path d="M 151.311402 60086.904188 
L 152.823181 60086.904188 
L 152.823181 192.88573 
L 151.311402 192.88573 
z
" clip-path="url(#p980f47574e)" style="fill: #1f77b4"/>
   </g>
   <g id="patch_38">
    <path d="M 158.870297 60086.904188 
L 160.382076 60086.904188 
L 160.382076 203.918707 
L 158.870297 203.918707 
z
" clip-path="url(#p980f47574e)" style="fill: #1f77b4"/>
   </g>
   <g id="patch_39">
    <path d="M 132.414164 60086.904188 
L 133.925943 60086.904188 
L 133.925943 187.493941 
L 132.414164 187.493941 
z
" clip-path="url(#p980f47574e)" style="fill: #1f77b4"/>
   </g>
   <g id="patch_40">
    <path d="M 139.97306 60086.904188 
L 141.484839 60086.904188 
L 141.484839 193.904177 
L 139.97306 193.904177 
z
" clip-path="url(#p980f47574e)" style="fill: #1f77b4"/>
   </g>
   <g id="patch_41">
    <path d="M 162.649745 60086.904188 
L 164.161524 60086.904188 
L 164.161524 203.165985 
L 162.649745 203.165985 
z
" clip-path="url(#p980f47574e)" style="fill: #1f77b4"/>
   </g>
   <g id="patch_42">
    <path d="M 149.421678 60086.904188 
L 150.933458 60086.904188 
L 150.933458 198.431626 
L 149.421678 198.431626 
z
" clip-path="url(#p980f47574e)" style="fill: #1f77b4"/>
   </g>
   <g id="patch_43">
    <path d="M 134.303888 60086.904188 
L 135.815667 60086.904188 
L 135.815667 185.540609 
L 134.303888 185.540609 
z
" clip-path="url(#p980f47574e)" style="fill: #1f77b4"/>
   </g>
   <g id="patch_44">
    <path d="M 156.980574 60086.904188 
L 158.492353 60086.904188 
L 158.492353 196.640083 
L 156.980574 196.640083 
z
" clip-path="url(#p980f47574e)" style="fill: #1f77b4"/>
   </g>
   <g id="patch_45">
    <path d="M 200.444221 60086.904188 
L 201.956 60086.904188 
L 201.956 228.883749 
L 200.444221 228.883749 
z
" clip-path="url(#p980f47574e)" style="fill: #1f77b4"/>
   </g>
   <g id="patch_46">
    <path d="M 187.216154 60086.904188 
L 188.727933 60086.904188 
L 188.727933 206.317372 
L 187.216154 206.317372 
z
" clip-path="url(#p980f47574e)" style="fill: #1f77b4"/>
   </g>
   <g id="patch_47">
    <path d="M 168.318916 60086.904188 
L 169.830695 60086.904188 
L 169.830695 203.918707 
L 168.318916 203.918707 
z
" clip-path="url(#p980f47574e)" style="fill: #1f77b4"/>
   </g>
   <g id="patch_48">
    <path d="M 164.539469 60086.904188 
L 166.051248 60086.904188 
L 166.051248 201.030501 
L 164.539469 201.030501 
z
" clip-path="url(#p980f47574e)" style="fill: #1f77b4"/>
   </g>
   <g id="patch_49">
    <path d="M 145.642231 60086.904188 
L 147.15401 60086.904188 
L 147.15401 201.722998 
L 145.642231 201.722998 
z
" clip-path="url(#p980f47574e)" style="fill: #1f77b4"/>
   </g>
   <g id="patch_50">
    <path d="M 189.105878 60086.904188 
L 190.617657 60086.904188 
L 190.617657 208.960372 
L 189.105878 208.960372 
z
" clip-path="url(#p980f47574e)" style="fill: #1f77b4"/>
   </g>
   <g id="patch_51">
    <path d="M 155.09085 60086.904188 
L 156.602629 60086.904188 
L 156.602629 207.168828 
L 155.09085 207.168828 
z
" clip-path="url(#p980f47574e)" style="fill: #1f77b4"/>
   </g>
   <g id="patch_52">
    <path d="M 177.767535 60086.904188 
L 179.279314 60086.904188 
L 179.279314 208.960372 
L 177.767535 208.960372 
z
" clip-path="url(#p980f47574e)" style="fill: #1f77b4"/>
   </g>
   <g id="patch_53">
    <path d="M 153.201126 60086.904188 
L 154.712905 60086.904188 
L 154.712905 201.722998 
L 153.201126 201.722998 
z
" clip-path="url(#p980f47574e)" style="fill: #1f77b4"/>
   </g>
   <g id="patch_54">
    <path d="M 183.436707 60086.904188 
L 184.948486 60086.904188 
L 184.948486 233.221657 
L 183.436707 233.221657 
z
" clip-path="url(#p980f47574e)" style="fill: #1f77b4"/>
   </g>
   <g id="patch_55">
    <path d="M 219.341458 60086.904188 
L 220.853237 60086.904188 
L 220.853237 253.695594 
L 219.341458 253.695594 
z
" clip-path="url(#p980f47574e)" style="fill: #1f77b4"/>
   </g>
   <g id="patch_56">
    <path d="M 179.657259 60086.904188 
L 181.169038 60086.904188 
L 181.169038 217.697574 
L 179.657259 217.697574 
z
" clip-path="url(#p980f47574e)" style="fill: #1f77b4"/>
   </g>
   <g id="patch_57">
    <path d="M 138.083336 60086.904188 
L 139.595115 60086.904188 
L 139.595115 198.431626 
L 138.083336 198.431626 
z
" clip-path="url(#p980f47574e)" style="fill: #1f77b4"/>
   </g>
   <g id="patch_58">
    <path d="M 147.531955 60086.904188 
L 149.043734 60086.904188 
L 149.043734 200.355994 
L 147.531955 200.355994 
z
" clip-path="url(#p980f47574e)" style="fill: #1f77b4"/>
   </g>
   <g id="patch_59">
    <path d="M 160.760021 60086.904188 
L 162.2718 60086.904188 
L 162.2718 204.693901 
L 160.760021 204.693901 
z
" clip-path="url(#p980f47574e)" style="fill: #1f77b4"/>
   </g>
   <g id="patch_60">
    <path d="M 175.877811 60086.904188 
L 177.38959 60086.904188 
L 177.38959 208.049153 
L 175.877811 208.049153 
z
" clip-path="url(#p980f47574e)" style="fill: #1f77b4"/>
   </g>
   <g id="patch_61">
    <path d="M 190.995602 60086.904188 
L 192.507381 60086.904188 
L 192.507381 226.959382 
L 190.995602 226.959382 
z
" clip-path="url(#p980f47574e)" style="fill: #1f77b4"/>
   </g>
   <g id="patch_62">
    <path d="M 166.429193 60086.904188 
L 167.940972 60086.904188 
L 167.940972 206.317372 
L 166.429193 206.317372 
z
" clip-path="url(#p980f47574e)" style="fill: #1f77b4"/>
   </g>
   <g id="patch_63">
    <path d="M 173.988088 60086.904188 
L 175.499867 60086.904188 
L 175.499867 209.904733 
L 173.988088 209.904733 
z
" clip-path="url(#p980f47574e)" style="fill: #1f77b4"/>
   </g>
   <g id="patch_64">
    <path d="M 194.775049 60086.904188 
L 196.286828 60086.904188 
L 196.286828 228.883749 
L 194.775049 228.883749 
z
" clip-path="url(#p980f47574e)" style="fill: #1f77b4"/>
   </g>
   <g id="patch_65">
    <path d="M 204.223668 60086.904188 
L 205.735447 60086.904188 
L 205.735447 226.959382 
L 204.223668 226.959382 
z
" clip-path="url(#p980f47574e)" style="fill: #1f77b4"/>
   </g>
   <g id="patch_66">
    <path d="M 170.20864 60086.904188 
L 171.720419 60086.904188 
L 171.720419 210.88474 
L 170.20864 210.88474 
z
" clip-path="url(#p980f47574e)" style="fill: #1f77b4"/>
   </g>
   <g id="patch_67">
    <path d="M 172.098364 60086.904188 
L 173.610143 60086.904188 
L 173.610143 217.697574 
L 172.098364 217.697574 
z
" clip-path="url(#p980f47574e)" style="fill: #1f77b4"/>
   </g>
   <g id="patch_68">
    <path d="M 198.554497 60086.904188 
L 200.066276 60086.904188 
L 200.066276 226.959382 
L 198.554497 226.959382 
z
" clip-path="url(#p980f47574e)" style="fill: #1f77b4"/>
   </g>
   <g id="patch_69">
    <path d="M 181.546983 60086.904188 
L 183.058762 60086.904188 
L 183.058762 208.049153 
L 181.546983 208.049153 
z
" clip-path="url(#p980f47574e)" style="fill: #1f77b4"/>
   </g>
   <g id="patch_70">
    <path d="M 234.459249 60086.904188 
L 235.971028 60086.904188 
L 235.971028 238.432489 
L 234.459249 238.432489 
z
" clip-path="url(#p980f47574e)" style="fill: #1f77b4"/>
   </g>
   <g id="patch_71">
    <path d="M 202.333944 60086.904188 
L 203.845723 60086.904188 
L 203.845723 220.433479 
L 202.333944 220.433479 
z
" clip-path="url(#p980f47574e)" style="fill: #1f77b4"/>
   </g>
   <g id="patch_72">
    <path d="M 192.885325 60086.904188 
L 194.397104 60086.904188 
L 194.397104 226.959382 
L 192.885325 226.959382 
z
" clip-path="url(#p980f47574e)" style="fill: #1f77b4"/>
   </g>
   <g id="patch_73">
    <path d="M 223.120906 60086.904188 
L 224.632685 60086.904188 
L 224.632685 241.490971 
L 223.120906 241.490971 
z
" clip-path="url(#p980f47574e)" style="fill: #1f77b4"/>
   </g>
   <g id="patch_74">
    <path d="M 232.569525 60086.904188 
L 234.081304 60086.904188 
L 234.081304 277.48899 
L 232.569525 277.48899 
z
" clip-path="url(#p980f47574e)" style="fill: #1f77b4"/>
   </g>
   <g id="patch_75">
    <path d="M 196.664773 60086.904188 
L 198.176552 60086.904188 
L 198.176552 216.430636 
L 196.664773 216.430636 
z
" clip-path="url(#p980f47574e)" style="fill: #1f77b4"/>
   </g>
   <g id="patch_76">
    <path d="M 225.01063 60086.904188 
L 226.522409 60086.904188 
L 226.522409 244.958391 
L 225.01063 244.958391 
z
" clip-path="url(#p980f47574e)" style="fill: #1f77b4"/>
   </g>
   <g id="patch_77">
    <path d="M 213.672287 60086.904188 
L 215.184066 60086.904188 
L 215.184066 235.696584 
L 213.672287 235.696584 
z
" clip-path="url(#p980f47574e)" style="fill: #1f77b4"/>
   </g>
   <g id="patch_78">
    <path d="M 185.32643 60086.904188 
L 186.838209 60086.904188 
L 186.838209 217.697574 
L 185.32643 217.697574 
z
" clip-path="url(#p980f47574e)" style="fill: #1f77b4"/>
   </g>
   <g id="patch_79">
    <path d="M 209.892839 60086.904188 
L 211.404618 60086.904188 
L 211.404618 230.962225 
L 209.892839 230.962225 
z
" clip-path="url(#p980f47574e)" style="fill: #1f77b4"/>
   </g>
   <g id="patch_80">
    <path d="M 264.694829 60086.904188 
L 266.206608 60086.904188 
L 266.206608 266.960244 
L 264.694829 266.960244 
z
" clip-path="url(#p980f47574e)" style="fill: #1f77b4"/>
   </g>
   <g id="patch_81">
    <path d="M 240.12842 60086.904188 
L 241.640199 60086.904188 
L 241.640199 244.958391 
L 240.12842 244.958391 
z
" clip-path="url(#p980f47574e)" style="fill: #1f77b4"/>
   </g>
   <g id="patch_82">
    <path d="M 211.782563 60086.904188 
L 213.294342 60086.904188 
L 213.294342 221.917716 
L 211.782563 221.917716 
z
" clip-path="url(#p980f47574e)" style="fill: #1f77b4"/>
   </g>
   <g id="patch_83">
    <path d="M 245.797591 60086.904188 
L 247.30937 60086.904188 
L 247.30937 248.961235 
L 245.797591 248.961235 
z
" clip-path="url(#p980f47574e)" style="fill: #1f77b4"/>
   </g>
   <g id="patch_84">
    <path d="M 281.702343 60086.904188 
L 283.214122 60086.904188 
L 283.214122 295.488 
L 281.702343 295.488 
z
" clip-path="url(#p980f47574e)" style="fill: #1f77b4"/>
   </g>
   <g id="patch_85">
    <path d="M 206.113392 60086.904188 
L 207.625171 60086.904188 
L 207.625171 221.917716 
L 206.113392 221.917716 
z
" clip-path="url(#p980f47574e)" style="fill: #1f77b4"/>
   </g>
   <g id="patch_86">
    <path d="M 238.238696 60086.904188 
L 239.750475 60086.904188 
L 239.750475 244.958391 
L 238.238696 244.958391 
z
" clip-path="url(#p980f47574e)" style="fill: #1f77b4"/>
   </g>
   <g id="patch_87">
    <path d="M 215.562011 60086.904188 
L 217.07379 60086.904188 
L 217.07379 235.696584 
L 215.562011 235.696584 
z
" clip-path="url(#p980f47574e)" style="fill: #1f77b4"/>
   </g>
   <g id="patch_88">
    <path d="M 217.451735 60086.904188 
L 218.963514 60086.904188 
L 218.963514 238.432489 
L 217.451735 238.432489 
z
" clip-path="url(#p980f47574e)" style="fill: #1f77b4"/>
   </g>
   <g id="patch_89">
    <path d="M 255.24621 60086.904188 
L 256.757989 60086.904188 
L 256.757989 277.48899 
L 255.24621 277.48899 
z
" clip-path="url(#p980f47574e)" style="fill: #1f77b4"/>
   </g>
   <g id="patch_90">
    <path d="M 251.466763 60086.904188 
L 252.978542 60086.904188 
L 252.978542 259.48998 
L 251.466763 259.48998 
z
" clip-path="url(#p980f47574e)" style="fill: #1f77b4"/>
   </g>
   <g id="patch_91">
    <path d="M 221.231182 60086.904188 
L 222.742961 60086.904188 
L 222.742961 253.695594 
L 221.231182 253.695594 
z
" clip-path="url(#p980f47574e)" style="fill: #1f77b4"/>
   </g>
   <g id="patch_92">
    <path d="M 226.900353 60086.904188 
L 228.412133 60086.904188 
L 228.412133 248.961235 
L 226.900353 248.961235 
z
" clip-path="url(#p980f47574e)" style="fill: #1f77b4"/>
   </g>
   <g id="patch_93">
    <path d="M 228.790077 60086.904188 
L 230.301856 60086.904188 
L 230.301856 238.432489 
L 228.790077 238.432489 
z
" clip-path="url(#p980f47574e)" style="fill: #1f77b4"/>
   </g>
   <g id="patch_94">
    <path d="M 283.592067 60086.904188 
L 285.103846 60086.904188 
L 285.103846 295.488 
L 283.592067 295.488 
z
" clip-path="url(#p980f47574e)" style="fill: #1f77b4"/>
   </g>
   <g id="patch_95">
    <path d="M 274.143448 60086.904188 
L 275.655227 60086.904188 
L 275.655227 266.960244 
L 274.143448 266.960244 
z
" clip-path="url(#p980f47574e)" style="fill: #1f77b4"/>
   </g>
   <g id="patch_96">
    <path d="M 230.679801 60086.904188 
L 232.19158 60086.904188 
L 232.19158 230.962225 
L 230.679801 230.962225 
z
" clip-path="url(#p980f47574e)" style="fill: #1f77b4"/>
   </g>
   <g id="patch_97">
    <path d="M 208.003116 60086.904188 
L 209.514895 60086.904188 
L 209.514895 230.962225 
L 208.003116 230.962225 
z
" clip-path="url(#p980f47574e)" style="fill: #1f77b4"/>
   </g>
   <g id="patch_98">
    <path d="M 242.018144 60086.904188 
L 243.529923 60086.904188 
L 243.529923 248.961235 
L 242.018144 248.961235 
z
" clip-path="url(#p980f47574e)" style="fill: #1f77b4"/>
   </g>
   <g id="patch_99">
    <path d="M 247.687315 60086.904188 
L 249.199094 60086.904188 
L 249.199094 253.695594 
L 247.687315 253.695594 
z
" clip-path="url(#p980f47574e)" style="fill: #1f77b4"/>
   </g>
   <g id="patch_100">
    <path d="M 270.364 60086.904188 
L 271.875779 60086.904188 
L 271.875779 266.960244 
L 270.364 266.960244 
z
" clip-path="url(#p980f47574e)" style="fill: #1f77b4"/>
   </g>
   <g id="patch_101">
    <path d="M 306.268752 60086.904188 
L 307.780531 60086.904188 
L 307.780531 277.48899 
L 306.268752 277.48899 
z
" clip-path="url(#p980f47574e)" style="fill: #1f77b4"/>
   </g>
   <g id="patch_102">
    <path d="M 260.915382 60086.904188 
L 262.427161 60086.904188 
L 262.427161 253.695594 
L 260.915382 253.695594 
z
" clip-path="url(#p980f47574e)" style="fill: #1f77b4"/>
   </g>
   <g id="patch_103">
    <path d="M 296.820133 60086.904188 
L 298.331912 60086.904188 
L 298.331912 266.960244 
L 296.820133 266.960244 
z
" clip-path="url(#p980f47574e)" style="fill: #1f77b4"/>
   </g>
   <g id="patch_104">
    <path d="M 266.584553 60086.904188 
L 268.096332 60086.904188 
L 268.096332 266.960244 
L 266.584553 266.960244 
z
" clip-path="url(#p980f47574e)" style="fill: #1f77b4"/>
   </g>
   <g id="patch_105">
    <path d="M 257.135934 60086.904188 
L 258.647713 60086.904188 
L 258.647713 248.961235 
L 257.135934 248.961235 
z
" clip-path="url(#p980f47574e)" style="fill: #1f77b4"/>
   </g>
   <g id="patch_106">
    <path d="M 268.474277 60086.904188 
L 269.986056 60086.904188 
L 269.986056 295.488 
L 268.474277 295.488 
z
" clip-path="url(#p980f47574e)" style="fill: #1f77b4"/>
   </g>
   <g id="patch_107">
    <path d="M 236.348972 60086.904188 
L 237.860751 60086.904188 
L 237.860751 253.695594 
L 236.348972 253.695594 
z
" clip-path="url(#p980f47574e)" style="fill: #1f77b4"/>
   </g>
   <g id="patch_108">
    <path d="M 243.907867 60086.904188 
L 245.419647 60086.904188 
L 245.419647 277.48899 
L 243.907867 277.48899 
z
" clip-path="url(#p980f47574e)" style="fill: #1f77b4"/>
   </g>
   <g id="patch_109">
    <path d="M 253.356486 60086.904188 
L 254.868265 60086.904188 
L 254.868265 277.48899 
L 253.356486 277.48899 
z
" clip-path="url(#p980f47574e)" style="fill: #1f77b4"/>
   </g>
   <g id="patch_110">
    <path d="M 362.960466 60086.904188 
L 364.472245 60086.904188 
L 364.472245 295.488 
L 362.960466 295.488 
z
" clip-path="url(#p980f47574e)" style="fill: #1f77b4"/>
   </g>
   <g id="patch_111">
    <path d="M 327.055714 60086.904188 
L 328.567493 60086.904188 
L 328.567493 295.488 
L 327.055714 295.488 
z
" clip-path="url(#p980f47574e)" style="fill: #1f77b4"/>
   </g>
   <g id="patch_112">
    <path d="M 311.937924 60086.904188 
L 313.449703 60086.904188 
L 313.449703 295.488 
L 311.937924 295.488 
z
" clip-path="url(#p980f47574e)" style="fill: #1f77b4"/>
   </g>
   <g id="patch_113">
    <path d="M 321.386542 60086.904188 
L 322.898322 60086.904188 
L 322.898322 295.488 
L 321.386542 295.488 
z
" clip-path="url(#p980f47574e)" style="fill: #1f77b4"/>
   </g>
   <g id="patch_114">
    <path d="M 351.622123 60086.904188 
L 353.133902 60086.904188 
L 353.133902 295.488 
L 351.622123 295.488 
z
" clip-path="url(#p980f47574e)" style="fill: #1f77b4"/>
   </g>
   <g id="patch_115">
    <path d="M 289.261238 60086.904188 
L 290.773017 60086.904188 
L 290.773017 259.48998 
L 289.261238 259.48998 
z
" clip-path="url(#p980f47574e)" style="fill: #1f77b4"/>
   </g>
   <g id="patch_116">
    <path d="M 325.16599 60086.904188 
L 326.677769 60086.904188 
L 326.677769 295.488 
L 325.16599 295.488 
z
" clip-path="url(#p980f47574e)" style="fill: #1f77b4"/>
   </g>
   <g id="patch_117">
    <path d="M 259.025658 60086.904188 
L 260.537437 60086.904188 
L 260.537437 266.960244 
L 259.025658 266.960244 
z
" clip-path="url(#p980f47574e)" style="fill: #1f77b4"/>
   </g>
   <g id="patch_118">
    <path d="M 285.481791 60086.904188 
L 286.99357 60086.904188 
L 286.99357 295.488 
L 285.481791 295.488 
z
" clip-path="url(#p980f47574e)" style="fill: #1f77b4"/>
   </g>
   <g id="patch_119">
    <path d="M 249.577039 60086.904188 
L 251.088818 60086.904188 
L 251.088818 277.48899 
L 249.577039 277.48899 
z
" clip-path="url(#p980f47574e)" style="fill: #1f77b4"/>
   </g>
   <g id="patch_120">
    <path d="M 272.253724 60086.904188 
L 273.765503 60086.904188 
L 273.765503 295.488 
L 272.253724 295.488 
z
" clip-path="url(#p980f47574e)" style="fill: #1f77b4"/>
   </g>
   <g id="patch_121">
    <path d="M 330.835161 60086.904188 
L 332.34694 60086.904188 
L 332.34694 295.488 
L 330.835161 295.488 
z
" clip-path="url(#p980f47574e)" style="fill: #1f77b4"/>
   </g>
   <g id="patch_122">
    <path d="M 293.040686 60086.904188 
L 294.552465 60086.904188 
L 294.552465 295.488 
L 293.040686 295.488 
z
" clip-path="url(#p980f47574e)" style="fill: #1f77b4"/>
   </g>
   <g id="patch_123">
    <path d="M 396.975494 60086.904188 
L 398.487273 60086.904188 
L 398.487273 295.488 
L 396.975494 295.488 
z
" clip-path="url(#p980f47574e)" style="fill: #1f77b4"/>
   </g>
   <g id="patch_124">
    <path d="M 262.805105 60086.904188 
L 264.316884 60086.904188 
L 264.316884 295.488 
L 262.805105 295.488 
z
" clip-path="url(#p980f47574e)" style="fill: #1f77b4"/>
   </g>
   <g id="patch_125">
    <path d="M 300.599581 60086.904188 
L 302.11136 60086.904188 
L 302.11136 295.488 
L 300.599581 295.488 
z
" clip-path="url(#p980f47574e)" style="fill: #1f77b4"/>
   </g>
   <g id="patch_126">
    <path d="M 310.0482 60086.904188 
L 311.559979 60086.904188 
L 311.559979 295.488 
L 310.0482 295.488 
z
" clip-path="url(#p980f47574e)" style="fill: #1f77b4"/>
   </g>
   <g id="patch_127">
    <path d="M 370.519361 60086.904188 
L 372.03114 60086.904188 
L 372.03114 295.488 
L 370.519361 295.488 
z
" clip-path="url(#p980f47574e)" style="fill: #1f77b4"/>
   </g>
   <g id="matplotlib.axis_1">
    <g id="xtick_1">
     <g id="line2d_1">
      <defs>
       <path id="m8eea7a517e" d="M 0 0 
L 0 3.5 
" style="stroke: #000000; stroke-width: 0.8"/>
      </defs>
      <g>
       <use xlink:href="#m8eea7a517e" x="74.588617" y="307.584" style="stroke: #000000; stroke-width: 0.8"/>
      </g>
     </g>
     <g id="text_1">
      <!-- 0 -->
      <g transform="translate(71.407367 322.182437) scale(0.1 -0.1)">
       <defs>
        <path id="DejaVuSans-30" d="M 2034 4250 
Q 1547 4250 1301 3770 
Q 1056 3291 1056 2328 
Q 1056 1369 1301 889 
Q 1547 409 2034 409 
Q 2525 409 2770 889 
Q 3016 1369 3016 2328 
Q 3016 3291 2770 3770 
Q 2525 4250 2034 4250 
z
M 2034 4750 
Q 2819 4750 3233 4129 
Q 3647 3509 3647 2328 
Q 3647 1150 3233 529 
Q 2819 -91 2034 -91 
Q 1250 -91 836 529 
Q 422 1150 422 2328 
Q 422 3509 836 4129 
Q 1250 4750 2034 4750 
z
" transform="scale(0.015625)"/>
       </defs>
       <use xlink:href="#DejaVuSans-30"/>
      </g>
     </g>
    </g>
    <g id="xtick_2">
     <g id="line2d_2">
      <g>
       <use xlink:href="#m8eea7a517e" x="121.831711" y="307.584" style="stroke: #000000; stroke-width: 0.8"/>
      </g>
     </g>
     <g id="text_2">
      <!-- 25 -->
      <g transform="translate(115.469211 322.182437) scale(0.1 -0.1)">
       <defs>
        <path id="DejaVuSans-32" d="M 1228 531 
L 3431 531 
L 3431 0 
L 469 0 
L 469 531 
Q 828 903 1448 1529 
Q 2069 2156 2228 2338 
Q 2531 2678 2651 2914 
Q 2772 3150 2772 3378 
Q 2772 3750 2511 3984 
Q 2250 4219 1831 4219 
Q 1534 4219 1204 4116 
Q 875 4013 500 3803 
L 500 4441 
Q 881 4594 1212 4672 
Q 1544 4750 1819 4750 
Q 2544 4750 2975 4387 
Q 3406 4025 3406 3419 
Q 3406 3131 3298 2873 
Q 3191 2616 2906 2266 
Q 2828 2175 2409 1742 
Q 1991 1309 1228 531 
z
" transform="scale(0.015625)"/>
        <path id="DejaVuSans-35" d="M 691 4666 
L 3169 4666 
L 3169 4134 
L 1269 4134 
L 1269 2991 
Q 1406 3038 1543 3061 
Q 1681 3084 1819 3084 
Q 2600 3084 3056 2656 
Q 3513 2228 3513 1497 
Q 3513 744 3044 326 
Q 2575 -91 1722 -91 
Q 1428 -91 1123 -41 
Q 819 9 494 109 
L 494 744 
Q 775 591 1075 516 
Q 1375 441 1709 441 
Q 2250 441 2565 725 
Q 2881 1009 2881 1497 
Q 2881 1984 2565 2268 
Q 2250 2553 1709 2553 
Q 1456 2553 1204 2497 
Q 953 2441 691 2322 
L 691 4666 
z
" transform="scale(0.015625)"/>
       </defs>
       <use xlink:href="#DejaVuSans-32"/>
       <use xlink:href="#DejaVuSans-35" x="63.623047"/>
      </g>
     </g>
    </g>
    <g id="xtick_3">
     <g id="line2d_3">
      <g>
       <use xlink:href="#m8eea7a517e" x="169.074806" y="307.584" style="stroke: #000000; stroke-width: 0.8"/>
      </g>
     </g>
     <g id="text_3">
      <!-- 50 -->
      <g transform="translate(162.712306 322.182437) scale(0.1 -0.1)">
       <use xlink:href="#DejaVuSans-35"/>
       <use xlink:href="#DejaVuSans-30" x="63.623047"/>
      </g>
     </g>
    </g>
    <g id="xtick_4">
     <g id="line2d_4">
      <g>
       <use xlink:href="#m8eea7a517e" x="216.3179" y="307.584" style="stroke: #000000; stroke-width: 0.8"/>
      </g>
     </g>
     <g id="text_4">
      <!-- 75 -->
      <g transform="translate(209.9554 322.182437) scale(0.1 -0.1)">
       <defs>
        <path id="DejaVuSans-37" d="M 525 4666 
L 3525 4666 
L 3525 4397 
L 1831 0 
L 1172 0 
L 2766 4134 
L 525 4134 
L 525 4666 
z
" transform="scale(0.015625)"/>
       </defs>
       <use xlink:href="#DejaVuSans-37"/>
       <use xlink:href="#DejaVuSans-35" x="63.623047"/>
      </g>
     </g>
    </g>
    <g id="xtick_5">
     <g id="line2d_5">
      <g>
       <use xlink:href="#m8eea7a517e" x="263.560995" y="307.584" style="stroke: #000000; stroke-width: 0.8"/>
      </g>
     </g>
     <g id="text_5">
      <!-- 100 -->
      <g transform="translate(254.017245 322.182437) scale(0.1 -0.1)">
       <defs>
        <path id="DejaVuSans-31" d="M 794 531 
L 1825 531 
L 1825 4091 
L 703 3866 
L 703 4441 
L 1819 4666 
L 2450 4666 
L 2450 531 
L 3481 531 
L 3481 0 
L 794 0 
L 794 531 
z
" transform="scale(0.015625)"/>
       </defs>
       <use xlink:href="#DejaVuSans-31"/>
       <use xlink:href="#DejaVuSans-30" x="63.623047"/>
       <use xlink:href="#DejaVuSans-30" x="127.246094"/>
      </g>
     </g>
    </g>
    <g id="xtick_6">
     <g id="line2d_6">
      <g>
       <use xlink:href="#m8eea7a517e" x="310.804089" y="307.584" style="stroke: #000000; stroke-width: 0.8"/>
      </g>
     </g>
     <g id="text_6">
      <!-- 125 -->
      <g transform="translate(301.260339 322.182437) scale(0.1 -0.1)">
       <use xlink:href="#DejaVuSans-31"/>
       <use xlink:href="#DejaVuSans-32" x="63.623047"/>
       <use xlink:href="#DejaVuSans-35" x="127.246094"/>
      </g>
     </g>
    </g>
    <g id="xtick_7">
     <g id="line2d_7">
      <g>
       <use xlink:href="#m8eea7a517e" x="358.047184" y="307.584" style="stroke: #000000; stroke-width: 0.8"/>
      </g>
     </g>
     <g id="text_7">
      <!-- 150 -->
      <g transform="translate(348.503434 322.182437) scale(0.1 -0.1)">
       <use xlink:href="#DejaVuSans-31"/>
       <use xlink:href="#DejaVuSans-35" x="63.623047"/>
       <use xlink:href="#DejaVuSans-30" x="127.246094"/>
      </g>
     </g>
    </g>
    <g id="xtick_8">
     <g id="line2d_8">
      <g>
       <use xlink:href="#m8eea7a517e" x="405.290278" y="307.584" style="stroke: #000000; stroke-width: 0.8"/>
      </g>
     </g>
     <g id="text_8">
      <!-- 175 -->
      <g transform="translate(395.746528 322.182437) scale(0.1 -0.1)">
       <use xlink:href="#DejaVuSans-31"/>
       <use xlink:href="#DejaVuSans-37" x="63.623047"/>
       <use xlink:href="#DejaVuSans-35" x="127.246094"/>
      </g>
     </g>
    </g>
    <g id="text_9">
     <!-- Depth of Element -->
     <g transform="translate(192.231875 335.860562) scale(0.1 -0.1)">
      <defs>
       <path id="DejaVuSans-44" d="M 1259 4147 
L 1259 519 
L 2022 519 
Q 2988 519 3436 956 
Q 3884 1394 3884 2338 
Q 3884 3275 3436 3711 
Q 2988 4147 2022 4147 
L 1259 4147 
z
M 628 4666 
L 1925 4666 
Q 3281 4666 3915 4102 
Q 4550 3538 4550 2338 
Q 4550 1131 3912 565 
Q 3275 0 1925 0 
L 628 0 
L 628 4666 
z
" transform="scale(0.015625)"/>
       <path id="DejaVuSans-65" d="M 3597 1894 
L 3597 1613 
L 953 1613 
Q 991 1019 1311 708 
Q 1631 397 2203 397 
Q 2534 397 2845 478 
Q 3156 559 3463 722 
L 3463 178 
Q 3153 47 2828 -22 
Q 2503 -91 2169 -91 
Q 1331 -91 842 396 
Q 353 884 353 1716 
Q 353 2575 817 3079 
Q 1281 3584 2069 3584 
Q 2775 3584 3186 3129 
Q 3597 2675 3597 1894 
z
M 3022 2063 
Q 3016 2534 2758 2815 
Q 2500 3097 2075 3097 
Q 1594 3097 1305 2825 
Q 1016 2553 972 2059 
L 3022 2063 
z
" transform="scale(0.015625)"/>
       <path id="DejaVuSans-70" d="M 1159 525 
L 1159 -1331 
L 581 -1331 
L 581 3500 
L 1159 3500 
L 1159 2969 
Q 1341 3281 1617 3432 
Q 1894 3584 2278 3584 
Q 2916 3584 3314 3078 
Q 3713 2572 3713 1747 
Q 3713 922 3314 415 
Q 2916 -91 2278 -91 
Q 1894 -91 1617 61 
Q 1341 213 1159 525 
z
M 3116 1747 
Q 3116 2381 2855 2742 
Q 2594 3103 2138 3103 
Q 1681 3103 1420 2742 
Q 1159 2381 1159 1747 
Q 1159 1113 1420 752 
Q 1681 391 2138 391 
Q 2594 391 2855 752 
Q 3116 1113 3116 1747 
z
" transform="scale(0.015625)"/>
       <path id="DejaVuSans-74" d="M 1172 4494 
L 1172 3500 
L 2356 3500 
L 2356 3053 
L 1172 3053 
L 1172 1153 
Q 1172 725 1289 603 
Q 1406 481 1766 481 
L 2356 481 
L 2356 0 
L 1766 0 
Q 1100 0 847 248 
Q 594 497 594 1153 
L 594 3053 
L 172 3053 
L 172 3500 
L 594 3500 
L 594 4494 
L 1172 4494 
z
" transform="scale(0.015625)"/>
       <path id="DejaVuSans-68" d="M 3513 2113 
L 3513 0 
L 2938 0 
L 2938 2094 
Q 2938 2591 2744 2837 
Q 2550 3084 2163 3084 
Q 1697 3084 1428 2787 
Q 1159 2491 1159 1978 
L 1159 0 
L 581 0 
L 581 4863 
L 1159 4863 
L 1159 2956 
Q 1366 3272 1645 3428 
Q 1925 3584 2291 3584 
Q 2894 3584 3203 3211 
Q 3513 2838 3513 2113 
z
" transform="scale(0.015625)"/>
       <path id="DejaVuSans-20" transform="scale(0.015625)"/>
       <path id="DejaVuSans-6f" d="M 1959 3097 
Q 1497 3097 1228 2736 
Q 959 2375 959 1747 
Q 959 1119 1226 758 
Q 1494 397 1959 397 
Q 2419 397 2687 759 
Q 2956 1122 2956 1747 
Q 2956 2369 2687 2733 
Q 2419 3097 1959 3097 
z
M 1959 3584 
Q 2709 3584 3137 3096 
Q 3566 2609 3566 1747 
Q 3566 888 3137 398 
Q 2709 -91 1959 -91 
Q 1206 -91 779 398 
Q 353 888 353 1747 
Q 353 2609 779 3096 
Q 1206 3584 1959 3584 
z
" transform="scale(0.015625)"/>
       <path id="DejaVuSans-66" d="M 2375 4863 
L 2375 4384 
L 1825 4384 
Q 1516 4384 1395 4259 
Q 1275 4134 1275 3809 
L 1275 3500 
L 2222 3500 
L 2222 3053 
L 1275 3053 
L 1275 0 
L 697 0 
L 697 3053 
L 147 3053 
L 147 3500 
L 697 3500 
L 697 3744 
Q 697 4328 969 4595 
Q 1241 4863 1831 4863 
L 2375 4863 
z
" transform="scale(0.015625)"/>
       <path id="DejaVuSans-45" d="M 628 4666 
L 3578 4666 
L 3578 4134 
L 1259 4134 
L 1259 2753 
L 3481 2753 
L 3481 2222 
L 1259 2222 
L 1259 531 
L 3634 531 
L 3634 0 
L 628 0 
L 628 4666 
z
" transform="scale(0.015625)"/>
       <path id="DejaVuSans-6c" d="M 603 4863 
L 1178 4863 
L 1178 0 
L 603 0 
L 603 4863 
z
" transform="scale(0.015625)"/>
       <path id="DejaVuSans-6d" d="M 3328 2828 
Q 3544 3216 3844 3400 
Q 4144 3584 4550 3584 
Q 5097 3584 5394 3201 
Q 5691 2819 5691 2113 
L 5691 0 
L 5113 0 
L 5113 2094 
Q 5113 2597 4934 2840 
Q 4756 3084 4391 3084 
Q 3944 3084 3684 2787 
Q 3425 2491 3425 1978 
L 3425 0 
L 2847 0 
L 2847 2094 
Q 2847 2600 2669 2842 
Q 2491 3084 2119 3084 
Q 1678 3084 1418 2786 
Q 1159 2488 1159 1978 
L 1159 0 
L 581 0 
L 581 3500 
L 1159 3500 
L 1159 2956 
Q 1356 3278 1631 3431 
Q 1906 3584 2284 3584 
Q 2666 3584 2933 3390 
Q 3200 3197 3328 2828 
z
" transform="scale(0.015625)"/>
       <path id="DejaVuSans-6e" d="M 3513 2113 
L 3513 0 
L 2938 0 
L 2938 2094 
Q 2938 2591 2744 2837 
Q 2550 3084 2163 3084 
Q 1697 3084 1428 2787 
Q 1159 2491 1159 1978 
L 1159 0 
L 581 0 
L 581 3500 
L 1159 3500 
L 1159 2956 
Q 1366 3272 1645 3428 
Q 1925 3584 2291 3584 
Q 2894 3584 3203 3211 
Q 3513 2838 3513 2113 
z
" transform="scale(0.015625)"/>
      </defs>
      <use xlink:href="#DejaVuSans-44"/>
      <use xlink:href="#DejaVuSans-65" x="77.001953"/>
      <use xlink:href="#DejaVuSans-70" x="138.525391"/>
      <use xlink:href="#DejaVuSans-74" x="202.001953"/>
      <use xlink:href="#DejaVuSans-68" x="241.210938"/>
      <use xlink:href="#DejaVuSans-20" x="304.589844"/>
      <use xlink:href="#DejaVuSans-6f" x="336.376953"/>
      <use xlink:href="#DejaVuSans-66" x="397.558594"/>
      <use xlink:href="#DejaVuSans-20" x="432.763672"/>
      <use xlink:href="#DejaVuSans-45" x="464.550781"/>
      <use xlink:href="#DejaVuSans-6c" x="527.734375"/>
      <use xlink:href="#DejaVuSans-65" x="555.517578"/>
      <use xlink:href="#DejaVuSans-6d" x="617.041016"/>
      <use xlink:href="#DejaVuSans-65" x="714.453125"/>
      <use xlink:href="#DejaVuSans-6e" x="775.976562"/>
      <use xlink:href="#DejaVuSans-74" x="839.355469"/>
     </g>
    </g>
   </g>
   <g id="matplotlib.axis_2">
    <g id="ytick_1">
     <g id="line2d_9">
      <defs>
       <path id="m503addc853" d="M 0 0 
L -3.5 0 
" style="stroke: #000000; stroke-width: 0.8"/>
      </defs>
      <g>
       <use xlink:href="#m503addc853" x="57.6" y="295.488" style="stroke: #000000; stroke-width: 0.8"/>
      </g>
     </g>
     <g id="text_10">
      <!-- $\mathdefault{10^{0}}$ -->
      <g transform="translate(33 299.287219) scale(0.1 -0.1)">
       <use xlink:href="#DejaVuSans-31" transform="translate(0 0.765625)"/>
       <use xlink:href="#DejaVuSans-30" transform="translate(63.623047 0.765625)"/>
       <use xlink:href="#DejaVuSans-30" transform="translate(128.203125 39.046875) scale(0.7)"/>
      </g>
     </g>
    </g>
    <g id="ytick_2">
     <g id="line2d_10">
      <g>
       <use xlink:href="#m503addc853" x="57.6" y="235.696584" style="stroke: #000000; stroke-width: 0.8"/>
      </g>
     </g>
     <g id="text_11">
      <!-- $\mathdefault{10^{1}}$ -->
      <g transform="translate(33 239.495803) scale(0.1 -0.1)">
       <use xlink:href="#DejaVuSans-31" transform="translate(0 0.684375)"/>
       <use xlink:href="#DejaVuSans-30" transform="translate(63.623047 0.684375)"/>
       <use xlink:href="#DejaVuSans-31" transform="translate(128.203125 38.965625) scale(0.7)"/>
      </g>
     </g>
    </g>
    <g id="ytick_3">
     <g id="line2d_11">
      <g>
       <use xlink:href="#m503addc853" x="57.6" y="175.905168" style="stroke: #000000; stroke-width: 0.8"/>
      </g>
     </g>
     <g id="text_12">
      <!-- $\mathdefault{10^{2}}$ -->
      <g transform="translate(33 179.704386) scale(0.1 -0.1)">
       <use xlink:href="#DejaVuSans-31" transform="translate(0 0.765625)"/>
       <use xlink:href="#DejaVuSans-30" transform="translate(63.623047 0.765625)"/>
       <use xlink:href="#DejaVuSans-32" transform="translate(128.203125 39.046875) scale(0.7)"/>
      </g>
     </g>
    </g>
    <g id="ytick_4">
     <g id="line2d_12">
      <g>
       <use xlink:href="#m503addc853" x="57.6" y="116.113751" style="stroke: #000000; stroke-width: 0.8"/>
      </g>
     </g>
     <g id="text_13">
      <!-- $\mathdefault{10^{3}}$ -->
      <g transform="translate(33 119.91297) scale(0.1 -0.1)">
       <defs>
        <path id="DejaVuSans-33" d="M 2597 2516 
Q 3050 2419 3304 2112 
Q 3559 1806 3559 1356 
Q 3559 666 3084 287 
Q 2609 -91 1734 -91 
Q 1441 -91 1130 -33 
Q 819 25 488 141 
L 488 750 
Q 750 597 1062 519 
Q 1375 441 1716 441 
Q 2309 441 2620 675 
Q 2931 909 2931 1356 
Q 2931 1769 2642 2001 
Q 2353 2234 1838 2234 
L 1294 2234 
L 1294 2753 
L 1863 2753 
Q 2328 2753 2575 2939 
Q 2822 3125 2822 3475 
Q 2822 3834 2567 4026 
Q 2313 4219 1838 4219 
Q 1578 4219 1281 4162 
Q 984 4106 628 3988 
L 628 4550 
Q 988 4650 1302 4700 
Q 1616 4750 1894 4750 
Q 2613 4750 3031 4423 
Q 3450 4097 3450 3541 
Q 3450 3153 3228 2886 
Q 3006 2619 2597 2516 
z
" transform="scale(0.015625)"/>
       </defs>
       <use xlink:href="#DejaVuSans-31" transform="translate(0 0.765625)"/>
       <use xlink:href="#DejaVuSans-30" transform="translate(63.623047 0.765625)"/>
       <use xlink:href="#DejaVuSans-33" transform="translate(128.203125 39.046875) scale(0.7)"/>
      </g>
     </g>
    </g>
    <g id="ytick_5">
     <g id="line2d_13">
      <g>
       <use xlink:href="#m503addc853" x="57.6" y="56.322335" style="stroke: #000000; stroke-width: 0.8"/>
      </g>
     </g>
     <g id="text_14">
      <!-- $\mathdefault{10^{4}}$ -->
      <g transform="translate(33 60.121554) scale(0.1 -0.1)">
       <defs>
        <path id="DejaVuSans-34" d="M 2419 4116 
L 825 1625 
L 2419 1625 
L 2419 4116 
z
M 2253 4666 
L 3047 4666 
L 3047 1625 
L 3713 1625 
L 3713 1100 
L 3047 1100 
L 3047 0 
L 2419 0 
L 2419 1100 
L 313 1100 
L 313 1709 
L 2253 4666 
z
" transform="scale(0.015625)"/>
       </defs>
       <use xlink:href="#DejaVuSans-31" transform="translate(0 0.684375)"/>
       <use xlink:href="#DejaVuSans-30" transform="translate(63.623047 0.684375)"/>
       <use xlink:href="#DejaVuSans-34" transform="translate(128.203125 38.965625) scale(0.7)"/>
      </g>
     </g>
    </g>
    <g id="ytick_6">
     <g id="line2d_14">
      <defs>
       <path id="mbdf454d301" d="M 0 0 
L -2 0 
" style="stroke: #000000; stroke-width: 0.6"/>
      </defs>
      <g>
       <use xlink:href="#mbdf454d301" x="57.6" y="304.749808" style="stroke: #000000; stroke-width: 0.6"/>
      </g>
     </g>
    </g>
    <g id="ytick_7">
     <g id="line2d_15">
      <g>
       <use xlink:href="#mbdf454d301" x="57.6" y="301.282387" style="stroke: #000000; stroke-width: 0.6"/>
      </g>
     </g>
    </g>
    <g id="ytick_8">
     <g id="line2d_16">
      <g>
       <use xlink:href="#mbdf454d301" x="57.6" y="298.223905" style="stroke: #000000; stroke-width: 0.6"/>
      </g>
     </g>
    </g>
    <g id="ytick_9">
     <g id="line2d_17">
      <g>
       <use xlink:href="#mbdf454d301" x="57.6" y="277.48899" style="stroke: #000000; stroke-width: 0.6"/>
      </g>
     </g>
    </g>
    <g id="ytick_10">
     <g id="line2d_18">
      <g>
       <use xlink:href="#mbdf454d301" x="57.6" y="266.960244" style="stroke: #000000; stroke-width: 0.6"/>
      </g>
     </g>
    </g>
    <g id="ytick_11">
     <g id="line2d_19">
      <g>
       <use xlink:href="#mbdf454d301" x="57.6" y="259.48998" style="stroke: #000000; stroke-width: 0.6"/>
      </g>
     </g>
    </g>
    <g id="ytick_12">
     <g id="line2d_20">
      <g>
       <use xlink:href="#mbdf454d301" x="57.6" y="253.695594" style="stroke: #000000; stroke-width: 0.6"/>
      </g>
     </g>
    </g>
    <g id="ytick_13">
     <g id="line2d_21">
      <g>
       <use xlink:href="#mbdf454d301" x="57.6" y="248.961235" style="stroke: #000000; stroke-width: 0.6"/>
      </g>
     </g>
    </g>
    <g id="ytick_14">
     <g id="line2d_22">
      <g>
       <use xlink:href="#mbdf454d301" x="57.6" y="244.958391" style="stroke: #000000; stroke-width: 0.6"/>
      </g>
     </g>
    </g>
    <g id="ytick_15">
     <g id="line2d_23">
      <g>
       <use xlink:href="#mbdf454d301" x="57.6" y="241.490971" style="stroke: #000000; stroke-width: 0.6"/>
      </g>
     </g>
    </g>
    <g id="ytick_16">
     <g id="line2d_24">
      <g>
       <use xlink:href="#mbdf454d301" x="57.6" y="238.432489" style="stroke: #000000; stroke-width: 0.6"/>
      </g>
     </g>
    </g>
    <g id="ytick_17">
     <g id="line2d_25">
      <g>
       <use xlink:href="#mbdf454d301" x="57.6" y="217.697574" style="stroke: #000000; stroke-width: 0.6"/>
      </g>
     </g>
    </g>
    <g id="ytick_18">
     <g id="line2d_26">
      <g>
       <use xlink:href="#mbdf454d301" x="57.6" y="207.168828" style="stroke: #000000; stroke-width: 0.6"/>
      </g>
     </g>
    </g>
    <g id="ytick_19">
     <g id="line2d_27">
      <g>
       <use xlink:href="#mbdf454d301" x="57.6" y="199.698564" style="stroke: #000000; stroke-width: 0.6"/>
      </g>
     </g>
    </g>
    <g id="ytick_20">
     <g id="line2d_28">
      <g>
       <use xlink:href="#mbdf454d301" x="57.6" y="193.904177" style="stroke: #000000; stroke-width: 0.6"/>
      </g>
     </g>
    </g>
    <g id="ytick_21">
     <g id="line2d_29">
      <g>
       <use xlink:href="#mbdf454d301" x="57.6" y="189.169819" style="stroke: #000000; stroke-width: 0.6"/>
      </g>
     </g>
    </g>
    <g id="ytick_22">
     <g id="line2d_30">
      <g>
       <use xlink:href="#mbdf454d301" x="57.6" y="185.166975" style="stroke: #000000; stroke-width: 0.6"/>
      </g>
     </g>
    </g>
    <g id="ytick_23">
     <g id="line2d_31">
      <g>
       <use xlink:href="#mbdf454d301" x="57.6" y="181.699555" style="stroke: #000000; stroke-width: 0.6"/>
      </g>
     </g>
    </g>
    <g id="ytick_24">
     <g id="line2d_32">
      <g>
       <use xlink:href="#mbdf454d301" x="57.6" y="178.641073" style="stroke: #000000; stroke-width: 0.6"/>
      </g>
     </g>
    </g>
    <g id="ytick_25">
     <g id="line2d_33">
      <g>
       <use xlink:href="#mbdf454d301" x="57.6" y="157.906158" style="stroke: #000000; stroke-width: 0.6"/>
      </g>
     </g>
    </g>
    <g id="ytick_26">
     <g id="line2d_34">
      <g>
       <use xlink:href="#mbdf454d301" x="57.6" y="147.377412" style="stroke: #000000; stroke-width: 0.6"/>
      </g>
     </g>
    </g>
    <g id="ytick_27">
     <g id="line2d_35">
      <g>
       <use xlink:href="#mbdf454d301" x="57.6" y="139.907148" style="stroke: #000000; stroke-width: 0.6"/>
      </g>
     </g>
    </g>
    <g id="ytick_28">
     <g id="line2d_36">
      <g>
       <use xlink:href="#mbdf454d301" x="57.6" y="134.112761" style="stroke: #000000; stroke-width: 0.6"/>
      </g>
     </g>
    </g>
    <g id="ytick_29">
     <g id="line2d_37">
      <g>
       <use xlink:href="#mbdf454d301" x="57.6" y="129.378402" style="stroke: #000000; stroke-width: 0.6"/>
      </g>
     </g>
    </g>
    <g id="ytick_30">
     <g id="line2d_38">
      <g>
       <use xlink:href="#mbdf454d301" x="57.6" y="125.375559" style="stroke: #000000; stroke-width: 0.6"/>
      </g>
     </g>
    </g>
    <g id="ytick_31">
     <g id="line2d_39">
      <g>
       <use xlink:href="#mbdf454d301" x="57.6" y="121.908138" style="stroke: #000000; stroke-width: 0.6"/>
      </g>
     </g>
    </g>
    <g id="ytick_32">
     <g id="line2d_40">
      <g>
       <use xlink:href="#mbdf454d301" x="57.6" y="118.849657" style="stroke: #000000; stroke-width: 0.6"/>
      </g>
     </g>
    </g>
    <g id="ytick_33">
     <g id="line2d_41">
      <g>
       <use xlink:href="#mbdf454d301" x="57.6" y="98.114742" style="stroke: #000000; stroke-width: 0.6"/>
      </g>
     </g>
    </g>
    <g id="ytick_34">
     <g id="line2d_42">
      <g>
       <use xlink:href="#mbdf454d301" x="57.6" y="87.585996" style="stroke: #000000; stroke-width: 0.6"/>
      </g>
     </g>
    </g>
    <g id="ytick_35">
     <g id="line2d_43">
      <g>
       <use xlink:href="#mbdf454d301" x="57.6" y="80.115732" style="stroke: #000000; stroke-width: 0.6"/>
      </g>
     </g>
    </g>
    <g id="ytick_36">
     <g id="line2d_44">
      <g>
       <use xlink:href="#mbdf454d301" x="57.6" y="74.321345" style="stroke: #000000; stroke-width: 0.6"/>
      </g>
     </g>
    </g>
    <g id="ytick_37">
     <g id="line2d_45">
      <g>
       <use xlink:href="#mbdf454d301" x="57.6" y="69.586986" style="stroke: #000000; stroke-width: 0.6"/>
      </g>
     </g>
    </g>
    <g id="ytick_38">
     <g id="line2d_46">
      <g>
       <use xlink:href="#mbdf454d301" x="57.6" y="65.584143" style="stroke: #000000; stroke-width: 0.6"/>
      </g>
     </g>
    </g>
    <g id="ytick_39">
     <g id="line2d_47">
      <g>
       <use xlink:href="#mbdf454d301" x="57.6" y="62.116722" style="stroke: #000000; stroke-width: 0.6"/>
      </g>
     </g>
    </g>
    <g id="ytick_40">
     <g id="line2d_48">
      <g>
       <use xlink:href="#mbdf454d301" x="57.6" y="59.05824" style="stroke: #000000; stroke-width: 0.6"/>
      </g>
     </g>
    </g>
    <g id="text_15">
     <!-- Number of Elements -->
     <g transform="translate(26.920312 225.917062) rotate(-90) scale(0.1 -0.1)">
      <defs>
       <path id="DejaVuSans-4e" d="M 628 4666 
L 1478 4666 
L 3547 763 
L 3547 4666 
L 4159 4666 
L 4159 0 
L 3309 0 
L 1241 3903 
L 1241 0 
L 628 0 
L 628 4666 
z
" transform="scale(0.015625)"/>
       <path id="DejaVuSans-75" d="M 544 1381 
L 544 3500 
L 1119 3500 
L 1119 1403 
Q 1119 906 1312 657 
Q 1506 409 1894 409 
Q 2359 409 2629 706 
Q 2900 1003 2900 1516 
L 2900 3500 
L 3475 3500 
L 3475 0 
L 2900 0 
L 2900 538 
Q 2691 219 2414 64 
Q 2138 -91 1772 -91 
Q 1169 -91 856 284 
Q 544 659 544 1381 
z
M 1991 3584 
L 1991 3584 
z
" transform="scale(0.015625)"/>
       <path id="DejaVuSans-62" d="M 3116 1747 
Q 3116 2381 2855 2742 
Q 2594 3103 2138 3103 
Q 1681 3103 1420 2742 
Q 1159 2381 1159 1747 
Q 1159 1113 1420 752 
Q 1681 391 2138 391 
Q 2594 391 2855 752 
Q 3116 1113 3116 1747 
z
M 1159 2969 
Q 1341 3281 1617 3432 
Q 1894 3584 2278 3584 
Q 2916 3584 3314 3078 
Q 3713 2572 3713 1747 
Q 3713 922 3314 415 
Q 2916 -91 2278 -91 
Q 1894 -91 1617 61 
Q 1341 213 1159 525 
L 1159 0 
L 581 0 
L 581 4863 
L 1159 4863 
L 1159 2969 
z
" transform="scale(0.015625)"/>
       <path id="DejaVuSans-72" d="M 2631 2963 
Q 2534 3019 2420 3045 
Q 2306 3072 2169 3072 
Q 1681 3072 1420 2755 
Q 1159 2438 1159 1844 
L 1159 0 
L 581 0 
L 581 3500 
L 1159 3500 
L 1159 2956 
Q 1341 3275 1631 3429 
Q 1922 3584 2338 3584 
Q 2397 3584 2469 3576 
Q 2541 3569 2628 3553 
L 2631 2963 
z
" transform="scale(0.015625)"/>
       <path id="DejaVuSans-73" d="M 2834 3397 
L 2834 2853 
Q 2591 2978 2328 3040 
Q 2066 3103 1784 3103 
Q 1356 3103 1142 2972 
Q 928 2841 928 2578 
Q 928 2378 1081 2264 
Q 1234 2150 1697 2047 
L 1894 2003 
Q 2506 1872 2764 1633 
Q 3022 1394 3022 966 
Q 3022 478 2636 193 
Q 2250 -91 1575 -91 
Q 1294 -91 989 -36 
Q 684 19 347 128 
L 347 722 
Q 666 556 975 473 
Q 1284 391 1588 391 
Q 1994 391 2212 530 
Q 2431 669 2431 922 
Q 2431 1156 2273 1281 
Q 2116 1406 1581 1522 
L 1381 1569 
Q 847 1681 609 1914 
Q 372 2147 372 2553 
Q 372 3047 722 3315 
Q 1072 3584 1716 3584 
Q 2034 3584 2315 3537 
Q 2597 3491 2834 3397 
z
" transform="scale(0.015625)"/>
      </defs>
      <use xlink:href="#DejaVuSans-4e"/>
      <use xlink:href="#DejaVuSans-75" x="74.804688"/>
      <use xlink:href="#DejaVuSans-6d" x="138.183594"/>
      <use xlink:href="#DejaVuSans-62" x="235.595703"/>
      <use xlink:href="#DejaVuSans-65" x="299.072266"/>
      <use xlink:href="#DejaVuSans-72" x="360.595703"/>
      <use xlink:href="#DejaVuSans-20" x="401.708984"/>
      <use xlink:href="#DejaVuSans-6f" x="433.496094"/>
      <use xlink:href="#DejaVuSans-66" x="494.677734"/>
      <use xlink:href="#DejaVuSans-20" x="529.882812"/>
      <use xlink:href="#DejaVuSans-45" x="561.669922"/>
      <use xlink:href="#DejaVuSans-6c" x="624.853516"/>
      <use xlink:href="#DejaVuSans-65" x="652.636719"/>
      <use xlink:href="#DejaVuSans-6d" x="714.160156"/>
      <use xlink:href="#DejaVuSans-65" x="811.572266"/>
      <use xlink:href="#DejaVuSans-6e" x="873.095703"/>
      <use xlink:href="#DejaVuSans-74" x="936.474609"/>
      <use xlink:href="#DejaVuSans-73" x="975.683594"/>
     </g>
    </g>
   </g>
   <g id="patch_128">
    <path d="M 57.6 307.584 
L 57.6 41.472 
" style="fill: none; stroke: #000000; stroke-width: 0.8; stroke-linejoin: miter; stroke-linecap: square"/>
   </g>
   <g id="patch_129">
    <path d="M 414.72 307.584 
L 414.72 41.472 
" style="fill: none; stroke: #000000; stroke-width: 0.8; stroke-linejoin: miter; stroke-linecap: square"/>
   </g>
   <g id="patch_130">
    <path d="M 57.6 307.584 
L 414.72 307.584 
" style="fill: none; stroke: #000000; stroke-width: 0.8; stroke-linejoin: miter; stroke-linecap: square"/>
   </g>
   <g id="patch_131">
    <path d="M 57.6 41.472 
L 414.72 41.472 
" style="fill: none; stroke: #000000; stroke-width: 0.8; stroke-linejoin: miter; stroke-linecap: square"/>
   </g>
  </g>
 </g>
 <defs>
  <clipPath id="p980f47574e">
   <rect x="57.6" y="41.472" width="357.12" height="266.112"/>
  </clipPath>
 </defs>
</svg>
