<?xml version="1.0" encoding="utf-8" standalone="no"?>
<!DOCTYPE svg PUBLIC "-//W3C//DTD SVG 1.1//EN"
  "http://www.w3.org/Graphics/SVG/1.1/DTD/svg11.dtd">
<svg xmlns:xlink="http://www.w3.org/1999/xlink" width="460.8pt" height="345.6pt" viewBox="0 0 460.8 345.6" xmlns="http://www.w3.org/2000/svg" version="1.1">
 <metadata>
  <rdf:RDF xmlns:dc="http://purl.org/dc/elements/1.1/" xmlns:cc="http://creativecommons.org/ns#" xmlns:rdf="http://www.w3.org/1999/02/22-rdf-syntax-ns#">
   <cc:Work>
    <dc:type rdf:resource="http://purl.org/dc/dcmitype/StillImage"/>
    <dc:date>2024-03-06T22:56:15.303571</dc:date>
    <dc:format>image/svg+xml</dc:format>
    <dc:creator>
     <cc:Agent>
      <dc:title>Matplotlib v3.8.3, https://matplotlib.org/</dc:title>
     </cc:Agent>
    </dc:creator>
   </cc:Work>
  </rdf:RDF>
 </metadata>
 <defs>
  <style type="text/css">*{stroke-linejoin: round; stroke-linecap: butt}</style>
 </defs>
 <g id="figure_1">
  <g id="patch_1">
   <path d="M 0 345.6 
L 460.8 345.6 
L 460.8 0 
L 0 0 
z
" style="fill: #ffffff"/>
  </g>
  <g id="axes_1">
   <g id="patch_2">
    <path d="M 57.6 307.584 
L 414.72 307.584 
L 414.72 41.472 
L 57.6 41.472 
z
" style="fill: #ffffff"/>
   </g>
   <g id="patch_3">
    <path d="M 73.832727 59019.838752 
L 74.848066 59019.838752 
L 74.848066 260.132418 
L 73.832727 260.132418 
z
" clip-path="url(#p673e3d4119)" style="fill: #1f77b4"/>
   </g>
   <g id="patch_4">
    <path d="M 75.101901 59019.838752 
L 76.117239 59019.838752 
L 76.117239 236.763649 
L 75.101901 236.763649 
z
" clip-path="url(#p673e3d4119)" style="fill: #1f77b4"/>
   </g>
   <g id="patch_5">
    <path d="M 77.640247 59019.838752 
L 78.655586 59019.838752 
L 78.655586 195.71709 
L 77.640247 195.71709 
z
" clip-path="url(#p673e3d4119)" style="fill: #1f77b4"/>
   </g>
   <g id="patch_6">
    <path d="M 78.909421 59019.838752 
L 79.924759 59019.838752 
L 79.924759 172.967874 
L 78.909421 172.967874 
z
" clip-path="url(#p673e3d4119)" style="fill: #1f77b4"/>
   </g>
   <g id="patch_7">
    <path d="M 82.716941 59019.838752 
L 83.732279 59019.838752 
L 83.732279 117.070348 
L 82.716941 117.070348 
z
" clip-path="url(#p673e3d4119)" style="fill: #1f77b4"/>
   </g>
   <g id="patch_8">
    <path d="M 76.371074 59019.838752 
L 77.386413 59019.838752 
L 77.386413 220.394025 
L 76.371074 220.394025 
z
" clip-path="url(#p673e3d4119)" style="fill: #1f77b4"/>
   </g>
   <g id="patch_9">
    <path d="M 80.178594 59019.838752 
L 81.193933 59019.838752 
L 81.193933 155.290082 
L 80.178594 155.290082 
z
" clip-path="url(#p673e3d4119)" style="fill: #1f77b4"/>
   </g>
   <g id="patch_10">
    <path d="M 83.986114 59019.838752 
L 85.001453 59019.838752 
L 85.001453 101.700996 
L 83.986114 101.700996 
z
" clip-path="url(#p673e3d4119)" style="fill: #1f77b4"/>
   </g>
   <g id="patch_11">
    <path d="M 81.447767 59019.838752 
L 82.463106 59019.838752 
L 82.463106 137.300634 
L 81.447767 137.300634 
z
" clip-path="url(#p673e3d4119)" style="fill: #1f77b4"/>
   </g>
   <g id="patch_12">
    <path d="M 86.524461 59019.838752 
L 87.5398 59019.838752 
L 87.5398 77.613767 
L 86.524461 77.613767 
z
" clip-path="url(#p673e3d4119)" style="fill: #1f77b4"/>
   </g>
   <g id="patch_13">
    <path d="M 85.255288 59019.838752 
L 86.270626 59019.838752 
L 86.270626 89.325653 
L 85.255288 89.325653 
z
" clip-path="url(#p673e3d4119)" style="fill: #1f77b4"/>
   </g>
   <g id="patch_14">
    <path d="M 89.062808 59019.838752 
L 90.078146 59019.838752 
L 90.078146 58.458348 
L 89.062808 58.458348 
z
" clip-path="url(#p673e3d4119)" style="fill: #1f77b4"/>
   </g>
   <g id="patch_15">
    <path d="M 87.793634 59019.838752 
L 88.808973 59019.838752 
L 88.808973 66.60238 
L 87.793634 66.60238 
z
" clip-path="url(#p673e3d4119)" style="fill: #1f77b4"/>
   </g>
   <g id="patch_16">
    <path d="M 94.139501 59019.838752 
L 95.15484 59019.838752 
L 95.15484 67.002586 
L 94.139501 67.002586 
z
" clip-path="url(#p673e3d4119)" style="fill: #1f77b4"/>
   </g>
   <g id="patch_17">
    <path d="M 90.331981 59019.838752 
L 91.34732 59019.838752 
L 91.34732 53.568 
L 90.331981 53.568 
z
" clip-path="url(#p673e3d4119)" style="fill: #1f77b4"/>
   </g>
   <g id="patch_18">
    <path d="M 96.677848 59019.838752 
L 97.693186 59019.838752 
L 97.693186 102.37457 
L 96.677848 102.37457 
z
" clip-path="url(#p673e3d4119)" style="fill: #1f77b4"/>
   </g>
   <g id="patch_19">
    <path d="M 92.870328 59019.838752 
L 93.885666 59019.838752 
L 93.885666 58.66089 
L 92.870328 58.66089 
z
" clip-path="url(#p673e3d4119)" style="fill: #1f77b4"/>
   </g>
   <g id="patch_20">
    <path d="M 97.947021 59019.838752 
L 98.96236 59019.838752 
L 98.96236 133.96618 
L 97.947021 133.96618 
z
" clip-path="url(#p673e3d4119)" style="fill: #1f77b4"/>
   </g>
   <g id="patch_21">
    <path d="M 100.485368 59019.838752 
L 101.500707 59019.838752 
L 101.500707 172.145103 
L 100.485368 172.145103 
z
" clip-path="url(#p673e3d4119)" style="fill: #1f77b4"/>
   </g>
   <g id="patch_22">
    <path d="M 91.601154 59019.838752 
L 92.616493 59019.838752 
L 92.616493 53.987783 
L 91.601154 53.987783 
z
" clip-path="url(#p673e3d4119)" style="fill: #1f77b4"/>
   </g>
   <g id="patch_23">
    <path d="M 95.408674 59019.838752 
L 96.424013 59019.838752 
L 96.424013 80.774749 
L 95.408674 80.774749 
z
" clip-path="url(#p673e3d4119)" style="fill: #1f77b4"/>
   </g>
   <g id="patch_24">
    <path d="M 109.369581 59019.838752 
L 110.38492 59019.838752 
L 110.38492 184.705057 
L 109.369581 184.705057 
z
" clip-path="url(#p673e3d4119)" style="fill: #1f77b4"/>
   </g>
   <g id="patch_25">
    <path d="M 99.216194 59019.838752 
L 100.231533 59019.838752 
L 100.231533 159.731755 
L 99.216194 159.731755 
z
" clip-path="url(#p673e3d4119)" style="fill: #1f77b4"/>
   </g>
   <g id="patch_26">
    <path d="M 108.100408 59019.838752 
L 109.115747 59019.838752 
L 109.115747 185.376245 
L 108.100408 185.376245 
z
" clip-path="url(#p673e3d4119)" style="fill: #1f77b4"/>
   </g>
   <g id="patch_27">
    <path d="M 101.754541 59019.838752 
L 102.76988 59019.838752 
L 102.76988 173.818074 
L 101.754541 173.818074 
z
" clip-path="url(#p673e3d4119)" style="fill: #1f77b4"/>
   </g>
   <g id="patch_28">
    <path d="M 103.023715 59019.838752 
L 104.039053 59019.838752 
L 104.039053 176.07651 
L 103.023715 176.07651 
z
" clip-path="url(#p673e3d4119)" style="fill: #1f77b4"/>
   </g>
   <g id="patch_29">
    <path d="M 104.292888 59019.838752 
L 105.308227 59019.838752 
L 105.308227 181.590991 
L 104.292888 181.590991 
z
" clip-path="url(#p673e3d4119)" style="fill: #1f77b4"/>
   </g>
   <g id="patch_30">
    <path d="M 106.831235 59019.838752 
L 107.846573 59019.838752 
L 107.846573 183.100524 
L 106.831235 183.100524 
z
" clip-path="url(#p673e3d4119)" style="fill: #1f77b4"/>
   </g>
   <g id="patch_31">
    <path d="M 119.522968 59019.838752 
L 120.538307 59019.838752 
L 120.538307 194.716818 
L 119.522968 194.716818 
z
" clip-path="url(#p673e3d4119)" style="fill: #1f77b4"/>
   </g>
   <g id="patch_32">
    <path d="M 110.638755 59019.838752 
L 111.654093 59019.838752 
L 111.654093 190.645665 
L 110.638755 190.645665 
z
" clip-path="url(#p673e3d4119)" style="fill: #1f77b4"/>
   </g>
   <g id="patch_33">
    <path d="M 111.907928 59019.838752 
L 112.923267 59019.838752 
L 112.923267 191.931836 
L 111.907928 191.931836 
z
" clip-path="url(#p673e3d4119)" style="fill: #1f77b4"/>
   </g>
   <g id="patch_34">
    <path d="M 115.715448 59019.838752 
L 116.730787 59019.838752 
L 116.730787 187.502781 
L 115.715448 187.502781 
z
" clip-path="url(#p673e3d4119)" style="fill: #1f77b4"/>
   </g>
   <g id="patch_35">
    <path d="M 120.792142 59019.838752 
L 121.80748 59019.838752 
L 121.80748 195.21205 
L 120.792142 195.21205 
z
" clip-path="url(#p673e3d4119)" style="fill: #1f77b4"/>
   </g>
   <g id="patch_36">
    <path d="M 105.562061 59019.838752 
L 106.5774 59019.838752 
L 106.5774 179.617348 
L 105.562061 179.617348 
z
" clip-path="url(#p673e3d4119)" style="fill: #1f77b4"/>
   </g>
   <g id="patch_37">
    <path d="M 125.868835 59019.838752 
L 126.884174 59019.838752 
L 126.884174 195.71709 
L 125.868835 195.71709 
z
" clip-path="url(#p673e3d4119)" style="fill: #1f77b4"/>
   </g>
   <g id="patch_38">
    <path d="M 130.945528 59019.838752 
L 131.960867 59019.838752 
L 131.960867 204.095146 
L 130.945528 204.095146 
z
" clip-path="url(#p673e3d4119)" style="fill: #1f77b4"/>
   </g>
   <g id="patch_39">
    <path d="M 113.177101 59019.838752 
L 114.19244 59019.838752 
L 114.19244 189.421254 
L 113.177101 189.421254 
z
" clip-path="url(#p673e3d4119)" style="fill: #1f77b4"/>
   </g>
   <g id="patch_40">
    <path d="M 118.253795 59019.838752 
L 119.269134 59019.838752 
L 119.269134 195.21205 
L 118.253795 195.21205 
z
" clip-path="url(#p673e3d4119)" style="fill: #1f77b4"/>
   </g>
   <g id="patch_41">
    <path d="M 133.483875 59019.838752 
L 134.499214 59019.838752 
L 134.499214 204.095146 
L 133.483875 204.095146 
z
" clip-path="url(#p673e3d4119)" style="fill: #1f77b4"/>
   </g>
   <g id="patch_42">
    <path d="M 124.599662 59019.838752 
L 125.615 59019.838752 
L 125.615 201.408067 
L 124.599662 201.408067 
z
" clip-path="url(#p673e3d4119)" style="fill: #1f77b4"/>
   </g>
   <g id="patch_43">
    <path d="M 129.676355 59019.838752 
L 130.691694 59019.838752 
L 130.691694 198.404168 
L 129.676355 198.404168 
z
" clip-path="url(#p673e3d4119)" style="fill: #1f77b4"/>
   </g>
   <g id="patch_44">
    <path d="M 114.446275 59019.838752 
L 115.461613 59019.838752 
L 115.461613 188.636464 
L 114.446275 188.636464 
z
" clip-path="url(#p673e3d4119)" style="fill: #1f77b4"/>
   </g>
   <g id="patch_45">
    <path d="M 158.867342 59019.838752 
L 159.882681 59019.838752 
L 159.882681 224.776836 
L 158.867342 224.776836 
z
" clip-path="url(#p673e3d4119)" style="fill: #1f77b4"/>
   </g>
   <g id="patch_46">
    <path d="M 149.983129 59019.838752 
L 150.998468 59019.838752 
L 150.998468 205.552895 
L 149.983129 205.552895 
z
" clip-path="url(#p673e3d4119)" style="fill: #1f77b4"/>
   </g>
   <g id="patch_47">
    <path d="M 137.291395 59019.838752 
L 138.306734 59019.838752 
L 138.306734 212.394609 
L 137.291395 212.394609 
z
" clip-path="url(#p673e3d4119)" style="fill: #1f77b4"/>
   </g>
   <g id="patch_48">
    <path d="M 134.753049 59019.838752 
L 135.768387 59019.838752 
L 135.768387 202.716234 
L 134.753049 202.716234 
z
" clip-path="url(#p673e3d4119)" style="fill: #1f77b4"/>
   </g>
   <g id="patch_49">
    <path d="M 122.061315 59019.838752 
L 123.076654 59019.838752 
L 123.076654 200.163739 
L 122.061315 200.163739 
z
" clip-path="url(#p673e3d4119)" style="fill: #1f77b4"/>
   </g>
   <g id="patch_50">
    <path d="M 151.252302 59019.838752 
L 152.267641 59019.838752 
L 152.267641 211.432092 
L 151.252302 211.432092 
z
" clip-path="url(#p673e3d4119)" style="fill: #1f77b4"/>
   </g>
   <g id="patch_51">
    <path d="M 128.407182 59019.838752 
L 129.42252 59019.838752 
L 129.42252 208.745013 
L 128.407182 208.745013 
z
" clip-path="url(#p673e3d4119)" style="fill: #1f77b4"/>
   </g>
   <g id="patch_52">
    <path d="M 127.138008 59019.838752 
L 128.153347 59019.838752 
L 128.153347 202.716234 
L 127.138008 202.716234 
z
" clip-path="url(#p673e3d4119)" style="fill: #1f77b4"/>
   </g>
   <g id="patch_53">
    <path d="M 143.637262 59019.838752 
L 144.652601 59019.838752 
L 144.652601 208.745013 
L 143.637262 208.745013 
z
" clip-path="url(#p673e3d4119)" style="fill: #1f77b4"/>
   </g>
   <g id="patch_54">
    <path d="M 147.444782 59019.838752 
L 148.460121 59019.838752 
L 148.460121 232.113782 
L 147.444782 232.113782 
z
" clip-path="url(#p673e3d4119)" style="fill: #1f77b4"/>
   </g>
   <g id="patch_55">
    <path d="M 171.559076 59019.838752 
L 172.574415 59019.838752 
L 172.574415 245.860166 
L 171.559076 245.860166 
z
" clip-path="url(#p673e3d4119)" style="fill: #1f77b4"/>
   </g>
   <g id="patch_56">
    <path d="M 144.906435 59019.838752 
L 145.921774 59019.838752 
L 145.921774 216.6551 
L 144.906435 216.6551 
z
" clip-path="url(#p673e3d4119)" style="fill: #1f77b4"/>
   </g>
   <g id="patch_57">
    <path d="M 116.984622 59019.838752 
L 117.99996 59019.838752 
L 117.99996 200.163739 
L 116.984622 200.163739 
z
" clip-path="url(#p673e3d4119)" style="fill: #1f77b4"/>
   </g>
   <g id="patch_58">
    <path d="M 123.330488 59019.838752 
L 124.345827 59019.838752 
L 124.345827 204.813607 
L 123.330488 204.813607 
z
" clip-path="url(#p673e3d4119)" style="fill: #1f77b4"/>
   </g>
   <g id="patch_59">
    <path d="M 132.214702 59019.838752 
L 133.230041 59019.838752 
L 133.230041 206.314255 
L 132.214702 206.314255 
z
" clip-path="url(#p673e3d4119)" style="fill: #1f77b4"/>
   </g>
   <g id="patch_60">
    <path d="M 142.368089 59019.838752 
L 143.383427 59019.838752 
L 143.383427 213.394881 
L 142.368089 213.394881 
z
" clip-path="url(#p673e3d4119)" style="fill: #1f77b4"/>
   </g>
   <g id="patch_61">
    <path d="M 152.521476 59019.838752 
L 153.536814 59019.838752 
L 153.536814 228.182375 
L 152.521476 228.182375 
z
" clip-path="url(#p673e3d4119)" style="fill: #1f77b4"/>
   </g>
   <g id="patch_62">
    <path d="M 148.713956 59019.838752 
L 149.729294 59019.838752 
L 149.729294 219.085858 
L 148.713956 219.085858 
z
" clip-path="url(#p673e3d4119)" style="fill: #1f77b4"/>
   </g>
   <g id="patch_63">
    <path d="M 136.022222 59019.838752 
L 137.037561 59019.838752 
L 137.037561 212.394609 
L 136.022222 212.394609 
z
" clip-path="url(#p673e3d4119)" style="fill: #1f77b4"/>
   </g>
   <g id="patch_64">
    <path d="M 141.098915 59019.838752 
L 142.114254 59019.838752 
L 142.114254 211.432092 
L 141.098915 211.432092 
z
" clip-path="url(#p673e3d4119)" style="fill: #1f77b4"/>
   </g>
   <g id="patch_65">
    <path d="M 155.059822 59019.838752 
L 156.075161 59019.838752 
L 156.075161 226.422804 
L 155.059822 226.422804 
z
" clip-path="url(#p673e3d4119)" style="fill: #1f77b4"/>
   </g>
   <g id="patch_66">
    <path d="M 161.405689 59019.838752 
L 162.421028 59019.838752 
L 162.421028 232.113782 
L 161.405689 232.113782 
z
" clip-path="url(#p673e3d4119)" style="fill: #1f77b4"/>
   </g>
   <g id="patch_67">
    <path d="M 139.829742 59019.838752 
L 140.845081 59019.838752 
L 140.845081 217.84153 
L 139.829742 217.84153 
z
" clip-path="url(#p673e3d4119)" style="fill: #1f77b4"/>
   </g>
   <g id="patch_68">
    <path d="M 157.598169 59019.838752 
L 158.613508 59019.838752 
L 158.613508 230.0724 
L 157.598169 230.0724 
z
" clip-path="url(#p673e3d4119)" style="fill: #1f77b4"/>
   </g>
   <g id="patch_69">
    <path d="M 146.175609 59019.838752 
L 147.190947 59019.838752 
L 147.190947 213.394881 
L 146.175609 213.394881 
z
" clip-path="url(#p673e3d4119)" style="fill: #1f77b4"/>
   </g>
   <g id="patch_70">
    <path d="M 138.560569 59019.838752 
L 139.575907 59019.838752 
L 139.575907 212.394609 
L 138.560569 212.394609 
z
" clip-path="url(#p673e3d4119)" style="fill: #1f77b4"/>
   </g>
   <g id="patch_71">
    <path d="M 181.712463 59019.838752 
L 182.727802 59019.838752 
L 182.727802 239.450728 
L 181.712463 239.450728 
z
" clip-path="url(#p673e3d4119)" style="fill: #1f77b4"/>
   </g>
   <g id="patch_72">
    <path d="M 156.328996 59019.838752 
L 157.344334 59019.838752 
L 157.344334 221.772937 
L 156.328996 221.772937 
z
" clip-path="url(#p673e3d4119)" style="fill: #1f77b4"/>
   </g>
   <g id="patch_73">
    <path d="M 160.136516 59019.838752 
L 161.151854 59019.838752 
L 161.151854 223.230686 
L 160.136516 223.230686 
z
" clip-path="url(#p673e3d4119)" style="fill: #1f77b4"/>
   </g>
   <g id="patch_74">
    <path d="M 174.097423 59019.838752 
L 175.112761 59019.838752 
L 175.112761 242.454627 
L 174.097423 242.454627 
z
" clip-path="url(#p673e3d4119)" style="fill: #1f77b4"/>
   </g>
   <g id="patch_75">
    <path d="M 180.44329 59019.838752 
L 181.458628 59019.838752 
L 181.458628 249.791573 
L 180.44329 249.791573 
z
" clip-path="url(#p673e3d4119)" style="fill: #1f77b4"/>
   </g>
   <g id="patch_76">
    <path d="M 175.366596 59019.838752 
L 176.381935 59019.838752 
L 176.381935 242.454627 
L 175.366596 242.454627 
z
" clip-path="url(#p673e3d4119)" style="fill: #1f77b4"/>
   </g>
   <g id="patch_77">
    <path d="M 167.751556 59019.838752 
L 168.766895 59019.838752 
L 168.766895 239.450728 
L 167.751556 239.450728 
z
" clip-path="url(#p673e3d4119)" style="fill: #1f77b4"/>
   </g>
   <g id="patch_78">
    <path d="M 165.213209 59019.838752 
L 166.228548 59019.838752 
L 166.228548 239.450728 
L 165.213209 239.450728 
z
" clip-path="url(#p673e3d4119)" style="fill: #1f77b4"/>
   </g>
   <g id="patch_79">
    <path d="M 202.019237 59019.838752 
L 203.034575 59019.838752 
L 203.034575 267.469364 
L 202.019237 267.469364 
z
" clip-path="url(#p673e3d4119)" style="fill: #1f77b4"/>
   </g>
   <g id="patch_80">
    <path d="M 185.519983 59019.838752 
L 186.535322 59019.838752 
L 186.535322 245.860166 
L 185.519983 245.860166 
z
" clip-path="url(#p673e3d4119)" style="fill: #1f77b4"/>
   </g>
   <g id="patch_81">
    <path d="M 166.482383 59019.838752 
L 167.497721 59019.838752 
L 167.497721 221.772937 
L 166.482383 221.772937 
z
" clip-path="url(#p673e3d4119)" style="fill: #1f77b4"/>
   </g>
   <g id="patch_82">
    <path d="M 189.327503 59019.838752 
L 190.342842 59019.838752 
L 190.342842 254.44144 
L 189.327503 254.44144 
z
" clip-path="url(#p673e3d4119)" style="fill: #1f77b4"/>
   </g>
   <g id="patch_83">
    <path d="M 213.441797 59019.838752 
L 214.457136 59019.838752 
L 214.457136 295.488 
L 213.441797 295.488 
z
" clip-path="url(#p673e3d4119)" style="fill: #1f77b4"/>
   </g>
   <g id="patch_84">
    <path d="M 162.674862 59019.838752 
L 163.690201 59019.838752 
L 163.690201 223.230686 
L 162.674862 223.230686 
z
" clip-path="url(#p673e3d4119)" style="fill: #1f77b4"/>
   </g>
   <g id="patch_85">
    <path d="M 184.25081 59019.838752 
L 185.266148 59019.838752 
L 185.266148 249.791573 
L 184.25081 249.791573 
z
" clip-path="url(#p673e3d4119)" style="fill: #1f77b4"/>
   </g>
   <g id="patch_86">
    <path d="M 169.020729 59019.838752 
L 170.036068 59019.838752 
L 170.036068 230.0724 
L 169.020729 230.0724 
z
" clip-path="url(#p673e3d4119)" style="fill: #1f77b4"/>
   </g>
   <g id="patch_87">
    <path d="M 153.790649 59019.838752 
L 154.805988 59019.838752 
L 154.805988 228.182375 
L 153.790649 228.182375 
z
" clip-path="url(#p673e3d4119)" style="fill: #1f77b4"/>
   </g>
   <g id="patch_88">
    <path d="M 170.289903 59019.838752 
L 171.305241 59019.838752 
L 171.305241 245.860166 
L 170.289903 245.860166 
z
" clip-path="url(#p673e3d4119)" style="fill: #1f77b4"/>
   </g>
   <g id="patch_89">
    <path d="M 195.67337 59019.838752 
L 196.688709 59019.838752 
L 196.688709 277.810209 
L 195.67337 277.810209 
z
" clip-path="url(#p673e3d4119)" style="fill: #1f77b4"/>
   </g>
   <g id="patch_90">
    <path d="M 172.828249 59019.838752 
L 173.843588 59019.838752 
L 173.843588 260.132418 
L 172.828249 260.132418 
z
" clip-path="url(#p673e3d4119)" style="fill: #1f77b4"/>
   </g>
   <g id="patch_91">
    <path d="M 193.135023 59019.838752 
L 194.150362 59019.838752 
L 194.150362 254.44144 
L 193.135023 254.44144 
z
" clip-path="url(#p673e3d4119)" style="fill: #1f77b4"/>
   </g>
   <g id="patch_92">
    <path d="M 176.635769 59019.838752 
L 177.651108 59019.838752 
L 177.651108 254.44144 
L 176.635769 254.44144 
z
" clip-path="url(#p673e3d4119)" style="fill: #1f77b4"/>
   </g>
   <g id="patch_93">
    <path d="M 214.71097 59019.838752 
L 215.726309 59019.838752 
L 215.726309 295.488 
L 214.71097 295.488 
z
" clip-path="url(#p673e3d4119)" style="fill: #1f77b4"/>
   </g>
   <g id="patch_94">
    <path d="M 208.365103 59019.838752 
L 209.380442 59019.838752 
L 209.380442 260.132418 
L 208.365103 260.132418 
z
" clip-path="url(#p673e3d4119)" style="fill: #1f77b4"/>
   </g>
   <g id="patch_95">
    <path d="M 179.174116 59019.838752 
L 180.189455 59019.838752 
L 180.189455 239.450728 
L 179.174116 239.450728 
z
" clip-path="url(#p673e3d4119)" style="fill: #1f77b4"/>
   </g>
   <g id="patch_96">
    <path d="M 177.904943 59019.838752 
L 178.920281 59019.838752 
L 178.920281 245.860166 
L 177.904943 245.860166 
z
" clip-path="url(#p673e3d4119)" style="fill: #1f77b4"/>
   </g>
   <g id="patch_97">
    <path d="M 163.944036 59019.838752 
L 164.959375 59019.838752 
L 164.959375 232.113782 
L 163.944036 232.113782 
z
" clip-path="url(#p673e3d4119)" style="fill: #1f77b4"/>
   </g>
   <g id="patch_98">
    <path d="M 186.789156 59019.838752 
L 187.804495 59019.838752 
L 187.804495 249.791573 
L 186.789156 249.791573 
z
" clip-path="url(#p673e3d4119)" style="fill: #1f77b4"/>
   </g>
   <g id="patch_99">
    <path d="M 190.596676 59019.838752 
L 191.612015 59019.838752 
L 191.612015 249.791573 
L 190.596676 249.791573 
z
" clip-path="url(#p673e3d4119)" style="fill: #1f77b4"/>
   </g>
   <g id="patch_100">
    <path d="M 204.557583 59019.838752 
L 205.572922 59019.838752 
L 205.572922 277.810209 
L 204.557583 277.810209 
z
" clip-path="url(#p673e3d4119)" style="fill: #1f77b4"/>
   </g>
   <g id="patch_101">
    <path d="M 229.941051 59019.838752 
L 230.956389 59019.838752 
L 230.956389 277.810209 
L 229.941051 277.810209 
z
" clip-path="url(#p673e3d4119)" style="fill: #1f77b4"/>
   </g>
   <g id="patch_102">
    <path d="M 198.211717 59019.838752 
L 199.227055 59019.838752 
L 199.227055 260.132418 
L 198.211717 260.132418 
z
" clip-path="url(#p673e3d4119)" style="fill: #1f77b4"/>
   </g>
   <g id="patch_103">
    <path d="M 223.595184 59019.838752 
L 224.610522 59019.838752 
L 224.610522 267.469364 
L 223.595184 267.469364 
z
" clip-path="url(#p673e3d4119)" style="fill: #1f77b4"/>
   </g>
   <g id="patch_104">
    <path d="M 203.28841 59019.838752 
L 204.303749 59019.838752 
L 204.303749 260.132418 
L 203.28841 260.132418 
z
" clip-path="url(#p673e3d4119)" style="fill: #1f77b4"/>
   </g>
   <g id="patch_105">
    <path d="M 182.981636 59019.838752 
L 183.996975 59019.838752 
L 183.996975 260.132418 
L 182.981636 260.132418 
z
" clip-path="url(#p673e3d4119)" style="fill: #1f77b4"/>
   </g>
   <g id="patch_106">
    <path d="M 209.634277 59019.838752 
L 210.649615 59019.838752 
L 210.649615 277.810209 
L 209.634277 277.810209 
z
" clip-path="url(#p673e3d4119)" style="fill: #1f77b4"/>
   </g>
   <g id="patch_107">
    <path d="M 196.942543 59019.838752 
L 197.957882 59019.838752 
L 197.957882 260.132418 
L 196.942543 260.132418 
z
" clip-path="url(#p673e3d4119)" style="fill: #1f77b4"/>
   </g>
   <g id="patch_108">
    <path d="M 200.750063 59019.838752 
L 201.765402 59019.838752 
L 201.765402 277.810209 
L 200.750063 277.810209 
z
" clip-path="url(#p673e3d4119)" style="fill: #1f77b4"/>
   </g>
   <g id="patch_109">
    <path d="M 194.404196 59019.838752 
L 195.419535 59019.838752 
L 195.419535 295.488 
L 194.404196 295.488 
z
" clip-path="url(#p673e3d4119)" style="fill: #1f77b4"/>
   </g>
   <g id="patch_110">
    <path d="M 268.016251 59019.838752 
L 269.03159 59019.838752 
L 269.03159 295.488 
L 268.016251 295.488 
z
" clip-path="url(#p673e3d4119)" style="fill: #1f77b4"/>
   </g>
   <g id="patch_111">
    <path d="M 243.901957 59019.838752 
L 244.917296 59019.838752 
L 244.917296 295.488 
L 243.901957 295.488 
z
" clip-path="url(#p673e3d4119)" style="fill: #1f77b4"/>
   </g>
   <g id="patch_112">
    <path d="M 199.48089 59019.838752 
L 200.496229 59019.838752 
L 200.496229 267.469364 
L 199.48089 267.469364 
z
" clip-path="url(#p673e3d4119)" style="fill: #1f77b4"/>
   </g>
   <g id="patch_113">
    <path d="M 233.748571 59019.838752 
L 234.763909 59019.838752 
L 234.763909 295.488 
L 233.748571 295.488 
z
" clip-path="url(#p673e3d4119)" style="fill: #1f77b4"/>
   </g>
   <g id="patch_114">
    <path d="M 191.86585 59019.838752 
L 192.881188 59019.838752 
L 192.881188 260.132418 
L 191.86585 260.132418 
z
" clip-path="url(#p673e3d4119)" style="fill: #1f77b4"/>
   </g>
   <g id="patch_115">
    <path d="M 240.094437 59019.838752 
L 241.109776 59019.838752 
L 241.109776 295.488 
L 240.094437 295.488 
z
" clip-path="url(#p673e3d4119)" style="fill: #1f77b4"/>
   </g>
   <g id="patch_116">
    <path d="M 188.05833 59019.838752 
L 189.073668 59019.838752 
L 189.073668 277.810209 
L 188.05833 277.810209 
z
" clip-path="url(#p673e3d4119)" style="fill: #1f77b4"/>
   </g>
   <g id="patch_117">
    <path d="M 260.401211 59019.838752 
L 261.41655 59019.838752 
L 261.41655 295.488 
L 260.401211 295.488 
z
" clip-path="url(#p673e3d4119)" style="fill: #1f77b4"/>
   </g>
   <g id="patch_118">
    <path d="M 218.51849 59019.838752 
L 219.533829 59019.838752 
L 219.533829 267.469364 
L 218.51849 267.469364 
z
" clip-path="url(#p673e3d4119)" style="fill: #1f77b4"/>
   </g>
   <g id="patch_119">
    <path d="M 248.978651 59019.838752 
L 249.99399 59019.838752 
L 249.99399 295.488 
L 248.978651 295.488 
z
" clip-path="url(#p673e3d4119)" style="fill: #1f77b4"/>
   </g>
   <g id="patch_120">
    <path d="M 215.980144 59019.838752 
L 216.995482 59019.838752 
L 216.995482 295.488 
L 215.980144 295.488 
z
" clip-path="url(#p673e3d4119)" style="fill: #1f77b4"/>
   </g>
   <g id="patch_121">
    <path d="M 246.440304 59019.838752 
L 247.455643 59019.838752 
L 247.455643 295.488 
L 246.440304 295.488 
z
" clip-path="url(#p673e3d4119)" style="fill: #1f77b4"/>
   </g>
   <g id="patch_122">
    <path d="M 221.056837 59019.838752 
L 222.072176 59019.838752 
L 222.072176 295.488 
L 221.056837 295.488 
z
" clip-path="url(#p673e3d4119)" style="fill: #1f77b4"/>
   </g>
   <g id="patch_123">
    <path d="M 290.861372 59019.838752 
L 291.87671 59019.838752 
L 291.87671 295.488 
L 290.861372 295.488 
z
" clip-path="url(#p673e3d4119)" style="fill: #1f77b4"/>
   </g>
   <g id="patch_124">
    <path d="M 224.864357 59019.838752 
L 225.879696 59019.838752 
L 225.879696 295.488 
L 224.864357 295.488 
z
" clip-path="url(#p673e3d4119)" style="fill: #1f77b4"/>
   </g>
   <g id="patch_125">
    <path d="M 232.479397 59019.838752 
L 233.494736 59019.838752 
L 233.494736 295.488 
L 232.479397 295.488 
z
" clip-path="url(#p673e3d4119)" style="fill: #1f77b4"/>
   </g>
   <g id="patch_126">
    <path d="M 273.092945 59019.838752 
L 274.108283 59019.838752 
L 274.108283 295.488 
L 273.092945 295.488 
z
" clip-path="url(#p673e3d4119)" style="fill: #1f77b4"/>
   </g>
   <g id="patch_127">
    <path d="M 397.471934 59019.838752 
L 398.487273 59019.838752 
L 398.487273 295.488 
L 397.471934 295.488 
z
" clip-path="url(#p673e3d4119)" style="fill: #1f77b4"/>
   </g>
   <g id="patch_128">
    <path d="M 367.011773 59019.838752 
L 368.027112 59019.838752 
L 368.027112 295.488 
L 367.011773 295.488 
z
" clip-path="url(#p673e3d4119)" style="fill: #1f77b4"/>
   </g>
   <g id="patch_129">
    <path d="M 370.819293 59019.838752 
L 371.834632 59019.838752 
L 371.834632 295.488 
L 370.819293 295.488 
z
" clip-path="url(#p673e3d4119)" style="fill: #1f77b4"/>
   </g>
   <g id="matplotlib.axis_1">
    <g id="xtick_1">
     <g id="line2d_1">
      <defs>
       <path id="m95039c79be" d="M 0 0 
L 0 3.5 
" style="stroke: #000000; stroke-width: 0.8"/>
      </defs>
      <g>
       <use xlink:href="#m95039c79be" x="74.340397" y="307.584" style="stroke: #000000; stroke-width: 0.8"/>
      </g>
     </g>
     <g id="text_1">
      <!-- 0 -->
      <g transform="translate(71.159147 322.182437) scale(0.1 -0.1)">
       <defs>
        <path id="DejaVuSans-30" d="M 2034 4250 
Q 1547 4250 1301 3770 
Q 1056 3291 1056 2328 
Q 1056 1369 1301 889 
Q 1547 409 2034 409 
Q 2525 409 2770 889 
Q 3016 1369 3016 2328 
Q 3016 3291 2770 3770 
Q 2525 4250 2034 4250 
z
M 2034 4750 
Q 2819 4750 3233 4129 
Q 3647 3509 3647 2328 
Q 3647 1150 3233 529 
Q 2819 -91 2034 -91 
Q 1250 -91 836 529 
Q 422 1150 422 2328 
Q 422 3509 836 4129 
Q 1250 4750 2034 4750 
z
" transform="scale(0.015625)"/>
       </defs>
       <use xlink:href="#DejaVuSans-30"/>
      </g>
     </g>
    </g>
    <g id="xtick_2">
     <g id="line2d_2">
      <g>
       <use xlink:href="#m95039c79be" x="137.799065" y="307.584" style="stroke: #000000; stroke-width: 0.8"/>
      </g>
     </g>
     <g id="text_2">
      <!-- 50 -->
      <g transform="translate(131.436565 322.182437) scale(0.1 -0.1)">
       <defs>
        <path id="DejaVuSans-35" d="M 691 4666 
L 3169 4666 
L 3169 4134 
L 1269 4134 
L 1269 2991 
Q 1406 3038 1543 3061 
Q 1681 3084 1819 3084 
Q 2600 3084 3056 2656 
Q 3513 2228 3513 1497 
Q 3513 744 3044 326 
Q 2575 -91 1722 -91 
Q 1428 -91 1123 -41 
Q 819 9 494 109 
L 494 744 
Q 775 591 1075 516 
Q 1375 441 1709 441 
Q 2250 441 2565 725 
Q 2881 1009 2881 1497 
Q 2881 1984 2565 2268 
Q 2250 2553 1709 2553 
Q 1456 2553 1204 2497 
Q 953 2441 691 2322 
L 691 4666 
z
" transform="scale(0.015625)"/>
       </defs>
       <use xlink:href="#DejaVuSans-35"/>
       <use xlink:href="#DejaVuSans-30" x="63.623047"/>
      </g>
     </g>
    </g>
    <g id="xtick_3">
     <g id="line2d_3">
      <g>
       <use xlink:href="#m95039c79be" x="201.257733" y="307.584" style="stroke: #000000; stroke-width: 0.8"/>
      </g>
     </g>
     <g id="text_3">
      <!-- 100 -->
      <g transform="translate(191.713983 322.182437) scale(0.1 -0.1)">
       <defs>
        <path id="DejaVuSans-31" d="M 794 531 
L 1825 531 
L 1825 4091 
L 703 3866 
L 703 4441 
L 1819 4666 
L 2450 4666 
L 2450 531 
L 3481 531 
L 3481 0 
L 794 0 
L 794 531 
z
" transform="scale(0.015625)"/>
       </defs>
       <use xlink:href="#DejaVuSans-31"/>
       <use xlink:href="#DejaVuSans-30" x="63.623047"/>
       <use xlink:href="#DejaVuSans-30" x="127.246094"/>
      </g>
     </g>
    </g>
    <g id="xtick_4">
     <g id="line2d_4">
      <g>
       <use xlink:href="#m95039c79be" x="264.716401" y="307.584" style="stroke: #000000; stroke-width: 0.8"/>
      </g>
     </g>
     <g id="text_4">
      <!-- 150 -->
      <g transform="translate(255.172651 322.182437) scale(0.1 -0.1)">
       <use xlink:href="#DejaVuSans-31"/>
       <use xlink:href="#DejaVuSans-35" x="63.623047"/>
       <use xlink:href="#DejaVuSans-30" x="127.246094"/>
      </g>
     </g>
    </g>
    <g id="xtick_5">
     <g id="line2d_5">
      <g>
       <use xlink:href="#m95039c79be" x="328.175069" y="307.584" style="stroke: #000000; stroke-width: 0.8"/>
      </g>
     </g>
     <g id="text_5">
      <!-- 200 -->
      <g transform="translate(318.631319 322.182437) scale(0.1 -0.1)">
       <defs>
        <path id="DejaVuSans-32" d="M 1228 531 
L 3431 531 
L 3431 0 
L 469 0 
L 469 531 
Q 828 903 1448 1529 
Q 2069 2156 2228 2338 
Q 2531 2678 2651 2914 
Q 2772 3150 2772 3378 
Q 2772 3750 2511 3984 
Q 2250 4219 1831 4219 
Q 1534 4219 1204 4116 
Q 875 4013 500 3803 
L 500 4441 
Q 881 4594 1212 4672 
Q 1544 4750 1819 4750 
Q 2544 4750 2975 4387 
Q 3406 4025 3406 3419 
Q 3406 3131 3298 2873 
Q 3191 2616 2906 2266 
Q 2828 2175 2409 1742 
Q 1991 1309 1228 531 
z
" transform="scale(0.015625)"/>
       </defs>
       <use xlink:href="#DejaVuSans-32"/>
       <use xlink:href="#DejaVuSans-30" x="63.623047"/>
       <use xlink:href="#DejaVuSans-30" x="127.246094"/>
      </g>
     </g>
    </g>
    <g id="xtick_6">
     <g id="line2d_6">
      <g>
       <use xlink:href="#m95039c79be" x="391.633737" y="307.584" style="stroke: #000000; stroke-width: 0.8"/>
      </g>
     </g>
     <g id="text_6">
      <!-- 250 -->
      <g transform="translate(382.089987 322.182437) scale(0.1 -0.1)">
       <use xlink:href="#DejaVuSans-32"/>
       <use xlink:href="#DejaVuSans-35" x="63.623047"/>
       <use xlink:href="#DejaVuSans-30" x="127.246094"/>
      </g>
     </g>
    </g>
    <g id="text_7">
     <!-- Depth of Element -->
     <g transform="translate(192.231875 335.860562) scale(0.1 -0.1)">
      <defs>
       <path id="DejaVuSans-44" d="M 1259 4147 
L 1259 519 
L 2022 519 
Q 2988 519 3436 956 
Q 3884 1394 3884 2338 
Q 3884 3275 3436 3711 
Q 2988 4147 2022 4147 
L 1259 4147 
z
M 628 4666 
L 1925 4666 
Q 3281 4666 3915 4102 
Q 4550 3538 4550 2338 
Q 4550 1131 3912 565 
Q 3275 0 1925 0 
L 628 0 
L 628 4666 
z
" transform="scale(0.015625)"/>
       <path id="DejaVuSans-65" d="M 3597 1894 
L 3597 1613 
L 953 1613 
Q 991 1019 1311 708 
Q 1631 397 2203 397 
Q 2534 397 2845 478 
Q 3156 559 3463 722 
L 3463 178 
Q 3153 47 2828 -22 
Q 2503 -91 2169 -91 
Q 1331 -91 842 396 
Q 353 884 353 1716 
Q 353 2575 817 3079 
Q 1281 3584 2069 3584 
Q 2775 3584 3186 3129 
Q 3597 2675 3597 1894 
z
M 3022 2063 
Q 3016 2534 2758 2815 
Q 2500 3097 2075 3097 
Q 1594 3097 1305 2825 
Q 1016 2553 972 2059 
L 3022 2063 
z
" transform="scale(0.015625)"/>
       <path id="DejaVuSans-70" d="M 1159 525 
L 1159 -1331 
L 581 -1331 
L 581 3500 
L 1159 3500 
L 1159 2969 
Q 1341 3281 1617 3432 
Q 1894 3584 2278 3584 
Q 2916 3584 3314 3078 
Q 3713 2572 3713 1747 
Q 3713 922 3314 415 
Q 2916 -91 2278 -91 
Q 1894 -91 1617 61 
Q 1341 213 1159 525 
z
M 3116 1747 
Q 3116 2381 2855 2742 
Q 2594 3103 2138 3103 
Q 1681 3103 1420 2742 
Q 1159 2381 1159 1747 
Q 1159 1113 1420 752 
Q 1681 391 2138 391 
Q 2594 391 2855 752 
Q 3116 1113 3116 1747 
z
" transform="scale(0.015625)"/>
       <path id="DejaVuSans-74" d="M 1172 4494 
L 1172 3500 
L 2356 3500 
L 2356 3053 
L 1172 3053 
L 1172 1153 
Q 1172 725 1289 603 
Q 1406 481 1766 481 
L 2356 481 
L 2356 0 
L 1766 0 
Q 1100 0 847 248 
Q 594 497 594 1153 
L 594 3053 
L 172 3053 
L 172 3500 
L 594 3500 
L 594 4494 
L 1172 4494 
z
" transform="scale(0.015625)"/>
       <path id="DejaVuSans-68" d="M 3513 2113 
L 3513 0 
L 2938 0 
L 2938 2094 
Q 2938 2591 2744 2837 
Q 2550 3084 2163 3084 
Q 1697 3084 1428 2787 
Q 1159 2491 1159 1978 
L 1159 0 
L 581 0 
L 581 4863 
L 1159 4863 
L 1159 2956 
Q 1366 3272 1645 3428 
Q 1925 3584 2291 3584 
Q 2894 3584 3203 3211 
Q 3513 2838 3513 2113 
z
" transform="scale(0.015625)"/>
       <path id="DejaVuSans-20" transform="scale(0.015625)"/>
       <path id="DejaVuSans-6f" d="M 1959 3097 
Q 1497 3097 1228 2736 
Q 959 2375 959 1747 
Q 959 1119 1226 758 
Q 1494 397 1959 397 
Q 2419 397 2687 759 
Q 2956 1122 2956 1747 
Q 2956 2369 2687 2733 
Q 2419 3097 1959 3097 
z
M 1959 3584 
Q 2709 3584 3137 3096 
Q 3566 2609 3566 1747 
Q 3566 888 3137 398 
Q 2709 -91 1959 -91 
Q 1206 -91 779 398 
Q 353 888 353 1747 
Q 353 2609 779 3096 
Q 1206 3584 1959 3584 
z
" transform="scale(0.015625)"/>
       <path id="DejaVuSans-66" d="M 2375 4863 
L 2375 4384 
L 1825 4384 
Q 1516 4384 1395 4259 
Q 1275 4134 1275 3809 
L 1275 3500 
L 2222 3500 
L 2222 3053 
L 1275 3053 
L 1275 0 
L 697 0 
L 697 3053 
L 147 3053 
L 147 3500 
L 697 3500 
L 697 3744 
Q 697 4328 969 4595 
Q 1241 4863 1831 4863 
L 2375 4863 
z
" transform="scale(0.015625)"/>
       <path id="DejaVuSans-45" d="M 628 4666 
L 3578 4666 
L 3578 4134 
L 1259 4134 
L 1259 2753 
L 3481 2753 
L 3481 2222 
L 1259 2222 
L 1259 531 
L 3634 531 
L 3634 0 
L 628 0 
L 628 4666 
z
" transform="scale(0.015625)"/>
       <path id="DejaVuSans-6c" d="M 603 4863 
L 1178 4863 
L 1178 0 
L 603 0 
L 603 4863 
z
" transform="scale(0.015625)"/>
       <path id="DejaVuSans-6d" d="M 3328 2828 
Q 3544 3216 3844 3400 
Q 4144 3584 4550 3584 
Q 5097 3584 5394 3201 
Q 5691 2819 5691 2113 
L 5691 0 
L 5113 0 
L 5113 2094 
Q 5113 2597 4934 2840 
Q 4756 3084 4391 3084 
Q 3944 3084 3684 2787 
Q 3425 2491 3425 1978 
L 3425 0 
L 2847 0 
L 2847 2094 
Q 2847 2600 2669 2842 
Q 2491 3084 2119 3084 
Q 1678 3084 1418 2786 
Q 1159 2488 1159 1978 
L 1159 0 
L 581 0 
L 581 3500 
L 1159 3500 
L 1159 2956 
Q 1356 3278 1631 3431 
Q 1906 3584 2284 3584 
Q 2666 3584 2933 3390 
Q 3200 3197 3328 2828 
z
" transform="scale(0.015625)"/>
       <path id="DejaVuSans-6e" d="M 3513 2113 
L 3513 0 
L 2938 0 
L 2938 2094 
Q 2938 2591 2744 2837 
Q 2550 3084 2163 3084 
Q 1697 3084 1428 2787 
Q 1159 2491 1159 1978 
L 1159 0 
L 581 0 
L 581 3500 
L 1159 3500 
L 1159 2956 
Q 1366 3272 1645 3428 
Q 1925 3584 2291 3584 
Q 2894 3584 3203 3211 
Q 3513 2838 3513 2113 
z
" transform="scale(0.015625)"/>
      </defs>
      <use xlink:href="#DejaVuSans-44"/>
      <use xlink:href="#DejaVuSans-65" x="77.001953"/>
      <use xlink:href="#DejaVuSans-70" x="138.525391"/>
      <use xlink:href="#DejaVuSans-74" x="202.001953"/>
      <use xlink:href="#DejaVuSans-68" x="241.210938"/>
      <use xlink:href="#DejaVuSans-20" x="304.589844"/>
      <use xlink:href="#DejaVuSans-6f" x="336.376953"/>
      <use xlink:href="#DejaVuSans-66" x="397.558594"/>
      <use xlink:href="#DejaVuSans-20" x="432.763672"/>
      <use xlink:href="#DejaVuSans-45" x="464.550781"/>
      <use xlink:href="#DejaVuSans-6c" x="527.734375"/>
      <use xlink:href="#DejaVuSans-65" x="555.517578"/>
      <use xlink:href="#DejaVuSans-6d" x="617.041016"/>
      <use xlink:href="#DejaVuSans-65" x="714.453125"/>
      <use xlink:href="#DejaVuSans-6e" x="775.976562"/>
      <use xlink:href="#DejaVuSans-74" x="839.355469"/>
     </g>
    </g>
   </g>
   <g id="matplotlib.axis_2">
    <g id="ytick_1">
     <g id="line2d_7">
      <defs>
       <path id="m6dde59ac76" d="M 0 0 
L -3.5 0 
" style="stroke: #000000; stroke-width: 0.8"/>
      </defs>
      <g>
       <use xlink:href="#m6dde59ac76" x="57.6" y="295.488" style="stroke: #000000; stroke-width: 0.8"/>
      </g>
     </g>
     <g id="text_8">
      <!-- $\mathdefault{10^{0}}$ -->
      <g transform="translate(33 299.287219) scale(0.1 -0.1)">
       <use xlink:href="#DejaVuSans-31" transform="translate(0 0.765625)"/>
       <use xlink:href="#DejaVuSans-30" transform="translate(63.623047 0.765625)"/>
       <use xlink:href="#DejaVuSans-30" transform="translate(128.203125 39.046875) scale(0.7)"/>
      </g>
     </g>
    </g>
    <g id="ytick_2">
     <g id="line2d_8">
      <g>
       <use xlink:href="#m6dde59ac76" x="57.6" y="236.763649" style="stroke: #000000; stroke-width: 0.8"/>
      </g>
     </g>
     <g id="text_9">
      <!-- $\mathdefault{10^{1}}$ -->
      <g transform="translate(33 240.562868) scale(0.1 -0.1)">
       <use xlink:href="#DejaVuSans-31" transform="translate(0 0.684375)"/>
       <use xlink:href="#DejaVuSans-30" transform="translate(63.623047 0.684375)"/>
       <use xlink:href="#DejaVuSans-31" transform="translate(128.203125 38.965625) scale(0.7)"/>
      </g>
     </g>
    </g>
    <g id="ytick_3">
     <g id="line2d_9">
      <g>
       <use xlink:href="#m6dde59ac76" x="57.6" y="178.039298" style="stroke: #000000; stroke-width: 0.8"/>
      </g>
     </g>
     <g id="text_10">
      <!-- $\mathdefault{10^{2}}$ -->
      <g transform="translate(33 181.838517) scale(0.1 -0.1)">
       <use xlink:href="#DejaVuSans-31" transform="translate(0 0.765625)"/>
       <use xlink:href="#DejaVuSans-30" transform="translate(63.623047 0.765625)"/>
       <use xlink:href="#DejaVuSans-32" transform="translate(128.203125 39.046875) scale(0.7)"/>
      </g>
     </g>
    </g>
    <g id="ytick_4">
     <g id="line2d_10">
      <g>
       <use xlink:href="#m6dde59ac76" x="57.6" y="119.314948" style="stroke: #000000; stroke-width: 0.8"/>
      </g>
     </g>
     <g id="text_11">
      <!-- $\mathdefault{10^{3}}$ -->
      <g transform="translate(33 123.114166) scale(0.1 -0.1)">
       <defs>
        <path id="DejaVuSans-33" d="M 2597 2516 
Q 3050 2419 3304 2112 
Q 3559 1806 3559 1356 
Q 3559 666 3084 287 
Q 2609 -91 1734 -91 
Q 1441 -91 1130 -33 
Q 819 25 488 141 
L 488 750 
Q 750 597 1062 519 
Q 1375 441 1716 441 
Q 2309 441 2620 675 
Q 2931 909 2931 1356 
Q 2931 1769 2642 2001 
Q 2353 2234 1838 2234 
L 1294 2234 
L 1294 2753 
L 1863 2753 
Q 2328 2753 2575 2939 
Q 2822 3125 2822 3475 
Q 2822 3834 2567 4026 
Q 2313 4219 1838 4219 
Q 1578 4219 1281 4162 
Q 984 4106 628 3988 
L 628 4550 
Q 988 4650 1302 4700 
Q 1616 4750 1894 4750 
Q 2613 4750 3031 4423 
Q 3450 4097 3450 3541 
Q 3450 3153 3228 2886 
Q 3006 2619 2597 2516 
z
" transform="scale(0.015625)"/>
       </defs>
       <use xlink:href="#DejaVuSans-31" transform="translate(0 0.765625)"/>
       <use xlink:href="#DejaVuSans-30" transform="translate(63.623047 0.765625)"/>
       <use xlink:href="#DejaVuSans-33" transform="translate(128.203125 39.046875) scale(0.7)"/>
      </g>
     </g>
    </g>
    <g id="ytick_5">
     <g id="line2d_11">
      <g>
       <use xlink:href="#m6dde59ac76" x="57.6" y="60.590597" style="stroke: #000000; stroke-width: 0.8"/>
      </g>
     </g>
     <g id="text_12">
      <!-- $\mathdefault{10^{4}}$ -->
      <g transform="translate(33 64.389816) scale(0.1 -0.1)">
       <defs>
        <path id="DejaVuSans-34" d="M 2419 4116 
L 825 1625 
L 2419 1625 
L 2419 4116 
z
M 2253 4666 
L 3047 4666 
L 3047 1625 
L 3713 1625 
L 3713 1100 
L 3047 1100 
L 3047 0 
L 2419 0 
L 2419 1100 
L 313 1100 
L 313 1709 
L 2253 4666 
z
" transform="scale(0.015625)"/>
       </defs>
       <use xlink:href="#DejaVuSans-31" transform="translate(0 0.684375)"/>
       <use xlink:href="#DejaVuSans-30" transform="translate(63.623047 0.684375)"/>
       <use xlink:href="#DejaVuSans-34" transform="translate(128.203125 38.965625) scale(0.7)"/>
      </g>
     </g>
    </g>
    <g id="ytick_6">
     <g id="line2d_12">
      <defs>
       <path id="m7342b5f8e4" d="M 0 0 
L -2 0 
" style="stroke: #000000; stroke-width: 0.6"/>
      </defs>
      <g>
       <use xlink:href="#m7342b5f8e4" x="57.6" y="304.584517" style="stroke: #000000; stroke-width: 0.6"/>
      </g>
     </g>
    </g>
    <g id="ytick_7">
     <g id="line2d_13">
      <g>
       <use xlink:href="#m7342b5f8e4" x="57.6" y="301.178978" style="stroke: #000000; stroke-width: 0.6"/>
      </g>
     </g>
    </g>
    <g id="ytick_8">
     <g id="line2d_14">
      <g>
       <use xlink:href="#m7342b5f8e4" x="57.6" y="298.175079" style="stroke: #000000; stroke-width: 0.6"/>
      </g>
     </g>
    </g>
    <g id="ytick_9">
     <g id="line2d_15">
      <g>
       <use xlink:href="#m7342b5f8e4" x="57.6" y="277.810209" style="stroke: #000000; stroke-width: 0.6"/>
      </g>
     </g>
    </g>
    <g id="ytick_10">
     <g id="line2d_16">
      <g>
       <use xlink:href="#m7342b5f8e4" x="57.6" y="267.469364" style="stroke: #000000; stroke-width: 0.6"/>
      </g>
     </g>
    </g>
    <g id="ytick_11">
     <g id="line2d_17">
      <g>
       <use xlink:href="#m7342b5f8e4" x="57.6" y="260.132418" style="stroke: #000000; stroke-width: 0.6"/>
      </g>
     </g>
    </g>
    <g id="ytick_12">
     <g id="line2d_18">
      <g>
       <use xlink:href="#m7342b5f8e4" x="57.6" y="254.44144" style="stroke: #000000; stroke-width: 0.6"/>
      </g>
     </g>
    </g>
    <g id="ytick_13">
     <g id="line2d_19">
      <g>
       <use xlink:href="#m7342b5f8e4" x="57.6" y="249.791573" style="stroke: #000000; stroke-width: 0.6"/>
      </g>
     </g>
    </g>
    <g id="ytick_14">
     <g id="line2d_20">
      <g>
       <use xlink:href="#m7342b5f8e4" x="57.6" y="245.860166" style="stroke: #000000; stroke-width: 0.6"/>
      </g>
     </g>
    </g>
    <g id="ytick_15">
     <g id="line2d_21">
      <g>
       <use xlink:href="#m7342b5f8e4" x="57.6" y="242.454627" style="stroke: #000000; stroke-width: 0.6"/>
      </g>
     </g>
    </g>
    <g id="ytick_16">
     <g id="line2d_22">
      <g>
       <use xlink:href="#m7342b5f8e4" x="57.6" y="239.450728" style="stroke: #000000; stroke-width: 0.6"/>
      </g>
     </g>
    </g>
    <g id="ytick_17">
     <g id="line2d_23">
      <g>
       <use xlink:href="#m7342b5f8e4" x="57.6" y="219.085858" style="stroke: #000000; stroke-width: 0.6"/>
      </g>
     </g>
    </g>
    <g id="ytick_18">
     <g id="line2d_24">
      <g>
       <use xlink:href="#m7342b5f8e4" x="57.6" y="208.745013" style="stroke: #000000; stroke-width: 0.6"/>
      </g>
     </g>
    </g>
    <g id="ytick_19">
     <g id="line2d_25">
      <g>
       <use xlink:href="#m7342b5f8e4" x="57.6" y="201.408067" style="stroke: #000000; stroke-width: 0.6"/>
      </g>
     </g>
    </g>
    <g id="ytick_20">
     <g id="line2d_26">
      <g>
       <use xlink:href="#m7342b5f8e4" x="57.6" y="195.71709" style="stroke: #000000; stroke-width: 0.6"/>
      </g>
     </g>
    </g>
    <g id="ytick_21">
     <g id="line2d_27">
      <g>
       <use xlink:href="#m7342b5f8e4" x="57.6" y="191.067222" style="stroke: #000000; stroke-width: 0.6"/>
      </g>
     </g>
    </g>
    <g id="ytick_22">
     <g id="line2d_28">
      <g>
       <use xlink:href="#m7342b5f8e4" x="57.6" y="187.135816" style="stroke: #000000; stroke-width: 0.6"/>
      </g>
     </g>
    </g>
    <g id="ytick_23">
     <g id="line2d_29">
      <g>
       <use xlink:href="#m7342b5f8e4" x="57.6" y="183.730276" style="stroke: #000000; stroke-width: 0.6"/>
      </g>
     </g>
    </g>
    <g id="ytick_24">
     <g id="line2d_30">
      <g>
       <use xlink:href="#m7342b5f8e4" x="57.6" y="180.726377" style="stroke: #000000; stroke-width: 0.6"/>
      </g>
     </g>
    </g>
    <g id="ytick_25">
     <g id="line2d_31">
      <g>
       <use xlink:href="#m7342b5f8e4" x="57.6" y="160.361507" style="stroke: #000000; stroke-width: 0.6"/>
      </g>
     </g>
    </g>
    <g id="ytick_26">
     <g id="line2d_32">
      <g>
       <use xlink:href="#m7342b5f8e4" x="57.6" y="150.020663" style="stroke: #000000; stroke-width: 0.6"/>
      </g>
     </g>
    </g>
    <g id="ytick_27">
     <g id="line2d_33">
      <g>
       <use xlink:href="#m7342b5f8e4" x="57.6" y="142.683716" style="stroke: #000000; stroke-width: 0.6"/>
      </g>
     </g>
    </g>
    <g id="ytick_28">
     <g id="line2d_34">
      <g>
       <use xlink:href="#m7342b5f8e4" x="57.6" y="136.992739" style="stroke: #000000; stroke-width: 0.6"/>
      </g>
     </g>
    </g>
    <g id="ytick_29">
     <g id="line2d_35">
      <g>
       <use xlink:href="#m7342b5f8e4" x="57.6" y="132.342872" style="stroke: #000000; stroke-width: 0.6"/>
      </g>
     </g>
    </g>
    <g id="ytick_30">
     <g id="line2d_36">
      <g>
       <use xlink:href="#m7342b5f8e4" x="57.6" y="128.411465" style="stroke: #000000; stroke-width: 0.6"/>
      </g>
     </g>
    </g>
    <g id="ytick_31">
     <g id="line2d_37">
      <g>
       <use xlink:href="#m7342b5f8e4" x="57.6" y="125.005925" style="stroke: #000000; stroke-width: 0.6"/>
      </g>
     </g>
    </g>
    <g id="ytick_32">
     <g id="line2d_38">
      <g>
       <use xlink:href="#m7342b5f8e4" x="57.6" y="122.002027" style="stroke: #000000; stroke-width: 0.6"/>
      </g>
     </g>
    </g>
    <g id="ytick_33">
     <g id="line2d_39">
      <g>
       <use xlink:href="#m7342b5f8e4" x="57.6" y="101.637157" style="stroke: #000000; stroke-width: 0.6"/>
      </g>
     </g>
    </g>
    <g id="ytick_34">
     <g id="line2d_40">
      <g>
       <use xlink:href="#m7342b5f8e4" x="57.6" y="91.296312" style="stroke: #000000; stroke-width: 0.6"/>
      </g>
     </g>
    </g>
    <g id="ytick_35">
     <g id="line2d_41">
      <g>
       <use xlink:href="#m7342b5f8e4" x="57.6" y="83.959366" style="stroke: #000000; stroke-width: 0.6"/>
      </g>
     </g>
    </g>
    <g id="ytick_36">
     <g id="line2d_42">
      <g>
       <use xlink:href="#m7342b5f8e4" x="57.6" y="78.268388" style="stroke: #000000; stroke-width: 0.6"/>
      </g>
     </g>
    </g>
    <g id="ytick_37">
     <g id="line2d_43">
      <g>
       <use xlink:href="#m7342b5f8e4" x="57.6" y="73.618521" style="stroke: #000000; stroke-width: 0.6"/>
      </g>
     </g>
    </g>
    <g id="ytick_38">
     <g id="line2d_44">
      <g>
       <use xlink:href="#m7342b5f8e4" x="57.6" y="69.687114" style="stroke: #000000; stroke-width: 0.6"/>
      </g>
     </g>
    </g>
    <g id="ytick_39">
     <g id="line2d_45">
      <g>
       <use xlink:href="#m7342b5f8e4" x="57.6" y="66.281575" style="stroke: #000000; stroke-width: 0.6"/>
      </g>
     </g>
    </g>
    <g id="ytick_40">
     <g id="line2d_46">
      <g>
       <use xlink:href="#m7342b5f8e4" x="57.6" y="63.277676" style="stroke: #000000; stroke-width: 0.6"/>
      </g>
     </g>
    </g>
    <g id="ytick_41">
     <g id="line2d_47">
      <g>
       <use xlink:href="#m7342b5f8e4" x="57.6" y="42.912806" style="stroke: #000000; stroke-width: 0.6"/>
      </g>
     </g>
    </g>
    <g id="text_13">
     <!-- Number of Elements -->
     <g transform="translate(26.920312 225.917062) rotate(-90) scale(0.1 -0.1)">
      <defs>
       <path id="DejaVuSans-4e" d="M 628 4666 
L 1478 4666 
L 3547 763 
L 3547 4666 
L 4159 4666 
L 4159 0 
L 3309 0 
L 1241 3903 
L 1241 0 
L 628 0 
L 628 4666 
z
" transform="scale(0.015625)"/>
       <path id="DejaVuSans-75" d="M 544 1381 
L 544 3500 
L 1119 3500 
L 1119 1403 
Q 1119 906 1312 657 
Q 1506 409 1894 409 
Q 2359 409 2629 706 
Q 2900 1003 2900 1516 
L 2900 3500 
L 3475 3500 
L 3475 0 
L 2900 0 
L 2900 538 
Q 2691 219 2414 64 
Q 2138 -91 1772 -91 
Q 1169 -91 856 284 
Q 544 659 544 1381 
z
M 1991 3584 
L 1991 3584 
z
" transform="scale(0.015625)"/>
       <path id="DejaVuSans-62" d="M 3116 1747 
Q 3116 2381 2855 2742 
Q 2594 3103 2138 3103 
Q 1681 3103 1420 2742 
Q 1159 2381 1159 1747 
Q 1159 1113 1420 752 
Q 1681 391 2138 391 
Q 2594 391 2855 752 
Q 3116 1113 3116 1747 
z
M 1159 2969 
Q 1341 3281 1617 3432 
Q 1894 3584 2278 3584 
Q 2916 3584 3314 3078 
Q 3713 2572 3713 1747 
Q 3713 922 3314 415 
Q 2916 -91 2278 -91 
Q 1894 -91 1617 61 
Q 1341 213 1159 525 
L 1159 0 
L 581 0 
L 581 4863 
L 1159 4863 
L 1159 2969 
z
" transform="scale(0.015625)"/>
       <path id="DejaVuSans-72" d="M 2631 2963 
Q 2534 3019 2420 3045 
Q 2306 3072 2169 3072 
Q 1681 3072 1420 2755 
Q 1159 2438 1159 1844 
L 1159 0 
L 581 0 
L 581 3500 
L 1159 3500 
L 1159 2956 
Q 1341 3275 1631 3429 
Q 1922 3584 2338 3584 
Q 2397 3584 2469 3576 
Q 2541 3569 2628 3553 
L 2631 2963 
z
" transform="scale(0.015625)"/>
       <path id="DejaVuSans-73" d="M 2834 3397 
L 2834 2853 
Q 2591 2978 2328 3040 
Q 2066 3103 1784 3103 
Q 1356 3103 1142 2972 
Q 928 2841 928 2578 
Q 928 2378 1081 2264 
Q 1234 2150 1697 2047 
L 1894 2003 
Q 2506 1872 2764 1633 
Q 3022 1394 3022 966 
Q 3022 478 2636 193 
Q 2250 -91 1575 -91 
Q 1294 -91 989 -36 
Q 684 19 347 128 
L 347 722 
Q 666 556 975 473 
Q 1284 391 1588 391 
Q 1994 391 2212 530 
Q 2431 669 2431 922 
Q 2431 1156 2273 1281 
Q 2116 1406 1581 1522 
L 1381 1569 
Q 847 1681 609 1914 
Q 372 2147 372 2553 
Q 372 3047 722 3315 
Q 1072 3584 1716 3584 
Q 2034 3584 2315 3537 
Q 2597 3491 2834 3397 
z
" transform="scale(0.015625)"/>
      </defs>
      <use xlink:href="#DejaVuSans-4e"/>
      <use xlink:href="#DejaVuSans-75" x="74.804688"/>
      <use xlink:href="#DejaVuSans-6d" x="138.183594"/>
      <use xlink:href="#DejaVuSans-62" x="235.595703"/>
      <use xlink:href="#DejaVuSans-65" x="299.072266"/>
      <use xlink:href="#DejaVuSans-72" x="360.595703"/>
      <use xlink:href="#DejaVuSans-20" x="401.708984"/>
      <use xlink:href="#DejaVuSans-6f" x="433.496094"/>
      <use xlink:href="#DejaVuSans-66" x="494.677734"/>
      <use xlink:href="#DejaVuSans-20" x="529.882812"/>
      <use xlink:href="#DejaVuSans-45" x="561.669922"/>
      <use xlink:href="#DejaVuSans-6c" x="624.853516"/>
      <use xlink:href="#DejaVuSans-65" x="652.636719"/>
      <use xlink:href="#DejaVuSans-6d" x="714.160156"/>
      <use xlink:href="#DejaVuSans-65" x="811.572266"/>
      <use xlink:href="#DejaVuSans-6e" x="873.095703"/>
      <use xlink:href="#DejaVuSans-74" x="936.474609"/>
      <use xlink:href="#DejaVuSans-73" x="975.683594"/>
     </g>
    </g>
   </g>
   <g id="patch_130">
    <path d="M 57.6 307.584 
L 57.6 41.472 
" style="fill: none; stroke: #000000; stroke-width: 0.8; stroke-linejoin: miter; stroke-linecap: square"/>
   </g>
   <g id="patch_131">
    <path d="M 414.72 307.584 
L 414.72 41.472 
" style="fill: none; stroke: #000000; stroke-width: 0.8; stroke-linejoin: miter; stroke-linecap: square"/>
   </g>
   <g id="patch_132">
    <path d="M 57.6 307.584 
L 414.72 307.584 
" style="fill: none; stroke: #000000; stroke-width: 0.8; stroke-linejoin: miter; stroke-linecap: square"/>
   </g>
   <g id="patch_133">
    <path d="M 57.6 41.472 
L 414.72 41.472 
" style="fill: none; stroke: #000000; stroke-width: 0.8; stroke-linejoin: miter; stroke-linecap: square"/>
   </g>
  </g>
 </g>
 <defs>
  <clipPath id="p673e3d4119">
   <rect x="57.6" y="41.472" width="357.12" height="266.112"/>
  </clipPath>
 </defs>
</svg>
