<?xml version="1.0" encoding="utf-8" standalone="no"?>
<!DOCTYPE svg PUBLIC "-//W3C//DTD SVG 1.1//EN"
  "http://www.w3.org/Graphics/SVG/1.1/DTD/svg11.dtd">
<svg xmlns:xlink="http://www.w3.org/1999/xlink" width="460.8pt" height="345.6pt" viewBox="0 0 460.8 345.6" xmlns="http://www.w3.org/2000/svg" version="1.1">
 <metadata>
  <rdf:RDF xmlns:dc="http://purl.org/dc/elements/1.1/" xmlns:cc="http://creativecommons.org/ns#" xmlns:rdf="http://www.w3.org/1999/02/22-rdf-syntax-ns#">
   <cc:Work>
    <dc:type rdf:resource="http://purl.org/dc/dcmitype/StillImage"/>
    <dc:date>2024-03-09T17:25:10.625255</dc:date>
    <dc:format>image/svg+xml</dc:format>
    <dc:creator>
     <cc:Agent>
      <dc:title>Matplotlib v3.8.3, https://matplotlib.org/</dc:title>
     </cc:Agent>
    </dc:creator>
   </cc:Work>
  </rdf:RDF>
 </metadata>
 <defs>
  <style type="text/css">*{stroke-linejoin: round; stroke-linecap: butt}</style>
 </defs>
 <g id="figure_1">
  <g id="patch_1">
   <path d="M 0 345.6 
L 460.8 345.6 
L 460.8 0 
L 0 0 
z
" style="fill: #ffffff"/>
  </g>
  <g id="axes_1">
   <g id="patch_2">
    <path d="M 57.6 307.584 
L 414.72 307.584 
L 414.72 41.472 
L 57.6 41.472 
z
" style="fill: #ffffff"/>
   </g>
   <g id="patch_3">
    <path d="M 73.832727 57666.736081 
L 74.938876 57666.736081 
L 74.938876 260.947067 
L 73.832727 260.947067 
z
" clip-path="url(#p71ad180031)" style="fill: #1f77b4"/>
   </g>
   <g id="patch_4">
    <path d="M 75.215413 57666.736081 
L 76.321561 57666.736081 
L 76.321561 238.116752 
L 75.215413 238.116752 
z
" clip-path="url(#p71ad180031)" style="fill: #1f77b4"/>
   </g>
   <g id="patch_5">
    <path d="M 77.980784 57666.736081 
L 79.086932 57666.736081 
L 79.086932 198.01597 
L 77.980784 198.01597 
z
" clip-path="url(#p71ad180031)" style="fill: #1f77b4"/>
   </g>
   <g id="patch_6">
    <path d="M 79.363469 57666.736081 
L 80.469617 57666.736081 
L 80.469617 175.790933 
L 79.363469 175.790933 
z
" clip-path="url(#p71ad180031)" style="fill: #1f77b4"/>
   </g>
   <g id="patch_7">
    <path d="M 83.511525 57666.736081 
L 84.617674 57666.736081 
L 84.617674 121.181375 
L 83.511525 121.181375 
z
" clip-path="url(#p71ad180031)" style="fill: #1f77b4"/>
   </g>
   <g id="patch_8">
    <path d="M 76.598098 57666.736081 
L 77.704247 57666.736081 
L 77.704247 222.12431 
L 76.598098 222.12431 
z
" clip-path="url(#p71ad180031)" style="fill: #1f77b4"/>
   </g>
   <g id="patch_9">
    <path d="M 80.746155 57666.736081 
L 81.852303 57666.736081 
L 81.852303 158.520466 
L 80.746155 158.520466 
z
" clip-path="url(#p71ad180031)" style="fill: #1f77b4"/>
   </g>
   <g id="patch_10">
    <path d="M 84.894211 57666.736081 
L 86.000359 57666.736081 
L 86.000359 104.852564 
L 84.894211 104.852564 
z
" clip-path="url(#p71ad180031)" style="fill: #1f77b4"/>
   </g>
   <g id="patch_11">
    <path d="M 82.12884 57666.736081 
L 83.234988 57666.736081 
L 83.234988 140.945523 
L 82.12884 140.945523 
z
" clip-path="url(#p71ad180031)" style="fill: #1f77b4"/>
   </g>
   <g id="patch_12">
    <path d="M 87.659582 57666.736081 
L 88.76573 57666.736081 
L 88.76573 81.048671 
L 87.659582 81.048671 
z
" clip-path="url(#p71ad180031)" style="fill: #1f77b4"/>
   </g>
   <g id="patch_13">
    <path d="M 86.276896 57666.736081 
L 87.383045 57666.736081 
L 87.383045 93.12566 
L 86.276896 93.12566 
z
" clip-path="url(#p71ad180031)" style="fill: #1f77b4"/>
   </g>
   <g id="patch_14">
    <path d="M 90.424953 57666.736081 
L 91.531101 57666.736081 
L 91.531101 60.435187 
L 90.424953 60.435187 
z
" clip-path="url(#p71ad180031)" style="fill: #1f77b4"/>
   </g>
   <g id="patch_15">
    <path d="M 89.042267 57666.736081 
L 90.148416 57666.736081 
L 90.148416 69.239123 
L 89.042267 69.239123 
z
" clip-path="url(#p71ad180031)" style="fill: #1f77b4"/>
   </g>
   <g id="patch_16">
    <path d="M 95.955695 57666.736081 
L 97.061843 57666.736081 
L 97.061843 73.19749 
L 95.955695 73.19749 
z
" clip-path="url(#p71ad180031)" style="fill: #1f77b4"/>
   </g>
   <g id="patch_17">
    <path d="M 91.807638 57666.736081 
L 92.913787 57666.736081 
L 92.913787 54.484671 
L 91.807638 54.484671 
z
" clip-path="url(#p71ad180031)" style="fill: #1f77b4"/>
   </g>
   <g id="patch_18">
    <path d="M 98.721066 57666.736081 
L 99.827214 57666.736081 
L 99.827214 107.329414 
L 98.721066 107.329414 
z
" clip-path="url(#p71ad180031)" style="fill: #1f77b4"/>
   </g>
   <g id="patch_19">
    <path d="M 94.573009 57666.736081 
L 95.679158 57666.736081 
L 95.679158 59.979087 
L 94.573009 59.979087 
z
" clip-path="url(#p71ad180031)" style="fill: #1f77b4"/>
   </g>
   <g id="patch_20">
    <path d="M 100.103751 57666.736081 
L 101.209899 57666.736081 
L 101.209899 138.089421 
L 100.103751 138.089421 
z
" clip-path="url(#p71ad180031)" style="fill: #1f77b4"/>
   </g>
   <g id="patch_21">
    <path d="M 102.869122 57666.736081 
L 103.97527 57666.736081 
L 103.97527 174.400834 
L 102.869122 174.400834 
z
" clip-path="url(#p71ad180031)" style="fill: #1f77b4"/>
   </g>
   <g id="patch_22">
    <path d="M 93.190324 57666.736081 
L 94.296472 57666.736081 
L 94.296472 53.568 
L 93.190324 53.568 
z
" clip-path="url(#p71ad180031)" style="fill: #1f77b4"/>
   </g>
   <g id="patch_23">
    <path d="M 112.54792 57666.736081 
L 113.654068 57666.736081 
L 113.654068 188.247843 
L 112.54792 188.247843 
z
" clip-path="url(#p71ad180031)" style="fill: #1f77b4"/>
   </g>
   <g id="patch_24">
    <path d="M 104.251807 57666.736081 
L 105.357956 57666.736081 
L 105.357956 176.202777 
L 104.251807 176.202777 
z
" clip-path="url(#p71ad180031)" style="fill: #1f77b4"/>
   </g>
   <g id="patch_25">
    <path d="M 101.486436 57666.736081 
L 102.592585 57666.736081 
L 102.592585 163.475037 
L 101.486436 163.475037 
z
" clip-path="url(#p71ad180031)" style="fill: #1f77b4"/>
   </g>
   <g id="patch_26">
    <path d="M 97.33838 57666.736081 
L 98.444528 57666.736081 
L 98.444528 86.317405 
L 97.33838 86.317405 
z
" clip-path="url(#p71ad180031)" style="fill: #1f77b4"/>
   </g>
   <g id="patch_27">
    <path d="M 111.165235 57666.736081 
L 112.271383 57666.736081 
L 112.271383 188.930517 
L 111.165235 188.930517 
z
" clip-path="url(#p71ad180031)" style="fill: #1f77b4"/>
   </g>
   <g id="patch_28">
    <path d="M 105.634493 57666.736081 
L 106.740641 57666.736081 
L 106.740641 178.827941 
L 105.634493 178.827941 
z
" clip-path="url(#p71ad180031)" style="fill: #1f77b4"/>
   </g>
   <g id="patch_29">
    <path d="M 107.017178 57666.736081 
L 108.123327 57666.736081 
L 108.123327 183.09535 
L 107.017178 183.09535 
z
" clip-path="url(#p71ad180031)" style="fill: #1f77b4"/>
   </g>
   <g id="patch_30">
    <path d="M 109.782549 57666.736081 
L 110.888698 57666.736081 
L 110.888698 184.794828 
L 109.782549 184.794828 
z
" clip-path="url(#p71ad180031)" style="fill: #1f77b4"/>
   </g>
   <g id="patch_31">
    <path d="M 123.609404 57666.736081 
L 124.715552 57666.736081 
L 124.715552 200.093508 
L 123.609404 200.093508 
z
" clip-path="url(#p71ad180031)" style="fill: #1f77b4"/>
   </g>
   <g id="patch_32">
    <path d="M 113.930606 57666.736081 
L 115.036754 57666.736081 
L 115.036754 193.473243 
L 113.930606 193.473243 
z
" clip-path="url(#p71ad180031)" style="fill: #1f77b4"/>
   </g>
   <g id="patch_33">
    <path d="M 115.313291 57666.736081 
L 116.419439 57666.736081 
L 116.419439 193.89201 
L 115.313291 193.89201 
z
" clip-path="url(#p71ad180031)" style="fill: #1f77b4"/>
   </g>
   <g id="patch_34">
    <path d="M 119.461347 57666.736081 
L 120.567496 57666.736081 
L 120.567496 191.098493 
L 119.461347 191.098493 
z
" clip-path="url(#p71ad180031)" style="fill: #1f77b4"/>
   </g>
   <g id="patch_35">
    <path d="M 120.844033 57666.736081 
L 121.950181 57666.736081 
L 121.950181 201.773876 
L 120.844033 201.773876 
z
" clip-path="url(#p71ad180031)" style="fill: #1f77b4"/>
   </g>
   <g id="patch_36">
    <path d="M 124.992089 57666.736081 
L 126.098238 57666.736081 
L 126.098238 199.557659 
L 124.992089 199.557659 
z
" clip-path="url(#p71ad180031)" style="fill: #1f77b4"/>
   </g>
   <g id="patch_37">
    <path d="M 108.399864 57666.736081 
L 109.506012 57666.736081 
L 109.506012 183.09535 
L 108.399864 183.09535 
z
" clip-path="url(#p71ad180031)" style="fill: #1f77b4"/>
   </g>
   <g id="patch_38">
    <path d="M 136.053573 57666.736081 
L 137.159721 57666.736081 
L 137.159721 207.625143 
L 136.053573 207.625143 
z
" clip-path="url(#p71ad180031)" style="fill: #1f77b4"/>
   </g>
   <g id="patch_39">
    <path d="M 116.695976 57666.736081 
L 117.802125 57666.736081 
L 117.802125 191.865201 
L 116.695976 191.865201 
z
" clip-path="url(#p71ad180031)" style="fill: #1f77b4"/>
   </g>
   <g id="patch_40">
    <path d="M 122.226718 57666.736081 
L 123.332867 57666.736081 
L 123.332867 199.033092 
L 122.226718 199.033092 
z
" clip-path="url(#p71ad180031)" style="fill: #1f77b4"/>
   </g>
   <g id="patch_41">
    <path d="M 144.349686 57666.736081 
L 145.455834 57666.736081 
L 145.455834 215.286437 
L 144.349686 215.286437 
z
" clip-path="url(#p71ad180031)" style="fill: #1f77b4"/>
   </g>
   <g id="patch_42">
    <path d="M 129.140146 57666.736081 
L 130.246294 57666.736081 
L 130.246294 203.575819 
L 129.140146 203.575819 
z
" clip-path="url(#p71ad180031)" style="fill: #1f77b4"/>
   </g>
   <g id="patch_43">
    <path d="M 138.818944 57666.736081 
L 139.925092 57666.736081 
L 139.925092 209.926718 
L 138.818944 209.926718 
z
" clip-path="url(#p71ad180031)" style="fill: #1f77b4"/>
   </g>
   <g id="patch_44">
    <path d="M 134.670887 57666.736081 
L 135.777036 57666.736081 
L 135.777036 204.206638 
L 134.670887 204.206638 
z
" clip-path="url(#p71ad180031)" style="fill: #1f77b4"/>
   </g>
   <g id="patch_45">
    <path d="M 118.078662 57666.736081 
L 119.18481 57666.736081 
L 119.18481 188.930517 
L 118.078662 188.930517 
z
" clip-path="url(#p71ad180031)" style="fill: #1f77b4"/>
   </g>
   <g id="patch_46">
    <path d="M 130.522831 57666.736081 
L 131.628979 57666.736081 
L 131.628979 197.522568 
L 130.522831 197.522568 
z
" clip-path="url(#p71ad180031)" style="fill: #1f77b4"/>
   </g>
   <g id="patch_47">
    <path d="M 152.645798 57666.736081 
L 153.751947 57666.736081 
L 153.751947 213.368874 
L 152.645798 213.368874 
z
" clip-path="url(#p71ad180031)" style="fill: #1f77b4"/>
   </g>
   <g id="patch_48">
    <path d="M 156.793855 57666.736081 
L 157.900003 57666.736081 
L 157.900003 209.135667 
L 156.793855 209.135667 
z
" clip-path="url(#p71ad180031)" style="fill: #1f77b4"/>
   </g>
   <g id="patch_49">
    <path d="M 142.967 57666.736081 
L 144.073149 57666.736081 
L 144.073149 212.462738 
L 142.967 212.462738 
z
" clip-path="url(#p71ad180031)" style="fill: #1f77b4"/>
   </g>
   <g id="patch_50">
    <path d="M 140.201629 57666.736081 
L 141.307778 57666.736081 
L 141.307778 206.902889 
L 140.201629 206.902889 
z
" clip-path="url(#p71ad180031)" style="fill: #1f77b4"/>
   </g>
   <g id="patch_51">
    <path d="M 126.374775 57666.736081 
L 127.480923 57666.736081 
L 127.480923 200.641135 
L 126.374775 200.641135 
z
" clip-path="url(#p71ad180031)" style="fill: #1f77b4"/>
   </g>
   <g id="patch_52">
    <path d="M 158.17654 57666.736081 
L 159.282689 57666.736081 
L 159.282689 215.286437 
L 158.17654 215.286437 
z
" clip-path="url(#p71ad180031)" style="fill: #1f77b4"/>
   </g>
   <g id="patch_53">
    <path d="M 163.707282 57666.736081 
L 164.81343 57666.736081 
L 164.81343 217.363975 
L 163.707282 217.363975 
z
" clip-path="url(#p71ad180031)" style="fill: #1f77b4"/>
   </g>
   <g id="patch_54">
    <path d="M 133.288202 57666.736081 
L 134.39435 57666.736081 
L 134.39435 204.853843 
L 133.288202 204.853843 
z
" clip-path="url(#p71ad180031)" style="fill: #1f77b4"/>
   </g>
   <g id="patch_55">
    <path d="M 131.905516 57666.736081 
L 133.011665 57666.736081 
L 133.011665 206.902889 
L 131.905516 206.902889 
z
" clip-path="url(#p71ad180031)" style="fill: #1f77b4"/>
   </g>
   <g id="patch_56">
    <path d="M 149.880427 57666.736081 
L 150.986576 57666.736081 
L 150.986576 209.135667 
L 149.880427 209.135667 
z
" clip-path="url(#p71ad180031)" style="fill: #1f77b4"/>
   </g>
   <g id="patch_57">
    <path d="M 154.028484 57666.736081 
L 155.134632 57666.736081 
L 155.134632 223.47145 
L 154.028484 223.47145 
z
" clip-path="url(#p71ad180031)" style="fill: #1f77b4"/>
   </g>
   <g id="patch_58">
    <path d="M 185.830249 57666.736081 
L 186.936398 57666.736081 
L 186.936398 243.6766 
L 185.830249 243.6766 
z
" clip-path="url(#p71ad180031)" style="fill: #1f77b4"/>
   </g>
   <g id="patch_59">
    <path d="M 155.411169 57666.736081 
L 156.517318 57666.736081 
L 156.517318 228.014177 
L 155.411169 228.014177 
z
" clip-path="url(#p71ad180031)" style="fill: #1f77b4"/>
   </g>
   <g id="patch_60">
    <path d="M 127.75746 57666.736081 
L 128.863608 57666.736081 
L 128.863608 206.902889 
L 127.75746 206.902889 
z
" clip-path="url(#p71ad180031)" style="fill: #1f77b4"/>
   </g>
   <g id="patch_61">
    <path d="M 137.436258 57666.736081 
L 138.542407 57666.736081 
L 138.542407 208.36896 
L 137.436258 208.36896 
z
" clip-path="url(#p71ad180031)" style="fill: #1f77b4"/>
   </g>
   <g id="patch_62">
    <path d="M 148.497742 57666.736081 
L 149.60389 57666.736081 
L 149.60389 216.303558 
L 148.497742 216.303558 
z
" clip-path="url(#p71ad180031)" style="fill: #1f77b4"/>
   </g>
   <g id="patch_63">
    <path d="M 159.559226 57666.736081 
L 160.665374 57666.736081 
L 160.665374 238.116752 
L 159.559226 238.116752 
z
" clip-path="url(#p71ad180031)" style="fill: #1f77b4"/>
   </g>
   <g id="patch_64">
    <path d="M 160.941911 57666.736081 
L 162.048059 57666.736081 
L 162.048059 235.742002 
L 160.941911 235.742002 
z
" clip-path="url(#p71ad180031)" style="fill: #1f77b4"/>
   </g>
   <g id="patch_65">
    <path d="M 141.584315 57666.736081 
L 142.690463 57666.736081 
L 142.690463 215.286437 
L 141.584315 215.286437 
z
" clip-path="url(#p71ad180031)" style="fill: #1f77b4"/>
   </g>
   <g id="patch_66">
    <path d="M 147.115057 57666.736081 
L 148.221205 57666.736081 
L 148.221205 209.135667 
L 147.115057 209.135667 
z
" clip-path="url(#p71ad180031)" style="fill: #1f77b4"/>
   </g>
   <g id="patch_67">
    <path d="M 162.324597 57666.736081 
L 163.430745 57666.736081 
L 163.430745 229.733204 
L 162.324597 229.733204 
z
" clip-path="url(#p71ad180031)" style="fill: #1f77b4"/>
   </g>
   <g id="patch_68">
    <path d="M 169.238024 57666.736081 
L 170.344172 57666.736081 
L 170.344172 228.014177 
L 169.238024 228.014177 
z
" clip-path="url(#p71ad180031)" style="fill: #1f77b4"/>
   </g>
   <g id="patch_69">
    <path d="M 145.732371 57666.736081 
L 146.838519 57666.736081 
L 146.838519 218.471535 
L 145.732371 218.471535 
z
" clip-path="url(#p71ad180031)" style="fill: #1f77b4"/>
   </g>
   <g id="patch_70">
    <path d="M 165.089967 57666.736081 
L 166.196116 57666.736081 
L 166.196116 228.014177 
L 165.089967 228.014177 
z
" clip-path="url(#p71ad180031)" style="fill: #1f77b4"/>
   </g>
   <g id="patch_71">
    <path d="M 196.891733 57666.736081 
L 197.997881 57666.736081 
L 197.997881 260.947067 
L 196.891733 260.947067 
z
" clip-path="url(#p71ad180031)" style="fill: #1f77b4"/>
   </g>
   <g id="patch_72">
    <path d="M 166.472653 57666.736081 
L 167.578801 57666.736081 
L 167.578801 228.014177 
L 166.472653 228.014177 
z
" clip-path="url(#p71ad180031)" style="fill: #1f77b4"/>
   </g>
   <g id="patch_73">
    <path d="M 172.003395 57666.736081 
L 173.109543 57666.736081 
L 173.109543 238.116752 
L 172.003395 238.116752 
z
" clip-path="url(#p71ad180031)" style="fill: #1f77b4"/>
   </g>
   <g id="patch_74">
    <path d="M 183.064878 57666.736081 
L 184.171027 57666.736081 
L 184.171027 247.003671 
L 183.064878 247.003671 
z
" clip-path="url(#p71ad180031)" style="fill: #1f77b4"/>
   </g>
   <g id="patch_75">
    <path d="M 191.360991 57666.736081 
L 192.46714 57666.736081 
L 192.46714 247.003671 
L 191.360991 247.003671 
z
" clip-path="url(#p71ad180031)" style="fill: #1f77b4"/>
   </g>
   <g id="patch_76">
    <path d="M 184.447564 57666.736081 
L 185.553712 57666.736081 
L 185.553712 235.742002 
L 184.447564 235.742002 
z
" clip-path="url(#p71ad180031)" style="fill: #1f77b4"/>
   </g>
   <g id="patch_77">
    <path d="M 176.151451 57666.736081 
L 177.2576 57666.736081 
L 177.2576 243.6766 
L 176.151451 243.6766 
z
" clip-path="url(#p71ad180031)" style="fill: #1f77b4"/>
   </g>
   <g id="patch_78">
    <path d="M 173.38608 57666.736081 
L 174.492229 57666.736081 
L 174.492229 243.6766 
L 173.38608 243.6766 
z
" clip-path="url(#p71ad180031)" style="fill: #1f77b4"/>
   </g>
   <g id="patch_79">
    <path d="M 213.483958 57666.736081 
L 214.590107 57666.736081 
L 214.590107 260.947067 
L 213.483958 260.947067 
z
" clip-path="url(#p71ad180031)" style="fill: #1f77b4"/>
   </g>
   <g id="patch_80">
    <path d="M 195.509048 57666.736081 
L 196.615196 57666.736081 
L 196.615196 243.6766 
L 195.509048 243.6766 
z
" clip-path="url(#p71ad180031)" style="fill: #1f77b4"/>
   </g>
   <g id="patch_81">
    <path d="M 177.534137 57666.736081 
L 178.640285 57666.736081 
L 178.640285 229.733204 
L 177.534137 229.733204 
z
" clip-path="url(#p71ad180031)" style="fill: #1f77b4"/>
   </g>
   <g id="patch_82">
    <path d="M 151.263113 57666.736081 
L 152.369261 57666.736081 
L 152.369261 229.733204 
L 151.263113 229.733204 
z
" clip-path="url(#p71ad180031)" style="fill: #1f77b4"/>
   </g>
   <g id="patch_83">
    <path d="M 174.768766 57666.736081 
L 175.874914 57666.736081 
L 175.874914 224.89561 
L 174.768766 224.89561 
z
" clip-path="url(#p71ad180031)" style="fill: #1f77b4"/>
   </g>
   <g id="patch_84">
    <path d="M 189.978306 57666.736081 
L 191.084454 57666.736081 
L 191.084454 260.947067 
L 189.978306 260.947067 
z
" clip-path="url(#p71ad180031)" style="fill: #1f77b4"/>
   </g>
   <g id="patch_85">
    <path d="M 199.657104 57666.736081 
L 200.763252 57666.736081 
L 200.763252 268.114958 
L 199.657104 268.114958 
z
" clip-path="url(#p71ad180031)" style="fill: #1f77b4"/>
   </g>
   <g id="patch_86">
    <path d="M 225.928128 57666.736081 
L 227.034276 57666.736081 
L 227.034276 295.488 
L 225.928128 295.488 
z
" clip-path="url(#p71ad180031)" style="fill: #1f77b4"/>
   </g>
   <g id="patch_87">
    <path d="M 170.620709 57666.736081 
L 171.726858 57666.736081 
L 171.726858 229.733204 
L 170.620709 229.733204 
z
" clip-path="url(#p71ad180031)" style="fill: #1f77b4"/>
   </g>
   <g id="patch_88">
    <path d="M 167.855338 57666.736081 
L 168.961487 57666.736081 
L 168.961487 229.733204 
L 167.855338 229.733204 
z
" clip-path="url(#p71ad180031)" style="fill: #1f77b4"/>
   </g>
   <g id="patch_89">
    <path d="M 194.126362 57666.736081 
L 195.23251 57666.736081 
L 195.23251 247.003671 
L 194.126362 247.003671 
z
" clip-path="url(#p71ad180031)" style="fill: #1f77b4"/>
   </g>
   <g id="patch_90">
    <path d="M 178.916822 57666.736081 
L 180.02297 57666.736081 
L 180.02297 255.387218 
L 178.916822 255.387218 
z
" clip-path="url(#p71ad180031)" style="fill: #1f77b4"/>
   </g>
   <g id="patch_91">
    <path d="M 206.570531 57666.736081 
L 207.67668 57666.736081 
L 207.67668 278.217533 
L 206.570531 278.217533 
z
" clip-path="url(#p71ad180031)" style="fill: #1f77b4"/>
   </g>
   <g id="patch_92">
    <path d="M 180.299508 57666.736081 
L 181.405656 57666.736081 
L 181.405656 255.387218 
L 180.299508 255.387218 
z
" clip-path="url(#p71ad180031)" style="fill: #1f77b4"/>
   </g>
   <g id="patch_93">
    <path d="M 203.80516 57666.736081 
L 204.911309 57666.736081 
L 204.911309 250.844492 
L 203.80516 250.844492 
z
" clip-path="url(#p71ad180031)" style="fill: #1f77b4"/>
   </g>
   <g id="patch_94">
    <path d="M 181.682193 57666.736081 
L 182.788341 57666.736081 
L 182.788341 268.114958 
L 181.682193 268.114958 
z
" clip-path="url(#p71ad180031)" style="fill: #1f77b4"/>
   </g>
   <g id="patch_95">
    <path d="M 231.458869 57666.736081 
L 232.565018 57666.736081 
L 232.565018 278.217533 
L 231.458869 278.217533 
z
" clip-path="url(#p71ad180031)" style="fill: #1f77b4"/>
   </g>
   <g id="patch_96">
    <path d="M 220.397386 57666.736081 
L 221.503534 57666.736081 
L 221.503534 278.217533 
L 220.397386 278.217533 
z
" clip-path="url(#p71ad180031)" style="fill: #1f77b4"/>
   </g>
   <g id="patch_97">
    <path d="M 188.59562 57666.736081 
L 189.701769 57666.736081 
L 189.701769 255.387218 
L 188.59562 255.387218 
z
" clip-path="url(#p71ad180031)" style="fill: #1f77b4"/>
   </g>
   <g id="patch_98">
    <path d="M 187.212935 57666.736081 
L 188.319083 57666.736081 
L 188.319083 238.116752 
L 187.212935 238.116752 
z
" clip-path="url(#p71ad180031)" style="fill: #1f77b4"/>
   </g>
   <g id="patch_99">
    <path d="M 201.039789 57666.736081 
L 202.145938 57666.736081 
L 202.145938 255.387218 
L 201.039789 255.387218 
z
" clip-path="url(#p71ad180031)" style="fill: #1f77b4"/>
   </g>
   <g id="patch_100">
    <path d="M 216.249329 57666.736081 
L 217.355478 57666.736081 
L 217.355478 260.947067 
L 216.249329 260.947067 
z
" clip-path="url(#p71ad180031)" style="fill: #1f77b4"/>
   </g>
   <g id="patch_101">
    <path d="M 248.051095 57666.736081 
L 249.157243 57666.736081 
L 249.157243 278.217533 
L 248.051095 278.217533 
z
" clip-path="url(#p71ad180031)" style="fill: #1f77b4"/>
   </g>
   <g id="patch_102">
    <path d="M 209.335902 57666.736081 
L 210.44205 57666.736081 
L 210.44205 260.947067 
L 209.335902 260.947067 
z
" clip-path="url(#p71ad180031)" style="fill: #1f77b4"/>
   </g>
   <g id="patch_103">
    <path d="M 236.989611 57666.736081 
L 238.09576 57666.736081 
L 238.09576 268.114958 
L 236.989611 268.114958 
z
" clip-path="url(#p71ad180031)" style="fill: #1f77b4"/>
   </g>
   <g id="patch_104">
    <path d="M 212.101273 57666.736081 
L 213.207421 57666.736081 
L 213.207421 268.114958 
L 212.101273 268.114958 
z
" clip-path="url(#p71ad180031)" style="fill: #1f77b4"/>
   </g>
   <g id="patch_105">
    <path d="M 192.743677 57666.736081 
L 193.849825 57666.736081 
L 193.849825 268.114958 
L 192.743677 268.114958 
z
" clip-path="url(#p71ad180031)" style="fill: #1f77b4"/>
   </g>
   <g id="patch_106">
    <path d="M 221.780071 57666.736081 
L 222.88622 57666.736081 
L 222.88622 295.488 
L 221.780071 295.488 
z
" clip-path="url(#p71ad180031)" style="fill: #1f77b4"/>
   </g>
   <g id="patch_107">
    <path d="M 207.953217 57666.736081 
L 209.059365 57666.736081 
L 209.059365 255.387218 
L 207.953217 255.387218 
z
" clip-path="url(#p71ad180031)" style="fill: #1f77b4"/>
   </g>
   <g id="patch_108">
    <path d="M 198.274418 57666.736081 
L 199.380567 57666.736081 
L 199.380567 268.114958 
L 198.274418 268.114958 
z
" clip-path="url(#p71ad180031)" style="fill: #1f77b4"/>
   </g>
   <g id="patch_109">
    <path d="M 202.422475 57666.736081 
L 203.528623 57666.736081 
L 203.528623 260.947067 
L 202.422475 260.947067 
z
" clip-path="url(#p71ad180031)" style="fill: #1f77b4"/>
   </g>
   <g id="patch_110">
    <path d="M 214.866644 57666.736081 
L 215.972792 57666.736081 
L 215.972792 278.217533 
L 214.866644 278.217533 
z
" clip-path="url(#p71ad180031)" style="fill: #1f77b4"/>
   </g>
   <g id="patch_111">
    <path d="M 205.187846 57666.736081 
L 206.293994 57666.736081 
L 206.293994 268.114958 
L 205.187846 268.114958 
z
" clip-path="url(#p71ad180031)" style="fill: #1f77b4"/>
   </g>
   <g id="patch_112">
    <path d="M 289.531659 57666.736081 
L 290.637807 57666.736081 
L 290.637807 295.488 
L 289.531659 295.488 
z
" clip-path="url(#p71ad180031)" style="fill: #1f77b4"/>
   </g>
   <g id="patch_113">
    <path d="M 246.668409 57666.736081 
L 247.774558 57666.736081 
L 247.774558 278.217533 
L 246.668409 278.217533 
z
" clip-path="url(#p71ad180031)" style="fill: #1f77b4"/>
   </g>
   <g id="patch_114">
    <path d="M 243.903039 57666.736081 
L 245.009187 57666.736081 
L 245.009187 295.488 
L 243.903039 295.488 
z
" clip-path="url(#p71ad180031)" style="fill: #1f77b4"/>
   </g>
   <g id="patch_115">
    <path d="M 254.964522 57666.736081 
L 256.070671 57666.736081 
L 256.070671 295.488 
L 254.964522 295.488 
z
" clip-path="url(#p71ad180031)" style="fill: #1f77b4"/>
   </g>
   <g id="patch_116">
    <path d="M 277.08749 57666.736081 
L 278.193638 57666.736081 
L 278.193638 295.488 
L 277.08749 295.488 
z
" clip-path="url(#p71ad180031)" style="fill: #1f77b4"/>
   </g>
   <g id="patch_117">
    <path d="M 232.841555 57666.736081 
L 233.947703 57666.736081 
L 233.947703 268.114958 
L 232.841555 268.114958 
z
" clip-path="url(#p71ad180031)" style="fill: #1f77b4"/>
   </g>
   <g id="patch_118">
    <path d="M 259.112579 57666.736081 
L 260.218727 57666.736081 
L 260.218727 295.488 
L 259.112579 295.488 
z
" clip-path="url(#p71ad180031)" style="fill: #1f77b4"/>
   </g>
   <g id="patch_119">
    <path d="M 228.693499 57666.736081 
L 229.799647 57666.736081 
L 229.799647 295.488 
L 228.693499 295.488 
z
" clip-path="url(#p71ad180031)" style="fill: #1f77b4"/>
   </g>
   <g id="patch_120">
    <path d="M 219.0147 57666.736081 
L 220.120849 57666.736081 
L 220.120849 295.488 
L 219.0147 295.488 
z
" clip-path="url(#p71ad180031)" style="fill: #1f77b4"/>
   </g>
   <g id="patch_121">
    <path d="M 261.87795 57666.736081 
L 262.984098 57666.736081 
L 262.984098 295.488 
L 261.87795 295.488 
z
" clip-path="url(#p71ad180031)" style="fill: #1f77b4"/>
   </g>
   <g id="patch_122">
    <path d="M 249.43378 57666.736081 
L 250.539929 57666.736081 
L 250.539929 295.488 
L 249.43378 295.488 
z
" clip-path="url(#p71ad180031)" style="fill: #1f77b4"/>
   </g>
   <g id="patch_123">
    <path d="M 210.718588 57666.736081 
L 211.824736 57666.736081 
L 211.824736 295.488 
L 210.718588 295.488 
z
" clip-path="url(#p71ad180031)" style="fill: #1f77b4"/>
   </g>
   <g id="patch_124">
    <path d="M 234.22424 57666.736081 
L 235.330389 57666.736081 
L 235.330389 295.488 
L 234.22424 295.488 
z
" clip-path="url(#p71ad180031)" style="fill: #1f77b4"/>
   </g>
   <g id="patch_125">
    <path d="M 290.914344 57666.736081 
L 292.020492 57666.736081 
L 292.020492 295.488 
L 290.914344 295.488 
z
" clip-path="url(#p71ad180031)" style="fill: #1f77b4"/>
   </g>
   <g id="patch_126">
    <path d="M 369.727415 57666.736081 
L 370.833564 57666.736081 
L 370.833564 295.488 
L 369.727415 295.488 
z
" clip-path="url(#p71ad180031)" style="fill: #1f77b4"/>
   </g>
   <g id="patch_127">
    <path d="M 384.936955 57666.736081 
L 386.043104 57666.736081 
L 386.043104 295.488 
L 384.936955 295.488 
z
" clip-path="url(#p71ad180031)" style="fill: #1f77b4"/>
   </g>
   <g id="patch_128">
    <path d="M 397.381124 57666.736081 
L 398.487273 57666.736081 
L 398.487273 295.488 
L 397.381124 295.488 
z
" clip-path="url(#p71ad180031)" style="fill: #1f77b4"/>
   </g>
   <g id="matplotlib.axis_1">
    <g id="xtick_1">
     <g id="line2d_1">
      <defs>
       <path id="m8c65f411ec" d="M 0 0 
L 0 3.5 
" style="stroke: #000000; stroke-width: 0.8"/>
      </defs>
      <g>
       <use xlink:href="#m8c65f411ec" x="74.385801" y="307.584" style="stroke: #000000; stroke-width: 0.8"/>
      </g>
     </g>
     <g id="text_1">
      <!-- 0 -->
      <g transform="translate(71.204551 322.182437) scale(0.1 -0.1)">
       <defs>
        <path id="DejaVuSans-30" d="M 2034 4250 
Q 1547 4250 1301 3770 
Q 1056 3291 1056 2328 
Q 1056 1369 1301 889 
Q 1547 409 2034 409 
Q 2525 409 2770 889 
Q 3016 1369 3016 2328 
Q 3016 3291 2770 3770 
Q 2525 4250 2034 4250 
z
M 2034 4750 
Q 2819 4750 3233 4129 
Q 3647 3509 3647 2328 
Q 3647 1150 3233 529 
Q 2819 -91 2034 -91 
Q 1250 -91 836 529 
Q 422 1150 422 2328 
Q 422 3509 836 4129 
Q 1250 4750 2034 4750 
z
" transform="scale(0.015625)"/>
       </defs>
       <use xlink:href="#DejaVuSans-30"/>
      </g>
     </g>
    </g>
    <g id="xtick_2">
     <g id="line2d_2">
      <g>
       <use xlink:href="#m8c65f411ec" x="143.520074" y="307.584" style="stroke: #000000; stroke-width: 0.8"/>
      </g>
     </g>
     <g id="text_2">
      <!-- 50 -->
      <g transform="translate(137.157574 322.182437) scale(0.1 -0.1)">
       <defs>
        <path id="DejaVuSans-35" d="M 691 4666 
L 3169 4666 
L 3169 4134 
L 1269 4134 
L 1269 2991 
Q 1406 3038 1543 3061 
Q 1681 3084 1819 3084 
Q 2600 3084 3056 2656 
Q 3513 2228 3513 1497 
Q 3513 744 3044 326 
Q 2575 -91 1722 -91 
Q 1428 -91 1123 -41 
Q 819 9 494 109 
L 494 744 
Q 775 591 1075 516 
Q 1375 441 1709 441 
Q 2250 441 2565 725 
Q 2881 1009 2881 1497 
Q 2881 1984 2565 2268 
Q 2250 2553 1709 2553 
Q 1456 2553 1204 2497 
Q 953 2441 691 2322 
L 691 4666 
z
" transform="scale(0.015625)"/>
       </defs>
       <use xlink:href="#DejaVuSans-35"/>
       <use xlink:href="#DejaVuSans-30" x="63.623047"/>
      </g>
     </g>
    </g>
    <g id="xtick_3">
     <g id="line2d_3">
      <g>
       <use xlink:href="#m8c65f411ec" x="212.654347" y="307.584" style="stroke: #000000; stroke-width: 0.8"/>
      </g>
     </g>
     <g id="text_3">
      <!-- 100 -->
      <g transform="translate(203.110597 322.182437) scale(0.1 -0.1)">
       <defs>
        <path id="DejaVuSans-31" d="M 794 531 
L 1825 531 
L 1825 4091 
L 703 3866 
L 703 4441 
L 1819 4666 
L 2450 4666 
L 2450 531 
L 3481 531 
L 3481 0 
L 794 0 
L 794 531 
z
" transform="scale(0.015625)"/>
       </defs>
       <use xlink:href="#DejaVuSans-31"/>
       <use xlink:href="#DejaVuSans-30" x="63.623047"/>
       <use xlink:href="#DejaVuSans-30" x="127.246094"/>
      </g>
     </g>
    </g>
    <g id="xtick_4">
     <g id="line2d_4">
      <g>
       <use xlink:href="#m8c65f411ec" x="281.78862" y="307.584" style="stroke: #000000; stroke-width: 0.8"/>
      </g>
     </g>
     <g id="text_4">
      <!-- 150 -->
      <g transform="translate(272.24487 322.182437) scale(0.1 -0.1)">
       <use xlink:href="#DejaVuSans-31"/>
       <use xlink:href="#DejaVuSans-35" x="63.623047"/>
       <use xlink:href="#DejaVuSans-30" x="127.246094"/>
      </g>
     </g>
    </g>
    <g id="xtick_5">
     <g id="line2d_5">
      <g>
       <use xlink:href="#m8c65f411ec" x="350.922893" y="307.584" style="stroke: #000000; stroke-width: 0.8"/>
      </g>
     </g>
     <g id="text_5">
      <!-- 200 -->
      <g transform="translate(341.379143 322.182437) scale(0.1 -0.1)">
       <defs>
        <path id="DejaVuSans-32" d="M 1228 531 
L 3431 531 
L 3431 0 
L 469 0 
L 469 531 
Q 828 903 1448 1529 
Q 2069 2156 2228 2338 
Q 2531 2678 2651 2914 
Q 2772 3150 2772 3378 
Q 2772 3750 2511 3984 
Q 2250 4219 1831 4219 
Q 1534 4219 1204 4116 
Q 875 4013 500 3803 
L 500 4441 
Q 881 4594 1212 4672 
Q 1544 4750 1819 4750 
Q 2544 4750 2975 4387 
Q 3406 4025 3406 3419 
Q 3406 3131 3298 2873 
Q 3191 2616 2906 2266 
Q 2828 2175 2409 1742 
Q 1991 1309 1228 531 
z
" transform="scale(0.015625)"/>
       </defs>
       <use xlink:href="#DejaVuSans-32"/>
       <use xlink:href="#DejaVuSans-30" x="63.623047"/>
       <use xlink:href="#DejaVuSans-30" x="127.246094"/>
      </g>
     </g>
    </g>
    <g id="text_6">
     <!-- Depth of Element -->
     <g transform="translate(192.231875 335.860562) scale(0.1 -0.1)">
      <defs>
       <path id="DejaVuSans-44" d="M 1259 4147 
L 1259 519 
L 2022 519 
Q 2988 519 3436 956 
Q 3884 1394 3884 2338 
Q 3884 3275 3436 3711 
Q 2988 4147 2022 4147 
L 1259 4147 
z
M 628 4666 
L 1925 4666 
Q 3281 4666 3915 4102 
Q 4550 3538 4550 2338 
Q 4550 1131 3912 565 
Q 3275 0 1925 0 
L 628 0 
L 628 4666 
z
" transform="scale(0.015625)"/>
       <path id="DejaVuSans-65" d="M 3597 1894 
L 3597 1613 
L 953 1613 
Q 991 1019 1311 708 
Q 1631 397 2203 397 
Q 2534 397 2845 478 
Q 3156 559 3463 722 
L 3463 178 
Q 3153 47 2828 -22 
Q 2503 -91 2169 -91 
Q 1331 -91 842 396 
Q 353 884 353 1716 
Q 353 2575 817 3079 
Q 1281 3584 2069 3584 
Q 2775 3584 3186 3129 
Q 3597 2675 3597 1894 
z
M 3022 2063 
Q 3016 2534 2758 2815 
Q 2500 3097 2075 3097 
Q 1594 3097 1305 2825 
Q 1016 2553 972 2059 
L 3022 2063 
z
" transform="scale(0.015625)"/>
       <path id="DejaVuSans-70" d="M 1159 525 
L 1159 -1331 
L 581 -1331 
L 581 3500 
L 1159 3500 
L 1159 2969 
Q 1341 3281 1617 3432 
Q 1894 3584 2278 3584 
Q 2916 3584 3314 3078 
Q 3713 2572 3713 1747 
Q 3713 922 3314 415 
Q 2916 -91 2278 -91 
Q 1894 -91 1617 61 
Q 1341 213 1159 525 
z
M 3116 1747 
Q 3116 2381 2855 2742 
Q 2594 3103 2138 3103 
Q 1681 3103 1420 2742 
Q 1159 2381 1159 1747 
Q 1159 1113 1420 752 
Q 1681 391 2138 391 
Q 2594 391 2855 752 
Q 3116 1113 3116 1747 
z
" transform="scale(0.015625)"/>
       <path id="DejaVuSans-74" d="M 1172 4494 
L 1172 3500 
L 2356 3500 
L 2356 3053 
L 1172 3053 
L 1172 1153 
Q 1172 725 1289 603 
Q 1406 481 1766 481 
L 2356 481 
L 2356 0 
L 1766 0 
Q 1100 0 847 248 
Q 594 497 594 1153 
L 594 3053 
L 172 3053 
L 172 3500 
L 594 3500 
L 594 4494 
L 1172 4494 
z
" transform="scale(0.015625)"/>
       <path id="DejaVuSans-68" d="M 3513 2113 
L 3513 0 
L 2938 0 
L 2938 2094 
Q 2938 2591 2744 2837 
Q 2550 3084 2163 3084 
Q 1697 3084 1428 2787 
Q 1159 2491 1159 1978 
L 1159 0 
L 581 0 
L 581 4863 
L 1159 4863 
L 1159 2956 
Q 1366 3272 1645 3428 
Q 1925 3584 2291 3584 
Q 2894 3584 3203 3211 
Q 3513 2838 3513 2113 
z
" transform="scale(0.015625)"/>
       <path id="DejaVuSans-20" transform="scale(0.015625)"/>
       <path id="DejaVuSans-6f" d="M 1959 3097 
Q 1497 3097 1228 2736 
Q 959 2375 959 1747 
Q 959 1119 1226 758 
Q 1494 397 1959 397 
Q 2419 397 2687 759 
Q 2956 1122 2956 1747 
Q 2956 2369 2687 2733 
Q 2419 3097 1959 3097 
z
M 1959 3584 
Q 2709 3584 3137 3096 
Q 3566 2609 3566 1747 
Q 3566 888 3137 398 
Q 2709 -91 1959 -91 
Q 1206 -91 779 398 
Q 353 888 353 1747 
Q 353 2609 779 3096 
Q 1206 3584 1959 3584 
z
" transform="scale(0.015625)"/>
       <path id="DejaVuSans-66" d="M 2375 4863 
L 2375 4384 
L 1825 4384 
Q 1516 4384 1395 4259 
Q 1275 4134 1275 3809 
L 1275 3500 
L 2222 3500 
L 2222 3053 
L 1275 3053 
L 1275 0 
L 697 0 
L 697 3053 
L 147 3053 
L 147 3500 
L 697 3500 
L 697 3744 
Q 697 4328 969 4595 
Q 1241 4863 1831 4863 
L 2375 4863 
z
" transform="scale(0.015625)"/>
       <path id="DejaVuSans-45" d="M 628 4666 
L 3578 4666 
L 3578 4134 
L 1259 4134 
L 1259 2753 
L 3481 2753 
L 3481 2222 
L 1259 2222 
L 1259 531 
L 3634 531 
L 3634 0 
L 628 0 
L 628 4666 
z
" transform="scale(0.015625)"/>
       <path id="DejaVuSans-6c" d="M 603 4863 
L 1178 4863 
L 1178 0 
L 603 0 
L 603 4863 
z
" transform="scale(0.015625)"/>
       <path id="DejaVuSans-6d" d="M 3328 2828 
Q 3544 3216 3844 3400 
Q 4144 3584 4550 3584 
Q 5097 3584 5394 3201 
Q 5691 2819 5691 2113 
L 5691 0 
L 5113 0 
L 5113 2094 
Q 5113 2597 4934 2840 
Q 4756 3084 4391 3084 
Q 3944 3084 3684 2787 
Q 3425 2491 3425 1978 
L 3425 0 
L 2847 0 
L 2847 2094 
Q 2847 2600 2669 2842 
Q 2491 3084 2119 3084 
Q 1678 3084 1418 2786 
Q 1159 2488 1159 1978 
L 1159 0 
L 581 0 
L 581 3500 
L 1159 3500 
L 1159 2956 
Q 1356 3278 1631 3431 
Q 1906 3584 2284 3584 
Q 2666 3584 2933 3390 
Q 3200 3197 3328 2828 
z
" transform="scale(0.015625)"/>
       <path id="DejaVuSans-6e" d="M 3513 2113 
L 3513 0 
L 2938 0 
L 2938 2094 
Q 2938 2591 2744 2837 
Q 2550 3084 2163 3084 
Q 1697 3084 1428 2787 
Q 1159 2491 1159 1978 
L 1159 0 
L 581 0 
L 581 3500 
L 1159 3500 
L 1159 2956 
Q 1366 3272 1645 3428 
Q 1925 3584 2291 3584 
Q 2894 3584 3203 3211 
Q 3513 2838 3513 2113 
z
" transform="scale(0.015625)"/>
      </defs>
      <use xlink:href="#DejaVuSans-44"/>
      <use xlink:href="#DejaVuSans-65" x="77.001953"/>
      <use xlink:href="#DejaVuSans-70" x="138.525391"/>
      <use xlink:href="#DejaVuSans-74" x="202.001953"/>
      <use xlink:href="#DejaVuSans-68" x="241.210938"/>
      <use xlink:href="#DejaVuSans-20" x="304.589844"/>
      <use xlink:href="#DejaVuSans-6f" x="336.376953"/>
      <use xlink:href="#DejaVuSans-66" x="397.558594"/>
      <use xlink:href="#DejaVuSans-20" x="432.763672"/>
      <use xlink:href="#DejaVuSans-45" x="464.550781"/>
      <use xlink:href="#DejaVuSans-6c" x="527.734375"/>
      <use xlink:href="#DejaVuSans-65" x="555.517578"/>
      <use xlink:href="#DejaVuSans-6d" x="617.041016"/>
      <use xlink:href="#DejaVuSans-65" x="714.453125"/>
      <use xlink:href="#DejaVuSans-6e" x="775.976562"/>
      <use xlink:href="#DejaVuSans-74" x="839.355469"/>
     </g>
    </g>
   </g>
   <g id="matplotlib.axis_2">
    <g id="ytick_1">
     <g id="line2d_6">
      <defs>
       <path id="m7cb2c850b7" d="M 0 0 
L -3.5 0 
" style="stroke: #000000; stroke-width: 0.8"/>
      </defs>
      <g>
       <use xlink:href="#m7cb2c850b7" x="57.6" y="295.488" style="stroke: #000000; stroke-width: 0.8"/>
      </g>
     </g>
     <g id="text_7">
      <!-- $\mathdefault{10^{0}}$ -->
      <g transform="translate(33 299.287219) scale(0.1 -0.1)">
       <use xlink:href="#DejaVuSans-31" transform="translate(0 0.765625)"/>
       <use xlink:href="#DejaVuSans-30" transform="translate(63.623047 0.765625)"/>
       <use xlink:href="#DejaVuSans-30" transform="translate(128.203125 39.046875) scale(0.7)"/>
      </g>
     </g>
    </g>
    <g id="ytick_2">
     <g id="line2d_7">
      <g>
       <use xlink:href="#m7cb2c850b7" x="57.6" y="238.116752" style="stroke: #000000; stroke-width: 0.8"/>
      </g>
     </g>
     <g id="text_8">
      <!-- $\mathdefault{10^{1}}$ -->
      <g transform="translate(33 241.915971) scale(0.1 -0.1)">
       <use xlink:href="#DejaVuSans-31" transform="translate(0 0.684375)"/>
       <use xlink:href="#DejaVuSans-30" transform="translate(63.623047 0.684375)"/>
       <use xlink:href="#DejaVuSans-31" transform="translate(128.203125 38.965625) scale(0.7)"/>
      </g>
     </g>
    </g>
    <g id="ytick_3">
     <g id="line2d_8">
      <g>
       <use xlink:href="#m7cb2c850b7" x="57.6" y="180.745504" style="stroke: #000000; stroke-width: 0.8"/>
      </g>
     </g>
     <g id="text_9">
      <!-- $\mathdefault{10^{2}}$ -->
      <g transform="translate(33 184.544723) scale(0.1 -0.1)">
       <use xlink:href="#DejaVuSans-31" transform="translate(0 0.765625)"/>
       <use xlink:href="#DejaVuSans-30" transform="translate(63.623047 0.765625)"/>
       <use xlink:href="#DejaVuSans-32" transform="translate(128.203125 39.046875) scale(0.7)"/>
      </g>
     </g>
    </g>
    <g id="ytick_4">
     <g id="line2d_9">
      <g>
       <use xlink:href="#m7cb2c850b7" x="57.6" y="123.374256" style="stroke: #000000; stroke-width: 0.8"/>
      </g>
     </g>
     <g id="text_10">
      <!-- $\mathdefault{10^{3}}$ -->
      <g transform="translate(33 127.173475) scale(0.1 -0.1)">
       <defs>
        <path id="DejaVuSans-33" d="M 2597 2516 
Q 3050 2419 3304 2112 
Q 3559 1806 3559 1356 
Q 3559 666 3084 287 
Q 2609 -91 1734 -91 
Q 1441 -91 1130 -33 
Q 819 25 488 141 
L 488 750 
Q 750 597 1062 519 
Q 1375 441 1716 441 
Q 2309 441 2620 675 
Q 2931 909 2931 1356 
Q 2931 1769 2642 2001 
Q 2353 2234 1838 2234 
L 1294 2234 
L 1294 2753 
L 1863 2753 
Q 2328 2753 2575 2939 
Q 2822 3125 2822 3475 
Q 2822 3834 2567 4026 
Q 2313 4219 1838 4219 
Q 1578 4219 1281 4162 
Q 984 4106 628 3988 
L 628 4550 
Q 988 4650 1302 4700 
Q 1616 4750 1894 4750 
Q 2613 4750 3031 4423 
Q 3450 4097 3450 3541 
Q 3450 3153 3228 2886 
Q 3006 2619 2597 2516 
z
" transform="scale(0.015625)"/>
       </defs>
       <use xlink:href="#DejaVuSans-31" transform="translate(0 0.765625)"/>
       <use xlink:href="#DejaVuSans-30" transform="translate(63.623047 0.765625)"/>
       <use xlink:href="#DejaVuSans-33" transform="translate(128.203125 39.046875) scale(0.7)"/>
      </g>
     </g>
    </g>
    <g id="ytick_5">
     <g id="line2d_10">
      <g>
       <use xlink:href="#m7cb2c850b7" x="57.6" y="66.003008" style="stroke: #000000; stroke-width: 0.8"/>
      </g>
     </g>
     <g id="text_11">
      <!-- $\mathdefault{10^{4}}$ -->
      <g transform="translate(33 69.802226) scale(0.1 -0.1)">
       <defs>
        <path id="DejaVuSans-34" d="M 2419 4116 
L 825 1625 
L 2419 1625 
L 2419 4116 
z
M 2253 4666 
L 3047 4666 
L 3047 1625 
L 3713 1625 
L 3713 1100 
L 3047 1100 
L 3047 0 
L 2419 0 
L 2419 1100 
L 313 1100 
L 313 1709 
L 2253 4666 
z
" transform="scale(0.015625)"/>
       </defs>
       <use xlink:href="#DejaVuSans-31" transform="translate(0 0.684375)"/>
       <use xlink:href="#DejaVuSans-30" transform="translate(63.623047 0.684375)"/>
       <use xlink:href="#DejaVuSans-34" transform="translate(128.203125 38.965625) scale(0.7)"/>
      </g>
     </g>
    </g>
    <g id="ytick_6">
     <g id="line2d_11">
      <defs>
       <path id="m9de3e6aed2" d="M 0 0 
L -2 0 
" style="stroke: #000000; stroke-width: 0.6"/>
      </defs>
      <g>
       <use xlink:href="#m9de3e6aed2" x="57.6" y="304.374919" style="stroke: #000000; stroke-width: 0.6"/>
      </g>
     </g>
    </g>
    <g id="ytick_7">
     <g id="line2d_12">
      <g>
       <use xlink:href="#m9de3e6aed2" x="57.6" y="301.047848" style="stroke: #000000; stroke-width: 0.6"/>
      </g>
     </g>
    </g>
    <g id="ytick_8">
     <g id="line2d_13">
      <g>
       <use xlink:href="#m9de3e6aed2" x="57.6" y="298.113164" style="stroke: #000000; stroke-width: 0.6"/>
      </g>
     </g>
    </g>
    <g id="ytick_9">
     <g id="line2d_14">
      <g>
       <use xlink:href="#m9de3e6aed2" x="57.6" y="278.217533" style="stroke: #000000; stroke-width: 0.6"/>
      </g>
     </g>
    </g>
    <g id="ytick_10">
     <g id="line2d_15">
      <g>
       <use xlink:href="#m9de3e6aed2" x="57.6" y="268.114958" style="stroke: #000000; stroke-width: 0.6"/>
      </g>
     </g>
    </g>
    <g id="ytick_11">
     <g id="line2d_16">
      <g>
       <use xlink:href="#m9de3e6aed2" x="57.6" y="260.947067" style="stroke: #000000; stroke-width: 0.6"/>
      </g>
     </g>
    </g>
    <g id="ytick_12">
     <g id="line2d_17">
      <g>
       <use xlink:href="#m9de3e6aed2" x="57.6" y="255.387218" style="stroke: #000000; stroke-width: 0.6"/>
      </g>
     </g>
    </g>
    <g id="ytick_13">
     <g id="line2d_18">
      <g>
       <use xlink:href="#m9de3e6aed2" x="57.6" y="250.844492" style="stroke: #000000; stroke-width: 0.6"/>
      </g>
     </g>
    </g>
    <g id="ytick_14">
     <g id="line2d_19">
      <g>
       <use xlink:href="#m9de3e6aed2" x="57.6" y="247.003671" style="stroke: #000000; stroke-width: 0.6"/>
      </g>
     </g>
    </g>
    <g id="ytick_15">
     <g id="line2d_20">
      <g>
       <use xlink:href="#m9de3e6aed2" x="57.6" y="243.6766" style="stroke: #000000; stroke-width: 0.6"/>
      </g>
     </g>
    </g>
    <g id="ytick_16">
     <g id="line2d_21">
      <g>
       <use xlink:href="#m9de3e6aed2" x="57.6" y="240.741916" style="stroke: #000000; stroke-width: 0.6"/>
      </g>
     </g>
    </g>
    <g id="ytick_17">
     <g id="line2d_22">
      <g>
       <use xlink:href="#m9de3e6aed2" x="57.6" y="220.846285" style="stroke: #000000; stroke-width: 0.6"/>
      </g>
     </g>
    </g>
    <g id="ytick_18">
     <g id="line2d_23">
      <g>
       <use xlink:href="#m9de3e6aed2" x="57.6" y="210.74371" style="stroke: #000000; stroke-width: 0.6"/>
      </g>
     </g>
    </g>
    <g id="ytick_19">
     <g id="line2d_24">
      <g>
       <use xlink:href="#m9de3e6aed2" x="57.6" y="203.575819" style="stroke: #000000; stroke-width: 0.6"/>
      </g>
     </g>
    </g>
    <g id="ytick_20">
     <g id="line2d_25">
      <g>
       <use xlink:href="#m9de3e6aed2" x="57.6" y="198.01597" style="stroke: #000000; stroke-width: 0.6"/>
      </g>
     </g>
    </g>
    <g id="ytick_21">
     <g id="line2d_26">
      <g>
       <use xlink:href="#m9de3e6aed2" x="57.6" y="193.473243" style="stroke: #000000; stroke-width: 0.6"/>
      </g>
     </g>
    </g>
    <g id="ytick_22">
     <g id="line2d_27">
      <g>
       <use xlink:href="#m9de3e6aed2" x="57.6" y="189.632423" style="stroke: #000000; stroke-width: 0.6"/>
      </g>
     </g>
    </g>
    <g id="ytick_23">
     <g id="line2d_28">
      <g>
       <use xlink:href="#m9de3e6aed2" x="57.6" y="186.305352" style="stroke: #000000; stroke-width: 0.6"/>
      </g>
     </g>
    </g>
    <g id="ytick_24">
     <g id="line2d_29">
      <g>
       <use xlink:href="#m9de3e6aed2" x="57.6" y="183.370668" style="stroke: #000000; stroke-width: 0.6"/>
      </g>
     </g>
    </g>
    <g id="ytick_25">
     <g id="line2d_30">
      <g>
       <use xlink:href="#m9de3e6aed2" x="57.6" y="163.475037" style="stroke: #000000; stroke-width: 0.6"/>
      </g>
     </g>
    </g>
    <g id="ytick_26">
     <g id="line2d_31">
      <g>
       <use xlink:href="#m9de3e6aed2" x="57.6" y="153.372462" style="stroke: #000000; stroke-width: 0.6"/>
      </g>
     </g>
    </g>
    <g id="ytick_27">
     <g id="line2d_32">
      <g>
       <use xlink:href="#m9de3e6aed2" x="57.6" y="146.204571" style="stroke: #000000; stroke-width: 0.6"/>
      </g>
     </g>
    </g>
    <g id="ytick_28">
     <g id="line2d_33">
      <g>
       <use xlink:href="#m9de3e6aed2" x="57.6" y="140.644722" style="stroke: #000000; stroke-width: 0.6"/>
      </g>
     </g>
    </g>
    <g id="ytick_29">
     <g id="line2d_34">
      <g>
       <use xlink:href="#m9de3e6aed2" x="57.6" y="136.101995" style="stroke: #000000; stroke-width: 0.6"/>
      </g>
     </g>
    </g>
    <g id="ytick_30">
     <g id="line2d_35">
      <g>
       <use xlink:href="#m9de3e6aed2" x="57.6" y="132.261175" style="stroke: #000000; stroke-width: 0.6"/>
      </g>
     </g>
    </g>
    <g id="ytick_31">
     <g id="line2d_36">
      <g>
       <use xlink:href="#m9de3e6aed2" x="57.6" y="128.934104" style="stroke: #000000; stroke-width: 0.6"/>
      </g>
     </g>
    </g>
    <g id="ytick_32">
     <g id="line2d_37">
      <g>
       <use xlink:href="#m9de3e6aed2" x="57.6" y="125.99942" style="stroke: #000000; stroke-width: 0.6"/>
      </g>
     </g>
    </g>
    <g id="ytick_33">
     <g id="line2d_38">
      <g>
       <use xlink:href="#m9de3e6aed2" x="57.6" y="106.103789" style="stroke: #000000; stroke-width: 0.6"/>
      </g>
     </g>
    </g>
    <g id="ytick_34">
     <g id="line2d_39">
      <g>
       <use xlink:href="#m9de3e6aed2" x="57.6" y="96.001214" style="stroke: #000000; stroke-width: 0.6"/>
      </g>
     </g>
    </g>
    <g id="ytick_35">
     <g id="line2d_40">
      <g>
       <use xlink:href="#m9de3e6aed2" x="57.6" y="88.833323" style="stroke: #000000; stroke-width: 0.6"/>
      </g>
     </g>
    </g>
    <g id="ytick_36">
     <g id="line2d_41">
      <g>
       <use xlink:href="#m9de3e6aed2" x="57.6" y="83.273474" style="stroke: #000000; stroke-width: 0.6"/>
      </g>
     </g>
    </g>
    <g id="ytick_37">
     <g id="line2d_42">
      <g>
       <use xlink:href="#m9de3e6aed2" x="57.6" y="78.730747" style="stroke: #000000; stroke-width: 0.6"/>
      </g>
     </g>
    </g>
    <g id="ytick_38">
     <g id="line2d_43">
      <g>
       <use xlink:href="#m9de3e6aed2" x="57.6" y="74.889926" style="stroke: #000000; stroke-width: 0.6"/>
      </g>
     </g>
    </g>
    <g id="ytick_39">
     <g id="line2d_44">
      <g>
       <use xlink:href="#m9de3e6aed2" x="57.6" y="71.562856" style="stroke: #000000; stroke-width: 0.6"/>
      </g>
     </g>
    </g>
    <g id="ytick_40">
     <g id="line2d_45">
      <g>
       <use xlink:href="#m9de3e6aed2" x="57.6" y="68.628172" style="stroke: #000000; stroke-width: 0.6"/>
      </g>
     </g>
    </g>
    <g id="ytick_41">
     <g id="line2d_46">
      <g>
       <use xlink:href="#m9de3e6aed2" x="57.6" y="48.732541" style="stroke: #000000; stroke-width: 0.6"/>
      </g>
     </g>
    </g>
    <g id="text_12">
     <!-- Number of Elements -->
     <g transform="translate(26.920312 225.917062) rotate(-90) scale(0.1 -0.1)">
      <defs>
       <path id="DejaVuSans-4e" d="M 628 4666 
L 1478 4666 
L 3547 763 
L 3547 4666 
L 4159 4666 
L 4159 0 
L 3309 0 
L 1241 3903 
L 1241 0 
L 628 0 
L 628 4666 
z
" transform="scale(0.015625)"/>
       <path id="DejaVuSans-75" d="M 544 1381 
L 544 3500 
L 1119 3500 
L 1119 1403 
Q 1119 906 1312 657 
Q 1506 409 1894 409 
Q 2359 409 2629 706 
Q 2900 1003 2900 1516 
L 2900 3500 
L 3475 3500 
L 3475 0 
L 2900 0 
L 2900 538 
Q 2691 219 2414 64 
Q 2138 -91 1772 -91 
Q 1169 -91 856 284 
Q 544 659 544 1381 
z
M 1991 3584 
L 1991 3584 
z
" transform="scale(0.015625)"/>
       <path id="DejaVuSans-62" d="M 3116 1747 
Q 3116 2381 2855 2742 
Q 2594 3103 2138 3103 
Q 1681 3103 1420 2742 
Q 1159 2381 1159 1747 
Q 1159 1113 1420 752 
Q 1681 391 2138 391 
Q 2594 391 2855 752 
Q 3116 1113 3116 1747 
z
M 1159 2969 
Q 1341 3281 1617 3432 
Q 1894 3584 2278 3584 
Q 2916 3584 3314 3078 
Q 3713 2572 3713 1747 
Q 3713 922 3314 415 
Q 2916 -91 2278 -91 
Q 1894 -91 1617 61 
Q 1341 213 1159 525 
L 1159 0 
L 581 0 
L 581 4863 
L 1159 4863 
L 1159 2969 
z
" transform="scale(0.015625)"/>
       <path id="DejaVuSans-72" d="M 2631 2963 
Q 2534 3019 2420 3045 
Q 2306 3072 2169 3072 
Q 1681 3072 1420 2755 
Q 1159 2438 1159 1844 
L 1159 0 
L 581 0 
L 581 3500 
L 1159 3500 
L 1159 2956 
Q 1341 3275 1631 3429 
Q 1922 3584 2338 3584 
Q 2397 3584 2469 3576 
Q 2541 3569 2628 3553 
L 2631 2963 
z
" transform="scale(0.015625)"/>
       <path id="DejaVuSans-73" d="M 2834 3397 
L 2834 2853 
Q 2591 2978 2328 3040 
Q 2066 3103 1784 3103 
Q 1356 3103 1142 2972 
Q 928 2841 928 2578 
Q 928 2378 1081 2264 
Q 1234 2150 1697 2047 
L 1894 2003 
Q 2506 1872 2764 1633 
Q 3022 1394 3022 966 
Q 3022 478 2636 193 
Q 2250 -91 1575 -91 
Q 1294 -91 989 -36 
Q 684 19 347 128 
L 347 722 
Q 666 556 975 473 
Q 1284 391 1588 391 
Q 1994 391 2212 530 
Q 2431 669 2431 922 
Q 2431 1156 2273 1281 
Q 2116 1406 1581 1522 
L 1381 1569 
Q 847 1681 609 1914 
Q 372 2147 372 2553 
Q 372 3047 722 3315 
Q 1072 3584 1716 3584 
Q 2034 3584 2315 3537 
Q 2597 3491 2834 3397 
z
" transform="scale(0.015625)"/>
      </defs>
      <use xlink:href="#DejaVuSans-4e"/>
      <use xlink:href="#DejaVuSans-75" x="74.804688"/>
      <use xlink:href="#DejaVuSans-6d" x="138.183594"/>
      <use xlink:href="#DejaVuSans-62" x="235.595703"/>
      <use xlink:href="#DejaVuSans-65" x="299.072266"/>
      <use xlink:href="#DejaVuSans-72" x="360.595703"/>
      <use xlink:href="#DejaVuSans-20" x="401.708984"/>
      <use xlink:href="#DejaVuSans-6f" x="433.496094"/>
      <use xlink:href="#DejaVuSans-66" x="494.677734"/>
      <use xlink:href="#DejaVuSans-20" x="529.882812"/>
      <use xlink:href="#DejaVuSans-45" x="561.669922"/>
      <use xlink:href="#DejaVuSans-6c" x="624.853516"/>
      <use xlink:href="#DejaVuSans-65" x="652.636719"/>
      <use xlink:href="#DejaVuSans-6d" x="714.160156"/>
      <use xlink:href="#DejaVuSans-65" x="811.572266"/>
      <use xlink:href="#DejaVuSans-6e" x="873.095703"/>
      <use xlink:href="#DejaVuSans-74" x="936.474609"/>
      <use xlink:href="#DejaVuSans-73" x="975.683594"/>
     </g>
    </g>
   </g>
   <g id="patch_129">
    <path d="M 57.6 307.584 
L 57.6 41.472 
" style="fill: none; stroke: #000000; stroke-width: 0.8; stroke-linejoin: miter; stroke-linecap: square"/>
   </g>
   <g id="patch_130">
    <path d="M 414.72 307.584 
L 414.72 41.472 
" style="fill: none; stroke: #000000; stroke-width: 0.8; stroke-linejoin: miter; stroke-linecap: square"/>
   </g>
   <g id="patch_131">
    <path d="M 57.6 307.584 
L 414.72 307.584 
" style="fill: none; stroke: #000000; stroke-width: 0.8; stroke-linejoin: miter; stroke-linecap: square"/>
   </g>
   <g id="patch_132">
    <path d="M 57.6 41.472 
L 414.72 41.472 
" style="fill: none; stroke: #000000; stroke-width: 0.8; stroke-linejoin: miter; stroke-linecap: square"/>
   </g>
  </g>
 </g>
 <defs>
  <clipPath id="p71ad180031">
   <rect x="57.6" y="41.472" width="357.12" height="266.112"/>
  </clipPath>
 </defs>
</svg>
