<?xml version="1.0" encoding="utf-8" standalone="no"?>
<!DOCTYPE svg PUBLIC "-//W3C//DTD SVG 1.1//EN"
  "http://www.w3.org/Graphics/SVG/1.1/DTD/svg11.dtd">
<svg xmlns:xlink="http://www.w3.org/1999/xlink" width="460.8pt" height="345.6pt" viewBox="0 0 460.8 345.6" xmlns="http://www.w3.org/2000/svg" version="1.1">
 <metadata>
  <rdf:RDF xmlns:dc="http://purl.org/dc/elements/1.1/" xmlns:cc="http://creativecommons.org/ns#" xmlns:rdf="http://www.w3.org/1999/02/22-rdf-syntax-ns#">
   <cc:Work>
    <dc:type rdf:resource="http://purl.org/dc/dcmitype/StillImage"/>
    <dc:date>2024-03-03T20:00:31.624329</dc:date>
    <dc:format>image/svg+xml</dc:format>
    <dc:creator>
     <cc:Agent>
      <dc:title>Matplotlib v3.8.3, https://matplotlib.org/</dc:title>
     </cc:Agent>
    </dc:creator>
   </cc:Work>
  </rdf:RDF>
 </metadata>
 <defs>
  <style type="text/css">*{stroke-linejoin: round; stroke-linecap: butt}</style>
 </defs>
 <g id="figure_1">
  <g id="patch_1">
   <path d="M 0 345.6 
L 460.8 345.6 
L 460.8 0 
L 0 0 
z
" style="fill: #ffffff"/>
  </g>
  <g id="axes_1">
   <g id="patch_2">
    <path d="M 57.6 307.584 
L 414.72 307.584 
L 414.72 41.472 
L 57.6 41.472 
z
" style="fill: #ffffff"/>
   </g>
   <g id="patch_3">
    <path d="M 73.832727 59965.371387 
L 75.301752 59965.371387 
L 75.301752 259.563151 
L 73.832727 259.563151 
z
" clip-path="url(#p8ec081e734)" style="fill: #1f77b4"/>
   </g>
   <g id="patch_4">
    <path d="M 75.669009 59965.371387 
L 77.138034 59965.371387 
L 77.138034 235.818117 
L 75.669009 235.818117 
z
" clip-path="url(#p8ec081e734)" style="fill: #1f77b4"/>
   </g>
   <g id="patch_5">
    <path d="M 79.341571 59965.371387 
L 80.810596 59965.371387 
L 80.810596 194.110658 
L 79.341571 194.110658 
z
" clip-path="url(#p8ec081e734)" style="fill: #1f77b4"/>
   </g>
   <g id="patch_6">
    <path d="M 81.177853 59965.371387 
L 82.646878 59965.371387 
L 82.646878 171.423498 
L 81.177853 171.423498 
z
" clip-path="url(#p8ec081e734)" style="fill: #1f77b4"/>
   </g>
   <g id="patch_7">
    <path d="M 86.686697 59965.371387 
L 88.155722 59965.371387 
L 88.155722 117.107878 
L 86.686697 117.107878 
z
" clip-path="url(#p8ec081e734)" style="fill: #1f77b4"/>
   </g>
   <g id="patch_8">
    <path d="M 77.50529 59965.371387 
L 78.974315 59965.371387 
L 78.974315 219.184922 
L 77.50529 219.184922 
z
" clip-path="url(#p8ec081e734)" style="fill: #1f77b4"/>
   </g>
   <g id="patch_9">
    <path d="M 83.014134 59965.371387 
L 84.483159 59965.371387 
L 84.483159 153.461073 
L 83.014134 153.461073 
z
" clip-path="url(#p8ec081e734)" style="fill: #1f77b4"/>
   </g>
   <g id="patch_10">
    <path d="M 88.522978 59965.371387 
L 89.992003 59965.371387 
L 89.992003 102.545208 
L 88.522978 102.545208 
z
" clip-path="url(#p8ec081e734)" style="fill: #1f77b4"/>
   </g>
   <g id="patch_11">
    <path d="M 84.850415 59965.371387 
L 86.319441 59965.371387 
L 86.319441 135.715505 
L 84.850415 135.715505 
z
" clip-path="url(#p8ec081e734)" style="fill: #1f77b4"/>
   </g>
   <g id="patch_12">
    <path d="M 92.195541 59965.371387 
L 93.664566 59965.371387 
L 93.664566 79.806381 
L 92.195541 79.806381 
z
" clip-path="url(#p8ec081e734)" style="fill: #1f77b4"/>
   </g>
   <g id="patch_13">
    <path d="M 90.35926 59965.371387 
L 91.828285 59965.371387 
L 91.828285 90.019562 
L 90.35926 90.019562 
z
" clip-path="url(#p8ec081e734)" style="fill: #1f77b4"/>
   </g>
   <g id="patch_14">
    <path d="M 95.868104 59965.371387 
L 97.337129 59965.371387 
L 97.337129 61.379211 
L 95.868104 61.379211 
z
" clip-path="url(#p8ec081e734)" style="fill: #1f77b4"/>
   </g>
   <g id="patch_15">
    <path d="M 94.031822 59965.371387 
L 95.500847 59965.371387 
L 95.500847 69.775474 
L 94.031822 69.775474 
z
" clip-path="url(#p8ec081e734)" style="fill: #1f77b4"/>
   </g>
   <g id="patch_16">
    <path d="M 103.213229 59965.371387 
L 104.682254 59965.371387 
L 104.682254 61.82508 
L 103.213229 61.82508 
z
" clip-path="url(#p8ec081e734)" style="fill: #1f77b4"/>
   </g>
   <g id="patch_17">
    <path d="M 97.704385 59965.371387 
L 99.17341 59965.371387 
L 99.17341 55.764694 
L 97.704385 55.764694 
z
" clip-path="url(#p8ec081e734)" style="fill: #1f77b4"/>
   </g>
   <g id="patch_18">
    <path d="M 108.722073 59965.371387 
L 110.191098 59965.371387 
L 110.191098 130.594574 
L 108.722073 130.594574 
z
" clip-path="url(#p8ec081e734)" style="fill: #1f77b4"/>
   </g>
   <g id="patch_19">
    <path d="M 106.885792 59965.371387 
L 108.354817 59965.371387 
L 108.354817 97.926647 
L 106.885792 97.926647 
z
" clip-path="url(#p8ec081e734)" style="fill: #1f77b4"/>
   </g>
   <g id="patch_20">
    <path d="M 101.376948 59965.371387 
L 102.845973 59965.371387 
L 102.845973 54.699155 
L 101.376948 54.699155 
z
" clip-path="url(#p8ec081e734)" style="fill: #1f77b4"/>
   </g>
   <g id="patch_21">
    <path d="M 112.394636 59965.371387 
L 113.863661 59965.371387 
L 113.863661 173.2114 
L 112.394636 173.2114 
z
" clip-path="url(#p8ec081e734)" style="fill: #1f77b4"/>
   </g>
   <g id="patch_22">
    <path d="M 99.540666 59965.371387 
L 101.009691 59965.371387 
L 101.009691 53.568 
L 99.540666 53.568 
z
" clip-path="url(#p8ec081e734)" style="fill: #1f77b4"/>
   </g>
   <g id="patch_23">
    <path d="M 105.04951 59965.371387 
L 106.518536 59965.371387 
L 106.518536 75.72639 
L 105.04951 75.72639 
z
" clip-path="url(#p8ec081e734)" style="fill: #1f77b4"/>
   </g>
   <g id="patch_24">
    <path d="M 125.248606 59965.371387 
L 126.717631 59965.371387 
L 126.717631 185.764089 
L 125.248606 185.764089 
z
" clip-path="url(#p8ec081e734)" style="fill: #1f77b4"/>
   </g>
   <g id="patch_25">
    <path d="M 110.558355 59965.371387 
L 112.02738 59965.371387 
L 112.02738 158.315705 
L 110.558355 158.315705 
z
" clip-path="url(#p8ec081e734)" style="fill: #1f77b4"/>
   </g>
   <g id="patch_26">
    <path d="M 123.412324 59965.371387 
L 124.881349 59965.371387 
L 124.881349 182.256813 
L 123.412324 182.256813 
z
" clip-path="url(#p8ec081e734)" style="fill: #1f77b4"/>
   </g>
   <g id="patch_27">
    <path d="M 116.067199 59965.371387 
L 117.536224 59965.371387 
L 117.536224 177.206107 
L 116.067199 177.206107 
z
" clip-path="url(#p8ec081e734)" style="fill: #1f77b4"/>
   </g>
   <g id="patch_28">
    <path d="M 117.90348 59965.371387 
L 119.372505 59965.371387 
L 119.372505 181.930842 
L 117.90348 181.930842 
z
" clip-path="url(#p8ec081e734)" style="fill: #1f77b4"/>
   </g>
   <g id="patch_29">
    <path d="M 114.230917 59965.371387 
L 115.699942 59965.371387 
L 115.699942 173.914998 
L 114.230917 173.914998 
z
" clip-path="url(#p8ec081e734)" style="fill: #1f77b4"/>
   </g>
   <g id="patch_30">
    <path d="M 121.576043 59965.371387 
L 123.045068 59965.371387 
L 123.045068 180.976834 
L 121.576043 180.976834 
z
" clip-path="url(#p8ec081e734)" style="fill: #1f77b4"/>
   </g>
   <g id="patch_31">
    <path d="M 141.775138 59965.371387 
L 143.244163 59965.371387 
L 143.244163 196.271434 
L 141.775138 196.271434 
z
" clip-path="url(#p8ec081e734)" style="fill: #1f77b4"/>
   </g>
   <g id="patch_32">
    <path d="M 127.084887 59965.371387 
L 128.553912 59965.371387 
L 128.553912 187.311671 
L 127.084887 187.311671 
z
" clip-path="url(#p8ec081e734)" style="fill: #1f77b4"/>
   </g>
   <g id="patch_33">
    <path d="M 132.593731 59965.371387 
L 134.062756 59965.371387 
L 134.062756 186.916026 
L 132.593731 186.916026 
z
" clip-path="url(#p8ec081e734)" style="fill: #1f77b4"/>
   </g>
   <g id="patch_34">
    <path d="M 128.921168 59965.371387 
L 130.390193 59965.371387 
L 130.390193 187.713452 
L 128.921168 187.713452 
z
" clip-path="url(#p8ec081e734)" style="fill: #1f77b4"/>
   </g>
   <g id="patch_35">
    <path d="M 134.430012 59965.371387 
L 135.899037 59965.371387 
L 135.899037 182.256813 
L 134.430012 182.256813 
z
" clip-path="url(#p8ec081e734)" style="fill: #1f77b4"/>
   </g>
   <g id="patch_36">
    <path d="M 119.739761 59965.371387 
L 121.208787 59965.371387 
L 121.208787 173.678337 
L 119.739761 173.678337 
z
" clip-path="url(#p8ec081e734)" style="fill: #1f77b4"/>
   </g>
   <g id="patch_37">
    <path d="M 149.120263 59965.371387 
L 150.589288 59965.371387 
L 150.589288 194.634197 
L 149.120263 194.634197 
z
" clip-path="url(#p8ec081e734)" style="fill: #1f77b4"/>
   </g>
   <g id="patch_38">
    <path d="M 156.465389 59965.371387 
L 157.934414 59965.371387 
L 157.934414 205.675876 
L 156.465389 205.675876 
z
" clip-path="url(#p8ec081e734)" style="fill: #1f77b4"/>
   </g>
   <g id="patch_39">
    <path d="M 130.75745 59965.371387 
L 132.226475 59965.371387 
L 132.226475 186.526329 
L 130.75745 186.526329 
z
" clip-path="url(#p8ec081e734)" style="fill: #1f77b4"/>
   </g>
   <g id="patch_40">
    <path d="M 154.629107 59965.371387 
L 156.098132 59965.371387 
L 156.098132 201.222497 
L 154.629107 201.222497 
z
" clip-path="url(#p8ec081e734)" style="fill: #1f77b4"/>
   </g>
   <g id="patch_41">
    <path d="M 160.137951 59965.371387 
L 161.606977 59965.371387 
L 161.606977 203.35364 
L 160.137951 203.35364 
z
" clip-path="url(#p8ec081e734)" style="fill: #1f77b4"/>
   </g>
   <g id="patch_42">
    <path d="M 163.810514 59965.371387 
L 165.279539 59965.371387 
L 165.279539 201.222497 
L 163.810514 201.222497 
z
" clip-path="url(#p8ec081e734)" style="fill: #1f77b4"/>
   </g>
   <g id="patch_43">
    <path d="M 147.283982 59965.371387 
L 148.753007 59965.371387 
L 148.753007 199.893267 
L 147.283982 199.893267 
z
" clip-path="url(#p8ec081e734)" style="fill: #1f77b4"/>
   </g>
   <g id="patch_44">
    <path d="M 143.611419 59965.371387 
L 145.080444 59965.371387 
L 145.080444 203.35364 
L 143.611419 203.35364 
z
" clip-path="url(#p8ec081e734)" style="fill: #1f77b4"/>
   </g>
   <g id="patch_45">
    <path d="M 139.938856 59965.371387 
L 141.407882 59965.371387 
L 141.407882 192.116266 
L 139.938856 192.116266 
z
" clip-path="url(#p8ec081e734)" style="fill: #1f77b4"/>
   </g>
   <g id="patch_46">
    <path d="M 176.664484 59965.371387 
L 178.133509 59965.371387 
L 178.133509 209.136249 
L 176.664484 209.136249 
z
" clip-path="url(#p8ec081e734)" style="fill: #1f77b4"/>
   </g>
   <g id="patch_47">
    <path d="M 171.15564 59965.371387 
L 172.624665 59965.371387 
L 172.624665 222.067256 
L 171.15564 222.067256 
z
" clip-path="url(#p8ec081e734)" style="fill: #1f77b4"/>
   </g>
   <g id="patch_48">
    <path d="M 172.991921 59965.371387 
L 174.460946 59965.371387 
L 174.460946 212.073083 
L 172.991921 212.073083 
z
" clip-path="url(#p8ec081e734)" style="fill: #1f77b4"/>
   </g>
   <g id="patch_49">
    <path d="M 207.881267 59965.371387 
L 209.350292 59965.371387 
L 209.350292 225.310772 
L 207.881267 225.310772 
z
" clip-path="url(#p8ec081e734)" style="fill: #1f77b4"/>
   </g>
   <g id="patch_50">
    <path d="M 138.102575 59965.371387 
L 139.5716 59965.371387 
L 139.5716 194.634197 
L 138.102575 194.634197 
z
" clip-path="url(#p8ec081e734)" style="fill: #1f77b4"/>
   </g>
   <g id="patch_51">
    <path d="M 200.536142 59965.371387 
L 202.005167 59965.371387 
L 202.005167 231.093381 
L 200.536142 231.093381 
z
" clip-path="url(#p8ec081e734)" style="fill: #1f77b4"/>
   </g>
   <g id="patch_52">
    <path d="M 165.646796 59965.371387 
L 167.115821 59965.371387 
L 167.115821 204.87845 
L 165.646796 204.87845 
z
" clip-path="url(#p8ec081e734)" style="fill: #1f77b4"/>
   </g>
   <g id="patch_53">
    <path d="M 161.974233 59965.371387 
L 163.443258 59965.371387 
L 163.443258 204.87845 
L 161.974233 204.87845 
z
" clip-path="url(#p8ec081e734)" style="fill: #1f77b4"/>
   </g>
   <g id="patch_54">
    <path d="M 145.447701 59965.371387 
L 146.916726 59965.371387 
L 146.916726 201.913586 
L 145.447701 201.913586 
z
" clip-path="url(#p8ec081e734)" style="fill: #1f77b4"/>
   </g>
   <g id="patch_55">
    <path d="M 185.845891 59965.371387 
L 187.314916 59965.371387 
L 187.314916 210.078691 
L 185.845891 210.078691 
z
" clip-path="url(#p8ec081e734)" style="fill: #1f77b4"/>
   </g>
   <g id="patch_56">
    <path d="M 152.792826 59965.371387 
L 154.261851 59965.371387 
L 154.261851 204.104832 
L 152.792826 204.104832 
z
" clip-path="url(#p8ec081e734)" style="fill: #1f77b4"/>
   </g>
   <g id="patch_57">
    <path d="M 158.30167 59965.371387 
L 159.770695 59965.371387 
L 159.770695 202.623611 
L 158.30167 202.623611 
z
" clip-path="url(#p8ec081e734)" style="fill: #1f77b4"/>
   </g>
   <g id="patch_58">
    <path d="M 191.354735 59965.371387 
L 192.82376 59965.371387 
L 192.82376 227.098674 
L 191.354735 227.098674 
z
" clip-path="url(#p8ec081e734)" style="fill: #1f77b4"/>
   </g>
   <g id="patch_59">
    <path d="M 184.009609 59965.371387 
L 185.478634 59965.371387 
L 185.478634 210.078691 
L 184.009609 210.078691 
z
" clip-path="url(#p8ec081e734)" style="fill: #1f77b4"/>
   </g>
   <g id="patch_60">
    <path d="M 150.956545 59965.371387 
L 152.42557 59965.371387 
L 152.42557 199.253375 
L 150.956545 199.253375 
z
" clip-path="url(#p8ec081e734)" style="fill: #1f77b4"/>
   </g>
   <g id="patch_61">
    <path d="M 180.337046 59965.371387 
L 181.806072 59965.371387 
L 181.806072 216.591329 
L 180.337046 216.591329 
z
" clip-path="url(#p8ec081e734)" style="fill: #1f77b4"/>
   </g>
   <g id="patch_62">
    <path d="M 217.062674 59965.371387 
L 218.531699 59965.371387 
L 218.531699 249.055806 
L 217.062674 249.055806 
z
" clip-path="url(#p8ec081e734)" style="fill: #1f77b4"/>
   </g>
   <g id="patch_63">
    <path d="M 198.69986 59965.371387 
L 200.168885 59965.371387 
L 200.168885 217.855692 
L 198.69986 217.855692 
z
" clip-path="url(#p8ec081e734)" style="fill: #1f77b4"/>
   </g>
   <g id="patch_64">
    <path d="M 136.266294 59965.371387 
L 137.735319 59965.371387 
L 137.735319 196.271434 
L 136.266294 196.271434 
z
" clip-path="url(#p8ec081e734)" style="fill: #1f77b4"/>
   </g>
   <g id="patch_65">
    <path d="M 189.518453 59965.371387 
L 190.987478 59965.371387 
L 190.987478 229.01913 
L 189.518453 229.01913 
z
" clip-path="url(#p8ec081e734)" style="fill: #1f77b4"/>
   </g>
   <g id="patch_66">
    <path d="M 187.682172 59965.371387 
L 189.151197 59965.371387 
L 189.151197 223.638301 
L 187.682172 223.638301 
z
" clip-path="url(#p8ec081e734)" style="fill: #1f77b4"/>
   </g>
   <g id="patch_67">
    <path d="M 169.319358 59965.371387 
L 170.788383 59965.371387 
L 170.788383 213.130956 
L 169.319358 213.130956 
z
" clip-path="url(#p8ec081e734)" style="fill: #1f77b4"/>
   </g>
   <g id="patch_68">
    <path d="M 202.372423 59965.371387 
L 203.841448 59965.371387 
L 203.841448 225.310772 
L 202.372423 225.310772 
z
" clip-path="url(#p8ec081e734)" style="fill: #1f77b4"/>
   </g>
   <g id="patch_69">
    <path d="M 167.483077 59965.371387 
L 168.952102 59965.371387 
L 168.952102 207.348347 
L 167.483077 207.348347 
z
" clip-path="url(#p8ec081e734)" style="fill: #1f77b4"/>
   </g>
   <g id="patch_70">
    <path d="M 174.828202 59965.371387 
L 176.297227 59965.371387 
L 176.297227 213.130956 
L 174.828202 213.130956 
z
" clip-path="url(#p8ec081e734)" style="fill: #1f77b4"/>
   </g>
   <g id="patch_71">
    <path d="M 195.027297 59965.371387 
L 196.496323 59965.371387 
L 196.496323 223.638301 
L 195.027297 223.638301 
z
" clip-path="url(#p8ec081e734)" style="fill: #1f77b4"/>
   </g>
   <g id="patch_72">
    <path d="M 178.500765 59965.371387 
L 179.96979 59965.371387 
L 179.96979 210.078691 
L 178.500765 210.078691 
z
" clip-path="url(#p8ec081e734)" style="fill: #1f77b4"/>
   </g>
   <g id="patch_73">
    <path d="M 231.752925 59965.371387 
L 233.22195 59965.371387 
L 233.22195 249.055806 
L 231.752925 249.055806 
z
" clip-path="url(#p8ec081e734)" style="fill: #1f77b4"/>
   </g>
   <g id="patch_74">
    <path d="M 193.191016 59965.371387 
L 194.660041 59965.371387 
L 194.660041 209.136249 
L 193.191016 209.136249 
z
" clip-path="url(#p8ec081e734)" style="fill: #1f77b4"/>
   </g>
   <g id="patch_75">
    <path d="M 235.425487 59965.371387 
L 236.894513 59965.371387 
L 236.894513 245.061099 
L 235.425487 245.061099 
z
" clip-path="url(#p8ec081e734)" style="fill: #1f77b4"/>
   </g>
   <g id="patch_76">
    <path d="M 226.244081 59965.371387 
L 227.713106 59965.371387 
L 227.713106 225.310772 
L 226.244081 225.310772 
z
" clip-path="url(#p8ec081e734)" style="fill: #1f77b4"/>
   </g>
   <g id="patch_77">
    <path d="M 204.208704 59965.371387 
L 205.677729 59965.371387 
L 205.677729 238.548461 
L 204.208704 238.548461 
z
" clip-path="url(#p8ec081e734)" style="fill: #1f77b4"/>
   </g>
   <g id="patch_78">
    <path d="M 182.173328 59965.371387 
L 183.642353 59965.371387 
L 183.642353 220.586036 
L 182.173328 220.586036 
z
" clip-path="url(#p8ec081e734)" style="fill: #1f77b4"/>
   </g>
   <g id="patch_79">
    <path d="M 218.898955 59965.371387 
L 220.36798 59965.371387 
L 220.36798 241.600726 
L 218.898955 241.600726 
z
" clip-path="url(#p8ec081e734)" style="fill: #1f77b4"/>
   </g>
   <g id="patch_80">
    <path d="M 213.390111 59965.371387 
L 214.859136 59965.371387 
L 214.859136 231.093381 
L 213.390111 231.093381 
z
" clip-path="url(#p8ec081e734)" style="fill: #1f77b4"/>
   </g>
   <g id="patch_81">
    <path d="M 264.805989 59965.371387 
L 266.275014 59965.371387 
L 266.275014 253.780541 
L 264.805989 253.780541 
z
" clip-path="url(#p8ec081e734)" style="fill: #1f77b4"/>
   </g>
   <g id="patch_82">
    <path d="M 237.261769 59965.371387 
L 238.730794 59965.371387 
L 238.730794 249.055806 
L 237.261769 249.055806 
z
" clip-path="url(#p8ec081e734)" style="fill: #1f77b4"/>
   </g>
   <g id="patch_83">
    <path d="M 196.863579 59965.371387 
L 198.332604 59965.371387 
L 198.332604 233.34822 
L 196.863579 233.34822 
z
" clip-path="url(#p8ec081e734)" style="fill: #1f77b4"/>
   </g>
   <g id="patch_84">
    <path d="M 242.770613 59965.371387 
L 244.239638 59965.371387 
L 244.239638 249.055806 
L 242.770613 249.055806 
z
" clip-path="url(#p8ec081e734)" style="fill: #1f77b4"/>
   </g>
   <g id="patch_85">
    <path d="M 206.044986 59965.371387 
L 207.514011 59965.371387 
L 207.514011 225.310772 
L 206.044986 225.310772 
z
" clip-path="url(#p8ec081e734)" style="fill: #1f77b4"/>
   </g>
   <g id="patch_86">
    <path d="M 268.478552 59965.371387 
L 269.947577 59965.371387 
L 269.947577 253.780541 
L 268.478552 253.780541 
z
" clip-path="url(#p8ec081e734)" style="fill: #1f77b4"/>
   </g>
   <g id="patch_87">
    <path d="M 283.168803 59965.371387 
L 284.637828 59965.371387 
L 284.637828 295.488 
L 283.168803 295.488 
z
" clip-path="url(#p8ec081e734)" style="fill: #1f77b4"/>
   </g>
   <g id="patch_88">
    <path d="M 209.717548 59965.371387 
L 211.186573 59965.371387 
L 211.186573 231.093381 
L 209.717548 231.093381 
z
" clip-path="url(#p8ec081e734)" style="fill: #1f77b4"/>
   </g>
   <g id="patch_89">
    <path d="M 211.55383 59965.371387 
L 213.022855 59965.371387 
L 213.022855 231.093381 
L 211.55383 231.093381 
z
" clip-path="url(#p8ec081e734)" style="fill: #1f77b4"/>
   </g>
   <g id="patch_90">
    <path d="M 255.624582 59965.371387 
L 257.093608 59965.371387 
L 257.093608 245.061099 
L 255.624582 245.061099 
z
" clip-path="url(#p8ec081e734)" style="fill: #1f77b4"/>
   </g>
   <g id="patch_91">
    <path d="M 250.115738 59965.371387 
L 251.584763 59965.371387 
L 251.584763 267.01823 
L 250.115738 267.01823 
z
" clip-path="url(#p8ec081e734)" style="fill: #1f77b4"/>
   </g>
   <g id="patch_92">
    <path d="M 215.226392 59965.371387 
L 216.695418 59965.371387 
L 216.695418 253.780541 
L 215.226392 253.780541 
z
" clip-path="url(#p8ec081e734)" style="fill: #1f77b4"/>
   </g>
   <g id="patch_93">
    <path d="M 277.659959 59965.371387 
L 279.128984 59965.371387 
L 279.128984 295.488 
L 277.659959 295.488 
z
" clip-path="url(#p8ec081e734)" style="fill: #1f77b4"/>
   </g>
   <g id="patch_94">
    <path d="M 233.589206 59965.371387 
L 235.058231 59965.371387 
L 235.058231 267.01823 
L 233.589206 267.01823 
z
" clip-path="url(#p8ec081e734)" style="fill: #1f77b4"/>
   </g>
   <g id="patch_95">
    <path d="M 224.407799 59965.371387 
L 225.876824 59965.371387 
L 225.876824 249.055806 
L 224.407799 249.055806 
z
" clip-path="url(#p8ec081e734)" style="fill: #1f77b4"/>
   </g>
   <g id="patch_96">
    <path d="M 251.95202 59965.371387 
L 253.421045 59965.371387 
L 253.421045 253.780541 
L 251.95202 253.780541 
z
" clip-path="url(#p8ec081e734)" style="fill: #1f77b4"/>
   </g>
   <g id="patch_97">
    <path d="M 239.09805 59965.371387 
L 240.567075 59965.371387 
L 240.567075 253.780541 
L 239.09805 253.780541 
z
" clip-path="url(#p8ec081e734)" style="fill: #1f77b4"/>
   </g>
   <g id="patch_98">
    <path d="M 299.695335 59965.371387 
L 301.16436 59965.371387 
L 301.16436 295.488 
L 299.695335 295.488 
z
" clip-path="url(#p8ec081e734)" style="fill: #1f77b4"/>
   </g>
   <g id="patch_99">
    <path d="M 220.735237 59965.371387 
L 222.204262 59965.371387 
L 222.204262 249.055806 
L 220.735237 249.055806 
z
" clip-path="url(#p8ec081e734)" style="fill: #1f77b4"/>
   </g>
   <g id="patch_100">
    <path d="M 229.916643 59965.371387 
L 231.385668 59965.371387 
L 231.385668 235.818117 
L 229.916643 235.818117 
z
" clip-path="url(#p8ec081e734)" style="fill: #1f77b4"/>
   </g>
   <g id="patch_101">
    <path d="M 305.204179 59965.371387 
L 306.673204 59965.371387 
L 306.673204 295.488 
L 305.204179 295.488 
z
" clip-path="url(#p8ec081e734)" style="fill: #1f77b4"/>
   </g>
   <g id="patch_102">
    <path d="M 259.297145 59965.371387 
L 260.76617 59965.371387 
L 260.76617 277.525575 
L 259.297145 277.525575 
z
" clip-path="url(#p8ec081e734)" style="fill: #1f77b4"/>
   </g>
   <g id="patch_103">
    <path d="M 222.571518 59965.371387 
L 224.040543 59965.371387 
L 224.040543 249.055806 
L 222.571518 249.055806 
z
" clip-path="url(#p8ec081e734)" style="fill: #1f77b4"/>
   </g>
   <g id="patch_104">
    <path d="M 240.934332 59965.371387 
L 242.403357 59965.371387 
L 242.403357 253.780541 
L 240.934332 253.780541 
z
" clip-path="url(#p8ec081e734)" style="fill: #1f77b4"/>
   </g>
   <g id="patch_105">
    <path d="M 262.969708 59965.371387 
L 264.438733 59965.371387 
L 264.438733 277.525575 
L 262.969708 277.525575 
z
" clip-path="url(#p8ec081e734)" style="fill: #1f77b4"/>
   </g>
   <g id="patch_106">
    <path d="M 261.133427 59965.371387 
L 262.602452 59965.371387 
L 262.602452 259.563151 
L 261.133427 259.563151 
z
" clip-path="url(#p8ec081e734)" style="fill: #1f77b4"/>
   </g>
   <g id="patch_107">
    <path d="M 266.642271 59965.371387 
L 268.111296 59965.371387 
L 268.111296 295.488 
L 266.642271 295.488 
z
" clip-path="url(#p8ec081e734)" style="fill: #1f77b4"/>
   </g>
   <g id="patch_108">
    <path d="M 296.022773 59965.371387 
L 297.491798 59965.371387 
L 297.491798 295.488 
L 296.022773 295.488 
z
" clip-path="url(#p8ec081e734)" style="fill: #1f77b4"/>
   </g>
   <g id="patch_109">
    <path d="M 246.443176 59965.371387 
L 247.912201 59965.371387 
L 247.912201 277.525575 
L 246.443176 277.525575 
z
" clip-path="url(#p8ec081e734)" style="fill: #1f77b4"/>
   </g>
   <g id="patch_110">
    <path d="M 253.788301 59965.371387 
L 255.257326 59965.371387 
L 255.257326 267.01823 
L 253.788301 267.01823 
z
" clip-path="url(#p8ec081e734)" style="fill: #1f77b4"/>
   </g>
   <g id="patch_111">
    <path d="M 362.128902 59965.371387 
L 363.597927 59965.371387 
L 363.597927 295.488 
L 362.128902 295.488 
z
" clip-path="url(#p8ec081e734)" style="fill: #1f77b4"/>
   </g>
   <g id="patch_112">
    <path d="M 321.730712 59965.371387 
L 323.199737 59965.371387 
L 323.199737 295.488 
L 321.730712 295.488 
z
" clip-path="url(#p8ec081e734)" style="fill: #1f77b4"/>
   </g>
   <g id="patch_113">
    <path d="M 228.080362 59965.371387 
L 229.549387 59965.371387 
L 229.549387 267.01823 
L 228.080362 267.01823 
z
" clip-path="url(#p8ec081e734)" style="fill: #1f77b4"/>
   </g>
   <g id="patch_114">
    <path d="M 248.279457 59965.371387 
L 249.748482 59965.371387 
L 249.748482 277.525575 
L 248.279457 277.525575 
z
" clip-path="url(#p8ec081e734)" style="fill: #1f77b4"/>
   </g>
   <g id="patch_115">
    <path d="M 288.677647 59965.371387 
L 290.146672 59965.371387 
L 290.146672 277.525575 
L 288.677647 277.525575 
z
" clip-path="url(#p8ec081e734)" style="fill: #1f77b4"/>
   </g>
   <g id="patch_116">
    <path d="M 312.549305 59965.371387 
L 314.01833 59965.371387 
L 314.01833 277.525575 
L 312.549305 277.525575 
z
" clip-path="url(#p8ec081e734)" style="fill: #1f77b4"/>
   </g>
   <g id="patch_117">
    <path d="M 325.403274 59965.371387 
L 326.872299 59965.371387 
L 326.872299 295.488 
L 325.403274 295.488 
z
" clip-path="url(#p8ec081e734)" style="fill: #1f77b4"/>
   </g>
   <g id="patch_118">
    <path d="M 244.606894 59965.371387 
L 246.075919 59965.371387 
L 246.075919 267.01823 
L 244.606894 267.01823 
z
" clip-path="url(#p8ec081e734)" style="fill: #1f77b4"/>
   </g>
   <g id="patch_119">
    <path d="M 330.912118 59965.371387 
L 332.381144 59965.371387 
L 332.381144 295.488 
L 330.912118 295.488 
z
" clip-path="url(#p8ec081e734)" style="fill: #1f77b4"/>
   </g>
   <g id="patch_120">
    <path d="M 285.005084 59965.371387 
L 286.474109 59965.371387 
L 286.474109 277.525575 
L 285.005084 277.525575 
z
" clip-path="url(#p8ec081e734)" style="fill: #1f77b4"/>
   </g>
   <g id="patch_121">
    <path d="M 310.713023 59965.371387 
L 312.182049 59965.371387 
L 312.182049 295.488 
L 310.713023 295.488 
z
" clip-path="url(#p8ec081e734)" style="fill: #1f77b4"/>
   </g>
   <g id="patch_122">
    <path d="M 318.058149 59965.371387 
L 319.527174 59965.371387 
L 319.527174 295.488 
L 318.058149 295.488 
z
" clip-path="url(#p8ec081e734)" style="fill: #1f77b4"/>
   </g>
   <g id="patch_123">
    <path d="M 281.332522 59965.371387 
L 282.801547 59965.371387 
L 282.801547 295.488 
L 281.332522 295.488 
z
" clip-path="url(#p8ec081e734)" style="fill: #1f77b4"/>
   </g>
   <g id="patch_124">
    <path d="M 286.841366 59965.371387 
L 288.310391 59965.371387 
L 288.310391 295.488 
L 286.841366 295.488 
z
" clip-path="url(#p8ec081e734)" style="fill: #1f77b4"/>
   </g>
   <g id="patch_125">
    <path d="M 290.513928 59965.371387 
L 291.982954 59965.371387 
L 291.982954 295.488 
L 290.513928 295.488 
z
" clip-path="url(#p8ec081e734)" style="fill: #1f77b4"/>
   </g>
   <g id="patch_126">
    <path d="M 397.018248 59965.371387 
L 398.487273 59965.371387 
L 398.487273 295.488 
L 397.018248 295.488 
z
" clip-path="url(#p8ec081e734)" style="fill: #1f77b4"/>
   </g>
   <g id="patch_127">
    <path d="M 257.460864 59965.371387 
L 258.929889 59965.371387 
L 258.929889 277.525575 
L 257.460864 277.525575 
z
" clip-path="url(#p8ec081e734)" style="fill: #1f77b4"/>
   </g>
   <g id="patch_128">
    <path d="M 292.35021 59965.371387 
L 293.819235 59965.371387 
L 293.819235 295.488 
L 292.35021 295.488 
z
" clip-path="url(#p8ec081e734)" style="fill: #1f77b4"/>
   </g>
   <g id="patch_129">
    <path d="M 307.040461 59965.371387 
L 308.509486 59965.371387 
L 308.509486 295.488 
L 307.040461 295.488 
z
" clip-path="url(#p8ec081e734)" style="fill: #1f77b4"/>
   </g>
   <g id="patch_130">
    <path d="M 352.947495 59965.371387 
L 354.41652 59965.371387 
L 354.41652 295.488 
L 352.947495 295.488 
z
" clip-path="url(#p8ec081e734)" style="fill: #1f77b4"/>
   </g>
   <g id="matplotlib.axis_1">
    <g id="xtick_1">
     <g id="line2d_1">
      <defs>
       <path id="m558e501dd2" d="M 0 0 
L 0 3.5 
" style="stroke: #000000; stroke-width: 0.8"/>
      </defs>
      <g>
       <use xlink:href="#m558e501dd2" x="74.56724" y="307.584" style="stroke: #000000; stroke-width: 0.8"/>
      </g>
     </g>
     <g id="text_1">
      <!-- 0 -->
      <g transform="translate(71.38599 322.182437) scale(0.1 -0.1)">
       <defs>
        <path id="DejaVuSans-30" d="M 2034 4250 
Q 1547 4250 1301 3770 
Q 1056 3291 1056 2328 
Q 1056 1369 1301 889 
Q 1547 409 2034 409 
Q 2525 409 2770 889 
Q 3016 1369 3016 2328 
Q 3016 3291 2770 3770 
Q 2525 4250 2034 4250 
z
M 2034 4750 
Q 2819 4750 3233 4129 
Q 3647 3509 3647 2328 
Q 3647 1150 3233 529 
Q 2819 -91 2034 -91 
Q 1250 -91 836 529 
Q 422 1150 422 2328 
Q 422 3509 836 4129 
Q 1250 4750 2034 4750 
z
" transform="scale(0.015625)"/>
       </defs>
       <use xlink:href="#DejaVuSans-30"/>
      </g>
     </g>
    </g>
    <g id="xtick_2">
     <g id="line2d_2">
      <g>
       <use xlink:href="#m558e501dd2" x="120.474274" y="307.584" style="stroke: #000000; stroke-width: 0.8"/>
      </g>
     </g>
     <g id="text_2">
      <!-- 25 -->
      <g transform="translate(114.111774 322.182437) scale(0.1 -0.1)">
       <defs>
        <path id="DejaVuSans-32" d="M 1228 531 
L 3431 531 
L 3431 0 
L 469 0 
L 469 531 
Q 828 903 1448 1529 
Q 2069 2156 2228 2338 
Q 2531 2678 2651 2914 
Q 2772 3150 2772 3378 
Q 2772 3750 2511 3984 
Q 2250 4219 1831 4219 
Q 1534 4219 1204 4116 
Q 875 4013 500 3803 
L 500 4441 
Q 881 4594 1212 4672 
Q 1544 4750 1819 4750 
Q 2544 4750 2975 4387 
Q 3406 4025 3406 3419 
Q 3406 3131 3298 2873 
Q 3191 2616 2906 2266 
Q 2828 2175 2409 1742 
Q 1991 1309 1228 531 
z
" transform="scale(0.015625)"/>
        <path id="DejaVuSans-35" d="M 691 4666 
L 3169 4666 
L 3169 4134 
L 1269 4134 
L 1269 2991 
Q 1406 3038 1543 3061 
Q 1681 3084 1819 3084 
Q 2600 3084 3056 2656 
Q 3513 2228 3513 1497 
Q 3513 744 3044 326 
Q 2575 -91 1722 -91 
Q 1428 -91 1123 -41 
Q 819 9 494 109 
L 494 744 
Q 775 591 1075 516 
Q 1375 441 1709 441 
Q 2250 441 2565 725 
Q 2881 1009 2881 1497 
Q 2881 1984 2565 2268 
Q 2250 2553 1709 2553 
Q 1456 2553 1204 2497 
Q 953 2441 691 2322 
L 691 4666 
z
" transform="scale(0.015625)"/>
       </defs>
       <use xlink:href="#DejaVuSans-32"/>
       <use xlink:href="#DejaVuSans-35" x="63.623047"/>
      </g>
     </g>
    </g>
    <g id="xtick_3">
     <g id="line2d_3">
      <g>
       <use xlink:href="#m558e501dd2" x="166.381308" y="307.584" style="stroke: #000000; stroke-width: 0.8"/>
      </g>
     </g>
     <g id="text_3">
      <!-- 50 -->
      <g transform="translate(160.018808 322.182437) scale(0.1 -0.1)">
       <use xlink:href="#DejaVuSans-35"/>
       <use xlink:href="#DejaVuSans-30" x="63.623047"/>
      </g>
     </g>
    </g>
    <g id="xtick_4">
     <g id="line2d_4">
      <g>
       <use xlink:href="#m558e501dd2" x="212.288342" y="307.584" style="stroke: #000000; stroke-width: 0.8"/>
      </g>
     </g>
     <g id="text_4">
      <!-- 75 -->
      <g transform="translate(205.925842 322.182437) scale(0.1 -0.1)">
       <defs>
        <path id="DejaVuSans-37" d="M 525 4666 
L 3525 4666 
L 3525 4397 
L 1831 0 
L 1172 0 
L 2766 4134 
L 525 4134 
L 525 4666 
z
" transform="scale(0.015625)"/>
       </defs>
       <use xlink:href="#DejaVuSans-37"/>
       <use xlink:href="#DejaVuSans-35" x="63.623047"/>
      </g>
     </g>
    </g>
    <g id="xtick_5">
     <g id="line2d_5">
      <g>
       <use xlink:href="#m558e501dd2" x="258.195376" y="307.584" style="stroke: #000000; stroke-width: 0.8"/>
      </g>
     </g>
     <g id="text_5">
      <!-- 100 -->
      <g transform="translate(248.651626 322.182437) scale(0.1 -0.1)">
       <defs>
        <path id="DejaVuSans-31" d="M 794 531 
L 1825 531 
L 1825 4091 
L 703 3866 
L 703 4441 
L 1819 4666 
L 2450 4666 
L 2450 531 
L 3481 531 
L 3481 0 
L 794 0 
L 794 531 
z
" transform="scale(0.015625)"/>
       </defs>
       <use xlink:href="#DejaVuSans-31"/>
       <use xlink:href="#DejaVuSans-30" x="63.623047"/>
       <use xlink:href="#DejaVuSans-30" x="127.246094"/>
      </g>
     </g>
    </g>
    <g id="xtick_6">
     <g id="line2d_6">
      <g>
       <use xlink:href="#m558e501dd2" x="304.102411" y="307.584" style="stroke: #000000; stroke-width: 0.8"/>
      </g>
     </g>
     <g id="text_6">
      <!-- 125 -->
      <g transform="translate(294.558661 322.182437) scale(0.1 -0.1)">
       <use xlink:href="#DejaVuSans-31"/>
       <use xlink:href="#DejaVuSans-32" x="63.623047"/>
       <use xlink:href="#DejaVuSans-35" x="127.246094"/>
      </g>
     </g>
    </g>
    <g id="xtick_7">
     <g id="line2d_7">
      <g>
       <use xlink:href="#m558e501dd2" x="350.009445" y="307.584" style="stroke: #000000; stroke-width: 0.8"/>
      </g>
     </g>
     <g id="text_7">
      <!-- 150 -->
      <g transform="translate(340.465695 322.182437) scale(0.1 -0.1)">
       <use xlink:href="#DejaVuSans-31"/>
       <use xlink:href="#DejaVuSans-35" x="63.623047"/>
       <use xlink:href="#DejaVuSans-30" x="127.246094"/>
      </g>
     </g>
    </g>
    <g id="xtick_8">
     <g id="line2d_8">
      <g>
       <use xlink:href="#m558e501dd2" x="395.916479" y="307.584" style="stroke: #000000; stroke-width: 0.8"/>
      </g>
     </g>
     <g id="text_8">
      <!-- 175 -->
      <g transform="translate(386.372729 322.182437) scale(0.1 -0.1)">
       <use xlink:href="#DejaVuSans-31"/>
       <use xlink:href="#DejaVuSans-37" x="63.623047"/>
       <use xlink:href="#DejaVuSans-35" x="127.246094"/>
      </g>
     </g>
    </g>
    <g id="text_9">
     <!-- Depth of Element -->
     <g transform="translate(192.231875 335.860562) scale(0.1 -0.1)">
      <defs>
       <path id="DejaVuSans-44" d="M 1259 4147 
L 1259 519 
L 2022 519 
Q 2988 519 3436 956 
Q 3884 1394 3884 2338 
Q 3884 3275 3436 3711 
Q 2988 4147 2022 4147 
L 1259 4147 
z
M 628 4666 
L 1925 4666 
Q 3281 4666 3915 4102 
Q 4550 3538 4550 2338 
Q 4550 1131 3912 565 
Q 3275 0 1925 0 
L 628 0 
L 628 4666 
z
" transform="scale(0.015625)"/>
       <path id="DejaVuSans-65" d="M 3597 1894 
L 3597 1613 
L 953 1613 
Q 991 1019 1311 708 
Q 1631 397 2203 397 
Q 2534 397 2845 478 
Q 3156 559 3463 722 
L 3463 178 
Q 3153 47 2828 -22 
Q 2503 -91 2169 -91 
Q 1331 -91 842 396 
Q 353 884 353 1716 
Q 353 2575 817 3079 
Q 1281 3584 2069 3584 
Q 2775 3584 3186 3129 
Q 3597 2675 3597 1894 
z
M 3022 2063 
Q 3016 2534 2758 2815 
Q 2500 3097 2075 3097 
Q 1594 3097 1305 2825 
Q 1016 2553 972 2059 
L 3022 2063 
z
" transform="scale(0.015625)"/>
       <path id="DejaVuSans-70" d="M 1159 525 
L 1159 -1331 
L 581 -1331 
L 581 3500 
L 1159 3500 
L 1159 2969 
Q 1341 3281 1617 3432 
Q 1894 3584 2278 3584 
Q 2916 3584 3314 3078 
Q 3713 2572 3713 1747 
Q 3713 922 3314 415 
Q 2916 -91 2278 -91 
Q 1894 -91 1617 61 
Q 1341 213 1159 525 
z
M 3116 1747 
Q 3116 2381 2855 2742 
Q 2594 3103 2138 3103 
Q 1681 3103 1420 2742 
Q 1159 2381 1159 1747 
Q 1159 1113 1420 752 
Q 1681 391 2138 391 
Q 2594 391 2855 752 
Q 3116 1113 3116 1747 
z
" transform="scale(0.015625)"/>
       <path id="DejaVuSans-74" d="M 1172 4494 
L 1172 3500 
L 2356 3500 
L 2356 3053 
L 1172 3053 
L 1172 1153 
Q 1172 725 1289 603 
Q 1406 481 1766 481 
L 2356 481 
L 2356 0 
L 1766 0 
Q 1100 0 847 248 
Q 594 497 594 1153 
L 594 3053 
L 172 3053 
L 172 3500 
L 594 3500 
L 594 4494 
L 1172 4494 
z
" transform="scale(0.015625)"/>
       <path id="DejaVuSans-68" d="M 3513 2113 
L 3513 0 
L 2938 0 
L 2938 2094 
Q 2938 2591 2744 2837 
Q 2550 3084 2163 3084 
Q 1697 3084 1428 2787 
Q 1159 2491 1159 1978 
L 1159 0 
L 581 0 
L 581 4863 
L 1159 4863 
L 1159 2956 
Q 1366 3272 1645 3428 
Q 1925 3584 2291 3584 
Q 2894 3584 3203 3211 
Q 3513 2838 3513 2113 
z
" transform="scale(0.015625)"/>
       <path id="DejaVuSans-20" transform="scale(0.015625)"/>
       <path id="DejaVuSans-6f" d="M 1959 3097 
Q 1497 3097 1228 2736 
Q 959 2375 959 1747 
Q 959 1119 1226 758 
Q 1494 397 1959 397 
Q 2419 397 2687 759 
Q 2956 1122 2956 1747 
Q 2956 2369 2687 2733 
Q 2419 3097 1959 3097 
z
M 1959 3584 
Q 2709 3584 3137 3096 
Q 3566 2609 3566 1747 
Q 3566 888 3137 398 
Q 2709 -91 1959 -91 
Q 1206 -91 779 398 
Q 353 888 353 1747 
Q 353 2609 779 3096 
Q 1206 3584 1959 3584 
z
" transform="scale(0.015625)"/>
       <path id="DejaVuSans-66" d="M 2375 4863 
L 2375 4384 
L 1825 4384 
Q 1516 4384 1395 4259 
Q 1275 4134 1275 3809 
L 1275 3500 
L 2222 3500 
L 2222 3053 
L 1275 3053 
L 1275 0 
L 697 0 
L 697 3053 
L 147 3053 
L 147 3500 
L 697 3500 
L 697 3744 
Q 697 4328 969 4595 
Q 1241 4863 1831 4863 
L 2375 4863 
z
" transform="scale(0.015625)"/>
       <path id="DejaVuSans-45" d="M 628 4666 
L 3578 4666 
L 3578 4134 
L 1259 4134 
L 1259 2753 
L 3481 2753 
L 3481 2222 
L 1259 2222 
L 1259 531 
L 3634 531 
L 3634 0 
L 628 0 
L 628 4666 
z
" transform="scale(0.015625)"/>
       <path id="DejaVuSans-6c" d="M 603 4863 
L 1178 4863 
L 1178 0 
L 603 0 
L 603 4863 
z
" transform="scale(0.015625)"/>
       <path id="DejaVuSans-6d" d="M 3328 2828 
Q 3544 3216 3844 3400 
Q 4144 3584 4550 3584 
Q 5097 3584 5394 3201 
Q 5691 2819 5691 2113 
L 5691 0 
L 5113 0 
L 5113 2094 
Q 5113 2597 4934 2840 
Q 4756 3084 4391 3084 
Q 3944 3084 3684 2787 
Q 3425 2491 3425 1978 
L 3425 0 
L 2847 0 
L 2847 2094 
Q 2847 2600 2669 2842 
Q 2491 3084 2119 3084 
Q 1678 3084 1418 2786 
Q 1159 2488 1159 1978 
L 1159 0 
L 581 0 
L 581 3500 
L 1159 3500 
L 1159 2956 
Q 1356 3278 1631 3431 
Q 1906 3584 2284 3584 
Q 2666 3584 2933 3390 
Q 3200 3197 3328 2828 
z
" transform="scale(0.015625)"/>
       <path id="DejaVuSans-6e" d="M 3513 2113 
L 3513 0 
L 2938 0 
L 2938 2094 
Q 2938 2591 2744 2837 
Q 2550 3084 2163 3084 
Q 1697 3084 1428 2787 
Q 1159 2491 1159 1978 
L 1159 0 
L 581 0 
L 581 3500 
L 1159 3500 
L 1159 2956 
Q 1366 3272 1645 3428 
Q 1925 3584 2291 3584 
Q 2894 3584 3203 3211 
Q 3513 2838 3513 2113 
z
" transform="scale(0.015625)"/>
      </defs>
      <use xlink:href="#DejaVuSans-44"/>
      <use xlink:href="#DejaVuSans-65" x="77.001953"/>
      <use xlink:href="#DejaVuSans-70" x="138.525391"/>
      <use xlink:href="#DejaVuSans-74" x="202.001953"/>
      <use xlink:href="#DejaVuSans-68" x="241.210938"/>
      <use xlink:href="#DejaVuSans-20" x="304.589844"/>
      <use xlink:href="#DejaVuSans-6f" x="336.376953"/>
      <use xlink:href="#DejaVuSans-66" x="397.558594"/>
      <use xlink:href="#DejaVuSans-20" x="432.763672"/>
      <use xlink:href="#DejaVuSans-45" x="464.550781"/>
      <use xlink:href="#DejaVuSans-6c" x="527.734375"/>
      <use xlink:href="#DejaVuSans-65" x="555.517578"/>
      <use xlink:href="#DejaVuSans-6d" x="617.041016"/>
      <use xlink:href="#DejaVuSans-65" x="714.453125"/>
      <use xlink:href="#DejaVuSans-6e" x="775.976562"/>
      <use xlink:href="#DejaVuSans-74" x="839.355469"/>
     </g>
    </g>
   </g>
   <g id="matplotlib.axis_2">
    <g id="ytick_1">
     <g id="line2d_9">
      <defs>
       <path id="m22ac4699f8" d="M 0 0 
L -3.5 0 
" style="stroke: #000000; stroke-width: 0.8"/>
      </defs>
      <g>
       <use xlink:href="#m22ac4699f8" x="57.6" y="295.488" style="stroke: #000000; stroke-width: 0.8"/>
      </g>
     </g>
     <g id="text_10">
      <!-- $\mathdefault{10^{0}}$ -->
      <g transform="translate(33 299.287219) scale(0.1 -0.1)">
       <use xlink:href="#DejaVuSans-31" transform="translate(0 0.765625)"/>
       <use xlink:href="#DejaVuSans-30" transform="translate(63.623047 0.765625)"/>
       <use xlink:href="#DejaVuSans-30" transform="translate(128.203125 39.046875) scale(0.7)"/>
      </g>
     </g>
    </g>
    <g id="ytick_2">
     <g id="line2d_10">
      <g>
       <use xlink:href="#m22ac4699f8" x="57.6" y="235.818117" style="stroke: #000000; stroke-width: 0.8"/>
      </g>
     </g>
     <g id="text_11">
      <!-- $\mathdefault{10^{1}}$ -->
      <g transform="translate(33 239.617335) scale(0.1 -0.1)">
       <use xlink:href="#DejaVuSans-31" transform="translate(0 0.684375)"/>
       <use xlink:href="#DejaVuSans-30" transform="translate(63.623047 0.684375)"/>
       <use xlink:href="#DejaVuSans-31" transform="translate(128.203125 38.965625) scale(0.7)"/>
      </g>
     </g>
    </g>
    <g id="ytick_3">
     <g id="line2d_11">
      <g>
       <use xlink:href="#m22ac4699f8" x="57.6" y="176.148233" style="stroke: #000000; stroke-width: 0.8"/>
      </g>
     </g>
     <g id="text_12">
      <!-- $\mathdefault{10^{2}}$ -->
      <g transform="translate(33 179.947452) scale(0.1 -0.1)">
       <use xlink:href="#DejaVuSans-31" transform="translate(0 0.765625)"/>
       <use xlink:href="#DejaVuSans-30" transform="translate(63.623047 0.765625)"/>
       <use xlink:href="#DejaVuSans-32" transform="translate(128.203125 39.046875) scale(0.7)"/>
      </g>
     </g>
    </g>
    <g id="ytick_4">
     <g id="line2d_12">
      <g>
       <use xlink:href="#m22ac4699f8" x="57.6" y="116.47835" style="stroke: #000000; stroke-width: 0.8"/>
      </g>
     </g>
     <g id="text_13">
      <!-- $\mathdefault{10^{3}}$ -->
      <g transform="translate(33 120.277569) scale(0.1 -0.1)">
       <defs>
        <path id="DejaVuSans-33" d="M 2597 2516 
Q 3050 2419 3304 2112 
Q 3559 1806 3559 1356 
Q 3559 666 3084 287 
Q 2609 -91 1734 -91 
Q 1441 -91 1130 -33 
Q 819 25 488 141 
L 488 750 
Q 750 597 1062 519 
Q 1375 441 1716 441 
Q 2309 441 2620 675 
Q 2931 909 2931 1356 
Q 2931 1769 2642 2001 
Q 2353 2234 1838 2234 
L 1294 2234 
L 1294 2753 
L 1863 2753 
Q 2328 2753 2575 2939 
Q 2822 3125 2822 3475 
Q 2822 3834 2567 4026 
Q 2313 4219 1838 4219 
Q 1578 4219 1281 4162 
Q 984 4106 628 3988 
L 628 4550 
Q 988 4650 1302 4700 
Q 1616 4750 1894 4750 
Q 2613 4750 3031 4423 
Q 3450 4097 3450 3541 
Q 3450 3153 3228 2886 
Q 3006 2619 2597 2516 
z
" transform="scale(0.015625)"/>
       </defs>
       <use xlink:href="#DejaVuSans-31" transform="translate(0 0.765625)"/>
       <use xlink:href="#DejaVuSans-30" transform="translate(63.623047 0.765625)"/>
       <use xlink:href="#DejaVuSans-33" transform="translate(128.203125 39.046875) scale(0.7)"/>
      </g>
     </g>
    </g>
    <g id="ytick_5">
     <g id="line2d_13">
      <g>
       <use xlink:href="#m22ac4699f8" x="57.6" y="56.808466" style="stroke: #000000; stroke-width: 0.8"/>
      </g>
     </g>
     <g id="text_14">
      <!-- $\mathdefault{10^{4}}$ -->
      <g transform="translate(33 60.607685) scale(0.1 -0.1)">
       <defs>
        <path id="DejaVuSans-34" d="M 2419 4116 
L 825 1625 
L 2419 1625 
L 2419 4116 
z
M 2253 4666 
L 3047 4666 
L 3047 1625 
L 3713 1625 
L 3713 1100 
L 3047 1100 
L 3047 0 
L 2419 0 
L 2419 1100 
L 313 1100 
L 313 1709 
L 2253 4666 
z
" transform="scale(0.015625)"/>
       </defs>
       <use xlink:href="#DejaVuSans-31" transform="translate(0 0.684375)"/>
       <use xlink:href="#DejaVuSans-30" transform="translate(63.623047 0.684375)"/>
       <use xlink:href="#DejaVuSans-34" transform="translate(128.203125 38.965625) scale(0.7)"/>
      </g>
     </g>
    </g>
    <g id="ytick_6">
     <g id="line2d_14">
      <defs>
       <path id="mbf2046e9a9" d="M 0 0 
L -2 0 
" style="stroke: #000000; stroke-width: 0.6"/>
      </defs>
      <g>
       <use xlink:href="#mbf2046e9a9" x="57.6" y="304.730982" style="stroke: #000000; stroke-width: 0.6"/>
      </g>
     </g>
    </g>
    <g id="ytick_7">
     <g id="line2d_15">
      <g>
       <use xlink:href="#mbf2046e9a9" x="57.6" y="301.270609" style="stroke: #000000; stroke-width: 0.6"/>
      </g>
     </g>
    </g>
    <g id="ytick_8">
     <g id="line2d_16">
      <g>
       <use xlink:href="#mbf2046e9a9" x="57.6" y="298.218344" style="stroke: #000000; stroke-width: 0.6"/>
      </g>
     </g>
    </g>
    <g id="ytick_9">
     <g id="line2d_17">
      <g>
       <use xlink:href="#mbf2046e9a9" x="57.6" y="277.525575" style="stroke: #000000; stroke-width: 0.6"/>
      </g>
     </g>
    </g>
    <g id="ytick_10">
     <g id="line2d_18">
      <g>
       <use xlink:href="#mbf2046e9a9" x="57.6" y="267.01823" style="stroke: #000000; stroke-width: 0.6"/>
      </g>
     </g>
    </g>
    <g id="ytick_11">
     <g id="line2d_19">
      <g>
       <use xlink:href="#mbf2046e9a9" x="57.6" y="259.563151" style="stroke: #000000; stroke-width: 0.6"/>
      </g>
     </g>
    </g>
    <g id="ytick_12">
     <g id="line2d_20">
      <g>
       <use xlink:href="#mbf2046e9a9" x="57.6" y="253.780541" style="stroke: #000000; stroke-width: 0.6"/>
      </g>
     </g>
    </g>
    <g id="ytick_13">
     <g id="line2d_21">
      <g>
       <use xlink:href="#mbf2046e9a9" x="57.6" y="249.055806" style="stroke: #000000; stroke-width: 0.6"/>
      </g>
     </g>
    </g>
    <g id="ytick_14">
     <g id="line2d_22">
      <g>
       <use xlink:href="#mbf2046e9a9" x="57.6" y="245.061099" style="stroke: #000000; stroke-width: 0.6"/>
      </g>
     </g>
    </g>
    <g id="ytick_15">
     <g id="line2d_23">
      <g>
       <use xlink:href="#mbf2046e9a9" x="57.6" y="241.600726" style="stroke: #000000; stroke-width: 0.6"/>
      </g>
     </g>
    </g>
    <g id="ytick_16">
     <g id="line2d_24">
      <g>
       <use xlink:href="#mbf2046e9a9" x="57.6" y="238.548461" style="stroke: #000000; stroke-width: 0.6"/>
      </g>
     </g>
    </g>
    <g id="ytick_17">
     <g id="line2d_25">
      <g>
       <use xlink:href="#mbf2046e9a9" x="57.6" y="217.855692" style="stroke: #000000; stroke-width: 0.6"/>
      </g>
     </g>
    </g>
    <g id="ytick_18">
     <g id="line2d_26">
      <g>
       <use xlink:href="#mbf2046e9a9" x="57.6" y="207.348347" style="stroke: #000000; stroke-width: 0.6"/>
      </g>
     </g>
    </g>
    <g id="ytick_19">
     <g id="line2d_27">
      <g>
       <use xlink:href="#mbf2046e9a9" x="57.6" y="199.893267" style="stroke: #000000; stroke-width: 0.6"/>
      </g>
     </g>
    </g>
    <g id="ytick_20">
     <g id="line2d_28">
      <g>
       <use xlink:href="#mbf2046e9a9" x="57.6" y="194.110658" style="stroke: #000000; stroke-width: 0.6"/>
      </g>
     </g>
    </g>
    <g id="ytick_21">
     <g id="line2d_29">
      <g>
       <use xlink:href="#mbf2046e9a9" x="57.6" y="189.385922" style="stroke: #000000; stroke-width: 0.6"/>
      </g>
     </g>
    </g>
    <g id="ytick_22">
     <g id="line2d_30">
      <g>
       <use xlink:href="#mbf2046e9a9" x="57.6" y="185.391215" style="stroke: #000000; stroke-width: 0.6"/>
      </g>
     </g>
    </g>
    <g id="ytick_23">
     <g id="line2d_31">
      <g>
       <use xlink:href="#mbf2046e9a9" x="57.6" y="181.930842" style="stroke: #000000; stroke-width: 0.6"/>
      </g>
     </g>
    </g>
    <g id="ytick_24">
     <g id="line2d_32">
      <g>
       <use xlink:href="#mbf2046e9a9" x="57.6" y="178.878577" style="stroke: #000000; stroke-width: 0.6"/>
      </g>
     </g>
    </g>
    <g id="ytick_25">
     <g id="line2d_33">
      <g>
       <use xlink:href="#mbf2046e9a9" x="57.6" y="158.185808" style="stroke: #000000; stroke-width: 0.6"/>
      </g>
     </g>
    </g>
    <g id="ytick_26">
     <g id="line2d_34">
      <g>
       <use xlink:href="#mbf2046e9a9" x="57.6" y="147.678464" style="stroke: #000000; stroke-width: 0.6"/>
      </g>
     </g>
    </g>
    <g id="ytick_27">
     <g id="line2d_35">
      <g>
       <use xlink:href="#mbf2046e9a9" x="57.6" y="140.223384" style="stroke: #000000; stroke-width: 0.6"/>
      </g>
     </g>
    </g>
    <g id="ytick_28">
     <g id="line2d_36">
      <g>
       <use xlink:href="#mbf2046e9a9" x="57.6" y="134.440775" style="stroke: #000000; stroke-width: 0.6"/>
      </g>
     </g>
    </g>
    <g id="ytick_29">
     <g id="line2d_37">
      <g>
       <use xlink:href="#mbf2046e9a9" x="57.6" y="129.716039" style="stroke: #000000; stroke-width: 0.6"/>
      </g>
     </g>
    </g>
    <g id="ytick_30">
     <g id="line2d_38">
      <g>
       <use xlink:href="#mbf2046e9a9" x="57.6" y="125.721332" style="stroke: #000000; stroke-width: 0.6"/>
      </g>
     </g>
    </g>
    <g id="ytick_31">
     <g id="line2d_39">
      <g>
       <use xlink:href="#mbf2046e9a9" x="57.6" y="122.260959" style="stroke: #000000; stroke-width: 0.6"/>
      </g>
     </g>
    </g>
    <g id="ytick_32">
     <g id="line2d_40">
      <g>
       <use xlink:href="#mbf2046e9a9" x="57.6" y="119.208694" style="stroke: #000000; stroke-width: 0.6"/>
      </g>
     </g>
    </g>
    <g id="ytick_33">
     <g id="line2d_41">
      <g>
       <use xlink:href="#mbf2046e9a9" x="57.6" y="98.515925" style="stroke: #000000; stroke-width: 0.6"/>
      </g>
     </g>
    </g>
    <g id="ytick_34">
     <g id="line2d_42">
      <g>
       <use xlink:href="#mbf2046e9a9" x="57.6" y="88.00858" style="stroke: #000000; stroke-width: 0.6"/>
      </g>
     </g>
    </g>
    <g id="ytick_35">
     <g id="line2d_43">
      <g>
       <use xlink:href="#mbf2046e9a9" x="57.6" y="80.5535" style="stroke: #000000; stroke-width: 0.6"/>
      </g>
     </g>
    </g>
    <g id="ytick_36">
     <g id="line2d_44">
      <g>
       <use xlink:href="#mbf2046e9a9" x="57.6" y="74.770891" style="stroke: #000000; stroke-width: 0.6"/>
      </g>
     </g>
    </g>
    <g id="ytick_37">
     <g id="line2d_45">
      <g>
       <use xlink:href="#mbf2046e9a9" x="57.6" y="70.046155" style="stroke: #000000; stroke-width: 0.6"/>
      </g>
     </g>
    </g>
    <g id="ytick_38">
     <g id="line2d_46">
      <g>
       <use xlink:href="#mbf2046e9a9" x="57.6" y="66.051448" style="stroke: #000000; stroke-width: 0.6"/>
      </g>
     </g>
    </g>
    <g id="ytick_39">
     <g id="line2d_47">
      <g>
       <use xlink:href="#mbf2046e9a9" x="57.6" y="62.591076" style="stroke: #000000; stroke-width: 0.6"/>
      </g>
     </g>
    </g>
    <g id="ytick_40">
     <g id="line2d_48">
      <g>
       <use xlink:href="#mbf2046e9a9" x="57.6" y="59.538811" style="stroke: #000000; stroke-width: 0.6"/>
      </g>
     </g>
    </g>
    <g id="text_15">
     <!-- Number of Elements -->
     <g transform="translate(26.920312 225.917062) rotate(-90) scale(0.1 -0.1)">
      <defs>
       <path id="DejaVuSans-4e" d="M 628 4666 
L 1478 4666 
L 3547 763 
L 3547 4666 
L 4159 4666 
L 4159 0 
L 3309 0 
L 1241 3903 
L 1241 0 
L 628 0 
L 628 4666 
z
" transform="scale(0.015625)"/>
       <path id="DejaVuSans-75" d="M 544 1381 
L 544 3500 
L 1119 3500 
L 1119 1403 
Q 1119 906 1312 657 
Q 1506 409 1894 409 
Q 2359 409 2629 706 
Q 2900 1003 2900 1516 
L 2900 3500 
L 3475 3500 
L 3475 0 
L 2900 0 
L 2900 538 
Q 2691 219 2414 64 
Q 2138 -91 1772 -91 
Q 1169 -91 856 284 
Q 544 659 544 1381 
z
M 1991 3584 
L 1991 3584 
z
" transform="scale(0.015625)"/>
       <path id="DejaVuSans-62" d="M 3116 1747 
Q 3116 2381 2855 2742 
Q 2594 3103 2138 3103 
Q 1681 3103 1420 2742 
Q 1159 2381 1159 1747 
Q 1159 1113 1420 752 
Q 1681 391 2138 391 
Q 2594 391 2855 752 
Q 3116 1113 3116 1747 
z
M 1159 2969 
Q 1341 3281 1617 3432 
Q 1894 3584 2278 3584 
Q 2916 3584 3314 3078 
Q 3713 2572 3713 1747 
Q 3713 922 3314 415 
Q 2916 -91 2278 -91 
Q 1894 -91 1617 61 
Q 1341 213 1159 525 
L 1159 0 
L 581 0 
L 581 4863 
L 1159 4863 
L 1159 2969 
z
" transform="scale(0.015625)"/>
       <path id="DejaVuSans-72" d="M 2631 2963 
Q 2534 3019 2420 3045 
Q 2306 3072 2169 3072 
Q 1681 3072 1420 2755 
Q 1159 2438 1159 1844 
L 1159 0 
L 581 0 
L 581 3500 
L 1159 3500 
L 1159 2956 
Q 1341 3275 1631 3429 
Q 1922 3584 2338 3584 
Q 2397 3584 2469 3576 
Q 2541 3569 2628 3553 
L 2631 2963 
z
" transform="scale(0.015625)"/>
       <path id="DejaVuSans-73" d="M 2834 3397 
L 2834 2853 
Q 2591 2978 2328 3040 
Q 2066 3103 1784 3103 
Q 1356 3103 1142 2972 
Q 928 2841 928 2578 
Q 928 2378 1081 2264 
Q 1234 2150 1697 2047 
L 1894 2003 
Q 2506 1872 2764 1633 
Q 3022 1394 3022 966 
Q 3022 478 2636 193 
Q 2250 -91 1575 -91 
Q 1294 -91 989 -36 
Q 684 19 347 128 
L 347 722 
Q 666 556 975 473 
Q 1284 391 1588 391 
Q 1994 391 2212 530 
Q 2431 669 2431 922 
Q 2431 1156 2273 1281 
Q 2116 1406 1581 1522 
L 1381 1569 
Q 847 1681 609 1914 
Q 372 2147 372 2553 
Q 372 3047 722 3315 
Q 1072 3584 1716 3584 
Q 2034 3584 2315 3537 
Q 2597 3491 2834 3397 
z
" transform="scale(0.015625)"/>
      </defs>
      <use xlink:href="#DejaVuSans-4e"/>
      <use xlink:href="#DejaVuSans-75" x="74.804688"/>
      <use xlink:href="#DejaVuSans-6d" x="138.183594"/>
      <use xlink:href="#DejaVuSans-62" x="235.595703"/>
      <use xlink:href="#DejaVuSans-65" x="299.072266"/>
      <use xlink:href="#DejaVuSans-72" x="360.595703"/>
      <use xlink:href="#DejaVuSans-20" x="401.708984"/>
      <use xlink:href="#DejaVuSans-6f" x="433.496094"/>
      <use xlink:href="#DejaVuSans-66" x="494.677734"/>
      <use xlink:href="#DejaVuSans-20" x="529.882812"/>
      <use xlink:href="#DejaVuSans-45" x="561.669922"/>
      <use xlink:href="#DejaVuSans-6c" x="624.853516"/>
      <use xlink:href="#DejaVuSans-65" x="652.636719"/>
      <use xlink:href="#DejaVuSans-6d" x="714.160156"/>
      <use xlink:href="#DejaVuSans-65" x="811.572266"/>
      <use xlink:href="#DejaVuSans-6e" x="873.095703"/>
      <use xlink:href="#DejaVuSans-74" x="936.474609"/>
      <use xlink:href="#DejaVuSans-73" x="975.683594"/>
     </g>
    </g>
   </g>
   <g id="patch_131">
    <path d="M 57.6 307.584 
L 57.6 41.472 
" style="fill: none; stroke: #000000; stroke-width: 0.8; stroke-linejoin: miter; stroke-linecap: square"/>
   </g>
   <g id="patch_132">
    <path d="M 414.72 307.584 
L 414.72 41.472 
" style="fill: none; stroke: #000000; stroke-width: 0.8; stroke-linejoin: miter; stroke-linecap: square"/>
   </g>
   <g id="patch_133">
    <path d="M 57.6 307.584 
L 414.72 307.584 
" style="fill: none; stroke: #000000; stroke-width: 0.8; stroke-linejoin: miter; stroke-linecap: square"/>
   </g>
   <g id="patch_134">
    <path d="M 57.6 41.472 
L 414.72 41.472 
" style="fill: none; stroke: #000000; stroke-width: 0.8; stroke-linejoin: miter; stroke-linecap: square"/>
   </g>
  </g>
 </g>
 <defs>
  <clipPath id="p8ec081e734">
   <rect x="57.6" y="41.472" width="357.12" height="266.112"/>
  </clipPath>
 </defs>
</svg>
