<?xml version="1.0" encoding="utf-8" standalone="no"?>
<!DOCTYPE svg PUBLIC "-//W3C//DTD SVG 1.1//EN"
  "http://www.w3.org/Graphics/SVG/1.1/DTD/svg11.dtd">
<svg xmlns:xlink="http://www.w3.org/1999/xlink" width="460.8pt" height="345.6pt" viewBox="0 0 460.8 345.6" xmlns="http://www.w3.org/2000/svg" version="1.1">
 <metadata>
  <rdf:RDF xmlns:dc="http://purl.org/dc/elements/1.1/" xmlns:cc="http://creativecommons.org/ns#" xmlns:rdf="http://www.w3.org/1999/02/22-rdf-syntax-ns#">
   <cc:Work>
    <dc:type rdf:resource="http://purl.org/dc/dcmitype/StillImage"/>
    <dc:date>2024-03-04T22:31:58.747774</dc:date>
    <dc:format>image/svg+xml</dc:format>
    <dc:creator>
     <cc:Agent>
      <dc:title>Matplotlib v3.8.3, https://matplotlib.org/</dc:title>
     </cc:Agent>
    </dc:creator>
   </cc:Work>
  </rdf:RDF>
 </metadata>
 <defs>
  <style type="text/css">*{stroke-linejoin: round; stroke-linecap: butt}</style>
 </defs>
 <g id="figure_1">
  <g id="patch_1">
   <path d="M 0 345.6 
L 460.8 345.6 
L 460.8 0 
L 0 0 
z
" style="fill: #ffffff"/>
  </g>
  <g id="axes_1">
   <g id="patch_2">
    <path d="M 57.6 307.584 
L 414.72 307.584 
L 414.72 41.472 
L 57.6 41.472 
z
" style="fill: #ffffff"/>
   </g>
   <g id="patch_3">
    <path d="M 73.832727 60101.932674 
L 74.848066 60101.932674 
L 74.848066 259.480932 
L 73.832727 259.480932 
z
" clip-path="url(#p6dff601acc)" style="fill: #1f77b4"/>
   </g>
   <g id="patch_4">
    <path d="M 75.101901 60101.932674 
L 76.117239 60101.932674 
L 76.117239 235.681555 
L 75.101901 235.681555 
z
" clip-path="url(#p6dff601acc)" style="fill: #1f77b4"/>
   </g>
   <g id="patch_5">
    <path d="M 77.640247 60101.932674 
L 78.655586 60101.932674 
L 78.655586 193.878644 
L 77.640247 193.878644 
z
" clip-path="url(#p6dff601acc)" style="fill: #1f77b4"/>
   </g>
   <g id="patch_6">
    <path d="M 78.909421 60101.932674 
L 79.924759 60101.932674 
L 79.924759 170.710236 
L 78.909421 170.710236 
z
" clip-path="url(#p6dff601acc)" style="fill: #1f77b4"/>
   </g>
   <g id="patch_7">
    <path d="M 82.716941 60101.932674 
L 83.732279 60101.932674 
L 83.732279 114.021655 
L 82.716941 114.021655 
z
" clip-path="url(#p6dff601acc)" style="fill: #1f77b4"/>
   </g>
   <g id="patch_8">
    <path d="M 76.371074 60101.932674 
L 77.386413 60101.932674 
L 77.386413 219.010294 
L 76.371074 219.010294 
z
" clip-path="url(#p6dff601acc)" style="fill: #1f77b4"/>
   </g>
   <g id="patch_9">
    <path d="M 80.178594 60101.932674 
L 81.193933 60101.932674 
L 81.193933 152.706702 
L 80.178594 152.706702 
z
" clip-path="url(#p6dff601acc)" style="fill: #1f77b4"/>
   </g>
   <g id="patch_10">
    <path d="M 83.986114 60101.932674 
L 85.001453 60101.932674 
L 85.001453 99.603273 
L 83.986114 99.603273 
z
" clip-path="url(#p6dff601acc)" style="fill: #1f77b4"/>
   </g>
   <g id="patch_11">
    <path d="M 81.447767 60101.932674 
L 82.463106 60101.932674 
L 82.463106 134.385768 
L 81.447767 134.385768 
z
" clip-path="url(#p6dff601acc)" style="fill: #1f77b4"/>
   </g>
   <g id="patch_12">
    <path d="M 86.524461 60101.932674 
L 87.5398 60101.932674 
L 87.5398 75.537947 
L 86.524461 75.537947 
z
" clip-path="url(#p6dff601acc)" style="fill: #1f77b4"/>
   </g>
   <g id="patch_13">
    <path d="M 85.255288 60101.932674 
L 86.270626 60101.932674 
L 86.270626 86.673693 
L 85.255288 86.673693 
z
" clip-path="url(#p6dff601acc)" style="fill: #1f77b4"/>
   </g>
   <g id="patch_14">
    <path d="M 89.062808 60101.932674 
L 90.078146 60101.932674 
L 90.078146 57.665676 
L 89.062808 57.665676 
z
" clip-path="url(#p6dff601acc)" style="fill: #1f77b4"/>
   </g>
   <g id="patch_15">
    <path d="M 87.793634 60101.932674 
L 88.808973 60101.932674 
L 88.808973 65.077573 
L 87.793634 65.077573 
z
" clip-path="url(#p6dff601acc)" style="fill: #1f77b4"/>
   </g>
   <g id="patch_16">
    <path d="M 94.139501 60101.932674 
L 95.15484 60101.932674 
L 95.15484 61.986735 
L 94.139501 61.986735 
z
" clip-path="url(#p6dff601acc)" style="fill: #1f77b4"/>
   </g>
   <g id="patch_17">
    <path d="M 90.331981 60101.932674 
L 91.34732 60101.932674 
L 91.34732 53.568 
L 90.331981 53.568 
z
" clip-path="url(#p6dff601acc)" style="fill: #1f77b4"/>
   </g>
   <g id="patch_18">
    <path d="M 96.677848 60101.932674 
L 97.693186 60101.932674 
L 97.693186 98.365559 
L 96.677848 98.365559 
z
" clip-path="url(#p6dff601acc)" style="fill: #1f77b4"/>
   </g>
   <g id="patch_19">
    <path d="M 92.870328 60101.932674 
L 93.885666 60101.932674 
L 93.885666 54.707145 
L 92.870328 54.707145 
z
" clip-path="url(#p6dff601acc)" style="fill: #1f77b4"/>
   </g>
   <g id="patch_20">
    <path d="M 97.947021 60101.932674 
L 98.96236 60101.932674 
L 98.96236 129.994246 
L 97.947021 129.994246 
z
" clip-path="url(#p6dff601acc)" style="fill: #1f77b4"/>
   </g>
   <g id="patch_21">
    <path d="M 100.485368 60101.932674 
L 101.500707 60101.932674 
L 101.500707 169.666979 
L 100.485368 169.666979 
z
" clip-path="url(#p6dff601acc)" style="fill: #1f77b4"/>
   </g>
   <g id="patch_22">
    <path d="M 91.601154 60101.932674 
L 92.616493 60101.932674 
L 92.616493 53.810295 
L 91.601154 53.810295 
z
" clip-path="url(#p6dff601acc)" style="fill: #1f77b4"/>
   </g>
   <g id="patch_23">
    <path d="M 95.408674 60101.932674 
L 96.424013 60101.932674 
L 96.424013 76.352546 
L 95.408674 76.352546 
z
" clip-path="url(#p6dff601acc)" style="fill: #1f77b4"/>
   </g>
   <g id="patch_24">
    <path d="M 109.369581 60101.932674 
L 110.38492 60101.932674 
L 110.38492 186.276958 
L 109.369581 186.276958 
z
" clip-path="url(#p6dff601acc)" style="fill: #1f77b4"/>
   </g>
   <g id="patch_25">
    <path d="M 99.216194 60101.932674 
L 100.231533 60101.932674 
L 100.231533 156.60432 
L 99.216194 156.60432 
z
" clip-path="url(#p6dff601acc)" style="fill: #1f77b4"/>
   </g>
   <g id="patch_26">
    <path d="M 108.100408 60101.932674 
L 109.115747 60101.932674 
L 109.115747 181.029598 
L 108.100408 181.029598 
z
" clip-path="url(#p6dff601acc)" style="fill: #1f77b4"/>
   </g>
   <g id="patch_27">
    <path d="M 101.754541 60101.932674 
L 102.76988 60101.932674 
L 102.76988 172.020107 
L 101.754541 172.020107 
z
" clip-path="url(#p6dff601acc)" style="fill: #1f77b4"/>
   </g>
   <g id="patch_28">
    <path d="M 103.023715 60101.932674 
L 104.039053 60101.932674 
L 104.039053 173.399561 
L 103.023715 173.399561 
z
" clip-path="url(#p6dff601acc)" style="fill: #1f77b4"/>
   </g>
   <g id="patch_29">
    <path d="M 104.292888 60101.932674 
L 105.308227 60101.932674 
L 105.308227 180.714762 
L 104.292888 180.714762 
z
" clip-path="url(#p6dff601acc)" style="fill: #1f77b4"/>
   </g>
   <g id="patch_30">
    <path d="M 106.831235 60101.932674 
L 107.846573 60101.932674 
L 107.846573 180.403697 
L 106.831235 180.403697 
z
" clip-path="url(#p6dff601acc)" style="fill: #1f77b4"/>
   </g>
   <g id="patch_31">
    <path d="M 119.522968 60101.932674 
L 120.538307 60101.932674 
L 120.538307 192.859941 
L 119.522968 192.859941 
z
" clip-path="url(#p6dff601acc)" style="fill: #1f77b4"/>
   </g>
   <g id="patch_32">
    <path d="M 110.638755 60101.932674 
L 111.654093 60101.932674 
L 111.654093 187.466797 
L 110.638755 187.466797 
z
" clip-path="url(#p6dff601acc)" style="fill: #1f77b4"/>
   </g>
   <g id="patch_33">
    <path d="M 111.907928 60101.932674 
L 112.923267 60101.932674 
L 112.923267 188.71377 
L 111.907928 188.71377 
z
" clip-path="url(#p6dff601acc)" style="fill: #1f77b4"/>
   </g>
   <g id="patch_34">
    <path d="M 115.715448 60101.932674 
L 116.730787 60101.932674 
L 116.730787 185.139246 
L 115.715448 185.139246 
z
" clip-path="url(#p6dff601acc)" style="fill: #1f77b4"/>
   </g>
   <g id="patch_35">
    <path d="M 120.792142 60101.932674 
L 121.80748 60101.932674 
L 121.80748 193.364299 
L 120.792142 193.364299 
z
" clip-path="url(#p6dff601acc)" style="fill: #1f77b4"/>
   </g>
   <g id="patch_36">
    <path d="M 105.562061 60101.932674 
L 106.5774 60101.932674 
L 106.5774 176.666246 
L 105.562061 176.666246 
z
" clip-path="url(#p6dff601acc)" style="fill: #1f77b4"/>
   </g>
   <g id="patch_37">
    <path d="M 125.868835 60101.932674 
L 126.884174 60101.932674 
L 126.884174 191.879688 
L 125.868835 191.879688 
z
" clip-path="url(#p6dff601acc)" style="fill: #1f77b4"/>
   </g>
   <g id="patch_38">
    <path d="M 130.945528 60101.932674 
L 131.960867 60101.932674 
L 131.960867 203.14278 
L 130.945528 203.14278 
z
" clip-path="url(#p6dff601acc)" style="fill: #1f77b4"/>
   </g>
   <g id="patch_39">
    <path d="M 113.177101 60101.932674 
L 114.19244 60101.932674 
L 114.19244 186.276958 
L 113.177101 186.276958 
z
" clip-path="url(#p6dff601acc)" style="fill: #1f77b4"/>
   </g>
   <g id="patch_40">
    <path d="M 118.253795 60101.932674 
L 119.269134 60101.932674 
L 119.269134 194.403382 
L 118.253795 194.403382 
z
" clip-path="url(#p6dff601acc)" style="fill: #1f77b4"/>
   </g>
   <g id="patch_41">
    <path d="M 133.483875 60101.932674 
L 134.499214 60101.932674 
L 134.499214 203.14278 
L 133.483875 203.14278 
z
" clip-path="url(#p6dff601acc)" style="fill: #1f77b4"/>
   </g>
   <g id="patch_42">
    <path d="M 124.599662 60101.932674 
L 125.615 60101.932674 
L 125.615 199.674488 
L 124.599662 199.674488 
z
" clip-path="url(#p6dff601acc)" style="fill: #1f77b4"/>
   </g>
   <g id="patch_43">
    <path d="M 129.676355 60101.932674 
L 130.691694 60101.932674 
L 130.691694 197.198938 
L 129.676355 197.198938 
z
" clip-path="url(#p6dff601acc)" style="fill: #1f77b4"/>
   </g>
   <g id="patch_44">
    <path d="M 114.446275 60101.932674 
L 115.461613 60101.932674 
L 115.461613 185.512974 
L 114.446275 185.512974 
z
" clip-path="url(#p6dff601acc)" style="fill: #1f77b4"/>
   </g>
   <g id="patch_45">
    <path d="M 158.867342 60101.932674 
L 159.882681 60101.932674 
L 159.882681 228.867009 
L 158.867342 228.867009 
z
" clip-path="url(#p6dff601acc)" style="fill: #1f77b4"/>
   </g>
   <g id="patch_46">
    <path d="M 149.983129 60101.932674 
L 150.998468 60101.932674 
L 150.998468 206.294959 
L 149.983129 206.294959 
z
" clip-path="url(#p6dff601acc)" style="fill: #1f77b4"/>
   </g>
   <g id="patch_47">
    <path d="M 137.291395 60101.932674 
L 138.306734 60101.932674 
L 138.306734 203.895691 
L 137.291395 203.895691 
z
" clip-path="url(#p6dff601acc)" style="fill: #1f77b4"/>
   </g>
   <g id="patch_48">
    <path d="M 134.753049 60101.932674 
L 135.768387 60101.932674 
L 135.768387 201.00676 
L 134.753049 201.00676 
z
" clip-path="url(#p6dff601acc)" style="fill: #1f77b4"/>
   </g>
   <g id="patch_49">
    <path d="M 122.061315 60101.932674 
L 123.076654 60101.932674 
L 123.076654 201.00676 
L 122.061315 201.00676 
z
" clip-path="url(#p6dff601acc)" style="fill: #1f77b4"/>
   </g>
   <g id="patch_50">
    <path d="M 151.252302 60101.932674 
L 152.267641 60101.932674 
L 152.267641 208.027175 
L 151.252302 208.027175 
z
" clip-path="url(#p6dff601acc)" style="fill: #1f77b4"/>
   </g>
   <g id="patch_51">
    <path d="M 128.407182 60101.932674 
L 129.42252 60101.932674 
L 129.42252 207.146629 
L 128.407182 207.146629 
z
" clip-path="url(#p6dff601acc)" style="fill: #1f77b4"/>
   </g>
   <g id="patch_52">
    <path d="M 143.637262 60101.932674 
L 144.652601 60101.932674 
L 144.652601 211.882178 
L 143.637262 211.882178 
z
" clip-path="url(#p6dff601acc)" style="fill: #1f77b4"/>
   </g>
   <g id="patch_53">
    <path d="M 127.138008 60101.932674 
L 128.153347 60101.932674 
L 128.153347 201.69943 
L 127.138008 201.69943 
z
" clip-path="url(#p6dff601acc)" style="fill: #1f77b4"/>
   </g>
   <g id="patch_54">
    <path d="M 147.444782 60101.932674 
L 148.460121 60101.932674 
L 148.460121 235.681555 
L 147.444782 235.681555 
z
" clip-path="url(#p6dff601acc)" style="fill: #1f77b4"/>
   </g>
   <g id="patch_55">
    <path d="M 171.559076 60101.932674 
L 172.574415 60101.932674 
L 172.574415 253.685089 
L 171.559076 253.685089 
z
" clip-path="url(#p6dff601acc)" style="fill: #1f77b4"/>
   </g>
   <g id="patch_56">
    <path d="M 144.906435 60101.932674 
L 145.921774 60101.932674 
L 145.921774 215.202472 
L 144.906435 215.202472 
z
" clip-path="url(#p6dff601acc)" style="fill: #1f77b4"/>
   </g>
   <g id="patch_57">
    <path d="M 116.984622 60101.932674 
L 117.99996 60101.932674 
L 117.99996 197.198938 
L 116.984622 197.198938 
z
" clip-path="url(#p6dff601acc)" style="fill: #1f77b4"/>
   </g>
   <g id="patch_58">
    <path d="M 123.330488 60101.932674 
L 124.345827 60101.932674 
L 124.345827 201.00676 
L 123.330488 201.00676 
z
" clip-path="url(#p6dff601acc)" style="fill: #1f77b4"/>
   </g>
   <g id="patch_59">
    <path d="M 132.214702 60101.932674 
L 133.230041 60101.932674 
L 133.230041 205.470331 
L 132.214702 205.470331 
z
" clip-path="url(#p6dff601acc)" style="fill: #1f77b4"/>
   </g>
   <g id="patch_60">
    <path d="M 142.368089 60101.932674 
L 143.383427 60101.932674 
L 143.383427 208.027175 
L 142.368089 208.027175 
z
" clip-path="url(#p6dff601acc)" style="fill: #1f77b4"/>
   </g>
   <g id="patch_61">
    <path d="M 152.521476 60101.932674 
L 153.536814 60101.932674 
L 153.536814 226.942157 
L 152.521476 226.942157 
z
" clip-path="url(#p6dff601acc)" style="fill: #1f77b4"/>
   </g>
   <g id="patch_62">
    <path d="M 136.022222 60101.932674 
L 137.037561 60101.932674 
L 137.037561 207.146629 
L 136.022222 207.146629 
z
" clip-path="url(#p6dff601acc)" style="fill: #1f77b4"/>
   </g>
   <g id="patch_63">
    <path d="M 141.098915 60101.932674 
L 142.114254 60101.932674 
L 142.114254 209.883222 
L 141.098915 209.883222 
z
" clip-path="url(#p6dff601acc)" style="fill: #1f77b4"/>
   </g>
   <g id="patch_64">
    <path d="M 155.059822 60101.932674 
L 156.075161 60101.932674 
L 156.075161 228.867009 
L 155.059822 228.867009 
z
" clip-path="url(#p6dff601acc)" style="fill: #1f77b4"/>
   </g>
   <g id="patch_65">
    <path d="M 161.405689 60101.932674 
L 162.421028 60101.932674 
L 162.421028 226.942157 
L 161.405689 226.942157 
z
" clip-path="url(#p6dff601acc)" style="fill: #1f77b4"/>
   </g>
   <g id="patch_66">
    <path d="M 138.560569 60101.932674 
L 139.575907 60101.932674 
L 139.575907 209.883222 
L 138.560569 209.883222 
z
" clip-path="url(#p6dff601acc)" style="fill: #1f77b4"/>
   </g>
   <g id="patch_67">
    <path d="M 139.829742 60101.932674 
L 140.845081 60101.932674 
L 140.845081 215.202472 
L 139.829742 215.202472 
z
" clip-path="url(#p6dff601acc)" style="fill: #1f77b4"/>
   </g>
   <g id="patch_68">
    <path d="M 157.598169 60101.932674 
L 158.613508 60101.932674 
L 158.613508 228.867009 
L 157.598169 228.867009 
z
" clip-path="url(#p6dff601acc)" style="fill: #1f77b4"/>
   </g>
   <g id="patch_69">
    <path d="M 146.175609 60101.932674 
L 147.190947 60101.932674 
L 147.190947 208.938623 
L 146.175609 208.938623 
z
" clip-path="url(#p6dff601acc)" style="fill: #1f77b4"/>
   </g>
   <g id="patch_70">
    <path d="M 181.712463 60101.932674 
L 182.727802 60101.932674 
L 182.727802 238.418148 
L 181.712463 238.418148 
z
" clip-path="url(#p6dff601acc)" style="fill: #1f77b4"/>
   </g>
   <g id="patch_71">
    <path d="M 160.136516 60101.932674 
L 161.151854 60101.932674 
L 161.151854 220.414614 
L 160.136516 220.414614 
z
" clip-path="url(#p6dff601acc)" style="fill: #1f77b4"/>
   </g>
   <g id="patch_72">
    <path d="M 153.790649 60101.932674 
L 154.805988 60101.932674 
L 154.805988 225.150163 
L 153.790649 225.150163 
z
" clip-path="url(#p6dff601acc)" style="fill: #1f77b4"/>
   </g>
   <g id="patch_73">
    <path d="M 174.097423 60101.932674 
L 175.112761 60101.932674 
L 175.112761 244.945691 
L 174.097423 244.945691 
z
" clip-path="url(#p6dff601acc)" style="fill: #1f77b4"/>
   </g>
   <g id="patch_74">
    <path d="M 180.44329 60101.932674 
L 181.458628 60101.932674 
L 181.458628 277.484466 
L 180.44329 277.484466 
z
" clip-path="url(#p6dff601acc)" style="fill: #1f77b4"/>
   </g>
   <g id="patch_75">
    <path d="M 156.328996 60101.932674 
L 157.344334 60101.932674 
L 157.344334 217.678022 
L 156.328996 217.678022 
z
" clip-path="url(#p6dff601acc)" style="fill: #1f77b4"/>
   </g>
   <g id="patch_76">
    <path d="M 175.366596 60101.932674 
L 176.381935 60101.932674 
L 176.381935 244.945691 
L 175.366596 244.945691 
z
" clip-path="url(#p6dff601acc)" style="fill: #1f77b4"/>
   </g>
   <g id="patch_77">
    <path d="M 167.751556 60101.932674 
L 168.766895 60101.932674 
L 168.766895 235.681555 
L 167.751556 235.681555 
z
" clip-path="url(#p6dff601acc)" style="fill: #1f77b4"/>
   </g>
   <g id="patch_78">
    <path d="M 148.713956 60101.932674 
L 149.729294 60101.932674 
L 149.729294 217.678022 
L 148.713956 217.678022 
z
" clip-path="url(#p6dff601acc)" style="fill: #1f77b4"/>
   </g>
   <g id="patch_79">
    <path d="M 165.213209 60101.932674 
L 166.228548 60101.932674 
L 166.228548 230.946007 
L 165.213209 230.946007 
z
" clip-path="url(#p6dff601acc)" style="fill: #1f77b4"/>
   </g>
   <g id="patch_80">
    <path d="M 202.019237 60101.932674 
L 203.034575 60101.932674 
L 203.034575 266.953074 
L 202.019237 266.953074 
z
" clip-path="url(#p6dff601acc)" style="fill: #1f77b4"/>
   </g>
   <g id="patch_81">
    <path d="M 185.519983 60101.932674 
L 186.535322 60101.932674 
L 186.535322 241.477399 
L 185.519983 241.477399 
z
" clip-path="url(#p6dff601acc)" style="fill: #1f77b4"/>
   </g>
   <g id="patch_82">
    <path d="M 166.482383 60101.932674 
L 167.497721 60101.932674 
L 167.497721 221.899225 
L 166.482383 221.899225 
z
" clip-path="url(#p6dff601acc)" style="fill: #1f77b4"/>
   </g>
   <g id="patch_83">
    <path d="M 189.327503 60101.932674 
L 190.342842 60101.932674 
L 190.342842 248.94954 
L 189.327503 248.94954 
z
" clip-path="url(#p6dff601acc)" style="fill: #1f77b4"/>
   </g>
   <g id="patch_84">
    <path d="M 213.441797 60101.932674 
L 214.457136 60101.932674 
L 214.457136 295.488 
L 213.441797 295.488 
z
" clip-path="url(#p6dff601acc)" style="fill: #1f77b4"/>
   </g>
   <g id="patch_85">
    <path d="M 162.674862 60101.932674 
L 163.690201 60101.932674 
L 163.690201 220.414614 
L 162.674862 220.414614 
z
" clip-path="url(#p6dff601acc)" style="fill: #1f77b4"/>
   </g>
   <g id="patch_86">
    <path d="M 184.25081 60101.932674 
L 185.266148 60101.932674 
L 185.266148 248.94954 
L 184.25081 248.94954 
z
" clip-path="url(#p6dff601acc)" style="fill: #1f77b4"/>
   </g>
   <g id="patch_87">
    <path d="M 169.020729 60101.932674 
L 170.036068 60101.932674 
L 170.036068 233.206006 
L 169.020729 233.206006 
z
" clip-path="url(#p6dff601acc)" style="fill: #1f77b4"/>
   </g>
   <g id="patch_88">
    <path d="M 170.289903 60101.932674 
L 171.305241 60101.932674 
L 171.305241 241.477399 
L 170.289903 241.477399 
z
" clip-path="url(#p6dff601acc)" style="fill: #1f77b4"/>
   </g>
   <g id="patch_89">
    <path d="M 195.67337 60101.932674 
L 196.688709 60101.932674 
L 196.688709 277.484466 
L 195.67337 277.484466 
z
" clip-path="url(#p6dff601acc)" style="fill: #1f77b4"/>
   </g>
   <g id="patch_90">
    <path d="M 172.828249 60101.932674 
L 173.843588 60101.932674 
L 173.843588 248.94954 
L 172.828249 248.94954 
z
" clip-path="url(#p6dff601acc)" style="fill: #1f77b4"/>
   </g>
   <g id="patch_91">
    <path d="M 193.135023 60101.932674 
L 194.150362 60101.932674 
L 194.150362 253.685089 
L 193.135023 253.685089 
z
" clip-path="url(#p6dff601acc)" style="fill: #1f77b4"/>
   </g>
   <g id="patch_92">
    <path d="M 176.635769 60101.932674 
L 177.651108 60101.932674 
L 177.651108 253.685089 
L 176.635769 253.685089 
z
" clip-path="url(#p6dff601acc)" style="fill: #1f77b4"/>
   </g>
   <g id="patch_93">
    <path d="M 177.904943 60101.932674 
L 178.920281 60101.932674 
L 178.920281 238.418148 
L 177.904943 238.418148 
z
" clip-path="url(#p6dff601acc)" style="fill: #1f77b4"/>
   </g>
   <g id="patch_94">
    <path d="M 214.71097 60101.932674 
L 215.726309 60101.932674 
L 215.726309 295.488 
L 214.71097 295.488 
z
" clip-path="url(#p6dff601acc)" style="fill: #1f77b4"/>
   </g>
   <g id="patch_95">
    <path d="M 208.365103 60101.932674 
L 209.380442 60101.932674 
L 209.380442 266.953074 
L 208.365103 266.953074 
z
" clip-path="url(#p6dff601acc)" style="fill: #1f77b4"/>
   </g>
   <g id="patch_96">
    <path d="M 179.174116 60101.932674 
L 180.189455 60101.932674 
L 180.189455 230.946007 
L 179.174116 230.946007 
z
" clip-path="url(#p6dff601acc)" style="fill: #1f77b4"/>
   </g>
   <g id="patch_97">
    <path d="M 163.944036 60101.932674 
L 164.959375 60101.932674 
L 164.959375 233.206006 
L 163.944036 233.206006 
z
" clip-path="url(#p6dff601acc)" style="fill: #1f77b4"/>
   </g>
   <g id="patch_98">
    <path d="M 186.789156 60101.932674 
L 187.804495 60101.932674 
L 187.804495 248.94954 
L 186.789156 248.94954 
z
" clip-path="url(#p6dff601acc)" style="fill: #1f77b4"/>
   </g>
   <g id="patch_99">
    <path d="M 190.596676 60101.932674 
L 191.612015 60101.932674 
L 191.612015 253.685089 
L 190.596676 253.685089 
z
" clip-path="url(#p6dff601acc)" style="fill: #1f77b4"/>
   </g>
   <g id="patch_100">
    <path d="M 205.826757 60101.932674 
L 206.842095 60101.932674 
L 206.842095 266.953074 
L 205.826757 266.953074 
z
" clip-path="url(#p6dff601acc)" style="fill: #1f77b4"/>
   </g>
   <g id="patch_101">
    <path d="M 229.941051 60101.932674 
L 230.956389 60101.932674 
L 230.956389 277.484466 
L 229.941051 277.484466 
z
" clip-path="url(#p6dff601acc)" style="fill: #1f77b4"/>
   </g>
   <g id="patch_102">
    <path d="M 199.48089 60101.932674 
L 200.496229 60101.932674 
L 200.496229 253.685089 
L 199.48089 253.685089 
z
" clip-path="url(#p6dff601acc)" style="fill: #1f77b4"/>
   </g>
   <g id="patch_103">
    <path d="M 223.595184 60101.932674 
L 224.610522 60101.932674 
L 224.610522 266.953074 
L 223.595184 266.953074 
z
" clip-path="url(#p6dff601acc)" style="fill: #1f77b4"/>
   </g>
   <g id="patch_104">
    <path d="M 203.28841 60101.932674 
L 204.303749 60101.932674 
L 204.303749 266.953074 
L 203.28841 266.953074 
z
" clip-path="url(#p6dff601acc)" style="fill: #1f77b4"/>
   </g>
   <g id="patch_105">
    <path d="M 196.942543 60101.932674 
L 197.957882 60101.932674 
L 197.957882 253.685089 
L 196.942543 253.685089 
z
" clip-path="url(#p6dff601acc)" style="fill: #1f77b4"/>
   </g>
   <g id="patch_106">
    <path d="M 204.557583 60101.932674 
L 205.572922 60101.932674 
L 205.572922 295.488 
L 204.557583 295.488 
z
" clip-path="url(#p6dff601acc)" style="fill: #1f77b4"/>
   </g>
   <g id="patch_107">
    <path d="M 182.981636 60101.932674 
L 183.996975 60101.932674 
L 183.996975 253.685089 
L 182.981636 253.685089 
z
" clip-path="url(#p6dff601acc)" style="fill: #1f77b4"/>
   </g>
   <g id="patch_108">
    <path d="M 188.05833 60101.932674 
L 189.073668 60101.932674 
L 189.073668 277.484466 
L 188.05833 277.484466 
z
" clip-path="url(#p6dff601acc)" style="fill: #1f77b4"/>
   </g>
   <g id="patch_109">
    <path d="M 194.404196 60101.932674 
L 195.419535 60101.932674 
L 195.419535 266.953074 
L 194.404196 266.953074 
z
" clip-path="url(#p6dff601acc)" style="fill: #1f77b4"/>
   </g>
   <g id="patch_110">
    <path d="M 268.016251 60101.932674 
L 269.03159 60101.932674 
L 269.03159 295.488 
L 268.016251 295.488 
z
" clip-path="url(#p6dff601acc)" style="fill: #1f77b4"/>
   </g>
   <g id="patch_111">
    <path d="M 243.901957 60101.932674 
L 244.917296 60101.932674 
L 244.917296 295.488 
L 243.901957 295.488 
z
" clip-path="url(#p6dff601acc)" style="fill: #1f77b4"/>
   </g>
   <g id="patch_112">
    <path d="M 233.748571 60101.932674 
L 234.763909 60101.932674 
L 234.763909 295.488 
L 233.748571 295.488 
z
" clip-path="url(#p6dff601acc)" style="fill: #1f77b4"/>
   </g>
   <g id="patch_113">
    <path d="M 240.094437 60101.932674 
L 241.109776 60101.932674 
L 241.109776 295.488 
L 240.094437 295.488 
z
" clip-path="url(#p6dff601acc)" style="fill: #1f77b4"/>
   </g>
   <g id="patch_114">
    <path d="M 260.401211 60101.932674 
L 261.41655 60101.932674 
L 261.41655 295.488 
L 260.401211 295.488 
z
" clip-path="url(#p6dff601acc)" style="fill: #1f77b4"/>
   </g>
   <g id="patch_115">
    <path d="M 218.51849 60101.932674 
L 219.533829 60101.932674 
L 219.533829 259.480932 
L 218.51849 259.480932 
z
" clip-path="url(#p6dff601acc)" style="fill: #1f77b4"/>
   </g>
   <g id="patch_116">
    <path d="M 242.632784 60101.932674 
L 243.648123 60101.932674 
L 243.648123 295.488 
L 242.632784 295.488 
z
" clip-path="url(#p6dff601acc)" style="fill: #1f77b4"/>
   </g>
   <g id="patch_117">
    <path d="M 198.211717 60101.932674 
L 199.227055 60101.932674 
L 199.227055 277.484466 
L 198.211717 277.484466 
z
" clip-path="url(#p6dff601acc)" style="fill: #1f77b4"/>
   </g>
   <g id="patch_118">
    <path d="M 215.980144 60101.932674 
L 216.995482 60101.932674 
L 216.995482 295.488 
L 215.980144 295.488 
z
" clip-path="url(#p6dff601acc)" style="fill: #1f77b4"/>
   </g>
   <g id="patch_119">
    <path d="M 191.86585 60101.932674 
L 192.881188 60101.932674 
L 192.881188 277.484466 
L 191.86585 277.484466 
z
" clip-path="url(#p6dff601acc)" style="fill: #1f77b4"/>
   </g>
   <g id="patch_120">
    <path d="M 207.09593 60101.932674 
L 208.111269 60101.932674 
L 208.111269 295.488 
L 207.09593 295.488 
z
" clip-path="url(#p6dff601acc)" style="fill: #1f77b4"/>
   </g>
   <g id="patch_121">
    <path d="M 246.440304 60101.932674 
L 247.455643 60101.932674 
L 247.455643 295.488 
L 246.440304 295.488 
z
" clip-path="url(#p6dff601acc)" style="fill: #1f77b4"/>
   </g>
   <g id="patch_122">
    <path d="M 221.056837 60101.932674 
L 222.072176 60101.932674 
L 222.072176 295.488 
L 221.056837 295.488 
z
" clip-path="url(#p6dff601acc)" style="fill: #1f77b4"/>
   </g>
   <g id="patch_123">
    <path d="M 290.861372 60101.932674 
L 291.87671 60101.932674 
L 291.87671 295.488 
L 290.861372 295.488 
z
" clip-path="url(#p6dff601acc)" style="fill: #1f77b4"/>
   </g>
   <g id="patch_124">
    <path d="M 200.750063 60101.932674 
L 201.765402 60101.932674 
L 201.765402 295.488 
L 200.750063 295.488 
z
" clip-path="url(#p6dff601acc)" style="fill: #1f77b4"/>
   </g>
   <g id="patch_125">
    <path d="M 226.13353 60101.932674 
L 227.148869 60101.932674 
L 227.148869 295.488 
L 226.13353 295.488 
z
" clip-path="url(#p6dff601acc)" style="fill: #1f77b4"/>
   </g>
   <g id="patch_126">
    <path d="M 232.479397 60101.932674 
L 233.494736 60101.932674 
L 233.494736 295.488 
L 232.479397 295.488 
z
" clip-path="url(#p6dff601acc)" style="fill: #1f77b4"/>
   </g>
   <g id="patch_127">
    <path d="M 273.092945 60101.932674 
L 274.108283 60101.932674 
L 274.108283 295.488 
L 273.092945 295.488 
z
" clip-path="url(#p6dff601acc)" style="fill: #1f77b4"/>
   </g>
   <g id="patch_128">
    <path d="M 397.471934 60101.932674 
L 398.487273 60101.932674 
L 398.487273 295.488 
L 397.471934 295.488 
z
" clip-path="url(#p6dff601acc)" style="fill: #1f77b4"/>
   </g>
   <g id="patch_129">
    <path d="M 361.93508 60101.932674 
L 362.950419 60101.932674 
L 362.950419 295.488 
L 361.93508 295.488 
z
" clip-path="url(#p6dff601acc)" style="fill: #1f77b4"/>
   </g>
   <g id="patch_130">
    <path d="M 370.819293 60101.932674 
L 371.834632 60101.932674 
L 371.834632 295.488 
L 370.819293 295.488 
z
" clip-path="url(#p6dff601acc)" style="fill: #1f77b4"/>
   </g>
   <g id="matplotlib.axis_1">
    <g id="xtick_1">
     <g id="line2d_1">
      <defs>
       <path id="m4926c76b37" d="M 0 0 
L 0 3.5 
" style="stroke: #000000; stroke-width: 0.8"/>
      </defs>
      <g>
       <use xlink:href="#m4926c76b37" x="74.340397" y="307.584" style="stroke: #000000; stroke-width: 0.8"/>
      </g>
     </g>
     <g id="text_1">
      <!-- 0 -->
      <g transform="translate(71.159147 322.182437) scale(0.1 -0.1)">
       <defs>
        <path id="DejaVuSans-30" d="M 2034 4250 
Q 1547 4250 1301 3770 
Q 1056 3291 1056 2328 
Q 1056 1369 1301 889 
Q 1547 409 2034 409 
Q 2525 409 2770 889 
Q 3016 1369 3016 2328 
Q 3016 3291 2770 3770 
Q 2525 4250 2034 4250 
z
M 2034 4750 
Q 2819 4750 3233 4129 
Q 3647 3509 3647 2328 
Q 3647 1150 3233 529 
Q 2819 -91 2034 -91 
Q 1250 -91 836 529 
Q 422 1150 422 2328 
Q 422 3509 836 4129 
Q 1250 4750 2034 4750 
z
" transform="scale(0.015625)"/>
       </defs>
       <use xlink:href="#DejaVuSans-30"/>
      </g>
     </g>
    </g>
    <g id="xtick_2">
     <g id="line2d_2">
      <g>
       <use xlink:href="#m4926c76b37" x="137.799065" y="307.584" style="stroke: #000000; stroke-width: 0.8"/>
      </g>
     </g>
     <g id="text_2">
      <!-- 50 -->
      <g transform="translate(131.436565 322.182437) scale(0.1 -0.1)">
       <defs>
        <path id="DejaVuSans-35" d="M 691 4666 
L 3169 4666 
L 3169 4134 
L 1269 4134 
L 1269 2991 
Q 1406 3038 1543 3061 
Q 1681 3084 1819 3084 
Q 2600 3084 3056 2656 
Q 3513 2228 3513 1497 
Q 3513 744 3044 326 
Q 2575 -91 1722 -91 
Q 1428 -91 1123 -41 
Q 819 9 494 109 
L 494 744 
Q 775 591 1075 516 
Q 1375 441 1709 441 
Q 2250 441 2565 725 
Q 2881 1009 2881 1497 
Q 2881 1984 2565 2268 
Q 2250 2553 1709 2553 
Q 1456 2553 1204 2497 
Q 953 2441 691 2322 
L 691 4666 
z
" transform="scale(0.015625)"/>
       </defs>
       <use xlink:href="#DejaVuSans-35"/>
       <use xlink:href="#DejaVuSans-30" x="63.623047"/>
      </g>
     </g>
    </g>
    <g id="xtick_3">
     <g id="line2d_3">
      <g>
       <use xlink:href="#m4926c76b37" x="201.257733" y="307.584" style="stroke: #000000; stroke-width: 0.8"/>
      </g>
     </g>
     <g id="text_3">
      <!-- 100 -->
      <g transform="translate(191.713983 322.182437) scale(0.1 -0.1)">
       <defs>
        <path id="DejaVuSans-31" d="M 794 531 
L 1825 531 
L 1825 4091 
L 703 3866 
L 703 4441 
L 1819 4666 
L 2450 4666 
L 2450 531 
L 3481 531 
L 3481 0 
L 794 0 
L 794 531 
z
" transform="scale(0.015625)"/>
       </defs>
       <use xlink:href="#DejaVuSans-31"/>
       <use xlink:href="#DejaVuSans-30" x="63.623047"/>
       <use xlink:href="#DejaVuSans-30" x="127.246094"/>
      </g>
     </g>
    </g>
    <g id="xtick_4">
     <g id="line2d_4">
      <g>
       <use xlink:href="#m4926c76b37" x="264.716401" y="307.584" style="stroke: #000000; stroke-width: 0.8"/>
      </g>
     </g>
     <g id="text_4">
      <!-- 150 -->
      <g transform="translate(255.172651 322.182437) scale(0.1 -0.1)">
       <use xlink:href="#DejaVuSans-31"/>
       <use xlink:href="#DejaVuSans-35" x="63.623047"/>
       <use xlink:href="#DejaVuSans-30" x="127.246094"/>
      </g>
     </g>
    </g>
    <g id="xtick_5">
     <g id="line2d_5">
      <g>
       <use xlink:href="#m4926c76b37" x="328.175069" y="307.584" style="stroke: #000000; stroke-width: 0.8"/>
      </g>
     </g>
     <g id="text_5">
      <!-- 200 -->
      <g transform="translate(318.631319 322.182437) scale(0.1 -0.1)">
       <defs>
        <path id="DejaVuSans-32" d="M 1228 531 
L 3431 531 
L 3431 0 
L 469 0 
L 469 531 
Q 828 903 1448 1529 
Q 2069 2156 2228 2338 
Q 2531 2678 2651 2914 
Q 2772 3150 2772 3378 
Q 2772 3750 2511 3984 
Q 2250 4219 1831 4219 
Q 1534 4219 1204 4116 
Q 875 4013 500 3803 
L 500 4441 
Q 881 4594 1212 4672 
Q 1544 4750 1819 4750 
Q 2544 4750 2975 4387 
Q 3406 4025 3406 3419 
Q 3406 3131 3298 2873 
Q 3191 2616 2906 2266 
Q 2828 2175 2409 1742 
Q 1991 1309 1228 531 
z
" transform="scale(0.015625)"/>
       </defs>
       <use xlink:href="#DejaVuSans-32"/>
       <use xlink:href="#DejaVuSans-30" x="63.623047"/>
       <use xlink:href="#DejaVuSans-30" x="127.246094"/>
      </g>
     </g>
    </g>
    <g id="xtick_6">
     <g id="line2d_6">
      <g>
       <use xlink:href="#m4926c76b37" x="391.633737" y="307.584" style="stroke: #000000; stroke-width: 0.8"/>
      </g>
     </g>
     <g id="text_6">
      <!-- 250 -->
      <g transform="translate(382.089987 322.182437) scale(0.1 -0.1)">
       <use xlink:href="#DejaVuSans-32"/>
       <use xlink:href="#DejaVuSans-35" x="63.623047"/>
       <use xlink:href="#DejaVuSans-30" x="127.246094"/>
      </g>
     </g>
    </g>
    <g id="text_7">
     <!-- Depth of Element -->
     <g transform="translate(192.231875 335.860562) scale(0.1 -0.1)">
      <defs>
       <path id="DejaVuSans-44" d="M 1259 4147 
L 1259 519 
L 2022 519 
Q 2988 519 3436 956 
Q 3884 1394 3884 2338 
Q 3884 3275 3436 3711 
Q 2988 4147 2022 4147 
L 1259 4147 
z
M 628 4666 
L 1925 4666 
Q 3281 4666 3915 4102 
Q 4550 3538 4550 2338 
Q 4550 1131 3912 565 
Q 3275 0 1925 0 
L 628 0 
L 628 4666 
z
" transform="scale(0.015625)"/>
       <path id="DejaVuSans-65" d="M 3597 1894 
L 3597 1613 
L 953 1613 
Q 991 1019 1311 708 
Q 1631 397 2203 397 
Q 2534 397 2845 478 
Q 3156 559 3463 722 
L 3463 178 
Q 3153 47 2828 -22 
Q 2503 -91 2169 -91 
Q 1331 -91 842 396 
Q 353 884 353 1716 
Q 353 2575 817 3079 
Q 1281 3584 2069 3584 
Q 2775 3584 3186 3129 
Q 3597 2675 3597 1894 
z
M 3022 2063 
Q 3016 2534 2758 2815 
Q 2500 3097 2075 3097 
Q 1594 3097 1305 2825 
Q 1016 2553 972 2059 
L 3022 2063 
z
" transform="scale(0.015625)"/>
       <path id="DejaVuSans-70" d="M 1159 525 
L 1159 -1331 
L 581 -1331 
L 581 3500 
L 1159 3500 
L 1159 2969 
Q 1341 3281 1617 3432 
Q 1894 3584 2278 3584 
Q 2916 3584 3314 3078 
Q 3713 2572 3713 1747 
Q 3713 922 3314 415 
Q 2916 -91 2278 -91 
Q 1894 -91 1617 61 
Q 1341 213 1159 525 
z
M 3116 1747 
Q 3116 2381 2855 2742 
Q 2594 3103 2138 3103 
Q 1681 3103 1420 2742 
Q 1159 2381 1159 1747 
Q 1159 1113 1420 752 
Q 1681 391 2138 391 
Q 2594 391 2855 752 
Q 3116 1113 3116 1747 
z
" transform="scale(0.015625)"/>
       <path id="DejaVuSans-74" d="M 1172 4494 
L 1172 3500 
L 2356 3500 
L 2356 3053 
L 1172 3053 
L 1172 1153 
Q 1172 725 1289 603 
Q 1406 481 1766 481 
L 2356 481 
L 2356 0 
L 1766 0 
Q 1100 0 847 248 
Q 594 497 594 1153 
L 594 3053 
L 172 3053 
L 172 3500 
L 594 3500 
L 594 4494 
L 1172 4494 
z
" transform="scale(0.015625)"/>
       <path id="DejaVuSans-68" d="M 3513 2113 
L 3513 0 
L 2938 0 
L 2938 2094 
Q 2938 2591 2744 2837 
Q 2550 3084 2163 3084 
Q 1697 3084 1428 2787 
Q 1159 2491 1159 1978 
L 1159 0 
L 581 0 
L 581 4863 
L 1159 4863 
L 1159 2956 
Q 1366 3272 1645 3428 
Q 1925 3584 2291 3584 
Q 2894 3584 3203 3211 
Q 3513 2838 3513 2113 
z
" transform="scale(0.015625)"/>
       <path id="DejaVuSans-20" transform="scale(0.015625)"/>
       <path id="DejaVuSans-6f" d="M 1959 3097 
Q 1497 3097 1228 2736 
Q 959 2375 959 1747 
Q 959 1119 1226 758 
Q 1494 397 1959 397 
Q 2419 397 2687 759 
Q 2956 1122 2956 1747 
Q 2956 2369 2687 2733 
Q 2419 3097 1959 3097 
z
M 1959 3584 
Q 2709 3584 3137 3096 
Q 3566 2609 3566 1747 
Q 3566 888 3137 398 
Q 2709 -91 1959 -91 
Q 1206 -91 779 398 
Q 353 888 353 1747 
Q 353 2609 779 3096 
Q 1206 3584 1959 3584 
z
" transform="scale(0.015625)"/>
       <path id="DejaVuSans-66" d="M 2375 4863 
L 2375 4384 
L 1825 4384 
Q 1516 4384 1395 4259 
Q 1275 4134 1275 3809 
L 1275 3500 
L 2222 3500 
L 2222 3053 
L 1275 3053 
L 1275 0 
L 697 0 
L 697 3053 
L 147 3053 
L 147 3500 
L 697 3500 
L 697 3744 
Q 697 4328 969 4595 
Q 1241 4863 1831 4863 
L 2375 4863 
z
" transform="scale(0.015625)"/>
       <path id="DejaVuSans-45" d="M 628 4666 
L 3578 4666 
L 3578 4134 
L 1259 4134 
L 1259 2753 
L 3481 2753 
L 3481 2222 
L 1259 2222 
L 1259 531 
L 3634 531 
L 3634 0 
L 628 0 
L 628 4666 
z
" transform="scale(0.015625)"/>
       <path id="DejaVuSans-6c" d="M 603 4863 
L 1178 4863 
L 1178 0 
L 603 0 
L 603 4863 
z
" transform="scale(0.015625)"/>
       <path id="DejaVuSans-6d" d="M 3328 2828 
Q 3544 3216 3844 3400 
Q 4144 3584 4550 3584 
Q 5097 3584 5394 3201 
Q 5691 2819 5691 2113 
L 5691 0 
L 5113 0 
L 5113 2094 
Q 5113 2597 4934 2840 
Q 4756 3084 4391 3084 
Q 3944 3084 3684 2787 
Q 3425 2491 3425 1978 
L 3425 0 
L 2847 0 
L 2847 2094 
Q 2847 2600 2669 2842 
Q 2491 3084 2119 3084 
Q 1678 3084 1418 2786 
Q 1159 2488 1159 1978 
L 1159 0 
L 581 0 
L 581 3500 
L 1159 3500 
L 1159 2956 
Q 1356 3278 1631 3431 
Q 1906 3584 2284 3584 
Q 2666 3584 2933 3390 
Q 3200 3197 3328 2828 
z
" transform="scale(0.015625)"/>
       <path id="DejaVuSans-6e" d="M 3513 2113 
L 3513 0 
L 2938 0 
L 2938 2094 
Q 2938 2591 2744 2837 
Q 2550 3084 2163 3084 
Q 1697 3084 1428 2787 
Q 1159 2491 1159 1978 
L 1159 0 
L 581 0 
L 581 3500 
L 1159 3500 
L 1159 2956 
Q 1366 3272 1645 3428 
Q 1925 3584 2291 3584 
Q 2894 3584 3203 3211 
Q 3513 2838 3513 2113 
z
" transform="scale(0.015625)"/>
      </defs>
      <use xlink:href="#DejaVuSans-44"/>
      <use xlink:href="#DejaVuSans-65" x="77.001953"/>
      <use xlink:href="#DejaVuSans-70" x="138.525391"/>
      <use xlink:href="#DejaVuSans-74" x="202.001953"/>
      <use xlink:href="#DejaVuSans-68" x="241.210938"/>
      <use xlink:href="#DejaVuSans-20" x="304.589844"/>
      <use xlink:href="#DejaVuSans-6f" x="336.376953"/>
      <use xlink:href="#DejaVuSans-66" x="397.558594"/>
      <use xlink:href="#DejaVuSans-20" x="432.763672"/>
      <use xlink:href="#DejaVuSans-45" x="464.550781"/>
      <use xlink:href="#DejaVuSans-6c" x="527.734375"/>
      <use xlink:href="#DejaVuSans-65" x="555.517578"/>
      <use xlink:href="#DejaVuSans-6d" x="617.041016"/>
      <use xlink:href="#DejaVuSans-65" x="714.453125"/>
      <use xlink:href="#DejaVuSans-6e" x="775.976562"/>
      <use xlink:href="#DejaVuSans-74" x="839.355469"/>
     </g>
    </g>
   </g>
   <g id="matplotlib.axis_2">
    <g id="ytick_1">
     <g id="line2d_7">
      <defs>
       <path id="m9ac166fb53" d="M 0 0 
L -3.5 0 
" style="stroke: #000000; stroke-width: 0.8"/>
      </defs>
      <g>
       <use xlink:href="#m9ac166fb53" x="57.6" y="295.488" style="stroke: #000000; stroke-width: 0.8"/>
      </g>
     </g>
     <g id="text_8">
      <!-- $\mathdefault{10^{0}}$ -->
      <g transform="translate(33 299.287219) scale(0.1 -0.1)">
       <use xlink:href="#DejaVuSans-31" transform="translate(0 0.765625)"/>
       <use xlink:href="#DejaVuSans-30" transform="translate(63.623047 0.765625)"/>
       <use xlink:href="#DejaVuSans-30" transform="translate(128.203125 39.046875) scale(0.7)"/>
      </g>
     </g>
    </g>
    <g id="ytick_2">
     <g id="line2d_8">
      <g>
       <use xlink:href="#m9ac166fb53" x="57.6" y="235.681555" style="stroke: #000000; stroke-width: 0.8"/>
      </g>
     </g>
     <g id="text_9">
      <!-- $\mathdefault{10^{1}}$ -->
      <g transform="translate(33 239.480774) scale(0.1 -0.1)">
       <use xlink:href="#DejaVuSans-31" transform="translate(0 0.684375)"/>
       <use xlink:href="#DejaVuSans-30" transform="translate(63.623047 0.684375)"/>
       <use xlink:href="#DejaVuSans-31" transform="translate(128.203125 38.965625) scale(0.7)"/>
      </g>
     </g>
    </g>
    <g id="ytick_3">
     <g id="line2d_9">
      <g>
       <use xlink:href="#m9ac166fb53" x="57.6" y="175.875111" style="stroke: #000000; stroke-width: 0.8"/>
      </g>
     </g>
     <g id="text_10">
      <!-- $\mathdefault{10^{2}}$ -->
      <g transform="translate(33 179.674329) scale(0.1 -0.1)">
       <use xlink:href="#DejaVuSans-31" transform="translate(0 0.765625)"/>
       <use xlink:href="#DejaVuSans-30" transform="translate(63.623047 0.765625)"/>
       <use xlink:href="#DejaVuSans-32" transform="translate(128.203125 39.046875) scale(0.7)"/>
      </g>
     </g>
    </g>
    <g id="ytick_4">
     <g id="line2d_10">
      <g>
       <use xlink:href="#m9ac166fb53" x="57.6" y="116.068666" style="stroke: #000000; stroke-width: 0.8"/>
      </g>
     </g>
     <g id="text_11">
      <!-- $\mathdefault{10^{3}}$ -->
      <g transform="translate(33 119.867885) scale(0.1 -0.1)">
       <defs>
        <path id="DejaVuSans-33" d="M 2597 2516 
Q 3050 2419 3304 2112 
Q 3559 1806 3559 1356 
Q 3559 666 3084 287 
Q 2609 -91 1734 -91 
Q 1441 -91 1130 -33 
Q 819 25 488 141 
L 488 750 
Q 750 597 1062 519 
Q 1375 441 1716 441 
Q 2309 441 2620 675 
Q 2931 909 2931 1356 
Q 2931 1769 2642 2001 
Q 2353 2234 1838 2234 
L 1294 2234 
L 1294 2753 
L 1863 2753 
Q 2328 2753 2575 2939 
Q 2822 3125 2822 3475 
Q 2822 3834 2567 4026 
Q 2313 4219 1838 4219 
Q 1578 4219 1281 4162 
Q 984 4106 628 3988 
L 628 4550 
Q 988 4650 1302 4700 
Q 1616 4750 1894 4750 
Q 2613 4750 3031 4423 
Q 3450 4097 3450 3541 
Q 3450 3153 3228 2886 
Q 3006 2619 2597 2516 
z
" transform="scale(0.015625)"/>
       </defs>
       <use xlink:href="#DejaVuSans-31" transform="translate(0 0.765625)"/>
       <use xlink:href="#DejaVuSans-30" transform="translate(63.623047 0.765625)"/>
       <use xlink:href="#DejaVuSans-33" transform="translate(128.203125 39.046875) scale(0.7)"/>
      </g>
     </g>
    </g>
    <g id="ytick_5">
     <g id="line2d_11">
      <g>
       <use xlink:href="#m9ac166fb53" x="57.6" y="56.262221" style="stroke: #000000; stroke-width: 0.8"/>
      </g>
     </g>
     <g id="text_12">
      <!-- $\mathdefault{10^{4}}$ -->
      <g transform="translate(33 60.06144) scale(0.1 -0.1)">
       <defs>
        <path id="DejaVuSans-34" d="M 2419 4116 
L 825 1625 
L 2419 1625 
L 2419 4116 
z
M 2253 4666 
L 3047 4666 
L 3047 1625 
L 3713 1625 
L 3713 1100 
L 3047 1100 
L 3047 0 
L 2419 0 
L 2419 1100 
L 313 1100 
L 313 1709 
L 2253 4666 
z
" transform="scale(0.015625)"/>
       </defs>
       <use xlink:href="#DejaVuSans-31" transform="translate(0 0.684375)"/>
       <use xlink:href="#DejaVuSans-30" transform="translate(63.623047 0.684375)"/>
       <use xlink:href="#DejaVuSans-34" transform="translate(128.203125 38.965625) scale(0.7)"/>
      </g>
     </g>
    </g>
    <g id="ytick_6">
     <g id="line2d_12">
      <defs>
       <path id="mdbd32cd988" d="M 0 0 
L -2 0 
" style="stroke: #000000; stroke-width: 0.6"/>
      </defs>
      <g>
       <use xlink:href="#mdbd32cd988" x="57.6" y="304.752135" style="stroke: #000000; stroke-width: 0.6"/>
      </g>
     </g>
    </g>
    <g id="ytick_7">
     <g id="line2d_13">
      <g>
       <use xlink:href="#mdbd32cd988" x="57.6" y="301.283843" style="stroke: #000000; stroke-width: 0.6"/>
      </g>
     </g>
    </g>
    <g id="ytick_8">
     <g id="line2d_14">
      <g>
       <use xlink:href="#mdbd32cd988" x="57.6" y="298.224593" style="stroke: #000000; stroke-width: 0.6"/>
      </g>
     </g>
    </g>
    <g id="ytick_9">
     <g id="line2d_15">
      <g>
       <use xlink:href="#mdbd32cd988" x="57.6" y="277.484466" style="stroke: #000000; stroke-width: 0.6"/>
      </g>
     </g>
    </g>
    <g id="ytick_10">
     <g id="line2d_16">
      <g>
       <use xlink:href="#mdbd32cd988" x="57.6" y="266.953074" style="stroke: #000000; stroke-width: 0.6"/>
      </g>
     </g>
    </g>
    <g id="ytick_11">
     <g id="line2d_17">
      <g>
       <use xlink:href="#mdbd32cd988" x="57.6" y="259.480932" style="stroke: #000000; stroke-width: 0.6"/>
      </g>
     </g>
    </g>
    <g id="ytick_12">
     <g id="line2d_18">
      <g>
       <use xlink:href="#mdbd32cd988" x="57.6" y="253.685089" style="stroke: #000000; stroke-width: 0.6"/>
      </g>
     </g>
    </g>
    <g id="ytick_13">
     <g id="line2d_19">
      <g>
       <use xlink:href="#mdbd32cd988" x="57.6" y="248.94954" style="stroke: #000000; stroke-width: 0.6"/>
      </g>
     </g>
    </g>
    <g id="ytick_14">
     <g id="line2d_20">
      <g>
       <use xlink:href="#mdbd32cd988" x="57.6" y="244.945691" style="stroke: #000000; stroke-width: 0.6"/>
      </g>
     </g>
    </g>
    <g id="ytick_15">
     <g id="line2d_21">
      <g>
       <use xlink:href="#mdbd32cd988" x="57.6" y="241.477399" style="stroke: #000000; stroke-width: 0.6"/>
      </g>
     </g>
    </g>
    <g id="ytick_16">
     <g id="line2d_22">
      <g>
       <use xlink:href="#mdbd32cd988" x="57.6" y="238.418148" style="stroke: #000000; stroke-width: 0.6"/>
      </g>
     </g>
    </g>
    <g id="ytick_17">
     <g id="line2d_23">
      <g>
       <use xlink:href="#mdbd32cd988" x="57.6" y="217.678022" style="stroke: #000000; stroke-width: 0.6"/>
      </g>
     </g>
    </g>
    <g id="ytick_18">
     <g id="line2d_24">
      <g>
       <use xlink:href="#mdbd32cd988" x="57.6" y="207.146629" style="stroke: #000000; stroke-width: 0.6"/>
      </g>
     </g>
    </g>
    <g id="ytick_19">
     <g id="line2d_25">
      <g>
       <use xlink:href="#mdbd32cd988" x="57.6" y="199.674488" style="stroke: #000000; stroke-width: 0.6"/>
      </g>
     </g>
    </g>
    <g id="ytick_20">
     <g id="line2d_26">
      <g>
       <use xlink:href="#mdbd32cd988" x="57.6" y="193.878644" style="stroke: #000000; stroke-width: 0.6"/>
      </g>
     </g>
    </g>
    <g id="ytick_21">
     <g id="line2d_27">
      <g>
       <use xlink:href="#mdbd32cd988" x="57.6" y="189.143096" style="stroke: #000000; stroke-width: 0.6"/>
      </g>
     </g>
    </g>
    <g id="ytick_22">
     <g id="line2d_28">
      <g>
       <use xlink:href="#mdbd32cd988" x="57.6" y="185.139246" style="stroke: #000000; stroke-width: 0.6"/>
      </g>
     </g>
    </g>
    <g id="ytick_23">
     <g id="line2d_29">
      <g>
       <use xlink:href="#mdbd32cd988" x="57.6" y="181.670954" style="stroke: #000000; stroke-width: 0.6"/>
      </g>
     </g>
    </g>
    <g id="ytick_24">
     <g id="line2d_30">
      <g>
       <use xlink:href="#mdbd32cd988" x="57.6" y="178.611703" style="stroke: #000000; stroke-width: 0.6"/>
      </g>
     </g>
    </g>
    <g id="ytick_25">
     <g id="line2d_31">
      <g>
       <use xlink:href="#mdbd32cd988" x="57.6" y="157.871577" style="stroke: #000000; stroke-width: 0.6"/>
      </g>
     </g>
    </g>
    <g id="ytick_26">
     <g id="line2d_32">
      <g>
       <use xlink:href="#mdbd32cd988" x="57.6" y="147.340185" style="stroke: #000000; stroke-width: 0.6"/>
      </g>
     </g>
    </g>
    <g id="ytick_27">
     <g id="line2d_33">
      <g>
       <use xlink:href="#mdbd32cd988" x="57.6" y="139.868043" style="stroke: #000000; stroke-width: 0.6"/>
      </g>
     </g>
    </g>
    <g id="ytick_28">
     <g id="line2d_34">
      <g>
       <use xlink:href="#mdbd32cd988" x="57.6" y="134.0722" style="stroke: #000000; stroke-width: 0.6"/>
      </g>
     </g>
    </g>
    <g id="ytick_29">
     <g id="line2d_35">
      <g>
       <use xlink:href="#mdbd32cd988" x="57.6" y="129.336651" style="stroke: #000000; stroke-width: 0.6"/>
      </g>
     </g>
    </g>
    <g id="ytick_30">
     <g id="line2d_36">
      <g>
       <use xlink:href="#mdbd32cd988" x="57.6" y="125.332801" style="stroke: #000000; stroke-width: 0.6"/>
      </g>
     </g>
    </g>
    <g id="ytick_31">
     <g id="line2d_37">
      <g>
       <use xlink:href="#mdbd32cd988" x="57.6" y="121.864509" style="stroke: #000000; stroke-width: 0.6"/>
      </g>
     </g>
    </g>
    <g id="ytick_32">
     <g id="line2d_38">
      <g>
       <use xlink:href="#mdbd32cd988" x="57.6" y="118.805259" style="stroke: #000000; stroke-width: 0.6"/>
      </g>
     </g>
    </g>
    <g id="ytick_33">
     <g id="line2d_39">
      <g>
       <use xlink:href="#mdbd32cd988" x="57.6" y="98.065132" style="stroke: #000000; stroke-width: 0.6"/>
      </g>
     </g>
    </g>
    <g id="ytick_34">
     <g id="line2d_40">
      <g>
       <use xlink:href="#mdbd32cd988" x="57.6" y="87.53374" style="stroke: #000000; stroke-width: 0.6"/>
      </g>
     </g>
    </g>
    <g id="ytick_35">
     <g id="line2d_41">
      <g>
       <use xlink:href="#mdbd32cd988" x="57.6" y="80.061598" style="stroke: #000000; stroke-width: 0.6"/>
      </g>
     </g>
    </g>
    <g id="ytick_36">
     <g id="line2d_42">
      <g>
       <use xlink:href="#mdbd32cd988" x="57.6" y="74.265755" style="stroke: #000000; stroke-width: 0.6"/>
      </g>
     </g>
    </g>
    <g id="ytick_37">
     <g id="line2d_43">
      <g>
       <use xlink:href="#mdbd32cd988" x="57.6" y="69.530206" style="stroke: #000000; stroke-width: 0.6"/>
      </g>
     </g>
    </g>
    <g id="ytick_38">
     <g id="line2d_44">
      <g>
       <use xlink:href="#mdbd32cd988" x="57.6" y="65.526357" style="stroke: #000000; stroke-width: 0.6"/>
      </g>
     </g>
    </g>
    <g id="ytick_39">
     <g id="line2d_45">
      <g>
       <use xlink:href="#mdbd32cd988" x="57.6" y="62.058065" style="stroke: #000000; stroke-width: 0.6"/>
      </g>
     </g>
    </g>
    <g id="ytick_40">
     <g id="line2d_46">
      <g>
       <use xlink:href="#mdbd32cd988" x="57.6" y="58.998814" style="stroke: #000000; stroke-width: 0.6"/>
      </g>
     </g>
    </g>
    <g id="text_13">
     <!-- Number of Elements -->
     <g transform="translate(26.920312 225.917062) rotate(-90) scale(0.1 -0.1)">
      <defs>
       <path id="DejaVuSans-4e" d="M 628 4666 
L 1478 4666 
L 3547 763 
L 3547 4666 
L 4159 4666 
L 4159 0 
L 3309 0 
L 1241 3903 
L 1241 0 
L 628 0 
L 628 4666 
z
" transform="scale(0.015625)"/>
       <path id="DejaVuSans-75" d="M 544 1381 
L 544 3500 
L 1119 3500 
L 1119 1403 
Q 1119 906 1312 657 
Q 1506 409 1894 409 
Q 2359 409 2629 706 
Q 2900 1003 2900 1516 
L 2900 3500 
L 3475 3500 
L 3475 0 
L 2900 0 
L 2900 538 
Q 2691 219 2414 64 
Q 2138 -91 1772 -91 
Q 1169 -91 856 284 
Q 544 659 544 1381 
z
M 1991 3584 
L 1991 3584 
z
" transform="scale(0.015625)"/>
       <path id="DejaVuSans-62" d="M 3116 1747 
Q 3116 2381 2855 2742 
Q 2594 3103 2138 3103 
Q 1681 3103 1420 2742 
Q 1159 2381 1159 1747 
Q 1159 1113 1420 752 
Q 1681 391 2138 391 
Q 2594 391 2855 752 
Q 3116 1113 3116 1747 
z
M 1159 2969 
Q 1341 3281 1617 3432 
Q 1894 3584 2278 3584 
Q 2916 3584 3314 3078 
Q 3713 2572 3713 1747 
Q 3713 922 3314 415 
Q 2916 -91 2278 -91 
Q 1894 -91 1617 61 
Q 1341 213 1159 525 
L 1159 0 
L 581 0 
L 581 4863 
L 1159 4863 
L 1159 2969 
z
" transform="scale(0.015625)"/>
       <path id="DejaVuSans-72" d="M 2631 2963 
Q 2534 3019 2420 3045 
Q 2306 3072 2169 3072 
Q 1681 3072 1420 2755 
Q 1159 2438 1159 1844 
L 1159 0 
L 581 0 
L 581 3500 
L 1159 3500 
L 1159 2956 
Q 1341 3275 1631 3429 
Q 1922 3584 2338 3584 
Q 2397 3584 2469 3576 
Q 2541 3569 2628 3553 
L 2631 2963 
z
" transform="scale(0.015625)"/>
       <path id="DejaVuSans-73" d="M 2834 3397 
L 2834 2853 
Q 2591 2978 2328 3040 
Q 2066 3103 1784 3103 
Q 1356 3103 1142 2972 
Q 928 2841 928 2578 
Q 928 2378 1081 2264 
Q 1234 2150 1697 2047 
L 1894 2003 
Q 2506 1872 2764 1633 
Q 3022 1394 3022 966 
Q 3022 478 2636 193 
Q 2250 -91 1575 -91 
Q 1294 -91 989 -36 
Q 684 19 347 128 
L 347 722 
Q 666 556 975 473 
Q 1284 391 1588 391 
Q 1994 391 2212 530 
Q 2431 669 2431 922 
Q 2431 1156 2273 1281 
Q 2116 1406 1581 1522 
L 1381 1569 
Q 847 1681 609 1914 
Q 372 2147 372 2553 
Q 372 3047 722 3315 
Q 1072 3584 1716 3584 
Q 2034 3584 2315 3537 
Q 2597 3491 2834 3397 
z
" transform="scale(0.015625)"/>
      </defs>
      <use xlink:href="#DejaVuSans-4e"/>
      <use xlink:href="#DejaVuSans-75" x="74.804688"/>
      <use xlink:href="#DejaVuSans-6d" x="138.183594"/>
      <use xlink:href="#DejaVuSans-62" x="235.595703"/>
      <use xlink:href="#DejaVuSans-65" x="299.072266"/>
      <use xlink:href="#DejaVuSans-72" x="360.595703"/>
      <use xlink:href="#DejaVuSans-20" x="401.708984"/>
      <use xlink:href="#DejaVuSans-6f" x="433.496094"/>
      <use xlink:href="#DejaVuSans-66" x="494.677734"/>
      <use xlink:href="#DejaVuSans-20" x="529.882812"/>
      <use xlink:href="#DejaVuSans-45" x="561.669922"/>
      <use xlink:href="#DejaVuSans-6c" x="624.853516"/>
      <use xlink:href="#DejaVuSans-65" x="652.636719"/>
      <use xlink:href="#DejaVuSans-6d" x="714.160156"/>
      <use xlink:href="#DejaVuSans-65" x="811.572266"/>
      <use xlink:href="#DejaVuSans-6e" x="873.095703"/>
      <use xlink:href="#DejaVuSans-74" x="936.474609"/>
      <use xlink:href="#DejaVuSans-73" x="975.683594"/>
     </g>
    </g>
   </g>
   <g id="patch_131">
    <path d="M 57.6 307.584 
L 57.6 41.472 
" style="fill: none; stroke: #000000; stroke-width: 0.8; stroke-linejoin: miter; stroke-linecap: square"/>
   </g>
   <g id="patch_132">
    <path d="M 414.72 307.584 
L 414.72 41.472 
" style="fill: none; stroke: #000000; stroke-width: 0.8; stroke-linejoin: miter; stroke-linecap: square"/>
   </g>
   <g id="patch_133">
    <path d="M 57.6 307.584 
L 414.72 307.584 
" style="fill: none; stroke: #000000; stroke-width: 0.8; stroke-linejoin: miter; stroke-linecap: square"/>
   </g>
   <g id="patch_134">
    <path d="M 57.6 41.472 
L 414.72 41.472 
" style="fill: none; stroke: #000000; stroke-width: 0.8; stroke-linejoin: miter; stroke-linecap: square"/>
   </g>
  </g>
 </g>
 <defs>
  <clipPath id="p6dff601acc">
   <rect x="57.6" y="41.472" width="357.12" height="266.112"/>
  </clipPath>
 </defs>
</svg>
