<?xml version="1.0" encoding="utf-8" standalone="no"?>
<!DOCTYPE svg PUBLIC "-//W3C//DTD SVG 1.1//EN"
  "http://www.w3.org/Graphics/SVG/1.1/DTD/svg11.dtd">
<svg xmlns:xlink="http://www.w3.org/1999/xlink" width="460.8pt" height="345.6pt" viewBox="0 0 460.8 345.6" xmlns="http://www.w3.org/2000/svg" version="1.1">
 <metadata>
  <rdf:RDF xmlns:dc="http://purl.org/dc/elements/1.1/" xmlns:cc="http://creativecommons.org/ns#" xmlns:rdf="http://www.w3.org/1999/02/22-rdf-syntax-ns#">
   <cc:Work>
    <dc:type rdf:resource="http://purl.org/dc/dcmitype/StillImage"/>
    <dc:date>2024-03-08T23:46:24.321420</dc:date>
    <dc:format>image/svg+xml</dc:format>
    <dc:creator>
     <cc:Agent>
      <dc:title>Matplotlib v3.8.3, https://matplotlib.org/</dc:title>
     </cc:Agent>
    </dc:creator>
   </cc:Work>
  </rdf:RDF>
 </metadata>
 <defs>
  <style type="text/css">*{stroke-linejoin: round; stroke-linecap: butt}</style>
 </defs>
 <g id="figure_1">
  <g id="patch_1">
   <path d="M 0 345.6 
L 460.8 345.6 
L 460.8 0 
L 0 0 
z
" style="fill: #ffffff"/>
  </g>
  <g id="axes_1">
   <g id="patch_2">
    <path d="M 57.6 307.584 
L 414.72 307.584 
L 414.72 41.472 
L 57.6 41.472 
z
" style="fill: #ffffff"/>
   </g>
   <g id="patch_3">
    <path d="M 73.832727 58257.490749 
L 74.938876 58257.490749 
L 74.938876 260.591397 
L 73.832727 260.591397 
z
" clip-path="url(#p979fdf4593)" style="fill: #1f77b4"/>
   </g>
   <g id="patch_4">
    <path d="M 75.215413 58257.490749 
L 76.321561 58257.490749 
L 76.321561 237.525997 
L 75.215413 237.525997 
z
" clip-path="url(#p979fdf4593)" style="fill: #1f77b4"/>
   </g>
   <g id="patch_5">
    <path d="M 77.980784 58257.490749 
L 79.086932 58257.490749 
L 79.086932 197.012296 
L 77.980784 197.012296 
z
" clip-path="url(#p979fdf4593)" style="fill: #1f77b4"/>
   </g>
   <g id="patch_6">
    <path d="M 79.363469 58257.490749 
L 80.469617 58257.490749 
L 80.469617 174.558406 
L 79.363469 174.558406 
z
" clip-path="url(#p979fdf4593)" style="fill: #1f77b4"/>
   </g>
   <g id="patch_7">
    <path d="M 83.511525 58257.490749 
L 84.617674 58257.490749 
L 84.617674 119.386531 
L 83.511525 119.386531 
z
" clip-path="url(#p979fdf4593)" style="fill: #1f77b4"/>
   </g>
   <g id="patch_8">
    <path d="M 76.598098 58257.490749 
L 77.704247 58257.490749 
L 77.704247 221.36888 
L 76.598098 221.36888 
z
" clip-path="url(#p979fdf4593)" style="fill: #1f77b4"/>
   </g>
   <g id="patch_9">
    <path d="M 80.746155 58257.490749 
L 81.852303 58257.490749 
L 81.852303 157.110104 
L 80.746155 157.110104 
z
" clip-path="url(#p979fdf4593)" style="fill: #1f77b4"/>
   </g>
   <g id="patch_10">
    <path d="M 84.894211 58257.490749 
L 86.000359 58257.490749 
L 86.000359 103.214859 
L 84.894211 103.214859 
z
" clip-path="url(#p979fdf4593)" style="fill: #1f77b4"/>
   </g>
   <g id="patch_11">
    <path d="M 82.12884 58257.490749 
L 83.234988 58257.490749 
L 83.234988 139.354191 
L 82.12884 139.354191 
z
" clip-path="url(#p979fdf4593)" style="fill: #1f77b4"/>
   </g>
   <g id="patch_12">
    <path d="M 87.659582 58257.490749 
L 88.76573 58257.490749 
L 88.76573 79.333444 
L 87.659582 79.333444 
z
" clip-path="url(#p979fdf4593)" style="fill: #1f77b4"/>
   </g>
   <g id="patch_13">
    <path d="M 86.276896 58257.490749 
L 87.383045 58257.490749 
L 87.383045 91.335201 
L 86.276896 91.335201 
z
" clip-path="url(#p979fdf4593)" style="fill: #1f77b4"/>
   </g>
   <g id="patch_14">
    <path d="M 90.424953 58257.490749 
L 91.531101 58257.490749 
L 91.531101 59.348015 
L 90.424953 59.348015 
z
" clip-path="url(#p979fdf4593)" style="fill: #1f77b4"/>
   </g>
   <g id="patch_15">
    <path d="M 89.042267 58257.490749 
L 90.148416 58257.490749 
L 90.148416 67.885479 
L 89.042267 67.885479 
z
" clip-path="url(#p979fdf4593)" style="fill: #1f77b4"/>
   </g>
   <g id="patch_16">
    <path d="M 95.955695 58257.490749 
L 97.061843 58257.490749 
L 97.061843 70.54496 
L 95.955695 70.54496 
z
" clip-path="url(#p979fdf4593)" style="fill: #1f77b4"/>
   </g>
   <g id="patch_17">
    <path d="M 91.807638 58257.490749 
L 92.913787 58257.490749 
L 92.913787 53.822356 
L 91.807638 53.822356 
z
" clip-path="url(#p979fdf4593)" style="fill: #1f77b4"/>
   </g>
   <g id="patch_18">
    <path d="M 98.721066 58257.490749 
L 99.827214 58257.490749 
L 99.827214 105.194399 
L 98.721066 105.194399 
z
" clip-path="url(#p979fdf4593)" style="fill: #1f77b4"/>
   </g>
   <g id="patch_19">
    <path d="M 94.573009 58257.490749 
L 95.679158 58257.490749 
L 95.679158 59.62763 
L 94.573009 59.62763 
z
" clip-path="url(#p979fdf4593)" style="fill: #1f77b4"/>
   </g>
   <g id="patch_20">
    <path d="M 100.103751 58257.490749 
L 101.209899 58257.490749 
L 101.209899 136.332734 
L 100.103751 136.332734 
z
" clip-path="url(#p979fdf4593)" style="fill: #1f77b4"/>
   </g>
   <g id="patch_21">
    <path d="M 102.869122 58257.490749 
L 103.97527 58257.490749 
L 103.97527 173.153993 
L 102.869122 173.153993 
z
" clip-path="url(#p979fdf4593)" style="fill: #1f77b4"/>
   </g>
   <g id="patch_22">
    <path d="M 93.190324 58257.490749 
L 94.296472 58257.490749 
L 94.296472 53.568 
L 93.190324 53.568 
z
" clip-path="url(#p979fdf4593)" style="fill: #1f77b4"/>
   </g>
   <g id="patch_23">
    <path d="M 112.54792 58257.490749 
L 113.654068 58257.490749 
L 113.654068 186.472277 
L 112.54792 186.472277 
z
" clip-path="url(#p979fdf4593)" style="fill: #1f77b4"/>
   </g>
   <g id="patch_24">
    <path d="M 101.486436 58257.490749 
L 102.592585 58257.490749 
L 102.592585 161.61721 
L 101.486436 161.61721 
z
" clip-path="url(#p979fdf4593)" style="fill: #1f77b4"/>
   </g>
   <g id="patch_25">
    <path d="M 97.33838 58257.490749 
L 98.444528 58257.490749 
L 98.444528 83.908865 
L 97.33838 83.908865 
z
" clip-path="url(#p979fdf4593)" style="fill: #1f77b4"/>
   </g>
   <g id="patch_26">
    <path d="M 111.165235 58257.490749 
L 112.271383 58257.490749 
L 112.271383 187.143586 
L 111.165235 187.143586 
z
" clip-path="url(#p979fdf4593)" style="fill: #1f77b4"/>
   </g>
   <g id="patch_27">
    <path d="M 104.251807 58257.490749 
L 105.357956 58257.490749 
L 105.357956 175.397569 
L 104.251807 175.397569 
z
" clip-path="url(#p979fdf4593)" style="fill: #1f77b4"/>
   </g>
   <g id="patch_28">
    <path d="M 105.634493 58257.490749 
L 106.740641 58257.490749 
L 106.740641 177.626687 
L 105.634493 177.626687 
z
" clip-path="url(#p979fdf4593)" style="fill: #1f77b4"/>
   </g>
   <g id="patch_29">
    <path d="M 107.017178 58257.490749 
L 108.123327 58257.490749 
L 108.123327 181.938037 
L 107.017178 181.938037 
z
" clip-path="url(#p979fdf4593)" style="fill: #1f77b4"/>
   </g>
   <g id="patch_30">
    <path d="M 109.782549 58257.490749 
L 110.888698 58257.490749 
L 110.888698 183.655015 
L 109.782549 183.655015 
z
" clip-path="url(#p979fdf4593)" style="fill: #1f77b4"/>
   </g>
   <g id="patch_31">
    <path d="M 123.609404 58257.490749 
L 124.715552 58257.490749 
L 124.715552 199.111226 
L 123.609404 199.111226 
z
" clip-path="url(#p979fdf4593)" style="fill: #1f77b4"/>
   </g>
   <g id="patch_32">
    <path d="M 113.930606 58257.490749 
L 115.036754 58257.490749 
L 115.036754 192.422792 
L 113.930606 192.422792 
z
" clip-path="url(#p979fdf4593)" style="fill: #1f77b4"/>
   </g>
   <g id="patch_33">
    <path d="M 115.313291 58257.490749 
L 116.419439 58257.490749 
L 116.419439 192.422792 
L 115.313291 192.422792 
z
" clip-path="url(#p979fdf4593)" style="fill: #1f77b4"/>
   </g>
   <g id="patch_34">
    <path d="M 119.461347 58257.490749 
L 120.567496 58257.490749 
L 120.567496 188.904624 
L 119.461347 188.904624 
z
" clip-path="url(#p979fdf4593)" style="fill: #1f77b4"/>
   </g>
   <g id="patch_35">
    <path d="M 120.844033 58257.490749 
L 121.950181 58257.490749 
L 121.950181 200.808897 
L 120.844033 200.808897 
z
" clip-path="url(#p979fdf4593)" style="fill: #1f77b4"/>
   </g>
   <g id="patch_36">
    <path d="M 124.992089 58257.490749 
L 126.098238 58257.490749 
L 126.098238 198.039891 
L 124.992089 198.039891 
z
" clip-path="url(#p979fdf4593)" style="fill: #1f77b4"/>
   </g>
   <g id="patch_37">
    <path d="M 108.399864 58257.490749 
L 109.506012 58257.490749 
L 109.506012 181.390786 
L 108.399864 181.390786 
z
" clip-path="url(#p979fdf4593)" style="fill: #1f77b4"/>
   </g>
   <g id="patch_38">
    <path d="M 136.053573 58257.490749 
L 137.159721 58257.490749 
L 137.159721 207.471891 
L 136.053573 207.471891 
z
" clip-path="url(#p979fdf4593)" style="fill: #1f77b4"/>
   </g>
   <g id="patch_39">
    <path d="M 116.695976 58257.490749 
L 117.802125 58257.490749 
L 117.802125 192.006707 
L 116.695976 192.006707 
z
" clip-path="url(#p979fdf4593)" style="fill: #1f77b4"/>
   </g>
   <g id="patch_40">
    <path d="M 122.226718 58257.490749 
L 123.332867 58257.490749 
L 123.332867 197.012296 
L 122.226718 197.012296 
z
" clip-path="url(#p979fdf4593)" style="fill: #1f77b4"/>
   </g>
   <g id="patch_41">
    <path d="M 144.349686 58257.490749 
L 145.455834 58257.490749 
L 145.455834 214.460597 
L 144.349686 214.460597 
z
" clip-path="url(#p979fdf4593)" style="fill: #1f77b4"/>
   </g>
   <g id="patch_42">
    <path d="M 129.140146 58257.490749 
L 130.246294 58257.490749 
L 130.246294 202.007818 
L 129.140146 202.007818 
z
" clip-path="url(#p979fdf4593)" style="fill: #1f77b4"/>
   </g>
   <g id="patch_43">
    <path d="M 138.818944 58257.490749 
L 139.925092 58257.490749 
L 139.925092 207.471891 
L 138.818944 207.471891 
z
" clip-path="url(#p979fdf4593)" style="fill: #1f77b4"/>
   </g>
   <g id="patch_44">
    <path d="M 134.670887 58257.490749 
L 135.777036 58257.490749 
L 135.777036 201.40122 
L 134.670887 201.40122 
z
" clip-path="url(#p979fdf4593)" style="fill: #1f77b4"/>
   </g>
   <g id="patch_45">
    <path d="M 118.078662 58257.490749 
L 119.18481 58257.490749 
L 119.18481 188.904624 
L 118.078662 188.904624 
z
" clip-path="url(#p979fdf4593)" style="fill: #1f77b4"/>
   </g>
   <g id="patch_46">
    <path d="M 130.522831 58257.490749 
L 131.628979 58257.490749 
L 131.628979 197.52085 
L 130.522831 197.52085 
z
" clip-path="url(#p979fdf4593)" style="fill: #1f77b4"/>
   </g>
   <g id="patch_47">
    <path d="M 152.645798 58257.490749 
L 153.751947 58257.490749 
L 153.751947 213.473311 
L 152.645798 213.473311 
z
" clip-path="url(#p979fdf4593)" style="fill: #1f77b4"/>
   </g>
   <g id="patch_48">
    <path d="M 156.793855 58257.490749 
L 157.900003 58257.490749 
L 157.900003 205.990724 
L 156.793855 205.990724 
z
" clip-path="url(#p979fdf4593)" style="fill: #1f77b4"/>
   </g>
   <g id="patch_49">
    <path d="M 142.967 58257.490749 
L 144.073149 58257.490749 
L 144.073149 209.871094 
L 142.967 209.871094 
z
" clip-path="url(#p979fdf4593)" style="fill: #1f77b4"/>
   </g>
   <g id="patch_50">
    <path d="M 140.201629 58257.490749 
L 141.307778 58257.490749 
L 141.307778 206.720415 
L 140.201629 206.720415 
z
" clip-path="url(#p979fdf4593)" style="fill: #1f77b4"/>
   </g>
   <g id="patch_51">
    <path d="M 126.374775 58257.490749 
L 127.480923 58257.490749 
L 127.480923 199.111226 
L 126.374775 199.111226 
z
" clip-path="url(#p979fdf4593)" style="fill: #1f77b4"/>
   </g>
   <g id="patch_52">
    <path d="M 158.17654 58257.490749 
L 159.282689 58257.490749 
L 159.282689 213.473311 
L 158.17654 213.473311 
z
" clip-path="url(#p979fdf4593)" style="fill: #1f77b4"/>
   </g>
   <g id="patch_53">
    <path d="M 163.707282 58257.490749 
L 164.81343 58257.490749 
L 164.81343 217.678493 
L 163.707282 217.678493 
z
" clip-path="url(#p979fdf4593)" style="fill: #1f77b4"/>
   </g>
   <g id="patch_54">
    <path d="M 133.288202 58257.490749 
L 134.39435 58257.490749 
L 134.39435 205.28159 
L 133.288202 205.28159 
z
" clip-path="url(#p979fdf4593)" style="fill: #1f77b4"/>
   </g>
   <g id="patch_55">
    <path d="M 131.905516 58257.490749 
L 133.011665 58257.490749 
L 133.011665 205.990724 
L 131.905516 205.990724 
z
" clip-path="url(#p979fdf4593)" style="fill: #1f77b4"/>
   </g>
   <g id="patch_56">
    <path d="M 149.880427 58257.490749 
L 150.986576 58257.490749 
L 150.986576 210.724483 
L 149.880427 210.724483 
z
" clip-path="url(#p979fdf4593)" style="fill: #1f77b4"/>
   </g>
   <g id="patch_57">
    <path d="M 154.028484 58257.490749 
L 155.134632 58257.490749 
L 155.134632 221.36888 
L 154.028484 221.36888 
z
" clip-path="url(#p979fdf4593)" style="fill: #1f77b4"/>
   </g>
   <g id="patch_58">
    <path d="M 185.830249 58257.490749 
L 186.936398 58257.490749 
L 186.936398 246.504425 
L 185.830249 246.504425 
z
" clip-path="url(#p979fdf4593)" style="fill: #1f77b4"/>
   </g>
   <g id="patch_59">
    <path d="M 155.411169 58257.490749 
L 156.517318 58257.490749 
L 156.517318 225.694794 
L 155.411169 225.694794 
z
" clip-path="url(#p979fdf4593)" style="fill: #1f77b4"/>
   </g>
   <g id="patch_60">
    <path d="M 127.75746 58257.490749 
L 128.863608 58257.490749 
L 128.863608 205.990724 
L 127.75746 205.990724 
z
" clip-path="url(#p979fdf4593)" style="fill: #1f77b4"/>
   </g>
   <g id="patch_61">
    <path d="M 137.436258 58257.490749 
L 138.542407 58257.490749 
L 138.542407 207.471891 
L 137.436258 207.471891 
z
" clip-path="url(#p979fdf4593)" style="fill: #1f77b4"/>
   </g>
   <g id="patch_62">
    <path d="M 148.497742 58257.490749 
L 149.60389 58257.490749 
L 149.60389 214.460597 
L 148.497742 214.460597 
z
" clip-path="url(#p979fdf4593)" style="fill: #1f77b4"/>
   </g>
   <g id="patch_63">
    <path d="M 159.559226 58257.490749 
L 160.665374 58257.490749 
L 160.665374 237.525997 
L 159.559226 237.525997 
z
" clip-path="url(#p979fdf4593)" style="fill: #1f77b4"/>
   </g>
   <g id="patch_64">
    <path d="M 160.941911 58257.490749 
L 162.048059 58257.490749 
L 162.048059 235.126794 
L 160.941911 235.126794 
z
" clip-path="url(#p979fdf4593)" style="fill: #1f77b4"/>
   </g>
   <g id="patch_65">
    <path d="M 141.584315 58257.490749 
L 142.690463 58257.490749 
L 142.690463 215.488192 
L 141.584315 215.488192 
z
" clip-path="url(#p979fdf4593)" style="fill: #1f77b4"/>
   </g>
   <g id="patch_66">
    <path d="M 147.115057 58257.490749 
L 148.221205 58257.490749 
L 148.221205 210.724483 
L 147.115057 210.724483 
z
" clip-path="url(#p979fdf4593)" style="fill: #1f77b4"/>
   </g>
   <g id="patch_67">
    <path d="M 162.324597 58257.490749 
L 163.430745 58257.490749 
L 163.430745 225.694794 
L 162.324597 225.694794 
z
" clip-path="url(#p979fdf4593)" style="fill: #1f77b4"/>
   </g>
   <g id="patch_68">
    <path d="M 169.238024 58257.490749 
L 170.344172 58257.490749 
L 170.344172 232.936494 
L 169.238024 232.936494 
z
" clip-path="url(#p979fdf4593)" style="fill: #1f77b4"/>
   </g>
   <g id="patch_69">
    <path d="M 145.732371 58257.490749 
L 146.838519 58257.490749 
L 146.838519 218.849522 
L 145.732371 218.849522 
z
" clip-path="url(#p979fdf4593)" style="fill: #1f77b4"/>
   </g>
   <g id="patch_70">
    <path d="M 165.089967 58257.490749 
L 166.196116 58257.490749 
L 166.196116 225.694794 
L 165.089967 225.694794 
z
" clip-path="url(#p979fdf4593)" style="fill: #1f77b4"/>
   </g>
   <g id="patch_71">
    <path d="M 196.891733 58257.490749 
L 197.997881 58257.490749 
L 197.997881 260.591397 
L 196.891733 260.591397 
z
" clip-path="url(#p979fdf4593)" style="fill: #1f77b4"/>
   </g>
   <g id="patch_72">
    <path d="M 166.472653 58257.490749 
L 167.578801 58257.490749 
L 167.578801 230.921612 
L 166.472653 230.921612 
z
" clip-path="url(#p979fdf4593)" style="fill: #1f77b4"/>
   </g>
   <g id="patch_73">
    <path d="M 172.003395 58257.490749 
L 173.109543 58257.490749 
L 173.109543 235.126794 
L 172.003395 235.126794 
z
" clip-path="url(#p979fdf4593)" style="fill: #1f77b4"/>
   </g>
   <g id="patch_74">
    <path d="M 183.064878 58257.490749 
L 184.171027 58257.490749 
L 184.171027 243.143096 
L 183.064878 243.143096 
z
" clip-path="url(#p979fdf4593)" style="fill: #1f77b4"/>
   </g>
   <g id="patch_75">
    <path d="M 189.978306 58257.490749 
L 191.084454 58257.490749 
L 191.084454 260.591397 
L 189.978306 260.591397 
z
" clip-path="url(#p979fdf4593)" style="fill: #1f77b4"/>
   </g>
   <g id="patch_76">
    <path d="M 184.447564 58257.490749 
L 185.553712 58257.490749 
L 185.553712 232.936494 
L 184.447564 232.936494 
z
" clip-path="url(#p979fdf4593)" style="fill: #1f77b4"/>
   </g>
   <g id="patch_77">
    <path d="M 176.151451 58257.490749 
L 177.2576 58257.490749 
L 177.2576 246.504425 
L 176.151451 246.504425 
z
" clip-path="url(#p979fdf4593)" style="fill: #1f77b4"/>
   </g>
   <g id="patch_78">
    <path d="M 173.38608 58257.490749 
L 174.492229 58257.490749 
L 174.492229 240.178193 
L 173.38608 240.178193 
z
" clip-path="url(#p979fdf4593)" style="fill: #1f77b4"/>
   </g>
   <g id="patch_79">
    <path d="M 213.483958 58257.490749 
L 214.590107 58257.490749 
L 214.590107 267.833097 
L 213.483958 267.833097 
z
" clip-path="url(#p979fdf4593)" style="fill: #1f77b4"/>
   </g>
   <g id="patch_80">
    <path d="M 195.509048 58257.490749 
L 196.615196 58257.490749 
L 196.615196 243.143096 
L 195.509048 243.143096 
z
" clip-path="url(#p979fdf4593)" style="fill: #1f77b4"/>
   </g>
   <g id="patch_81">
    <path d="M 177.534137 58257.490749 
L 178.640285 58257.490749 
L 178.640285 225.694794 
L 177.534137 225.694794 
z
" clip-path="url(#p979fdf4593)" style="fill: #1f77b4"/>
   </g>
   <g id="patch_82">
    <path d="M 151.263113 58257.490749 
L 152.369261 58257.490749 
L 152.369261 225.694794 
L 151.263113 225.694794 
z
" clip-path="url(#p979fdf4593)" style="fill: #1f77b4"/>
   </g>
   <g id="patch_83">
    <path d="M 174.768766 58257.490749 
L 175.874914 58257.490749 
L 175.874914 222.729892 
L 174.768766 222.729892 
z
" clip-path="url(#p979fdf4593)" style="fill: #1f77b4"/>
   </g>
   <g id="patch_84">
    <path d="M 170.620709 58257.490749 
L 171.726858 58257.490749 
L 171.726858 221.36888 
L 170.620709 221.36888 
z
" clip-path="url(#p979fdf4593)" style="fill: #1f77b4"/>
   </g>
   <g id="patch_85">
    <path d="M 199.657104 58257.490749 
L 200.763252 58257.490749 
L 200.763252 267.833097 
L 199.657104 267.833097 
z
" clip-path="url(#p979fdf4593)" style="fill: #1f77b4"/>
   </g>
   <g id="patch_86">
    <path d="M 225.928128 58257.490749 
L 227.034276 58257.490749 
L 227.034276 295.488 
L 225.928128 295.488 
z
" clip-path="url(#p979fdf4593)" style="fill: #1f77b4"/>
   </g>
   <g id="patch_87">
    <path d="M 167.855338 58257.490749 
L 168.961487 58257.490749 
L 168.961487 230.921612 
L 167.855338 230.921612 
z
" clip-path="url(#p979fdf4593)" style="fill: #1f77b4"/>
   </g>
   <g id="patch_88">
    <path d="M 194.126362 58257.490749 
L 195.23251 58257.490749 
L 195.23251 246.504425 
L 194.126362 246.504425 
z
" clip-path="url(#p979fdf4593)" style="fill: #1f77b4"/>
   </g>
   <g id="patch_89">
    <path d="M 178.916822 58257.490749 
L 180.02297 58257.490749 
L 180.02297 250.384795 
L 178.916822 250.384795 
z
" clip-path="url(#p979fdf4593)" style="fill: #1f77b4"/>
   </g>
   <g id="patch_90">
    <path d="M 206.570531 58257.490749 
L 207.67668 58257.490749 
L 207.67668 267.833097 
L 206.570531 267.833097 
z
" clip-path="url(#p979fdf4593)" style="fill: #1f77b4"/>
   </g>
   <g id="patch_91">
    <path d="M 180.299508 58257.490749 
L 181.405656 58257.490749 
L 181.405656 254.974299 
L 180.299508 254.974299 
z
" clip-path="url(#p979fdf4593)" style="fill: #1f77b4"/>
   </g>
   <g id="patch_92">
    <path d="M 203.80516 58257.490749 
L 204.911309 58257.490749 
L 204.911309 254.974299 
L 203.80516 254.974299 
z
" clip-path="url(#p979fdf4593)" style="fill: #1f77b4"/>
   </g>
   <g id="patch_93">
    <path d="M 181.682193 58257.490749 
L 182.788341 58257.490749 
L 182.788341 278.039699 
L 181.682193 278.039699 
z
" clip-path="url(#p979fdf4593)" style="fill: #1f77b4"/>
   </g>
   <g id="patch_94">
    <path d="M 231.458869 58257.490749 
L 232.565018 58257.490749 
L 232.565018 260.591397 
L 231.458869 260.591397 
z
" clip-path="url(#p979fdf4593)" style="fill: #1f77b4"/>
   </g>
   <g id="patch_95">
    <path d="M 220.397386 58257.490749 
L 221.503534 58257.490749 
L 221.503534 278.039699 
L 220.397386 278.039699 
z
" clip-path="url(#p979fdf4593)" style="fill: #1f77b4"/>
   </g>
   <g id="patch_96">
    <path d="M 188.59562 58257.490749 
L 189.701769 58257.490749 
L 189.701769 243.143096 
L 188.59562 243.143096 
z
" clip-path="url(#p979fdf4593)" style="fill: #1f77b4"/>
   </g>
   <g id="patch_97">
    <path d="M 191.360991 58257.490749 
L 192.46714 58257.490749 
L 192.46714 250.384795 
L 191.360991 250.384795 
z
" clip-path="url(#p979fdf4593)" style="fill: #1f77b4"/>
   </g>
   <g id="patch_98">
    <path d="M 187.212935 58257.490749 
L 188.319083 58257.490749 
L 188.319083 243.143096 
L 187.212935 243.143096 
z
" clip-path="url(#p979fdf4593)" style="fill: #1f77b4"/>
   </g>
   <g id="patch_99">
    <path d="M 202.422475 58257.490749 
L 203.528623 58257.490749 
L 203.528623 254.974299 
L 202.422475 254.974299 
z
" clip-path="url(#p979fdf4593)" style="fill: #1f77b4"/>
   </g>
   <g id="patch_100">
    <path d="M 216.249329 58257.490749 
L 217.355478 58257.490749 
L 217.355478 278.039699 
L 216.249329 278.039699 
z
" clip-path="url(#p979fdf4593)" style="fill: #1f77b4"/>
   </g>
   <g id="patch_101">
    <path d="M 248.051095 58257.490749 
L 249.157243 58257.490749 
L 249.157243 278.039699 
L 248.051095 278.039699 
z
" clip-path="url(#p979fdf4593)" style="fill: #1f77b4"/>
   </g>
   <g id="patch_102">
    <path d="M 209.335902 58257.490749 
L 210.44205 58257.490749 
L 210.44205 260.591397 
L 209.335902 260.591397 
z
" clip-path="url(#p979fdf4593)" style="fill: #1f77b4"/>
   </g>
   <g id="patch_103">
    <path d="M 236.989611 58257.490749 
L 238.09576 58257.490749 
L 238.09576 267.833097 
L 236.989611 267.833097 
z
" clip-path="url(#p979fdf4593)" style="fill: #1f77b4"/>
   </g>
   <g id="patch_104">
    <path d="M 214.866644 58257.490749 
L 215.972792 58257.490749 
L 215.972792 267.833097 
L 214.866644 267.833097 
z
" clip-path="url(#p979fdf4593)" style="fill: #1f77b4"/>
   </g>
   <g id="patch_105">
    <path d="M 192.743677 58257.490749 
L 193.849825 58257.490749 
L 193.849825 260.591397 
L 192.743677 260.591397 
z
" clip-path="url(#p979fdf4593)" style="fill: #1f77b4"/>
   </g>
   <g id="patch_106">
    <path d="M 201.039789 58257.490749 
L 202.145938 58257.490749 
L 202.145938 260.591397 
L 201.039789 260.591397 
z
" clip-path="url(#p979fdf4593)" style="fill: #1f77b4"/>
   </g>
   <g id="patch_107">
    <path d="M 221.780071 58257.490749 
L 222.88622 58257.490749 
L 222.88622 278.039699 
L 221.780071 278.039699 
z
" clip-path="url(#p979fdf4593)" style="fill: #1f77b4"/>
   </g>
   <g id="patch_108">
    <path d="M 207.953217 58257.490749 
L 209.059365 58257.490749 
L 209.059365 254.974299 
L 207.953217 254.974299 
z
" clip-path="url(#p979fdf4593)" style="fill: #1f77b4"/>
   </g>
   <g id="patch_109">
    <path d="M 212.101273 58257.490749 
L 213.207421 58257.490749 
L 213.207421 278.039699 
L 212.101273 278.039699 
z
" clip-path="url(#p979fdf4593)" style="fill: #1f77b4"/>
   </g>
   <g id="patch_110">
    <path d="M 198.274418 58257.490749 
L 199.380567 58257.490749 
L 199.380567 267.833097 
L 198.274418 267.833097 
z
" clip-path="url(#p979fdf4593)" style="fill: #1f77b4"/>
   </g>
   <g id="patch_111">
    <path d="M 219.0147 58257.490749 
L 220.120849 58257.490749 
L 220.120849 278.039699 
L 219.0147 278.039699 
z
" clip-path="url(#p979fdf4593)" style="fill: #1f77b4"/>
   </g>
   <g id="patch_112">
    <path d="M 205.187846 58257.490749 
L 206.293994 58257.490749 
L 206.293994 267.833097 
L 205.187846 267.833097 
z
" clip-path="url(#p979fdf4593)" style="fill: #1f77b4"/>
   </g>
   <g id="patch_113">
    <path d="M 289.531659 58257.490749 
L 290.637807 58257.490749 
L 290.637807 295.488 
L 289.531659 295.488 
z
" clip-path="url(#p979fdf4593)" style="fill: #1f77b4"/>
   </g>
   <g id="patch_114">
    <path d="M 246.668409 58257.490749 
L 247.774558 58257.490749 
L 247.774558 278.039699 
L 246.668409 278.039699 
z
" clip-path="url(#p979fdf4593)" style="fill: #1f77b4"/>
   </g>
   <g id="patch_115">
    <path d="M 210.718588 58257.490749 
L 211.824736 58257.490749 
L 211.824736 278.039699 
L 210.718588 278.039699 
z
" clip-path="url(#p979fdf4593)" style="fill: #1f77b4"/>
   </g>
   <g id="patch_116">
    <path d="M 243.903039 58257.490749 
L 245.009187 58257.490749 
L 245.009187 295.488 
L 243.903039 295.488 
z
" clip-path="url(#p979fdf4593)" style="fill: #1f77b4"/>
   </g>
   <g id="patch_117">
    <path d="M 254.964522 58257.490749 
L 256.070671 58257.490749 
L 256.070671 295.488 
L 254.964522 295.488 
z
" clip-path="url(#p979fdf4593)" style="fill: #1f77b4"/>
   </g>
   <g id="patch_118">
    <path d="M 277.08749 58257.490749 
L 278.193638 58257.490749 
L 278.193638 295.488 
L 277.08749 295.488 
z
" clip-path="url(#p979fdf4593)" style="fill: #1f77b4"/>
   </g>
   <g id="patch_119">
    <path d="M 259.112579 58257.490749 
L 260.218727 58257.490749 
L 260.218727 295.488 
L 259.112579 295.488 
z
" clip-path="url(#p979fdf4593)" style="fill: #1f77b4"/>
   </g>
   <g id="patch_120">
    <path d="M 228.693499 58257.490749 
L 229.799647 58257.490749 
L 229.799647 295.488 
L 228.693499 295.488 
z
" clip-path="url(#p979fdf4593)" style="fill: #1f77b4"/>
   </g>
   <g id="patch_121">
    <path d="M 217.632015 58257.490749 
L 218.738163 58257.490749 
L 218.738163 295.488 
L 217.632015 295.488 
z
" clip-path="url(#p979fdf4593)" style="fill: #1f77b4"/>
   </g>
   <g id="patch_122">
    <path d="M 261.87795 58257.490749 
L 262.984098 58257.490749 
L 262.984098 295.488 
L 261.87795 295.488 
z
" clip-path="url(#p979fdf4593)" style="fill: #1f77b4"/>
   </g>
   <g id="patch_123">
    <path d="M 234.22424 58257.490749 
L 235.330389 58257.490749 
L 235.330389 278.039699 
L 234.22424 278.039699 
z
" clip-path="url(#p979fdf4593)" style="fill: #1f77b4"/>
   </g>
   <g id="patch_124">
    <path d="M 250.816466 58257.490749 
L 251.922614 58257.490749 
L 251.922614 295.488 
L 250.816466 295.488 
z
" clip-path="url(#p979fdf4593)" style="fill: #1f77b4"/>
   </g>
   <g id="patch_125">
    <path d="M 290.914344 58257.490749 
L 292.020492 58257.490749 
L 292.020492 295.488 
L 290.914344 295.488 
z
" clip-path="url(#p979fdf4593)" style="fill: #1f77b4"/>
   </g>
   <g id="patch_126">
    <path d="M 372.492786 58257.490749 
L 373.598934 58257.490749 
L 373.598934 295.488 
L 372.492786 295.488 
z
" clip-path="url(#p979fdf4593)" style="fill: #1f77b4"/>
   </g>
   <g id="patch_127">
    <path d="M 384.936955 58257.490749 
L 386.043104 58257.490749 
L 386.043104 295.488 
L 384.936955 295.488 
z
" clip-path="url(#p979fdf4593)" style="fill: #1f77b4"/>
   </g>
   <g id="patch_128">
    <path d="M 397.381124 58257.490749 
L 398.487273 58257.490749 
L 398.487273 295.488 
L 397.381124 295.488 
z
" clip-path="url(#p979fdf4593)" style="fill: #1f77b4"/>
   </g>
   <g id="matplotlib.axis_1">
    <g id="xtick_1">
     <g id="line2d_1">
      <defs>
       <path id="mbb258d8502" d="M 0 0 
L 0 3.5 
" style="stroke: #000000; stroke-width: 0.8"/>
      </defs>
      <g>
       <use xlink:href="#mbb258d8502" x="74.385801" y="307.584" style="stroke: #000000; stroke-width: 0.8"/>
      </g>
     </g>
     <g id="text_1">
      <!-- 0 -->
      <g transform="translate(71.204551 322.182437) scale(0.1 -0.1)">
       <defs>
        <path id="DejaVuSans-30" d="M 2034 4250 
Q 1547 4250 1301 3770 
Q 1056 3291 1056 2328 
Q 1056 1369 1301 889 
Q 1547 409 2034 409 
Q 2525 409 2770 889 
Q 3016 1369 3016 2328 
Q 3016 3291 2770 3770 
Q 2525 4250 2034 4250 
z
M 2034 4750 
Q 2819 4750 3233 4129 
Q 3647 3509 3647 2328 
Q 3647 1150 3233 529 
Q 2819 -91 2034 -91 
Q 1250 -91 836 529 
Q 422 1150 422 2328 
Q 422 3509 836 4129 
Q 1250 4750 2034 4750 
z
" transform="scale(0.015625)"/>
       </defs>
       <use xlink:href="#DejaVuSans-30"/>
      </g>
     </g>
    </g>
    <g id="xtick_2">
     <g id="line2d_2">
      <g>
       <use xlink:href="#mbb258d8502" x="143.520074" y="307.584" style="stroke: #000000; stroke-width: 0.8"/>
      </g>
     </g>
     <g id="text_2">
      <!-- 50 -->
      <g transform="translate(137.157574 322.182437) scale(0.1 -0.1)">
       <defs>
        <path id="DejaVuSans-35" d="M 691 4666 
L 3169 4666 
L 3169 4134 
L 1269 4134 
L 1269 2991 
Q 1406 3038 1543 3061 
Q 1681 3084 1819 3084 
Q 2600 3084 3056 2656 
Q 3513 2228 3513 1497 
Q 3513 744 3044 326 
Q 2575 -91 1722 -91 
Q 1428 -91 1123 -41 
Q 819 9 494 109 
L 494 744 
Q 775 591 1075 516 
Q 1375 441 1709 441 
Q 2250 441 2565 725 
Q 2881 1009 2881 1497 
Q 2881 1984 2565 2268 
Q 2250 2553 1709 2553 
Q 1456 2553 1204 2497 
Q 953 2441 691 2322 
L 691 4666 
z
" transform="scale(0.015625)"/>
       </defs>
       <use xlink:href="#DejaVuSans-35"/>
       <use xlink:href="#DejaVuSans-30" x="63.623047"/>
      </g>
     </g>
    </g>
    <g id="xtick_3">
     <g id="line2d_3">
      <g>
       <use xlink:href="#mbb258d8502" x="212.654347" y="307.584" style="stroke: #000000; stroke-width: 0.8"/>
      </g>
     </g>
     <g id="text_3">
      <!-- 100 -->
      <g transform="translate(203.110597 322.182437) scale(0.1 -0.1)">
       <defs>
        <path id="DejaVuSans-31" d="M 794 531 
L 1825 531 
L 1825 4091 
L 703 3866 
L 703 4441 
L 1819 4666 
L 2450 4666 
L 2450 531 
L 3481 531 
L 3481 0 
L 794 0 
L 794 531 
z
" transform="scale(0.015625)"/>
       </defs>
       <use xlink:href="#DejaVuSans-31"/>
       <use xlink:href="#DejaVuSans-30" x="63.623047"/>
       <use xlink:href="#DejaVuSans-30" x="127.246094"/>
      </g>
     </g>
    </g>
    <g id="xtick_4">
     <g id="line2d_4">
      <g>
       <use xlink:href="#mbb258d8502" x="281.78862" y="307.584" style="stroke: #000000; stroke-width: 0.8"/>
      </g>
     </g>
     <g id="text_4">
      <!-- 150 -->
      <g transform="translate(272.24487 322.182437) scale(0.1 -0.1)">
       <use xlink:href="#DejaVuSans-31"/>
       <use xlink:href="#DejaVuSans-35" x="63.623047"/>
       <use xlink:href="#DejaVuSans-30" x="127.246094"/>
      </g>
     </g>
    </g>
    <g id="xtick_5">
     <g id="line2d_5">
      <g>
       <use xlink:href="#mbb258d8502" x="350.922893" y="307.584" style="stroke: #000000; stroke-width: 0.8"/>
      </g>
     </g>
     <g id="text_5">
      <!-- 200 -->
      <g transform="translate(341.379143 322.182437) scale(0.1 -0.1)">
       <defs>
        <path id="DejaVuSans-32" d="M 1228 531 
L 3431 531 
L 3431 0 
L 469 0 
L 469 531 
Q 828 903 1448 1529 
Q 2069 2156 2228 2338 
Q 2531 2678 2651 2914 
Q 2772 3150 2772 3378 
Q 2772 3750 2511 3984 
Q 2250 4219 1831 4219 
Q 1534 4219 1204 4116 
Q 875 4013 500 3803 
L 500 4441 
Q 881 4594 1212 4672 
Q 1544 4750 1819 4750 
Q 2544 4750 2975 4387 
Q 3406 4025 3406 3419 
Q 3406 3131 3298 2873 
Q 3191 2616 2906 2266 
Q 2828 2175 2409 1742 
Q 1991 1309 1228 531 
z
" transform="scale(0.015625)"/>
       </defs>
       <use xlink:href="#DejaVuSans-32"/>
       <use xlink:href="#DejaVuSans-30" x="63.623047"/>
       <use xlink:href="#DejaVuSans-30" x="127.246094"/>
      </g>
     </g>
    </g>
    <g id="text_6">
     <!-- Depth of Element -->
     <g transform="translate(192.231875 335.860562) scale(0.1 -0.1)">
      <defs>
       <path id="DejaVuSans-44" d="M 1259 4147 
L 1259 519 
L 2022 519 
Q 2988 519 3436 956 
Q 3884 1394 3884 2338 
Q 3884 3275 3436 3711 
Q 2988 4147 2022 4147 
L 1259 4147 
z
M 628 4666 
L 1925 4666 
Q 3281 4666 3915 4102 
Q 4550 3538 4550 2338 
Q 4550 1131 3912 565 
Q 3275 0 1925 0 
L 628 0 
L 628 4666 
z
" transform="scale(0.015625)"/>
       <path id="DejaVuSans-65" d="M 3597 1894 
L 3597 1613 
L 953 1613 
Q 991 1019 1311 708 
Q 1631 397 2203 397 
Q 2534 397 2845 478 
Q 3156 559 3463 722 
L 3463 178 
Q 3153 47 2828 -22 
Q 2503 -91 2169 -91 
Q 1331 -91 842 396 
Q 353 884 353 1716 
Q 353 2575 817 3079 
Q 1281 3584 2069 3584 
Q 2775 3584 3186 3129 
Q 3597 2675 3597 1894 
z
M 3022 2063 
Q 3016 2534 2758 2815 
Q 2500 3097 2075 3097 
Q 1594 3097 1305 2825 
Q 1016 2553 972 2059 
L 3022 2063 
z
" transform="scale(0.015625)"/>
       <path id="DejaVuSans-70" d="M 1159 525 
L 1159 -1331 
L 581 -1331 
L 581 3500 
L 1159 3500 
L 1159 2969 
Q 1341 3281 1617 3432 
Q 1894 3584 2278 3584 
Q 2916 3584 3314 3078 
Q 3713 2572 3713 1747 
Q 3713 922 3314 415 
Q 2916 -91 2278 -91 
Q 1894 -91 1617 61 
Q 1341 213 1159 525 
z
M 3116 1747 
Q 3116 2381 2855 2742 
Q 2594 3103 2138 3103 
Q 1681 3103 1420 2742 
Q 1159 2381 1159 1747 
Q 1159 1113 1420 752 
Q 1681 391 2138 391 
Q 2594 391 2855 752 
Q 3116 1113 3116 1747 
z
" transform="scale(0.015625)"/>
       <path id="DejaVuSans-74" d="M 1172 4494 
L 1172 3500 
L 2356 3500 
L 2356 3053 
L 1172 3053 
L 1172 1153 
Q 1172 725 1289 603 
Q 1406 481 1766 481 
L 2356 481 
L 2356 0 
L 1766 0 
Q 1100 0 847 248 
Q 594 497 594 1153 
L 594 3053 
L 172 3053 
L 172 3500 
L 594 3500 
L 594 4494 
L 1172 4494 
z
" transform="scale(0.015625)"/>
       <path id="DejaVuSans-68" d="M 3513 2113 
L 3513 0 
L 2938 0 
L 2938 2094 
Q 2938 2591 2744 2837 
Q 2550 3084 2163 3084 
Q 1697 3084 1428 2787 
Q 1159 2491 1159 1978 
L 1159 0 
L 581 0 
L 581 4863 
L 1159 4863 
L 1159 2956 
Q 1366 3272 1645 3428 
Q 1925 3584 2291 3584 
Q 2894 3584 3203 3211 
Q 3513 2838 3513 2113 
z
" transform="scale(0.015625)"/>
       <path id="DejaVuSans-20" transform="scale(0.015625)"/>
       <path id="DejaVuSans-6f" d="M 1959 3097 
Q 1497 3097 1228 2736 
Q 959 2375 959 1747 
Q 959 1119 1226 758 
Q 1494 397 1959 397 
Q 2419 397 2687 759 
Q 2956 1122 2956 1747 
Q 2956 2369 2687 2733 
Q 2419 3097 1959 3097 
z
M 1959 3584 
Q 2709 3584 3137 3096 
Q 3566 2609 3566 1747 
Q 3566 888 3137 398 
Q 2709 -91 1959 -91 
Q 1206 -91 779 398 
Q 353 888 353 1747 
Q 353 2609 779 3096 
Q 1206 3584 1959 3584 
z
" transform="scale(0.015625)"/>
       <path id="DejaVuSans-66" d="M 2375 4863 
L 2375 4384 
L 1825 4384 
Q 1516 4384 1395 4259 
Q 1275 4134 1275 3809 
L 1275 3500 
L 2222 3500 
L 2222 3053 
L 1275 3053 
L 1275 0 
L 697 0 
L 697 3053 
L 147 3053 
L 147 3500 
L 697 3500 
L 697 3744 
Q 697 4328 969 4595 
Q 1241 4863 1831 4863 
L 2375 4863 
z
" transform="scale(0.015625)"/>
       <path id="DejaVuSans-45" d="M 628 4666 
L 3578 4666 
L 3578 4134 
L 1259 4134 
L 1259 2753 
L 3481 2753 
L 3481 2222 
L 1259 2222 
L 1259 531 
L 3634 531 
L 3634 0 
L 628 0 
L 628 4666 
z
" transform="scale(0.015625)"/>
       <path id="DejaVuSans-6c" d="M 603 4863 
L 1178 4863 
L 1178 0 
L 603 0 
L 603 4863 
z
" transform="scale(0.015625)"/>
       <path id="DejaVuSans-6d" d="M 3328 2828 
Q 3544 3216 3844 3400 
Q 4144 3584 4550 3584 
Q 5097 3584 5394 3201 
Q 5691 2819 5691 2113 
L 5691 0 
L 5113 0 
L 5113 2094 
Q 5113 2597 4934 2840 
Q 4756 3084 4391 3084 
Q 3944 3084 3684 2787 
Q 3425 2491 3425 1978 
L 3425 0 
L 2847 0 
L 2847 2094 
Q 2847 2600 2669 2842 
Q 2491 3084 2119 3084 
Q 1678 3084 1418 2786 
Q 1159 2488 1159 1978 
L 1159 0 
L 581 0 
L 581 3500 
L 1159 3500 
L 1159 2956 
Q 1356 3278 1631 3431 
Q 1906 3584 2284 3584 
Q 2666 3584 2933 3390 
Q 3200 3197 3328 2828 
z
" transform="scale(0.015625)"/>
       <path id="DejaVuSans-6e" d="M 3513 2113 
L 3513 0 
L 2938 0 
L 2938 2094 
Q 2938 2591 2744 2837 
Q 2550 3084 2163 3084 
Q 1697 3084 1428 2787 
Q 1159 2491 1159 1978 
L 1159 0 
L 581 0 
L 581 3500 
L 1159 3500 
L 1159 2956 
Q 1366 3272 1645 3428 
Q 1925 3584 2291 3584 
Q 2894 3584 3203 3211 
Q 3513 2838 3513 2113 
z
" transform="scale(0.015625)"/>
      </defs>
      <use xlink:href="#DejaVuSans-44"/>
      <use xlink:href="#DejaVuSans-65" x="77.001953"/>
      <use xlink:href="#DejaVuSans-70" x="138.525391"/>
      <use xlink:href="#DejaVuSans-74" x="202.001953"/>
      <use xlink:href="#DejaVuSans-68" x="241.210938"/>
      <use xlink:href="#DejaVuSans-20" x="304.589844"/>
      <use xlink:href="#DejaVuSans-6f" x="336.376953"/>
      <use xlink:href="#DejaVuSans-66" x="397.558594"/>
      <use xlink:href="#DejaVuSans-20" x="432.763672"/>
      <use xlink:href="#DejaVuSans-45" x="464.550781"/>
      <use xlink:href="#DejaVuSans-6c" x="527.734375"/>
      <use xlink:href="#DejaVuSans-65" x="555.517578"/>
      <use xlink:href="#DejaVuSans-6d" x="617.041016"/>
      <use xlink:href="#DejaVuSans-65" x="714.453125"/>
      <use xlink:href="#DejaVuSans-6e" x="775.976562"/>
      <use xlink:href="#DejaVuSans-74" x="839.355469"/>
     </g>
    </g>
   </g>
   <g id="matplotlib.axis_2">
    <g id="ytick_1">
     <g id="line2d_6">
      <defs>
       <path id="m26e617c331" d="M 0 0 
L -3.5 0 
" style="stroke: #000000; stroke-width: 0.8"/>
      </defs>
      <g>
       <use xlink:href="#m26e617c331" x="57.6" y="295.488" style="stroke: #000000; stroke-width: 0.8"/>
      </g>
     </g>
     <g id="text_7">
      <!-- $\mathdefault{10^{0}}$ -->
      <g transform="translate(33 299.287219) scale(0.1 -0.1)">
       <use xlink:href="#DejaVuSans-31" transform="translate(0 0.765625)"/>
       <use xlink:href="#DejaVuSans-30" transform="translate(63.623047 0.765625)"/>
       <use xlink:href="#DejaVuSans-30" transform="translate(128.203125 39.046875) scale(0.7)"/>
      </g>
     </g>
    </g>
    <g id="ytick_2">
     <g id="line2d_7">
      <g>
       <use xlink:href="#m26e617c331" x="57.6" y="237.525997" style="stroke: #000000; stroke-width: 0.8"/>
      </g>
     </g>
     <g id="text_8">
      <!-- $\mathdefault{10^{1}}$ -->
      <g transform="translate(33 241.325216) scale(0.1 -0.1)">
       <use xlink:href="#DejaVuSans-31" transform="translate(0 0.684375)"/>
       <use xlink:href="#DejaVuSans-30" transform="translate(63.623047 0.684375)"/>
       <use xlink:href="#DejaVuSans-31" transform="translate(128.203125 38.965625) scale(0.7)"/>
      </g>
     </g>
    </g>
    <g id="ytick_3">
     <g id="line2d_8">
      <g>
       <use xlink:href="#m26e617c331" x="57.6" y="179.563995" style="stroke: #000000; stroke-width: 0.8"/>
      </g>
     </g>
     <g id="text_9">
      <!-- $\mathdefault{10^{2}}$ -->
      <g transform="translate(33 183.363213) scale(0.1 -0.1)">
       <use xlink:href="#DejaVuSans-31" transform="translate(0 0.765625)"/>
       <use xlink:href="#DejaVuSans-30" transform="translate(63.623047 0.765625)"/>
       <use xlink:href="#DejaVuSans-32" transform="translate(128.203125 39.046875) scale(0.7)"/>
      </g>
     </g>
    </g>
    <g id="ytick_4">
     <g id="line2d_9">
      <g>
       <use xlink:href="#m26e617c331" x="57.6" y="121.601992" style="stroke: #000000; stroke-width: 0.8"/>
      </g>
     </g>
     <g id="text_10">
      <!-- $\mathdefault{10^{3}}$ -->
      <g transform="translate(33 125.401211) scale(0.1 -0.1)">
       <defs>
        <path id="DejaVuSans-33" d="M 2597 2516 
Q 3050 2419 3304 2112 
Q 3559 1806 3559 1356 
Q 3559 666 3084 287 
Q 2609 -91 1734 -91 
Q 1441 -91 1130 -33 
Q 819 25 488 141 
L 488 750 
Q 750 597 1062 519 
Q 1375 441 1716 441 
Q 2309 441 2620 675 
Q 2931 909 2931 1356 
Q 2931 1769 2642 2001 
Q 2353 2234 1838 2234 
L 1294 2234 
L 1294 2753 
L 1863 2753 
Q 2328 2753 2575 2939 
Q 2822 3125 2822 3475 
Q 2822 3834 2567 4026 
Q 2313 4219 1838 4219 
Q 1578 4219 1281 4162 
Q 984 4106 628 3988 
L 628 4550 
Q 988 4650 1302 4700 
Q 1616 4750 1894 4750 
Q 2613 4750 3031 4423 
Q 3450 4097 3450 3541 
Q 3450 3153 3228 2886 
Q 3006 2619 2597 2516 
z
" transform="scale(0.015625)"/>
       </defs>
       <use xlink:href="#DejaVuSans-31" transform="translate(0 0.765625)"/>
       <use xlink:href="#DejaVuSans-30" transform="translate(63.623047 0.765625)"/>
       <use xlink:href="#DejaVuSans-33" transform="translate(128.203125 39.046875) scale(0.7)"/>
      </g>
     </g>
    </g>
    <g id="ytick_5">
     <g id="line2d_10">
      <g>
       <use xlink:href="#m26e617c331" x="57.6" y="63.639989" style="stroke: #000000; stroke-width: 0.8"/>
      </g>
     </g>
     <g id="text_11">
      <!-- $\mathdefault{10^{4}}$ -->
      <g transform="translate(33 67.439208) scale(0.1 -0.1)">
       <defs>
        <path id="DejaVuSans-34" d="M 2419 4116 
L 825 1625 
L 2419 1625 
L 2419 4116 
z
M 2253 4666 
L 3047 4666 
L 3047 1625 
L 3713 1625 
L 3713 1100 
L 3047 1100 
L 3047 0 
L 2419 0 
L 2419 1100 
L 313 1100 
L 313 1709 
L 2253 4666 
z
" transform="scale(0.015625)"/>
       </defs>
       <use xlink:href="#DejaVuSans-31" transform="translate(0 0.684375)"/>
       <use xlink:href="#DejaVuSans-30" transform="translate(63.623047 0.684375)"/>
       <use xlink:href="#DejaVuSans-34" transform="translate(128.203125 38.965625) scale(0.7)"/>
      </g>
     </g>
    </g>
    <g id="ytick_6">
     <g id="line2d_11">
      <defs>
       <path id="m1e50c2f43c" d="M 0 0 
L -2 0 
" style="stroke: #000000; stroke-width: 0.6"/>
      </defs>
      <g>
       <use xlink:href="#m1e50c2f43c" x="57.6" y="304.466428" style="stroke: #000000; stroke-width: 0.6"/>
      </g>
     </g>
    </g>
    <g id="ytick_7">
     <g id="line2d_12">
      <g>
       <use xlink:href="#m1e50c2f43c" x="57.6" y="301.105098" style="stroke: #000000; stroke-width: 0.6"/>
      </g>
     </g>
    </g>
    <g id="ytick_8">
     <g id="line2d_13">
      <g>
       <use xlink:href="#m1e50c2f43c" x="57.6" y="298.140196" style="stroke: #000000; stroke-width: 0.6"/>
      </g>
     </g>
    </g>
    <g id="ytick_9">
     <g id="line2d_14">
      <g>
       <use xlink:href="#m1e50c2f43c" x="57.6" y="278.039699" style="stroke: #000000; stroke-width: 0.6"/>
      </g>
     </g>
    </g>
    <g id="ytick_10">
     <g id="line2d_15">
      <g>
       <use xlink:href="#m1e50c2f43c" x="57.6" y="267.833097" style="stroke: #000000; stroke-width: 0.6"/>
      </g>
     </g>
    </g>
    <g id="ytick_11">
     <g id="line2d_16">
      <g>
       <use xlink:href="#m1e50c2f43c" x="57.6" y="260.591397" style="stroke: #000000; stroke-width: 0.6"/>
      </g>
     </g>
    </g>
    <g id="ytick_12">
     <g id="line2d_17">
      <g>
       <use xlink:href="#m1e50c2f43c" x="57.6" y="254.974299" style="stroke: #000000; stroke-width: 0.6"/>
      </g>
     </g>
    </g>
    <g id="ytick_13">
     <g id="line2d_18">
      <g>
       <use xlink:href="#m1e50c2f43c" x="57.6" y="250.384795" style="stroke: #000000; stroke-width: 0.6"/>
      </g>
     </g>
    </g>
    <g id="ytick_14">
     <g id="line2d_19">
      <g>
       <use xlink:href="#m1e50c2f43c" x="57.6" y="246.504425" style="stroke: #000000; stroke-width: 0.6"/>
      </g>
     </g>
    </g>
    <g id="ytick_15">
     <g id="line2d_20">
      <g>
       <use xlink:href="#m1e50c2f43c" x="57.6" y="243.143096" style="stroke: #000000; stroke-width: 0.6"/>
      </g>
     </g>
    </g>
    <g id="ytick_16">
     <g id="line2d_21">
      <g>
       <use xlink:href="#m1e50c2f43c" x="57.6" y="240.178193" style="stroke: #000000; stroke-width: 0.6"/>
      </g>
     </g>
    </g>
    <g id="ytick_17">
     <g id="line2d_22">
      <g>
       <use xlink:href="#m1e50c2f43c" x="57.6" y="220.077696" style="stroke: #000000; stroke-width: 0.6"/>
      </g>
     </g>
    </g>
    <g id="ytick_18">
     <g id="line2d_23">
      <g>
       <use xlink:href="#m1e50c2f43c" x="57.6" y="209.871094" style="stroke: #000000; stroke-width: 0.6"/>
      </g>
     </g>
    </g>
    <g id="ytick_19">
     <g id="line2d_24">
      <g>
       <use xlink:href="#m1e50c2f43c" x="57.6" y="202.629394" style="stroke: #000000; stroke-width: 0.6"/>
      </g>
     </g>
    </g>
    <g id="ytick_20">
     <g id="line2d_25">
      <g>
       <use xlink:href="#m1e50c2f43c" x="57.6" y="197.012296" style="stroke: #000000; stroke-width: 0.6"/>
      </g>
     </g>
    </g>
    <g id="ytick_21">
     <g id="line2d_26">
      <g>
       <use xlink:href="#m1e50c2f43c" x="57.6" y="192.422792" style="stroke: #000000; stroke-width: 0.6"/>
      </g>
     </g>
    </g>
    <g id="ytick_22">
     <g id="line2d_27">
      <g>
       <use xlink:href="#m1e50c2f43c" x="57.6" y="188.542422" style="stroke: #000000; stroke-width: 0.6"/>
      </g>
     </g>
    </g>
    <g id="ytick_23">
     <g id="line2d_28">
      <g>
       <use xlink:href="#m1e50c2f43c" x="57.6" y="185.181093" style="stroke: #000000; stroke-width: 0.6"/>
      </g>
     </g>
    </g>
    <g id="ytick_24">
     <g id="line2d_29">
      <g>
       <use xlink:href="#m1e50c2f43c" x="57.6" y="182.21619" style="stroke: #000000; stroke-width: 0.6"/>
      </g>
     </g>
    </g>
    <g id="ytick_25">
     <g id="line2d_30">
      <g>
       <use xlink:href="#m1e50c2f43c" x="57.6" y="162.115693" style="stroke: #000000; stroke-width: 0.6"/>
      </g>
     </g>
    </g>
    <g id="ytick_26">
     <g id="line2d_31">
      <g>
       <use xlink:href="#m1e50c2f43c" x="57.6" y="151.909091" style="stroke: #000000; stroke-width: 0.6"/>
      </g>
     </g>
    </g>
    <g id="ytick_27">
     <g id="line2d_32">
      <g>
       <use xlink:href="#m1e50c2f43c" x="57.6" y="144.667392" style="stroke: #000000; stroke-width: 0.6"/>
      </g>
     </g>
    </g>
    <g id="ytick_28">
     <g id="line2d_33">
      <g>
       <use xlink:href="#m1e50c2f43c" x="57.6" y="139.050293" style="stroke: #000000; stroke-width: 0.6"/>
      </g>
     </g>
    </g>
    <g id="ytick_29">
     <g id="line2d_34">
      <g>
       <use xlink:href="#m1e50c2f43c" x="57.6" y="134.46079" style="stroke: #000000; stroke-width: 0.6"/>
      </g>
     </g>
    </g>
    <g id="ytick_30">
     <g id="line2d_35">
      <g>
       <use xlink:href="#m1e50c2f43c" x="57.6" y="130.58042" style="stroke: #000000; stroke-width: 0.6"/>
      </g>
     </g>
    </g>
    <g id="ytick_31">
     <g id="line2d_36">
      <g>
       <use xlink:href="#m1e50c2f43c" x="57.6" y="127.21909" style="stroke: #000000; stroke-width: 0.6"/>
      </g>
     </g>
    </g>
    <g id="ytick_32">
     <g id="line2d_37">
      <g>
       <use xlink:href="#m1e50c2f43c" x="57.6" y="124.254188" style="stroke: #000000; stroke-width: 0.6"/>
      </g>
     </g>
    </g>
    <g id="ytick_33">
     <g id="line2d_38">
      <g>
       <use xlink:href="#m1e50c2f43c" x="57.6" y="104.15369" style="stroke: #000000; stroke-width: 0.6"/>
      </g>
     </g>
    </g>
    <g id="ytick_34">
     <g id="line2d_39">
      <g>
       <use xlink:href="#m1e50c2f43c" x="57.6" y="93.947088" style="stroke: #000000; stroke-width: 0.6"/>
      </g>
     </g>
    </g>
    <g id="ytick_35">
     <g id="line2d_40">
      <g>
       <use xlink:href="#m1e50c2f43c" x="57.6" y="86.705389" style="stroke: #000000; stroke-width: 0.6"/>
      </g>
     </g>
    </g>
    <g id="ytick_36">
     <g id="line2d_41">
      <g>
       <use xlink:href="#m1e50c2f43c" x="57.6" y="81.08829" style="stroke: #000000; stroke-width: 0.6"/>
      </g>
     </g>
    </g>
    <g id="ytick_37">
     <g id="line2d_42">
      <g>
       <use xlink:href="#m1e50c2f43c" x="57.6" y="76.498787" style="stroke: #000000; stroke-width: 0.6"/>
      </g>
     </g>
    </g>
    <g id="ytick_38">
     <g id="line2d_43">
      <g>
       <use xlink:href="#m1e50c2f43c" x="57.6" y="72.618417" style="stroke: #000000; stroke-width: 0.6"/>
      </g>
     </g>
    </g>
    <g id="ytick_39">
     <g id="line2d_44">
      <g>
       <use xlink:href="#m1e50c2f43c" x="57.6" y="69.257087" style="stroke: #000000; stroke-width: 0.6"/>
      </g>
     </g>
    </g>
    <g id="ytick_40">
     <g id="line2d_45">
      <g>
       <use xlink:href="#m1e50c2f43c" x="57.6" y="66.292185" style="stroke: #000000; stroke-width: 0.6"/>
      </g>
     </g>
    </g>
    <g id="ytick_41">
     <g id="line2d_46">
      <g>
       <use xlink:href="#m1e50c2f43c" x="57.6" y="46.191688" style="stroke: #000000; stroke-width: 0.6"/>
      </g>
     </g>
    </g>
    <g id="text_12">
     <!-- Number of Elements -->
     <g transform="translate(26.920312 225.917062) rotate(-90) scale(0.1 -0.1)">
      <defs>
       <path id="DejaVuSans-4e" d="M 628 4666 
L 1478 4666 
L 3547 763 
L 3547 4666 
L 4159 4666 
L 4159 0 
L 3309 0 
L 1241 3903 
L 1241 0 
L 628 0 
L 628 4666 
z
" transform="scale(0.015625)"/>
       <path id="DejaVuSans-75" d="M 544 1381 
L 544 3500 
L 1119 3500 
L 1119 1403 
Q 1119 906 1312 657 
Q 1506 409 1894 409 
Q 2359 409 2629 706 
Q 2900 1003 2900 1516 
L 2900 3500 
L 3475 3500 
L 3475 0 
L 2900 0 
L 2900 538 
Q 2691 219 2414 64 
Q 2138 -91 1772 -91 
Q 1169 -91 856 284 
Q 544 659 544 1381 
z
M 1991 3584 
L 1991 3584 
z
" transform="scale(0.015625)"/>
       <path id="DejaVuSans-62" d="M 3116 1747 
Q 3116 2381 2855 2742 
Q 2594 3103 2138 3103 
Q 1681 3103 1420 2742 
Q 1159 2381 1159 1747 
Q 1159 1113 1420 752 
Q 1681 391 2138 391 
Q 2594 391 2855 752 
Q 3116 1113 3116 1747 
z
M 1159 2969 
Q 1341 3281 1617 3432 
Q 1894 3584 2278 3584 
Q 2916 3584 3314 3078 
Q 3713 2572 3713 1747 
Q 3713 922 3314 415 
Q 2916 -91 2278 -91 
Q 1894 -91 1617 61 
Q 1341 213 1159 525 
L 1159 0 
L 581 0 
L 581 4863 
L 1159 4863 
L 1159 2969 
z
" transform="scale(0.015625)"/>
       <path id="DejaVuSans-72" d="M 2631 2963 
Q 2534 3019 2420 3045 
Q 2306 3072 2169 3072 
Q 1681 3072 1420 2755 
Q 1159 2438 1159 1844 
L 1159 0 
L 581 0 
L 581 3500 
L 1159 3500 
L 1159 2956 
Q 1341 3275 1631 3429 
Q 1922 3584 2338 3584 
Q 2397 3584 2469 3576 
Q 2541 3569 2628 3553 
L 2631 2963 
z
" transform="scale(0.015625)"/>
       <path id="DejaVuSans-73" d="M 2834 3397 
L 2834 2853 
Q 2591 2978 2328 3040 
Q 2066 3103 1784 3103 
Q 1356 3103 1142 2972 
Q 928 2841 928 2578 
Q 928 2378 1081 2264 
Q 1234 2150 1697 2047 
L 1894 2003 
Q 2506 1872 2764 1633 
Q 3022 1394 3022 966 
Q 3022 478 2636 193 
Q 2250 -91 1575 -91 
Q 1294 -91 989 -36 
Q 684 19 347 128 
L 347 722 
Q 666 556 975 473 
Q 1284 391 1588 391 
Q 1994 391 2212 530 
Q 2431 669 2431 922 
Q 2431 1156 2273 1281 
Q 2116 1406 1581 1522 
L 1381 1569 
Q 847 1681 609 1914 
Q 372 2147 372 2553 
Q 372 3047 722 3315 
Q 1072 3584 1716 3584 
Q 2034 3584 2315 3537 
Q 2597 3491 2834 3397 
z
" transform="scale(0.015625)"/>
      </defs>
      <use xlink:href="#DejaVuSans-4e"/>
      <use xlink:href="#DejaVuSans-75" x="74.804688"/>
      <use xlink:href="#DejaVuSans-6d" x="138.183594"/>
      <use xlink:href="#DejaVuSans-62" x="235.595703"/>
      <use xlink:href="#DejaVuSans-65" x="299.072266"/>
      <use xlink:href="#DejaVuSans-72" x="360.595703"/>
      <use xlink:href="#DejaVuSans-20" x="401.708984"/>
      <use xlink:href="#DejaVuSans-6f" x="433.496094"/>
      <use xlink:href="#DejaVuSans-66" x="494.677734"/>
      <use xlink:href="#DejaVuSans-20" x="529.882812"/>
      <use xlink:href="#DejaVuSans-45" x="561.669922"/>
      <use xlink:href="#DejaVuSans-6c" x="624.853516"/>
      <use xlink:href="#DejaVuSans-65" x="652.636719"/>
      <use xlink:href="#DejaVuSans-6d" x="714.160156"/>
      <use xlink:href="#DejaVuSans-65" x="811.572266"/>
      <use xlink:href="#DejaVuSans-6e" x="873.095703"/>
      <use xlink:href="#DejaVuSans-74" x="936.474609"/>
      <use xlink:href="#DejaVuSans-73" x="975.683594"/>
     </g>
    </g>
   </g>
   <g id="patch_129">
    <path d="M 57.6 307.584 
L 57.6 41.472 
" style="fill: none; stroke: #000000; stroke-width: 0.8; stroke-linejoin: miter; stroke-linecap: square"/>
   </g>
   <g id="patch_130">
    <path d="M 414.72 307.584 
L 414.72 41.472 
" style="fill: none; stroke: #000000; stroke-width: 0.8; stroke-linejoin: miter; stroke-linecap: square"/>
   </g>
   <g id="patch_131">
    <path d="M 57.6 307.584 
L 414.72 307.584 
" style="fill: none; stroke: #000000; stroke-width: 0.8; stroke-linejoin: miter; stroke-linecap: square"/>
   </g>
   <g id="patch_132">
    <path d="M 57.6 41.472 
L 414.72 41.472 
" style="fill: none; stroke: #000000; stroke-width: 0.8; stroke-linejoin: miter; stroke-linecap: square"/>
   </g>
  </g>
 </g>
 <defs>
  <clipPath id="p979fdf4593">
   <rect x="57.6" y="41.472" width="357.12" height="266.112"/>
  </clipPath>
 </defs>
</svg>
