<?xml version="1.0" encoding="utf-8" standalone="no"?>
<!DOCTYPE svg PUBLIC "-//W3C//DTD SVG 1.1//EN"
  "http://www.w3.org/Graphics/SVG/1.1/DTD/svg11.dtd">
<svg xmlns:xlink="http://www.w3.org/1999/xlink" width="460.8pt" height="345.6pt" viewBox="0 0 460.8 345.6" xmlns="http://www.w3.org/2000/svg" version="1.1">
 <metadata>
  <rdf:RDF xmlns:dc="http://purl.org/dc/elements/1.1/" xmlns:cc="http://creativecommons.org/ns#" xmlns:rdf="http://www.w3.org/1999/02/22-rdf-syntax-ns#">
   <cc:Work>
    <dc:type rdf:resource="http://purl.org/dc/dcmitype/StillImage"/>
    <dc:date>2024-02-18T20:56:38.049451</dc:date>
    <dc:format>image/svg+xml</dc:format>
    <dc:creator>
     <cc:Agent>
      <dc:title>Matplotlib v3.8.3, https://matplotlib.org/</dc:title>
     </cc:Agent>
    </dc:creator>
   </cc:Work>
  </rdf:RDF>
 </metadata>
 <defs>
  <style type="text/css">*{stroke-linejoin: round; stroke-linecap: butt}</style>
 </defs>
 <g id="figure_1">
  <g id="patch_1">
   <path d="M 0 345.6 
L 460.8 345.6 
L 460.8 0 
L 0 0 
z
" style="fill: #ffffff"/>
  </g>
  <g id="axes_1">
   <g id="patch_2">
    <path d="M 57.6 307.584 
L 414.72 307.584 
L 414.72 41.472 
L 57.6 41.472 
z
" style="fill: #ffffff"/>
   </g>
   <g id="patch_3">
    <path d="M 73.832727 307.584 
L 74.620246 307.584 
L 74.620246 303.815375 
L 73.832727 303.815375 
z
" clip-path="url(#pa93525511a)" style="fill: #1f77b4"/>
   </g>
   <g id="patch_4">
    <path d="M 74.817126 307.584 
L 75.604644 307.584 
L 75.604644 300.046751 
L 74.817126 300.046751 
z
" clip-path="url(#pa93525511a)" style="fill: #1f77b4"/>
   </g>
   <g id="patch_5">
    <path d="M 76.785922 307.584 
L 77.573441 307.584 
L 77.573441 292.509502 
L 76.785922 292.509502 
z
" clip-path="url(#pa93525511a)" style="fill: #1f77b4"/>
   </g>
   <g id="patch_6">
    <path d="M 78.754719 307.584 
L 79.542237 307.584 
L 79.542237 258.591881 
L 78.754719 258.591881 
z
" clip-path="url(#pa93525511a)" style="fill: #1f77b4"/>
   </g>
   <g id="patch_7">
    <path d="M 81.707913 307.584 
L 82.495432 307.584 
L 82.495432 194.525264 
L 81.707913 194.525264 
z
" clip-path="url(#pa93525511a)" style="fill: #1f77b4"/>
   </g>
   <g id="patch_8">
    <path d="M 75.801524 307.584 
L 76.589042 307.584 
L 76.589042 297.220283 
L 75.801524 297.220283 
z
" clip-path="url(#pa93525511a)" style="fill: #1f77b4"/>
   </g>
   <g id="patch_9">
    <path d="M 77.77032 307.584 
L 78.557839 307.584 
L 78.557839 277.435004 
L 77.77032 277.435004 
z
" clip-path="url(#pa93525511a)" style="fill: #1f77b4"/>
   </g>
   <g id="patch_10">
    <path d="M 80.723515 307.584 
L 81.511034 307.584 
L 81.511034 230.327197 
L 80.723515 230.327197 
z
" clip-path="url(#pa93525511a)" style="fill: #1f77b4"/>
   </g>
   <g id="patch_11">
    <path d="M 79.739117 307.584 
L 80.526635 307.584 
L 80.526635 238.806602 
L 79.739117 238.806602 
z
" clip-path="url(#pa93525511a)" style="fill: #1f77b4"/>
   </g>
   <g id="patch_12">
    <path d="M 83.67671 307.584 
L 84.464228 307.584 
L 84.464228 131.400803 
L 83.67671 131.400803 
z
" clip-path="url(#pa93525511a)" style="fill: #1f77b4"/>
   </g>
   <g id="patch_13">
    <path d="M 85.645506 307.584 
L 86.433025 307.584 
L 86.433025 101.251807 
L 85.645506 101.251807 
z
" clip-path="url(#pa93525511a)" style="fill: #1f77b4"/>
   </g>
   <g id="patch_14">
    <path d="M 82.692312 307.584 
L 83.47983 307.584 
L 83.47983 140.822364 
L 82.692312 140.822364 
z
" clip-path="url(#pa93525511a)" style="fill: #1f77b4"/>
   </g>
   <g id="patch_15">
    <path d="M 84.661108 307.584 
L 85.448627 307.584 
L 85.448627 95.59887 
L 84.661108 95.59887 
z
" clip-path="url(#pa93525511a)" style="fill: #1f77b4"/>
   </g>
   <g id="patch_16">
    <path d="M 87.614303 307.584 
L 88.401821 307.584 
L 88.401821 54.144 
L 87.614303 54.144 
z
" clip-path="url(#pa93525511a)" style="fill: #1f77b4"/>
   </g>
   <g id="patch_17">
    <path d="M 89.583099 307.584 
L 90.370618 307.584 
L 90.370618 97.483182 
L 89.583099 97.483182 
z
" clip-path="url(#pa93525511a)" style="fill: #1f77b4"/>
   </g>
   <g id="patch_18">
    <path d="M 86.629905 307.584 
L 87.417423 307.584 
L 87.417423 74.871435 
L 86.629905 74.871435 
z
" clip-path="url(#pa93525511a)" style="fill: #1f77b4"/>
   </g>
   <g id="patch_19">
    <path d="M 95.489489 307.584 
L 96.277008 307.584 
L 96.277008 232.211509 
L 95.489489 232.211509 
z
" clip-path="url(#pa93525511a)" style="fill: #1f77b4"/>
   </g>
   <g id="patch_20">
    <path d="M 88.598701 307.584 
L 89.38622 307.584 
L 89.38622 99.367494 
L 88.598701 99.367494 
z
" clip-path="url(#pa93525511a)" style="fill: #1f77b4"/>
   </g>
   <g id="patch_21">
    <path d="M 90.567498 307.584 
L 91.355016 307.584 
L 91.355016 130.458647 
L 90.567498 130.458647 
z
" clip-path="url(#pa93525511a)" style="fill: #1f77b4"/>
   </g>
   <g id="patch_22">
    <path d="M 101.395878 307.584 
L 102.183397 307.584 
L 102.183397 233.153665 
L 101.395878 233.153665 
z
" clip-path="url(#pa93525511a)" style="fill: #1f77b4"/>
   </g>
   <g id="patch_23">
    <path d="M 94.505091 307.584 
L 95.292609 307.584 
L 95.292609 216.194855 
L 94.505091 216.194855 
z
" clip-path="url(#pa93525511a)" style="fill: #1f77b4"/>
   </g>
   <g id="patch_24">
    <path d="M 100.41148 307.584 
L 101.198999 307.584 
L 101.198999 237.864446 
L 100.41148 237.864446 
z
" clip-path="url(#pa93525511a)" style="fill: #1f77b4"/>
   </g>
   <g id="patch_25">
    <path d="M 92.536294 307.584 
L 93.323813 307.584 
L 93.323813 169.087048 
L 92.536294 169.087048 
z
" clip-path="url(#pa93525511a)" style="fill: #1f77b4"/>
   </g>
   <g id="patch_26">
    <path d="M 99.427082 307.584 
L 100.214601 307.584 
L 100.214601 235.037978 
L 99.427082 235.037978 
z
" clip-path="url(#pa93525511a)" style="fill: #1f77b4"/>
   </g>
   <g id="patch_27">
    <path d="M 93.520692 307.584 
L 94.308211 307.584 
L 94.308211 187.930171 
L 93.520692 187.930171 
z
" clip-path="url(#pa93525511a)" style="fill: #1f77b4"/>
   </g>
   <g id="patch_28">
    <path d="M 97.458285 307.584 
L 98.245804 307.584 
L 98.245804 225.616416 
L 97.458285 225.616416 
z
" clip-path="url(#pa93525511a)" style="fill: #1f77b4"/>
   </g>
   <g id="patch_29">
    <path d="M 96.473887 307.584 
L 97.261406 307.584 
L 97.261406 222.789948 
L 96.473887 222.789948 
z
" clip-path="url(#pa93525511a)" style="fill: #1f77b4"/>
   </g>
   <g id="patch_30">
    <path d="M 104.349073 307.584 
L 105.136592 307.584 
L 105.136592 236.92229 
L 104.349073 236.92229 
z
" clip-path="url(#pa93525511a)" style="fill: #1f77b4"/>
   </g>
   <g id="patch_31">
    <path d="M 91.551896 307.584 
L 92.339415 307.584 
L 92.339415 168.144892 
L 91.551896 168.144892 
z
" clip-path="url(#pa93525511a)" style="fill: #1f77b4"/>
   </g>
   <g id="patch_32">
    <path d="M 109.271065 307.584 
L 110.058583 307.584 
L 110.058583 243.517383 
L 109.271065 243.517383 
z
" clip-path="url(#pa93525511a)" style="fill: #1f77b4"/>
   </g>
   <g id="patch_33">
    <path d="M 111.239861 307.584 
L 112.02738 307.584 
L 112.02738 255.765413 
L 111.239861 255.765413 
z
" clip-path="url(#pa93525511a)" style="fill: #1f77b4"/>
   </g>
   <g id="patch_34">
    <path d="M 107.302268 307.584 
L 108.089787 307.584 
L 108.089787 234.095822 
L 107.302268 234.095822 
z
" clip-path="url(#pa93525511a)" style="fill: #1f77b4"/>
   </g>
   <g id="patch_35">
    <path d="M 110.255463 307.584 
L 111.042981 307.584 
L 111.042981 240.690914 
L 110.255463 240.690914 
z
" clip-path="url(#pa93525511a)" style="fill: #1f77b4"/>
   </g>
   <g id="patch_36">
    <path d="M 103.364675 307.584 
L 104.152194 307.584 
L 104.152194 238.806602 
L 103.364675 238.806602 
z
" clip-path="url(#pa93525511a)" style="fill: #1f77b4"/>
   </g>
   <g id="patch_37">
    <path d="M 98.442684 307.584 
L 99.230202 307.584 
L 99.230202 235.037978 
L 98.442684 235.037978 
z
" clip-path="url(#pa93525511a)" style="fill: #1f77b4"/>
   </g>
   <g id="patch_38">
    <path d="M 112.224259 307.584 
L 113.011778 307.584 
L 113.011778 251.996788 
L 112.224259 251.996788 
z
" clip-path="url(#pa93525511a)" style="fill: #1f77b4"/>
   </g>
   <g id="patch_39">
    <path d="M 108.286666 307.584 
L 109.074185 307.584 
L 109.074185 235.037978 
L 108.286666 235.037978 
z
" clip-path="url(#pa93525511a)" style="fill: #1f77b4"/>
   </g>
   <g id="patch_40">
    <path d="M 106.31787 307.584 
L 107.105388 307.584 
L 107.105388 238.806602 
L 106.31787 238.806602 
z
" clip-path="url(#pa93525511a)" style="fill: #1f77b4"/>
   </g>
   <g id="patch_41">
    <path d="M 113.208658 307.584 
L 113.996176 307.584 
L 113.996176 233.153665 
L 113.208658 233.153665 
z
" clip-path="url(#pa93525511a)" style="fill: #1f77b4"/>
   </g>
   <g id="patch_42">
    <path d="M 102.380277 307.584 
L 103.167795 307.584 
L 103.167795 240.690914 
L 102.380277 240.690914 
z
" clip-path="url(#pa93525511a)" style="fill: #1f77b4"/>
   </g>
   <g id="patch_43">
    <path d="M 114.193056 307.584 
L 114.980574 307.584 
L 114.980574 253.8811 
L 114.193056 253.8811 
z
" clip-path="url(#pa93525511a)" style="fill: #1f77b4"/>
   </g>
   <g id="patch_44">
    <path d="M 105.333472 307.584 
L 106.12099 307.584 
L 106.12099 234.095822 
L 105.333472 234.095822 
z
" clip-path="url(#pa93525511a)" style="fill: #1f77b4"/>
   </g>
   <g id="patch_45">
    <path d="M 115.177454 307.584 
L 115.964973 307.584 
L 115.964973 252.938944 
L 115.177454 252.938944 
z
" clip-path="url(#pa93525511a)" style="fill: #1f77b4"/>
   </g>
   <g id="patch_46">
    <path d="M 121.083844 307.584 
L 121.871362 307.584 
L 121.871362 253.8811 
L 121.083844 253.8811 
z
" clip-path="url(#pa93525511a)" style="fill: #1f77b4"/>
   </g>
   <g id="patch_47">
    <path d="M 117.146251 307.584 
L 117.933769 307.584 
L 117.933769 248.228164 
L 117.146251 248.228164 
z
" clip-path="url(#pa93525511a)" style="fill: #1f77b4"/>
   </g>
   <g id="patch_48">
    <path d="M 120.099445 307.584 
L 120.886964 307.584 
L 120.886964 250.112476 
L 120.099445 250.112476 
z
" clip-path="url(#pa93525511a)" style="fill: #1f77b4"/>
   </g>
   <g id="patch_49">
    <path d="M 125.021437 307.584 
L 125.808955 307.584 
L 125.808955 257.649725 
L 125.021437 257.649725 
z
" clip-path="url(#pa93525511a)" style="fill: #1f77b4"/>
   </g>
   <g id="patch_50">
    <path d="M 132.896623 307.584 
L 133.684141 307.584 
L 133.684141 264.244818 
L 132.896623 264.244818 
z
" clip-path="url(#pa93525511a)" style="fill: #1f77b4"/>
   </g>
   <g id="patch_51">
    <path d="M 126.005835 307.584 
L 126.793354 307.584 
L 126.793354 261.418349 
L 126.005835 261.418349 
z
" clip-path="url(#pa93525511a)" style="fill: #1f77b4"/>
   </g>
   <g id="patch_52">
    <path d="M 116.161852 307.584 
L 116.949371 307.584 
L 116.949371 243.517383 
L 116.161852 243.517383 
z
" clip-path="url(#pa93525511a)" style="fill: #1f77b4"/>
   </g>
   <g id="patch_53">
    <path d="M 122.068242 307.584 
L 122.855761 307.584 
L 122.855761 261.418349 
L 122.068242 261.418349 
z
" clip-path="url(#pa93525511a)" style="fill: #1f77b4"/>
   </g>
   <g id="patch_54">
    <path d="M 124.037038 307.584 
L 124.824557 307.584 
L 124.824557 268.013442 
L 124.037038 268.013442 
z
" clip-path="url(#pa93525511a)" style="fill: #1f77b4"/>
   </g>
   <g id="patch_55">
    <path d="M 128.95903 307.584 
L 129.746548 307.584 
L 129.746548 258.591881 
L 128.95903 258.591881 
z
" clip-path="url(#pa93525511a)" style="fill: #1f77b4"/>
   </g>
   <g id="patch_56">
    <path d="M 119.115047 307.584 
L 119.902566 307.584 
L 119.902566 253.8811 
L 119.115047 253.8811 
z
" clip-path="url(#pa93525511a)" style="fill: #1f77b4"/>
   </g>
   <g id="patch_57">
    <path d="M 118.130649 307.584 
L 118.918167 307.584 
L 118.918167 256.707569 
L 118.130649 256.707569 
z
" clip-path="url(#pa93525511a)" style="fill: #1f77b4"/>
   </g>
   <g id="patch_58">
    <path d="M 131.912224 307.584 
L 132.699743 307.584 
L 132.699743 254.823257 
L 131.912224 254.823257 
z
" clip-path="url(#pa93525511a)" style="fill: #1f77b4"/>
   </g>
   <g id="patch_59">
    <path d="M 130.927826 307.584 
L 131.715345 307.584 
L 131.715345 260.476193 
L 130.927826 260.476193 
z
" clip-path="url(#pa93525511a)" style="fill: #1f77b4"/>
   </g>
   <g id="patch_60">
    <path d="M 127.974631 307.584 
L 128.76215 307.584 
L 128.76215 252.938944 
L 127.974631 252.938944 
z
" clip-path="url(#pa93525511a)" style="fill: #1f77b4"/>
   </g>
   <g id="patch_61">
    <path d="M 126.990233 307.584 
L 127.777752 307.584 
L 127.777752 258.591881 
L 126.990233 258.591881 
z
" clip-path="url(#pa93525511a)" style="fill: #1f77b4"/>
   </g>
   <g id="patch_62">
    <path d="M 123.05264 307.584 
L 123.840159 307.584 
L 123.840159 264.244818 
L 123.05264 264.244818 
z
" clip-path="url(#pa93525511a)" style="fill: #1f77b4"/>
   </g>
   <g id="patch_63">
    <path d="M 136.834216 307.584 
L 137.621734 307.584 
L 137.621734 266.12913 
L 136.834216 266.12913 
z
" clip-path="url(#pa93525511a)" style="fill: #1f77b4"/>
   </g>
   <g id="patch_64">
    <path d="M 129.943428 307.584 
L 130.730947 307.584 
L 130.730947 260.476193 
L 129.943428 260.476193 
z
" clip-path="url(#pa93525511a)" style="fill: #1f77b4"/>
   </g>
   <g id="patch_65">
    <path d="M 143.725004 307.584 
L 144.512522 307.584 
L 144.512522 269.897755 
L 143.725004 269.897755 
z
" clip-path="url(#pa93525511a)" style="fill: #1f77b4"/>
   </g>
   <g id="patch_66">
    <path d="M 137.818614 307.584 
L 138.606133 307.584 
L 138.606133 269.897755 
L 137.818614 269.897755 
z
" clip-path="url(#pa93525511a)" style="fill: #1f77b4"/>
   </g>
   <g id="patch_67">
    <path d="M 138.803012 307.584 
L 139.590531 307.584 
L 139.590531 268.955599 
L 138.803012 268.955599 
z
" clip-path="url(#pa93525511a)" style="fill: #1f77b4"/>
   </g>
   <g id="patch_68">
    <path d="M 142.740605 307.584 
L 143.528124 307.584 
L 143.528124 268.955599 
L 142.740605 268.955599 
z
" clip-path="url(#pa93525511a)" style="fill: #1f77b4"/>
   </g>
   <g id="patch_69">
    <path d="M 149.631393 307.584 
L 150.418912 307.584 
L 150.418912 272.724223 
L 149.631393 272.724223 
z
" clip-path="url(#pa93525511a)" style="fill: #1f77b4"/>
   </g>
   <g id="patch_70">
    <path d="M 168.33496 307.584 
L 169.122479 307.584 
L 169.122479 280.261472 
L 168.33496 280.261472 
z
" clip-path="url(#pa93525511a)" style="fill: #1f77b4"/>
   </g>
   <g id="patch_71">
    <path d="M 139.787411 307.584 
L 140.574929 307.584 
L 140.574929 254.823257 
L 139.787411 254.823257 
z
" clip-path="url(#pa93525511a)" style="fill: #1f77b4"/>
   </g>
   <g id="patch_72">
    <path d="M 145.6938 307.584 
L 146.481319 307.584 
L 146.481319 279.319316 
L 145.6938 279.319316 
z
" clip-path="url(#pa93525511a)" style="fill: #1f77b4"/>
   </g>
   <g id="patch_73">
    <path d="M 134.865419 307.584 
L 135.652938 307.584 
L 135.652938 268.013442 
L 134.865419 268.013442 
z
" clip-path="url(#pa93525511a)" style="fill: #1f77b4"/>
   </g>
   <g id="patch_74">
    <path d="M 147.662597 307.584 
L 148.450115 307.584 
L 148.450115 272.724223 
L 147.662597 272.724223 
z
" clip-path="url(#pa93525511a)" style="fill: #1f77b4"/>
   </g>
   <g id="patch_75">
    <path d="M 158.490977 307.584 
L 159.278496 307.584 
L 159.278496 280.261472 
L 158.490977 280.261472 
z
" clip-path="url(#pa93525511a)" style="fill: #1f77b4"/>
   </g>
   <g id="patch_76">
    <path d="M 133.881021 307.584 
L 134.66854 307.584 
L 134.66854 261.418349 
L 133.881021 261.418349 
z
" clip-path="url(#pa93525511a)" style="fill: #1f77b4"/>
   </g>
   <g id="patch_77">
    <path d="M 152.584588 307.584 
L 153.372107 307.584 
L 153.372107 265.186974 
L 152.584588 265.186974 
z
" clip-path="url(#pa93525511a)" style="fill: #1f77b4"/>
   </g>
   <g id="patch_78">
    <path d="M 166.366164 307.584 
L 167.153682 307.584 
L 167.153682 285.914409 
L 166.366164 285.914409 
z
" clip-path="url(#pa93525511a)" style="fill: #1f77b4"/>
   </g>
   <g id="patch_79">
    <path d="M 157.506579 307.584 
L 158.294098 307.584 
L 158.294098 282.145784 
L 157.506579 282.145784 
z
" clip-path="url(#pa93525511a)" style="fill: #1f77b4"/>
   </g>
   <g id="patch_80">
    <path d="M 146.678198 307.584 
L 147.465717 307.584 
L 147.465717 269.897755 
L 146.678198 269.897755 
z
" clip-path="url(#pa93525511a)" style="fill: #1f77b4"/>
   </g>
   <g id="patch_81">
    <path d="M 148.646995 307.584 
L 149.434513 307.584 
L 149.434513 278.37716 
L 148.646995 278.37716 
z
" clip-path="url(#pa93525511a)" style="fill: #1f77b4"/>
   </g>
   <g id="patch_82">
    <path d="M 135.849818 307.584 
L 136.637336 307.584 
L 136.637336 265.186974 
L 135.849818 265.186974 
z
" clip-path="url(#pa93525511a)" style="fill: #1f77b4"/>
   </g>
   <g id="patch_83">
    <path d="M 144.709402 307.584 
L 145.49692 307.584 
L 145.49692 284.030097 
L 144.709402 284.030097 
z
" clip-path="url(#pa93525511a)" style="fill: #1f77b4"/>
   </g>
   <g id="patch_84">
    <path d="M 156.522181 307.584 
L 157.3097 307.584 
L 157.3097 279.319316 
L 156.522181 279.319316 
z
" clip-path="url(#pa93525511a)" style="fill: #1f77b4"/>
   </g>
   <g id="patch_85">
    <path d="M 151.60019 307.584 
L 152.387708 307.584 
L 152.387708 275.550691 
L 151.60019 275.550691 
z
" clip-path="url(#pa93525511a)" style="fill: #1f77b4"/>
   </g>
   <g id="patch_86">
    <path d="M 140.771809 307.584 
L 141.559327 307.584 
L 141.559327 271.782067 
L 140.771809 271.782067 
z
" clip-path="url(#pa93525511a)" style="fill: #1f77b4"/>
   </g>
   <g id="patch_87">
    <path d="M 165.381765 307.584 
L 166.169284 307.584 
L 166.169284 283.087941 
L 165.381765 283.087941 
z
" clip-path="url(#pa93525511a)" style="fill: #1f77b4"/>
   </g>
   <g id="patch_88">
    <path d="M 177.194544 307.584 
L 177.982063 307.584 
L 177.982063 288.740877 
L 177.194544 288.740877 
z
" clip-path="url(#pa93525511a)" style="fill: #1f77b4"/>
   </g>
   <g id="patch_89">
    <path d="M 176.210146 307.584 
L 176.997665 307.584 
L 176.997665 286.856565 
L 176.210146 286.856565 
z
" clip-path="url(#pa93525511a)" style="fill: #1f77b4"/>
   </g>
   <g id="patch_90">
    <path d="M 155.537783 307.584 
L 156.325301 307.584 
L 156.325301 280.261472 
L 155.537783 280.261472 
z
" clip-path="url(#pa93525511a)" style="fill: #1f77b4"/>
   </g>
   <g id="patch_91">
    <path d="M 153.568986 307.584 
L 154.356505 307.584 
L 154.356505 270.839911 
L 153.568986 270.839911 
z
" clip-path="url(#pa93525511a)" style="fill: #1f77b4"/>
   </g>
   <g id="patch_92">
    <path d="M 141.756207 307.584 
L 142.543726 307.584 
L 142.543726 265.186974 
L 141.756207 265.186974 
z
" clip-path="url(#pa93525511a)" style="fill: #1f77b4"/>
   </g>
   <g id="patch_93">
    <path d="M 164.397367 307.584 
L 165.184886 307.584 
L 165.184886 282.145784 
L 164.397367 282.145784 
z
" clip-path="url(#pa93525511a)" style="fill: #1f77b4"/>
   </g>
   <g id="patch_94">
    <path d="M 159.475376 307.584 
L 160.262894 307.584 
L 160.262894 278.37716 
L 159.475376 278.37716 
z
" clip-path="url(#pa93525511a)" style="fill: #1f77b4"/>
   </g>
   <g id="patch_95">
    <path d="M 179.163341 307.584 
L 179.950859 307.584 
L 179.950859 286.856565 
L 179.163341 286.856565 
z
" clip-path="url(#pa93525511a)" style="fill: #1f77b4"/>
   </g>
   <g id="patch_96">
    <path d="M 160.459774 307.584 
L 161.247293 307.584 
L 161.247293 277.435004 
L 160.459774 277.435004 
z
" clip-path="url(#pa93525511a)" style="fill: #1f77b4"/>
   </g>
   <g id="patch_97">
    <path d="M 169.319358 307.584 
L 170.106877 307.584 
L 170.106877 283.087941 
L 169.319358 283.087941 
z
" clip-path="url(#pa93525511a)" style="fill: #1f77b4"/>
   </g>
   <g id="patch_98">
    <path d="M 172.272553 307.584 
L 173.060072 307.584 
L 173.060072 290.62519 
L 172.272553 290.62519 
z
" clip-path="url(#pa93525511a)" style="fill: #1f77b4"/>
   </g>
   <g id="patch_99">
    <path d="M 161.444172 307.584 
L 162.231691 307.584 
L 162.231691 273.666379 
L 161.444172 273.666379 
z
" clip-path="url(#pa93525511a)" style="fill: #1f77b4"/>
   </g>
   <g id="patch_100">
    <path d="M 171.288155 307.584 
L 172.075673 307.584 
L 172.075673 281.203628 
L 171.288155 281.203628 
z
" clip-path="url(#pa93525511a)" style="fill: #1f77b4"/>
   </g>
   <g id="patch_101">
    <path d="M 178.178943 307.584 
L 178.966461 307.584 
L 178.966461 284.030097 
L 178.178943 284.030097 
z
" clip-path="url(#pa93525511a)" style="fill: #1f77b4"/>
   </g>
   <g id="patch_102">
    <path d="M 187.038527 307.584 
L 187.826046 307.584 
L 187.826046 294.393814 
L 187.038527 294.393814 
z
" clip-path="url(#pa93525511a)" style="fill: #1f77b4"/>
   </g>
   <g id="patch_103">
    <path d="M 162.42857 307.584 
L 163.216089 307.584 
L 163.216089 282.145784 
L 162.42857 282.145784 
z
" clip-path="url(#pa93525511a)" style="fill: #1f77b4"/>
   </g>
   <g id="patch_104">
    <path d="M 163.412969 307.584 
L 164.200487 307.584 
L 164.200487 279.319316 
L 163.412969 279.319316 
z
" clip-path="url(#pa93525511a)" style="fill: #1f77b4"/>
   </g>
   <g id="patch_105">
    <path d="M 154.553384 307.584 
L 155.340903 307.584 
L 155.340903 276.492848 
L 154.553384 276.492848 
z
" clip-path="url(#pa93525511a)" style="fill: #1f77b4"/>
   </g>
   <g id="patch_106">
    <path d="M 167.350562 307.584 
L 168.13808 307.584 
L 168.13808 284.972253 
L 167.350562 284.972253 
z
" clip-path="url(#pa93525511a)" style="fill: #1f77b4"/>
   </g>
   <g id="patch_107">
    <path d="M 150.615791 307.584 
L 151.40331 307.584 
L 151.40331 276.492848 
L 150.615791 276.492848 
z
" clip-path="url(#pa93525511a)" style="fill: #1f77b4"/>
   </g>
   <g id="patch_108">
    <path d="M 189.991722 307.584 
L 190.77924 307.584 
L 190.77924 293.451658 
L 189.991722 293.451658 
z
" clip-path="url(#pa93525511a)" style="fill: #1f77b4"/>
   </g>
   <g id="patch_109">
    <path d="M 188.022925 307.584 
L 188.810444 307.584 
L 188.810444 292.509502 
L 188.022925 292.509502 
z
" clip-path="url(#pa93525511a)" style="fill: #1f77b4"/>
   </g>
   <g id="patch_110">
    <path d="M 174.24135 307.584 
L 175.028868 307.584 
L 175.028868 287.798721 
L 174.24135 287.798721 
z
" clip-path="url(#pa93525511a)" style="fill: #1f77b4"/>
   </g>
   <g id="patch_111">
    <path d="M 181.132137 307.584 
L 181.919656 307.584 
L 181.919656 290.62519 
L 181.132137 290.62519 
z
" clip-path="url(#pa93525511a)" style="fill: #1f77b4"/>
   </g>
   <g id="patch_112">
    <path d="M 173.256951 307.584 
L 174.04447 307.584 
L 174.04447 296.278126 
L 173.256951 296.278126 
z
" clip-path="url(#pa93525511a)" style="fill: #1f77b4"/>
   </g>
   <g id="patch_113">
    <path d="M 175.225748 307.584 
L 176.013266 307.584 
L 176.013266 289.683033 
L 175.225748 289.683033 
z
" clip-path="url(#pa93525511a)" style="fill: #1f77b4"/>
   </g>
   <g id="patch_114">
    <path d="M 183.100934 307.584 
L 183.888453 307.584 
L 183.888453 295.33597 
L 183.100934 295.33597 
z
" clip-path="url(#pa93525511a)" style="fill: #1f77b4"/>
   </g>
   <g id="patch_115">
    <path d="M 170.303757 307.584 
L 171.091275 307.584 
L 171.091275 292.509502 
L 170.303757 292.509502 
z
" clip-path="url(#pa93525511a)" style="fill: #1f77b4"/>
   </g>
   <g id="patch_116">
    <path d="M 202.788899 307.584 
L 203.576418 307.584 
L 203.576418 299.104595 
L 202.788899 299.104595 
z
" clip-path="url(#pa93525511a)" style="fill: #1f77b4"/>
   </g>
   <g id="patch_117">
    <path d="M 201.804501 307.584 
L 202.592019 307.584 
L 202.592019 293.451658 
L 201.804501 293.451658 
z
" clip-path="url(#pa93525511a)" style="fill: #1f77b4"/>
   </g>
   <g id="patch_118">
    <path d="M 182.116536 307.584 
L 182.904054 307.584 
L 182.904054 292.509502 
L 182.116536 292.509502 
z
" clip-path="url(#pa93525511a)" style="fill: #1f77b4"/>
   </g>
   <g id="patch_119">
    <path d="M 197.866908 307.584 
L 198.654426 307.584 
L 198.654426 293.451658 
L 197.866908 293.451658 
z
" clip-path="url(#pa93525511a)" style="fill: #1f77b4"/>
   </g>
   <g id="patch_120">
    <path d="M 200.820103 307.584 
L 201.607621 307.584 
L 201.607621 294.393814 
L 200.820103 294.393814 
z
" clip-path="url(#pa93525511a)" style="fill: #1f77b4"/>
   </g>
   <g id="patch_121">
    <path d="M 193.929315 307.584 
L 194.716833 307.584 
L 194.716833 294.393814 
L 193.929315 294.393814 
z
" clip-path="url(#pa93525511a)" style="fill: #1f77b4"/>
   </g>
   <g id="patch_122">
    <path d="M 192.944916 307.584 
L 193.732435 307.584 
L 193.732435 298.162439 
L 192.944916 298.162439 
z
" clip-path="url(#pa93525511a)" style="fill: #1f77b4"/>
   </g>
   <g id="patch_123">
    <path d="M 195.898111 307.584 
L 196.68563 307.584 
L 196.68563 298.162439 
L 195.898111 298.162439 
z
" clip-path="url(#pa93525511a)" style="fill: #1f77b4"/>
   </g>
   <g id="patch_124">
    <path d="M 189.007323 307.584 
L 189.794842 307.584 
L 189.794842 294.393814 
L 189.007323 294.393814 
z
" clip-path="url(#pa93525511a)" style="fill: #1f77b4"/>
   </g>
   <g id="patch_125">
    <path d="M 190.97612 307.584 
L 191.763639 307.584 
L 191.763639 292.509502 
L 190.97612 292.509502 
z
" clip-path="url(#pa93525511a)" style="fill: #1f77b4"/>
   </g>
   <g id="patch_126">
    <path d="M 191.960518 307.584 
L 192.748037 307.584 
L 192.748037 297.220283 
L 191.960518 297.220283 
z
" clip-path="url(#pa93525511a)" style="fill: #1f77b4"/>
   </g>
   <g id="patch_127">
    <path d="M 227.398856 307.584 
L 228.186374 307.584 
L 228.186374 302.873219 
L 227.398856 302.873219 
z
" clip-path="url(#pa93525511a)" style="fill: #1f77b4"/>
   </g>
   <g id="patch_128">
    <path d="M 209.679687 307.584 
L 210.467205 307.584 
L 210.467205 300.046751 
L 209.679687 300.046751 
z
" clip-path="url(#pa93525511a)" style="fill: #1f77b4"/>
   </g>
   <g id="patch_129">
    <path d="M 208.695289 307.584 
L 209.482807 307.584 
L 209.482807 296.278126 
L 208.695289 296.278126 
z
" clip-path="url(#pa93525511a)" style="fill: #1f77b4"/>
   </g>
   <g id="patch_130">
    <path d="M 194.913713 307.584 
L 195.701232 307.584 
L 195.701232 299.104595 
L 194.913713 299.104595 
z
" clip-path="url(#pa93525511a)" style="fill: #1f77b4"/>
   </g>
   <g id="patch_131">
    <path d="M 196.88251 307.584 
L 197.670028 307.584 
L 197.670028 297.220283 
L 196.88251 297.220283 
z
" clip-path="url(#pa93525511a)" style="fill: #1f77b4"/>
   </g>
   <g id="patch_132">
    <path d="M 207.71089 307.584 
L 208.498409 307.584 
L 208.498409 299.104595 
L 207.71089 299.104595 
z
" clip-path="url(#pa93525511a)" style="fill: #1f77b4"/>
   </g>
   <g id="patch_133">
    <path d="M 186.054129 307.584 
L 186.841647 307.584 
L 186.841647 290.62519 
L 186.054129 290.62519 
z
" clip-path="url(#pa93525511a)" style="fill: #1f77b4"/>
   </g>
   <g id="patch_134">
    <path d="M 203.773297 307.584 
L 204.560816 307.584 
L 204.560816 300.046751 
L 203.773297 300.046751 
z
" clip-path="url(#pa93525511a)" style="fill: #1f77b4"/>
   </g>
   <g id="patch_135">
    <path d="M 185.06973 307.584 
L 185.857249 307.584 
L 185.857249 299.104595 
L 185.06973 299.104595 
z
" clip-path="url(#pa93525511a)" style="fill: #1f77b4"/>
   </g>
   <g id="patch_136">
    <path d="M 180.147739 307.584 
L 180.935258 307.584 
L 180.935258 290.62519 
L 180.147739 290.62519 
z
" clip-path="url(#pa93525511a)" style="fill: #1f77b4"/>
   </g>
   <g id="patch_137">
    <path d="M 210.664085 307.584 
L 211.451604 307.584 
L 211.451604 299.104595 
L 210.664085 299.104595 
z
" clip-path="url(#pa93525511a)" style="fill: #1f77b4"/>
   </g>
   <g id="patch_138">
    <path d="M 226.414457 307.584 
L 227.201976 307.584 
L 227.201976 301.931063 
L 226.414457 301.931063 
z
" clip-path="url(#pa93525511a)" style="fill: #1f77b4"/>
   </g>
   <g id="patch_139">
    <path d="M 224.445661 307.584 
L 225.233179 307.584 
L 225.233179 298.162439 
L 224.445661 298.162439 
z
" clip-path="url(#pa93525511a)" style="fill: #1f77b4"/>
   </g>
   <g id="patch_140">
    <path d="M 245.118024 307.584 
L 245.905543 307.584 
L 245.905543 305.699688 
L 245.118024 305.699688 
z
" clip-path="url(#pa93525511a)" style="fill: #1f77b4"/>
   </g>
   <g id="patch_141">
    <path d="M 211.648483 307.584 
L 212.436002 307.584 
L 212.436002 300.988907 
L 211.648483 300.988907 
z
" clip-path="url(#pa93525511a)" style="fill: #1f77b4"/>
   </g>
   <g id="patch_142">
    <path d="M 236.25844 307.584 
L 237.045958 307.584 
L 237.045958 302.873219 
L 236.25844 302.873219 
z
" clip-path="url(#pa93525511a)" style="fill: #1f77b4"/>
   </g>
   <g id="patch_143">
    <path d="M 244.133626 307.584 
L 244.921144 307.584 
L 244.921144 304.757532 
L 244.133626 304.757532 
z
" clip-path="url(#pa93525511a)" style="fill: #1f77b4"/>
   </g>
   <g id="patch_144">
    <path d="M 206.726492 307.584 
L 207.514011 307.584 
L 207.514011 299.104595 
L 206.726492 299.104595 
z
" clip-path="url(#pa93525511a)" style="fill: #1f77b4"/>
   </g>
   <g id="patch_145">
    <path d="M 229.367652 307.584 
L 230.155171 307.584 
L 230.155171 300.046751 
L 229.367652 300.046751 
z
" clip-path="url(#pa93525511a)" style="fill: #1f77b4"/>
   </g>
   <g id="patch_146">
    <path d="M 184.085332 307.584 
L 184.872851 307.584 
L 184.872851 294.393814 
L 184.085332 294.393814 
z
" clip-path="url(#pa93525511a)" style="fill: #1f77b4"/>
   </g>
   <g id="patch_147">
    <path d="M 213.61728 307.584 
L 214.404799 307.584 
L 214.404799 303.815375 
L 213.61728 303.815375 
z
" clip-path="url(#pa93525511a)" style="fill: #1f77b4"/>
   </g>
   <g id="patch_148">
    <path d="M 216.570475 307.584 
L 217.357993 307.584 
L 217.357993 297.220283 
L 216.570475 297.220283 
z
" clip-path="url(#pa93525511a)" style="fill: #1f77b4"/>
   </g>
   <g id="patch_149">
    <path d="M 222.476864 307.584 
L 223.264383 307.584 
L 223.264383 298.162439 
L 222.476864 298.162439 
z
" clip-path="url(#pa93525511a)" style="fill: #1f77b4"/>
   </g>
   <g id="patch_150">
    <path d="M 246.102422 307.584 
L 246.889941 307.584 
L 246.889941 304.757532 
L 246.102422 304.757532 
z
" clip-path="url(#pa93525511a)" style="fill: #1f77b4"/>
   </g>
   <g id="patch_151">
    <path d="M 198.851306 307.584 
L 199.638825 307.584 
L 199.638825 294.393814 
L 198.851306 294.393814 
z
" clip-path="url(#pa93525511a)" style="fill: #1f77b4"/>
   </g>
   <g id="patch_152">
    <path d="M 281.54076 307.584 
L 282.328278 307.584 
L 282.328278 306.641844 
L 281.54076 306.641844 
z
" clip-path="url(#pa93525511a)" style="fill: #1f77b4"/>
   </g>
   <g id="patch_153">
    <path d="M 250.040015 307.584 
L 250.827534 307.584 
L 250.827534 304.757532 
L 250.040015 304.757532 
z
" clip-path="url(#pa93525511a)" style="fill: #1f77b4"/>
   </g>
   <g id="patch_154">
    <path d="M 215.586076 307.584 
L 216.373595 307.584 
L 216.373595 303.815375 
L 215.586076 303.815375 
z
" clip-path="url(#pa93525511a)" style="fill: #1f77b4"/>
   </g>
   <g id="patch_155">
    <path d="M 239.211635 307.584 
L 239.999153 307.584 
L 239.999153 302.873219 
L 239.211635 302.873219 
z
" clip-path="url(#pa93525511a)" style="fill: #1f77b4"/>
   </g>
   <g id="patch_156">
    <path d="M 204.757696 307.584 
L 205.545214 307.584 
L 205.545214 298.162439 
L 204.757696 298.162439 
z
" clip-path="url(#pa93525511a)" style="fill: #1f77b4"/>
   </g>
   <g id="patch_157">
    <path d="M 225.430059 307.584 
L 226.217578 307.584 
L 226.217578 303.815375 
L 225.430059 303.815375 
z
" clip-path="url(#pa93525511a)" style="fill: #1f77b4"/>
   </g>
   <g id="patch_158">
    <path d="M 199.835704 307.584 
L 200.623223 307.584 
L 200.623223 296.278126 
L 199.835704 296.278126 
z
" clip-path="url(#pa93525511a)" style="fill: #1f77b4"/>
   </g>
   <g id="patch_159">
    <path d="M 235.274042 307.584 
L 236.06156 307.584 
L 236.06156 303.815375 
L 235.274042 303.815375 
z
" clip-path="url(#pa93525511a)" style="fill: #1f77b4"/>
   </g>
   <g id="patch_160">
    <path d="M 252.99321 307.584 
L 253.780729 307.584 
L 253.780729 305.699688 
L 252.99321 305.699688 
z
" clip-path="url(#pa93525511a)" style="fill: #1f77b4"/>
   </g>
   <g id="patch_161">
    <path d="M 228.383254 307.584 
L 229.170772 307.584 
L 229.170772 304.757532 
L 228.383254 304.757532 
z
" clip-path="url(#pa93525511a)" style="fill: #1f77b4"/>
   </g>
   <g id="patch_162">
    <path d="M 212.632882 307.584 
L 213.4204 307.584 
L 213.4204 300.046751 
L 212.632882 300.046751 
z
" clip-path="url(#pa93525511a)" style="fill: #1f77b4"/>
   </g>
   <g id="patch_163">
    <path d="M 237.242838 307.584 
L 238.030357 307.584 
L 238.030357 304.757532 
L 237.242838 304.757532 
z
" clip-path="url(#pa93525511a)" style="fill: #1f77b4"/>
   </g>
   <g id="patch_164">
    <path d="M 280.556361 307.584 
L 281.34388 307.584 
L 281.34388 306.641844 
L 280.556361 306.641844 
z
" clip-path="url(#pa93525511a)" style="fill: #1f77b4"/>
   </g>
   <g id="patch_165">
    <path d="M 217.554873 307.584 
L 218.342392 307.584 
L 218.342392 300.988907 
L 217.554873 300.988907 
z
" clip-path="url(#pa93525511a)" style="fill: #1f77b4"/>
   </g>
   <g id="patch_166">
    <path d="M 242.164829 307.584 
L 242.952348 307.584 
L 242.952348 305.699688 
L 242.164829 305.699688 
z
" clip-path="url(#pa93525511a)" style="fill: #1f77b4"/>
   </g>
   <g id="patch_167">
    <path d="M 231.336449 307.584 
L 232.123967 307.584 
L 232.123967 305.699688 
L 231.336449 305.699688 
z
" clip-path="url(#pa93525511a)" style="fill: #1f77b4"/>
   </g>
   <g id="patch_168">
    <path d="M 230.35205 307.584 
L 231.139569 307.584 
L 231.139569 305.699688 
L 230.35205 305.699688 
z
" clip-path="url(#pa93525511a)" style="fill: #1f77b4"/>
   </g>
   <g id="patch_169">
    <path d="M 247.086821 307.584 
L 247.874339 307.584 
L 247.874339 305.699688 
L 247.086821 305.699688 
z
" clip-path="url(#pa93525511a)" style="fill: #1f77b4"/>
   </g>
   <g id="patch_170">
    <path d="M 218.539271 307.584 
L 219.32679 307.584 
L 219.32679 301.931063 
L 218.539271 301.931063 
z
" clip-path="url(#pa93525511a)" style="fill: #1f77b4"/>
   </g>
   <g id="patch_171">
    <path d="M 233.305245 307.584 
L 234.092764 307.584 
L 234.092764 304.757532 
L 233.305245 304.757532 
z
" clip-path="url(#pa93525511a)" style="fill: #1f77b4"/>
   </g>
   <g id="patch_172">
    <path d="M 241.180431 307.584 
L 241.96795 307.584 
L 241.96795 302.873219 
L 241.180431 302.873219 
z
" clip-path="url(#pa93525511a)" style="fill: #1f77b4"/>
   </g>
   <g id="patch_173">
    <path d="M 257.915201 307.584 
L 258.70272 307.584 
L 258.70272 306.641844 
L 257.915201 306.641844 
z
" clip-path="url(#pa93525511a)" style="fill: #1f77b4"/>
   </g>
   <g id="patch_174">
    <path d="M 205.742094 307.584 
L 206.529612 307.584 
L 206.529612 300.046751 
L 205.742094 300.046751 
z
" clip-path="url(#pa93525511a)" style="fill: #1f77b4"/>
   </g>
   <g id="patch_175">
    <path d="M 238.227236 307.584 
L 239.014755 307.584 
L 239.014755 303.815375 
L 238.227236 303.815375 
z
" clip-path="url(#pa93525511a)" style="fill: #1f77b4"/>
   </g>
   <g id="patch_176">
    <path d="M 265.790388 307.584 
L 266.577906 307.584 
L 266.577906 306.641844 
L 265.790388 306.641844 
z
" clip-path="url(#pa93525511a)" style="fill: #1f77b4"/>
   </g>
   <g id="patch_177">
    <path d="M 259.883998 307.584 
L 260.671517 307.584 
L 260.671517 305.699688 
L 259.883998 305.699688 
z
" clip-path="url(#pa93525511a)" style="fill: #1f77b4"/>
   </g>
   <g id="patch_178">
    <path d="M 252.008812 307.584 
L 252.796331 307.584 
L 252.796331 304.757532 
L 252.008812 304.757532 
z
" clip-path="url(#pa93525511a)" style="fill: #1f77b4"/>
   </g>
   <g id="patch_179">
    <path d="M 255.946405 307.584 
L 256.733924 307.584 
L 256.733924 305.699688 
L 255.946405 305.699688 
z
" clip-path="url(#pa93525511a)" style="fill: #1f77b4"/>
   </g>
   <g id="patch_180">
    <path d="M 314.025902 307.584 
L 314.813421 307.584 
L 314.813421 306.641844 
L 314.025902 306.641844 
z
" clip-path="url(#pa93525511a)" style="fill: #1f77b4"/>
   </g>
   <g id="patch_181">
    <path d="M 266.774786 307.584 
L 267.562304 307.584 
L 267.562304 304.757532 
L 266.774786 304.757532 
z
" clip-path="url(#pa93525511a)" style="fill: #1f77b4"/>
   </g>
   <g id="patch_182">
    <path d="M 214.601678 307.584 
L 215.389197 307.584 
L 215.389197 306.641844 
L 214.601678 306.641844 
z
" clip-path="url(#pa93525511a)" style="fill: #1f77b4"/>
   </g>
   <g id="patch_183">
    <path d="M 312.057106 307.584 
L 312.844624 307.584 
L 312.844624 306.641844 
L 312.057106 306.641844 
z
" clip-path="url(#pa93525511a)" style="fill: #1f77b4"/>
   </g>
   <g id="patch_184">
    <path d="M 232.320847 307.584 
L 233.108365 307.584 
L 233.108365 303.815375 
L 232.320847 303.815375 
z
" clip-path="url(#pa93525511a)" style="fill: #1f77b4"/>
   </g>
   <g id="patch_185">
    <path d="M 220.508068 307.584 
L 221.295586 307.584 
L 221.295586 304.757532 
L 220.508068 304.757532 
z
" clip-path="url(#pa93525511a)" style="fill: #1f77b4"/>
   </g>
   <g id="patch_186">
    <path d="M 240.196033 307.584 
L 240.983551 307.584 
L 240.983551 303.815375 
L 240.196033 303.815375 
z
" clip-path="url(#pa93525511a)" style="fill: #1f77b4"/>
   </g>
   <g id="patch_187">
    <path d="M 251.024414 307.584 
L 251.811932 307.584 
L 251.811932 306.641844 
L 251.024414 306.641844 
z
" clip-path="url(#pa93525511a)" style="fill: #1f77b4"/>
   </g>
   <g id="patch_188">
    <path d="M 263.821591 307.584 
L 264.60911 307.584 
L 264.60911 305.699688 
L 263.821591 305.699688 
z
" clip-path="url(#pa93525511a)" style="fill: #1f77b4"/>
   </g>
   <g id="patch_189">
    <path d="M 276.618768 307.584 
L 277.406287 307.584 
L 277.406287 304.757532 
L 276.618768 304.757532 
z
" clip-path="url(#pa93525511a)" style="fill: #1f77b4"/>
   </g>
   <g id="patch_190">
    <path d="M 290.400344 307.584 
L 291.187863 307.584 
L 291.187863 305.699688 
L 290.400344 305.699688 
z
" clip-path="url(#pa93525511a)" style="fill: #1f77b4"/>
   </g>
   <g id="patch_191">
    <path d="M 351.433036 307.584 
L 352.220555 307.584 
L 352.220555 306.641844 
L 351.433036 306.641844 
z
" clip-path="url(#pa93525511a)" style="fill: #1f77b4"/>
   </g>
   <g id="patch_192">
    <path d="M 234.289643 307.584 
L 235.077162 307.584 
L 235.077162 306.641844 
L 234.289643 306.641844 
z
" clip-path="url(#pa93525511a)" style="fill: #1f77b4"/>
   </g>
   <g id="patch_193">
    <path d="M 223.461262 307.584 
L 224.248781 307.584 
L 224.248781 303.815375 
L 223.461262 303.815375 
z
" clip-path="url(#pa93525511a)" style="fill: #1f77b4"/>
   </g>
   <g id="patch_194">
    <path d="M 305.166318 307.584 
L 305.953836 307.584 
L 305.953836 306.641844 
L 305.166318 306.641844 
z
" clip-path="url(#pa93525511a)" style="fill: #1f77b4"/>
   </g>
   <g id="patch_195">
    <path d="M 267.759184 307.584 
L 268.546703 307.584 
L 268.546703 306.641844 
L 267.759184 306.641844 
z
" clip-path="url(#pa93525511a)" style="fill: #1f77b4"/>
   </g>
   <g id="patch_196">
    <path d="M 221.492466 307.584 
L 222.279985 307.584 
L 222.279985 304.757532 
L 221.492466 304.757532 
z
" clip-path="url(#pa93525511a)" style="fill: #1f77b4"/>
   </g>
   <g id="patch_197">
    <path d="M 219.523669 307.584 
L 220.311188 307.584 
L 220.311188 305.699688 
L 219.523669 305.699688 
z
" clip-path="url(#pa93525511a)" style="fill: #1f77b4"/>
   </g>
   <g id="patch_198">
    <path d="M 256.930803 307.584 
L 257.718322 307.584 
L 257.718322 304.757532 
L 256.930803 304.757532 
z
" clip-path="url(#pa93525511a)" style="fill: #1f77b4"/>
   </g>
   <g id="patch_199">
    <path d="M 397.699754 307.584 
L 398.487273 307.584 
L 398.487273 306.641844 
L 397.699754 306.641844 
z
" clip-path="url(#pa93525511a)" style="fill: #1f77b4"/>
   </g>
   <g id="patch_200">
    <path d="M 270.712379 307.584 
L 271.499897 307.584 
L 271.499897 306.641844 
L 270.712379 306.641844 
z
" clip-path="url(#pa93525511a)" style="fill: #1f77b4"/>
   </g>
   <g id="patch_201">
    <path d="M 272.681175 307.584 
L 273.468694 307.584 
L 273.468694 306.641844 
L 272.681175 306.641844 
z
" clip-path="url(#pa93525511a)" style="fill: #1f77b4"/>
   </g>
   <g id="patch_202">
    <path d="M 254.962007 307.584 
L 255.749525 307.584 
L 255.749525 306.641844 
L 254.962007 306.641844 
z
" clip-path="url(#pa93525511a)" style="fill: #1f77b4"/>
   </g>
   <g id="patch_203">
    <path d="M 343.55785 307.584 
L 344.345369 307.584 
L 344.345369 306.641844 
L 343.55785 306.641844 
z
" clip-path="url(#pa93525511a)" style="fill: #1f77b4"/>
   </g>
   <g id="patch_204">
    <path d="M 258.8996 307.584 
L 259.687118 307.584 
L 259.687118 306.641844 
L 258.8996 306.641844 
z
" clip-path="url(#pa93525511a)" style="fill: #1f77b4"/>
   </g>
   <g id="patch_205">
    <path d="M 262.837193 307.584 
L 263.624711 307.584 
L 263.624711 306.641844 
L 262.837193 306.641844 
z
" clip-path="url(#pa93525511a)" style="fill: #1f77b4"/>
   </g>
   <g id="patch_206">
    <path d="M 321.901088 307.584 
L 322.688607 307.584 
L 322.688607 306.641844 
L 321.901088 306.641844 
z
" clip-path="url(#pa93525511a)" style="fill: #1f77b4"/>
   </g>
   <g id="matplotlib.axis_1">
    <g id="xtick_1">
     <g id="line2d_1">
      <defs>
       <path id="mc9b7d58ef0" d="M 0 0 
L 0 3.5 
" style="stroke: #000000; stroke-width: 0.8"/>
      </defs>
      <g>
       <use xlink:href="#mc9b7d58ef0" x="74.226487" y="307.584" style="stroke: #000000; stroke-width: 0.8"/>
      </g>
     </g>
     <g id="text_1">
      <!-- 0 -->
      <g transform="translate(71.045237 322.182437) scale(0.1 -0.1)">
       <defs>
        <path id="DejaVuSans-30" d="M 2034 4250 
Q 1547 4250 1301 3770 
Q 1056 3291 1056 2328 
Q 1056 1369 1301 889 
Q 1547 409 2034 409 
Q 2525 409 2770 889 
Q 3016 1369 3016 2328 
Q 3016 3291 2770 3770 
Q 2525 4250 2034 4250 
z
M 2034 4750 
Q 2819 4750 3233 4129 
Q 3647 3509 3647 2328 
Q 3647 1150 3233 529 
Q 2819 -91 2034 -91 
Q 1250 -91 836 529 
Q 422 1150 422 2328 
Q 422 3509 836 4129 
Q 1250 4750 2034 4750 
z
" transform="scale(0.015625)"/>
       </defs>
       <use xlink:href="#DejaVuSans-30"/>
      </g>
     </g>
    </g>
    <g id="xtick_2">
     <g id="line2d_2">
      <g>
       <use xlink:href="#mc9b7d58ef0" x="123.446399" y="307.584" style="stroke: #000000; stroke-width: 0.8"/>
      </g>
     </g>
     <g id="text_2">
      <!-- 50 -->
      <g transform="translate(117.083899 322.182437) scale(0.1 -0.1)">
       <defs>
        <path id="DejaVuSans-35" d="M 691 4666 
L 3169 4666 
L 3169 4134 
L 1269 4134 
L 1269 2991 
Q 1406 3038 1543 3061 
Q 1681 3084 1819 3084 
Q 2600 3084 3056 2656 
Q 3513 2228 3513 1497 
Q 3513 744 3044 326 
Q 2575 -91 1722 -91 
Q 1428 -91 1123 -41 
Q 819 9 494 109 
L 494 744 
Q 775 591 1075 516 
Q 1375 441 1709 441 
Q 2250 441 2565 725 
Q 2881 1009 2881 1497 
Q 2881 1984 2565 2268 
Q 2250 2553 1709 2553 
Q 1456 2553 1204 2497 
Q 953 2441 691 2322 
L 691 4666 
z
" transform="scale(0.015625)"/>
       </defs>
       <use xlink:href="#DejaVuSans-35"/>
       <use xlink:href="#DejaVuSans-30" x="63.623047"/>
      </g>
     </g>
    </g>
    <g id="xtick_3">
     <g id="line2d_3">
      <g>
       <use xlink:href="#mc9b7d58ef0" x="172.666312" y="307.584" style="stroke: #000000; stroke-width: 0.8"/>
      </g>
     </g>
     <g id="text_3">
      <!-- 100 -->
      <g transform="translate(163.122562 322.182437) scale(0.1 -0.1)">
       <defs>
        <path id="DejaVuSans-31" d="M 794 531 
L 1825 531 
L 1825 4091 
L 703 3866 
L 703 4441 
L 1819 4666 
L 2450 4666 
L 2450 531 
L 3481 531 
L 3481 0 
L 794 0 
L 794 531 
z
" transform="scale(0.015625)"/>
       </defs>
       <use xlink:href="#DejaVuSans-31"/>
       <use xlink:href="#DejaVuSans-30" x="63.623047"/>
       <use xlink:href="#DejaVuSans-30" x="127.246094"/>
      </g>
     </g>
    </g>
    <g id="xtick_4">
     <g id="line2d_4">
      <g>
       <use xlink:href="#mc9b7d58ef0" x="221.886225" y="307.584" style="stroke: #000000; stroke-width: 0.8"/>
      </g>
     </g>
     <g id="text_4">
      <!-- 150 -->
      <g transform="translate(212.342475 322.182437) scale(0.1 -0.1)">
       <use xlink:href="#DejaVuSans-31"/>
       <use xlink:href="#DejaVuSans-35" x="63.623047"/>
       <use xlink:href="#DejaVuSans-30" x="127.246094"/>
      </g>
     </g>
    </g>
    <g id="xtick_5">
     <g id="line2d_5">
      <g>
       <use xlink:href="#mc9b7d58ef0" x="271.106138" y="307.584" style="stroke: #000000; stroke-width: 0.8"/>
      </g>
     </g>
     <g id="text_5">
      <!-- 200 -->
      <g transform="translate(261.562388 322.182437) scale(0.1 -0.1)">
       <defs>
        <path id="DejaVuSans-32" d="M 1228 531 
L 3431 531 
L 3431 0 
L 469 0 
L 469 531 
Q 828 903 1448 1529 
Q 2069 2156 2228 2338 
Q 2531 2678 2651 2914 
Q 2772 3150 2772 3378 
Q 2772 3750 2511 3984 
Q 2250 4219 1831 4219 
Q 1534 4219 1204 4116 
Q 875 4013 500 3803 
L 500 4441 
Q 881 4594 1212 4672 
Q 1544 4750 1819 4750 
Q 2544 4750 2975 4387 
Q 3406 4025 3406 3419 
Q 3406 3131 3298 2873 
Q 3191 2616 2906 2266 
Q 2828 2175 2409 1742 
Q 1991 1309 1228 531 
z
" transform="scale(0.015625)"/>
       </defs>
       <use xlink:href="#DejaVuSans-32"/>
       <use xlink:href="#DejaVuSans-30" x="63.623047"/>
       <use xlink:href="#DejaVuSans-30" x="127.246094"/>
      </g>
     </g>
    </g>
    <g id="xtick_6">
     <g id="line2d_6">
      <g>
       <use xlink:href="#mc9b7d58ef0" x="320.326051" y="307.584" style="stroke: #000000; stroke-width: 0.8"/>
      </g>
     </g>
     <g id="text_6">
      <!-- 250 -->
      <g transform="translate(310.782301 322.182437) scale(0.1 -0.1)">
       <use xlink:href="#DejaVuSans-32"/>
       <use xlink:href="#DejaVuSans-35" x="63.623047"/>
       <use xlink:href="#DejaVuSans-30" x="127.246094"/>
      </g>
     </g>
    </g>
    <g id="xtick_7">
     <g id="line2d_7">
      <g>
       <use xlink:href="#mc9b7d58ef0" x="369.545964" y="307.584" style="stroke: #000000; stroke-width: 0.8"/>
      </g>
     </g>
     <g id="text_7">
      <!-- 300 -->
      <g transform="translate(360.002214 322.182437) scale(0.1 -0.1)">
       <defs>
        <path id="DejaVuSans-33" d="M 2597 2516 
Q 3050 2419 3304 2112 
Q 3559 1806 3559 1356 
Q 3559 666 3084 287 
Q 2609 -91 1734 -91 
Q 1441 -91 1130 -33 
Q 819 25 488 141 
L 488 750 
Q 750 597 1062 519 
Q 1375 441 1716 441 
Q 2309 441 2620 675 
Q 2931 909 2931 1356 
Q 2931 1769 2642 2001 
Q 2353 2234 1838 2234 
L 1294 2234 
L 1294 2753 
L 1863 2753 
Q 2328 2753 2575 2939 
Q 2822 3125 2822 3475 
Q 2822 3834 2567 4026 
Q 2313 4219 1838 4219 
Q 1578 4219 1281 4162 
Q 984 4106 628 3988 
L 628 4550 
Q 988 4650 1302 4700 
Q 1616 4750 1894 4750 
Q 2613 4750 3031 4423 
Q 3450 4097 3450 3541 
Q 3450 3153 3228 2886 
Q 3006 2619 2597 2516 
z
" transform="scale(0.015625)"/>
       </defs>
       <use xlink:href="#DejaVuSans-33"/>
       <use xlink:href="#DejaVuSans-30" x="63.623047"/>
       <use xlink:href="#DejaVuSans-30" x="127.246094"/>
      </g>
     </g>
    </g>
    <g id="text_8">
     <!-- Depth of Element -->
     <g transform="translate(192.231875 335.860562) scale(0.1 -0.1)">
      <defs>
       <path id="DejaVuSans-44" d="M 1259 4147 
L 1259 519 
L 2022 519 
Q 2988 519 3436 956 
Q 3884 1394 3884 2338 
Q 3884 3275 3436 3711 
Q 2988 4147 2022 4147 
L 1259 4147 
z
M 628 4666 
L 1925 4666 
Q 3281 4666 3915 4102 
Q 4550 3538 4550 2338 
Q 4550 1131 3912 565 
Q 3275 0 1925 0 
L 628 0 
L 628 4666 
z
" transform="scale(0.015625)"/>
       <path id="DejaVuSans-65" d="M 3597 1894 
L 3597 1613 
L 953 1613 
Q 991 1019 1311 708 
Q 1631 397 2203 397 
Q 2534 397 2845 478 
Q 3156 559 3463 722 
L 3463 178 
Q 3153 47 2828 -22 
Q 2503 -91 2169 -91 
Q 1331 -91 842 396 
Q 353 884 353 1716 
Q 353 2575 817 3079 
Q 1281 3584 2069 3584 
Q 2775 3584 3186 3129 
Q 3597 2675 3597 1894 
z
M 3022 2063 
Q 3016 2534 2758 2815 
Q 2500 3097 2075 3097 
Q 1594 3097 1305 2825 
Q 1016 2553 972 2059 
L 3022 2063 
z
" transform="scale(0.015625)"/>
       <path id="DejaVuSans-70" d="M 1159 525 
L 1159 -1331 
L 581 -1331 
L 581 3500 
L 1159 3500 
L 1159 2969 
Q 1341 3281 1617 3432 
Q 1894 3584 2278 3584 
Q 2916 3584 3314 3078 
Q 3713 2572 3713 1747 
Q 3713 922 3314 415 
Q 2916 -91 2278 -91 
Q 1894 -91 1617 61 
Q 1341 213 1159 525 
z
M 3116 1747 
Q 3116 2381 2855 2742 
Q 2594 3103 2138 3103 
Q 1681 3103 1420 2742 
Q 1159 2381 1159 1747 
Q 1159 1113 1420 752 
Q 1681 391 2138 391 
Q 2594 391 2855 752 
Q 3116 1113 3116 1747 
z
" transform="scale(0.015625)"/>
       <path id="DejaVuSans-74" d="M 1172 4494 
L 1172 3500 
L 2356 3500 
L 2356 3053 
L 1172 3053 
L 1172 1153 
Q 1172 725 1289 603 
Q 1406 481 1766 481 
L 2356 481 
L 2356 0 
L 1766 0 
Q 1100 0 847 248 
Q 594 497 594 1153 
L 594 3053 
L 172 3053 
L 172 3500 
L 594 3500 
L 594 4494 
L 1172 4494 
z
" transform="scale(0.015625)"/>
       <path id="DejaVuSans-68" d="M 3513 2113 
L 3513 0 
L 2938 0 
L 2938 2094 
Q 2938 2591 2744 2837 
Q 2550 3084 2163 3084 
Q 1697 3084 1428 2787 
Q 1159 2491 1159 1978 
L 1159 0 
L 581 0 
L 581 4863 
L 1159 4863 
L 1159 2956 
Q 1366 3272 1645 3428 
Q 1925 3584 2291 3584 
Q 2894 3584 3203 3211 
Q 3513 2838 3513 2113 
z
" transform="scale(0.015625)"/>
       <path id="DejaVuSans-20" transform="scale(0.015625)"/>
       <path id="DejaVuSans-6f" d="M 1959 3097 
Q 1497 3097 1228 2736 
Q 959 2375 959 1747 
Q 959 1119 1226 758 
Q 1494 397 1959 397 
Q 2419 397 2687 759 
Q 2956 1122 2956 1747 
Q 2956 2369 2687 2733 
Q 2419 3097 1959 3097 
z
M 1959 3584 
Q 2709 3584 3137 3096 
Q 3566 2609 3566 1747 
Q 3566 888 3137 398 
Q 2709 -91 1959 -91 
Q 1206 -91 779 398 
Q 353 888 353 1747 
Q 353 2609 779 3096 
Q 1206 3584 1959 3584 
z
" transform="scale(0.015625)"/>
       <path id="DejaVuSans-66" d="M 2375 4863 
L 2375 4384 
L 1825 4384 
Q 1516 4384 1395 4259 
Q 1275 4134 1275 3809 
L 1275 3500 
L 2222 3500 
L 2222 3053 
L 1275 3053 
L 1275 0 
L 697 0 
L 697 3053 
L 147 3053 
L 147 3500 
L 697 3500 
L 697 3744 
Q 697 4328 969 4595 
Q 1241 4863 1831 4863 
L 2375 4863 
z
" transform="scale(0.015625)"/>
       <path id="DejaVuSans-45" d="M 628 4666 
L 3578 4666 
L 3578 4134 
L 1259 4134 
L 1259 2753 
L 3481 2753 
L 3481 2222 
L 1259 2222 
L 1259 531 
L 3634 531 
L 3634 0 
L 628 0 
L 628 4666 
z
" transform="scale(0.015625)"/>
       <path id="DejaVuSans-6c" d="M 603 4863 
L 1178 4863 
L 1178 0 
L 603 0 
L 603 4863 
z
" transform="scale(0.015625)"/>
       <path id="DejaVuSans-6d" d="M 3328 2828 
Q 3544 3216 3844 3400 
Q 4144 3584 4550 3584 
Q 5097 3584 5394 3201 
Q 5691 2819 5691 2113 
L 5691 0 
L 5113 0 
L 5113 2094 
Q 5113 2597 4934 2840 
Q 4756 3084 4391 3084 
Q 3944 3084 3684 2787 
Q 3425 2491 3425 1978 
L 3425 0 
L 2847 0 
L 2847 2094 
Q 2847 2600 2669 2842 
Q 2491 3084 2119 3084 
Q 1678 3084 1418 2786 
Q 1159 2488 1159 1978 
L 1159 0 
L 581 0 
L 581 3500 
L 1159 3500 
L 1159 2956 
Q 1356 3278 1631 3431 
Q 1906 3584 2284 3584 
Q 2666 3584 2933 3390 
Q 3200 3197 3328 2828 
z
" transform="scale(0.015625)"/>
       <path id="DejaVuSans-6e" d="M 3513 2113 
L 3513 0 
L 2938 0 
L 2938 2094 
Q 2938 2591 2744 2837 
Q 2550 3084 2163 3084 
Q 1697 3084 1428 2787 
Q 1159 2491 1159 1978 
L 1159 0 
L 581 0 
L 581 3500 
L 1159 3500 
L 1159 2956 
Q 1366 3272 1645 3428 
Q 1925 3584 2291 3584 
Q 2894 3584 3203 3211 
Q 3513 2838 3513 2113 
z
" transform="scale(0.015625)"/>
      </defs>
      <use xlink:href="#DejaVuSans-44"/>
      <use xlink:href="#DejaVuSans-65" x="77.001953"/>
      <use xlink:href="#DejaVuSans-70" x="138.525391"/>
      <use xlink:href="#DejaVuSans-74" x="202.001953"/>
      <use xlink:href="#DejaVuSans-68" x="241.210938"/>
      <use xlink:href="#DejaVuSans-20" x="304.589844"/>
      <use xlink:href="#DejaVuSans-6f" x="336.376953"/>
      <use xlink:href="#DejaVuSans-66" x="397.558594"/>
      <use xlink:href="#DejaVuSans-20" x="432.763672"/>
      <use xlink:href="#DejaVuSans-45" x="464.550781"/>
      <use xlink:href="#DejaVuSans-6c" x="527.734375"/>
      <use xlink:href="#DejaVuSans-65" x="555.517578"/>
      <use xlink:href="#DejaVuSans-6d" x="617.041016"/>
      <use xlink:href="#DejaVuSans-65" x="714.453125"/>
      <use xlink:href="#DejaVuSans-6e" x="775.976562"/>
      <use xlink:href="#DejaVuSans-74" x="839.355469"/>
     </g>
    </g>
   </g>
   <g id="matplotlib.axis_2">
    <g id="ytick_1">
     <g id="line2d_8">
      <defs>
       <path id="m12e7bb2721" d="M 0 0 
L -3.5 0 
" style="stroke: #000000; stroke-width: 0.8"/>
      </defs>
      <g>
       <use xlink:href="#m12e7bb2721" x="57.6" y="307.584" style="stroke: #000000; stroke-width: 0.8"/>
      </g>
     </g>
     <g id="text_9">
      <!-- 0 -->
      <g transform="translate(44.2375 311.383219) scale(0.1 -0.1)">
       <use xlink:href="#DejaVuSans-30"/>
      </g>
     </g>
    </g>
    <g id="ytick_2">
     <g id="line2d_9">
      <g>
       <use xlink:href="#m12e7bb2721" x="57.6" y="260.476193" style="stroke: #000000; stroke-width: 0.8"/>
      </g>
     </g>
     <g id="text_10">
      <!-- 50 -->
      <g transform="translate(37.875 264.275412) scale(0.1 -0.1)">
       <use xlink:href="#DejaVuSans-35"/>
       <use xlink:href="#DejaVuSans-30" x="63.623047"/>
      </g>
     </g>
    </g>
    <g id="ytick_3">
     <g id="line2d_10">
      <g>
       <use xlink:href="#m12e7bb2721" x="57.6" y="213.368387" style="stroke: #000000; stroke-width: 0.8"/>
      </g>
     </g>
     <g id="text_11">
      <!-- 100 -->
      <g transform="translate(31.5125 217.167605) scale(0.1 -0.1)">
       <use xlink:href="#DejaVuSans-31"/>
       <use xlink:href="#DejaVuSans-30" x="63.623047"/>
       <use xlink:href="#DejaVuSans-30" x="127.246094"/>
      </g>
     </g>
    </g>
    <g id="ytick_4">
     <g id="line2d_11">
      <g>
       <use xlink:href="#m12e7bb2721" x="57.6" y="166.26058" style="stroke: #000000; stroke-width: 0.8"/>
      </g>
     </g>
     <g id="text_12">
      <!-- 150 -->
      <g transform="translate(31.5125 170.059799) scale(0.1 -0.1)">
       <use xlink:href="#DejaVuSans-31"/>
       <use xlink:href="#DejaVuSans-35" x="63.623047"/>
       <use xlink:href="#DejaVuSans-30" x="127.246094"/>
      </g>
     </g>
    </g>
    <g id="ytick_5">
     <g id="line2d_12">
      <g>
       <use xlink:href="#m12e7bb2721" x="57.6" y="119.152773" style="stroke: #000000; stroke-width: 0.8"/>
      </g>
     </g>
     <g id="text_13">
      <!-- 200 -->
      <g transform="translate(31.5125 122.951992) scale(0.1 -0.1)">
       <use xlink:href="#DejaVuSans-32"/>
       <use xlink:href="#DejaVuSans-30" x="63.623047"/>
       <use xlink:href="#DejaVuSans-30" x="127.246094"/>
      </g>
     </g>
    </g>
    <g id="ytick_6">
     <g id="line2d_13">
      <g>
       <use xlink:href="#m12e7bb2721" x="57.6" y="72.044967" style="stroke: #000000; stroke-width: 0.8"/>
      </g>
     </g>
     <g id="text_14">
      <!-- 250 -->
      <g transform="translate(31.5125 75.844185) scale(0.1 -0.1)">
       <use xlink:href="#DejaVuSans-32"/>
       <use xlink:href="#DejaVuSans-35" x="63.623047"/>
       <use xlink:href="#DejaVuSans-30" x="127.246094"/>
      </g>
     </g>
    </g>
    <g id="text_15">
     <!-- Number of Elements -->
     <g transform="translate(25.432812 225.917062) rotate(-90) scale(0.1 -0.1)">
      <defs>
       <path id="DejaVuSans-4e" d="M 628 4666 
L 1478 4666 
L 3547 763 
L 3547 4666 
L 4159 4666 
L 4159 0 
L 3309 0 
L 1241 3903 
L 1241 0 
L 628 0 
L 628 4666 
z
" transform="scale(0.015625)"/>
       <path id="DejaVuSans-75" d="M 544 1381 
L 544 3500 
L 1119 3500 
L 1119 1403 
Q 1119 906 1312 657 
Q 1506 409 1894 409 
Q 2359 409 2629 706 
Q 2900 1003 2900 1516 
L 2900 3500 
L 3475 3500 
L 3475 0 
L 2900 0 
L 2900 538 
Q 2691 219 2414 64 
Q 2138 -91 1772 -91 
Q 1169 -91 856 284 
Q 544 659 544 1381 
z
M 1991 3584 
L 1991 3584 
z
" transform="scale(0.015625)"/>
       <path id="DejaVuSans-62" d="M 3116 1747 
Q 3116 2381 2855 2742 
Q 2594 3103 2138 3103 
Q 1681 3103 1420 2742 
Q 1159 2381 1159 1747 
Q 1159 1113 1420 752 
Q 1681 391 2138 391 
Q 2594 391 2855 752 
Q 3116 1113 3116 1747 
z
M 1159 2969 
Q 1341 3281 1617 3432 
Q 1894 3584 2278 3584 
Q 2916 3584 3314 3078 
Q 3713 2572 3713 1747 
Q 3713 922 3314 415 
Q 2916 -91 2278 -91 
Q 1894 -91 1617 61 
Q 1341 213 1159 525 
L 1159 0 
L 581 0 
L 581 4863 
L 1159 4863 
L 1159 2969 
z
" transform="scale(0.015625)"/>
       <path id="DejaVuSans-72" d="M 2631 2963 
Q 2534 3019 2420 3045 
Q 2306 3072 2169 3072 
Q 1681 3072 1420 2755 
Q 1159 2438 1159 1844 
L 1159 0 
L 581 0 
L 581 3500 
L 1159 3500 
L 1159 2956 
Q 1341 3275 1631 3429 
Q 1922 3584 2338 3584 
Q 2397 3584 2469 3576 
Q 2541 3569 2628 3553 
L 2631 2963 
z
" transform="scale(0.015625)"/>
       <path id="DejaVuSans-73" d="M 2834 3397 
L 2834 2853 
Q 2591 2978 2328 3040 
Q 2066 3103 1784 3103 
Q 1356 3103 1142 2972 
Q 928 2841 928 2578 
Q 928 2378 1081 2264 
Q 1234 2150 1697 2047 
L 1894 2003 
Q 2506 1872 2764 1633 
Q 3022 1394 3022 966 
Q 3022 478 2636 193 
Q 2250 -91 1575 -91 
Q 1294 -91 989 -36 
Q 684 19 347 128 
L 347 722 
Q 666 556 975 473 
Q 1284 391 1588 391 
Q 1994 391 2212 530 
Q 2431 669 2431 922 
Q 2431 1156 2273 1281 
Q 2116 1406 1581 1522 
L 1381 1569 
Q 847 1681 609 1914 
Q 372 2147 372 2553 
Q 372 3047 722 3315 
Q 1072 3584 1716 3584 
Q 2034 3584 2315 3537 
Q 2597 3491 2834 3397 
z
" transform="scale(0.015625)"/>
      </defs>
      <use xlink:href="#DejaVuSans-4e"/>
      <use xlink:href="#DejaVuSans-75" x="74.804688"/>
      <use xlink:href="#DejaVuSans-6d" x="138.183594"/>
      <use xlink:href="#DejaVuSans-62" x="235.595703"/>
      <use xlink:href="#DejaVuSans-65" x="299.072266"/>
      <use xlink:href="#DejaVuSans-72" x="360.595703"/>
      <use xlink:href="#DejaVuSans-20" x="401.708984"/>
      <use xlink:href="#DejaVuSans-6f" x="433.496094"/>
      <use xlink:href="#DejaVuSans-66" x="494.677734"/>
      <use xlink:href="#DejaVuSans-20" x="529.882812"/>
      <use xlink:href="#DejaVuSans-45" x="561.669922"/>
      <use xlink:href="#DejaVuSans-6c" x="624.853516"/>
      <use xlink:href="#DejaVuSans-65" x="652.636719"/>
      <use xlink:href="#DejaVuSans-6d" x="714.160156"/>
      <use xlink:href="#DejaVuSans-65" x="811.572266"/>
      <use xlink:href="#DejaVuSans-6e" x="873.095703"/>
      <use xlink:href="#DejaVuSans-74" x="936.474609"/>
      <use xlink:href="#DejaVuSans-73" x="975.683594"/>
     </g>
    </g>
   </g>
   <g id="patch_207">
    <path d="M 57.6 307.584 
L 57.6 41.472 
" style="fill: none; stroke: #000000; stroke-width: 0.8; stroke-linejoin: miter; stroke-linecap: square"/>
   </g>
   <g id="patch_208">
    <path d="M 414.72 307.584 
L 414.72 41.472 
" style="fill: none; stroke: #000000; stroke-width: 0.8; stroke-linejoin: miter; stroke-linecap: square"/>
   </g>
   <g id="patch_209">
    <path d="M 57.6 307.584 
L 414.72 307.584 
" style="fill: none; stroke: #000000; stroke-width: 0.8; stroke-linejoin: miter; stroke-linecap: square"/>
   </g>
   <g id="patch_210">
    <path d="M 57.6 41.472 
L 414.72 41.472 
" style="fill: none; stroke: #000000; stroke-width: 0.8; stroke-linejoin: miter; stroke-linecap: square"/>
   </g>
  </g>
 </g>
 <defs>
  <clipPath id="pa93525511a">
   <rect x="57.6" y="41.472" width="357.12" height="266.112"/>
  </clipPath>
 </defs>
</svg>
