<?xml version="1.0" encoding="utf-8" standalone="no"?>
<!DOCTYPE svg PUBLIC "-//W3C//DTD SVG 1.1//EN"
  "http://www.w3.org/Graphics/SVG/1.1/DTD/svg11.dtd">
<svg xmlns:xlink="http://www.w3.org/1999/xlink" width="460.8pt" height="345.6pt" viewBox="0 0 460.8 345.6" xmlns="http://www.w3.org/2000/svg" version="1.1">
 <metadata>
  <rdf:RDF xmlns:dc="http://purl.org/dc/elements/1.1/" xmlns:cc="http://creativecommons.org/ns#" xmlns:rdf="http://www.w3.org/1999/02/22-rdf-syntax-ns#">
   <cc:Work>
    <dc:type rdf:resource="http://purl.org/dc/dcmitype/StillImage"/>
    <dc:date>2024-02-18T14:48:49.477604</dc:date>
    <dc:format>image/svg+xml</dc:format>
    <dc:creator>
     <cc:Agent>
      <dc:title>Matplotlib v3.8.3, https://matplotlib.org/</dc:title>
     </cc:Agent>
    </dc:creator>
   </cc:Work>
  </rdf:RDF>
 </metadata>
 <defs>
  <style type="text/css">*{stroke-linejoin: round; stroke-linecap: butt}</style>
 </defs>
 <g id="figure_1">
  <g id="patch_1">
   <path d="M 0 345.6 
L 460.8 345.6 
L 460.8 0 
L 0 0 
z
" style="fill: #ffffff"/>
  </g>
  <g id="axes_1">
   <g id="patch_2">
    <path d="M 57.6 307.584 
L 414.72 307.584 
L 414.72 41.472 
L 57.6 41.472 
z
" style="fill: #ffffff"/>
   </g>
   <g id="patch_3">
    <path d="M 73.832727 307.584 
L 74.474337 307.584 
L 74.474337 291.987692 
L 73.832727 291.987692 
z
" clip-path="url(#pd77893d1b1)" style="fill: #1f77b4"/>
   </g>
   <g id="patch_4">
    <path d="M 74.634739 307.584 
L 75.276349 307.584 
L 75.276349 276.391385 
L 74.634739 276.391385 
z
" clip-path="url(#pd77893d1b1)" style="fill: #1f77b4"/>
   </g>
   <g id="patch_5">
    <path d="M 76.238764 307.584 
L 76.880374 307.584 
L 76.880374 284.189538 
L 76.238764 284.189538 
z
" clip-path="url(#pd77893d1b1)" style="fill: #1f77b4"/>
   </g>
   <g id="patch_6">
    <path d="M 77.842788 307.584 
L 78.484398 307.584 
L 78.484398 280.290462 
L 77.842788 280.290462 
z
" clip-path="url(#pd77893d1b1)" style="fill: #1f77b4"/>
   </g>
   <g id="patch_7">
    <path d="M 80.248825 307.584 
L 80.890435 307.584 
L 80.890435 237.400615 
L 80.248825 237.400615 
z
" clip-path="url(#pd77893d1b1)" style="fill: #1f77b4"/>
   </g>
   <g id="patch_8">
    <path d="M 75.436752 307.584 
L 76.078361 307.584 
L 76.078361 276.391385 
L 75.436752 276.391385 
z
" clip-path="url(#pd77893d1b1)" style="fill: #1f77b4"/>
   </g>
   <g id="patch_9">
    <path d="M 78.644801 307.584 
L 79.28641 307.584 
L 79.28641 276.391385 
L 78.644801 276.391385 
z
" clip-path="url(#pd77893d1b1)" style="fill: #1f77b4"/>
   </g>
   <g id="patch_10">
    <path d="M 79.446813 307.584 
L 80.088423 307.584 
L 80.088423 249.097846 
L 79.446813 249.097846 
z
" clip-path="url(#pd77893d1b1)" style="fill: #1f77b4"/>
   </g>
   <g id="patch_11">
    <path d="M 77.040776 307.584 
L 77.682386 307.584 
L 77.682386 276.391385 
L 77.040776 276.391385 
z
" clip-path="url(#pd77893d1b1)" style="fill: #1f77b4"/>
   </g>
   <g id="patch_12">
    <path d="M 81.852849 307.584 
L 82.494459 307.584 
L 82.494459 245.198769 
L 81.852849 245.198769 
z
" clip-path="url(#pd77893d1b1)" style="fill: #1f77b4"/>
   </g>
   <g id="patch_13">
    <path d="M 81.050837 307.584 
L 81.692447 307.584 
L 81.692447 241.299692 
L 81.050837 241.299692 
z
" clip-path="url(#pd77893d1b1)" style="fill: #1f77b4"/>
   </g>
   <g id="patch_14">
    <path d="M 82.654862 307.584 
L 83.296471 307.584 
L 83.296471 260.795077 
L 82.654862 260.795077 
z
" clip-path="url(#pd77893d1b1)" style="fill: #1f77b4"/>
   </g>
   <g id="patch_15">
    <path d="M 83.456874 307.584 
L 84.098484 307.584 
L 84.098484 256.896 
L 83.456874 256.896 
z
" clip-path="url(#pd77893d1b1)" style="fill: #1f77b4"/>
   </g>
   <g id="patch_16">
    <path d="M 85.060898 307.584 
L 85.702508 307.584 
L 85.702508 210.107077 
L 85.060898 210.107077 
z
" clip-path="url(#pd77893d1b1)" style="fill: #1f77b4"/>
   </g>
   <g id="patch_17">
    <path d="M 84.258886 307.584 
L 84.900496 307.584 
L 84.900496 252.996923 
L 84.258886 252.996923 
z
" clip-path="url(#pd77893d1b1)" style="fill: #1f77b4"/>
   </g>
   <g id="patch_18">
    <path d="M 85.862911 307.584 
L 86.50452 307.584 
L 86.50452 249.097846 
L 85.862911 249.097846 
z
" clip-path="url(#pd77893d1b1)" style="fill: #1f77b4"/>
   </g>
   <g id="patch_19">
    <path d="M 90.674984 307.584 
L 91.316594 307.584 
L 91.316594 194.510769 
L 90.674984 194.510769 
z
" clip-path="url(#pd77893d1b1)" style="fill: #1f77b4"/>
   </g>
   <g id="patch_20">
    <path d="M 87.466935 307.584 
L 88.108545 307.584 
L 88.108545 206.208 
L 87.466935 206.208 
z
" clip-path="url(#pd77893d1b1)" style="fill: #1f77b4"/>
   </g>
   <g id="patch_21">
    <path d="M 86.664923 307.584 
L 87.306533 307.584 
L 87.306533 225.703385 
L 86.664923 225.703385 
z
" clip-path="url(#pd77893d1b1)" style="fill: #1f77b4"/>
   </g>
   <g id="patch_22">
    <path d="M 91.476996 307.584 
L 92.118606 307.584 
L 92.118606 206.208 
L 91.476996 206.208 
z
" clip-path="url(#pd77893d1b1)" style="fill: #1f77b4"/>
   </g>
   <g id="patch_23">
    <path d="M 94.685045 307.584 
L 95.326655 307.584 
L 95.326655 178.914462 
L 94.685045 178.914462 
z
" clip-path="url(#pd77893d1b1)" style="fill: #1f77b4"/>
   </g>
   <g id="patch_24">
    <path d="M 88.268947 307.584 
L 88.910557 307.584 
L 88.910557 214.006154 
L 88.268947 214.006154 
z
" clip-path="url(#pd77893d1b1)" style="fill: #1f77b4"/>
   </g>
   <g id="patch_25">
    <path d="M 89.070959 307.584 
L 89.712569 307.584 
L 89.712569 206.208 
L 89.070959 206.208 
z
" clip-path="url(#pd77893d1b1)" style="fill: #1f77b4"/>
   </g>
   <g id="patch_26">
    <path d="M 89.872972 307.584 
L 90.514581 307.584 
L 90.514581 202.308923 
L 89.872972 202.308923 
z
" clip-path="url(#pd77893d1b1)" style="fill: #1f77b4"/>
   </g>
   <g id="patch_27">
    <path d="M 92.279008 307.584 
L 92.920618 307.584 
L 92.920618 198.409846 
L 92.279008 198.409846 
z
" clip-path="url(#pd77893d1b1)" style="fill: #1f77b4"/>
   </g>
   <g id="patch_28">
    <path d="M 97.091082 307.584 
L 97.732691 307.584 
L 97.732691 143.822769 
L 97.091082 143.822769 
z
" clip-path="url(#pd77893d1b1)" style="fill: #1f77b4"/>
   </g>
   <g id="patch_29">
    <path d="M 99.497118 307.584 
L 100.138728 307.584 
L 100.138728 167.217231 
L 99.497118 167.217231 
z
" clip-path="url(#pd77893d1b1)" style="fill: #1f77b4"/>
   </g>
   <g id="patch_30">
    <path d="M 97.893094 307.584 
L 98.534704 307.584 
L 98.534704 167.217231 
L 97.893094 167.217231 
z
" clip-path="url(#pd77893d1b1)" style="fill: #1f77b4"/>
   </g>
   <g id="patch_31">
    <path d="M 101.903155 307.584 
L 102.544765 307.584 
L 102.544765 124.327385 
L 101.903155 124.327385 
z
" clip-path="url(#pd77893d1b1)" style="fill: #1f77b4"/>
   </g>
   <g id="patch_32">
    <path d="M 96.289069 307.584 
L 96.930679 307.584 
L 96.930679 151.620923 
L 96.289069 151.620923 
z
" clip-path="url(#pd77893d1b1)" style="fill: #1f77b4"/>
   </g>
   <g id="patch_33">
    <path d="M 95.487057 307.584 
L 96.128667 307.584 
L 96.128667 175.015385 
L 95.487057 175.015385 
z
" clip-path="url(#pd77893d1b1)" style="fill: #1f77b4"/>
   </g>
   <g id="patch_34">
    <path d="M 93.883033 307.584 
L 94.524642 307.584 
L 94.524642 214.006154 
L 93.883033 214.006154 
z
" clip-path="url(#pd77893d1b1)" style="fill: #1f77b4"/>
   </g>
   <g id="patch_35">
    <path d="M 100.29913 307.584 
L 100.94074 307.584 
L 100.94074 159.419077 
L 100.29913 159.419077 
z
" clip-path="url(#pd77893d1b1)" style="fill: #1f77b4"/>
   </g>
   <g id="patch_36">
    <path d="M 101.101143 307.584 
L 101.742752 307.584 
L 101.742752 112.630154 
L 101.101143 112.630154 
z
" clip-path="url(#pd77893d1b1)" style="fill: #1f77b4"/>
   </g>
   <g id="patch_37">
    <path d="M 98.695106 307.584 
L 99.336716 307.584 
L 99.336716 186.712615 
L 98.695106 186.712615 
z
" clip-path="url(#pd77893d1b1)" style="fill: #1f77b4"/>
   </g>
   <g id="patch_38">
    <path d="M 109.923277 307.584 
L 110.564887 307.584 
L 110.564887 124.327385 
L 109.923277 124.327385 
z
" clip-path="url(#pd77893d1b1)" style="fill: #1f77b4"/>
   </g>
   <g id="patch_39">
    <path d="M 105.913216 307.584 
L 106.554826 307.584 
L 106.554826 147.721846 
L 105.913216 147.721846 
z
" clip-path="url(#pd77893d1b1)" style="fill: #1f77b4"/>
   </g>
   <g id="patch_40">
    <path d="M 108.319253 307.584 
L 108.960862 307.584 
L 108.960862 124.327385 
L 108.319253 124.327385 
z
" clip-path="url(#pd77893d1b1)" style="fill: #1f77b4"/>
   </g>
   <g id="patch_41">
    <path d="M 105.111204 307.584 
L 105.752814 307.584 
L 105.752814 143.822769 
L 105.111204 143.822769 
z
" clip-path="url(#pd77893d1b1)" style="fill: #1f77b4"/>
   </g>
   <g id="patch_42">
    <path d="M 93.08102 307.584 
L 93.72263 307.584 
L 93.72263 210.107077 
L 93.08102 210.107077 
z
" clip-path="url(#pd77893d1b1)" style="fill: #1f77b4"/>
   </g>
   <g id="patch_43">
    <path d="M 109.121265 307.584 
L 109.762875 307.584 
L 109.762875 151.620923 
L 109.121265 151.620923 
z
" clip-path="url(#pd77893d1b1)" style="fill: #1f77b4"/>
   </g>
   <g id="patch_44">
    <path d="M 103.507179 307.584 
L 104.148789 307.584 
L 104.148789 136.024615 
L 103.507179 136.024615 
z
" clip-path="url(#pd77893d1b1)" style="fill: #1f77b4"/>
   </g>
   <g id="patch_45">
    <path d="M 106.715228 307.584 
L 107.356838 307.584 
L 107.356838 136.024615 
L 106.715228 136.024615 
z
" clip-path="url(#pd77893d1b1)" style="fill: #1f77b4"/>
   </g>
   <g id="patch_46">
    <path d="M 104.309192 307.584 
L 104.950801 307.584 
L 104.950801 190.611692 
L 104.309192 190.611692 
z
" clip-path="url(#pd77893d1b1)" style="fill: #1f77b4"/>
   </g>
   <g id="patch_47">
    <path d="M 102.705167 307.584 
L 103.346777 307.584 
L 103.346777 163.318154 
L 102.705167 163.318154 
z
" clip-path="url(#pd77893d1b1)" style="fill: #1f77b4"/>
   </g>
   <g id="patch_48">
    <path d="M 111.527301 307.584 
L 112.168911 307.584 
L 112.168911 104.832 
L 111.527301 104.832 
z
" clip-path="url(#pd77893d1b1)" style="fill: #1f77b4"/>
   </g>
   <g id="patch_49">
    <path d="M 117.141387 307.584 
L 117.782997 307.584 
L 117.782997 93.134769 
L 117.141387 93.134769 
z
" clip-path="url(#pd77893d1b1)" style="fill: #1f77b4"/>
   </g>
   <g id="patch_50">
    <path d="M 121.151448 307.584 
L 121.793058 307.584 
L 121.793058 151.620923 
L 121.151448 151.620923 
z
" clip-path="url(#pd77893d1b1)" style="fill: #1f77b4"/>
   </g>
   <g id="patch_51">
    <path d="M 115.537363 307.584 
L 116.178972 307.584 
L 116.178972 108.731077 
L 115.537363 108.731077 
z
" clip-path="url(#pd77893d1b1)" style="fill: #1f77b4"/>
   </g>
   <g id="patch_52">
    <path d="M 112.329314 307.584 
L 112.970923 307.584 
L 112.970923 54.144 
L 112.329314 54.144 
z
" clip-path="url(#pd77893d1b1)" style="fill: #1f77b4"/>
   </g>
   <g id="patch_53">
    <path d="M 110.725289 307.584 
L 111.366899 307.584 
L 111.366899 147.721846 
L 110.725289 147.721846 
z
" clip-path="url(#pd77893d1b1)" style="fill: #1f77b4"/>
   </g>
   <g id="patch_54">
    <path d="M 116.339375 307.584 
L 116.980985 307.584 
L 116.980985 112.630154 
L 116.339375 112.630154 
z
" clip-path="url(#pd77893d1b1)" style="fill: #1f77b4"/>
   </g>
   <g id="patch_55">
    <path d="M 122.755473 307.584 
L 123.397082 307.584 
L 123.397082 128.226462 
L 122.755473 128.226462 
z
" clip-path="url(#pd77893d1b1)" style="fill: #1f77b4"/>
   </g>
   <g id="patch_56">
    <path d="M 121.95346 307.584 
L 122.59507 307.584 
L 122.59507 112.630154 
L 121.95346 112.630154 
z
" clip-path="url(#pd77893d1b1)" style="fill: #1f77b4"/>
   </g>
   <g id="patch_57">
    <path d="M 107.51724 307.584 
L 108.15885 307.584 
L 108.15885 93.134769 
L 107.51724 93.134769 
z
" clip-path="url(#pd77893d1b1)" style="fill: #1f77b4"/>
   </g>
   <g id="patch_58">
    <path d="M 113.131326 307.584 
L 113.772936 307.584 
L 113.772936 61.942154 
L 113.131326 61.942154 
z
" clip-path="url(#pd77893d1b1)" style="fill: #1f77b4"/>
   </g>
   <g id="patch_59">
    <path d="M 114.73535 307.584 
L 115.37696 307.584 
L 115.37696 128.226462 
L 114.73535 128.226462 
z
" clip-path="url(#pd77893d1b1)" style="fill: #1f77b4"/>
   </g>
   <g id="patch_60">
    <path d="M 129.17157 307.584 
L 129.81318 307.584 
L 129.81318 100.932923 
L 129.17157 100.932923 
z
" clip-path="url(#pd77893d1b1)" style="fill: #1f77b4"/>
   </g>
   <g id="patch_61">
    <path d="M 120.349436 307.584 
L 120.991046 307.584 
L 120.991046 128.226462 
L 120.349436 128.226462 
z
" clip-path="url(#pd77893d1b1)" style="fill: #1f77b4"/>
   </g>
   <g id="patch_62">
    <path d="M 125.161509 307.584 
L 125.803119 307.584 
L 125.803119 159.419077 
L 125.161509 159.419077 
z
" clip-path="url(#pd77893d1b1)" style="fill: #1f77b4"/>
   </g>
   <g id="patch_63">
    <path d="M 126.765534 307.584 
L 127.407143 307.584 
L 127.407143 202.308923 
L 126.765534 202.308923 
z
" clip-path="url(#pd77893d1b1)" style="fill: #1f77b4"/>
   </g>
   <g id="patch_64">
    <path d="M 123.557485 307.584 
L 124.199095 307.584 
L 124.199095 116.529231 
L 123.557485 116.529231 
z
" clip-path="url(#pd77893d1b1)" style="fill: #1f77b4"/>
   </g>
   <g id="patch_65">
    <path d="M 119.547424 307.584 
L 120.189033 307.584 
L 120.189033 112.630154 
L 119.547424 112.630154 
z
" clip-path="url(#pd77893d1b1)" style="fill: #1f77b4"/>
   </g>
   <g id="patch_66">
    <path d="M 113.933338 307.584 
L 114.574948 307.584 
L 114.574948 128.226462 
L 113.933338 128.226462 
z
" clip-path="url(#pd77893d1b1)" style="fill: #1f77b4"/>
   </g>
   <g id="patch_67">
    <path d="M 130.775595 307.584 
L 131.417204 307.584 
L 131.417204 120.428308 
L 130.775595 120.428308 
z
" clip-path="url(#pd77893d1b1)" style="fill: #1f77b4"/>
   </g>
   <g id="patch_68">
    <path d="M 117.943399 307.584 
L 118.585009 307.584 
L 118.585009 143.822769 
L 117.943399 143.822769 
z
" clip-path="url(#pd77893d1b1)" style="fill: #1f77b4"/>
   </g>
   <g id="patch_69">
    <path d="M 137.191692 307.584 
L 137.833302 307.584 
L 137.833302 163.318154 
L 137.191692 163.318154 
z
" clip-path="url(#pd77893d1b1)" style="fill: #1f77b4"/>
   </g>
   <g id="patch_70">
    <path d="M 136.38968 307.584 
L 137.03129 307.584 
L 137.03129 136.024615 
L 136.38968 136.024615 
z
" clip-path="url(#pd77893d1b1)" style="fill: #1f77b4"/>
   </g>
   <g id="patch_71">
    <path d="M 141.201754 307.584 
L 141.843363 307.584 
L 141.843363 120.428308 
L 141.201754 120.428308 
z
" clip-path="url(#pd77893d1b1)" style="fill: #1f77b4"/>
   </g>
   <g id="patch_72">
    <path d="M 118.745411 307.584 
L 119.387021 307.584 
L 119.387021 128.226462 
L 118.745411 128.226462 
z
" clip-path="url(#pd77893d1b1)" style="fill: #1f77b4"/>
   </g>
   <g id="patch_73">
    <path d="M 138.795717 307.584 
L 139.437327 307.584 
L 139.437327 155.52 
L 138.795717 155.52 
z
" clip-path="url(#pd77893d1b1)" style="fill: #1f77b4"/>
   </g>
   <g id="patch_74">
    <path d="M 134.785656 307.584 
L 135.427266 307.584 
L 135.427266 128.226462 
L 134.785656 128.226462 
z
" clip-path="url(#pd77893d1b1)" style="fill: #1f77b4"/>
   </g>
   <g id="patch_75">
    <path d="M 129.973582 307.584 
L 130.615192 307.584 
L 130.615192 210.107077 
L 129.973582 210.107077 
z
" clip-path="url(#pd77893d1b1)" style="fill: #1f77b4"/>
   </g>
   <g id="patch_76">
    <path d="M 124.359497 307.584 
L 125.001107 307.584 
L 125.001107 93.134769 
L 124.359497 93.134769 
z
" clip-path="url(#pd77893d1b1)" style="fill: #1f77b4"/>
   </g>
   <g id="patch_77">
    <path d="M 137.993705 307.584 
L 138.635314 307.584 
L 138.635314 139.923692 
L 137.993705 139.923692 
z
" clip-path="url(#pd77893d1b1)" style="fill: #1f77b4"/>
   </g>
   <g id="patch_78">
    <path d="M 143.60779 307.584 
L 144.2494 307.584 
L 144.2494 155.52 
L 143.60779 155.52 
z
" clip-path="url(#pd77893d1b1)" style="fill: #1f77b4"/>
   </g>
   <g id="patch_79">
    <path d="M 142.805778 307.584 
L 143.447388 307.584 
L 143.447388 104.832 
L 142.805778 104.832 
z
" clip-path="url(#pd77893d1b1)" style="fill: #1f77b4"/>
   </g>
   <g id="patch_80">
    <path d="M 127.567546 307.584 
L 128.209156 307.584 
L 128.209156 120.428308 
L 127.567546 120.428308 
z
" clip-path="url(#pd77893d1b1)" style="fill: #1f77b4"/>
   </g>
   <g id="patch_81">
    <path d="M 135.587668 307.584 
L 136.229278 307.584 
L 136.229278 136.024615 
L 135.587668 136.024615 
z
" clip-path="url(#pd77893d1b1)" style="fill: #1f77b4"/>
   </g>
   <g id="patch_82">
    <path d="M 128.369558 307.584 
L 129.011168 307.584 
L 129.011168 143.822769 
L 128.369558 143.822769 
z
" clip-path="url(#pd77893d1b1)" style="fill: #1f77b4"/>
   </g>
   <g id="patch_83">
    <path d="M 131.577607 307.584 
L 132.219217 307.584 
L 132.219217 151.620923 
L 131.577607 151.620923 
z
" clip-path="url(#pd77893d1b1)" style="fill: #1f77b4"/>
   </g>
   <g id="patch_84">
    <path d="M 132.379619 307.584 
L 133.021229 307.584 
L 133.021229 112.630154 
L 132.379619 112.630154 
z
" clip-path="url(#pd77893d1b1)" style="fill: #1f77b4"/>
   </g>
   <g id="patch_85">
    <path d="M 133.181631 307.584 
L 133.823241 307.584 
L 133.823241 178.914462 
L 133.181631 178.914462 
z
" clip-path="url(#pd77893d1b1)" style="fill: #1f77b4"/>
   </g>
   <g id="patch_86">
    <path d="M 125.963521 307.584 
L 126.605131 307.584 
L 126.605131 159.419077 
L 125.963521 159.419077 
z
" clip-path="url(#pd77893d1b1)" style="fill: #1f77b4"/>
   </g>
   <g id="patch_87">
    <path d="M 142.003766 307.584 
L 142.645375 307.584 
L 142.645375 143.822769 
L 142.003766 143.822769 
z
" clip-path="url(#pd77893d1b1)" style="fill: #1f77b4"/>
   </g>
   <g id="patch_88">
    <path d="M 146.013827 307.584 
L 146.655437 307.584 
L 146.655437 132.125538 
L 146.013827 132.125538 
z
" clip-path="url(#pd77893d1b1)" style="fill: #1f77b4"/>
   </g>
   <g id="patch_89">
    <path d="M 133.983644 307.584 
L 134.625253 307.584 
L 134.625253 182.813538 
L 133.983644 182.813538 
z
" clip-path="url(#pd77893d1b1)" style="fill: #1f77b4"/>
   </g>
   <g id="patch_90">
    <path d="M 144.409802 307.584 
L 145.051412 307.584 
L 145.051412 100.932923 
L 144.409802 100.932923 
z
" clip-path="url(#pd77893d1b1)" style="fill: #1f77b4"/>
   </g>
   <g id="patch_91">
    <path d="M 162.856083 307.584 
L 163.497693 307.584 
L 163.497693 175.015385 
L 162.856083 175.015385 
z
" clip-path="url(#pd77893d1b1)" style="fill: #1f77b4"/>
   </g>
   <g id="patch_92">
    <path d="M 145.211815 307.584 
L 145.853424 307.584 
L 145.853424 175.015385 
L 145.211815 175.015385 
z
" clip-path="url(#pd77893d1b1)" style="fill: #1f77b4"/>
   </g>
   <g id="patch_93">
    <path d="M 151.627912 307.584 
L 152.269522 307.584 
L 152.269522 178.914462 
L 151.627912 178.914462 
z
" clip-path="url(#pd77893d1b1)" style="fill: #1f77b4"/>
   </g>
   <g id="patch_94">
    <path d="M 169.272181 307.584 
L 169.913791 307.584 
L 169.913791 198.409846 
L 169.272181 198.409846 
z
" clip-path="url(#pd77893d1b1)" style="fill: #1f77b4"/>
   </g>
   <g id="patch_95">
    <path d="M 150.023888 307.584 
L 150.665498 307.584 
L 150.665498 163.318154 
L 150.023888 163.318154 
z
" clip-path="url(#pd77893d1b1)" style="fill: #1f77b4"/>
   </g>
   <g id="patch_96">
    <path d="M 154.033949 307.584 
L 154.675559 307.584 
L 154.675559 147.721846 
L 154.033949 147.721846 
z
" clip-path="url(#pd77893d1b1)" style="fill: #1f77b4"/>
   </g>
   <g id="patch_97">
    <path d="M 176.490291 307.584 
L 177.131901 307.584 
L 177.131901 233.501538 
L 176.490291 233.501538 
z
" clip-path="url(#pd77893d1b1)" style="fill: #1f77b4"/>
   </g>
   <g id="patch_98">
    <path d="M 160.450047 307.584 
L 161.091656 307.584 
L 161.091656 136.024615 
L 160.450047 136.024615 
z
" clip-path="url(#pd77893d1b1)" style="fill: #1f77b4"/>
   </g>
   <g id="patch_99">
    <path d="M 148.419863 307.584 
L 149.061473 307.584 
L 149.061473 175.015385 
L 148.419863 175.015385 
z
" clip-path="url(#pd77893d1b1)" style="fill: #1f77b4"/>
   </g>
   <g id="patch_100">
    <path d="M 163.658096 307.584 
L 164.299705 307.584 
L 164.299705 155.52 
L 163.658096 155.52 
z
" clip-path="url(#pd77893d1b1)" style="fill: #1f77b4"/>
   </g>
   <g id="patch_101">
    <path d="M 152.429925 307.584 
L 153.071534 307.584 
L 153.071534 159.419077 
L 152.429925 159.419077 
z
" clip-path="url(#pd77893d1b1)" style="fill: #1f77b4"/>
   </g>
   <g id="patch_102">
    <path d="M 147.617851 307.584 
L 148.259461 307.584 
L 148.259461 124.327385 
L 147.617851 124.327385 
z
" clip-path="url(#pd77893d1b1)" style="fill: #1f77b4"/>
   </g>
   <g id="patch_103">
    <path d="M 139.597729 307.584 
L 140.239339 307.584 
L 140.239339 167.217231 
L 139.597729 167.217231 
z
" clip-path="url(#pd77893d1b1)" style="fill: #1f77b4"/>
   </g>
   <g id="patch_104">
    <path d="M 150.8259 307.584 
L 151.46751 307.584 
L 151.46751 108.731077 
L 150.8259 108.731077 
z
" clip-path="url(#pd77893d1b1)" style="fill: #1f77b4"/>
   </g>
   <g id="patch_105">
    <path d="M 173.282242 307.584 
L 173.923852 307.584 
L 173.923852 159.419077 
L 173.282242 159.419077 
z
" clip-path="url(#pd77893d1b1)" style="fill: #1f77b4"/>
   </g>
   <g id="patch_106">
    <path d="M 157.241998 307.584 
L 157.883608 307.584 
L 157.883608 167.217231 
L 157.241998 167.217231 
z
" clip-path="url(#pd77893d1b1)" style="fill: #1f77b4"/>
   </g>
   <g id="patch_107">
    <path d="M 158.846022 307.584 
L 159.487632 307.584 
L 159.487632 182.813538 
L 158.846022 182.813538 
z
" clip-path="url(#pd77893d1b1)" style="fill: #1f77b4"/>
   </g>
   <g id="patch_108">
    <path d="M 164.460108 307.584 
L 165.101718 307.584 
L 165.101718 136.024615 
L 164.460108 136.024615 
z
" clip-path="url(#pd77893d1b1)" style="fill: #1f77b4"/>
   </g>
   <g id="patch_109">
    <path d="M 140.399741 307.584 
L 141.041351 307.584 
L 141.041351 143.822769 
L 140.399741 143.822769 
z
" clip-path="url(#pd77893d1b1)" style="fill: #1f77b4"/>
   </g>
   <g id="patch_110">
    <path d="M 168.470169 307.584 
L 169.111779 307.584 
L 169.111779 198.409846 
L 168.470169 198.409846 
z
" clip-path="url(#pd77893d1b1)" style="fill: #1f77b4"/>
   </g>
   <g id="patch_111">
    <path d="M 155.637973 307.584 
L 156.279583 307.584 
L 156.279583 178.914462 
L 155.637973 178.914462 
z
" clip-path="url(#pd77893d1b1)" style="fill: #1f77b4"/>
   </g>
   <g id="patch_112">
    <path d="M 149.221876 307.584 
L 149.863485 307.584 
L 149.863485 116.529231 
L 149.221876 116.529231 
z
" clip-path="url(#pd77893d1b1)" style="fill: #1f77b4"/>
   </g>
   <g id="patch_113">
    <path d="M 159.648034 307.584 
L 160.289644 307.584 
L 160.289644 194.510769 
L 159.648034 194.510769 
z
" clip-path="url(#pd77893d1b1)" style="fill: #1f77b4"/>
   </g>
   <g id="patch_114">
    <path d="M 184.510413 307.584 
L 185.152023 307.584 
L 185.152023 178.914462 
L 184.510413 178.914462 
z
" clip-path="url(#pd77893d1b1)" style="fill: #1f77b4"/>
   </g>
   <g id="patch_115">
    <path d="M 154.835961 307.584 
L 155.477571 307.584 
L 155.477571 136.024615 
L 154.835961 136.024615 
z
" clip-path="url(#pd77893d1b1)" style="fill: #1f77b4"/>
   </g>
   <g id="patch_116">
    <path d="M 153.231937 307.584 
L 153.873547 307.584 
L 153.873547 155.52 
L 153.231937 155.52 
z
" clip-path="url(#pd77893d1b1)" style="fill: #1f77b4"/>
   </g>
   <g id="patch_117">
    <path d="M 156.439986 307.584 
L 157.081595 307.584 
L 157.081595 167.217231 
L 156.439986 167.217231 
z
" clip-path="url(#pd77893d1b1)" style="fill: #1f77b4"/>
   </g>
   <g id="patch_118">
    <path d="M 170.074193 307.584 
L 170.715803 307.584 
L 170.715803 198.409846 
L 170.074193 198.409846 
z
" clip-path="url(#pd77893d1b1)" style="fill: #1f77b4"/>
   </g>
   <g id="patch_119">
    <path d="M 161.252059 307.584 
L 161.893669 307.584 
L 161.893669 178.914462 
L 161.252059 178.914462 
z
" clip-path="url(#pd77893d1b1)" style="fill: #1f77b4"/>
   </g>
   <g id="patch_120">
    <path d="M 171.678218 307.584 
L 172.319828 307.584 
L 172.319828 206.208 
L 171.678218 206.208 
z
" clip-path="url(#pd77893d1b1)" style="fill: #1f77b4"/>
   </g>
   <g id="patch_121">
    <path d="M 146.815839 307.584 
L 147.457449 307.584 
L 147.457449 163.318154 
L 146.815839 163.318154 
z
" clip-path="url(#pd77893d1b1)" style="fill: #1f77b4"/>
   </g>
   <g id="patch_122">
    <path d="M 167.668157 307.584 
L 168.309766 307.584 
L 168.309766 163.318154 
L 167.668157 163.318154 
z
" clip-path="url(#pd77893d1b1)" style="fill: #1f77b4"/>
   </g>
   <g id="patch_123">
    <path d="M 174.886267 307.584 
L 175.527876 307.584 
L 175.527876 182.813538 
L 174.886267 182.813538 
z
" clip-path="url(#pd77893d1b1)" style="fill: #1f77b4"/>
   </g>
   <g id="patch_124">
    <path d="M 188.520474 307.584 
L 189.162084 307.584 
L 189.162084 210.107077 
L 188.520474 210.107077 
z
" clip-path="url(#pd77893d1b1)" style="fill: #1f77b4"/>
   </g>
   <g id="patch_125">
    <path d="M 162.054071 307.584 
L 162.695681 307.584 
L 162.695681 171.116308 
L 162.054071 171.116308 
z
" clip-path="url(#pd77893d1b1)" style="fill: #1f77b4"/>
   </g>
   <g id="patch_126">
    <path d="M 165.26212 307.584 
L 165.90373 307.584 
L 165.90373 151.620923 
L 165.26212 151.620923 
z
" clip-path="url(#pd77893d1b1)" style="fill: #1f77b4"/>
   </g>
   <g id="patch_127">
    <path d="M 166.866144 307.584 
L 167.507754 307.584 
L 167.507754 159.419077 
L 166.866144 159.419077 
z
" clip-path="url(#pd77893d1b1)" style="fill: #1f77b4"/>
   </g>
   <g id="patch_128">
    <path d="M 180.500352 307.584 
L 181.141962 307.584 
L 181.141962 210.107077 
L 180.500352 210.107077 
z
" clip-path="url(#pd77893d1b1)" style="fill: #1f77b4"/>
   </g>
   <g id="patch_129">
    <path d="M 211.778829 307.584 
L 212.420438 307.584 
L 212.420438 245.198769 
L 211.778829 245.198769 
z
" clip-path="url(#pd77893d1b1)" style="fill: #1f77b4"/>
   </g>
   <g id="patch_130">
    <path d="M 183.708401 307.584 
L 184.350011 307.584 
L 184.350011 241.299692 
L 183.708401 241.299692 
z
" clip-path="url(#pd77893d1b1)" style="fill: #1f77b4"/>
   </g>
   <g id="patch_131">
    <path d="M 194.13456 307.584 
L 194.77617 307.584 
L 194.77617 249.097846 
L 194.13456 249.097846 
z
" clip-path="url(#pd77893d1b1)" style="fill: #1f77b4"/>
   </g>
   <g id="patch_132">
    <path d="M 193.332548 307.584 
L 193.974157 307.584 
L 193.974157 245.198769 
L 193.332548 245.198769 
z
" clip-path="url(#pd77893d1b1)" style="fill: #1f77b4"/>
   </g>
   <g id="patch_133">
    <path d="M 195.738584 307.584 
L 196.380194 307.584 
L 196.380194 237.400615 
L 195.738584 237.400615 
z
" clip-path="url(#pd77893d1b1)" style="fill: #1f77b4"/>
   </g>
   <g id="patch_134">
    <path d="M 166.064132 307.584 
L 166.705742 307.584 
L 166.705742 186.712615 
L 166.064132 186.712615 
z
" clip-path="url(#pd77893d1b1)" style="fill: #1f77b4"/>
   </g>
   <g id="patch_135">
    <path d="M 158.04401 307.584 
L 158.68562 307.584 
L 158.68562 175.015385 
L 158.04401 175.015385 
z
" clip-path="url(#pd77893d1b1)" style="fill: #1f77b4"/>
   </g>
   <g id="patch_136">
    <path d="M 182.104377 307.584 
L 182.745986 307.584 
L 182.745986 186.712615 
L 182.104377 186.712615 
z
" clip-path="url(#pd77893d1b1)" style="fill: #1f77b4"/>
   </g>
   <g id="patch_137">
    <path d="M 190.124499 307.584 
L 190.766109 307.584 
L 190.766109 210.107077 
L 190.124499 210.107077 
z
" clip-path="url(#pd77893d1b1)" style="fill: #1f77b4"/>
   </g>
   <g id="patch_138">
    <path d="M 175.688279 307.584 
L 176.329889 307.584 
L 176.329889 175.015385 
L 175.688279 175.015385 
z
" clip-path="url(#pd77893d1b1)" style="fill: #1f77b4"/>
   </g>
   <g id="patch_139">
    <path d="M 196.540596 307.584 
L 197.182206 307.584 
L 197.182206 237.400615 
L 196.540596 237.400615 
z
" clip-path="url(#pd77893d1b1)" style="fill: #1f77b4"/>
   </g>
   <g id="patch_140">
    <path d="M 213.382853 307.584 
L 214.024463 307.584 
L 214.024463 268.593231 
L 213.382853 268.593231 
z
" clip-path="url(#pd77893d1b1)" style="fill: #1f77b4"/>
   </g>
   <g id="patch_141">
    <path d="M 174.084254 307.584 
L 174.725864 307.584 
L 174.725864 167.217231 
L 174.084254 167.217231 
z
" clip-path="url(#pd77893d1b1)" style="fill: #1f77b4"/>
   </g>
   <g id="patch_142">
    <path d="M 199.748645 307.584 
L 200.390255 307.584 
L 200.390255 245.198769 
L 199.748645 245.198769 
z
" clip-path="url(#pd77893d1b1)" style="fill: #1f77b4"/>
   </g>
   <g id="patch_143">
    <path d="M 170.876206 307.584 
L 171.517815 307.584 
L 171.517815 190.611692 
L 170.876206 190.611692 
z
" clip-path="url(#pd77893d1b1)" style="fill: #1f77b4"/>
   </g>
   <g id="patch_144">
    <path d="M 186.114438 307.584 
L 186.756047 307.584 
L 186.756047 237.400615 
L 186.114438 237.400615 
z
" clip-path="url(#pd77893d1b1)" style="fill: #1f77b4"/>
   </g>
   <g id="patch_145">
    <path d="M 172.48023 307.584 
L 173.12184 307.584 
L 173.12184 190.611692 
L 172.48023 190.611692 
z
" clip-path="url(#pd77893d1b1)" style="fill: #1f77b4"/>
   </g>
   <g id="patch_146">
    <path d="M 181.302364 307.584 
L 181.943974 307.584 
L 181.943974 221.804308 
L 181.302364 221.804308 
z
" clip-path="url(#pd77893d1b1)" style="fill: #1f77b4"/>
   </g>
   <g id="patch_147">
    <path d="M 189.322487 307.584 
L 189.964096 307.584 
L 189.964096 206.208 
L 189.322487 206.208 
z
" clip-path="url(#pd77893d1b1)" style="fill: #1f77b4"/>
   </g>
   <g id="patch_148">
    <path d="M 192.530535 307.584 
L 193.172145 307.584 
L 193.172145 214.006154 
L 192.530535 214.006154 
z
" clip-path="url(#pd77893d1b1)" style="fill: #1f77b4"/>
   </g>
   <g id="patch_149">
    <path d="M 179.69834 307.584 
L 180.33995 307.584 
L 180.33995 210.107077 
L 179.69834 210.107077 
z
" clip-path="url(#pd77893d1b1)" style="fill: #1f77b4"/>
   </g>
   <g id="patch_150">
    <path d="M 177.292303 307.584 
L 177.933913 307.584 
L 177.933913 229.602462 
L 177.292303 229.602462 
z
" clip-path="url(#pd77893d1b1)" style="fill: #1f77b4"/>
   </g>
   <g id="patch_151">
    <path d="M 194.936572 307.584 
L 195.578182 307.584 
L 195.578182 233.501538 
L 194.936572 233.501538 
z
" clip-path="url(#pd77893d1b1)" style="fill: #1f77b4"/>
   </g>
   <g id="patch_152">
    <path d="M 186.91645 307.584 
L 187.55806 307.584 
L 187.55806 237.400615 
L 186.91645 237.400615 
z
" clip-path="url(#pd77893d1b1)" style="fill: #1f77b4"/>
   </g>
   <g id="patch_153">
    <path d="M 205.362731 307.584 
L 206.004341 307.584 
L 206.004341 245.198769 
L 205.362731 245.198769 
z
" clip-path="url(#pd77893d1b1)" style="fill: #1f77b4"/>
   </g>
   <g id="patch_154">
    <path d="M 178.896328 307.584 
L 179.537937 307.584 
L 179.537937 198.409846 
L 178.896328 198.409846 
z
" clip-path="url(#pd77893d1b1)" style="fill: #1f77b4"/>
   </g>
   <g id="patch_155">
    <path d="M 182.906389 307.584 
L 183.547999 307.584 
L 183.547999 190.611692 
L 182.906389 190.611692 
z
" clip-path="url(#pd77893d1b1)" style="fill: #1f77b4"/>
   </g>
   <g id="patch_156">
    <path d="M 218.194926 307.584 
L 218.836536 307.584 
L 218.836536 276.391385 
L 218.194926 276.391385 
z
" clip-path="url(#pd77893d1b1)" style="fill: #1f77b4"/>
   </g>
   <g id="patch_157">
    <path d="M 207.768768 307.584 
L 208.410377 307.584 
L 208.410377 237.400615 
L 207.768768 237.400615 
z
" clip-path="url(#pd77893d1b1)" style="fill: #1f77b4"/>
   </g>
   <g id="patch_158">
    <path d="M 187.718462 307.584 
L 188.360072 307.584 
L 188.360072 241.299692 
L 187.718462 241.299692 
z
" clip-path="url(#pd77893d1b1)" style="fill: #1f77b4"/>
   </g>
   <g id="patch_159">
    <path d="M 197.342609 307.584 
L 197.984218 307.584 
L 197.984218 272.492308 
L 197.342609 272.492308 
z
" clip-path="url(#pd77893d1b1)" style="fill: #1f77b4"/>
   </g>
   <g id="patch_160">
    <path d="M 220.600963 307.584 
L 221.242573 307.584 
L 221.242573 252.996923 
L 220.600963 252.996923 
z
" clip-path="url(#pd77893d1b1)" style="fill: #1f77b4"/>
   </g>
   <g id="patch_161">
    <path d="M 231.829134 307.584 
L 232.470744 307.584 
L 232.470744 284.189538 
L 231.829134 284.189538 
z
" clip-path="url(#pd77893d1b1)" style="fill: #1f77b4"/>
   </g>
   <g id="patch_162">
    <path d="M 178.094315 307.584 
L 178.735925 307.584 
L 178.735925 206.208 
L 178.094315 206.208 
z
" clip-path="url(#pd77893d1b1)" style="fill: #1f77b4"/>
   </g>
   <g id="patch_163">
    <path d="M 198.946633 307.584 
L 199.588243 307.584 
L 199.588243 206.208 
L 198.946633 206.208 
z
" clip-path="url(#pd77893d1b1)" style="fill: #1f77b4"/>
   </g>
   <g id="patch_164">
    <path d="M 202.956694 307.584 
L 203.598304 307.584 
L 203.598304 241.299692 
L 202.956694 241.299692 
z
" clip-path="url(#pd77893d1b1)" style="fill: #1f77b4"/>
   </g>
   <g id="patch_165">
    <path d="M 190.926511 307.584 
L 191.568121 307.584 
L 191.568121 210.107077 
L 190.926511 210.107077 
z
" clip-path="url(#pd77893d1b1)" style="fill: #1f77b4"/>
   </g>
   <g id="patch_166">
    <path d="M 191.728523 307.584 
L 192.370133 307.584 
L 192.370133 241.299692 
L 191.728523 241.299692 
z
" clip-path="url(#pd77893d1b1)" style="fill: #1f77b4"/>
   </g>
   <g id="patch_167">
    <path d="M 202.154682 307.584 
L 202.796292 307.584 
L 202.796292 252.996923 
L 202.154682 252.996923 
z
" clip-path="url(#pd77893d1b1)" style="fill: #1f77b4"/>
   </g>
   <g id="patch_168">
    <path d="M 204.560719 307.584 
L 205.202328 307.584 
L 205.202328 233.501538 
L 204.560719 233.501538 
z
" clip-path="url(#pd77893d1b1)" style="fill: #1f77b4"/>
   </g>
   <g id="patch_169">
    <path d="M 201.35267 307.584 
L 201.99428 307.584 
L 201.99428 233.501538 
L 201.35267 233.501538 
z
" clip-path="url(#pd77893d1b1)" style="fill: #1f77b4"/>
   </g>
   <g id="patch_170">
    <path d="M 222.204987 307.584 
L 222.846597 307.584 
L 222.846597 288.088615 
L 222.204987 288.088615 
z
" clip-path="url(#pd77893d1b1)" style="fill: #1f77b4"/>
   </g>
   <g id="patch_171">
    <path d="M 203.758706 307.584 
L 204.400316 307.584 
L 204.400316 249.097846 
L 203.758706 249.097846 
z
" clip-path="url(#pd77893d1b1)" style="fill: #1f77b4"/>
   </g>
   <g id="patch_172">
    <path d="M 210.976816 307.584 
L 211.618426 307.584 
L 211.618426 245.198769 
L 210.976816 245.198769 
z
" clip-path="url(#pd77893d1b1)" style="fill: #1f77b4"/>
   </g>
   <g id="patch_173">
    <path d="M 206.966755 307.584 
L 207.608365 307.584 
L 207.608365 256.896 
L 206.966755 256.896 
z
" clip-path="url(#pd77893d1b1)" style="fill: #1f77b4"/>
   </g>
   <g id="patch_174">
    <path d="M 214.184865 307.584 
L 214.826475 307.584 
L 214.826475 280.290462 
L 214.184865 280.290462 
z
" clip-path="url(#pd77893d1b1)" style="fill: #1f77b4"/>
   </g>
   <g id="patch_175">
    <path d="M 223.809012 307.584 
L 224.450622 307.584 
L 224.450622 252.996923 
L 223.809012 252.996923 
z
" clip-path="url(#pd77893d1b1)" style="fill: #1f77b4"/>
   </g>
   <g id="patch_176">
    <path d="M 198.144621 307.584 
L 198.786231 307.584 
L 198.786231 256.896 
L 198.144621 256.896 
z
" clip-path="url(#pd77893d1b1)" style="fill: #1f77b4"/>
   </g>
   <g id="patch_177">
    <path d="M 233.433158 307.584 
L 234.074768 307.584 
L 234.074768 276.391385 
L 233.433158 276.391385 
z
" clip-path="url(#pd77893d1b1)" style="fill: #1f77b4"/>
   </g>
   <g id="patch_178">
    <path d="M 223.007 307.584 
L 223.648609 307.584 
L 223.648609 260.795077 
L 223.007 260.795077 
z
" clip-path="url(#pd77893d1b1)" style="fill: #1f77b4"/>
   </g>
   <g id="patch_179">
    <path d="M 215.78889 307.584 
L 216.430499 307.584 
L 216.430499 268.593231 
L 215.78889 268.593231 
z
" clip-path="url(#pd77893d1b1)" style="fill: #1f77b4"/>
   </g>
   <g id="patch_180">
    <path d="M 221.402975 307.584 
L 222.044585 307.584 
L 222.044585 264.694154 
L 221.402975 264.694154 
z
" clip-path="url(#pd77893d1b1)" style="fill: #1f77b4"/>
   </g>
   <g id="patch_181">
    <path d="M 214.986877 307.584 
L 215.628487 307.584 
L 215.628487 280.290462 
L 214.986877 280.290462 
z
" clip-path="url(#pd77893d1b1)" style="fill: #1f77b4"/>
   </g>
   <g id="patch_182">
    <path d="M 200.550658 307.584 
L 201.192267 307.584 
L 201.192267 210.107077 
L 200.550658 210.107077 
z
" clip-path="url(#pd77893d1b1)" style="fill: #1f77b4"/>
   </g>
   <g id="patch_183">
    <path d="M 208.57078 307.584 
L 209.21239 307.584 
L 209.21239 241.299692 
L 208.57078 241.299692 
z
" clip-path="url(#pd77893d1b1)" style="fill: #1f77b4"/>
   </g>
   <g id="patch_184">
    <path d="M 218.996939 307.584 
L 219.638548 307.584 
L 219.638548 280.290462 
L 218.996939 280.290462 
z
" clip-path="url(#pd77893d1b1)" style="fill: #1f77b4"/>
   </g>
   <g id="patch_185">
    <path d="M 227.819073 307.584 
L 228.460683 307.584 
L 228.460683 272.492308 
L 227.819073 272.492308 
z
" clip-path="url(#pd77893d1b1)" style="fill: #1f77b4"/>
   </g>
   <g id="patch_186">
    <path d="M 266.315659 307.584 
L 266.957269 307.584 
L 266.957269 303.684923 
L 266.315659 303.684923 
z
" clip-path="url(#pd77893d1b1)" style="fill: #1f77b4"/>
   </g>
   <g id="patch_187">
    <path d="M 217.392914 307.584 
L 218.034524 307.584 
L 218.034524 260.795077 
L 217.392914 260.795077 
z
" clip-path="url(#pd77893d1b1)" style="fill: #1f77b4"/>
   </g>
   <g id="patch_188">
    <path d="M 242.255293 307.584 
L 242.896903 307.584 
L 242.896903 280.290462 
L 242.255293 280.290462 
z
" clip-path="url(#pd77893d1b1)" style="fill: #1f77b4"/>
   </g>
   <g id="patch_189">
    <path d="M 185.312425 307.584 
L 185.954035 307.584 
L 185.954035 237.400615 
L 185.312425 237.400615 
z
" clip-path="url(#pd77893d1b1)" style="fill: #1f77b4"/>
   </g>
   <g id="patch_190">
    <path d="M 258.295537 307.584 
L 258.937147 307.584 
L 258.937147 280.290462 
L 258.295537 280.290462 
z
" clip-path="url(#pd77893d1b1)" style="fill: #1f77b4"/>
   </g>
   <g id="patch_191">
    <path d="M 206.164743 307.584 
L 206.806353 307.584 
L 206.806353 252.996923 
L 206.164743 252.996923 
z
" clip-path="url(#pd77893d1b1)" style="fill: #1f77b4"/>
   </g>
   <g id="patch_192">
    <path d="M 216.590902 307.584 
L 217.232512 307.584 
L 217.232512 256.896 
L 216.590902 256.896 
z
" clip-path="url(#pd77893d1b1)" style="fill: #1f77b4"/>
   </g>
   <g id="patch_193">
    <path d="M 236.641207 307.584 
L 237.282817 307.584 
L 237.282817 284.189538 
L 236.641207 284.189538 
z
" clip-path="url(#pd77893d1b1)" style="fill: #1f77b4"/>
   </g>
   <g id="patch_194">
    <path d="M 228.621085 307.584 
L 229.262695 307.584 
L 229.262695 256.896 
L 228.621085 256.896 
z
" clip-path="url(#pd77893d1b1)" style="fill: #1f77b4"/>
   </g>
   <g id="patch_195">
    <path d="M 245.463342 307.584 
L 246.104951 307.584 
L 246.104951 291.987692 
L 245.463342 291.987692 
z
" clip-path="url(#pd77893d1b1)" style="fill: #1f77b4"/>
   </g>
   <g id="patch_196">
    <path d="M 247.869378 307.584 
L 248.510988 307.584 
L 248.510988 295.886769 
L 247.869378 295.886769 
z
" clip-path="url(#pd77893d1b1)" style="fill: #1f77b4"/>
   </g>
   <g id="patch_197">
    <path d="M 231.027122 307.584 
L 231.668732 307.584 
L 231.668732 268.593231 
L 231.027122 268.593231 
z
" clip-path="url(#pd77893d1b1)" style="fill: #1f77b4"/>
   </g>
   <g id="patch_198">
    <path d="M 226.215049 307.584 
L 226.856658 307.584 
L 226.856658 268.593231 
L 226.215049 268.593231 
z
" clip-path="url(#pd77893d1b1)" style="fill: #1f77b4"/>
   </g>
   <g id="patch_199">
    <path d="M 209.372792 307.584 
L 210.014402 307.584 
L 210.014402 264.694154 
L 209.372792 264.694154 
z
" clip-path="url(#pd77893d1b1)" style="fill: #1f77b4"/>
   </g>
   <g id="patch_200">
    <path d="M 240.651268 307.584 
L 241.292878 307.584 
L 241.292878 288.088615 
L 240.651268 288.088615 
z
" clip-path="url(#pd77893d1b1)" style="fill: #1f77b4"/>
   </g>
   <g id="patch_201">
    <path d="M 212.580841 307.584 
L 213.222451 307.584 
L 213.222451 284.189538 
L 212.580841 284.189538 
z
" clip-path="url(#pd77893d1b1)" style="fill: #1f77b4"/>
   </g>
   <g id="patch_202">
    <path d="M 210.174804 307.584 
L 210.816414 307.584 
L 210.816414 260.795077 
L 210.174804 260.795077 
z
" clip-path="url(#pd77893d1b1)" style="fill: #1f77b4"/>
   </g>
   <g id="patch_203">
    <path d="M 229.423097 307.584 
L 230.064707 307.584 
L 230.064707 284.189538 
L 229.423097 284.189538 
z
" clip-path="url(#pd77893d1b1)" style="fill: #1f77b4"/>
   </g>
   <g id="patch_204">
    <path d="M 230.22511 307.584 
L 230.866719 307.584 
L 230.866719 284.189538 
L 230.22511 284.189538 
z
" clip-path="url(#pd77893d1b1)" style="fill: #1f77b4"/>
   </g>
   <g id="patch_205">
    <path d="M 227.017061 307.584 
L 227.65867 307.584 
L 227.65867 276.391385 
L 227.017061 276.391385 
z
" clip-path="url(#pd77893d1b1)" style="fill: #1f77b4"/>
   </g>
   <g id="patch_206">
    <path d="M 239.849256 307.584 
L 240.490866 307.584 
L 240.490866 295.886769 
L 239.849256 295.886769 
z
" clip-path="url(#pd77893d1b1)" style="fill: #1f77b4"/>
   </g>
   <g id="patch_207">
    <path d="M 250.275415 307.584 
L 250.917025 307.584 
L 250.917025 291.987692 
L 250.275415 291.987692 
z
" clip-path="url(#pd77893d1b1)" style="fill: #1f77b4"/>
   </g>
   <g id="patch_208">
    <path d="M 253.483464 307.584 
L 254.125074 307.584 
L 254.125074 288.088615 
L 253.483464 288.088615 
z
" clip-path="url(#pd77893d1b1)" style="fill: #1f77b4"/>
   </g>
   <g id="patch_209">
    <path d="M 224.611024 307.584 
L 225.252634 307.584 
L 225.252634 268.593231 
L 224.611024 268.593231 
z
" clip-path="url(#pd77893d1b1)" style="fill: #1f77b4"/>
   </g>
   <g id="patch_210">
    <path d="M 255.889501 307.584 
L 256.53111 307.584 
L 256.53111 299.785846 
L 255.889501 299.785846 
z
" clip-path="url(#pd77893d1b1)" style="fill: #1f77b4"/>
   </g>
   <g id="patch_211">
    <path d="M 283.959928 307.584 
L 284.601538 307.584 
L 284.601538 303.684923 
L 283.959928 303.684923 
z
" clip-path="url(#pd77893d1b1)" style="fill: #1f77b4"/>
   </g>
   <g id="patch_212">
    <path d="M 248.671391 307.584 
L 249.313 307.584 
L 249.313 295.886769 
L 248.671391 295.886769 
z
" clip-path="url(#pd77893d1b1)" style="fill: #1f77b4"/>
   </g>
   <g id="patch_213">
    <path d="M 264.711635 307.584 
L 265.353245 307.584 
L 265.353245 295.886769 
L 264.711635 295.886769 
z
" clip-path="url(#pd77893d1b1)" style="fill: #1f77b4"/>
   </g>
   <g id="patch_214">
    <path d="M 252.681452 307.584 
L 253.323061 307.584 
L 253.323061 280.290462 
L 252.681452 280.290462 
z
" clip-path="url(#pd77893d1b1)" style="fill: #1f77b4"/>
   </g>
   <g id="patch_215">
    <path d="M 234.235171 307.584 
L 234.87678 307.584 
L 234.87678 280.290462 
L 234.235171 280.290462 
z
" clip-path="url(#pd77893d1b1)" style="fill: #1f77b4"/>
   </g>
   <g id="patch_216">
    <path d="M 239.047244 307.584 
L 239.688854 307.584 
L 239.688854 295.886769 
L 239.047244 295.886769 
z
" clip-path="url(#pd77893d1b1)" style="fill: #1f77b4"/>
   </g>
   <g id="patch_217">
    <path d="M 219.798951 307.584 
L 220.440561 307.584 
L 220.440561 272.492308 
L 219.798951 272.492308 
z
" clip-path="url(#pd77893d1b1)" style="fill: #1f77b4"/>
   </g>
   <g id="patch_218">
    <path d="M 259.899562 307.584 
L 260.541171 307.584 
L 260.541171 291.987692 
L 259.899562 291.987692 
z
" clip-path="url(#pd77893d1b1)" style="fill: #1f77b4"/>
   </g>
   <g id="patch_219">
    <path d="M 235.839195 307.584 
L 236.480805 307.584 
L 236.480805 284.189538 
L 235.839195 284.189538 
z
" clip-path="url(#pd77893d1b1)" style="fill: #1f77b4"/>
   </g>
   <g id="patch_220">
    <path d="M 243.057305 307.584 
L 243.698915 307.584 
L 243.698915 288.088615 
L 243.057305 288.088615 
z
" clip-path="url(#pd77893d1b1)" style="fill: #1f77b4"/>
   </g>
   <g id="patch_221">
    <path d="M 241.453281 307.584 
L 242.09489 307.584 
L 242.09489 299.785846 
L 241.453281 299.785846 
z
" clip-path="url(#pd77893d1b1)" style="fill: #1f77b4"/>
   </g>
   <g id="patch_222">
    <path d="M 262.305598 307.584 
L 262.947208 307.584 
L 262.947208 295.886769 
L 262.305598 295.886769 
z
" clip-path="url(#pd77893d1b1)" style="fill: #1f77b4"/>
   </g>
   <g id="patch_223">
    <path d="M 278.345843 307.584 
L 278.987452 307.584 
L 278.987452 303.684923 
L 278.345843 303.684923 
z
" clip-path="url(#pd77893d1b1)" style="fill: #1f77b4"/>
   </g>
   <g id="patch_224">
    <path d="M 247.067366 307.584 
L 247.708976 307.584 
L 247.708976 295.886769 
L 247.067366 295.886769 
z
" clip-path="url(#pd77893d1b1)" style="fill: #1f77b4"/>
   </g>
   <g id="patch_225">
    <path d="M 237.44322 307.584 
L 238.084829 307.584 
L 238.084829 291.987692 
L 237.44322 291.987692 
z
" clip-path="url(#pd77893d1b1)" style="fill: #1f77b4"/>
   </g>
   <g id="patch_226">
    <path d="M 251.077427 307.584 
L 251.719037 307.584 
L 251.719037 295.886769 
L 251.077427 295.886769 
z
" clip-path="url(#pd77893d1b1)" style="fill: #1f77b4"/>
   </g>
   <g id="patch_227">
    <path d="M 299.19816 307.584 
L 299.83977 307.584 
L 299.83977 299.785846 
L 299.19816 299.785846 
z
" clip-path="url(#pd77893d1b1)" style="fill: #1f77b4"/>
   </g>
   <g id="patch_228">
    <path d="M 280.751879 307.584 
L 281.393489 307.584 
L 281.393489 295.886769 
L 280.751879 295.886769 
z
" clip-path="url(#pd77893d1b1)" style="fill: #1f77b4"/>
   </g>
   <g id="patch_229">
    <path d="M 272.731757 307.584 
L 273.373367 307.584 
L 273.373367 299.785846 
L 272.731757 299.785846 
z
" clip-path="url(#pd77893d1b1)" style="fill: #1f77b4"/>
   </g>
   <g id="patch_230">
    <path d="M 263.909623 307.584 
L 264.551232 307.584 
L 264.551232 299.785846 
L 263.909623 299.785846 
z
" clip-path="url(#pd77893d1b1)" style="fill: #1f77b4"/>
   </g>
   <g id="patch_231">
    <path d="M 225.413036 307.584 
L 226.054646 307.584 
L 226.054646 295.886769 
L 225.413036 295.886769 
z
" clip-path="url(#pd77893d1b1)" style="fill: #1f77b4"/>
   </g>
   <g id="patch_232">
    <path d="M 285.563953 307.584 
L 286.205562 307.584 
L 286.205562 295.886769 
L 285.563953 295.886769 
z
" clip-path="url(#pd77893d1b1)" style="fill: #1f77b4"/>
   </g>
   <g id="patch_233">
    <path d="M 249.473403 307.584 
L 250.115013 307.584 
L 250.115013 299.785846 
L 249.473403 299.785846 
z
" clip-path="url(#pd77893d1b1)" style="fill: #1f77b4"/>
   </g>
   <g id="patch_234">
    <path d="M 246.265354 307.584 
L 246.906964 307.584 
L 246.906964 288.088615 
L 246.265354 288.088615 
z
" clip-path="url(#pd77893d1b1)" style="fill: #1f77b4"/>
   </g>
   <g id="patch_235">
    <path d="M 273.533769 307.584 
L 274.175379 307.584 
L 274.175379 299.785846 
L 273.533769 299.785846 
z
" clip-path="url(#pd77893d1b1)" style="fill: #1f77b4"/>
   </g>
   <g id="patch_236">
    <path d="M 291.178038 307.584 
L 291.819648 307.584 
L 291.819648 299.785846 
L 291.178038 299.785846 
z
" clip-path="url(#pd77893d1b1)" style="fill: #1f77b4"/>
   </g>
   <g id="patch_237">
    <path d="M 279.949867 307.584 
L 280.591477 307.584 
L 280.591477 295.886769 
L 279.949867 295.886769 
z
" clip-path="url(#pd77893d1b1)" style="fill: #1f77b4"/>
   </g>
   <g id="patch_238">
    <path d="M 270.32572 307.584 
L 270.96733 307.584 
L 270.96733 295.886769 
L 270.32572 295.886769 
z
" clip-path="url(#pd77893d1b1)" style="fill: #1f77b4"/>
   </g>
   <g id="patch_239">
    <path d="M 256.691513 307.584 
L 257.333123 307.584 
L 257.333123 291.987692 
L 256.691513 291.987692 
z
" clip-path="url(#pd77893d1b1)" style="fill: #1f77b4"/>
   </g>
   <g id="patch_240">
    <path d="M 238.245232 307.584 
L 238.886842 307.584 
L 238.886842 288.088615 
L 238.245232 288.088615 
z
" clip-path="url(#pd77893d1b1)" style="fill: #1f77b4"/>
   </g>
   <g id="patch_241">
    <path d="M 306.41627 307.584 
L 307.05788 307.584 
L 307.05788 299.785846 
L 306.41627 299.785846 
z
" clip-path="url(#pd77893d1b1)" style="fill: #1f77b4"/>
   </g>
   <g id="patch_242">
    <path d="M 255.087488 307.584 
L 255.729098 307.584 
L 255.729098 295.886769 
L 255.087488 295.886769 
z
" clip-path="url(#pd77893d1b1)" style="fill: #1f77b4"/>
   </g>
   <g id="patch_243">
    <path d="M 328.0706 307.584 
L 328.71221 307.584 
L 328.71221 303.684923 
L 328.0706 303.684923 
z
" clip-path="url(#pd77893d1b1)" style="fill: #1f77b4"/>
   </g>
   <g id="patch_244">
    <path d="M 235.037183 307.584 
L 235.678793 307.584 
L 235.678793 280.290462 
L 235.037183 280.290462 
z
" clip-path="url(#pd77893d1b1)" style="fill: #1f77b4"/>
   </g>
   <g id="patch_245">
    <path d="M 254.285476 307.584 
L 254.927086 307.584 
L 254.927086 291.987692 
L 254.285476 291.987692 
z
" clip-path="url(#pd77893d1b1)" style="fill: #1f77b4"/>
   </g>
   <g id="patch_246">
    <path d="M 243.859317 307.584 
L 244.500927 307.584 
L 244.500927 299.785846 
L 243.859317 299.785846 
z
" clip-path="url(#pd77893d1b1)" style="fill: #1f77b4"/>
   </g>
   <g id="patch_247">
    <path d="M 271.929745 307.584 
L 272.571355 307.584 
L 272.571355 303.684923 
L 271.929745 303.684923 
z
" clip-path="url(#pd77893d1b1)" style="fill: #1f77b4"/>
   </g>
   <g id="patch_248">
    <path d="M 265.513647 307.584 
L 266.155257 307.584 
L 266.155257 303.684923 
L 265.513647 303.684923 
z
" clip-path="url(#pd77893d1b1)" style="fill: #1f77b4"/>
   </g>
   <g id="patch_249">
    <path d="M 297.594136 307.584 
L 298.235746 307.584 
L 298.235746 303.684923 
L 297.594136 303.684923 
z
" clip-path="url(#pd77893d1b1)" style="fill: #1f77b4"/>
   </g>
   <g id="patch_250">
    <path d="M 291.98005 307.584 
L 292.62166 307.584 
L 292.62166 299.785846 
L 291.98005 299.785846 
z
" clip-path="url(#pd77893d1b1)" style="fill: #1f77b4"/>
   </g>
   <g id="patch_251">
    <path d="M 276.741818 307.584 
L 277.383428 307.584 
L 277.383428 299.785846 
L 276.741818 299.785846 
z
" clip-path="url(#pd77893d1b1)" style="fill: #1f77b4"/>
   </g>
   <g id="patch_252">
    <path d="M 356.141028 307.584 
L 356.782637 307.584 
L 356.782637 303.684923 
L 356.141028 303.684923 
z
" clip-path="url(#pd77893d1b1)" style="fill: #1f77b4"/>
   </g>
   <g id="patch_253">
    <path d="M 257.493525 307.584 
L 258.135135 307.584 
L 258.135135 295.886769 
L 257.493525 295.886769 
z
" clip-path="url(#pd77893d1b1)" style="fill: #1f77b4"/>
   </g>
   <g id="patch_254">
    <path d="M 261.503586 307.584 
L 262.145196 307.584 
L 262.145196 303.684923 
L 261.503586 303.684923 
z
" clip-path="url(#pd77893d1b1)" style="fill: #1f77b4"/>
   </g>
   <g id="patch_255">
    <path d="M 259.097549 307.584 
L 259.739159 307.584 
L 259.739159 299.785846 
L 259.097549 299.785846 
z
" clip-path="url(#pd77893d1b1)" style="fill: #1f77b4"/>
   </g>
   <g id="patch_256">
    <path d="M 304.010234 307.584 
L 304.651843 307.584 
L 304.651843 303.684923 
L 304.010234 303.684923 
z
" clip-path="url(#pd77893d1b1)" style="fill: #1f77b4"/>
   </g>
   <g id="patch_257">
    <path d="M 317.644441 307.584 
L 318.286051 307.584 
L 318.286051 303.684923 
L 317.644441 303.684923 
z
" clip-path="url(#pd77893d1b1)" style="fill: #1f77b4"/>
   </g>
   <g id="patch_258">
    <path d="M 267.919684 307.584 
L 268.561294 307.584 
L 268.561294 299.785846 
L 267.919684 299.785846 
z
" clip-path="url(#pd77893d1b1)" style="fill: #1f77b4"/>
   </g>
   <g id="patch_259">
    <path d="M 232.631146 307.584 
L 233.272756 307.584 
L 233.272756 299.785846 
L 232.631146 299.785846 
z
" clip-path="url(#pd77893d1b1)" style="fill: #1f77b4"/>
   </g>
   <g id="patch_260">
    <path d="M 277.54383 307.584 
L 278.18544 307.584 
L 278.18544 303.684923 
L 277.54383 303.684923 
z
" clip-path="url(#pd77893d1b1)" style="fill: #1f77b4"/>
   </g>
   <g id="patch_261">
    <path d="M 244.66133 307.584 
L 245.302939 307.584 
L 245.302939 303.684923 
L 244.66133 303.684923 
z
" clip-path="url(#pd77893d1b1)" style="fill: #1f77b4"/>
   </g>
   <g id="patch_262">
    <path d="M 279.147855 307.584 
L 279.789465 307.584 
L 279.789465 299.785846 
L 279.147855 299.785846 
z
" clip-path="url(#pd77893d1b1)" style="fill: #1f77b4"/>
   </g>
   <g id="patch_263">
    <path d="M 283.157916 307.584 
L 283.799526 307.584 
L 283.799526 303.684923 
L 283.157916 303.684923 
z
" clip-path="url(#pd77893d1b1)" style="fill: #1f77b4"/>
   </g>
   <g id="patch_264">
    <path d="M 275.939806 307.584 
L 276.581416 307.584 
L 276.581416 303.684923 
L 275.939806 303.684923 
z
" clip-path="url(#pd77893d1b1)" style="fill: #1f77b4"/>
   </g>
   <g id="patch_265">
    <path d="M 263.10761 307.584 
L 263.74922 307.584 
L 263.74922 299.785846 
L 263.10761 299.785846 
z
" clip-path="url(#pd77893d1b1)" style="fill: #1f77b4"/>
   </g>
   <g id="patch_266">
    <path d="M 260.701574 307.584 
L 261.343184 307.584 
L 261.343184 303.684923 
L 260.701574 303.684923 
z
" clip-path="url(#pd77893d1b1)" style="fill: #1f77b4"/>
   </g>
   <g id="patch_267">
    <path d="M 267.117672 307.584 
L 267.759281 307.584 
L 267.759281 299.785846 
L 267.117672 299.785846 
z
" clip-path="url(#pd77893d1b1)" style="fill: #1f77b4"/>
   </g>
   <g id="patch_268">
    <path d="M 295.990111 307.584 
L 296.631721 307.584 
L 296.631721 299.785846 
L 295.990111 299.785846 
z
" clip-path="url(#pd77893d1b1)" style="fill: #1f77b4"/>
   </g>
   <g id="patch_269">
    <path d="M 397.845663 307.584 
L 398.487273 307.584 
L 398.487273 303.684923 
L 397.845663 303.684923 
z
" clip-path="url(#pd77893d1b1)" style="fill: #1f77b4"/>
   </g>
   <g id="patch_270">
    <path d="M 288.772001 307.584 
L 289.413611 307.584 
L 289.413611 303.684923 
L 288.772001 303.684923 
z
" clip-path="url(#pd77893d1b1)" style="fill: #1f77b4"/>
   </g>
   <g id="patch_271">
    <path d="M 281.553891 307.584 
L 282.195501 307.584 
L 282.195501 303.684923 
L 281.553891 303.684923 
z
" clip-path="url(#pd77893d1b1)" style="fill: #1f77b4"/>
   </g>
   <g id="patch_272">
    <path d="M 323.258527 307.584 
L 323.900137 307.584 
L 323.900137 303.684923 
L 323.258527 303.684923 
z
" clip-path="url(#pd77893d1b1)" style="fill: #1f77b4"/>
   </g>
   <g id="patch_273">
    <path d="M 269.523708 307.584 
L 270.165318 307.584 
L 270.165318 303.684923 
L 269.523708 303.684923 
z
" clip-path="url(#pd77893d1b1)" style="fill: #1f77b4"/>
   </g>
   <g id="patch_274">
    <path d="M 335.28871 307.584 
L 335.93032 307.584 
L 335.93032 303.684923 
L 335.28871 303.684923 
z
" clip-path="url(#pd77893d1b1)" style="fill: #1f77b4"/>
   </g>
   <g id="matplotlib.axis_1">
    <g id="xtick_1">
     <g id="line2d_1">
      <defs>
       <path id="mde004e14b9" d="M 0 0 
L 0 3.5 
" style="stroke: #000000; stroke-width: 0.8"/>
      </defs>
      <g>
       <use xlink:href="#mde004e14b9" x="74.153532" y="307.584" style="stroke: #000000; stroke-width: 0.8"/>
      </g>
     </g>
     <g id="text_1">
      <!-- 0 -->
      <g transform="translate(70.972282 322.182437) scale(0.1 -0.1)">
       <defs>
        <path id="DejaVuSans-30" d="M 2034 4250 
Q 1547 4250 1301 3770 
Q 1056 3291 1056 2328 
Q 1056 1369 1301 889 
Q 1547 409 2034 409 
Q 2525 409 2770 889 
Q 3016 1369 3016 2328 
Q 3016 3291 2770 3770 
Q 2525 4250 2034 4250 
z
M 2034 4750 
Q 2819 4750 3233 4129 
Q 3647 3509 3647 2328 
Q 3647 1150 3233 529 
Q 2819 -91 2034 -91 
Q 1250 -91 836 529 
Q 422 1150 422 2328 
Q 422 3509 836 4129 
Q 1250 4750 2034 4750 
z
" transform="scale(0.015625)"/>
       </defs>
       <use xlink:href="#DejaVuSans-30"/>
      </g>
     </g>
    </g>
    <g id="xtick_2">
     <g id="line2d_2">
      <g>
       <use xlink:href="#mde004e14b9" x="114.254143" y="307.584" style="stroke: #000000; stroke-width: 0.8"/>
      </g>
     </g>
     <g id="text_2">
      <!-- 50 -->
      <g transform="translate(107.891643 322.182437) scale(0.1 -0.1)">
       <defs>
        <path id="DejaVuSans-35" d="M 691 4666 
L 3169 4666 
L 3169 4134 
L 1269 4134 
L 1269 2991 
Q 1406 3038 1543 3061 
Q 1681 3084 1819 3084 
Q 2600 3084 3056 2656 
Q 3513 2228 3513 1497 
Q 3513 744 3044 326 
Q 2575 -91 1722 -91 
Q 1428 -91 1123 -41 
Q 819 9 494 109 
L 494 744 
Q 775 591 1075 516 
Q 1375 441 1709 441 
Q 2250 441 2565 725 
Q 2881 1009 2881 1497 
Q 2881 1984 2565 2268 
Q 2250 2553 1709 2553 
Q 1456 2553 1204 2497 
Q 953 2441 691 2322 
L 691 4666 
z
" transform="scale(0.015625)"/>
       </defs>
       <use xlink:href="#DejaVuSans-35"/>
       <use xlink:href="#DejaVuSans-30" x="63.623047"/>
      </g>
     </g>
    </g>
    <g id="xtick_3">
     <g id="line2d_3">
      <g>
       <use xlink:href="#mde004e14b9" x="154.354754" y="307.584" style="stroke: #000000; stroke-width: 0.8"/>
      </g>
     </g>
     <g id="text_3">
      <!-- 100 -->
      <g transform="translate(144.811004 322.182437) scale(0.1 -0.1)">
       <defs>
        <path id="DejaVuSans-31" d="M 794 531 
L 1825 531 
L 1825 4091 
L 703 3866 
L 703 4441 
L 1819 4666 
L 2450 4666 
L 2450 531 
L 3481 531 
L 3481 0 
L 794 0 
L 794 531 
z
" transform="scale(0.015625)"/>
       </defs>
       <use xlink:href="#DejaVuSans-31"/>
       <use xlink:href="#DejaVuSans-30" x="63.623047"/>
       <use xlink:href="#DejaVuSans-30" x="127.246094"/>
      </g>
     </g>
    </g>
    <g id="xtick_4">
     <g id="line2d_4">
      <g>
       <use xlink:href="#mde004e14b9" x="194.455365" y="307.584" style="stroke: #000000; stroke-width: 0.8"/>
      </g>
     </g>
     <g id="text_4">
      <!-- 150 -->
      <g transform="translate(184.911615 322.182437) scale(0.1 -0.1)">
       <use xlink:href="#DejaVuSans-31"/>
       <use xlink:href="#DejaVuSans-35" x="63.623047"/>
       <use xlink:href="#DejaVuSans-30" x="127.246094"/>
      </g>
     </g>
    </g>
    <g id="xtick_5">
     <g id="line2d_5">
      <g>
       <use xlink:href="#mde004e14b9" x="234.555976" y="307.584" style="stroke: #000000; stroke-width: 0.8"/>
      </g>
     </g>
     <g id="text_5">
      <!-- 200 -->
      <g transform="translate(225.012226 322.182437) scale(0.1 -0.1)">
       <defs>
        <path id="DejaVuSans-32" d="M 1228 531 
L 3431 531 
L 3431 0 
L 469 0 
L 469 531 
Q 828 903 1448 1529 
Q 2069 2156 2228 2338 
Q 2531 2678 2651 2914 
Q 2772 3150 2772 3378 
Q 2772 3750 2511 3984 
Q 2250 4219 1831 4219 
Q 1534 4219 1204 4116 
Q 875 4013 500 3803 
L 500 4441 
Q 881 4594 1212 4672 
Q 1544 4750 1819 4750 
Q 2544 4750 2975 4387 
Q 3406 4025 3406 3419 
Q 3406 3131 3298 2873 
Q 3191 2616 2906 2266 
Q 2828 2175 2409 1742 
Q 1991 1309 1228 531 
z
" transform="scale(0.015625)"/>
       </defs>
       <use xlink:href="#DejaVuSans-32"/>
       <use xlink:href="#DejaVuSans-30" x="63.623047"/>
       <use xlink:href="#DejaVuSans-30" x="127.246094"/>
      </g>
     </g>
    </g>
    <g id="xtick_6">
     <g id="line2d_6">
      <g>
       <use xlink:href="#mde004e14b9" x="274.656586" y="307.584" style="stroke: #000000; stroke-width: 0.8"/>
      </g>
     </g>
     <g id="text_6">
      <!-- 250 -->
      <g transform="translate(265.112836 322.182437) scale(0.1 -0.1)">
       <use xlink:href="#DejaVuSans-32"/>
       <use xlink:href="#DejaVuSans-35" x="63.623047"/>
       <use xlink:href="#DejaVuSans-30" x="127.246094"/>
      </g>
     </g>
    </g>
    <g id="xtick_7">
     <g id="line2d_7">
      <g>
       <use xlink:href="#mde004e14b9" x="314.757197" y="307.584" style="stroke: #000000; stroke-width: 0.8"/>
      </g>
     </g>
     <g id="text_7">
      <!-- 300 -->
      <g transform="translate(305.213447 322.182437) scale(0.1 -0.1)">
       <defs>
        <path id="DejaVuSans-33" d="M 2597 2516 
Q 3050 2419 3304 2112 
Q 3559 1806 3559 1356 
Q 3559 666 3084 287 
Q 2609 -91 1734 -91 
Q 1441 -91 1130 -33 
Q 819 25 488 141 
L 488 750 
Q 750 597 1062 519 
Q 1375 441 1716 441 
Q 2309 441 2620 675 
Q 2931 909 2931 1356 
Q 2931 1769 2642 2001 
Q 2353 2234 1838 2234 
L 1294 2234 
L 1294 2753 
L 1863 2753 
Q 2328 2753 2575 2939 
Q 2822 3125 2822 3475 
Q 2822 3834 2567 4026 
Q 2313 4219 1838 4219 
Q 1578 4219 1281 4162 
Q 984 4106 628 3988 
L 628 4550 
Q 988 4650 1302 4700 
Q 1616 4750 1894 4750 
Q 2613 4750 3031 4423 
Q 3450 4097 3450 3541 
Q 3450 3153 3228 2886 
Q 3006 2619 2597 2516 
z
" transform="scale(0.015625)"/>
       </defs>
       <use xlink:href="#DejaVuSans-33"/>
       <use xlink:href="#DejaVuSans-30" x="63.623047"/>
       <use xlink:href="#DejaVuSans-30" x="127.246094"/>
      </g>
     </g>
    </g>
    <g id="xtick_8">
     <g id="line2d_8">
      <g>
       <use xlink:href="#mde004e14b9" x="354.857808" y="307.584" style="stroke: #000000; stroke-width: 0.8"/>
      </g>
     </g>
     <g id="text_8">
      <!-- 350 -->
      <g transform="translate(345.314058 322.182437) scale(0.1 -0.1)">
       <use xlink:href="#DejaVuSans-33"/>
       <use xlink:href="#DejaVuSans-35" x="63.623047"/>
       <use xlink:href="#DejaVuSans-30" x="127.246094"/>
      </g>
     </g>
    </g>
    <g id="xtick_9">
     <g id="line2d_9">
      <g>
       <use xlink:href="#mde004e14b9" x="394.958419" y="307.584" style="stroke: #000000; stroke-width: 0.8"/>
      </g>
     </g>
     <g id="text_9">
      <!-- 400 -->
      <g transform="translate(385.414669 322.182437) scale(0.1 -0.1)">
       <defs>
        <path id="DejaVuSans-34" d="M 2419 4116 
L 825 1625 
L 2419 1625 
L 2419 4116 
z
M 2253 4666 
L 3047 4666 
L 3047 1625 
L 3713 1625 
L 3713 1100 
L 3047 1100 
L 3047 0 
L 2419 0 
L 2419 1100 
L 313 1100 
L 313 1709 
L 2253 4666 
z
" transform="scale(0.015625)"/>
       </defs>
       <use xlink:href="#DejaVuSans-34"/>
       <use xlink:href="#DejaVuSans-30" x="63.623047"/>
       <use xlink:href="#DejaVuSans-30" x="127.246094"/>
      </g>
     </g>
    </g>
    <g id="text_10">
     <!-- Number of Elements -->
     <g transform="translate(184.770938 335.860562) scale(0.1 -0.1)">
      <defs>
       <path id="DejaVuSans-4e" d="M 628 4666 
L 1478 4666 
L 3547 763 
L 3547 4666 
L 4159 4666 
L 4159 0 
L 3309 0 
L 1241 3903 
L 1241 0 
L 628 0 
L 628 4666 
z
" transform="scale(0.015625)"/>
       <path id="DejaVuSans-75" d="M 544 1381 
L 544 3500 
L 1119 3500 
L 1119 1403 
Q 1119 906 1312 657 
Q 1506 409 1894 409 
Q 2359 409 2629 706 
Q 2900 1003 2900 1516 
L 2900 3500 
L 3475 3500 
L 3475 0 
L 2900 0 
L 2900 538 
Q 2691 219 2414 64 
Q 2138 -91 1772 -91 
Q 1169 -91 856 284 
Q 544 659 544 1381 
z
M 1991 3584 
L 1991 3584 
z
" transform="scale(0.015625)"/>
       <path id="DejaVuSans-6d" d="M 3328 2828 
Q 3544 3216 3844 3400 
Q 4144 3584 4550 3584 
Q 5097 3584 5394 3201 
Q 5691 2819 5691 2113 
L 5691 0 
L 5113 0 
L 5113 2094 
Q 5113 2597 4934 2840 
Q 4756 3084 4391 3084 
Q 3944 3084 3684 2787 
Q 3425 2491 3425 1978 
L 3425 0 
L 2847 0 
L 2847 2094 
Q 2847 2600 2669 2842 
Q 2491 3084 2119 3084 
Q 1678 3084 1418 2786 
Q 1159 2488 1159 1978 
L 1159 0 
L 581 0 
L 581 3500 
L 1159 3500 
L 1159 2956 
Q 1356 3278 1631 3431 
Q 1906 3584 2284 3584 
Q 2666 3584 2933 3390 
Q 3200 3197 3328 2828 
z
" transform="scale(0.015625)"/>
       <path id="DejaVuSans-62" d="M 3116 1747 
Q 3116 2381 2855 2742 
Q 2594 3103 2138 3103 
Q 1681 3103 1420 2742 
Q 1159 2381 1159 1747 
Q 1159 1113 1420 752 
Q 1681 391 2138 391 
Q 2594 391 2855 752 
Q 3116 1113 3116 1747 
z
M 1159 2969 
Q 1341 3281 1617 3432 
Q 1894 3584 2278 3584 
Q 2916 3584 3314 3078 
Q 3713 2572 3713 1747 
Q 3713 922 3314 415 
Q 2916 -91 2278 -91 
Q 1894 -91 1617 61 
Q 1341 213 1159 525 
L 1159 0 
L 581 0 
L 581 4863 
L 1159 4863 
L 1159 2969 
z
" transform="scale(0.015625)"/>
       <path id="DejaVuSans-65" d="M 3597 1894 
L 3597 1613 
L 953 1613 
Q 991 1019 1311 708 
Q 1631 397 2203 397 
Q 2534 397 2845 478 
Q 3156 559 3463 722 
L 3463 178 
Q 3153 47 2828 -22 
Q 2503 -91 2169 -91 
Q 1331 -91 842 396 
Q 353 884 353 1716 
Q 353 2575 817 3079 
Q 1281 3584 2069 3584 
Q 2775 3584 3186 3129 
Q 3597 2675 3597 1894 
z
M 3022 2063 
Q 3016 2534 2758 2815 
Q 2500 3097 2075 3097 
Q 1594 3097 1305 2825 
Q 1016 2553 972 2059 
L 3022 2063 
z
" transform="scale(0.015625)"/>
       <path id="DejaVuSans-72" d="M 2631 2963 
Q 2534 3019 2420 3045 
Q 2306 3072 2169 3072 
Q 1681 3072 1420 2755 
Q 1159 2438 1159 1844 
L 1159 0 
L 581 0 
L 581 3500 
L 1159 3500 
L 1159 2956 
Q 1341 3275 1631 3429 
Q 1922 3584 2338 3584 
Q 2397 3584 2469 3576 
Q 2541 3569 2628 3553 
L 2631 2963 
z
" transform="scale(0.015625)"/>
       <path id="DejaVuSans-20" transform="scale(0.015625)"/>
       <path id="DejaVuSans-6f" d="M 1959 3097 
Q 1497 3097 1228 2736 
Q 959 2375 959 1747 
Q 959 1119 1226 758 
Q 1494 397 1959 397 
Q 2419 397 2687 759 
Q 2956 1122 2956 1747 
Q 2956 2369 2687 2733 
Q 2419 3097 1959 3097 
z
M 1959 3584 
Q 2709 3584 3137 3096 
Q 3566 2609 3566 1747 
Q 3566 888 3137 398 
Q 2709 -91 1959 -91 
Q 1206 -91 779 398 
Q 353 888 353 1747 
Q 353 2609 779 3096 
Q 1206 3584 1959 3584 
z
" transform="scale(0.015625)"/>
       <path id="DejaVuSans-66" d="M 2375 4863 
L 2375 4384 
L 1825 4384 
Q 1516 4384 1395 4259 
Q 1275 4134 1275 3809 
L 1275 3500 
L 2222 3500 
L 2222 3053 
L 1275 3053 
L 1275 0 
L 697 0 
L 697 3053 
L 147 3053 
L 147 3500 
L 697 3500 
L 697 3744 
Q 697 4328 969 4595 
Q 1241 4863 1831 4863 
L 2375 4863 
z
" transform="scale(0.015625)"/>
       <path id="DejaVuSans-45" d="M 628 4666 
L 3578 4666 
L 3578 4134 
L 1259 4134 
L 1259 2753 
L 3481 2753 
L 3481 2222 
L 1259 2222 
L 1259 531 
L 3634 531 
L 3634 0 
L 628 0 
L 628 4666 
z
" transform="scale(0.015625)"/>
       <path id="DejaVuSans-6c" d="M 603 4863 
L 1178 4863 
L 1178 0 
L 603 0 
L 603 4863 
z
" transform="scale(0.015625)"/>
       <path id="DejaVuSans-6e" d="M 3513 2113 
L 3513 0 
L 2938 0 
L 2938 2094 
Q 2938 2591 2744 2837 
Q 2550 3084 2163 3084 
Q 1697 3084 1428 2787 
Q 1159 2491 1159 1978 
L 1159 0 
L 581 0 
L 581 3500 
L 1159 3500 
L 1159 2956 
Q 1366 3272 1645 3428 
Q 1925 3584 2291 3584 
Q 2894 3584 3203 3211 
Q 3513 2838 3513 2113 
z
" transform="scale(0.015625)"/>
       <path id="DejaVuSans-74" d="M 1172 4494 
L 1172 3500 
L 2356 3500 
L 2356 3053 
L 1172 3053 
L 1172 1153 
Q 1172 725 1289 603 
Q 1406 481 1766 481 
L 2356 481 
L 2356 0 
L 1766 0 
Q 1100 0 847 248 
Q 594 497 594 1153 
L 594 3053 
L 172 3053 
L 172 3500 
L 594 3500 
L 594 4494 
L 1172 4494 
z
" transform="scale(0.015625)"/>
       <path id="DejaVuSans-73" d="M 2834 3397 
L 2834 2853 
Q 2591 2978 2328 3040 
Q 2066 3103 1784 3103 
Q 1356 3103 1142 2972 
Q 928 2841 928 2578 
Q 928 2378 1081 2264 
Q 1234 2150 1697 2047 
L 1894 2003 
Q 2506 1872 2764 1633 
Q 3022 1394 3022 966 
Q 3022 478 2636 193 
Q 2250 -91 1575 -91 
Q 1294 -91 989 -36 
Q 684 19 347 128 
L 347 722 
Q 666 556 975 473 
Q 1284 391 1588 391 
Q 1994 391 2212 530 
Q 2431 669 2431 922 
Q 2431 1156 2273 1281 
Q 2116 1406 1581 1522 
L 1381 1569 
Q 847 1681 609 1914 
Q 372 2147 372 2553 
Q 372 3047 722 3315 
Q 1072 3584 1716 3584 
Q 2034 3584 2315 3537 
Q 2597 3491 2834 3397 
z
" transform="scale(0.015625)"/>
      </defs>
      <use xlink:href="#DejaVuSans-4e"/>
      <use xlink:href="#DejaVuSans-75" x="74.804688"/>
      <use xlink:href="#DejaVuSans-6d" x="138.183594"/>
      <use xlink:href="#DejaVuSans-62" x="235.595703"/>
      <use xlink:href="#DejaVuSans-65" x="299.072266"/>
      <use xlink:href="#DejaVuSans-72" x="360.595703"/>
      <use xlink:href="#DejaVuSans-20" x="401.708984"/>
      <use xlink:href="#DejaVuSans-6f" x="433.496094"/>
      <use xlink:href="#DejaVuSans-66" x="494.677734"/>
      <use xlink:href="#DejaVuSans-20" x="529.882812"/>
      <use xlink:href="#DejaVuSans-45" x="561.669922"/>
      <use xlink:href="#DejaVuSans-6c" x="624.853516"/>
      <use xlink:href="#DejaVuSans-65" x="652.636719"/>
      <use xlink:href="#DejaVuSans-6d" x="714.160156"/>
      <use xlink:href="#DejaVuSans-65" x="811.572266"/>
      <use xlink:href="#DejaVuSans-6e" x="873.095703"/>
      <use xlink:href="#DejaVuSans-74" x="936.474609"/>
      <use xlink:href="#DejaVuSans-73" x="975.683594"/>
     </g>
    </g>
   </g>
   <g id="matplotlib.axis_2">
    <g id="ytick_1">
     <g id="line2d_10">
      <defs>
       <path id="m4db74a227d" d="M 0 0 
L -3.5 0 
" style="stroke: #000000; stroke-width: 0.8"/>
      </defs>
      <g>
       <use xlink:href="#m4db74a227d" x="57.6" y="307.584" style="stroke: #000000; stroke-width: 0.8"/>
      </g>
     </g>
     <g id="text_11">
      <!-- 0 -->
      <g transform="translate(44.2375 311.383219) scale(0.1 -0.1)">
       <use xlink:href="#DejaVuSans-30"/>
      </g>
     </g>
    </g>
    <g id="ytick_2">
     <g id="line2d_11">
      <g>
       <use xlink:href="#m4db74a227d" x="57.6" y="268.593231" style="stroke: #000000; stroke-width: 0.8"/>
      </g>
     </g>
     <g id="text_12">
      <!-- 10 -->
      <g transform="translate(37.875 272.39245) scale(0.1 -0.1)">
       <use xlink:href="#DejaVuSans-31"/>
       <use xlink:href="#DejaVuSans-30" x="63.623047"/>
      </g>
     </g>
    </g>
    <g id="ytick_3">
     <g id="line2d_12">
      <g>
       <use xlink:href="#m4db74a227d" x="57.6" y="229.602462" style="stroke: #000000; stroke-width: 0.8"/>
      </g>
     </g>
     <g id="text_13">
      <!-- 20 -->
      <g transform="translate(37.875 233.40168) scale(0.1 -0.1)">
       <use xlink:href="#DejaVuSans-32"/>
       <use xlink:href="#DejaVuSans-30" x="63.623047"/>
      </g>
     </g>
    </g>
    <g id="ytick_4">
     <g id="line2d_13">
      <g>
       <use xlink:href="#m4db74a227d" x="57.6" y="190.611692" style="stroke: #000000; stroke-width: 0.8"/>
      </g>
     </g>
     <g id="text_14">
      <!-- 30 -->
      <g transform="translate(37.875 194.410911) scale(0.1 -0.1)">
       <use xlink:href="#DejaVuSans-33"/>
       <use xlink:href="#DejaVuSans-30" x="63.623047"/>
      </g>
     </g>
    </g>
    <g id="ytick_5">
     <g id="line2d_14">
      <g>
       <use xlink:href="#m4db74a227d" x="57.6" y="151.620923" style="stroke: #000000; stroke-width: 0.8"/>
      </g>
     </g>
     <g id="text_15">
      <!-- 40 -->
      <g transform="translate(37.875 155.420142) scale(0.1 -0.1)">
       <use xlink:href="#DejaVuSans-34"/>
       <use xlink:href="#DejaVuSans-30" x="63.623047"/>
      </g>
     </g>
    </g>
    <g id="ytick_6">
     <g id="line2d_15">
      <g>
       <use xlink:href="#m4db74a227d" x="57.6" y="112.630154" style="stroke: #000000; stroke-width: 0.8"/>
      </g>
     </g>
     <g id="text_16">
      <!-- 50 -->
      <g transform="translate(37.875 116.429373) scale(0.1 -0.1)">
       <use xlink:href="#DejaVuSans-35"/>
       <use xlink:href="#DejaVuSans-30" x="63.623047"/>
      </g>
     </g>
    </g>
    <g id="ytick_7">
     <g id="line2d_16">
      <g>
       <use xlink:href="#m4db74a227d" x="57.6" y="73.639385" style="stroke: #000000; stroke-width: 0.8"/>
      </g>
     </g>
     <g id="text_17">
      <!-- 60 -->
      <g transform="translate(37.875 77.438603) scale(0.1 -0.1)">
       <defs>
        <path id="DejaVuSans-36" d="M 2113 2584 
Q 1688 2584 1439 2293 
Q 1191 2003 1191 1497 
Q 1191 994 1439 701 
Q 1688 409 2113 409 
Q 2538 409 2786 701 
Q 3034 994 3034 1497 
Q 3034 2003 2786 2293 
Q 2538 2584 2113 2584 
z
M 3366 4563 
L 3366 3988 
Q 3128 4100 2886 4159 
Q 2644 4219 2406 4219 
Q 1781 4219 1451 3797 
Q 1122 3375 1075 2522 
Q 1259 2794 1537 2939 
Q 1816 3084 2150 3084 
Q 2853 3084 3261 2657 
Q 3669 2231 3669 1497 
Q 3669 778 3244 343 
Q 2819 -91 2113 -91 
Q 1303 -91 875 529 
Q 447 1150 447 2328 
Q 447 3434 972 4092 
Q 1497 4750 2381 4750 
Q 2619 4750 2861 4703 
Q 3103 4656 3366 4563 
z
" transform="scale(0.015625)"/>
       </defs>
       <use xlink:href="#DejaVuSans-36"/>
       <use xlink:href="#DejaVuSans-30" x="63.623047"/>
      </g>
     </g>
    </g>
    <g id="text_18">
     <!-- Depth of Element -->
     <g transform="translate(31.795312 218.456125) rotate(-90) scale(0.1 -0.1)">
      <defs>
       <path id="DejaVuSans-44" d="M 1259 4147 
L 1259 519 
L 2022 519 
Q 2988 519 3436 956 
Q 3884 1394 3884 2338 
Q 3884 3275 3436 3711 
Q 2988 4147 2022 4147 
L 1259 4147 
z
M 628 4666 
L 1925 4666 
Q 3281 4666 3915 4102 
Q 4550 3538 4550 2338 
Q 4550 1131 3912 565 
Q 3275 0 1925 0 
L 628 0 
L 628 4666 
z
" transform="scale(0.015625)"/>
       <path id="DejaVuSans-70" d="M 1159 525 
L 1159 -1331 
L 581 -1331 
L 581 3500 
L 1159 3500 
L 1159 2969 
Q 1341 3281 1617 3432 
Q 1894 3584 2278 3584 
Q 2916 3584 3314 3078 
Q 3713 2572 3713 1747 
Q 3713 922 3314 415 
Q 2916 -91 2278 -91 
Q 1894 -91 1617 61 
Q 1341 213 1159 525 
z
M 3116 1747 
Q 3116 2381 2855 2742 
Q 2594 3103 2138 3103 
Q 1681 3103 1420 2742 
Q 1159 2381 1159 1747 
Q 1159 1113 1420 752 
Q 1681 391 2138 391 
Q 2594 391 2855 752 
Q 3116 1113 3116 1747 
z
" transform="scale(0.015625)"/>
       <path id="DejaVuSans-68" d="M 3513 2113 
L 3513 0 
L 2938 0 
L 2938 2094 
Q 2938 2591 2744 2837 
Q 2550 3084 2163 3084 
Q 1697 3084 1428 2787 
Q 1159 2491 1159 1978 
L 1159 0 
L 581 0 
L 581 4863 
L 1159 4863 
L 1159 2956 
Q 1366 3272 1645 3428 
Q 1925 3584 2291 3584 
Q 2894 3584 3203 3211 
Q 3513 2838 3513 2113 
z
" transform="scale(0.015625)"/>
      </defs>
      <use xlink:href="#DejaVuSans-44"/>
      <use xlink:href="#DejaVuSans-65" x="77.001953"/>
      <use xlink:href="#DejaVuSans-70" x="138.525391"/>
      <use xlink:href="#DejaVuSans-74" x="202.001953"/>
      <use xlink:href="#DejaVuSans-68" x="241.210938"/>
      <use xlink:href="#DejaVuSans-20" x="304.589844"/>
      <use xlink:href="#DejaVuSans-6f" x="336.376953"/>
      <use xlink:href="#DejaVuSans-66" x="397.558594"/>
      <use xlink:href="#DejaVuSans-20" x="432.763672"/>
      <use xlink:href="#DejaVuSans-45" x="464.550781"/>
      <use xlink:href="#DejaVuSans-6c" x="527.734375"/>
      <use xlink:href="#DejaVuSans-65" x="555.517578"/>
      <use xlink:href="#DejaVuSans-6d" x="617.041016"/>
      <use xlink:href="#DejaVuSans-65" x="714.453125"/>
      <use xlink:href="#DejaVuSans-6e" x="775.976562"/>
      <use xlink:href="#DejaVuSans-74" x="839.355469"/>
     </g>
    </g>
   </g>
   <g id="patch_275">
    <path d="M 57.6 307.584 
L 57.6 41.472 
" style="fill: none; stroke: #000000; stroke-width: 0.8; stroke-linejoin: miter; stroke-linecap: square"/>
   </g>
   <g id="patch_276">
    <path d="M 414.72 307.584 
L 414.72 41.472 
" style="fill: none; stroke: #000000; stroke-width: 0.8; stroke-linejoin: miter; stroke-linecap: square"/>
   </g>
   <g id="patch_277">
    <path d="M 57.6 307.584 
L 414.72 307.584 
" style="fill: none; stroke: #000000; stroke-width: 0.8; stroke-linejoin: miter; stroke-linecap: square"/>
   </g>
   <g id="patch_278">
    <path d="M 57.6 41.472 
L 414.72 41.472 
" style="fill: none; stroke: #000000; stroke-width: 0.8; stroke-linejoin: miter; stroke-linecap: square"/>
   </g>
  </g>
 </g>
 <defs>
  <clipPath id="pd77893d1b1">
   <rect x="57.6" y="41.472" width="357.12" height="266.112"/>
  </clipPath>
 </defs>
</svg>
