<?xml version="1.0" encoding="utf-8" standalone="no"?>
<!DOCTYPE svg PUBLIC "-//W3C//DTD SVG 1.1//EN"
  "http://www.w3.org/Graphics/SVG/1.1/DTD/svg11.dtd">
<svg xmlns:xlink="http://www.w3.org/1999/xlink" width="460.8pt" height="345.6pt" viewBox="0 0 460.8 345.6" xmlns="http://www.w3.org/2000/svg" version="1.1">
 <metadata>
  <rdf:RDF xmlns:dc="http://purl.org/dc/elements/1.1/" xmlns:cc="http://creativecommons.org/ns#" xmlns:rdf="http://www.w3.org/1999/02/22-rdf-syntax-ns#">
   <cc:Work>
    <dc:type rdf:resource="http://purl.org/dc/dcmitype/StillImage"/>
    <dc:date>2024-02-18T16:25:02.282674</dc:date>
    <dc:format>image/svg+xml</dc:format>
    <dc:creator>
     <cc:Agent>
      <dc:title>Matplotlib v3.8.3, https://matplotlib.org/</dc:title>
     </cc:Agent>
    </dc:creator>
   </cc:Work>
  </rdf:RDF>
 </metadata>
 <defs>
  <style type="text/css">*{stroke-linejoin: round; stroke-linecap: butt}</style>
 </defs>
 <g id="figure_1">
  <g id="patch_1">
   <path d="M 0 345.6 
L 460.8 345.6 
L 460.8 0 
L 0 0 
z
" style="fill: #ffffff"/>
  </g>
  <g id="axes_1">
   <g id="patch_2">
    <path d="M 57.6 307.584 
L 414.72 307.584 
L 414.72 41.472 
L 57.6 41.472 
z
" style="fill: #ffffff"/>
   </g>
   <g id="patch_3">
    <path d="M 73.832727 307.584 
L 74.512988 307.584 
L 74.512988 293.696877 
L 73.832727 293.696877 
z
" clip-path="url(#pd0f5290387)" style="fill: #1f77b4"/>
   </g>
   <g id="patch_4">
    <path d="M 74.683053 307.584 
L 75.363314 307.584 
L 75.363314 279.809753 
L 74.683053 279.809753 
z
" clip-path="url(#pd0f5290387)" style="fill: #1f77b4"/>
   </g>
   <g id="patch_5">
    <path d="M 76.383706 307.584 
L 77.063967 307.584 
L 77.063967 279.809753 
L 76.383706 279.809753 
z
" clip-path="url(#pd0f5290387)" style="fill: #1f77b4"/>
   </g>
   <g id="patch_6">
    <path d="M 78.084358 307.584 
L 78.764619 307.584 
L 78.764619 269.394411 
L 78.084358 269.394411 
z
" clip-path="url(#pd0f5290387)" style="fill: #1f77b4"/>
   </g>
   <g id="patch_7">
    <path d="M 80.635337 307.584 
L 81.315598 307.584 
L 81.315598 206.902356 
L 80.635337 206.902356 
z
" clip-path="url(#pd0f5290387)" style="fill: #1f77b4"/>
   </g>
   <g id="patch_8">
    <path d="M 75.53338 307.584 
L 76.213641 307.584 
L 76.213641 279.809753 
L 75.53338 279.809753 
z
" clip-path="url(#pd0f5290387)" style="fill: #1f77b4"/>
   </g>
   <g id="patch_9">
    <path d="M 78.934685 307.584 
L 79.614945 307.584 
L 79.614945 241.620164 
L 78.934685 241.620164 
z
" clip-path="url(#pd0f5290387)" style="fill: #1f77b4"/>
   </g>
   <g id="patch_10">
    <path d="M 79.785011 307.584 
L 80.465272 307.584 
L 80.465272 241.620164 
L 79.785011 241.620164 
z
" clip-path="url(#pd0f5290387)" style="fill: #1f77b4"/>
   </g>
   <g id="patch_11">
    <path d="M 77.234032 307.584 
L 77.914293 307.584 
L 77.914293 269.394411 
L 77.234032 269.394411 
z
" clip-path="url(#pd0f5290387)" style="fill: #1f77b4"/>
   </g>
   <g id="patch_12">
    <path d="M 82.335989 307.584 
L 83.01625 307.584 
L 83.01625 210.374137 
L 82.335989 210.374137 
z
" clip-path="url(#pd0f5290387)" style="fill: #1f77b4"/>
   </g>
   <g id="patch_13">
    <path d="M 83.186316 307.584 
L 83.866577 307.584 
L 83.866577 196.487014 
L 83.186316 196.487014 
z
" clip-path="url(#pd0f5290387)" style="fill: #1f77b4"/>
   </g>
   <g id="patch_14">
    <path d="M 81.485663 307.584 
L 82.165924 307.584 
L 82.165924 224.26126 
L 81.485663 224.26126 
z
" clip-path="url(#pd0f5290387)" style="fill: #1f77b4"/>
   </g>
   <g id="patch_15">
    <path d="M 84.036642 307.584 
L 84.716903 307.584 
L 84.716903 220.789479 
L 84.036642 220.789479 
z
" clip-path="url(#pd0f5290387)" style="fill: #1f77b4"/>
   </g>
   <g id="patch_16">
    <path d="M 85.737294 307.584 
L 86.417555 307.584 
L 86.417555 165.240986 
L 85.737294 165.240986 
z
" clip-path="url(#pd0f5290387)" style="fill: #1f77b4"/>
   </g>
   <g id="patch_17">
    <path d="M 84.886968 307.584 
L 85.567229 307.584 
L 85.567229 182.59989 
L 84.886968 182.59989 
z
" clip-path="url(#pd0f5290387)" style="fill: #1f77b4"/>
   </g>
   <g id="patch_18">
    <path d="M 86.58762 307.584 
L 87.267881 307.584 
L 87.267881 172.184548 
L 86.58762 172.184548 
z
" clip-path="url(#pd0f5290387)" style="fill: #1f77b4"/>
   </g>
   <g id="patch_19">
    <path d="M 88.288273 307.584 
L 88.968534 307.584 
L 88.968534 81.918247 
L 88.288273 81.918247 
z
" clip-path="url(#pd0f5290387)" style="fill: #1f77b4"/>
   </g>
   <g id="patch_20">
    <path d="M 89.138599 307.584 
L 89.81886 307.584 
L 89.81886 99.277151 
L 89.138599 99.277151 
z
" clip-path="url(#pd0f5290387)" style="fill: #1f77b4"/>
   </g>
   <g id="patch_21">
    <path d="M 87.437947 307.584 
L 88.118208 307.584 
L 88.118208 137.46674 
L 87.437947 137.46674 
z
" clip-path="url(#pd0f5290387)" style="fill: #1f77b4"/>
   </g>
   <g id="patch_22">
    <path d="M 89.988925 307.584 
L 90.669186 307.584 
L 90.669186 106.220712 
L 89.988925 106.220712 
z
" clip-path="url(#pd0f5290387)" style="fill: #1f77b4"/>
   </g>
   <g id="patch_23">
    <path d="M 95.090882 307.584 
L 95.771143 307.584 
L 95.771143 106.220712 
L 95.090882 106.220712 
z
" clip-path="url(#pd0f5290387)" style="fill: #1f77b4"/>
   </g>
   <g id="patch_24">
    <path d="M 92.539904 307.584 
L 93.220165 307.584 
L 93.220165 133.994959 
L 92.539904 133.994959 
z
" clip-path="url(#pd0f5290387)" style="fill: #1f77b4"/>
   </g>
   <g id="patch_25">
    <path d="M 100.19284 307.584 
L 100.873101 307.584 
L 100.873101 116.636055 
L 100.19284 116.636055 
z
" clip-path="url(#pd0f5290387)" style="fill: #1f77b4"/>
   </g>
   <g id="patch_26">
    <path d="M 91.689578 307.584 
L 92.369839 307.584 
L 92.369839 81.918247 
L 91.689578 81.918247 
z
" clip-path="url(#pd0f5290387)" style="fill: #1f77b4"/>
   </g>
   <g id="patch_27">
    <path d="M 90.839251 307.584 
L 91.519512 307.584 
L 91.519512 92.333589 
L 90.839251 92.333589 
z
" clip-path="url(#pd0f5290387)" style="fill: #1f77b4"/>
   </g>
   <g id="patch_28">
    <path d="M 102.743818 307.584 
L 103.424079 307.584 
L 103.424079 106.220712 
L 102.743818 106.220712 
z
" clip-path="url(#pd0f5290387)" style="fill: #1f77b4"/>
   </g>
   <g id="patch_29">
    <path d="M 96.791535 307.584 
L 97.471796 307.584 
L 97.471796 120.107836 
L 96.791535 120.107836 
z
" clip-path="url(#pd0f5290387)" style="fill: #1f77b4"/>
   </g>
   <g id="patch_30">
    <path d="M 93.39023 307.584 
L 94.070491 307.584 
L 94.070491 113.164274 
L 93.39023 113.164274 
z
" clip-path="url(#pd0f5290387)" style="fill: #1f77b4"/>
   </g>
   <g id="patch_31">
    <path d="M 101.893492 307.584 
L 102.573753 307.584 
L 102.573753 175.656329 
L 101.893492 175.656329 
z
" clip-path="url(#pd0f5290387)" style="fill: #1f77b4"/>
   </g>
   <g id="patch_32">
    <path d="M 99.342513 307.584 
L 100.022774 307.584 
L 100.022774 109.692493 
L 99.342513 109.692493 
z
" clip-path="url(#pd0f5290387)" style="fill: #1f77b4"/>
   </g>
   <g id="patch_33">
    <path d="M 101.043166 307.584 
L 101.723427 307.584 
L 101.723427 127.051397 
L 101.043166 127.051397 
z
" clip-path="url(#pd0f5290387)" style="fill: #1f77b4"/>
   </g>
   <g id="patch_34">
    <path d="M 95.941209 307.584 
L 96.62147 307.584 
L 96.62147 137.46674 
L 95.941209 137.46674 
z
" clip-path="url(#pd0f5290387)" style="fill: #1f77b4"/>
   </g>
   <g id="patch_35">
    <path d="M 97.641861 307.584 
L 98.322122 307.584 
L 98.322122 109.692493 
L 97.641861 109.692493 
z
" clip-path="url(#pd0f5290387)" style="fill: #1f77b4"/>
   </g>
   <g id="patch_36">
    <path d="M 105.294797 307.584 
L 105.975058 307.584 
L 105.975058 109.692493 
L 105.294797 109.692493 
z
" clip-path="url(#pd0f5290387)" style="fill: #1f77b4"/>
   </g>
   <g id="patch_37">
    <path d="M 106.995449 307.584 
L 107.67571 307.584 
L 107.67571 92.333589 
L 106.995449 92.333589 
z
" clip-path="url(#pd0f5290387)" style="fill: #1f77b4"/>
   </g>
   <g id="patch_38">
    <path d="M 107.845776 307.584 
L 108.526036 307.584 
L 108.526036 102.748932 
L 107.845776 102.748932 
z
" clip-path="url(#pd0f5290387)" style="fill: #1f77b4"/>
   </g>
   <g id="patch_39">
    <path d="M 110.396754 307.584 
L 111.077015 307.584 
L 111.077015 99.277151 
L 110.396754 99.277151 
z
" clip-path="url(#pd0f5290387)" style="fill: #1f77b4"/>
   </g>
   <g id="patch_40">
    <path d="M 104.444471 307.584 
L 105.124732 307.584 
L 105.124732 99.277151 
L 104.444471 99.277151 
z
" clip-path="url(#pd0f5290387)" style="fill: #1f77b4"/>
   </g>
   <g id="patch_41">
    <path d="M 98.492187 307.584 
L 99.172448 307.584 
L 99.172448 81.918247 
L 98.492187 81.918247 
z
" clip-path="url(#pd0f5290387)" style="fill: #1f77b4"/>
   </g>
   <g id="patch_42">
    <path d="M 94.240556 307.584 
L 94.920817 307.584 
L 94.920817 147.882082 
L 94.240556 147.882082 
z
" clip-path="url(#pd0f5290387)" style="fill: #1f77b4"/>
   </g>
   <g id="patch_43">
    <path d="M 106.145123 307.584 
L 106.825384 307.584 
L 106.825384 116.636055 
L 106.145123 116.636055 
z
" clip-path="url(#pd0f5290387)" style="fill: #1f77b4"/>
   </g>
   <g id="patch_44">
    <path d="M 108.696102 307.584 
L 109.376363 307.584 
L 109.376363 81.918247 
L 108.696102 81.918247 
z
" clip-path="url(#pd0f5290387)" style="fill: #1f77b4"/>
   </g>
   <g id="patch_45">
    <path d="M 112.947733 307.584 
L 113.627994 307.584 
L 113.627994 106.220712 
L 112.947733 106.220712 
z
" clip-path="url(#pd0f5290387)" style="fill: #1f77b4"/>
   </g>
   <g id="patch_46">
    <path d="M 111.24708 307.584 
L 111.927341 307.584 
L 111.927341 54.144 
L 111.24708 54.144 
z
" clip-path="url(#pd0f5290387)" style="fill: #1f77b4"/>
   </g>
   <g id="patch_47">
    <path d="M 119.750342 307.584 
L 120.430603 307.584 
L 120.430603 116.636055 
L 119.750342 116.636055 
z
" clip-path="url(#pd0f5290387)" style="fill: #1f77b4"/>
   </g>
   <g id="patch_48">
    <path d="M 103.594144 307.584 
L 104.274405 307.584 
L 104.274405 130.523178 
L 103.594144 130.523178 
z
" clip-path="url(#pd0f5290387)" style="fill: #1f77b4"/>
   </g>
   <g id="patch_49">
    <path d="M 109.546428 307.584 
L 110.226689 307.584 
L 110.226689 161.769205 
L 109.546428 161.769205 
z
" clip-path="url(#pd0f5290387)" style="fill: #1f77b4"/>
   </g>
   <g id="patch_50">
    <path d="M 113.798059 307.584 
L 114.47832 307.584 
L 114.47832 85.390027 
L 113.798059 85.390027 
z
" clip-path="url(#pd0f5290387)" style="fill: #1f77b4"/>
   </g>
   <g id="patch_51">
    <path d="M 117.199364 307.584 
L 117.879625 307.584 
L 117.879625 95.80537 
L 117.199364 95.80537 
z
" clip-path="url(#pd0f5290387)" style="fill: #1f77b4"/>
   </g>
   <g id="patch_52">
    <path d="M 112.097407 307.584 
L 112.777668 307.584 
L 112.777668 95.80537 
L 112.097407 95.80537 
z
" clip-path="url(#pd0f5290387)" style="fill: #1f77b4"/>
   </g>
   <g id="patch_53">
    <path d="M 114.648385 307.584 
L 115.328646 307.584 
L 115.328646 120.107836 
L 114.648385 120.107836 
z
" clip-path="url(#pd0f5290387)" style="fill: #1f77b4"/>
   </g>
   <g id="patch_54">
    <path d="M 120.600669 307.584 
L 121.28093 307.584 
L 121.28093 133.994959 
L 120.600669 133.994959 
z
" clip-path="url(#pd0f5290387)" style="fill: #1f77b4"/>
   </g>
   <g id="patch_55">
    <path d="M 124.8523 307.584 
L 125.532561 307.584 
L 125.532561 154.825644 
L 124.8523 154.825644 
z
" clip-path="url(#pd0f5290387)" style="fill: #1f77b4"/>
   </g>
   <g id="patch_56">
    <path d="M 118.900016 307.584 
L 119.580277 307.584 
L 119.580277 102.748932 
L 118.900016 102.748932 
z
" clip-path="url(#pd0f5290387)" style="fill: #1f77b4"/>
   </g>
   <g id="patch_57">
    <path d="M 122.301321 307.584 
L 122.981582 307.584 
L 122.981582 120.107836 
L 122.301321 120.107836 
z
" clip-path="url(#pd0f5290387)" style="fill: #1f77b4"/>
   </g>
   <g id="patch_58">
    <path d="M 126.552952 307.584 
L 127.233213 307.584 
L 127.233213 123.579616 
L 126.552952 123.579616 
z
" clip-path="url(#pd0f5290387)" style="fill: #1f77b4"/>
   </g>
   <g id="patch_59">
    <path d="M 115.498711 307.584 
L 116.178972 307.584 
L 116.178972 109.692493 
L 115.498711 109.692493 
z
" clip-path="url(#pd0f5290387)" style="fill: #1f77b4"/>
   </g>
   <g id="patch_60">
    <path d="M 129.103931 307.584 
L 129.784192 307.584 
L 129.784192 168.712767 
L 129.103931 168.712767 
z
" clip-path="url(#pd0f5290387)" style="fill: #1f77b4"/>
   </g>
   <g id="patch_61">
    <path d="M 116.349038 307.584 
L 117.029299 307.584 
L 117.029299 64.559342 
L 116.349038 64.559342 
z
" clip-path="url(#pd0f5290387)" style="fill: #1f77b4"/>
   </g>
   <g id="patch_62">
    <path d="M 125.702626 307.584 
L 126.382887 307.584 
L 126.382887 151.353863 
L 125.702626 151.353863 
z
" clip-path="url(#pd0f5290387)" style="fill: #1f77b4"/>
   </g>
   <g id="patch_63">
    <path d="M 131.654909 307.584 
L 132.33517 307.584 
L 132.33517 151.353863 
L 131.654909 151.353863 
z
" clip-path="url(#pd0f5290387)" style="fill: #1f77b4"/>
   </g>
   <g id="patch_64">
    <path d="M 121.450995 307.584 
L 122.131256 307.584 
L 122.131256 147.882082 
L 121.450995 147.882082 
z
" clip-path="url(#pd0f5290387)" style="fill: #1f77b4"/>
   </g>
   <g id="patch_65">
    <path d="M 135.056214 307.584 
L 135.736475 307.584 
L 135.736475 151.353863 
L 135.056214 151.353863 
z
" clip-path="url(#pd0f5290387)" style="fill: #1f77b4"/>
   </g>
   <g id="patch_66">
    <path d="M 129.954257 307.584 
L 130.634518 307.584 
L 130.634518 133.994959 
L 129.954257 133.994959 
z
" clip-path="url(#pd0f5290387)" style="fill: #1f77b4"/>
   </g>
   <g id="patch_67">
    <path d="M 127.403278 307.584 
L 128.083539 307.584 
L 128.083539 140.938521 
L 127.403278 140.938521 
z
" clip-path="url(#pd0f5290387)" style="fill: #1f77b4"/>
   </g>
   <g id="patch_68">
    <path d="M 118.04969 307.584 
L 118.729951 307.584 
L 118.729951 140.938521 
L 118.04969 140.938521 
z
" clip-path="url(#pd0f5290387)" style="fill: #1f77b4"/>
   </g>
   <g id="patch_69">
    <path d="M 134.205888 307.584 
L 134.886149 307.584 
L 134.886149 161.769205 
L 134.205888 161.769205 
z
" clip-path="url(#pd0f5290387)" style="fill: #1f77b4"/>
   </g>
   <g id="patch_70">
    <path d="M 136.756867 307.584 
L 137.437127 307.584 
L 137.437127 172.184548 
L 136.756867 172.184548 
z
" clip-path="url(#pd0f5290387)" style="fill: #1f77b4"/>
   </g>
   <g id="patch_71">
    <path d="M 146.110455 307.584 
L 146.790716 307.584 
L 146.790716 186.071671 
L 146.110455 186.071671 
z
" clip-path="url(#pd0f5290387)" style="fill: #1f77b4"/>
   </g>
   <g id="patch_72">
    <path d="M 123.151647 307.584 
L 123.831908 307.584 
L 123.831908 147.882082 
L 123.151647 147.882082 
z
" clip-path="url(#pd0f5290387)" style="fill: #1f77b4"/>
   </g>
   <g id="patch_73">
    <path d="M 128.253604 307.584 
L 128.933865 307.584 
L 128.933865 133.994959 
L 128.253604 133.994959 
z
" clip-path="url(#pd0f5290387)" style="fill: #1f77b4"/>
   </g>
   <g id="patch_74">
    <path d="M 124.001973 307.584 
L 124.682234 307.584 
L 124.682234 165.240986 
L 124.001973 165.240986 
z
" clip-path="url(#pd0f5290387)" style="fill: #1f77b4"/>
   </g>
   <g id="patch_75">
    <path d="M 132.505235 307.584 
L 133.185496 307.584 
L 133.185496 140.938521 
L 132.505235 140.938521 
z
" clip-path="url(#pd0f5290387)" style="fill: #1f77b4"/>
   </g>
   <g id="patch_76">
    <path d="M 135.90654 307.584 
L 136.586801 307.584 
L 136.586801 165.240986 
L 135.90654 165.240986 
z
" clip-path="url(#pd0f5290387)" style="fill: #1f77b4"/>
   </g>
   <g id="patch_77">
    <path d="M 144.409802 307.584 
L 145.090063 307.584 
L 145.090063 151.353863 
L 144.409802 151.353863 
z
" clip-path="url(#pd0f5290387)" style="fill: #1f77b4"/>
   </g>
   <g id="patch_78">
    <path d="M 138.457519 307.584 
L 139.13778 307.584 
L 139.13778 158.297425 
L 138.457519 158.297425 
z
" clip-path="url(#pd0f5290387)" style="fill: #1f77b4"/>
   </g>
   <g id="patch_79">
    <path d="M 147.811107 307.584 
L 148.491368 307.584 
L 148.491368 140.938521 
L 147.811107 140.938521 
z
" clip-path="url(#pd0f5290387)" style="fill: #1f77b4"/>
   </g>
   <g id="patch_80">
    <path d="M 140.158171 307.584 
L 140.838432 307.584 
L 140.838432 172.184548 
L 140.158171 172.184548 
z
" clip-path="url(#pd0f5290387)" style="fill: #1f77b4"/>
   </g>
   <g id="patch_81">
    <path d="M 133.355562 307.584 
L 134.035823 307.584 
L 134.035823 182.59989 
L 133.355562 182.59989 
z
" clip-path="url(#pd0f5290387)" style="fill: #1f77b4"/>
   </g>
   <g id="patch_82">
    <path d="M 137.607193 307.584 
L 138.287454 307.584 
L 138.287454 158.297425 
L 137.607193 158.297425 
z
" clip-path="url(#pd0f5290387)" style="fill: #1f77b4"/>
   </g>
   <g id="patch_83">
    <path d="M 146.960781 307.584 
L 147.641042 307.584 
L 147.641042 154.825644 
L 146.960781 154.825644 
z
" clip-path="url(#pd0f5290387)" style="fill: #1f77b4"/>
   </g>
   <g id="patch_84">
    <path d="M 142.70915 307.584 
L 143.389411 307.584 
L 143.389411 175.656329 
L 142.70915 175.656329 
z
" clip-path="url(#pd0f5290387)" style="fill: #1f77b4"/>
   </g>
   <g id="patch_85">
    <path d="M 130.804583 307.584 
L 131.484844 307.584 
L 131.484844 123.579616 
L 130.804583 123.579616 
z
" clip-path="url(#pd0f5290387)" style="fill: #1f77b4"/>
   </g>
   <g id="patch_86">
    <path d="M 145.260129 307.584 
L 145.94039 307.584 
L 145.94039 151.353863 
L 145.260129 151.353863 
z
" clip-path="url(#pd0f5290387)" style="fill: #1f77b4"/>
   </g>
   <g id="patch_87">
    <path d="M 158.865348 307.584 
L 159.545609 307.584 
L 159.545609 154.825644 
L 158.865348 154.825644 
z
" clip-path="url(#pd0f5290387)" style="fill: #1f77b4"/>
   </g>
   <g id="patch_88">
    <path d="M 139.307845 307.584 
L 139.988106 307.584 
L 139.988106 154.825644 
L 139.307845 154.825644 
z
" clip-path="url(#pd0f5290387)" style="fill: #1f77b4"/>
   </g>
   <g id="patch_89">
    <path d="M 154.613717 307.584 
L 155.293978 307.584 
L 155.293978 193.015233 
L 154.613717 193.015233 
z
" clip-path="url(#pd0f5290387)" style="fill: #1f77b4"/>
   </g>
   <g id="patch_90">
    <path d="M 174.17122 307.584 
L 174.851481 307.584 
L 174.851481 206.902356 
L 174.17122 206.902356 
z
" clip-path="url(#pd0f5290387)" style="fill: #1f77b4"/>
   </g>
   <g id="patch_91">
    <path d="M 141.858824 307.584 
L 142.539085 307.584 
L 142.539085 179.12811 
L 141.858824 179.12811 
z
" clip-path="url(#pd0f5290387)" style="fill: #1f77b4"/>
   </g>
   <g id="patch_92">
    <path d="M 149.51176 307.584 
L 150.192021 307.584 
L 150.192021 137.46674 
L 149.51176 137.46674 
z
" clip-path="url(#pd0f5290387)" style="fill: #1f77b4"/>
   </g>
   <g id="patch_93">
    <path d="M 158.015022 307.584 
L 158.695283 307.584 
L 158.695283 158.297425 
L 158.015022 158.297425 
z
" clip-path="url(#pd0f5290387)" style="fill: #1f77b4"/>
   </g>
   <g id="patch_94">
    <path d="M 148.661433 307.584 
L 149.341694 307.584 
L 149.341694 172.184548 
L 148.661433 172.184548 
z
" clip-path="url(#pd0f5290387)" style="fill: #1f77b4"/>
   </g>
   <g id="patch_95">
    <path d="M 155.464043 307.584 
L 156.144304 307.584 
L 156.144304 158.297425 
L 155.464043 158.297425 
z
" clip-path="url(#pd0f5290387)" style="fill: #1f77b4"/>
   </g>
   <g id="patch_96">
    <path d="M 157.164695 307.584 
L 157.844956 307.584 
L 157.844956 179.12811 
L 157.164695 179.12811 
z
" clip-path="url(#pd0f5290387)" style="fill: #1f77b4"/>
   </g>
   <g id="patch_97">
    <path d="M 161.416326 307.584 
L 162.096587 307.584 
L 162.096587 231.204822 
L 161.416326 231.204822 
z
" clip-path="url(#pd0f5290387)" style="fill: #1f77b4"/>
   </g>
   <g id="patch_98">
    <path d="M 162.266653 307.584 
L 162.946914 307.584 
L 162.946914 231.204822 
L 162.266653 231.204822 
z
" clip-path="url(#pd0f5290387)" style="fill: #1f77b4"/>
   </g>
   <g id="patch_99">
    <path d="M 165.667958 307.584 
L 166.348218 307.584 
L 166.348218 189.543452 
L 165.667958 189.543452 
z
" clip-path="url(#pd0f5290387)" style="fill: #1f77b4"/>
   </g>
   <g id="patch_100">
    <path d="M 166.518284 307.584 
L 167.198545 307.584 
L 167.198545 186.071671 
L 166.518284 186.071671 
z
" clip-path="url(#pd0f5290387)" style="fill: #1f77b4"/>
   </g>
   <g id="patch_101">
    <path d="M 152.913064 307.584 
L 153.593325 307.584 
L 153.593325 127.051397 
L 152.913064 127.051397 
z
" clip-path="url(#pd0f5290387)" style="fill: #1f77b4"/>
   </g>
   <g id="patch_102">
    <path d="M 141.008498 307.584 
L 141.688759 307.584 
L 141.688759 133.994959 
L 141.008498 133.994959 
z
" clip-path="url(#pd0f5290387)" style="fill: #1f77b4"/>
   </g>
   <g id="patch_103">
    <path d="M 151.212412 307.584 
L 151.892673 307.584 
L 151.892673 175.656329 
L 151.212412 175.656329 
z
" clip-path="url(#pd0f5290387)" style="fill: #1f77b4"/>
   </g>
   <g id="patch_104">
    <path d="M 150.362086 307.584 
L 151.042347 307.584 
L 151.042347 203.430575 
L 150.362086 203.430575 
z
" clip-path="url(#pd0f5290387)" style="fill: #1f77b4"/>
   </g>
   <g id="patch_105">
    <path d="M 164.817631 307.584 
L 165.497892 307.584 
L 165.497892 189.543452 
L 164.817631 189.543452 
z
" clip-path="url(#pd0f5290387)" style="fill: #1f77b4"/>
   </g>
   <g id="patch_106">
    <path d="M 143.559476 307.584 
L 144.239737 307.584 
L 144.239737 182.59989 
L 143.559476 182.59989 
z
" clip-path="url(#pd0f5290387)" style="fill: #1f77b4"/>
   </g>
   <g id="patch_107">
    <path d="M 156.314369 307.584 
L 156.99463 307.584 
L 156.99463 206.902356 
L 156.314369 206.902356 
z
" clip-path="url(#pd0f5290387)" style="fill: #1f77b4"/>
   </g>
   <g id="patch_108">
    <path d="M 168.218936 307.584 
L 168.899197 307.584 
L 168.899197 161.769205 
L 168.218936 161.769205 
z
" clip-path="url(#pd0f5290387)" style="fill: #1f77b4"/>
   </g>
   <g id="patch_109">
    <path d="M 184.375134 307.584 
L 185.055395 307.584 
L 185.055395 227.733041 
L 184.375134 227.733041 
z
" clip-path="url(#pd0f5290387)" style="fill: #1f77b4"/>
   </g>
   <g id="patch_110">
    <path d="M 188.626765 307.584 
L 189.307026 307.584 
L 189.307026 227.733041 
L 188.626765 227.733041 
z
" clip-path="url(#pd0f5290387)" style="fill: #1f77b4"/>
   </g>
   <g id="patch_111">
    <path d="M 175.871872 307.584 
L 176.552133 307.584 
L 176.552133 245.091945 
L 175.871872 245.091945 
z
" clip-path="url(#pd0f5290387)" style="fill: #1f77b4"/>
   </g>
   <g id="patch_112">
    <path d="M 159.715674 307.584 
L 160.395935 307.584 
L 160.395935 203.430575 
L 159.715674 203.430575 
z
" clip-path="url(#pd0f5290387)" style="fill: #1f77b4"/>
   </g>
   <g id="patch_113">
    <path d="M 160.566 307.584 
L 161.246261 307.584 
L 161.246261 196.487014 
L 160.566 196.487014 
z
" clip-path="url(#pd0f5290387)" style="fill: #1f77b4"/>
   </g>
   <g id="patch_114">
    <path d="M 176.722198 307.584 
L 177.402459 307.584 
L 177.402459 213.845918 
L 176.722198 213.845918 
z
" clip-path="url(#pd0f5290387)" style="fill: #1f77b4"/>
   </g>
   <g id="patch_115">
    <path d="M 163.116979 307.584 
L 163.79724 307.584 
L 163.79724 203.430575 
L 163.116979 203.430575 
z
" clip-path="url(#pd0f5290387)" style="fill: #1f77b4"/>
   </g>
   <g id="patch_116">
    <path d="M 207.333942 307.584 
L 208.014203 307.584 
L 208.014203 252.035507 
L 207.333942 252.035507 
z
" clip-path="url(#pd0f5290387)" style="fill: #1f77b4"/>
   </g>
   <g id="patch_117">
    <path d="M 170.769915 307.584 
L 171.450176 307.584 
L 171.450176 210.374137 
L 170.769915 210.374137 
z
" clip-path="url(#pd0f5290387)" style="fill: #1f77b4"/>
   </g>
   <g id="patch_118">
    <path d="M 152.062738 307.584 
L 152.742999 307.584 
L 152.742999 189.543452 
L 152.062738 189.543452 
z
" clip-path="url(#pd0f5290387)" style="fill: #1f77b4"/>
   </g>
   <g id="patch_119">
    <path d="M 185.22546 307.584 
L 185.905721 307.584 
L 185.905721 241.620164 
L 185.22546 241.620164 
z
" clip-path="url(#pd0f5290387)" style="fill: #1f77b4"/>
   </g>
   <g id="patch_120">
    <path d="M 167.36861 307.584 
L 168.048871 307.584 
L 168.048871 206.902356 
L 167.36861 206.902356 
z
" clip-path="url(#pd0f5290387)" style="fill: #1f77b4"/>
   </g>
   <g id="patch_121">
    <path d="M 186.075786 307.584 
L 186.756047 307.584 
L 186.756047 213.845918 
L 186.075786 213.845918 
z
" clip-path="url(#pd0f5290387)" style="fill: #1f77b4"/>
   </g>
   <g id="patch_122">
    <path d="M 175.021546 307.584 
L 175.701807 307.584 
L 175.701807 227.733041 
L 175.021546 227.733041 
z
" clip-path="url(#pd0f5290387)" style="fill: #1f77b4"/>
   </g>
   <g id="patch_123">
    <path d="M 153.763391 307.584 
L 154.443652 307.584 
L 154.443652 179.12811 
L 153.763391 179.12811 
z
" clip-path="url(#pd0f5290387)" style="fill: #1f77b4"/>
   </g>
   <g id="patch_124">
    <path d="M 169.069262 307.584 
L 169.749523 307.584 
L 169.749523 206.902356 
L 169.069262 206.902356 
z
" clip-path="url(#pd0f5290387)" style="fill: #1f77b4"/>
   </g>
   <g id="patch_125">
    <path d="M 186.926113 307.584 
L 187.606374 307.584 
L 187.606374 252.035507 
L 186.926113 252.035507 
z
" clip-path="url(#pd0f5290387)" style="fill: #1f77b4"/>
   </g>
   <g id="patch_126">
    <path d="M 208.184268 307.584 
L 208.864529 307.584 
L 208.864529 252.035507 
L 208.184268 252.035507 
z
" clip-path="url(#pd0f5290387)" style="fill: #1f77b4"/>
   </g>
   <g id="patch_127">
    <path d="M 169.919589 307.584 
L 170.59985 307.584 
L 170.59985 199.958795 
L 169.919589 199.958795 
z
" clip-path="url(#pd0f5290387)" style="fill: #1f77b4"/>
   </g>
   <g id="patch_128">
    <path d="M 163.967305 307.584 
L 164.647566 307.584 
L 164.647566 172.184548 
L 163.967305 172.184548 
z
" clip-path="url(#pd0f5290387)" style="fill: #1f77b4"/>
   </g>
   <g id="patch_129">
    <path d="M 192.02807 307.584 
L 192.708331 307.584 
L 192.708331 224.26126 
L 192.02807 224.26126 
z
" clip-path="url(#pd0f5290387)" style="fill: #1f77b4"/>
   </g>
   <g id="patch_130">
    <path d="M 172.470567 307.584 
L 173.150828 307.584 
L 173.150828 210.374137 
L 172.470567 210.374137 
z
" clip-path="url(#pd0f5290387)" style="fill: #1f77b4"/>
   </g>
   <g id="patch_131">
    <path d="M 171.620241 307.584 
L 172.300502 307.584 
L 172.300502 224.26126 
L 171.620241 224.26126 
z
" clip-path="url(#pd0f5290387)" style="fill: #1f77b4"/>
   </g>
   <g id="patch_132">
    <path d="M 189.477091 307.584 
L 190.157352 307.584 
L 190.157352 231.204822 
L 189.477091 231.204822 
z
" clip-path="url(#pd0f5290387)" style="fill: #1f77b4"/>
   </g>
   <g id="patch_133">
    <path d="M 196.279701 307.584 
L 196.959962 307.584 
L 196.959962 258.979068 
L 196.279701 258.979068 
z
" clip-path="url(#pd0f5290387)" style="fill: #1f77b4"/>
   </g>
   <g id="patch_134">
    <path d="M 181.824155 307.584 
L 182.504416 307.584 
L 182.504416 238.148384 
L 181.824155 238.148384 
z
" clip-path="url(#pd0f5290387)" style="fill: #1f77b4"/>
   </g>
   <g id="patch_135">
    <path d="M 173.320893 307.584 
L 174.001154 307.584 
L 174.001154 227.733041 
L 173.320893 227.733041 
z
" clip-path="url(#pd0f5290387)" style="fill: #1f77b4"/>
   </g>
   <g id="patch_136">
    <path d="M 180.973829 307.584 
L 181.65409 307.584 
L 181.65409 241.620164 
L 180.973829 241.620164 
z
" clip-path="url(#pd0f5290387)" style="fill: #1f77b4"/>
   </g>
   <g id="patch_137">
    <path d="M 192.878396 307.584 
L 193.558657 307.584 
L 193.558657 241.620164 
L 192.878396 241.620164 
z
" clip-path="url(#pd0f5290387)" style="fill: #1f77b4"/>
   </g>
   <g id="patch_138">
    <path d="M 183.524808 307.584 
L 184.205069 307.584 
L 184.205069 234.676603 
L 183.524808 234.676603 
z
" clip-path="url(#pd0f5290387)" style="fill: #1f77b4"/>
   </g>
   <g id="patch_139">
    <path d="M 179.273177 307.584 
L 179.953438 307.584 
L 179.953438 220.789479 
L 179.273177 220.789479 
z
" clip-path="url(#pd0f5290387)" style="fill: #1f77b4"/>
   </g>
   <g id="patch_140">
    <path d="M 191.177744 307.584 
L 191.858005 307.584 
L 191.858005 248.563726 
L 191.177744 248.563726 
z
" clip-path="url(#pd0f5290387)" style="fill: #1f77b4"/>
   </g>
   <g id="patch_141">
    <path d="M 178.422851 307.584 
L 179.103112 307.584 
L 179.103112 213.845918 
L 178.422851 213.845918 
z
" clip-path="url(#pd0f5290387)" style="fill: #1f77b4"/>
   </g>
   <g id="patch_142">
    <path d="M 199.681006 307.584 
L 200.361267 307.584 
L 200.361267 262.450849 
L 199.681006 262.450849 
z
" clip-path="url(#pd0f5290387)" style="fill: #1f77b4"/>
   </g>
   <g id="patch_143">
    <path d="M 177.572524 307.584 
L 178.252785 307.584 
L 178.252785 231.204822 
L 177.572524 231.204822 
z
" clip-path="url(#pd0f5290387)" style="fill: #1f77b4"/>
   </g>
   <g id="patch_144">
    <path d="M 182.674482 307.584 
L 183.354743 307.584 
L 183.354743 255.507288 
L 182.674482 255.507288 
z
" clip-path="url(#pd0f5290387)" style="fill: #1f77b4"/>
   </g>
   <g id="patch_145">
    <path d="M 200.531332 307.584 
L 201.211593 307.584 
L 201.211593 262.450849 
L 200.531332 262.450849 
z
" clip-path="url(#pd0f5290387)" style="fill: #1f77b4"/>
   </g>
   <g id="patch_146">
    <path d="M 203.082311 307.584 
L 203.762572 307.584 
L 203.762572 252.035507 
L 203.082311 252.035507 
z
" clip-path="url(#pd0f5290387)" style="fill: #1f77b4"/>
   </g>
   <g id="patch_147">
    <path d="M 234.54438 307.584 
L 235.224641 307.584 
L 235.224641 283.281534 
L 234.54438 283.281534 
z
" clip-path="url(#pd0f5290387)" style="fill: #1f77b4"/>
   </g>
   <g id="patch_148">
    <path d="M 180.123503 307.584 
L 180.803764 307.584 
L 180.803764 238.148384 
L 180.123503 238.148384 
z
" clip-path="url(#pd0f5290387)" style="fill: #1f77b4"/>
   </g>
   <g id="patch_149">
    <path d="M 198.83068 307.584 
L 199.510941 307.584 
L 199.510941 262.450849 
L 198.83068 262.450849 
z
" clip-path="url(#pd0f5290387)" style="fill: #1f77b4"/>
   </g>
   <g id="patch_150">
    <path d="M 193.728722 307.584 
L 194.408983 307.584 
L 194.408983 245.091945 
L 193.728722 245.091945 
z
" clip-path="url(#pd0f5290387)" style="fill: #1f77b4"/>
   </g>
   <g id="patch_151">
    <path d="M 194.579049 307.584 
L 195.259309 307.584 
L 195.259309 234.676603 
L 194.579049 234.676603 
z
" clip-path="url(#pd0f5290387)" style="fill: #1f77b4"/>
   </g>
   <g id="patch_152">
    <path d="M 197.980353 307.584 
L 198.660614 307.584 
L 198.660614 217.317699 
L 197.980353 217.317699 
z
" clip-path="url(#pd0f5290387)" style="fill: #1f77b4"/>
   </g>
   <g id="patch_153">
    <path d="M 195.429375 307.584 
L 196.109636 307.584 
L 196.109636 262.450849 
L 195.429375 262.450849 
z
" clip-path="url(#pd0f5290387)" style="fill: #1f77b4"/>
   </g>
   <g id="patch_154">
    <path d="M 209.034594 307.584 
L 209.714855 307.584 
L 209.714855 262.450849 
L 209.034594 262.450849 
z
" clip-path="url(#pd0f5290387)" style="fill: #1f77b4"/>
   </g>
   <g id="patch_155">
    <path d="M 203.932637 307.584 
L 204.612898 307.584 
L 204.612898 276.337973 
L 203.932637 276.337973 
z
" clip-path="url(#pd0f5290387)" style="fill: #1f77b4"/>
   </g>
   <g id="patch_156">
    <path d="M 202.231984 307.584 
L 202.912245 307.584 
L 202.912245 252.035507 
L 202.231984 252.035507 
z
" clip-path="url(#pd0f5290387)" style="fill: #1f77b4"/>
   </g>
   <g id="patch_157">
    <path d="M 197.130027 307.584 
L 197.810288 307.584 
L 197.810288 272.866192 
L 197.130027 272.866192 
z
" clip-path="url(#pd0f5290387)" style="fill: #1f77b4"/>
   </g>
   <g id="patch_158">
    <path d="M 206.483615 307.584 
L 207.163876 307.584 
L 207.163876 293.696877 
L 206.483615 293.696877 
z
" clip-path="url(#pd0f5290387)" style="fill: #1f77b4"/>
   </g>
   <g id="patch_159">
    <path d="M 211.585573 307.584 
L 212.265834 307.584 
L 212.265834 252.035507 
L 211.585573 252.035507 
z
" clip-path="url(#pd0f5290387)" style="fill: #1f77b4"/>
   </g>
   <g id="patch_160">
    <path d="M 219.238509 307.584 
L 219.918769 307.584 
L 219.918769 272.866192 
L 219.238509 272.866192 
z
" clip-path="url(#pd0f5290387)" style="fill: #1f77b4"/>
   </g>
   <g id="patch_161">
    <path d="M 212.435899 307.584 
L 213.11616 307.584 
L 213.11616 255.507288 
L 212.435899 255.507288 
z
" clip-path="url(#pd0f5290387)" style="fill: #1f77b4"/>
   </g>
   <g id="patch_162">
    <path d="M 205.633289 307.584 
L 206.31355 307.584 
L 206.31355 269.394411 
L 205.633289 269.394411 
z
" clip-path="url(#pd0f5290387)" style="fill: #1f77b4"/>
   </g>
   <g id="patch_163">
    <path d="M 223.49014 307.584 
L 224.1704 307.584 
L 224.1704 304.112219 
L 223.49014 304.112219 
z
" clip-path="url(#pd0f5290387)" style="fill: #1f77b4"/>
   </g>
   <g id="patch_164">
    <path d="M 204.782963 307.584 
L 205.463224 307.584 
L 205.463224 272.866192 
L 204.782963 272.866192 
z
" clip-path="url(#pd0f5290387)" style="fill: #1f77b4"/>
   </g>
   <g id="patch_165">
    <path d="M 236.245033 307.584 
L 236.925294 307.584 
L 236.925294 293.696877 
L 236.245033 293.696877 
z
" clip-path="url(#pd0f5290387)" style="fill: #1f77b4"/>
   </g>
   <g id="patch_166">
    <path d="M 209.88492 307.584 
L 210.565181 307.584 
L 210.565181 262.450849 
L 209.88492 262.450849 
z
" clip-path="url(#pd0f5290387)" style="fill: #1f77b4"/>
   </g>
   <g id="patch_167">
    <path d="M 210.735246 307.584 
L 211.415507 307.584 
L 211.415507 269.394411 
L 210.735246 269.394411 
z
" clip-path="url(#pd0f5290387)" style="fill: #1f77b4"/>
   </g>
   <g id="patch_168">
    <path d="M 220.088835 307.584 
L 220.769096 307.584 
L 220.769096 279.809753 
L 220.088835 279.809753 
z
" clip-path="url(#pd0f5290387)" style="fill: #1f77b4"/>
   </g>
   <g id="patch_169">
    <path d="M 187.776439 307.584 
L 188.4567 307.584 
L 188.4567 217.317699 
L 187.776439 217.317699 
z
" clip-path="url(#pd0f5290387)" style="fill: #1f77b4"/>
   </g>
   <g id="patch_170">
    <path d="M 225.190792 307.584 
L 225.871053 307.584 
L 225.871053 283.281534 
L 225.190792 283.281534 
z
" clip-path="url(#pd0f5290387)" style="fill: #1f77b4"/>
   </g>
   <g id="patch_171">
    <path d="M 214.986877 307.584 
L 215.667138 307.584 
L 215.667138 276.337973 
L 214.986877 276.337973 
z
" clip-path="url(#pd0f5290387)" style="fill: #1f77b4"/>
   </g>
   <g id="patch_172">
    <path d="M 250.700578 307.584 
L 251.380839 307.584 
L 251.380839 300.640438 
L 250.700578 300.640438 
z
" clip-path="url(#pd0f5290387)" style="fill: #1f77b4"/>
   </g>
   <g id="patch_173">
    <path d="M 190.327417 307.584 
L 191.007678 307.584 
L 191.007678 241.620164 
L 190.327417 241.620164 
z
" clip-path="url(#pd0f5290387)" style="fill: #1f77b4"/>
   </g>
   <g id="patch_174">
    <path d="M 248.1496 307.584 
L 248.82986 307.584 
L 248.82986 293.696877 
L 248.1496 293.696877 
z
" clip-path="url(#pd0f5290387)" style="fill: #1f77b4"/>
   </g>
   <g id="patch_175">
    <path d="M 254.952209 307.584 
L 255.63247 307.584 
L 255.63247 297.168658 
L 254.952209 297.168658 
z
" clip-path="url(#pd0f5290387)" style="fill: #1f77b4"/>
   </g>
   <g id="patch_176">
    <path d="M 221.789487 307.584 
L 222.469748 307.584 
L 222.469748 272.866192 
L 221.789487 272.866192 
z
" clip-path="url(#pd0f5290387)" style="fill: #1f77b4"/>
   </g>
   <g id="patch_177">
    <path d="M 201.381658 307.584 
L 202.061919 307.584 
L 202.061919 258.979068 
L 201.381658 258.979068 
z
" clip-path="url(#pd0f5290387)" style="fill: #1f77b4"/>
   </g>
   <g id="patch_178">
    <path d="M 226.041118 307.584 
L 226.721379 307.584 
L 226.721379 276.337973 
L 226.041118 276.337973 
z
" clip-path="url(#pd0f5290387)" style="fill: #1f77b4"/>
   </g>
   <g id="patch_179">
    <path d="M 230.292749 307.584 
L 230.97301 307.584 
L 230.97301 293.696877 
L 230.292749 293.696877 
z
" clip-path="url(#pd0f5290387)" style="fill: #1f77b4"/>
   </g>
   <g id="patch_180">
    <path d="M 226.891444 307.584 
L 227.571705 307.584 
L 227.571705 283.281534 
L 226.891444 283.281534 
z
" clip-path="url(#pd0f5290387)" style="fill: #1f77b4"/>
   </g>
   <g id="patch_181">
    <path d="M 224.340466 307.584 
L 225.020727 307.584 
L 225.020727 279.809753 
L 224.340466 279.809753 
z
" clip-path="url(#pd0f5290387)" style="fill: #1f77b4"/>
   </g>
   <g id="patch_182">
    <path d="M 214.136551 307.584 
L 214.816812 307.584 
L 214.816812 272.866192 
L 214.136551 272.866192 
z
" clip-path="url(#pd0f5290387)" style="fill: #1f77b4"/>
   </g>
   <g id="patch_183">
    <path d="M 216.68753 307.584 
L 217.367791 307.584 
L 217.367791 283.281534 
L 216.68753 283.281534 
z
" clip-path="url(#pd0f5290387)" style="fill: #1f77b4"/>
   </g>
   <g id="patch_184">
    <path d="M 231.993402 307.584 
L 232.673663 307.584 
L 232.673663 283.281534 
L 231.993402 283.281534 
z
" clip-path="url(#pd0f5290387)" style="fill: #1f77b4"/>
   </g>
   <g id="patch_185">
    <path d="M 222.639813 307.584 
L 223.320074 307.584 
L 223.320074 265.92263 
L 222.639813 265.92263 
z
" clip-path="url(#pd0f5290387)" style="fill: #1f77b4"/>
   </g>
   <g id="patch_186">
    <path d="M 233.694054 307.584 
L 234.374315 307.584 
L 234.374315 300.640438 
L 233.694054 300.640438 
z
" clip-path="url(#pd0f5290387)" style="fill: #1f77b4"/>
   </g>
   <g id="patch_187">
    <path d="M 248.999926 307.584 
L 249.680187 307.584 
L 249.680187 290.225096 
L 248.999926 290.225096 
z
" clip-path="url(#pd0f5290387)" style="fill: #1f77b4"/>
   </g>
   <g id="patch_188">
    <path d="M 213.286225 307.584 
L 213.966486 307.584 
L 213.966486 262.450849 
L 213.286225 262.450849 
z
" clip-path="url(#pd0f5290387)" style="fill: #1f77b4"/>
   </g>
   <g id="patch_189">
    <path d="M 247.299273 307.584 
L 247.979534 307.584 
L 247.979534 297.168658 
L 247.299273 297.168658 
z
" clip-path="url(#pd0f5290387)" style="fill: #1f77b4"/>
   </g>
   <g id="patch_190">
    <path d="M 282.162648 307.584 
L 282.842909 307.584 
L 282.842909 297.168658 
L 282.162648 297.168658 
z
" clip-path="url(#pd0f5290387)" style="fill: #1f77b4"/>
   </g>
   <g id="patch_191">
    <path d="M 220.939161 307.584 
L 221.619422 307.584 
L 221.619422 258.979068 
L 220.939161 258.979068 
z
" clip-path="url(#pd0f5290387)" style="fill: #1f77b4"/>
   </g>
   <g id="patch_192">
    <path d="M 235.394706 307.584 
L 236.074967 307.584 
L 236.074967 290.225096 
L 235.394706 290.225096 
z
" clip-path="url(#pd0f5290387)" style="fill: #1f77b4"/>
   </g>
   <g id="patch_193">
    <path d="M 262.605145 307.584 
L 263.285406 307.584 
L 263.285406 293.696877 
L 262.605145 293.696877 
z
" clip-path="url(#pd0f5290387)" style="fill: #1f77b4"/>
   </g>
   <g id="patch_194">
    <path d="M 242.197316 307.584 
L 242.877577 307.584 
L 242.877577 286.753315 
L 242.197316 286.753315 
z
" clip-path="url(#pd0f5290387)" style="fill: #1f77b4"/>
   </g>
   <g id="patch_195">
    <path d="M 232.843728 307.584 
L 233.523989 307.584 
L 233.523989 279.809753 
L 232.843728 279.809753 
z
" clip-path="url(#pd0f5290387)" style="fill: #1f77b4"/>
   </g>
   <g id="patch_196">
    <path d="M 251.550904 307.584 
L 252.231165 307.584 
L 252.231165 290.225096 
L 251.550904 290.225096 
z
" clip-path="url(#pd0f5290387)" style="fill: #1f77b4"/>
   </g>
   <g id="patch_197">
    <path d="M 218.388182 307.584 
L 219.068443 307.584 
L 219.068443 293.696877 
L 218.388182 293.696877 
z
" clip-path="url(#pd0f5290387)" style="fill: #1f77b4"/>
   </g>
   <g id="patch_198">
    <path d="M 229.442423 307.584 
L 230.122684 307.584 
L 230.122684 286.753315 
L 229.442423 286.753315 
z
" clip-path="url(#pd0f5290387)" style="fill: #1f77b4"/>
   </g>
   <g id="patch_199">
    <path d="M 243.897968 307.584 
L 244.578229 307.584 
L 244.578229 297.168658 
L 243.897968 297.168658 
z
" clip-path="url(#pd0f5290387)" style="fill: #1f77b4"/>
   </g>
   <g id="patch_200">
    <path d="M 215.837204 307.584 
L 216.517465 307.584 
L 216.517465 276.337973 
L 215.837204 276.337973 
z
" clip-path="url(#pd0f5290387)" style="fill: #1f77b4"/>
   </g>
   <g id="patch_201">
    <path d="M 283.012974 307.584 
L 283.693235 307.584 
L 283.693235 304.112219 
L 283.012974 304.112219 
z
" clip-path="url(#pd0f5290387)" style="fill: #1f77b4"/>
   </g>
   <g id="patch_202">
    <path d="M 241.34699 307.584 
L 242.027251 307.584 
L 242.027251 286.753315 
L 241.34699 286.753315 
z
" clip-path="url(#pd0f5290387)" style="fill: #1f77b4"/>
   </g>
   <g id="patch_203">
    <path d="M 227.741771 307.584 
L 228.422032 307.584 
L 228.422032 283.281534 
L 227.741771 283.281534 
z
" clip-path="url(#pd0f5290387)" style="fill: #1f77b4"/>
   </g>
   <g id="patch_204">
    <path d="M 254.101883 307.584 
L 254.782144 307.584 
L 254.782144 297.168658 
L 254.101883 297.168658 
z
" clip-path="url(#pd0f5290387)" style="fill: #1f77b4"/>
   </g>
   <g id="patch_205">
    <path d="M 238.796011 307.584 
L 239.476272 307.584 
L 239.476272 300.640438 
L 238.796011 300.640438 
z
" clip-path="url(#pd0f5290387)" style="fill: #1f77b4"/>
   </g>
   <g id="patch_206">
    <path d="M 269.407755 307.584 
L 270.088016 307.584 
L 270.088016 300.640438 
L 269.407755 300.640438 
z
" clip-path="url(#pd0f5290387)" style="fill: #1f77b4"/>
   </g>
   <g id="patch_207">
    <path d="M 266.856776 307.584 
L 267.537037 307.584 
L 267.537037 300.640438 
L 266.856776 300.640438 
z
" clip-path="url(#pd0f5290387)" style="fill: #1f77b4"/>
   </g>
   <g id="patch_208">
    <path d="M 228.592097 307.584 
L 229.272358 307.584 
L 229.272358 293.696877 
L 228.592097 293.696877 
z
" clip-path="url(#pd0f5290387)" style="fill: #1f77b4"/>
   </g>
   <g id="patch_209">
    <path d="M 255.802535 307.584 
L 256.482796 307.584 
L 256.482796 300.640438 
L 255.802535 300.640438 
z
" clip-path="url(#pd0f5290387)" style="fill: #1f77b4"/>
   </g>
   <g id="patch_210">
    <path d="M 256.652862 307.584 
L 257.333123 307.584 
L 257.333123 297.168658 
L 256.652862 297.168658 
z
" clip-path="url(#pd0f5290387)" style="fill: #1f77b4"/>
   </g>
   <g id="patch_211">
    <path d="M 277.911017 307.584 
L 278.591278 307.584 
L 278.591278 304.112219 
L 277.911017 304.112219 
z
" clip-path="url(#pd0f5290387)" style="fill: #1f77b4"/>
   </g>
   <g id="patch_212">
    <path d="M 253.251557 307.584 
L 253.931818 307.584 
L 253.931818 300.640438 
L 253.251557 300.640438 
z
" clip-path="url(#pd0f5290387)" style="fill: #1f77b4"/>
   </g>
   <g id="patch_213">
    <path d="M 237.945685 307.584 
L 238.625946 307.584 
L 238.625946 297.168658 
L 237.945685 297.168658 
z
" clip-path="url(#pd0f5290387)" style="fill: #1f77b4"/>
   </g>
   <g id="patch_214">
    <path d="M 260.054166 307.584 
L 260.734427 307.584 
L 260.734427 290.225096 
L 260.054166 290.225096 
z
" clip-path="url(#pd0f5290387)" style="fill: #1f77b4"/>
   </g>
   <g id="patch_215">
    <path d="M 260.904493 307.584 
L 261.584754 307.584 
L 261.584754 297.168658 
L 260.904493 297.168658 
z
" clip-path="url(#pd0f5290387)" style="fill: #1f77b4"/>
   </g>
   <g id="patch_216">
    <path d="M 275.360038 307.584 
L 276.040299 307.584 
L 276.040299 297.168658 
L 275.360038 297.168658 
z
" clip-path="url(#pd0f5290387)" style="fill: #1f77b4"/>
   </g>
   <g id="patch_217">
    <path d="M 240.496664 307.584 
L 241.176925 307.584 
L 241.176925 293.696877 
L 240.496664 293.696877 
z
" clip-path="url(#pd0f5290387)" style="fill: #1f77b4"/>
   </g>
   <g id="patch_218">
    <path d="M 217.537856 307.584 
L 218.218117 307.584 
L 218.218117 272.866192 
L 217.537856 272.866192 
z
" clip-path="url(#pd0f5290387)" style="fill: #1f77b4"/>
   </g>
   <g id="patch_219">
    <path d="M 231.143075 307.584 
L 231.823336 307.584 
L 231.823336 290.225096 
L 231.143075 290.225096 
z
" clip-path="url(#pd0f5290387)" style="fill: #1f77b4"/>
   </g>
   <g id="patch_220">
    <path d="M 308.52276 307.584 
L 309.203021 307.584 
L 309.203021 304.112219 
L 308.52276 304.112219 
z
" clip-path="url(#pd0f5290387)" style="fill: #1f77b4"/>
   </g>
   <g id="patch_221">
    <path d="M 277.060691 307.584 
L 277.740951 307.584 
L 277.740951 304.112219 
L 277.060691 304.112219 
z
" clip-path="url(#pd0f5290387)" style="fill: #1f77b4"/>
   </g>
   <g id="patch_222">
    <path d="M 271.958733 307.584 
L 272.638994 307.584 
L 272.638994 304.112219 
L 271.958733 304.112219 
z
" clip-path="url(#pd0f5290387)" style="fill: #1f77b4"/>
   </g>
   <g id="patch_223">
    <path d="M 317.026022 307.584 
L 317.706283 307.584 
L 317.706283 304.112219 
L 317.026022 304.112219 
z
" clip-path="url(#pd0f5290387)" style="fill: #1f77b4"/>
   </g>
   <g id="patch_224">
    <path d="M 266.00645 307.584 
L 266.686711 307.584 
L 266.686711 304.112219 
L 266.00645 304.112219 
z
" clip-path="url(#pd0f5290387)" style="fill: #1f77b4"/>
   </g>
   <g id="patch_225">
    <path d="M 237.095359 307.584 
L 237.77562 307.584 
L 237.77562 297.168658 
L 237.095359 297.168658 
z
" clip-path="url(#pd0f5290387)" style="fill: #1f77b4"/>
   </g>
   <g id="patch_226">
    <path d="M 246.448947 307.584 
L 247.129208 307.584 
L 247.129208 304.112219 
L 246.448947 304.112219 
z
" clip-path="url(#pd0f5290387)" style="fill: #1f77b4"/>
   </g>
   <g id="patch_227">
    <path d="M 259.20384 307.584 
L 259.884101 307.584 
L 259.884101 304.112219 
L 259.20384 304.112219 
z
" clip-path="url(#pd0f5290387)" style="fill: #1f77b4"/>
   </g>
   <g id="patch_228">
    <path d="M 252.401231 307.584 
L 253.081491 307.584 
L 253.081491 304.112219 
L 252.401231 304.112219 
z
" clip-path="url(#pd0f5290387)" style="fill: #1f77b4"/>
   </g>
   <g id="patch_229">
    <path d="M 249.850252 307.584 
L 250.530513 307.584 
L 250.530513 300.640438 
L 249.850252 300.640438 
z
" clip-path="url(#pd0f5290387)" style="fill: #1f77b4"/>
   </g>
   <g id="patch_230">
    <path d="M 274.509712 307.584 
L 275.189973 307.584 
L 275.189973 300.640438 
L 274.509712 300.640438 
z
" clip-path="url(#pd0f5290387)" style="fill: #1f77b4"/>
   </g>
   <g id="patch_231">
    <path d="M 272.809059 307.584 
L 273.48932 307.584 
L 273.48932 297.168658 
L 272.809059 297.168658 
z
" clip-path="url(#pd0f5290387)" style="fill: #1f77b4"/>
   </g>
   <g id="patch_232">
    <path d="M 294.917541 307.584 
L 295.597802 307.584 
L 295.597802 304.112219 
L 294.917541 304.112219 
z
" clip-path="url(#pd0f5290387)" style="fill: #1f77b4"/>
   </g>
   <g id="patch_233">
    <path d="M 296.618193 307.584 
L 297.298454 307.584 
L 297.298454 304.112219 
L 296.618193 304.112219 
z
" clip-path="url(#pd0f5290387)" style="fill: #1f77b4"/>
   </g>
   <g id="patch_234">
    <path d="M 244.748295 307.584 
L 245.428556 307.584 
L 245.428556 290.225096 
L 244.748295 290.225096 
z
" clip-path="url(#pd0f5290387)" style="fill: #1f77b4"/>
   </g>
   <g id="patch_235">
    <path d="M 356.141028 307.584 
L 356.821289 307.584 
L 356.821289 304.112219 
L 356.141028 304.112219 
z
" clip-path="url(#pd0f5290387)" style="fill: #1f77b4"/>
   </g>
   <g id="patch_236">
    <path d="M 261.754819 307.584 
L 262.43508 307.584 
L 262.43508 293.696877 
L 261.754819 293.696877 
z
" clip-path="url(#pd0f5290387)" style="fill: #1f77b4"/>
   </g>
   <g id="patch_237">
    <path d="M 297.468519 307.584 
L 298.14878 307.584 
L 298.14878 304.112219 
L 297.468519 304.112219 
z
" clip-path="url(#pd0f5290387)" style="fill: #1f77b4"/>
   </g>
   <g id="patch_238">
    <path d="M 257.503188 307.584 
L 258.183449 307.584 
L 258.183449 297.168658 
L 257.503188 297.168658 
z
" clip-path="url(#pd0f5290387)" style="fill: #1f77b4"/>
   </g>
   <g id="patch_239">
    <path d="M 239.646337 307.584 
L 240.326598 307.584 
L 240.326598 293.696877 
L 239.646337 293.696877 
z
" clip-path="url(#pd0f5290387)" style="fill: #1f77b4"/>
   </g>
   <g id="patch_240">
    <path d="M 276.210364 307.584 
L 276.890625 307.584 
L 276.890625 304.112219 
L 276.210364 304.112219 
z
" clip-path="url(#pd0f5290387)" style="fill: #1f77b4"/>
   </g>
   <g id="patch_241">
    <path d="M 264.305797 307.584 
L 264.986058 307.584 
L 264.986058 300.640438 
L 264.305797 300.640438 
z
" clip-path="url(#pd0f5290387)" style="fill: #1f77b4"/>
   </g>
   <g id="patch_242">
    <path d="M 288.114931 307.584 
L 288.795192 307.584 
L 288.795192 304.112219 
L 288.114931 304.112219 
z
" clip-path="url(#pd0f5290387)" style="fill: #1f77b4"/>
   </g>
   <g id="patch_243">
    <path d="M 288.965257 307.584 
L 289.645518 307.584 
L 289.645518 304.112219 
L 288.965257 304.112219 
z
" clip-path="url(#pd0f5290387)" style="fill: #1f77b4"/>
   </g>
   <g id="patch_244">
    <path d="M 279.611669 307.584 
L 280.29193 307.584 
L 280.29193 297.168658 
L 279.611669 297.168658 
z
" clip-path="url(#pd0f5290387)" style="fill: #1f77b4"/>
   </g>
   <g id="patch_245">
    <path d="M 281.312322 307.584 
L 281.992583 307.584 
L 281.992583 300.640438 
L 281.312322 300.640438 
z
" clip-path="url(#pd0f5290387)" style="fill: #1f77b4"/>
   </g>
   <g id="patch_246">
    <path d="M 258.353514 307.584 
L 259.033775 307.584 
L 259.033775 304.112219 
L 258.353514 304.112219 
z
" clip-path="url(#pd0f5290387)" style="fill: #1f77b4"/>
   </g>
   <g id="patch_247">
    <path d="M 245.598621 307.584 
L 246.278882 307.584 
L 246.278882 300.640438 
L 245.598621 300.640438 
z
" clip-path="url(#pd0f5290387)" style="fill: #1f77b4"/>
   </g>
   <g id="patch_248">
    <path d="M 397.807012 307.584 
L 398.487273 307.584 
L 398.487273 304.112219 
L 397.807012 304.112219 
z
" clip-path="url(#pd0f5290387)" style="fill: #1f77b4"/>
   </g>
   <g id="patch_249">
    <path d="M 265.156124 307.584 
L 265.836385 307.584 
L 265.836385 304.112219 
L 265.156124 304.112219 
z
" clip-path="url(#pd0f5290387)" style="fill: #1f77b4"/>
   </g>
   <g id="patch_250">
    <path d="M 300.869824 307.584 
L 301.550085 307.584 
L 301.550085 304.112219 
L 300.869824 304.112219 
z
" clip-path="url(#pd0f5290387)" style="fill: #1f77b4"/>
   </g>
   <g id="patch_251">
    <path d="M 271.108407 307.584 
L 271.788668 307.584 
L 271.788668 304.112219 
L 271.108407 304.112219 
z
" clip-path="url(#pd0f5290387)" style="fill: #1f77b4"/>
   </g>
   <g id="patch_252">
    <path d="M 298.318846 307.584 
L 298.999107 307.584 
L 298.999107 304.112219 
L 298.318846 304.112219 
z
" clip-path="url(#pd0f5290387)" style="fill: #1f77b4"/>
   </g>
   <g id="patch_253">
    <path d="M 263.455471 307.584 
L 264.135732 307.584 
L 264.135732 300.640438 
L 263.455471 300.640438 
z
" clip-path="url(#pd0f5290387)" style="fill: #1f77b4"/>
   </g>
   <g id="patch_254">
    <path d="M 334.882873 307.584 
L 335.563133 307.584 
L 335.563133 304.112219 
L 334.882873 304.112219 
z
" clip-path="url(#pd0f5290387)" style="fill: #1f77b4"/>
   </g>
   <g id="patch_255">
    <path d="M 319.577001 307.584 
L 320.257262 307.584 
L 320.257262 304.112219 
L 319.577001 304.112219 
z
" clip-path="url(#pd0f5290387)" style="fill: #1f77b4"/>
   </g>
   <g id="patch_256">
    <path d="M 330.631241 307.584 
L 331.311502 307.584 
L 331.311502 304.112219 
L 330.631241 304.112219 
z
" clip-path="url(#pd0f5290387)" style="fill: #1f77b4"/>
   </g>
   <g id="patch_257">
    <path d="M 283.8633 307.584 
L 284.543561 307.584 
L 284.543561 304.112219 
L 283.8633 304.112219 
z
" clip-path="url(#pd0f5290387)" style="fill: #1f77b4"/>
   </g>
   <g id="patch_258">
    <path d="M 289.815584 307.584 
L 290.495845 307.584 
L 290.495845 304.112219 
L 289.815584 304.112219 
z
" clip-path="url(#pd0f5290387)" style="fill: #1f77b4"/>
   </g>
   <g id="matplotlib.axis_1">
    <g id="xtick_1">
     <g id="line2d_1">
      <defs>
       <path id="m87926a8233" d="M 0 0 
L 0 3.5 
" style="stroke: #000000; stroke-width: 0.8"/>
      </defs>
      <g>
       <use xlink:href="#m87926a8233" x="74.172858" y="307.584" style="stroke: #000000; stroke-width: 0.8"/>
      </g>
     </g>
     <g id="text_1">
      <!-- 0 -->
      <g transform="translate(70.991608 322.182437) scale(0.1 -0.1)">
       <defs>
        <path id="DejaVuSans-30" d="M 2034 4250 
Q 1547 4250 1301 3770 
Q 1056 3291 1056 2328 
Q 1056 1369 1301 889 
Q 1547 409 2034 409 
Q 2525 409 2770 889 
Q 3016 1369 3016 2328 
Q 3016 3291 2770 3770 
Q 2525 4250 2034 4250 
z
M 2034 4750 
Q 2819 4750 3233 4129 
Q 3647 3509 3647 2328 
Q 3647 1150 3233 529 
Q 2819 -91 2034 -91 
Q 1250 -91 836 529 
Q 422 1150 422 2328 
Q 422 3509 836 4129 
Q 1250 4750 2034 4750 
z
" transform="scale(0.015625)"/>
       </defs>
       <use xlink:href="#DejaVuSans-30"/>
      </g>
     </g>
    </g>
    <g id="xtick_2">
     <g id="line2d_2">
      <g>
       <use xlink:href="#m87926a8233" x="116.689168" y="307.584" style="stroke: #000000; stroke-width: 0.8"/>
      </g>
     </g>
     <g id="text_2">
      <!-- 50 -->
      <g transform="translate(110.326668 322.182437) scale(0.1 -0.1)">
       <defs>
        <path id="DejaVuSans-35" d="M 691 4666 
L 3169 4666 
L 3169 4134 
L 1269 4134 
L 1269 2991 
Q 1406 3038 1543 3061 
Q 1681 3084 1819 3084 
Q 2600 3084 3056 2656 
Q 3513 2228 3513 1497 
Q 3513 744 3044 326 
Q 2575 -91 1722 -91 
Q 1428 -91 1123 -41 
Q 819 9 494 109 
L 494 744 
Q 775 591 1075 516 
Q 1375 441 1709 441 
Q 2250 441 2565 725 
Q 2881 1009 2881 1497 
Q 2881 1984 2565 2268 
Q 2250 2553 1709 2553 
Q 1456 2553 1204 2497 
Q 953 2441 691 2322 
L 691 4666 
z
" transform="scale(0.015625)"/>
       </defs>
       <use xlink:href="#DejaVuSans-35"/>
       <use xlink:href="#DejaVuSans-30" x="63.623047"/>
      </g>
     </g>
    </g>
    <g id="xtick_3">
     <g id="line2d_3">
      <g>
       <use xlink:href="#m87926a8233" x="159.205478" y="307.584" style="stroke: #000000; stroke-width: 0.8"/>
      </g>
     </g>
     <g id="text_3">
      <!-- 100 -->
      <g transform="translate(149.661728 322.182437) scale(0.1 -0.1)">
       <defs>
        <path id="DejaVuSans-31" d="M 794 531 
L 1825 531 
L 1825 4091 
L 703 3866 
L 703 4441 
L 1819 4666 
L 2450 4666 
L 2450 531 
L 3481 531 
L 3481 0 
L 794 0 
L 794 531 
z
" transform="scale(0.015625)"/>
       </defs>
       <use xlink:href="#DejaVuSans-31"/>
       <use xlink:href="#DejaVuSans-30" x="63.623047"/>
       <use xlink:href="#DejaVuSans-30" x="127.246094"/>
      </g>
     </g>
    </g>
    <g id="xtick_4">
     <g id="line2d_4">
      <g>
       <use xlink:href="#m87926a8233" x="201.721789" y="307.584" style="stroke: #000000; stroke-width: 0.8"/>
      </g>
     </g>
     <g id="text_4">
      <!-- 150 -->
      <g transform="translate(192.178039 322.182437) scale(0.1 -0.1)">
       <use xlink:href="#DejaVuSans-31"/>
       <use xlink:href="#DejaVuSans-35" x="63.623047"/>
       <use xlink:href="#DejaVuSans-30" x="127.246094"/>
      </g>
     </g>
    </g>
    <g id="xtick_5">
     <g id="line2d_5">
      <g>
       <use xlink:href="#m87926a8233" x="244.238099" y="307.584" style="stroke: #000000; stroke-width: 0.8"/>
      </g>
     </g>
     <g id="text_5">
      <!-- 200 -->
      <g transform="translate(234.694349 322.182437) scale(0.1 -0.1)">
       <defs>
        <path id="DejaVuSans-32" d="M 1228 531 
L 3431 531 
L 3431 0 
L 469 0 
L 469 531 
Q 828 903 1448 1529 
Q 2069 2156 2228 2338 
Q 2531 2678 2651 2914 
Q 2772 3150 2772 3378 
Q 2772 3750 2511 3984 
Q 2250 4219 1831 4219 
Q 1534 4219 1204 4116 
Q 875 4013 500 3803 
L 500 4441 
Q 881 4594 1212 4672 
Q 1544 4750 1819 4750 
Q 2544 4750 2975 4387 
Q 3406 4025 3406 3419 
Q 3406 3131 3298 2873 
Q 3191 2616 2906 2266 
Q 2828 2175 2409 1742 
Q 1991 1309 1228 531 
z
" transform="scale(0.015625)"/>
       </defs>
       <use xlink:href="#DejaVuSans-32"/>
       <use xlink:href="#DejaVuSans-30" x="63.623047"/>
       <use xlink:href="#DejaVuSans-30" x="127.246094"/>
      </g>
     </g>
    </g>
    <g id="xtick_6">
     <g id="line2d_6">
      <g>
       <use xlink:href="#m87926a8233" x="286.754409" y="307.584" style="stroke: #000000; stroke-width: 0.8"/>
      </g>
     </g>
     <g id="text_6">
      <!-- 250 -->
      <g transform="translate(277.210659 322.182437) scale(0.1 -0.1)">
       <use xlink:href="#DejaVuSans-32"/>
       <use xlink:href="#DejaVuSans-35" x="63.623047"/>
       <use xlink:href="#DejaVuSans-30" x="127.246094"/>
      </g>
     </g>
    </g>
    <g id="xtick_7">
     <g id="line2d_7">
      <g>
       <use xlink:href="#m87926a8233" x="329.27072" y="307.584" style="stroke: #000000; stroke-width: 0.8"/>
      </g>
     </g>
     <g id="text_7">
      <!-- 300 -->
      <g transform="translate(319.72697 322.182437) scale(0.1 -0.1)">
       <defs>
        <path id="DejaVuSans-33" d="M 2597 2516 
Q 3050 2419 3304 2112 
Q 3559 1806 3559 1356 
Q 3559 666 3084 287 
Q 2609 -91 1734 -91 
Q 1441 -91 1130 -33 
Q 819 25 488 141 
L 488 750 
Q 750 597 1062 519 
Q 1375 441 1716 441 
Q 2309 441 2620 675 
Q 2931 909 2931 1356 
Q 2931 1769 2642 2001 
Q 2353 2234 1838 2234 
L 1294 2234 
L 1294 2753 
L 1863 2753 
Q 2328 2753 2575 2939 
Q 2822 3125 2822 3475 
Q 2822 3834 2567 4026 
Q 2313 4219 1838 4219 
Q 1578 4219 1281 4162 
Q 984 4106 628 3988 
L 628 4550 
Q 988 4650 1302 4700 
Q 1616 4750 1894 4750 
Q 2613 4750 3031 4423 
Q 3450 4097 3450 3541 
Q 3450 3153 3228 2886 
Q 3006 2619 2597 2516 
z
" transform="scale(0.015625)"/>
       </defs>
       <use xlink:href="#DejaVuSans-33"/>
       <use xlink:href="#DejaVuSans-30" x="63.623047"/>
       <use xlink:href="#DejaVuSans-30" x="127.246094"/>
      </g>
     </g>
    </g>
    <g id="xtick_8">
     <g id="line2d_8">
      <g>
       <use xlink:href="#m87926a8233" x="371.78703" y="307.584" style="stroke: #000000; stroke-width: 0.8"/>
      </g>
     </g>
     <g id="text_8">
      <!-- 350 -->
      <g transform="translate(362.24328 322.182437) scale(0.1 -0.1)">
       <use xlink:href="#DejaVuSans-33"/>
       <use xlink:href="#DejaVuSans-35" x="63.623047"/>
       <use xlink:href="#DejaVuSans-30" x="127.246094"/>
      </g>
     </g>
    </g>
    <g id="xtick_9">
     <g id="line2d_9">
      <g>
       <use xlink:href="#m87926a8233" x="414.30334" y="307.584" style="stroke: #000000; stroke-width: 0.8"/>
      </g>
     </g>
     <g id="text_9">
      <!-- 400 -->
      <g transform="translate(404.75959 322.182437) scale(0.1 -0.1)">
       <defs>
        <path id="DejaVuSans-34" d="M 2419 4116 
L 825 1625 
L 2419 1625 
L 2419 4116 
z
M 2253 4666 
L 3047 4666 
L 3047 1625 
L 3713 1625 
L 3713 1100 
L 3047 1100 
L 3047 0 
L 2419 0 
L 2419 1100 
L 313 1100 
L 313 1709 
L 2253 4666 
z
" transform="scale(0.015625)"/>
       </defs>
       <use xlink:href="#DejaVuSans-34"/>
       <use xlink:href="#DejaVuSans-30" x="63.623047"/>
       <use xlink:href="#DejaVuSans-30" x="127.246094"/>
      </g>
     </g>
    </g>
    <g id="text_10">
     <!-- Depth of Element -->
     <g transform="translate(192.231875 335.860562) scale(0.1 -0.1)">
      <defs>
       <path id="DejaVuSans-44" d="M 1259 4147 
L 1259 519 
L 2022 519 
Q 2988 519 3436 956 
Q 3884 1394 3884 2338 
Q 3884 3275 3436 3711 
Q 2988 4147 2022 4147 
L 1259 4147 
z
M 628 4666 
L 1925 4666 
Q 3281 4666 3915 4102 
Q 4550 3538 4550 2338 
Q 4550 1131 3912 565 
Q 3275 0 1925 0 
L 628 0 
L 628 4666 
z
" transform="scale(0.015625)"/>
       <path id="DejaVuSans-65" d="M 3597 1894 
L 3597 1613 
L 953 1613 
Q 991 1019 1311 708 
Q 1631 397 2203 397 
Q 2534 397 2845 478 
Q 3156 559 3463 722 
L 3463 178 
Q 3153 47 2828 -22 
Q 2503 -91 2169 -91 
Q 1331 -91 842 396 
Q 353 884 353 1716 
Q 353 2575 817 3079 
Q 1281 3584 2069 3584 
Q 2775 3584 3186 3129 
Q 3597 2675 3597 1894 
z
M 3022 2063 
Q 3016 2534 2758 2815 
Q 2500 3097 2075 3097 
Q 1594 3097 1305 2825 
Q 1016 2553 972 2059 
L 3022 2063 
z
" transform="scale(0.015625)"/>
       <path id="DejaVuSans-70" d="M 1159 525 
L 1159 -1331 
L 581 -1331 
L 581 3500 
L 1159 3500 
L 1159 2969 
Q 1341 3281 1617 3432 
Q 1894 3584 2278 3584 
Q 2916 3584 3314 3078 
Q 3713 2572 3713 1747 
Q 3713 922 3314 415 
Q 2916 -91 2278 -91 
Q 1894 -91 1617 61 
Q 1341 213 1159 525 
z
M 3116 1747 
Q 3116 2381 2855 2742 
Q 2594 3103 2138 3103 
Q 1681 3103 1420 2742 
Q 1159 2381 1159 1747 
Q 1159 1113 1420 752 
Q 1681 391 2138 391 
Q 2594 391 2855 752 
Q 3116 1113 3116 1747 
z
" transform="scale(0.015625)"/>
       <path id="DejaVuSans-74" d="M 1172 4494 
L 1172 3500 
L 2356 3500 
L 2356 3053 
L 1172 3053 
L 1172 1153 
Q 1172 725 1289 603 
Q 1406 481 1766 481 
L 2356 481 
L 2356 0 
L 1766 0 
Q 1100 0 847 248 
Q 594 497 594 1153 
L 594 3053 
L 172 3053 
L 172 3500 
L 594 3500 
L 594 4494 
L 1172 4494 
z
" transform="scale(0.015625)"/>
       <path id="DejaVuSans-68" d="M 3513 2113 
L 3513 0 
L 2938 0 
L 2938 2094 
Q 2938 2591 2744 2837 
Q 2550 3084 2163 3084 
Q 1697 3084 1428 2787 
Q 1159 2491 1159 1978 
L 1159 0 
L 581 0 
L 581 4863 
L 1159 4863 
L 1159 2956 
Q 1366 3272 1645 3428 
Q 1925 3584 2291 3584 
Q 2894 3584 3203 3211 
Q 3513 2838 3513 2113 
z
" transform="scale(0.015625)"/>
       <path id="DejaVuSans-20" transform="scale(0.015625)"/>
       <path id="DejaVuSans-6f" d="M 1959 3097 
Q 1497 3097 1228 2736 
Q 959 2375 959 1747 
Q 959 1119 1226 758 
Q 1494 397 1959 397 
Q 2419 397 2687 759 
Q 2956 1122 2956 1747 
Q 2956 2369 2687 2733 
Q 2419 3097 1959 3097 
z
M 1959 3584 
Q 2709 3584 3137 3096 
Q 3566 2609 3566 1747 
Q 3566 888 3137 398 
Q 2709 -91 1959 -91 
Q 1206 -91 779 398 
Q 353 888 353 1747 
Q 353 2609 779 3096 
Q 1206 3584 1959 3584 
z
" transform="scale(0.015625)"/>
       <path id="DejaVuSans-66" d="M 2375 4863 
L 2375 4384 
L 1825 4384 
Q 1516 4384 1395 4259 
Q 1275 4134 1275 3809 
L 1275 3500 
L 2222 3500 
L 2222 3053 
L 1275 3053 
L 1275 0 
L 697 0 
L 697 3053 
L 147 3053 
L 147 3500 
L 697 3500 
L 697 3744 
Q 697 4328 969 4595 
Q 1241 4863 1831 4863 
L 2375 4863 
z
" transform="scale(0.015625)"/>
       <path id="DejaVuSans-45" d="M 628 4666 
L 3578 4666 
L 3578 4134 
L 1259 4134 
L 1259 2753 
L 3481 2753 
L 3481 2222 
L 1259 2222 
L 1259 531 
L 3634 531 
L 3634 0 
L 628 0 
L 628 4666 
z
" transform="scale(0.015625)"/>
       <path id="DejaVuSans-6c" d="M 603 4863 
L 1178 4863 
L 1178 0 
L 603 0 
L 603 4863 
z
" transform="scale(0.015625)"/>
       <path id="DejaVuSans-6d" d="M 3328 2828 
Q 3544 3216 3844 3400 
Q 4144 3584 4550 3584 
Q 5097 3584 5394 3201 
Q 5691 2819 5691 2113 
L 5691 0 
L 5113 0 
L 5113 2094 
Q 5113 2597 4934 2840 
Q 4756 3084 4391 3084 
Q 3944 3084 3684 2787 
Q 3425 2491 3425 1978 
L 3425 0 
L 2847 0 
L 2847 2094 
Q 2847 2600 2669 2842 
Q 2491 3084 2119 3084 
Q 1678 3084 1418 2786 
Q 1159 2488 1159 1978 
L 1159 0 
L 581 0 
L 581 3500 
L 1159 3500 
L 1159 2956 
Q 1356 3278 1631 3431 
Q 1906 3584 2284 3584 
Q 2666 3584 2933 3390 
Q 3200 3197 3328 2828 
z
" transform="scale(0.015625)"/>
       <path id="DejaVuSans-6e" d="M 3513 2113 
L 3513 0 
L 2938 0 
L 2938 2094 
Q 2938 2591 2744 2837 
Q 2550 3084 2163 3084 
Q 1697 3084 1428 2787 
Q 1159 2491 1159 1978 
L 1159 0 
L 581 0 
L 581 3500 
L 1159 3500 
L 1159 2956 
Q 1366 3272 1645 3428 
Q 1925 3584 2291 3584 
Q 2894 3584 3203 3211 
Q 3513 2838 3513 2113 
z
" transform="scale(0.015625)"/>
      </defs>
      <use xlink:href="#DejaVuSans-44"/>
      <use xlink:href="#DejaVuSans-65" x="77.001953"/>
      <use xlink:href="#DejaVuSans-70" x="138.525391"/>
      <use xlink:href="#DejaVuSans-74" x="202.001953"/>
      <use xlink:href="#DejaVuSans-68" x="241.210938"/>
      <use xlink:href="#DejaVuSans-20" x="304.589844"/>
      <use xlink:href="#DejaVuSans-6f" x="336.376953"/>
      <use xlink:href="#DejaVuSans-66" x="397.558594"/>
      <use xlink:href="#DejaVuSans-20" x="432.763672"/>
      <use xlink:href="#DejaVuSans-45" x="464.550781"/>
      <use xlink:href="#DejaVuSans-6c" x="527.734375"/>
      <use xlink:href="#DejaVuSans-65" x="555.517578"/>
      <use xlink:href="#DejaVuSans-6d" x="617.041016"/>
      <use xlink:href="#DejaVuSans-65" x="714.453125"/>
      <use xlink:href="#DejaVuSans-6e" x="775.976562"/>
      <use xlink:href="#DejaVuSans-74" x="839.355469"/>
     </g>
    </g>
   </g>
   <g id="matplotlib.axis_2">
    <g id="ytick_1">
     <g id="line2d_10">
      <defs>
       <path id="ma79f156abb" d="M 0 0 
L -3.5 0 
" style="stroke: #000000; stroke-width: 0.8"/>
      </defs>
      <g>
       <use xlink:href="#ma79f156abb" x="57.6" y="307.584" style="stroke: #000000; stroke-width: 0.8"/>
      </g>
     </g>
     <g id="text_11">
      <!-- 0 -->
      <g transform="translate(44.2375 311.383219) scale(0.1 -0.1)">
       <use xlink:href="#DejaVuSans-30"/>
      </g>
     </g>
    </g>
    <g id="ytick_2">
     <g id="line2d_11">
      <g>
       <use xlink:href="#ma79f156abb" x="57.6" y="272.866192" style="stroke: #000000; stroke-width: 0.8"/>
      </g>
     </g>
     <g id="text_12">
      <!-- 10 -->
      <g transform="translate(37.875 276.665411) scale(0.1 -0.1)">
       <use xlink:href="#DejaVuSans-31"/>
       <use xlink:href="#DejaVuSans-30" x="63.623047"/>
      </g>
     </g>
    </g>
    <g id="ytick_3">
     <g id="line2d_12">
      <g>
       <use xlink:href="#ma79f156abb" x="57.6" y="238.148384" style="stroke: #000000; stroke-width: 0.8"/>
      </g>
     </g>
     <g id="text_13">
      <!-- 20 -->
      <g transform="translate(37.875 241.947602) scale(0.1 -0.1)">
       <use xlink:href="#DejaVuSans-32"/>
       <use xlink:href="#DejaVuSans-30" x="63.623047"/>
      </g>
     </g>
    </g>
    <g id="ytick_4">
     <g id="line2d_13">
      <g>
       <use xlink:href="#ma79f156abb" x="57.6" y="203.430575" style="stroke: #000000; stroke-width: 0.8"/>
      </g>
     </g>
     <g id="text_14">
      <!-- 30 -->
      <g transform="translate(37.875 207.229794) scale(0.1 -0.1)">
       <use xlink:href="#DejaVuSans-33"/>
       <use xlink:href="#DejaVuSans-30" x="63.623047"/>
      </g>
     </g>
    </g>
    <g id="ytick_5">
     <g id="line2d_14">
      <g>
       <use xlink:href="#ma79f156abb" x="57.6" y="168.712767" style="stroke: #000000; stroke-width: 0.8"/>
      </g>
     </g>
     <g id="text_15">
      <!-- 40 -->
      <g transform="translate(37.875 172.511986) scale(0.1 -0.1)">
       <use xlink:href="#DejaVuSans-34"/>
       <use xlink:href="#DejaVuSans-30" x="63.623047"/>
      </g>
     </g>
    </g>
    <g id="ytick_6">
     <g id="line2d_15">
      <g>
       <use xlink:href="#ma79f156abb" x="57.6" y="133.994959" style="stroke: #000000; stroke-width: 0.8"/>
      </g>
     </g>
     <g id="text_16">
      <!-- 50 -->
      <g transform="translate(37.875 137.794178) scale(0.1 -0.1)">
       <use xlink:href="#DejaVuSans-35"/>
       <use xlink:href="#DejaVuSans-30" x="63.623047"/>
      </g>
     </g>
    </g>
    <g id="ytick_7">
     <g id="line2d_16">
      <g>
       <use xlink:href="#ma79f156abb" x="57.6" y="99.277151" style="stroke: #000000; stroke-width: 0.8"/>
      </g>
     </g>
     <g id="text_17">
      <!-- 60 -->
      <g transform="translate(37.875 103.076369) scale(0.1 -0.1)">
       <defs>
        <path id="DejaVuSans-36" d="M 2113 2584 
Q 1688 2584 1439 2293 
Q 1191 2003 1191 1497 
Q 1191 994 1439 701 
Q 1688 409 2113 409 
Q 2538 409 2786 701 
Q 3034 994 3034 1497 
Q 3034 2003 2786 2293 
Q 2538 2584 2113 2584 
z
M 3366 4563 
L 3366 3988 
Q 3128 4100 2886 4159 
Q 2644 4219 2406 4219 
Q 1781 4219 1451 3797 
Q 1122 3375 1075 2522 
Q 1259 2794 1537 2939 
Q 1816 3084 2150 3084 
Q 2853 3084 3261 2657 
Q 3669 2231 3669 1497 
Q 3669 778 3244 343 
Q 2819 -91 2113 -91 
Q 1303 -91 875 529 
Q 447 1150 447 2328 
Q 447 3434 972 4092 
Q 1497 4750 2381 4750 
Q 2619 4750 2861 4703 
Q 3103 4656 3366 4563 
z
" transform="scale(0.015625)"/>
       </defs>
       <use xlink:href="#DejaVuSans-36"/>
       <use xlink:href="#DejaVuSans-30" x="63.623047"/>
      </g>
     </g>
    </g>
    <g id="ytick_8">
     <g id="line2d_17">
      <g>
       <use xlink:href="#ma79f156abb" x="57.6" y="64.559342" style="stroke: #000000; stroke-width: 0.8"/>
      </g>
     </g>
     <g id="text_18">
      <!-- 70 -->
      <g transform="translate(37.875 68.358561) scale(0.1 -0.1)">
       <defs>
        <path id="DejaVuSans-37" d="M 525 4666 
L 3525 4666 
L 3525 4397 
L 1831 0 
L 1172 0 
L 2766 4134 
L 525 4134 
L 525 4666 
z
" transform="scale(0.015625)"/>
       </defs>
       <use xlink:href="#DejaVuSans-37"/>
       <use xlink:href="#DejaVuSans-30" x="63.623047"/>
      </g>
     </g>
    </g>
    <g id="text_19">
     <!-- Number of Elements -->
     <g transform="translate(31.795312 225.917062) rotate(-90) scale(0.1 -0.1)">
      <defs>
       <path id="DejaVuSans-4e" d="M 628 4666 
L 1478 4666 
L 3547 763 
L 3547 4666 
L 4159 4666 
L 4159 0 
L 3309 0 
L 1241 3903 
L 1241 0 
L 628 0 
L 628 4666 
z
" transform="scale(0.015625)"/>
       <path id="DejaVuSans-75" d="M 544 1381 
L 544 3500 
L 1119 3500 
L 1119 1403 
Q 1119 906 1312 657 
Q 1506 409 1894 409 
Q 2359 409 2629 706 
Q 2900 1003 2900 1516 
L 2900 3500 
L 3475 3500 
L 3475 0 
L 2900 0 
L 2900 538 
Q 2691 219 2414 64 
Q 2138 -91 1772 -91 
Q 1169 -91 856 284 
Q 544 659 544 1381 
z
M 1991 3584 
L 1991 3584 
z
" transform="scale(0.015625)"/>
       <path id="DejaVuSans-62" d="M 3116 1747 
Q 3116 2381 2855 2742 
Q 2594 3103 2138 3103 
Q 1681 3103 1420 2742 
Q 1159 2381 1159 1747 
Q 1159 1113 1420 752 
Q 1681 391 2138 391 
Q 2594 391 2855 752 
Q 3116 1113 3116 1747 
z
M 1159 2969 
Q 1341 3281 1617 3432 
Q 1894 3584 2278 3584 
Q 2916 3584 3314 3078 
Q 3713 2572 3713 1747 
Q 3713 922 3314 415 
Q 2916 -91 2278 -91 
Q 1894 -91 1617 61 
Q 1341 213 1159 525 
L 1159 0 
L 581 0 
L 581 4863 
L 1159 4863 
L 1159 2969 
z
" transform="scale(0.015625)"/>
       <path id="DejaVuSans-72" d="M 2631 2963 
Q 2534 3019 2420 3045 
Q 2306 3072 2169 3072 
Q 1681 3072 1420 2755 
Q 1159 2438 1159 1844 
L 1159 0 
L 581 0 
L 581 3500 
L 1159 3500 
L 1159 2956 
Q 1341 3275 1631 3429 
Q 1922 3584 2338 3584 
Q 2397 3584 2469 3576 
Q 2541 3569 2628 3553 
L 2631 2963 
z
" transform="scale(0.015625)"/>
       <path id="DejaVuSans-73" d="M 2834 3397 
L 2834 2853 
Q 2591 2978 2328 3040 
Q 2066 3103 1784 3103 
Q 1356 3103 1142 2972 
Q 928 2841 928 2578 
Q 928 2378 1081 2264 
Q 1234 2150 1697 2047 
L 1894 2003 
Q 2506 1872 2764 1633 
Q 3022 1394 3022 966 
Q 3022 478 2636 193 
Q 2250 -91 1575 -91 
Q 1294 -91 989 -36 
Q 684 19 347 128 
L 347 722 
Q 666 556 975 473 
Q 1284 391 1588 391 
Q 1994 391 2212 530 
Q 2431 669 2431 922 
Q 2431 1156 2273 1281 
Q 2116 1406 1581 1522 
L 1381 1569 
Q 847 1681 609 1914 
Q 372 2147 372 2553 
Q 372 3047 722 3315 
Q 1072 3584 1716 3584 
Q 2034 3584 2315 3537 
Q 2597 3491 2834 3397 
z
" transform="scale(0.015625)"/>
      </defs>
      <use xlink:href="#DejaVuSans-4e"/>
      <use xlink:href="#DejaVuSans-75" x="74.804688"/>
      <use xlink:href="#DejaVuSans-6d" x="138.183594"/>
      <use xlink:href="#DejaVuSans-62" x="235.595703"/>
      <use xlink:href="#DejaVuSans-65" x="299.072266"/>
      <use xlink:href="#DejaVuSans-72" x="360.595703"/>
      <use xlink:href="#DejaVuSans-20" x="401.708984"/>
      <use xlink:href="#DejaVuSans-6f" x="433.496094"/>
      <use xlink:href="#DejaVuSans-66" x="494.677734"/>
      <use xlink:href="#DejaVuSans-20" x="529.882812"/>
      <use xlink:href="#DejaVuSans-45" x="561.669922"/>
      <use xlink:href="#DejaVuSans-6c" x="624.853516"/>
      <use xlink:href="#DejaVuSans-65" x="652.636719"/>
      <use xlink:href="#DejaVuSans-6d" x="714.160156"/>
      <use xlink:href="#DejaVuSans-65" x="811.572266"/>
      <use xlink:href="#DejaVuSans-6e" x="873.095703"/>
      <use xlink:href="#DejaVuSans-74" x="936.474609"/>
      <use xlink:href="#DejaVuSans-73" x="975.683594"/>
     </g>
    </g>
   </g>
   <g id="patch_259">
    <path d="M 57.6 307.584 
L 57.6 41.472 
" style="fill: none; stroke: #000000; stroke-width: 0.8; stroke-linejoin: miter; stroke-linecap: square"/>
   </g>
   <g id="patch_260">
    <path d="M 414.72 307.584 
L 414.72 41.472 
" style="fill: none; stroke: #000000; stroke-width: 0.8; stroke-linejoin: miter; stroke-linecap: square"/>
   </g>
   <g id="patch_261">
    <path d="M 57.6 307.584 
L 414.72 307.584 
" style="fill: none; stroke: #000000; stroke-width: 0.8; stroke-linejoin: miter; stroke-linecap: square"/>
   </g>
   <g id="patch_262">
    <path d="M 57.6 41.472 
L 414.72 41.472 
" style="fill: none; stroke: #000000; stroke-width: 0.8; stroke-linejoin: miter; stroke-linecap: square"/>
   </g>
  </g>
 </g>
 <defs>
  <clipPath id="pd0f5290387">
   <rect x="57.6" y="41.472" width="357.12" height="266.112"/>
  </clipPath>
 </defs>
</svg>
