<?xml version="1.0" encoding="utf-8" standalone="no"?>
<!DOCTYPE svg PUBLIC "-//W3C//DTD SVG 1.1//EN"
  "http://www.w3.org/Graphics/SVG/1.1/DTD/svg11.dtd">
<svg xmlns:xlink="http://www.w3.org/1999/xlink" width="460.8pt" height="345.6pt" viewBox="0 0 460.8 345.6" xmlns="http://www.w3.org/2000/svg" version="1.1">
 <metadata>
  <rdf:RDF xmlns:dc="http://purl.org/dc/elements/1.1/" xmlns:cc="http://creativecommons.org/ns#" xmlns:rdf="http://www.w3.org/1999/02/22-rdf-syntax-ns#">
   <cc:Work>
    <dc:type rdf:resource="http://purl.org/dc/dcmitype/StillImage"/>
    <dc:date>2024-03-02T21:40:05.868527</dc:date>
    <dc:format>image/svg+xml</dc:format>
    <dc:creator>
     <cc:Agent>
      <dc:title>Matplotlib v3.8.3, https://matplotlib.org/</dc:title>
     </cc:Agent>
    </dc:creator>
   </cc:Work>
  </rdf:RDF>
 </metadata>
 <defs>
  <style type="text/css">*{stroke-linejoin: round; stroke-linecap: butt}</style>
 </defs>
 <g id="figure_1">
  <g id="patch_1">
   <path d="M 0 345.6 
L 460.8 345.6 
L 460.8 0 
L 0 0 
z
" style="fill: #ffffff"/>
  </g>
  <g id="axes_1">
   <g id="patch_2">
    <path d="M 57.6 307.584 
L 414.72 307.584 
L 414.72 41.472 
L 57.6 41.472 
z
" style="fill: #ffffff"/>
   </g>
   <g id="patch_3">
    <path d="M 73.832727 60585.81217 
L 75.277241 60585.81217 
L 75.277241 259.189608 
L 73.832727 259.189608 
z
" clip-path="url(#pfbe21055aa)" style="fill: #1f77b4"/>
   </g>
   <g id="patch_4">
    <path d="M 75.63837 60585.81217 
L 77.082884 60585.81217 
L 77.082884 235.197676 
L 75.63837 235.197676 
z
" clip-path="url(#pfbe21055aa)" style="fill: #1f77b4"/>
   </g>
   <g id="patch_5">
    <path d="M 79.249655 60585.81217 
L 80.694169 60585.81217 
L 80.694169 193.056548 
L 79.249655 193.056548 
z
" clip-path="url(#pfbe21055aa)" style="fill: #1f77b4"/>
   </g>
   <g id="patch_6">
    <path d="M 81.055298 60585.81217 
L 82.499812 60585.81217 
L 82.499812 170.133489 
L 81.055298 170.133489 
z
" clip-path="url(#pfbe21055aa)" style="fill: #1f77b4"/>
   </g>
   <g id="patch_7">
    <path d="M 86.472226 60585.81217 
L 87.91674 60585.81217 
L 87.91674 115.306812 
L 86.472226 115.306812 
z
" clip-path="url(#pfbe21055aa)" style="fill: #1f77b4"/>
   </g>
   <g id="patch_8">
    <path d="M 77.444013 60585.81217 
L 78.888527 60585.81217 
L 78.888527 218.391531 
L 77.444013 218.391531 
z
" clip-path="url(#pfbe21055aa)" style="fill: #1f77b4"/>
   </g>
   <g id="patch_9">
    <path d="M 82.86094 60585.81217 
L 84.305455 60585.81217 
L 84.305455 151.984293 
L 82.86094 151.984293 
z
" clip-path="url(#pfbe21055aa)" style="fill: #1f77b4"/>
   </g>
   <g id="patch_10">
    <path d="M 88.277868 60585.81217 
L 89.722382 60585.81217 
L 89.722382 100.800312 
L 88.277868 100.800312 
z
" clip-path="url(#pfbe21055aa)" style="fill: #1f77b4"/>
   </g>
   <g id="patch_11">
    <path d="M 84.666583 60585.81217 
L 86.111097 60585.81217 
L 86.111097 134.054209 
L 84.666583 134.054209 
z
" clip-path="url(#pfbe21055aa)" style="fill: #1f77b4"/>
   </g>
   <g id="patch_12">
    <path d="M 91.889154 60585.81217 
L 93.333668 60585.81217 
L 93.333668 78.272854 
L 91.889154 78.272854 
z
" clip-path="url(#pfbe21055aa)" style="fill: #1f77b4"/>
   </g>
   <g id="patch_13">
    <path d="M 90.083511 60585.81217 
L 91.528025 60585.81217 
L 91.528025 88.445622 
L 90.083511 88.445622 
z
" clip-path="url(#pfbe21055aa)" style="fill: #1f77b4"/>
   </g>
   <g id="patch_14">
    <path d="M 95.500439 60585.81217 
L 96.944953 60585.81217 
L 96.944953 60.15308 
L 95.500439 60.15308 
z
" clip-path="url(#pfbe21055aa)" style="fill: #1f77b4"/>
   </g>
   <g id="patch_15">
    <path d="M 93.694796 60585.81217 
L 95.13931 60585.81217 
L 95.13931 68.369428 
L 93.694796 68.369428 
z
" clip-path="url(#pfbe21055aa)" style="fill: #1f77b4"/>
   </g>
   <g id="patch_16">
    <path d="M 102.723009 60585.81217 
L 104.167524 60585.81217 
L 104.167524 64.965568 
L 102.723009 64.965568 
z
" clip-path="url(#pfbe21055aa)" style="fill: #1f77b4"/>
   </g>
   <g id="patch_17">
    <path d="M 97.306082 60585.81217 
L 98.750596 60585.81217 
L 98.750596 54.970827 
L 97.306082 54.970827 
z
" clip-path="url(#pfbe21055aa)" style="fill: #1f77b4"/>
   </g>
   <g id="patch_18">
    <path d="M 108.139937 60585.81217 
L 109.584451 60585.81217 
L 109.584451 142.330712 
L 108.139937 142.330712 
z
" clip-path="url(#pfbe21055aa)" style="fill: #1f77b4"/>
   </g>
   <g id="patch_19">
    <path d="M 106.334295 60585.81217 
L 107.778809 60585.81217 
L 107.778809 107.012524 
L 106.334295 107.012524 
z
" clip-path="url(#pfbe21055aa)" style="fill: #1f77b4"/>
   </g>
   <g id="patch_20">
    <path d="M 100.917367 60585.81217 
L 102.361881 60585.81217 
L 102.361881 55.719413 
L 100.917367 55.719413 
z
" clip-path="url(#pfbe21055aa)" style="fill: #1f77b4"/>
   </g>
   <g id="patch_21">
    <path d="M 111.751223 60585.81217 
L 113.195737 60585.81217 
L 113.195737 172.174815 
L 111.751223 172.174815 
z
" clip-path="url(#pfbe21055aa)" style="fill: #1f77b4"/>
   </g>
   <g id="patch_22">
    <path d="M 99.111724 60585.81217 
L 100.556238 60585.81217 
L 100.556238 53.568 
L 99.111724 53.568 
z
" clip-path="url(#pfbe21055aa)" style="fill: #1f77b4"/>
   </g>
   <g id="patch_23">
    <path d="M 104.528652 60585.81217 
L 105.973166 60585.81217 
L 105.973166 81.421464 
L 104.528652 81.421464 
z
" clip-path="url(#pfbe21055aa)" style="fill: #1f77b4"/>
   </g>
   <g id="patch_24">
    <path d="M 124.390721 60585.81217 
L 125.835235 60585.81217 
L 125.835235 183.508822 
L 124.390721 183.508822 
z
" clip-path="url(#pfbe21055aa)" style="fill: #1f77b4"/>
   </g>
   <g id="patch_25">
    <path d="M 109.94558 60585.81217 
L 111.390094 60585.81217 
L 111.390094 165.725838 
L 109.94558 165.725838 
z
" clip-path="url(#pfbe21055aa)" style="fill: #1f77b4"/>
   </g>
   <g id="patch_26">
    <path d="M 122.585078 60585.81217 
L 124.029592 60585.81217 
L 124.029592 180.42482 
L 122.585078 180.42482 
z
" clip-path="url(#pfbe21055aa)" style="fill: #1f77b4"/>
   </g>
   <g id="patch_27">
    <path d="M 115.362508 60585.81217 
L 116.807022 60585.81217 
L 116.807022 175.436334 
L 115.362508 175.436334 
z
" clip-path="url(#pfbe21055aa)" style="fill: #1f77b4"/>
   </g>
   <g id="patch_28">
    <path d="M 117.16815 60585.81217 
L 118.612665 60585.81217 
L 118.612665 182.093139 
L 117.16815 182.093139 
z
" clip-path="url(#pfbe21055aa)" style="fill: #1f77b4"/>
   </g>
   <g id="patch_29">
    <path d="M 113.556865 60585.81217 
L 115.001379 60585.81217 
L 115.001379 174.907352 
L 113.556865 174.907352 
z
" clip-path="url(#pfbe21055aa)" style="fill: #1f77b4"/>
   </g>
   <g id="patch_30">
    <path d="M 120.779436 60585.81217 
L 122.22395 60585.81217 
L 122.22395 179.472578 
L 120.779436 179.472578 
z
" clip-path="url(#pfbe21055aa)" style="fill: #1f77b4"/>
   </g>
   <g id="patch_31">
    <path d="M 140.641505 60585.81217 
L 142.086019 60585.81217 
L 142.086019 191.041419 
L 140.641505 191.041419 
z
" clip-path="url(#pfbe21055aa)" style="fill: #1f77b4"/>
   </g>
   <g id="patch_32">
    <path d="M 126.196364 60585.81217 
L 127.640878 60585.81217 
L 127.640878 184.623192 
L 126.196364 184.623192 
z
" clip-path="url(#pfbe21055aa)" style="fill: #1f77b4"/>
   </g>
   <g id="patch_33">
    <path d="M 131.613292 60585.81217 
L 133.057806 60585.81217 
L 133.057806 186.186866 
L 131.613292 186.186866 
z
" clip-path="url(#pfbe21055aa)" style="fill: #1f77b4"/>
   </g>
   <g id="patch_34">
    <path d="M 128.002006 60585.81217 
L 129.44652 60585.81217 
L 129.44652 188.282685 
L 128.002006 188.282685 
z
" clip-path="url(#pfbe21055aa)" style="fill: #1f77b4"/>
   </g>
   <g id="patch_35">
    <path d="M 133.418934 60585.81217 
L 134.863448 60585.81217 
L 134.863448 180.42482 
L 133.418934 180.42482 
z
" clip-path="url(#pfbe21055aa)" style="fill: #1f77b4"/>
   </g>
   <g id="patch_36">
    <path d="M 118.973793 60585.81217 
L 120.418307 60585.81217 
L 120.418307 171.939981 
L 118.973793 171.939981 
z
" clip-path="url(#pfbe21055aa)" style="fill: #1f77b4"/>
   </g>
   <g id="patch_37">
    <path d="M 147.864075 60585.81217 
L 149.308589 60585.81217 
L 149.308589 197.005657 
L 147.864075 197.005657 
z
" clip-path="url(#pfbe21055aa)" style="fill: #1f77b4"/>
   </g>
   <g id="patch_38">
    <path d="M 155.086646 60585.81217 
L 156.53116 60585.81217 
L 156.53116 203.15464 
L 155.086646 203.15464 
z
" clip-path="url(#pfbe21055aa)" style="fill: #1f77b4"/>
   </g>
   <g id="patch_39">
    <path d="M 129.807649 60585.81217 
L 131.252163 60585.81217 
L 131.252163 185.787106 
L 129.807649 185.787106 
z
" clip-path="url(#pfbe21055aa)" style="fill: #1f77b4"/>
   </g>
   <g id="patch_40">
    <path d="M 153.281003 60585.81217 
L 154.725517 60585.81217 
L 154.725517 200.242335 
L 153.281003 200.242335 
z
" clip-path="url(#pfbe21055aa)" style="fill: #1f77b4"/>
   </g>
   <g id="patch_41">
    <path d="M 158.697931 60585.81217 
L 160.142445 60585.81217 
L 160.142445 201.658018 
L 158.697931 201.658018 
z
" clip-path="url(#pfbe21055aa)" style="fill: #1f77b4"/>
   </g>
   <g id="patch_42">
    <path d="M 162.309216 60585.81217 
L 163.75373 60585.81217 
L 163.75373 202.395637 
L 162.309216 202.395637 
z
" clip-path="url(#pfbe21055aa)" style="fill: #1f77b4"/>
   </g>
   <g id="patch_43">
    <path d="M 146.058433 60585.81217 
L 147.502947 60585.81217 
L 147.502947 198.899284 
L 146.058433 198.899284 
z
" clip-path="url(#pfbe21055aa)" style="fill: #1f77b4"/>
   </g>
   <g id="patch_44">
    <path d="M 142.447147 60585.81217 
L 143.891661 60585.81217 
L 143.891661 202.395637 
L 142.447147 202.395637 
z
" clip-path="url(#pfbe21055aa)" style="fill: #1f77b4"/>
   </g>
   <g id="patch_45">
    <path d="M 138.835862 60585.81217 
L 140.280376 60585.81217 
L 140.280376 192.029602 
L 138.835862 192.029602 
z
" clip-path="url(#pfbe21055aa)" style="fill: #1f77b4"/>
   </g>
   <g id="patch_46">
    <path d="M 174.948715 60585.81217 
L 176.393229 60585.81217 
L 176.393229 211.205744 
L 174.948715 211.205744 
z
" clip-path="url(#pfbe21055aa)" style="fill: #1f77b4"/>
   </g>
   <g id="patch_47">
    <path d="M 169.531787 60585.81217 
L 170.976301 60585.81217 
L 170.976301 218.391531 
L 169.531787 218.391531 
z
" clip-path="url(#pfbe21055aa)" style="fill: #1f77b4"/>
   </g>
   <g id="patch_48">
    <path d="M 171.337429 60585.81217 
L 172.781944 60585.81217 
L 172.781944 210.178798 
L 171.337429 210.178798 
z
" clip-path="url(#pfbe21055aa)" style="fill: #1f77b4"/>
   </g>
   <g id="patch_49">
    <path d="M 205.644639 60585.81217 
L 207.089154 60585.81217 
L 207.089154 228.327994 
L 205.644639 228.327994 
z
" clip-path="url(#pfbe21055aa)" style="fill: #1f77b4"/>
   </g>
   <g id="patch_50">
    <path d="M 135.224577 60585.81217 
L 136.669091 60585.81217 
L 136.669091 193.056548 
L 135.224577 193.056548 
z
" clip-path="url(#pfbe21055aa)" style="fill: #1f77b4"/>
   </g>
   <g id="patch_51">
    <path d="M 137.030219 60585.81217 
L 138.474734 60585.81217 
L 138.474734 194.125421 
L 137.030219 194.125421 
z
" clip-path="url(#pfbe21055aa)" style="fill: #1f77b4"/>
   </g>
   <g id="patch_52">
    <path d="M 144.25279 60585.81217 
L 145.697304 60585.81217 
L 145.697304 197.005657 
L 144.25279 197.005657 
z
" clip-path="url(#pfbe21055aa)" style="fill: #1f77b4"/>
   </g>
   <g id="patch_53">
    <path d="M 198.422069 60585.81217 
L 199.866583 60585.81217 
L 199.866583 235.197676 
L 198.422069 235.197676 
z
" clip-path="url(#pfbe21055aa)" style="fill: #1f77b4"/>
   </g>
   <g id="patch_54">
    <path d="M 160.503574 60585.81217 
L 161.948088 60585.81217 
L 161.948088 203.15464 
L 160.503574 203.15464 
z
" clip-path="url(#pfbe21055aa)" style="fill: #1f77b4"/>
   </g>
   <g id="patch_55">
    <path d="M 183.976928 60585.81217 
L 185.421442 60585.81217 
L 185.421442 208.238373 
L 183.976928 208.238373 
z
" clip-path="url(#pfbe21055aa)" style="fill: #1f77b4"/>
   </g>
   <g id="patch_56">
    <path d="M 151.475361 60585.81217 
L 152.919875 60585.81217 
L 152.919875 205.57332 
L 151.475361 205.57332 
z
" clip-path="url(#pfbe21055aa)" style="fill: #1f77b4"/>
   </g>
   <g id="patch_57">
    <path d="M 156.892288 60585.81217 
L 158.336803 60585.81217 
L 158.336803 200.242335 
L 156.892288 200.242335 
z
" clip-path="url(#pfbe21055aa)" style="fill: #1f77b4"/>
   </g>
   <g id="patch_58">
    <path d="M 189.393856 60585.81217 
L 190.83837 60585.81217 
L 190.83837 228.327994 
L 189.393856 228.327994 
z
" clip-path="url(#pfbe21055aa)" style="fill: #1f77b4"/>
   </g>
   <g id="patch_59">
    <path d="M 182.171285 60585.81217 
L 183.615799 60585.81217 
L 183.615799 207.319551 
L 182.171285 207.319551 
z
" clip-path="url(#pfbe21055aa)" style="fill: #1f77b4"/>
   </g>
   <g id="patch_60">
    <path d="M 149.669718 60585.81217 
L 151.114232 60585.81217 
L 151.114232 195.239791 
L 149.669718 195.239791 
z
" clip-path="url(#pfbe21055aa)" style="fill: #1f77b4"/>
   </g>
   <g id="patch_61">
    <path d="M 178.56 60585.81217 
L 180.004514 60585.81217 
L 180.004514 212.274617 
L 178.56 212.274617 
z
" clip-path="url(#pfbe21055aa)" style="fill: #1f77b4"/>
   </g>
   <g id="patch_62">
    <path d="M 214.672853 60585.81217 
L 216.117367 60585.81217 
L 216.117367 244.536765 
L 214.672853 244.536765 
z
" clip-path="url(#pfbe21055aa)" style="fill: #1f77b4"/>
   </g>
   <g id="patch_63">
    <path d="M 164.114859 60585.81217 
L 165.559373 60585.81217 
L 165.559373 204.74202 
L 164.114859 204.74202 
z
" clip-path="url(#pfbe21055aa)" style="fill: #1f77b4"/>
   </g>
   <g id="patch_64">
    <path d="M 196.616426 60585.81217 
L 198.06094 60585.81217 
L 198.06094 218.391531 
L 196.616426 218.391531 
z
" clip-path="url(#pfbe21055aa)" style="fill: #1f77b4"/>
   </g>
   <g id="patch_65">
    <path d="M 187.588213 60585.81217 
L 189.032727 60585.81217 
L 189.032727 226.387569 
L 187.588213 226.387569 
z
" clip-path="url(#pfbe21055aa)" style="fill: #1f77b4"/>
   </g>
   <g id="patch_66">
    <path d="M 180.365643 60585.81217 
L 181.810157 60585.81217 
L 181.810157 217.04848 
L 180.365643 217.04848 
z
" clip-path="url(#pfbe21055aa)" style="fill: #1f77b4"/>
   </g>
   <g id="patch_67">
    <path d="M 167.726144 60585.81217 
L 169.170658 60585.81217 
L 169.170658 209.190615 
L 167.726144 209.190615 
z
" clip-path="url(#pfbe21055aa)" style="fill: #1f77b4"/>
   </g>
   <g id="patch_68">
    <path d="M 200.227712 60585.81217 
L 201.672226 60585.81217 
L 201.672226 221.303836 
L 200.227712 221.303836 
z
" clip-path="url(#pfbe21055aa)" style="fill: #1f77b4"/>
   </g>
   <g id="patch_69">
    <path d="M 165.920502 60585.81217 
L 167.365016 60585.81217 
L 167.365016 209.190615 
L 165.920502 209.190615 
z
" clip-path="url(#pfbe21055aa)" style="fill: #1f77b4"/>
   </g>
   <g id="patch_70">
    <path d="M 173.143072 60585.81217 
L 174.587586 60585.81217 
L 174.587586 204.74202 
L 173.143072 204.74202 
z
" clip-path="url(#pfbe21055aa)" style="fill: #1f77b4"/>
   </g>
   <g id="patch_71">
    <path d="M 193.005141 60585.81217 
L 194.449655 60585.81217 
L 194.449655 221.303836 
L 193.005141 221.303836 
z
" clip-path="url(#pfbe21055aa)" style="fill: #1f77b4"/>
   </g>
   <g id="patch_72">
    <path d="M 176.754357 60585.81217 
L 178.198871 60585.81217 
L 178.198871 211.205744 
L 176.754357 211.205744 
z
" clip-path="url(#pfbe21055aa)" style="fill: #1f77b4"/>
   </g>
   <g id="patch_73">
    <path d="M 229.117994 60585.81217 
L 230.562508 60585.81217 
L 230.562508 244.536765 
L 229.117994 244.536765 
z
" clip-path="url(#pfbe21055aa)" style="fill: #1f77b4"/>
   </g>
   <g id="patch_74">
    <path d="M 185.782571 60585.81217 
L 187.227085 60585.81217 
L 187.227085 222.891216 
L 185.782571 222.891216 
z
" clip-path="url(#pfbe21055aa)" style="fill: #1f77b4"/>
   </g>
   <g id="patch_75">
    <path d="M 232.729279 60585.81217 
L 234.173793 60585.81217 
L 234.173793 237.95641 
L 232.729279 237.95641 
z
" clip-path="url(#pfbe21055aa)" style="fill: #1f77b4"/>
   </g>
   <g id="patch_76">
    <path d="M 223.701066 60585.81217 
L 225.14558 60585.81217 
L 225.14558 228.327994 
L 223.701066 228.327994 
z
" clip-path="url(#pfbe21055aa)" style="fill: #1f77b4"/>
   </g>
   <g id="patch_77">
    <path d="M 191.199498 60585.81217 
L 192.644013 60585.81217 
L 192.644013 211.205744 
L 191.199498 211.205744 
z
" clip-path="url(#pfbe21055aa)" style="fill: #1f77b4"/>
   </g>
   <g id="patch_78">
    <path d="M 225.506708 60585.81217 
L 226.951223 60585.81217 
L 226.951223 248.573009 
L 225.506708 248.573009 
z
" clip-path="url(#pfbe21055aa)" style="fill: #1f77b4"/>
   </g>
   <g id="patch_79">
    <path d="M 202.033354 60585.81217 
L 203.477868 60585.81217 
L 203.477868 235.197676 
L 202.033354 235.197676 
z
" clip-path="url(#pfbe21055aa)" style="fill: #1f77b4"/>
   </g>
   <g id="patch_80">
    <path d="M 216.478495 60585.81217 
L 217.923009 60585.81217 
L 217.923009 241.040412 
L 216.478495 241.040412 
z
" clip-path="url(#pfbe21055aa)" style="fill: #1f77b4"/>
   </g>
   <g id="patch_81">
    <path d="M 207.450282 60585.81217 
L 208.894796 60585.81217 
L 208.894796 224.581077 
L 207.450282 224.581077 
z
" clip-path="url(#pfbe21055aa)" style="fill: #1f77b4"/>
   </g>
   <g id="patch_82">
    <path d="M 261.619561 60585.81217 
L 263.064075 60585.81217 
L 263.064075 253.346872 
L 261.619561 253.346872 
z
" clip-path="url(#pfbe21055aa)" style="fill: #1f77b4"/>
   </g>
   <g id="patch_83">
    <path d="M 234.534922 60585.81217 
L 235.979436 60585.81217 
L 235.979436 244.536765 
L 234.534922 244.536765 
z
" clip-path="url(#pfbe21055aa)" style="fill: #1f77b4"/>
   </g>
   <g id="patch_84">
    <path d="M 194.810784 60585.81217 
L 196.255298 60585.81217 
L 196.255298 230.423813 
L 194.810784 230.423813 
z
" clip-path="url(#pfbe21055aa)" style="fill: #1f77b4"/>
   </g>
   <g id="patch_85">
    <path d="M 239.95185 60585.81217 
L 241.396364 60585.81217 
L 241.396364 253.346872 
L 239.95185 253.346872 
z
" clip-path="url(#pfbe21055aa)" style="fill: #1f77b4"/>
   </g>
   <g id="patch_86">
    <path d="M 267.036489 60585.81217 
L 268.481003 60585.81217 
L 268.481003 277.338804 
L 267.036489 277.338804 
z
" clip-path="url(#pfbe21055aa)" style="fill: #1f77b4"/>
   </g>
   <g id="patch_87">
    <path d="M 279.675987 60585.81217 
L 281.120502 60585.81217 
L 281.120502 277.338804 
L 279.675987 277.338804 
z
" clip-path="url(#pfbe21055aa)" style="fill: #1f77b4"/>
   </g>
   <g id="patch_88">
    <path d="M 211.061567 60585.81217 
L 212.506082 60585.81217 
L 212.506082 230.423813 
L 211.061567 230.423813 
z
" clip-path="url(#pfbe21055aa)" style="fill: #1f77b4"/>
   </g>
   <g id="patch_89">
    <path d="M 254.396991 60585.81217 
L 255.841505 60585.81217 
L 255.841505 259.189608 
L 254.396991 259.189608 
z
" clip-path="url(#pfbe21055aa)" style="fill: #1f77b4"/>
   </g>
   <g id="patch_90">
    <path d="M 203.838997 60585.81217 
L 205.283511 60585.81217 
L 205.283511 218.391531 
L 203.838997 218.391531 
z
" clip-path="url(#pfbe21055aa)" style="fill: #1f77b4"/>
   </g>
   <g id="patch_91">
    <path d="M 247.17442 60585.81217 
L 248.618934 60585.81217 
L 248.618934 266.722205 
L 247.17442 266.722205 
z
" clip-path="url(#pfbe21055aa)" style="fill: #1f77b4"/>
   </g>
   <g id="patch_92">
    <path d="M 220.089781 60585.81217 
L 221.534295 60585.81217 
L 221.534295 237.95641 
L 220.089781 237.95641 
z
" clip-path="url(#pfbe21055aa)" style="fill: #1f77b4"/>
   </g>
   <g id="patch_93">
    <path d="M 209.255925 60585.81217 
L 210.700439 60585.81217 
L 210.700439 235.197676 
L 209.255925 235.197676 
z
" clip-path="url(#pfbe21055aa)" style="fill: #1f77b4"/>
   </g>
   <g id="patch_94">
    <path d="M 274.25906 60585.81217 
L 275.703574 60585.81217 
L 275.703574 295.488 
L 274.25906 295.488 
z
" clip-path="url(#pfbe21055aa)" style="fill: #1f77b4"/>
   </g>
   <g id="patch_95">
    <path d="M 212.86721 60585.81217 
L 214.311724 60585.81217 
L 214.311724 248.573009 
L 212.86721 248.573009 
z
" clip-path="url(#pfbe21055aa)" style="fill: #1f77b4"/>
   </g>
   <g id="patch_96">
    <path d="M 265.230846 60585.81217 
L 266.675361 60585.81217 
L 266.675361 277.338804 
L 265.230846 277.338804 
z
" clip-path="url(#pfbe21055aa)" style="fill: #1f77b4"/>
   </g>
   <g id="patch_97">
    <path d="M 221.895423 60585.81217 
L 223.339937 60585.81217 
L 223.339937 253.346872 
L 221.895423 253.346872 
z
" clip-path="url(#pfbe21055aa)" style="fill: #1f77b4"/>
   </g>
   <g id="patch_98">
    <path d="M 252.591348 60585.81217 
L 254.035862 60585.81217 
L 254.035862 259.189608 
L 252.591348 259.189608 
z
" clip-path="url(#pfbe21055aa)" style="fill: #1f77b4"/>
   </g>
   <g id="patch_99">
    <path d="M 248.980063 60585.81217 
L 250.424577 60585.81217 
L 250.424577 253.346872 
L 248.980063 253.346872 
z
" clip-path="url(#pfbe21055aa)" style="fill: #1f77b4"/>
   </g>
   <g id="patch_100">
    <path d="M 238.146207 60585.81217 
L 239.590721 60585.81217 
L 239.590721 253.346872 
L 238.146207 253.346872 
z
" clip-path="url(#pfbe21055aa)" style="fill: #1f77b4"/>
   </g>
   <g id="patch_101">
    <path d="M 295.926771 60585.81217 
L 297.371285 60585.81217 
L 297.371285 295.488 
L 295.926771 295.488 
z
" clip-path="url(#pfbe21055aa)" style="fill: #1f77b4"/>
   </g>
   <g id="patch_102">
    <path d="M 218.284138 60585.81217 
L 219.728652 60585.81217 
L 219.728652 244.536765 
L 218.284138 244.536765 
z
" clip-path="url(#pfbe21055aa)" style="fill: #1f77b4"/>
   </g>
   <g id="patch_103">
    <path d="M 227.312351 60585.81217 
L 228.756865 60585.81217 
L 228.756865 237.95641 
L 227.312351 237.95641 
z
" clip-path="url(#pfbe21055aa)" style="fill: #1f77b4"/>
   </g>
   <g id="patch_104">
    <path d="M 301.343699 60585.81217 
L 302.788213 60585.81217 
L 302.788213 295.488 
L 301.343699 295.488 
z
" clip-path="url(#pfbe21055aa)" style="fill: #1f77b4"/>
   </g>
   <g id="patch_105">
    <path d="M 245.368777 60585.81217 
L 246.813292 60585.81217 
L 246.813292 266.722205 
L 245.368777 266.722205 
z
" clip-path="url(#pfbe21055aa)" style="fill: #1f77b4"/>
   </g>
   <g id="patch_106">
    <path d="M 256.202633 60585.81217 
L 257.647147 60585.81217 
L 257.647147 277.338804 
L 256.202633 277.338804 
z
" clip-path="url(#pfbe21055aa)" style="fill: #1f77b4"/>
   </g>
   <g id="patch_107">
    <path d="M 259.813918 60585.81217 
L 261.258433 60585.81217 
L 261.258433 277.338804 
L 259.813918 277.338804 
z
" clip-path="url(#pfbe21055aa)" style="fill: #1f77b4"/>
   </g>
   <g id="patch_108">
    <path d="M 263.425204 60585.81217 
L 264.869718 60585.81217 
L 264.869718 295.488 
L 263.425204 295.488 
z
" clip-path="url(#pfbe21055aa)" style="fill: #1f77b4"/>
   </g>
   <g id="patch_109">
    <path d="M 292.315486 60585.81217 
L 293.76 60585.81217 
L 293.76 266.722205 
L 292.315486 266.722205 
z
" clip-path="url(#pfbe21055aa)" style="fill: #1f77b4"/>
   </g>
   <g id="patch_110">
    <path d="M 268.842132 60585.81217 
L 270.286646 60585.81217 
L 270.286646 295.488 
L 268.842132 295.488 
z
" clip-path="url(#pfbe21055aa)" style="fill: #1f77b4"/>
   </g>
   <g id="patch_111">
    <path d="M 250.785705 60585.81217 
L 252.230219 60585.81217 
L 252.230219 248.573009 
L 250.785705 248.573009 
z
" clip-path="url(#pfbe21055aa)" style="fill: #1f77b4"/>
   </g>
   <g id="patch_112">
    <path d="M 243.563135 60585.81217 
L 245.007649 60585.81217 
L 245.007649 277.338804 
L 243.563135 277.338804 
z
" clip-path="url(#pfbe21055aa)" style="fill: #1f77b4"/>
   </g>
   <g id="patch_113">
    <path d="M 236.340564 60585.81217 
L 237.785078 60585.81217 
L 237.785078 266.722205 
L 236.340564 266.722205 
z
" clip-path="url(#pfbe21055aa)" style="fill: #1f77b4"/>
   </g>
   <g id="patch_114">
    <path d="M 230.923636 60585.81217 
L 232.36815 60585.81217 
L 232.36815 277.338804 
L 230.923636 277.338804 
z
" clip-path="url(#pfbe21055aa)" style="fill: #1f77b4"/>
   </g>
   <g id="patch_115">
    <path d="M 258.008276 60585.81217 
L 259.45279 60585.81217 
L 259.45279 259.189608 
L 258.008276 259.189608 
z
" clip-path="url(#pfbe21055aa)" style="fill: #1f77b4"/>
   </g>
   <g id="patch_116">
    <path d="M 359.124263 60585.81217 
L 360.568777 60585.81217 
L 360.568777 295.488 
L 359.124263 295.488 
z
" clip-path="url(#pfbe21055aa)" style="fill: #1f77b4"/>
   </g>
   <g id="patch_117">
    <path d="M 317.594483 60585.81217 
L 319.038997 60585.81217 
L 319.038997 295.488 
L 317.594483 295.488 
z
" clip-path="url(#pfbe21055aa)" style="fill: #1f77b4"/>
   </g>
   <g id="patch_118">
    <path d="M 285.092915 60585.81217 
L 286.537429 60585.81217 
L 286.537429 295.488 
L 285.092915 295.488 
z
" clip-path="url(#pfbe21055aa)" style="fill: #1f77b4"/>
   </g>
   <g id="patch_119">
    <path d="M 308.56627 60585.81217 
L 310.010784 60585.81217 
L 310.010784 277.338804 
L 308.56627 277.338804 
z
" clip-path="url(#pfbe21055aa)" style="fill: #1f77b4"/>
   </g>
   <g id="patch_120">
    <path d="M 321.205768 60585.81217 
L 322.650282 60585.81217 
L 322.650282 295.488 
L 321.205768 295.488 
z
" clip-path="url(#pfbe21055aa)" style="fill: #1f77b4"/>
   </g>
   <g id="patch_121">
    <path d="M 241.757492 60585.81217 
L 243.202006 60585.81217 
L 243.202006 259.189608 
L 241.757492 259.189608 
z
" clip-path="url(#pfbe21055aa)" style="fill: #1f77b4"/>
   </g>
   <g id="patch_122">
    <path d="M 326.622696 60585.81217 
L 328.06721 60585.81217 
L 328.06721 295.488 
L 326.622696 295.488 
z
" clip-path="url(#pfbe21055aa)" style="fill: #1f77b4"/>
   </g>
   <g id="patch_123">
    <path d="M 283.287273 60585.81217 
L 284.731787 60585.81217 
L 284.731787 295.488 
L 283.287273 295.488 
z
" clip-path="url(#pfbe21055aa)" style="fill: #1f77b4"/>
   </g>
   <g id="patch_124">
    <path d="M 306.760627 60585.81217 
L 308.205141 60585.81217 
L 308.205141 295.488 
L 306.760627 295.488 
z
" clip-path="url(#pfbe21055aa)" style="fill: #1f77b4"/>
   </g>
   <g id="patch_125">
    <path d="M 313.983197 60585.81217 
L 315.427712 60585.81217 
L 315.427712 295.488 
L 313.983197 295.488 
z
" clip-path="url(#pfbe21055aa)" style="fill: #1f77b4"/>
   </g>
   <g id="patch_126">
    <path d="M 286.898558 60585.81217 
L 288.343072 60585.81217 
L 288.343072 266.722205 
L 286.898558 266.722205 
z
" clip-path="url(#pfbe21055aa)" style="fill: #1f77b4"/>
   </g>
   <g id="patch_127">
    <path d="M 397.042759 60585.81217 
L 398.487273 60585.81217 
L 398.487273 295.488 
L 397.042759 295.488 
z
" clip-path="url(#pfbe21055aa)" style="fill: #1f77b4"/>
   </g>
   <g id="patch_128">
    <path d="M 303.149342 60585.81217 
L 304.593856 60585.81217 
L 304.593856 295.488 
L 303.149342 295.488 
z
" clip-path="url(#pfbe21055aa)" style="fill: #1f77b4"/>
   </g>
   <g id="patch_129">
    <path d="M 348.290408 60585.81217 
L 349.734922 60585.81217 
L 349.734922 295.488 
L 348.290408 295.488 
z
" clip-path="url(#pfbe21055aa)" style="fill: #1f77b4"/>
   </g>
   <g id="matplotlib.axis_1">
    <g id="xtick_1">
     <g id="line2d_1">
      <defs>
       <path id="mf830fa23da" d="M 0 0 
L 0 3.5 
" style="stroke: #000000; stroke-width: 0.8"/>
      </defs>
      <g>
       <use xlink:href="#mf830fa23da" x="74.554984" y="307.584" style="stroke: #000000; stroke-width: 0.8"/>
      </g>
     </g>
     <g id="text_1">
      <!-- 0 -->
      <g transform="translate(71.373734 322.182437) scale(0.1 -0.1)">
       <defs>
        <path id="DejaVuSans-30" d="M 2034 4250 
Q 1547 4250 1301 3770 
Q 1056 3291 1056 2328 
Q 1056 1369 1301 889 
Q 1547 409 2034 409 
Q 2525 409 2770 889 
Q 3016 1369 3016 2328 
Q 3016 3291 2770 3770 
Q 2525 4250 2034 4250 
z
M 2034 4750 
Q 2819 4750 3233 4129 
Q 3647 3509 3647 2328 
Q 3647 1150 3233 529 
Q 2819 -91 2034 -91 
Q 1250 -91 836 529 
Q 422 1150 422 2328 
Q 422 3509 836 4129 
Q 1250 4750 2034 4750 
z
" transform="scale(0.015625)"/>
       </defs>
       <use xlink:href="#DejaVuSans-30"/>
      </g>
     </g>
    </g>
    <g id="xtick_2">
     <g id="line2d_2">
      <g>
       <use xlink:href="#mf830fa23da" x="119.69605" y="307.584" style="stroke: #000000; stroke-width: 0.8"/>
      </g>
     </g>
     <g id="text_2">
      <!-- 25 -->
      <g transform="translate(113.33355 322.182437) scale(0.1 -0.1)">
       <defs>
        <path id="DejaVuSans-32" d="M 1228 531 
L 3431 531 
L 3431 0 
L 469 0 
L 469 531 
Q 828 903 1448 1529 
Q 2069 2156 2228 2338 
Q 2531 2678 2651 2914 
Q 2772 3150 2772 3378 
Q 2772 3750 2511 3984 
Q 2250 4219 1831 4219 
Q 1534 4219 1204 4116 
Q 875 4013 500 3803 
L 500 4441 
Q 881 4594 1212 4672 
Q 1544 4750 1819 4750 
Q 2544 4750 2975 4387 
Q 3406 4025 3406 3419 
Q 3406 3131 3298 2873 
Q 3191 2616 2906 2266 
Q 2828 2175 2409 1742 
Q 1991 1309 1228 531 
z
" transform="scale(0.015625)"/>
        <path id="DejaVuSans-35" d="M 691 4666 
L 3169 4666 
L 3169 4134 
L 1269 4134 
L 1269 2991 
Q 1406 3038 1543 3061 
Q 1681 3084 1819 3084 
Q 2600 3084 3056 2656 
Q 3513 2228 3513 1497 
Q 3513 744 3044 326 
Q 2575 -91 1722 -91 
Q 1428 -91 1123 -41 
Q 819 9 494 109 
L 494 744 
Q 775 591 1075 516 
Q 1375 441 1709 441 
Q 2250 441 2565 725 
Q 2881 1009 2881 1497 
Q 2881 1984 2565 2268 
Q 2250 2553 1709 2553 
Q 1456 2553 1204 2497 
Q 953 2441 691 2322 
L 691 4666 
z
" transform="scale(0.015625)"/>
       </defs>
       <use xlink:href="#DejaVuSans-32"/>
       <use xlink:href="#DejaVuSans-35" x="63.623047"/>
      </g>
     </g>
    </g>
    <g id="xtick_3">
     <g id="line2d_3">
      <g>
       <use xlink:href="#mf830fa23da" x="164.837116" y="307.584" style="stroke: #000000; stroke-width: 0.8"/>
      </g>
     </g>
     <g id="text_3">
      <!-- 50 -->
      <g transform="translate(158.474616 322.182437) scale(0.1 -0.1)">
       <use xlink:href="#DejaVuSans-35"/>
       <use xlink:href="#DejaVuSans-30" x="63.623047"/>
      </g>
     </g>
    </g>
    <g id="xtick_4">
     <g id="line2d_4">
      <g>
       <use xlink:href="#mf830fa23da" x="209.978182" y="307.584" style="stroke: #000000; stroke-width: 0.8"/>
      </g>
     </g>
     <g id="text_4">
      <!-- 75 -->
      <g transform="translate(203.615682 322.182437) scale(0.1 -0.1)">
       <defs>
        <path id="DejaVuSans-37" d="M 525 4666 
L 3525 4666 
L 3525 4397 
L 1831 0 
L 1172 0 
L 2766 4134 
L 525 4134 
L 525 4666 
z
" transform="scale(0.015625)"/>
       </defs>
       <use xlink:href="#DejaVuSans-37"/>
       <use xlink:href="#DejaVuSans-35" x="63.623047"/>
      </g>
     </g>
    </g>
    <g id="xtick_5">
     <g id="line2d_5">
      <g>
       <use xlink:href="#mf830fa23da" x="255.119248" y="307.584" style="stroke: #000000; stroke-width: 0.8"/>
      </g>
     </g>
     <g id="text_5">
      <!-- 100 -->
      <g transform="translate(245.575498 322.182437) scale(0.1 -0.1)">
       <defs>
        <path id="DejaVuSans-31" d="M 794 531 
L 1825 531 
L 1825 4091 
L 703 3866 
L 703 4441 
L 1819 4666 
L 2450 4666 
L 2450 531 
L 3481 531 
L 3481 0 
L 794 0 
L 794 531 
z
" transform="scale(0.015625)"/>
       </defs>
       <use xlink:href="#DejaVuSans-31"/>
       <use xlink:href="#DejaVuSans-30" x="63.623047"/>
       <use xlink:href="#DejaVuSans-30" x="127.246094"/>
      </g>
     </g>
    </g>
    <g id="xtick_6">
     <g id="line2d_6">
      <g>
       <use xlink:href="#mf830fa23da" x="300.260313" y="307.584" style="stroke: #000000; stroke-width: 0.8"/>
      </g>
     </g>
     <g id="text_6">
      <!-- 125 -->
      <g transform="translate(290.716563 322.182437) scale(0.1 -0.1)">
       <use xlink:href="#DejaVuSans-31"/>
       <use xlink:href="#DejaVuSans-32" x="63.623047"/>
       <use xlink:href="#DejaVuSans-35" x="127.246094"/>
      </g>
     </g>
    </g>
    <g id="xtick_7">
     <g id="line2d_7">
      <g>
       <use xlink:href="#mf830fa23da" x="345.401379" y="307.584" style="stroke: #000000; stroke-width: 0.8"/>
      </g>
     </g>
     <g id="text_7">
      <!-- 150 -->
      <g transform="translate(335.857629 322.182437) scale(0.1 -0.1)">
       <use xlink:href="#DejaVuSans-31"/>
       <use xlink:href="#DejaVuSans-35" x="63.623047"/>
       <use xlink:href="#DejaVuSans-30" x="127.246094"/>
      </g>
     </g>
    </g>
    <g id="xtick_8">
     <g id="line2d_8">
      <g>
       <use xlink:href="#mf830fa23da" x="390.542445" y="307.584" style="stroke: #000000; stroke-width: 0.8"/>
      </g>
     </g>
     <g id="text_8">
      <!-- 175 -->
      <g transform="translate(380.998695 322.182437) scale(0.1 -0.1)">
       <use xlink:href="#DejaVuSans-31"/>
       <use xlink:href="#DejaVuSans-37" x="63.623047"/>
       <use xlink:href="#DejaVuSans-35" x="127.246094"/>
      </g>
     </g>
    </g>
    <g id="text_9">
     <!-- Depth of Element -->
     <g transform="translate(192.231875 335.860562) scale(0.1 -0.1)">
      <defs>
       <path id="DejaVuSans-44" d="M 1259 4147 
L 1259 519 
L 2022 519 
Q 2988 519 3436 956 
Q 3884 1394 3884 2338 
Q 3884 3275 3436 3711 
Q 2988 4147 2022 4147 
L 1259 4147 
z
M 628 4666 
L 1925 4666 
Q 3281 4666 3915 4102 
Q 4550 3538 4550 2338 
Q 4550 1131 3912 565 
Q 3275 0 1925 0 
L 628 0 
L 628 4666 
z
" transform="scale(0.015625)"/>
       <path id="DejaVuSans-65" d="M 3597 1894 
L 3597 1613 
L 953 1613 
Q 991 1019 1311 708 
Q 1631 397 2203 397 
Q 2534 397 2845 478 
Q 3156 559 3463 722 
L 3463 178 
Q 3153 47 2828 -22 
Q 2503 -91 2169 -91 
Q 1331 -91 842 396 
Q 353 884 353 1716 
Q 353 2575 817 3079 
Q 1281 3584 2069 3584 
Q 2775 3584 3186 3129 
Q 3597 2675 3597 1894 
z
M 3022 2063 
Q 3016 2534 2758 2815 
Q 2500 3097 2075 3097 
Q 1594 3097 1305 2825 
Q 1016 2553 972 2059 
L 3022 2063 
z
" transform="scale(0.015625)"/>
       <path id="DejaVuSans-70" d="M 1159 525 
L 1159 -1331 
L 581 -1331 
L 581 3500 
L 1159 3500 
L 1159 2969 
Q 1341 3281 1617 3432 
Q 1894 3584 2278 3584 
Q 2916 3584 3314 3078 
Q 3713 2572 3713 1747 
Q 3713 922 3314 415 
Q 2916 -91 2278 -91 
Q 1894 -91 1617 61 
Q 1341 213 1159 525 
z
M 3116 1747 
Q 3116 2381 2855 2742 
Q 2594 3103 2138 3103 
Q 1681 3103 1420 2742 
Q 1159 2381 1159 1747 
Q 1159 1113 1420 752 
Q 1681 391 2138 391 
Q 2594 391 2855 752 
Q 3116 1113 3116 1747 
z
" transform="scale(0.015625)"/>
       <path id="DejaVuSans-74" d="M 1172 4494 
L 1172 3500 
L 2356 3500 
L 2356 3053 
L 1172 3053 
L 1172 1153 
Q 1172 725 1289 603 
Q 1406 481 1766 481 
L 2356 481 
L 2356 0 
L 1766 0 
Q 1100 0 847 248 
Q 594 497 594 1153 
L 594 3053 
L 172 3053 
L 172 3500 
L 594 3500 
L 594 4494 
L 1172 4494 
z
" transform="scale(0.015625)"/>
       <path id="DejaVuSans-68" d="M 3513 2113 
L 3513 0 
L 2938 0 
L 2938 2094 
Q 2938 2591 2744 2837 
Q 2550 3084 2163 3084 
Q 1697 3084 1428 2787 
Q 1159 2491 1159 1978 
L 1159 0 
L 581 0 
L 581 4863 
L 1159 4863 
L 1159 2956 
Q 1366 3272 1645 3428 
Q 1925 3584 2291 3584 
Q 2894 3584 3203 3211 
Q 3513 2838 3513 2113 
z
" transform="scale(0.015625)"/>
       <path id="DejaVuSans-20" transform="scale(0.015625)"/>
       <path id="DejaVuSans-6f" d="M 1959 3097 
Q 1497 3097 1228 2736 
Q 959 2375 959 1747 
Q 959 1119 1226 758 
Q 1494 397 1959 397 
Q 2419 397 2687 759 
Q 2956 1122 2956 1747 
Q 2956 2369 2687 2733 
Q 2419 3097 1959 3097 
z
M 1959 3584 
Q 2709 3584 3137 3096 
Q 3566 2609 3566 1747 
Q 3566 888 3137 398 
Q 2709 -91 1959 -91 
Q 1206 -91 779 398 
Q 353 888 353 1747 
Q 353 2609 779 3096 
Q 1206 3584 1959 3584 
z
" transform="scale(0.015625)"/>
       <path id="DejaVuSans-66" d="M 2375 4863 
L 2375 4384 
L 1825 4384 
Q 1516 4384 1395 4259 
Q 1275 4134 1275 3809 
L 1275 3500 
L 2222 3500 
L 2222 3053 
L 1275 3053 
L 1275 0 
L 697 0 
L 697 3053 
L 147 3053 
L 147 3500 
L 697 3500 
L 697 3744 
Q 697 4328 969 4595 
Q 1241 4863 1831 4863 
L 2375 4863 
z
" transform="scale(0.015625)"/>
       <path id="DejaVuSans-45" d="M 628 4666 
L 3578 4666 
L 3578 4134 
L 1259 4134 
L 1259 2753 
L 3481 2753 
L 3481 2222 
L 1259 2222 
L 1259 531 
L 3634 531 
L 3634 0 
L 628 0 
L 628 4666 
z
" transform="scale(0.015625)"/>
       <path id="DejaVuSans-6c" d="M 603 4863 
L 1178 4863 
L 1178 0 
L 603 0 
L 603 4863 
z
" transform="scale(0.015625)"/>
       <path id="DejaVuSans-6d" d="M 3328 2828 
Q 3544 3216 3844 3400 
Q 4144 3584 4550 3584 
Q 5097 3584 5394 3201 
Q 5691 2819 5691 2113 
L 5691 0 
L 5113 0 
L 5113 2094 
Q 5113 2597 4934 2840 
Q 4756 3084 4391 3084 
Q 3944 3084 3684 2787 
Q 3425 2491 3425 1978 
L 3425 0 
L 2847 0 
L 2847 2094 
Q 2847 2600 2669 2842 
Q 2491 3084 2119 3084 
Q 1678 3084 1418 2786 
Q 1159 2488 1159 1978 
L 1159 0 
L 581 0 
L 581 3500 
L 1159 3500 
L 1159 2956 
Q 1356 3278 1631 3431 
Q 1906 3584 2284 3584 
Q 2666 3584 2933 3390 
Q 3200 3197 3328 2828 
z
" transform="scale(0.015625)"/>
       <path id="DejaVuSans-6e" d="M 3513 2113 
L 3513 0 
L 2938 0 
L 2938 2094 
Q 2938 2591 2744 2837 
Q 2550 3084 2163 3084 
Q 1697 3084 1428 2787 
Q 1159 2491 1159 1978 
L 1159 0 
L 581 0 
L 581 3500 
L 1159 3500 
L 1159 2956 
Q 1366 3272 1645 3428 
Q 1925 3584 2291 3584 
Q 2894 3584 3203 3211 
Q 3513 2838 3513 2113 
z
" transform="scale(0.015625)"/>
      </defs>
      <use xlink:href="#DejaVuSans-44"/>
      <use xlink:href="#DejaVuSans-65" x="77.001953"/>
      <use xlink:href="#DejaVuSans-70" x="138.525391"/>
      <use xlink:href="#DejaVuSans-74" x="202.001953"/>
      <use xlink:href="#DejaVuSans-68" x="241.210938"/>
      <use xlink:href="#DejaVuSans-20" x="304.589844"/>
      <use xlink:href="#DejaVuSans-6f" x="336.376953"/>
      <use xlink:href="#DejaVuSans-66" x="397.558594"/>
      <use xlink:href="#DejaVuSans-20" x="432.763672"/>
      <use xlink:href="#DejaVuSans-45" x="464.550781"/>
      <use xlink:href="#DejaVuSans-6c" x="527.734375"/>
      <use xlink:href="#DejaVuSans-65" x="555.517578"/>
      <use xlink:href="#DejaVuSans-6d" x="617.041016"/>
      <use xlink:href="#DejaVuSans-65" x="714.453125"/>
      <use xlink:href="#DejaVuSans-6e" x="775.976562"/>
      <use xlink:href="#DejaVuSans-74" x="839.355469"/>
     </g>
    </g>
   </g>
   <g id="matplotlib.axis_2">
    <g id="ytick_1">
     <g id="line2d_9">
      <defs>
       <path id="m2899a05a09" d="M 0 0 
L -3.5 0 
" style="stroke: #000000; stroke-width: 0.8"/>
      </defs>
      <g>
       <use xlink:href="#m2899a05a09" x="57.6" y="295.488" style="stroke: #000000; stroke-width: 0.8"/>
      </g>
     </g>
     <g id="text_10">
      <!-- $\mathdefault{10^{0}}$ -->
      <g transform="translate(33 299.287219) scale(0.1 -0.1)">
       <use xlink:href="#DejaVuSans-31" transform="translate(0 0.765625)"/>
       <use xlink:href="#DejaVuSans-30" transform="translate(63.623047 0.765625)"/>
       <use xlink:href="#DejaVuSans-30" transform="translate(128.203125 39.046875) scale(0.7)"/>
      </g>
     </g>
    </g>
    <g id="ytick_2">
     <g id="line2d_10">
      <g>
       <use xlink:href="#m2899a05a09" x="57.6" y="235.197676" style="stroke: #000000; stroke-width: 0.8"/>
      </g>
     </g>
     <g id="text_11">
      <!-- $\mathdefault{10^{1}}$ -->
      <g transform="translate(33 238.996895) scale(0.1 -0.1)">
       <use xlink:href="#DejaVuSans-31" transform="translate(0 0.684375)"/>
       <use xlink:href="#DejaVuSans-30" transform="translate(63.623047 0.684375)"/>
       <use xlink:href="#DejaVuSans-31" transform="translate(128.203125 38.965625) scale(0.7)"/>
      </g>
     </g>
    </g>
    <g id="ytick_3">
     <g id="line2d_11">
      <g>
       <use xlink:href="#m2899a05a09" x="57.6" y="174.907352" style="stroke: #000000; stroke-width: 0.8"/>
      </g>
     </g>
     <g id="text_12">
      <!-- $\mathdefault{10^{2}}$ -->
      <g transform="translate(33 178.70657) scale(0.1 -0.1)">
       <use xlink:href="#DejaVuSans-31" transform="translate(0 0.765625)"/>
       <use xlink:href="#DejaVuSans-30" transform="translate(63.623047 0.765625)"/>
       <use xlink:href="#DejaVuSans-32" transform="translate(128.203125 39.046875) scale(0.7)"/>
      </g>
     </g>
    </g>
    <g id="ytick_4">
     <g id="line2d_12">
      <g>
       <use xlink:href="#m2899a05a09" x="57.6" y="114.617027" style="stroke: #000000; stroke-width: 0.8"/>
      </g>
     </g>
     <g id="text_13">
      <!-- $\mathdefault{10^{3}}$ -->
      <g transform="translate(33 118.416246) scale(0.1 -0.1)">
       <defs>
        <path id="DejaVuSans-33" d="M 2597 2516 
Q 3050 2419 3304 2112 
Q 3559 1806 3559 1356 
Q 3559 666 3084 287 
Q 2609 -91 1734 -91 
Q 1441 -91 1130 -33 
Q 819 25 488 141 
L 488 750 
Q 750 597 1062 519 
Q 1375 441 1716 441 
Q 2309 441 2620 675 
Q 2931 909 2931 1356 
Q 2931 1769 2642 2001 
Q 2353 2234 1838 2234 
L 1294 2234 
L 1294 2753 
L 1863 2753 
Q 2328 2753 2575 2939 
Q 2822 3125 2822 3475 
Q 2822 3834 2567 4026 
Q 2313 4219 1838 4219 
Q 1578 4219 1281 4162 
Q 984 4106 628 3988 
L 628 4550 
Q 988 4650 1302 4700 
Q 1616 4750 1894 4750 
Q 2613 4750 3031 4423 
Q 3450 4097 3450 3541 
Q 3450 3153 3228 2886 
Q 3006 2619 2597 2516 
z
" transform="scale(0.015625)"/>
       </defs>
       <use xlink:href="#DejaVuSans-31" transform="translate(0 0.765625)"/>
       <use xlink:href="#DejaVuSans-30" transform="translate(63.623047 0.765625)"/>
       <use xlink:href="#DejaVuSans-33" transform="translate(128.203125 39.046875) scale(0.7)"/>
      </g>
     </g>
    </g>
    <g id="ytick_5">
     <g id="line2d_13">
      <g>
       <use xlink:href="#m2899a05a09" x="57.6" y="54.326703" style="stroke: #000000; stroke-width: 0.8"/>
      </g>
     </g>
     <g id="text_14">
      <!-- $\mathdefault{10^{4}}$ -->
      <g transform="translate(33 58.125922) scale(0.1 -0.1)">
       <defs>
        <path id="DejaVuSans-34" d="M 2419 4116 
L 825 1625 
L 2419 1625 
L 2419 4116 
z
M 2253 4666 
L 3047 4666 
L 3047 1625 
L 3713 1625 
L 3713 1100 
L 3047 1100 
L 3047 0 
L 2419 0 
L 2419 1100 
L 313 1100 
L 313 1709 
L 2253 4666 
z
" transform="scale(0.015625)"/>
       </defs>
       <use xlink:href="#DejaVuSans-31" transform="translate(0 0.684375)"/>
       <use xlink:href="#DejaVuSans-30" transform="translate(63.623047 0.684375)"/>
       <use xlink:href="#DejaVuSans-34" transform="translate(128.203125 38.965625) scale(0.7)"/>
      </g>
     </g>
    </g>
    <g id="ytick_6">
     <g id="line2d_14">
      <defs>
       <path id="m77b5ba2371" d="M 0 0 
L -2 0 
" style="stroke: #000000; stroke-width: 0.6"/>
      </defs>
      <g>
       <use xlink:href="#m77b5ba2371" x="57.6" y="304.827089" style="stroke: #000000; stroke-width: 0.6"/>
      </g>
     </g>
    </g>
    <g id="ytick_7">
     <g id="line2d_15">
      <g>
       <use xlink:href="#m77b5ba2371" x="57.6" y="301.330736" style="stroke: #000000; stroke-width: 0.6"/>
      </g>
     </g>
    </g>
    <g id="ytick_8">
     <g id="line2d_16">
      <g>
       <use xlink:href="#m77b5ba2371" x="57.6" y="298.246734" style="stroke: #000000; stroke-width: 0.6"/>
      </g>
     </g>
    </g>
    <g id="ytick_9">
     <g id="line2d_17">
      <g>
       <use xlink:href="#m77b5ba2371" x="57.6" y="277.338804" style="stroke: #000000; stroke-width: 0.6"/>
      </g>
     </g>
    </g>
    <g id="ytick_10">
     <g id="line2d_18">
      <g>
       <use xlink:href="#m77b5ba2371" x="57.6" y="266.722205" style="stroke: #000000; stroke-width: 0.6"/>
      </g>
     </g>
    </g>
    <g id="ytick_11">
     <g id="line2d_19">
      <g>
       <use xlink:href="#m77b5ba2371" x="57.6" y="259.189608" style="stroke: #000000; stroke-width: 0.6"/>
      </g>
     </g>
    </g>
    <g id="ytick_12">
     <g id="line2d_20">
      <g>
       <use xlink:href="#m77b5ba2371" x="57.6" y="253.346872" style="stroke: #000000; stroke-width: 0.6"/>
      </g>
     </g>
    </g>
    <g id="ytick_13">
     <g id="line2d_21">
      <g>
       <use xlink:href="#m77b5ba2371" x="57.6" y="248.573009" style="stroke: #000000; stroke-width: 0.6"/>
      </g>
     </g>
    </g>
    <g id="ytick_14">
     <g id="line2d_22">
      <g>
       <use xlink:href="#m77b5ba2371" x="57.6" y="244.536765" style="stroke: #000000; stroke-width: 0.6"/>
      </g>
     </g>
    </g>
    <g id="ytick_15">
     <g id="line2d_23">
      <g>
       <use xlink:href="#m77b5ba2371" x="57.6" y="241.040412" style="stroke: #000000; stroke-width: 0.6"/>
      </g>
     </g>
    </g>
    <g id="ytick_16">
     <g id="line2d_24">
      <g>
       <use xlink:href="#m77b5ba2371" x="57.6" y="237.95641" style="stroke: #000000; stroke-width: 0.6"/>
      </g>
     </g>
    </g>
    <g id="ytick_17">
     <g id="line2d_25">
      <g>
       <use xlink:href="#m77b5ba2371" x="57.6" y="217.04848" style="stroke: #000000; stroke-width: 0.6"/>
      </g>
     </g>
    </g>
    <g id="ytick_18">
     <g id="line2d_26">
      <g>
       <use xlink:href="#m77b5ba2371" x="57.6" y="206.431881" style="stroke: #000000; stroke-width: 0.6"/>
      </g>
     </g>
    </g>
    <g id="ytick_19">
     <g id="line2d_27">
      <g>
       <use xlink:href="#m77b5ba2371" x="57.6" y="198.899284" style="stroke: #000000; stroke-width: 0.6"/>
      </g>
     </g>
    </g>
    <g id="ytick_20">
     <g id="line2d_28">
      <g>
       <use xlink:href="#m77b5ba2371" x="57.6" y="193.056548" style="stroke: #000000; stroke-width: 0.6"/>
      </g>
     </g>
    </g>
    <g id="ytick_21">
     <g id="line2d_29">
      <g>
       <use xlink:href="#m77b5ba2371" x="57.6" y="188.282685" style="stroke: #000000; stroke-width: 0.6"/>
      </g>
     </g>
    </g>
    <g id="ytick_22">
     <g id="line2d_30">
      <g>
       <use xlink:href="#m77b5ba2371" x="57.6" y="184.246441" style="stroke: #000000; stroke-width: 0.6"/>
      </g>
     </g>
    </g>
    <g id="ytick_23">
     <g id="line2d_31">
      <g>
       <use xlink:href="#m77b5ba2371" x="57.6" y="180.750088" style="stroke: #000000; stroke-width: 0.6"/>
      </g>
     </g>
    </g>
    <g id="ytick_24">
     <g id="line2d_32">
      <g>
       <use xlink:href="#m77b5ba2371" x="57.6" y="177.666086" style="stroke: #000000; stroke-width: 0.6"/>
      </g>
     </g>
    </g>
    <g id="ytick_25">
     <g id="line2d_33">
      <g>
       <use xlink:href="#m77b5ba2371" x="57.6" y="156.758156" style="stroke: #000000; stroke-width: 0.6"/>
      </g>
     </g>
    </g>
    <g id="ytick_26">
     <g id="line2d_34">
      <g>
       <use xlink:href="#m77b5ba2371" x="57.6" y="146.141557" style="stroke: #000000; stroke-width: 0.6"/>
      </g>
     </g>
    </g>
    <g id="ytick_27">
     <g id="line2d_35">
      <g>
       <use xlink:href="#m77b5ba2371" x="57.6" y="138.60896" style="stroke: #000000; stroke-width: 0.6"/>
      </g>
     </g>
    </g>
    <g id="ytick_28">
     <g id="line2d_36">
      <g>
       <use xlink:href="#m77b5ba2371" x="57.6" y="132.766224" style="stroke: #000000; stroke-width: 0.6"/>
      </g>
     </g>
    </g>
    <g id="ytick_29">
     <g id="line2d_37">
      <g>
       <use xlink:href="#m77b5ba2371" x="57.6" y="127.992361" style="stroke: #000000; stroke-width: 0.6"/>
      </g>
     </g>
    </g>
    <g id="ytick_30">
     <g id="line2d_38">
      <g>
       <use xlink:href="#m77b5ba2371" x="57.6" y="123.956117" style="stroke: #000000; stroke-width: 0.6"/>
      </g>
     </g>
    </g>
    <g id="ytick_31">
     <g id="line2d_39">
      <g>
       <use xlink:href="#m77b5ba2371" x="57.6" y="120.459764" style="stroke: #000000; stroke-width: 0.6"/>
      </g>
     </g>
    </g>
    <g id="ytick_32">
     <g id="line2d_40">
      <g>
       <use xlink:href="#m77b5ba2371" x="57.6" y="117.375761" style="stroke: #000000; stroke-width: 0.6"/>
      </g>
     </g>
    </g>
    <g id="ytick_33">
     <g id="line2d_41">
      <g>
       <use xlink:href="#m77b5ba2371" x="57.6" y="96.467831" style="stroke: #000000; stroke-width: 0.6"/>
      </g>
     </g>
    </g>
    <g id="ytick_34">
     <g id="line2d_42">
      <g>
       <use xlink:href="#m77b5ba2371" x="57.6" y="85.851232" style="stroke: #000000; stroke-width: 0.6"/>
      </g>
     </g>
    </g>
    <g id="ytick_35">
     <g id="line2d_43">
      <g>
       <use xlink:href="#m77b5ba2371" x="57.6" y="78.318635" style="stroke: #000000; stroke-width: 0.6"/>
      </g>
     </g>
    </g>
    <g id="ytick_36">
     <g id="line2d_44">
      <g>
       <use xlink:href="#m77b5ba2371" x="57.6" y="72.475899" style="stroke: #000000; stroke-width: 0.6"/>
      </g>
     </g>
    </g>
    <g id="ytick_37">
     <g id="line2d_45">
      <g>
       <use xlink:href="#m77b5ba2371" x="57.6" y="67.702036" style="stroke: #000000; stroke-width: 0.6"/>
      </g>
     </g>
    </g>
    <g id="ytick_38">
     <g id="line2d_46">
      <g>
       <use xlink:href="#m77b5ba2371" x="57.6" y="63.665793" style="stroke: #000000; stroke-width: 0.6"/>
      </g>
     </g>
    </g>
    <g id="ytick_39">
     <g id="line2d_47">
      <g>
       <use xlink:href="#m77b5ba2371" x="57.6" y="60.169439" style="stroke: #000000; stroke-width: 0.6"/>
      </g>
     </g>
    </g>
    <g id="ytick_40">
     <g id="line2d_48">
      <g>
       <use xlink:href="#m77b5ba2371" x="57.6" y="57.085437" style="stroke: #000000; stroke-width: 0.6"/>
      </g>
     </g>
    </g>
    <g id="text_15">
     <!-- Number of Elements -->
     <g transform="translate(26.920312 225.917062) rotate(-90) scale(0.1 -0.1)">
      <defs>
       <path id="DejaVuSans-4e" d="M 628 4666 
L 1478 4666 
L 3547 763 
L 3547 4666 
L 4159 4666 
L 4159 0 
L 3309 0 
L 1241 3903 
L 1241 0 
L 628 0 
L 628 4666 
z
" transform="scale(0.015625)"/>
       <path id="DejaVuSans-75" d="M 544 1381 
L 544 3500 
L 1119 3500 
L 1119 1403 
Q 1119 906 1312 657 
Q 1506 409 1894 409 
Q 2359 409 2629 706 
Q 2900 1003 2900 1516 
L 2900 3500 
L 3475 3500 
L 3475 0 
L 2900 0 
L 2900 538 
Q 2691 219 2414 64 
Q 2138 -91 1772 -91 
Q 1169 -91 856 284 
Q 544 659 544 1381 
z
M 1991 3584 
L 1991 3584 
z
" transform="scale(0.015625)"/>
       <path id="DejaVuSans-62" d="M 3116 1747 
Q 3116 2381 2855 2742 
Q 2594 3103 2138 3103 
Q 1681 3103 1420 2742 
Q 1159 2381 1159 1747 
Q 1159 1113 1420 752 
Q 1681 391 2138 391 
Q 2594 391 2855 752 
Q 3116 1113 3116 1747 
z
M 1159 2969 
Q 1341 3281 1617 3432 
Q 1894 3584 2278 3584 
Q 2916 3584 3314 3078 
Q 3713 2572 3713 1747 
Q 3713 922 3314 415 
Q 2916 -91 2278 -91 
Q 1894 -91 1617 61 
Q 1341 213 1159 525 
L 1159 0 
L 581 0 
L 581 4863 
L 1159 4863 
L 1159 2969 
z
" transform="scale(0.015625)"/>
       <path id="DejaVuSans-72" d="M 2631 2963 
Q 2534 3019 2420 3045 
Q 2306 3072 2169 3072 
Q 1681 3072 1420 2755 
Q 1159 2438 1159 1844 
L 1159 0 
L 581 0 
L 581 3500 
L 1159 3500 
L 1159 2956 
Q 1341 3275 1631 3429 
Q 1922 3584 2338 3584 
Q 2397 3584 2469 3576 
Q 2541 3569 2628 3553 
L 2631 2963 
z
" transform="scale(0.015625)"/>
       <path id="DejaVuSans-73" d="M 2834 3397 
L 2834 2853 
Q 2591 2978 2328 3040 
Q 2066 3103 1784 3103 
Q 1356 3103 1142 2972 
Q 928 2841 928 2578 
Q 928 2378 1081 2264 
Q 1234 2150 1697 2047 
L 1894 2003 
Q 2506 1872 2764 1633 
Q 3022 1394 3022 966 
Q 3022 478 2636 193 
Q 2250 -91 1575 -91 
Q 1294 -91 989 -36 
Q 684 19 347 128 
L 347 722 
Q 666 556 975 473 
Q 1284 391 1588 391 
Q 1994 391 2212 530 
Q 2431 669 2431 922 
Q 2431 1156 2273 1281 
Q 2116 1406 1581 1522 
L 1381 1569 
Q 847 1681 609 1914 
Q 372 2147 372 2553 
Q 372 3047 722 3315 
Q 1072 3584 1716 3584 
Q 2034 3584 2315 3537 
Q 2597 3491 2834 3397 
z
" transform="scale(0.015625)"/>
      </defs>
      <use xlink:href="#DejaVuSans-4e"/>
      <use xlink:href="#DejaVuSans-75" x="74.804688"/>
      <use xlink:href="#DejaVuSans-6d" x="138.183594"/>
      <use xlink:href="#DejaVuSans-62" x="235.595703"/>
      <use xlink:href="#DejaVuSans-65" x="299.072266"/>
      <use xlink:href="#DejaVuSans-72" x="360.595703"/>
      <use xlink:href="#DejaVuSans-20" x="401.708984"/>
      <use xlink:href="#DejaVuSans-6f" x="433.496094"/>
      <use xlink:href="#DejaVuSans-66" x="494.677734"/>
      <use xlink:href="#DejaVuSans-20" x="529.882812"/>
      <use xlink:href="#DejaVuSans-45" x="561.669922"/>
      <use xlink:href="#DejaVuSans-6c" x="624.853516"/>
      <use xlink:href="#DejaVuSans-65" x="652.636719"/>
      <use xlink:href="#DejaVuSans-6d" x="714.160156"/>
      <use xlink:href="#DejaVuSans-65" x="811.572266"/>
      <use xlink:href="#DejaVuSans-6e" x="873.095703"/>
      <use xlink:href="#DejaVuSans-74" x="936.474609"/>
      <use xlink:href="#DejaVuSans-73" x="975.683594"/>
     </g>
    </g>
   </g>
   <g id="patch_130">
    <path d="M 57.6 307.584 
L 57.6 41.472 
" style="fill: none; stroke: #000000; stroke-width: 0.8; stroke-linejoin: miter; stroke-linecap: square"/>
   </g>
   <g id="patch_131">
    <path d="M 414.72 307.584 
L 414.72 41.472 
" style="fill: none; stroke: #000000; stroke-width: 0.8; stroke-linejoin: miter; stroke-linecap: square"/>
   </g>
   <g id="patch_132">
    <path d="M 57.6 307.584 
L 414.72 307.584 
" style="fill: none; stroke: #000000; stroke-width: 0.8; stroke-linejoin: miter; stroke-linecap: square"/>
   </g>
   <g id="patch_133">
    <path d="M 57.6 41.472 
L 414.72 41.472 
" style="fill: none; stroke: #000000; stroke-width: 0.8; stroke-linejoin: miter; stroke-linecap: square"/>
   </g>
  </g>
 </g>
 <defs>
  <clipPath id="pfbe21055aa">
   <rect x="57.6" y="41.472" width="357.12" height="266.112"/>
  </clipPath>
 </defs>
</svg>
