<?xml version="1.0" encoding="utf-8" standalone="no"?>
<!DOCTYPE svg PUBLIC "-//W3C//DTD SVG 1.1//EN"
  "http://www.w3.org/Graphics/SVG/1.1/DTD/svg11.dtd">
<svg xmlns:xlink="http://www.w3.org/1999/xlink" width="460.8pt" height="345.6pt" viewBox="0 0 460.8 345.6" xmlns="http://www.w3.org/2000/svg" version="1.1">
 <metadata>
  <rdf:RDF xmlns:dc="http://purl.org/dc/elements/1.1/" xmlns:cc="http://creativecommons.org/ns#" xmlns:rdf="http://www.w3.org/1999/02/22-rdf-syntax-ns#">
   <cc:Work>
    <dc:type rdf:resource="http://purl.org/dc/dcmitype/StillImage"/>
    <dc:date>2024-02-24T23:40:14.056291</dc:date>
    <dc:format>image/svg+xml</dc:format>
    <dc:creator>
     <cc:Agent>
      <dc:title>Matplotlib v3.8.3, https://matplotlib.org/</dc:title>
     </cc:Agent>
    </dc:creator>
   </cc:Work>
  </rdf:RDF>
 </metadata>
 <defs>
  <style type="text/css">*{stroke-linejoin: round; stroke-linecap: butt}</style>
 </defs>
 <g id="figure_1">
  <g id="patch_1">
   <path d="M 0 345.6 
L 460.8 345.6 
L 460.8 0 
L 0 0 
z
" style="fill: #ffffff"/>
  </g>
  <g id="axes_1">
   <g id="patch_2">
    <path d="M 57.6 307.584 
L 414.72 307.584 
L 414.72 41.472 
L 57.6 41.472 
z
" style="fill: #ffffff"/>
   </g>
   <g id="patch_3">
    <path d="M 73.832727 65306.191695 
L 75.064813 65306.191695 
L 75.064813 256.347656 
L 73.832727 256.347656 
z
" clip-path="url(#p806c532067)" style="fill: #1f77b4"/>
   </g>
   <g id="patch_4">
    <path d="M 75.372834 65306.191695 
L 76.60492 65306.191695 
L 76.60492 230.477296 
L 75.372834 230.477296 
z
" clip-path="url(#p806c532067)" style="fill: #1f77b4"/>
   </g>
   <g id="patch_5">
    <path d="M 78.453048 65306.191695 
L 79.685134 65306.191695 
L 79.685134 185.036764 
L 78.453048 185.036764 
z
" clip-path="url(#p806c532067)" style="fill: #1f77b4"/>
   </g>
   <g id="patch_6">
    <path d="M 79.993155 65306.191695 
L 81.225241 65306.191695 
L 81.225241 160.555231 
L 79.993155 160.555231 
z
" clip-path="url(#p806c532067)" style="fill: #1f77b4"/>
   </g>
   <g id="patch_7">
    <path d="M 84.613476 65306.191695 
L 85.845561 65306.191695 
L 85.845561 102.626532 
L 84.613476 102.626532 
z
" clip-path="url(#p806c532067)" style="fill: #1f77b4"/>
   </g>
   <g id="patch_8">
    <path d="M 76.912941 65306.191695 
L 78.145027 65306.191695 
L 78.145027 212.355329 
L 76.912941 212.355329 
z
" clip-path="url(#p806c532067)" style="fill: #1f77b4"/>
   </g>
   <g id="patch_9">
    <path d="M 81.533262 65306.191695 
L 82.765348 65306.191695 
L 82.765348 141.103939 
L 81.533262 141.103939 
z
" clip-path="url(#p806c532067)" style="fill: #1f77b4"/>
   </g>
   <g id="patch_10">
    <path d="M 86.153583 65306.191695 
L 87.385668 65306.191695 
L 87.385668 89.965242 
L 86.153583 89.965242 
z
" clip-path="url(#p806c532067)" style="fill: #1f77b4"/>
   </g>
   <g id="patch_11">
    <path d="M 83.073369 65306.191695 
L 84.305455 65306.191695 
L 84.305455 121.773038 
L 83.073369 121.773038 
z
" clip-path="url(#p806c532067)" style="fill: #1f77b4"/>
   </g>
   <g id="patch_12">
    <path d="M 89.233797 65306.191695 
L 90.465882 65306.191695 
L 90.465882 68.749918 
L 89.233797 68.749918 
z
" clip-path="url(#p806c532067)" style="fill: #1f77b4"/>
   </g>
   <g id="patch_13">
    <path d="M 87.69369 65306.191695 
L 88.925775 65306.191695 
L 88.925775 78.883254 
L 87.69369 78.883254 
z
" clip-path="url(#p806c532067)" style="fill: #1f77b4"/>
   </g>
   <g id="patch_14">
    <path d="M 92.314011 65306.191695 
L 93.546096 65306.191695 
L 93.546096 55.054912 
L 92.314011 55.054912 
z
" clip-path="url(#p806c532067)" style="fill: #1f77b4"/>
   </g>
   <g id="patch_15">
    <path d="M 90.773904 65306.191695 
L 92.005989 65306.191695 
L 92.005989 60.96481 
L 90.773904 60.96481 
z
" clip-path="url(#p806c532067)" style="fill: #1f77b4"/>
   </g>
   <g id="patch_16">
    <path d="M 98.474439 65306.191695 
L 99.706524 65306.191695 
L 99.706524 98.784114 
L 98.474439 98.784114 
z
" clip-path="url(#p806c532067)" style="fill: #1f77b4"/>
   </g>
   <g id="patch_17">
    <path d="M 93.854118 65306.191695 
L 95.086203 65306.191695 
L 95.086203 53.568 
L 93.854118 53.568 
z
" clip-path="url(#p806c532067)" style="fill: #1f77b4"/>
   </g>
   <g id="patch_18">
    <path d="M 103.094759 65306.191695 
L 104.326845 65306.191695 
L 104.326845 160.793493 
L 103.094759 160.793493 
z
" clip-path="url(#p806c532067)" style="fill: #1f77b4"/>
   </g>
   <g id="patch_19">
    <path d="M 101.554652 65306.191695 
L 102.786738 65306.191695 
L 102.786738 155.368088 
L 101.554652 155.368088 
z
" clip-path="url(#p806c532067)" style="fill: #1f77b4"/>
   </g>
   <g id="patch_20">
    <path d="M 96.934332 65306.191695 
L 98.166417 65306.191695 
L 98.166417 72.12134 
L 96.934332 72.12134 
z
" clip-path="url(#p806c532067)" style="fill: #1f77b4"/>
   </g>
   <g id="patch_21">
    <path d="M 95.394225 65306.191695 
L 96.62631 65306.191695 
L 96.62631 59.931292 
L 95.394225 59.931292 
z
" clip-path="url(#p806c532067)" style="fill: #1f77b4"/>
   </g>
   <g id="patch_22">
    <path d="M 106.174973 65306.191695 
L 107.407059 65306.191695 
L 107.407059 168.441319 
L 106.174973 168.441319 
z
" clip-path="url(#p806c532067)" style="fill: #1f77b4"/>
   </g>
   <g id="patch_23">
    <path d="M 107.71508 65306.191695 
L 108.947166 65306.191695 
L 108.947166 167.515538 
L 107.71508 167.515538 
z
" clip-path="url(#p806c532067)" style="fill: #1f77b4"/>
   </g>
   <g id="patch_24">
    <path d="M 100.014545 65306.191695 
L 101.246631 65306.191695 
L 101.246631 134.542874 
L 100.014545 134.542874 
z
" clip-path="url(#p806c532067)" style="fill: #1f77b4"/>
   </g>
   <g id="patch_25">
    <path d="M 116.955722 65306.191695 
L 118.187807 65306.191695 
L 118.187807 173.214985 
L 116.955722 173.214985 
z
" clip-path="url(#p806c532067)" style="fill: #1f77b4"/>
   </g>
   <g id="patch_26">
    <path d="M 104.634866 65306.191695 
L 105.866952 65306.191695 
L 105.866952 162.775625 
L 104.634866 162.775625 
z
" clip-path="url(#p806c532067)" style="fill: #1f77b4"/>
   </g>
   <g id="patch_27">
    <path d="M 113.875508 65306.191695 
L 115.107594 65306.191695 
L 115.107594 172.121927 
L 113.875508 172.121927 
z
" clip-path="url(#p806c532067)" style="fill: #1f77b4"/>
   </g>
   <g id="patch_28">
    <path d="M 109.255187 65306.191695 
L 110.487273 65306.191695 
L 110.487273 165.466593 
L 109.255187 165.466593 
z
" clip-path="url(#p806c532067)" style="fill: #1f77b4"/>
   </g>
   <g id="patch_29">
    <path d="M 110.795294 65306.191695 
L 112.02738 65306.191695 
L 112.02738 169.075813 
L 110.795294 169.075813 
z
" clip-path="url(#p806c532067)" style="fill: #1f77b4"/>
   </g>
   <g id="patch_30">
    <path d="M 112.335401 65306.191695 
L 113.567487 65306.191695 
L 113.567487 164.907489 
L 112.335401 164.907489 
z
" clip-path="url(#p806c532067)" style="fill: #1f77b4"/>
   </g>
   <g id="patch_31">
    <path d="M 130.816684 65306.191695 
L 132.04877 65306.191695 
L 132.04877 176.773592 
L 130.816684 176.773592 
z
" clip-path="url(#p806c532067)" style="fill: #1f77b4"/>
   </g>
   <g id="patch_32">
    <path d="M 129.276578 65306.191695 
L 130.508663 65306.191695 
L 130.508663 177.198168 
L 129.276578 177.198168 
z
" clip-path="url(#p806c532067)" style="fill: #1f77b4"/>
   </g>
   <g id="patch_33">
    <path d="M 115.415615 65306.191695 
L 116.647701 65306.191695 
L 116.647701 171.069615 
L 115.415615 171.069615 
z
" clip-path="url(#p806c532067)" style="fill: #1f77b4"/>
   </g>
   <g id="patch_34">
    <path d="M 118.495829 65306.191695 
L 119.727914 65306.191695 
L 119.727914 172.84591 
L 118.495829 172.84591 
z
" clip-path="url(#p806c532067)" style="fill: #1f77b4"/>
   </g>
   <g id="patch_35">
    <path d="M 121.576043 65306.191695 
L 122.808128 65306.191695 
L 122.808128 175.943127 
L 121.576043 175.943127 
z
" clip-path="url(#p806c532067)" style="fill: #1f77b4"/>
   </g>
   <g id="patch_36">
    <path d="M 123.11615 65306.191695 
L 124.348235 65306.191695 
L 124.348235 174.35207 
L 123.11615 174.35207 
z
" clip-path="url(#p806c532067)" style="fill: #1f77b4"/>
   </g>
   <g id="patch_37">
    <path d="M 120.035936 65306.191695 
L 121.268021 65306.191695 
L 121.268021 176.355306 
L 120.035936 176.355306 
z
" clip-path="url(#p806c532067)" style="fill: #1f77b4"/>
   </g>
   <g id="patch_38">
    <path d="M 124.656257 65306.191695 
L 125.888342 65306.191695 
L 125.888342 174.35207 
L 124.656257 174.35207 
z
" clip-path="url(#p806c532067)" style="fill: #1f77b4"/>
   </g>
   <g id="patch_39">
    <path d="M 141.597433 65306.191695 
L 142.829519 65306.191695 
L 142.829519 185.036764 
L 141.597433 185.036764 
z
" clip-path="url(#p806c532067)" style="fill: #1f77b4"/>
   </g>
   <g id="patch_40">
    <path d="M 126.196364 65306.191695 
L 127.428449 65306.191695 
L 127.428449 181.33734 
L 126.196364 181.33734 
z
" clip-path="url(#p806c532067)" style="fill: #1f77b4"/>
   </g>
   <g id="patch_41">
    <path d="M 143.13754 65306.191695 
L 144.369626 65306.191695 
L 144.369626 198.533527 
L 143.13754 198.533527 
z
" clip-path="url(#p806c532067)" style="fill: #1f77b4"/>
   </g>
   <g id="patch_42">
    <path d="M 150.838075 65306.191695 
L 152.07016 65306.191695 
L 152.07016 186.783742 
L 150.838075 186.783742 
z
" clip-path="url(#p806c532067)" style="fill: #1f77b4"/>
   </g>
   <g id="patch_43">
    <path d="M 149.297968 65306.191695 
L 150.530053 65306.191695 
L 150.530053 193.538102 
L 149.297968 193.538102 
z
" clip-path="url(#p806c532067)" style="fill: #1f77b4"/>
   </g>
   <g id="patch_44">
    <path d="M 135.437005 65306.191695 
L 136.669091 65306.191695 
L 136.669091 188.011491 
L 135.437005 188.011491 
z
" clip-path="url(#p806c532067)" style="fill: #1f77b4"/>
   </g>
   <g id="patch_45">
    <path d="M 132.356791 65306.191695 
L 133.588877 65306.191695 
L 133.588877 186.783742 
L 132.356791 186.783742 
z
" clip-path="url(#p806c532067)" style="fill: #1f77b4"/>
   </g>
   <g id="patch_46">
    <path d="M 136.977112 65306.191695 
L 138.209198 65306.191695 
L 138.209198 188.011491 
L 136.977112 188.011491 
z
" clip-path="url(#p806c532067)" style="fill: #1f77b4"/>
   </g>
   <g id="patch_47">
    <path d="M 160.078717 65306.191695 
L 161.310802 65306.191695 
L 161.310802 197.637141 
L 160.078717 197.637141 
z
" clip-path="url(#p806c532067)" style="fill: #1f77b4"/>
   </g>
   <g id="patch_48">
    <path d="M 138.517219 65306.191695 
L 139.749305 65306.191695 
L 139.749305 182.345797 
L 138.517219 182.345797 
z
" clip-path="url(#p806c532067)" style="fill: #1f77b4"/>
   </g>
   <g id="patch_49">
    <path d="M 161.618824 65306.191695 
L 162.850909 65306.191695 
L 162.850909 209.529593 
L 161.618824 209.529593 
z
" clip-path="url(#p806c532067)" style="fill: #1f77b4"/>
   </g>
   <g id="patch_50">
    <path d="M 156.998503 65306.191695 
L 158.230588 65306.191695 
L 158.230588 209.529593 
L 156.998503 209.529593 
z
" clip-path="url(#p806c532067)" style="fill: #1f77b4"/>
   </g>
   <g id="patch_51">
    <path d="M 127.736471 65306.191695 
L 128.968556 65306.191695 
L 128.968556 182.863863 
L 127.736471 182.863863 
z
" clip-path="url(#p806c532067)" style="fill: #1f77b4"/>
   </g>
   <g id="patch_52">
    <path d="M 184.720428 65306.191695 
L 185.952513 65306.191695 
L 185.952513 209.529593 
L 184.720428 209.529593 
z
" clip-path="url(#p806c532067)" style="fill: #1f77b4"/>
   </g>
   <g id="patch_53">
    <path d="M 146.217754 65306.191695 
L 147.44984 65306.191695 
L 147.44984 195.925478 
L 146.217754 195.925478 
z
" clip-path="url(#p806c532067)" style="fill: #1f77b4"/>
   </g>
   <g id="patch_54">
    <path d="M 133.896898 65306.191695 
L 135.128984 65306.191695 
L 135.128984 188.011491 
L 133.896898 188.011491 
z
" clip-path="url(#p806c532067)" style="fill: #1f77b4"/>
   </g>
   <g id="patch_55">
    <path d="M 186.260535 65306.191695 
L 187.49262 65306.191695 
L 187.49262 217.207313 
L 186.260535 217.207313 
z
" clip-path="url(#p806c532067)" style="fill: #1f77b4"/>
   </g>
   <g id="patch_56">
    <path d="M 147.757861 65306.191695 
L 148.989947 65306.191695 
L 148.989947 187.390943 
L 147.757861 187.390943 
z
" clip-path="url(#p806c532067)" style="fill: #1f77b4"/>
   </g>
   <g id="patch_57">
    <path d="M 167.779251 65306.191695 
L 169.011337 65306.191695 
L 169.011337 199.459308 
L 167.779251 199.459308 
z
" clip-path="url(#p806c532067)" style="fill: #1f77b4"/>
   </g>
   <g id="patch_58">
    <path d="M 140.057326 65306.191695 
L 141.289412 65306.191695 
L 141.289412 190.639787 
L 140.057326 190.639787 
z
" clip-path="url(#p806c532067)" style="fill: #1f77b4"/>
   </g>
   <g id="patch_59">
    <path d="M 177.019893 65306.191695 
L 178.251979 65306.191695 
L 178.251979 212.355329 
L 177.019893 212.355329 
z
" clip-path="url(#p806c532067)" style="fill: #1f77b4"/>
   </g>
   <g id="patch_60">
    <path d="M 144.677647 65306.191695 
L 145.909733 65306.191695 
L 145.909733 194.311679 
L 144.677647 194.311679 
z
" clip-path="url(#p806c532067)" style="fill: #1f77b4"/>
   </g>
   <g id="patch_61">
    <path d="M 166.239144 65306.191695 
L 167.47123 65306.191695 
L 167.47123 202.434034 
L 166.239144 202.434034 
z
" clip-path="url(#p806c532067)" style="fill: #1f77b4"/>
   </g>
   <g id="patch_62">
    <path d="M 172.399572 65306.191695 
L 173.631658 65306.191695 
L 173.631658 215.49565 
L 172.399572 215.49565 
z
" clip-path="url(#p806c532067)" style="fill: #1f77b4"/>
   </g>
   <g id="patch_63">
    <path d="M 163.15893 65306.191695 
L 164.391016 65306.191695 
L 164.391016 198.533527 
L 163.15893 198.533527 
z
" clip-path="url(#p806c532067)" style="fill: #1f77b4"/>
   </g>
   <g id="patch_64">
    <path d="M 197.041283 65306.191695 
L 198.273369 65306.191695 
L 198.273369 213.881851 
L 197.041283 213.881851 
z
" clip-path="url(#p806c532067)" style="fill: #1f77b4"/>
   </g>
   <g id="patch_65">
    <path d="M 155.458396 65306.191695 
L 156.690481 65306.191695 
L 156.690481 193.538102 
L 155.458396 193.538102 
z
" clip-path="url(#p806c532067)" style="fill: #1f77b4"/>
   </g>
   <g id="patch_66">
    <path d="M 178.56 65306.191695 
L 179.792086 65306.191695 
L 179.792086 219.02948 
L 178.56 219.02948 
z
" clip-path="url(#p806c532067)" style="fill: #1f77b4"/>
   </g>
   <g id="patch_67">
    <path d="M 164.699037 65306.191695 
L 165.931123 65306.191695 
L 165.931123 200.416477 
L 164.699037 200.416477 
z
" clip-path="url(#p806c532067)" style="fill: #1f77b4"/>
   </g>
   <g id="patch_68">
    <path d="M 158.53861 65306.191695 
L 159.770695 65306.191695 
L 159.770695 195.925478 
L 158.53861 195.925478 
z
" clip-path="url(#p806c532067)" style="fill: #1f77b4"/>
   </g>
   <g id="patch_69">
    <path d="M 152.378182 65306.191695 
L 153.610267 65306.191695 
L 153.610267 201.407238 
L 152.378182 201.407238 
z
" clip-path="url(#p806c532067)" style="fill: #1f77b4"/>
   </g>
   <g id="patch_70">
    <path d="M 170.859465 65306.191695 
L 172.091551 65306.191695 
L 172.091551 208.216157 
L 170.859465 208.216157 
z
" clip-path="url(#p806c532067)" style="fill: #1f77b4"/>
   </g>
   <g id="patch_71">
    <path d="M 180.100107 65306.191695 
L 181.332193 65306.191695 
L 181.332193 230.477296 
L 180.100107 230.477296 
z
" clip-path="url(#p806c532067)" style="fill: #1f77b4"/>
   </g>
   <g id="patch_72">
    <path d="M 153.918289 65306.191695 
L 155.150374 65306.191695 
L 155.150374 190.639787 
L 153.918289 190.639787 
z
" clip-path="url(#p806c532067)" style="fill: #1f77b4"/>
   </g>
   <g id="patch_73">
    <path d="M 209.362139 65306.191695 
L 210.594225 65306.191695 
L 210.594225 227.786329 
L 209.362139 227.786329 
z
" clip-path="url(#p806c532067)" style="fill: #1f77b4"/>
   </g>
   <g id="patch_74">
    <path d="M 169.319358 65306.191695 
L 170.551444 65306.191695 
L 170.551444 210.907124 
L 169.319358 210.907124 
z
" clip-path="url(#p806c532067)" style="fill: #1f77b4"/>
   </g>
   <g id="patch_75">
    <path d="M 207.822032 65306.191695 
L 209.054118 65306.191695 
L 209.054118 256.347656 
L 207.822032 256.347656 
z
" clip-path="url(#p806c532067)" style="fill: #1f77b4"/>
   </g>
   <g id="patch_76">
    <path d="M 190.880856 65306.191695 
L 192.112941 65306.191695 
L 192.112941 225.329668 
L 190.880856 225.329668 
z
" clip-path="url(#p806c532067)" style="fill: #1f77b4"/>
   </g>
   <g id="patch_77">
    <path d="M 203.201711 65306.191695 
L 204.433797 65306.191695 
L 204.433797 230.477296 
L 203.201711 230.477296 
z
" clip-path="url(#p806c532067)" style="fill: #1f77b4"/>
   </g>
   <g id="patch_78">
    <path d="M 189.340749 65306.191695 
L 190.572834 65306.191695 
L 190.572834 209.529593 
L 189.340749 209.529593 
z
" clip-path="url(#p806c532067)" style="fill: #1f77b4"/>
   </g>
   <g id="patch_79">
    <path d="M 187.800642 65306.191695 
L 189.032727 65306.191695 
L 189.032727 223.069759 
L 187.800642 223.069759 
z
" clip-path="url(#p806c532067)" style="fill: #1f77b4"/>
   </g>
   <g id="patch_80">
    <path d="M 181.640214 65306.191695 
L 182.872299 65306.191695 
L 182.872299 212.355329 
L 181.640214 212.355329 
z
" clip-path="url(#p806c532067)" style="fill: #1f77b4"/>
   </g>
   <g id="patch_81">
    <path d="M 201.661604 65306.191695 
L 202.89369 65306.191695 
L 202.89369 240.547582 
L 201.661604 240.547582 
z
" clip-path="url(#p806c532067)" style="fill: #1f77b4"/>
   </g>
   <g id="patch_82">
    <path d="M 235.543957 65306.191695 
L 236.776043 65306.191695 
L 236.776043 264.470011 
L 235.543957 264.470011 
z
" clip-path="url(#p806c532067)" style="fill: #1f77b4"/>
   </g>
   <g id="patch_83">
    <path d="M 175.479786 65306.191695 
L 176.711872 65306.191695 
L 176.711872 219.02948 
L 175.479786 219.02948 
z
" clip-path="url(#p806c532067)" style="fill: #1f77b4"/>
   </g>
   <g id="patch_84">
    <path d="M 215.522567 65306.191695 
L 216.754652 65306.191695 
L 216.754652 227.786329 
L 215.522567 227.786329 
z
" clip-path="url(#p806c532067)" style="fill: #1f77b4"/>
   </g>
   <g id="patch_85">
    <path d="M 200.121497 65306.191695 
L 201.353583 65306.191695 
L 201.353583 244.89984 
L 200.121497 244.89984 
z
" clip-path="url(#p806c532067)" style="fill: #1f77b4"/>
   </g>
   <g id="patch_86">
    <path d="M 192.420963 65306.191695 
L 193.653048 65306.191695 
L 193.653048 230.477296 
L 192.420963 230.477296 
z
" clip-path="url(#p806c532067)" style="fill: #1f77b4"/>
   </g>
   <g id="patch_87">
    <path d="M 173.939679 65306.191695 
L 175.171765 65306.191695 
L 175.171765 202.434034 
L 173.939679 202.434034 
z
" clip-path="url(#p806c532067)" style="fill: #1f77b4"/>
   </g>
   <g id="patch_88">
    <path d="M 193.96107 65306.191695 
L 195.193155 65306.191695 
L 195.193155 210.907124 
L 193.96107 210.907124 
z
" clip-path="url(#p806c532067)" style="fill: #1f77b4"/>
   </g>
   <g id="patch_89">
    <path d="M 247.864813 65306.191695 
L 249.096898 65306.191695 
L 249.096898 264.470011 
L 247.864813 264.470011 
z
" clip-path="url(#p806c532067)" style="fill: #1f77b4"/>
   </g>
   <g id="patch_90">
    <path d="M 232.463743 65306.191695 
L 233.695829 65306.191695 
L 233.695829 256.347656 
L 232.463743 256.347656 
z
" clip-path="url(#p806c532067)" style="fill: #1f77b4"/>
   </g>
   <g id="patch_91">
    <path d="M 183.180321 65306.191695 
L 184.412406 65306.191695 
L 184.412406 209.529593 
L 183.180321 209.529593 
z
" clip-path="url(#p806c532067)" style="fill: #1f77b4"/>
   </g>
   <g id="patch_92">
    <path d="M 250.945027 65306.191695 
L 252.177112 65306.191695 
L 252.177112 275.917828 
L 250.945027 275.917828 
z
" clip-path="url(#p806c532067)" style="fill: #1f77b4"/>
   </g>
   <g id="patch_93">
    <path d="M 224.763209 65306.191695 
L 225.995294 65306.191695 
L 225.995294 236.777484 
L 224.763209 236.777484 
z
" clip-path="url(#p806c532067)" style="fill: #1f77b4"/>
   </g>
   <g id="patch_94">
    <path d="M 195.501176 65306.191695 
L 196.733262 65306.191695 
L 196.733262 217.207313 
L 195.501176 217.207313 
z
" clip-path="url(#p806c532067)" style="fill: #1f77b4"/>
   </g>
   <g id="patch_95">
    <path d="M 266.346096 65306.191695 
L 267.578182 65306.191695 
L 267.578182 256.347656 
L 266.346096 256.347656 
z
" clip-path="url(#p806c532067)" style="fill: #1f77b4"/>
   </g>
   <g id="patch_96">
    <path d="M 238.624171 65306.191695 
L 239.856257 65306.191695 
L 239.856257 264.470011 
L 238.624171 264.470011 
z
" clip-path="url(#p806c532067)" style="fill: #1f77b4"/>
   </g>
   <g id="patch_97">
    <path d="M 198.58139 65306.191695 
L 199.813476 65306.191695 
L 199.813476 227.786329 
L 198.58139 227.786329 
z
" clip-path="url(#p806c532067)" style="fill: #1f77b4"/>
   </g>
   <g id="patch_98">
    <path d="M 212.442353 65306.191695 
L 213.674439 65306.191695 
L 213.674439 250.047468 
L 212.442353 250.047468 
z
" clip-path="url(#p806c532067)" style="fill: #1f77b4"/>
   </g>
   <g id="patch_99">
    <path d="M 204.741818 65306.191695 
L 205.973904 65306.191695 
L 205.973904 256.347656 
L 204.741818 256.347656 
z
" clip-path="url(#p806c532067)" style="fill: #1f77b4"/>
   </g>
   <g id="patch_100">
    <path d="M 252.485134 65306.191695 
L 253.717219 65306.191695 
L 253.717219 275.917828 
L 252.485134 275.917828 
z
" clip-path="url(#p806c532067)" style="fill: #1f77b4"/>
   </g>
   <g id="patch_101">
    <path d="M 218.602781 65306.191695 
L 219.834866 65306.191695 
L 219.834866 236.777484 
L 218.602781 236.777484 
z
" clip-path="url(#p806c532067)" style="fill: #1f77b4"/>
   </g>
   <g id="patch_102">
    <path d="M 223.223102 65306.191695 
L 224.455187 65306.191695 
L 224.455187 233.452023 
L 223.223102 233.452023 
z
" clip-path="url(#p806c532067)" style="fill: #1f77b4"/>
   </g>
   <g id="patch_103">
    <path d="M 213.98246 65306.191695 
L 215.214545 65306.191695 
L 215.214545 240.547582 
L 213.98246 240.547582 
z
" clip-path="url(#p806c532067)" style="fill: #1f77b4"/>
   </g>
   <g id="patch_104">
    <path d="M 210.902246 65306.191695 
L 212.134332 65306.191695 
L 212.134332 240.547582 
L 210.902246 240.547582 
z
" clip-path="url(#p806c532067)" style="fill: #1f77b4"/>
   </g>
   <g id="patch_105">
    <path d="M 241.704385 65306.191695 
L 242.936471 65306.191695 
L 242.936471 295.488 
L 241.704385 295.488 
z
" clip-path="url(#p806c532067)" style="fill: #1f77b4"/>
   </g>
   <g id="patch_106">
    <path d="M 270.966417 65306.191695 
L 272.198503 65306.191695 
L 272.198503 264.470011 
L 270.966417 264.470011 
z
" clip-path="url(#p806c532067)" style="fill: #1f77b4"/>
   </g>
   <g id="patch_107">
    <path d="M 206.281925 65306.191695 
L 207.514011 65306.191695 
L 207.514011 250.047468 
L 206.281925 250.047468 
z
" clip-path="url(#p806c532067)" style="fill: #1f77b4"/>
   </g>
   <g id="patch_108">
    <path d="M 220.142888 65306.191695 
L 221.374973 65306.191695 
L 221.374973 250.047468 
L 220.142888 250.047468 
z
" clip-path="url(#p806c532067)" style="fill: #1f77b4"/>
   </g>
   <g id="patch_109">
    <path d="M 243.244492 65306.191695 
L 244.476578 65306.191695 
L 244.476578 250.047468 
L 243.244492 250.047468 
z
" clip-path="url(#p806c532067)" style="fill: #1f77b4"/>
   </g>
   <g id="patch_110">
    <path d="M 269.42631 65306.191695 
L 270.658396 65306.191695 
L 270.658396 295.488 
L 269.42631 295.488 
z
" clip-path="url(#p806c532067)" style="fill: #1f77b4"/>
   </g>
   <g id="patch_111">
    <path d="M 237.084064 65306.191695 
L 238.31615 65306.191695 
L 238.31615 250.047468 
L 237.084064 250.047468 
z
" clip-path="url(#p806c532067)" style="fill: #1f77b4"/>
   </g>
   <g id="patch_112">
    <path d="M 229.383529 65306.191695 
L 230.615615 65306.191695 
L 230.615615 295.488 
L 229.383529 295.488 
z
" clip-path="url(#p806c532067)" style="fill: #1f77b4"/>
   </g>
   <g id="patch_113">
    <path d="M 226.303316 65306.191695 
L 227.535401 65306.191695 
L 227.535401 256.347656 
L 226.303316 256.347656 
z
" clip-path="url(#p806c532067)" style="fill: #1f77b4"/>
   </g>
   <g id="patch_114">
    <path d="M 244.784599 65306.191695 
L 246.016684 65306.191695 
L 246.016684 275.917828 
L 244.784599 275.917828 
z
" clip-path="url(#p806c532067)" style="fill: #1f77b4"/>
   </g>
   <g id="patch_115">
    <path d="M 263.265882 65306.191695 
L 264.497968 65306.191695 
L 264.497968 295.488 
L 263.265882 295.488 
z
" clip-path="url(#p806c532067)" style="fill: #1f77b4"/>
   </g>
   <g id="patch_116">
    <path d="M 261.725775 65306.191695 
L 262.957861 65306.191695 
L 262.957861 275.917828 
L 261.725775 275.917828 
z
" clip-path="url(#p806c532067)" style="fill: #1f77b4"/>
   </g>
   <g id="patch_117">
    <path d="M 217.062674 65306.191695 
L 218.294759 65306.191695 
L 218.294759 244.89984 
L 217.062674 244.89984 
z
" clip-path="url(#p806c532067)" style="fill: #1f77b4"/>
   </g>
   <g id="patch_118">
    <path d="M 249.40492 65306.191695 
L 250.637005 65306.191695 
L 250.637005 275.917828 
L 249.40492 275.917828 
z
" clip-path="url(#p806c532067)" style="fill: #1f77b4"/>
   </g>
   <g id="patch_119">
    <path d="M 320.24984 65306.191695 
L 321.481925 65306.191695 
L 321.481925 275.917828 
L 320.24984 275.917828 
z
" clip-path="url(#p806c532067)" style="fill: #1f77b4"/>
   </g>
   <g id="patch_120">
    <path d="M 230.923636 65306.191695 
L 232.155722 65306.191695 
L 232.155722 256.347656 
L 230.923636 256.347656 
z
" clip-path="url(#p806c532067)" style="fill: #1f77b4"/>
   </g>
   <g id="patch_121">
    <path d="M 258.645561 65306.191695 
L 259.877647 65306.191695 
L 259.877647 275.917828 
L 258.645561 275.917828 
z
" clip-path="url(#p806c532067)" style="fill: #1f77b4"/>
   </g>
   <g id="patch_122">
    <path d="M 221.682995 65306.191695 
L 222.91508 65306.191695 
L 222.91508 250.047468 
L 221.682995 250.047468 
z
" clip-path="url(#p806c532067)" style="fill: #1f77b4"/>
   </g>
   <g id="patch_123">
    <path d="M 246.324706 65306.191695 
L 247.556791 65306.191695 
L 247.556791 295.488 
L 246.324706 295.488 
z
" clip-path="url(#p806c532067)" style="fill: #1f77b4"/>
   </g>
   <g id="patch_124">
    <path d="M 340.27123 65306.191695 
L 341.503316 65306.191695 
L 341.503316 295.488 
L 340.27123 295.488 
z
" clip-path="url(#p806c532067)" style="fill: #1f77b4"/>
   </g>
   <g id="patch_125">
    <path d="M 287.907594 65306.191695 
L 289.139679 65306.191695 
L 289.139679 264.470011 
L 287.907594 264.470011 
z
" clip-path="url(#p806c532067)" style="fill: #1f77b4"/>
   </g>
   <g id="patch_126">
    <path d="M 275.586738 65306.191695 
L 276.818824 65306.191695 
L 276.818824 264.470011 
L 275.586738 264.470011 
z
" clip-path="url(#p806c532067)" style="fill: #1f77b4"/>
   </g>
   <g id="patch_127">
    <path d="M 332.570695 65306.191695 
L 333.802781 65306.191695 
L 333.802781 295.488 
L 332.570695 295.488 
z
" clip-path="url(#p806c532067)" style="fill: #1f77b4"/>
   </g>
   <g id="patch_128">
    <path d="M 227.843422 65306.191695 
L 229.075508 65306.191695 
L 229.075508 264.470011 
L 227.843422 264.470011 
z
" clip-path="url(#p806c532067)" style="fill: #1f77b4"/>
   </g>
   <g id="patch_129">
    <path d="M 255.565348 65306.191695 
L 256.797433 65306.191695 
L 256.797433 295.488 
L 255.565348 295.488 
z
" clip-path="url(#p806c532067)" style="fill: #1f77b4"/>
   </g>
   <g id="patch_130">
    <path d="M 295.608128 65306.191695 
L 296.840214 65306.191695 
L 296.840214 295.488 
L 295.608128 295.488 
z
" clip-path="url(#p806c532067)" style="fill: #1f77b4"/>
   </g>
   <g id="patch_131">
    <path d="M 292.527914 65306.191695 
L 293.76 65306.191695 
L 293.76 295.488 
L 292.527914 295.488 
z
" clip-path="url(#p806c532067)" style="fill: #1f77b4"/>
   </g>
   <g id="patch_132">
    <path d="M 257.105455 65306.191695 
L 258.33754 65306.191695 
L 258.33754 275.917828 
L 257.105455 275.917828 
z
" clip-path="url(#p806c532067)" style="fill: #1f77b4"/>
   </g>
   <g id="patch_133">
    <path d="M 264.805989 65306.191695 
L 266.038075 65306.191695 
L 266.038075 275.917828 
L 264.805989 275.917828 
z
" clip-path="url(#p806c532067)" style="fill: #1f77b4"/>
   </g>
   <g id="patch_134">
    <path d="M 260.185668 65306.191695 
L 261.417754 65306.191695 
L 261.417754 295.488 
L 260.185668 295.488 
z
" clip-path="url(#p806c532067)" style="fill: #1f77b4"/>
   </g>
   <g id="patch_135">
    <path d="M 240.164278 65306.191695 
L 241.396364 65306.191695 
L 241.396364 275.917828 
L 240.164278 275.917828 
z
" clip-path="url(#p806c532067)" style="fill: #1f77b4"/>
   </g>
   <g id="patch_136">
    <path d="M 234.00385 65306.191695 
L 235.235936 65306.191695 
L 235.235936 295.488 
L 234.00385 295.488 
z
" clip-path="url(#p806c532067)" style="fill: #1f77b4"/>
   </g>
   <g id="patch_137">
    <path d="M 397.255187 65306.191695 
L 398.487273 65306.191695 
L 398.487273 295.488 
L 397.255187 295.488 
z
" clip-path="url(#p806c532067)" style="fill: #1f77b4"/>
   </g>
   <g id="patch_138">
    <path d="M 278.666952 65306.191695 
L 279.899037 65306.191695 
L 279.899037 295.488 
L 278.666952 295.488 
z
" clip-path="url(#p806c532067)" style="fill: #1f77b4"/>
   </g>
   <g id="patch_139">
    <path d="M 254.025241 65306.191695 
L 255.257326 65306.191695 
L 255.257326 295.488 
L 254.025241 295.488 
z
" clip-path="url(#p806c532067)" style="fill: #1f77b4"/>
   </g>
   <g id="patch_140">
    <path d="M 351.051979 65306.191695 
L 352.284064 65306.191695 
L 352.284064 295.488 
L 351.051979 295.488 
z
" clip-path="url(#p806c532067)" style="fill: #1f77b4"/>
   </g>
   <g id="patch_141">
    <path d="M 361.832727 65306.191695 
L 363.064813 65306.191695 
L 363.064813 295.488 
L 361.832727 295.488 
z
" clip-path="url(#p806c532067)" style="fill: #1f77b4"/>
   </g>
   <g id="matplotlib.axis_1">
    <g id="xtick_1">
     <g id="line2d_1">
      <defs>
       <path id="m08f408f9a9" d="M 0 0 
L 0 3.5 
" style="stroke: #000000; stroke-width: 0.8"/>
      </defs>
      <g>
       <use xlink:href="#m08f408f9a9" x="74.44877" y="307.584" style="stroke: #000000; stroke-width: 0.8"/>
      </g>
     </g>
     <g id="text_1">
      <!-- 0 -->
      <g transform="translate(71.26752 322.182437) scale(0.1 -0.1)">
       <defs>
        <path id="DejaVuSans-30" d="M 2034 4250 
Q 1547 4250 1301 3770 
Q 1056 3291 1056 2328 
Q 1056 1369 1301 889 
Q 1547 409 2034 409 
Q 2525 409 2770 889 
Q 3016 1369 3016 2328 
Q 3016 3291 2770 3770 
Q 2525 4250 2034 4250 
z
M 2034 4750 
Q 2819 4750 3233 4129 
Q 3647 3509 3647 2328 
Q 3647 1150 3233 529 
Q 2819 -91 2034 -91 
Q 1250 -91 836 529 
Q 422 1150 422 2328 
Q 422 3509 836 4129 
Q 1250 4750 2034 4750 
z
" transform="scale(0.015625)"/>
       </defs>
       <use xlink:href="#DejaVuSans-30"/>
      </g>
     </g>
    </g>
    <g id="xtick_2">
     <g id="line2d_2">
      <g>
       <use xlink:href="#m08f408f9a9" x="151.454118" y="307.584" style="stroke: #000000; stroke-width: 0.8"/>
      </g>
     </g>
     <g id="text_2">
      <!-- 50 -->
      <g transform="translate(145.091618 322.182437) scale(0.1 -0.1)">
       <defs>
        <path id="DejaVuSans-35" d="M 691 4666 
L 3169 4666 
L 3169 4134 
L 1269 4134 
L 1269 2991 
Q 1406 3038 1543 3061 
Q 1681 3084 1819 3084 
Q 2600 3084 3056 2656 
Q 3513 2228 3513 1497 
Q 3513 744 3044 326 
Q 2575 -91 1722 -91 
Q 1428 -91 1123 -41 
Q 819 9 494 109 
L 494 744 
Q 775 591 1075 516 
Q 1375 441 1709 441 
Q 2250 441 2565 725 
Q 2881 1009 2881 1497 
Q 2881 1984 2565 2268 
Q 2250 2553 1709 2553 
Q 1456 2553 1204 2497 
Q 953 2441 691 2322 
L 691 4666 
z
" transform="scale(0.015625)"/>
       </defs>
       <use xlink:href="#DejaVuSans-35"/>
       <use xlink:href="#DejaVuSans-30" x="63.623047"/>
      </g>
     </g>
    </g>
    <g id="xtick_3">
     <g id="line2d_3">
      <g>
       <use xlink:href="#m08f408f9a9" x="228.459465" y="307.584" style="stroke: #000000; stroke-width: 0.8"/>
      </g>
     </g>
     <g id="text_3">
      <!-- 100 -->
      <g transform="translate(218.915715 322.182437) scale(0.1 -0.1)">
       <defs>
        <path id="DejaVuSans-31" d="M 794 531 
L 1825 531 
L 1825 4091 
L 703 3866 
L 703 4441 
L 1819 4666 
L 2450 4666 
L 2450 531 
L 3481 531 
L 3481 0 
L 794 0 
L 794 531 
z
" transform="scale(0.015625)"/>
       </defs>
       <use xlink:href="#DejaVuSans-31"/>
       <use xlink:href="#DejaVuSans-30" x="63.623047"/>
       <use xlink:href="#DejaVuSans-30" x="127.246094"/>
      </g>
     </g>
    </g>
    <g id="xtick_4">
     <g id="line2d_4">
      <g>
       <use xlink:href="#m08f408f9a9" x="305.464813" y="307.584" style="stroke: #000000; stroke-width: 0.8"/>
      </g>
     </g>
     <g id="text_4">
      <!-- 150 -->
      <g transform="translate(295.921063 322.182437) scale(0.1 -0.1)">
       <use xlink:href="#DejaVuSans-31"/>
       <use xlink:href="#DejaVuSans-35" x="63.623047"/>
       <use xlink:href="#DejaVuSans-30" x="127.246094"/>
      </g>
     </g>
    </g>
    <g id="xtick_5">
     <g id="line2d_5">
      <g>
       <use xlink:href="#m08f408f9a9" x="382.47016" y="307.584" style="stroke: #000000; stroke-width: 0.8"/>
      </g>
     </g>
     <g id="text_5">
      <!-- 200 -->
      <g transform="translate(372.92641 322.182437) scale(0.1 -0.1)">
       <defs>
        <path id="DejaVuSans-32" d="M 1228 531 
L 3431 531 
L 3431 0 
L 469 0 
L 469 531 
Q 828 903 1448 1529 
Q 2069 2156 2228 2338 
Q 2531 2678 2651 2914 
Q 2772 3150 2772 3378 
Q 2772 3750 2511 3984 
Q 2250 4219 1831 4219 
Q 1534 4219 1204 4116 
Q 875 4013 500 3803 
L 500 4441 
Q 881 4594 1212 4672 
Q 1544 4750 1819 4750 
Q 2544 4750 2975 4387 
Q 3406 4025 3406 3419 
Q 3406 3131 3298 2873 
Q 3191 2616 2906 2266 
Q 2828 2175 2409 1742 
Q 1991 1309 1228 531 
z
" transform="scale(0.015625)"/>
       </defs>
       <use xlink:href="#DejaVuSans-32"/>
       <use xlink:href="#DejaVuSans-30" x="63.623047"/>
       <use xlink:href="#DejaVuSans-30" x="127.246094"/>
      </g>
     </g>
    </g>
    <g id="text_6">
     <!-- Depth of Element -->
     <g transform="translate(192.231875 335.860562) scale(0.1 -0.1)">
      <defs>
       <path id="DejaVuSans-44" d="M 1259 4147 
L 1259 519 
L 2022 519 
Q 2988 519 3436 956 
Q 3884 1394 3884 2338 
Q 3884 3275 3436 3711 
Q 2988 4147 2022 4147 
L 1259 4147 
z
M 628 4666 
L 1925 4666 
Q 3281 4666 3915 4102 
Q 4550 3538 4550 2338 
Q 4550 1131 3912 565 
Q 3275 0 1925 0 
L 628 0 
L 628 4666 
z
" transform="scale(0.015625)"/>
       <path id="DejaVuSans-65" d="M 3597 1894 
L 3597 1613 
L 953 1613 
Q 991 1019 1311 708 
Q 1631 397 2203 397 
Q 2534 397 2845 478 
Q 3156 559 3463 722 
L 3463 178 
Q 3153 47 2828 -22 
Q 2503 -91 2169 -91 
Q 1331 -91 842 396 
Q 353 884 353 1716 
Q 353 2575 817 3079 
Q 1281 3584 2069 3584 
Q 2775 3584 3186 3129 
Q 3597 2675 3597 1894 
z
M 3022 2063 
Q 3016 2534 2758 2815 
Q 2500 3097 2075 3097 
Q 1594 3097 1305 2825 
Q 1016 2553 972 2059 
L 3022 2063 
z
" transform="scale(0.015625)"/>
       <path id="DejaVuSans-70" d="M 1159 525 
L 1159 -1331 
L 581 -1331 
L 581 3500 
L 1159 3500 
L 1159 2969 
Q 1341 3281 1617 3432 
Q 1894 3584 2278 3584 
Q 2916 3584 3314 3078 
Q 3713 2572 3713 1747 
Q 3713 922 3314 415 
Q 2916 -91 2278 -91 
Q 1894 -91 1617 61 
Q 1341 213 1159 525 
z
M 3116 1747 
Q 3116 2381 2855 2742 
Q 2594 3103 2138 3103 
Q 1681 3103 1420 2742 
Q 1159 2381 1159 1747 
Q 1159 1113 1420 752 
Q 1681 391 2138 391 
Q 2594 391 2855 752 
Q 3116 1113 3116 1747 
z
" transform="scale(0.015625)"/>
       <path id="DejaVuSans-74" d="M 1172 4494 
L 1172 3500 
L 2356 3500 
L 2356 3053 
L 1172 3053 
L 1172 1153 
Q 1172 725 1289 603 
Q 1406 481 1766 481 
L 2356 481 
L 2356 0 
L 1766 0 
Q 1100 0 847 248 
Q 594 497 594 1153 
L 594 3053 
L 172 3053 
L 172 3500 
L 594 3500 
L 594 4494 
L 1172 4494 
z
" transform="scale(0.015625)"/>
       <path id="DejaVuSans-68" d="M 3513 2113 
L 3513 0 
L 2938 0 
L 2938 2094 
Q 2938 2591 2744 2837 
Q 2550 3084 2163 3084 
Q 1697 3084 1428 2787 
Q 1159 2491 1159 1978 
L 1159 0 
L 581 0 
L 581 4863 
L 1159 4863 
L 1159 2956 
Q 1366 3272 1645 3428 
Q 1925 3584 2291 3584 
Q 2894 3584 3203 3211 
Q 3513 2838 3513 2113 
z
" transform="scale(0.015625)"/>
       <path id="DejaVuSans-20" transform="scale(0.015625)"/>
       <path id="DejaVuSans-6f" d="M 1959 3097 
Q 1497 3097 1228 2736 
Q 959 2375 959 1747 
Q 959 1119 1226 758 
Q 1494 397 1959 397 
Q 2419 397 2687 759 
Q 2956 1122 2956 1747 
Q 2956 2369 2687 2733 
Q 2419 3097 1959 3097 
z
M 1959 3584 
Q 2709 3584 3137 3096 
Q 3566 2609 3566 1747 
Q 3566 888 3137 398 
Q 2709 -91 1959 -91 
Q 1206 -91 779 398 
Q 353 888 353 1747 
Q 353 2609 779 3096 
Q 1206 3584 1959 3584 
z
" transform="scale(0.015625)"/>
       <path id="DejaVuSans-66" d="M 2375 4863 
L 2375 4384 
L 1825 4384 
Q 1516 4384 1395 4259 
Q 1275 4134 1275 3809 
L 1275 3500 
L 2222 3500 
L 2222 3053 
L 1275 3053 
L 1275 0 
L 697 0 
L 697 3053 
L 147 3053 
L 147 3500 
L 697 3500 
L 697 3744 
Q 697 4328 969 4595 
Q 1241 4863 1831 4863 
L 2375 4863 
z
" transform="scale(0.015625)"/>
       <path id="DejaVuSans-45" d="M 628 4666 
L 3578 4666 
L 3578 4134 
L 1259 4134 
L 1259 2753 
L 3481 2753 
L 3481 2222 
L 1259 2222 
L 1259 531 
L 3634 531 
L 3634 0 
L 628 0 
L 628 4666 
z
" transform="scale(0.015625)"/>
       <path id="DejaVuSans-6c" d="M 603 4863 
L 1178 4863 
L 1178 0 
L 603 0 
L 603 4863 
z
" transform="scale(0.015625)"/>
       <path id="DejaVuSans-6d" d="M 3328 2828 
Q 3544 3216 3844 3400 
Q 4144 3584 4550 3584 
Q 5097 3584 5394 3201 
Q 5691 2819 5691 2113 
L 5691 0 
L 5113 0 
L 5113 2094 
Q 5113 2597 4934 2840 
Q 4756 3084 4391 3084 
Q 3944 3084 3684 2787 
Q 3425 2491 3425 1978 
L 3425 0 
L 2847 0 
L 2847 2094 
Q 2847 2600 2669 2842 
Q 2491 3084 2119 3084 
Q 1678 3084 1418 2786 
Q 1159 2488 1159 1978 
L 1159 0 
L 581 0 
L 581 3500 
L 1159 3500 
L 1159 2956 
Q 1356 3278 1631 3431 
Q 1906 3584 2284 3584 
Q 2666 3584 2933 3390 
Q 3200 3197 3328 2828 
z
" transform="scale(0.015625)"/>
       <path id="DejaVuSans-6e" d="M 3513 2113 
L 3513 0 
L 2938 0 
L 2938 2094 
Q 2938 2591 2744 2837 
Q 2550 3084 2163 3084 
Q 1697 3084 1428 2787 
Q 1159 2491 1159 1978 
L 1159 0 
L 581 0 
L 581 3500 
L 1159 3500 
L 1159 2956 
Q 1366 3272 1645 3428 
Q 1925 3584 2291 3584 
Q 2894 3584 3203 3211 
Q 3513 2838 3513 2113 
z
" transform="scale(0.015625)"/>
      </defs>
      <use xlink:href="#DejaVuSans-44"/>
      <use xlink:href="#DejaVuSans-65" x="77.001953"/>
      <use xlink:href="#DejaVuSans-70" x="138.525391"/>
      <use xlink:href="#DejaVuSans-74" x="202.001953"/>
      <use xlink:href="#DejaVuSans-68" x="241.210938"/>
      <use xlink:href="#DejaVuSans-20" x="304.589844"/>
      <use xlink:href="#DejaVuSans-6f" x="336.376953"/>
      <use xlink:href="#DejaVuSans-66" x="397.558594"/>
      <use xlink:href="#DejaVuSans-20" x="432.763672"/>
      <use xlink:href="#DejaVuSans-45" x="464.550781"/>
      <use xlink:href="#DejaVuSans-6c" x="527.734375"/>
      <use xlink:href="#DejaVuSans-65" x="555.517578"/>
      <use xlink:href="#DejaVuSans-6d" x="617.041016"/>
      <use xlink:href="#DejaVuSans-65" x="714.453125"/>
      <use xlink:href="#DejaVuSans-6e" x="775.976562"/>
      <use xlink:href="#DejaVuSans-74" x="839.355469"/>
     </g>
    </g>
   </g>
   <g id="matplotlib.axis_2">
    <g id="ytick_1">
     <g id="line2d_6">
      <defs>
       <path id="md1600ad8ec" d="M 0 0 
L -3.5 0 
" style="stroke: #000000; stroke-width: 0.8"/>
      </defs>
      <g>
       <use xlink:href="#md1600ad8ec" x="57.6" y="295.488" style="stroke: #000000; stroke-width: 0.8"/>
      </g>
     </g>
     <g id="text_7">
      <!-- $\mathdefault{10^{0}}$ -->
      <g transform="translate(33 299.287219) scale(0.1 -0.1)">
       <use xlink:href="#DejaVuSans-31" transform="translate(0 0.765625)"/>
       <use xlink:href="#DejaVuSans-30" transform="translate(63.623047 0.765625)"/>
       <use xlink:href="#DejaVuSans-30" transform="translate(128.203125 39.046875) scale(0.7)"/>
      </g>
     </g>
    </g>
    <g id="ytick_2">
     <g id="line2d_7">
      <g>
       <use xlink:href="#md1600ad8ec" x="57.6" y="230.477296" style="stroke: #000000; stroke-width: 0.8"/>
      </g>
     </g>
     <g id="text_8">
      <!-- $\mathdefault{10^{1}}$ -->
      <g transform="translate(33 234.276515) scale(0.1 -0.1)">
       <use xlink:href="#DejaVuSans-31" transform="translate(0 0.684375)"/>
       <use xlink:href="#DejaVuSans-30" transform="translate(63.623047 0.684375)"/>
       <use xlink:href="#DejaVuSans-31" transform="translate(128.203125 38.965625) scale(0.7)"/>
      </g>
     </g>
    </g>
    <g id="ytick_3">
     <g id="line2d_8">
      <g>
       <use xlink:href="#md1600ad8ec" x="57.6" y="165.466593" style="stroke: #000000; stroke-width: 0.8"/>
      </g>
     </g>
     <g id="text_9">
      <!-- $\mathdefault{10^{2}}$ -->
      <g transform="translate(33 169.265811) scale(0.1 -0.1)">
       <use xlink:href="#DejaVuSans-31" transform="translate(0 0.765625)"/>
       <use xlink:href="#DejaVuSans-30" transform="translate(63.623047 0.765625)"/>
       <use xlink:href="#DejaVuSans-32" transform="translate(128.203125 39.046875) scale(0.7)"/>
      </g>
     </g>
    </g>
    <g id="ytick_4">
     <g id="line2d_9">
      <g>
       <use xlink:href="#md1600ad8ec" x="57.6" y="100.455889" style="stroke: #000000; stroke-width: 0.8"/>
      </g>
     </g>
     <g id="text_10">
      <!-- $\mathdefault{10^{3}}$ -->
      <g transform="translate(33 104.255108) scale(0.1 -0.1)">
       <defs>
        <path id="DejaVuSans-33" d="M 2597 2516 
Q 3050 2419 3304 2112 
Q 3559 1806 3559 1356 
Q 3559 666 3084 287 
Q 2609 -91 1734 -91 
Q 1441 -91 1130 -33 
Q 819 25 488 141 
L 488 750 
Q 750 597 1062 519 
Q 1375 441 1716 441 
Q 2309 441 2620 675 
Q 2931 909 2931 1356 
Q 2931 1769 2642 2001 
Q 2353 2234 1838 2234 
L 1294 2234 
L 1294 2753 
L 1863 2753 
Q 2328 2753 2575 2939 
Q 2822 3125 2822 3475 
Q 2822 3834 2567 4026 
Q 2313 4219 1838 4219 
Q 1578 4219 1281 4162 
Q 984 4106 628 3988 
L 628 4550 
Q 988 4650 1302 4700 
Q 1616 4750 1894 4750 
Q 2613 4750 3031 4423 
Q 3450 4097 3450 3541 
Q 3450 3153 3228 2886 
Q 3006 2619 2597 2516 
z
" transform="scale(0.015625)"/>
       </defs>
       <use xlink:href="#DejaVuSans-31" transform="translate(0 0.765625)"/>
       <use xlink:href="#DejaVuSans-30" transform="translate(63.623047 0.765625)"/>
       <use xlink:href="#DejaVuSans-33" transform="translate(128.203125 39.046875) scale(0.7)"/>
      </g>
     </g>
    </g>
    <g id="ytick_5">
     <g id="line2d_10">
      <defs>
       <path id="m6aaf0eda71" d="M 0 0 
L -2 0 
" style="stroke: #000000; stroke-width: 0.6"/>
      </defs>
      <g>
       <use xlink:href="#m6aaf0eda71" x="57.6" y="305.558285" style="stroke: #000000; stroke-width: 0.6"/>
      </g>
     </g>
    </g>
    <g id="ytick_6">
     <g id="line2d_11">
      <g>
       <use xlink:href="#m6aaf0eda71" x="57.6" y="301.788188" style="stroke: #000000; stroke-width: 0.6"/>
      </g>
     </g>
    </g>
    <g id="ytick_7">
     <g id="line2d_12">
      <g>
       <use xlink:href="#m6aaf0eda71" x="57.6" y="298.462727" style="stroke: #000000; stroke-width: 0.6"/>
      </g>
     </g>
    </g>
    <g id="ytick_8">
     <g id="line2d_13">
      <g>
       <use xlink:href="#m6aaf0eda71" x="57.6" y="275.917828" style="stroke: #000000; stroke-width: 0.6"/>
      </g>
     </g>
    </g>
    <g id="ytick_9">
     <g id="line2d_14">
      <g>
       <use xlink:href="#m6aaf0eda71" x="57.6" y="264.470011" style="stroke: #000000; stroke-width: 0.6"/>
      </g>
     </g>
    </g>
    <g id="ytick_10">
     <g id="line2d_15">
      <g>
       <use xlink:href="#m6aaf0eda71" x="57.6" y="256.347656" style="stroke: #000000; stroke-width: 0.6"/>
      </g>
     </g>
    </g>
    <g id="ytick_11">
     <g id="line2d_16">
      <g>
       <use xlink:href="#m6aaf0eda71" x="57.6" y="250.047468" style="stroke: #000000; stroke-width: 0.6"/>
      </g>
     </g>
    </g>
    <g id="ytick_12">
     <g id="line2d_17">
      <g>
       <use xlink:href="#m6aaf0eda71" x="57.6" y="244.89984" style="stroke: #000000; stroke-width: 0.6"/>
      </g>
     </g>
    </g>
    <g id="ytick_13">
     <g id="line2d_18">
      <g>
       <use xlink:href="#m6aaf0eda71" x="57.6" y="240.547582" style="stroke: #000000; stroke-width: 0.6"/>
      </g>
     </g>
    </g>
    <g id="ytick_14">
     <g id="line2d_19">
      <g>
       <use xlink:href="#m6aaf0eda71" x="57.6" y="236.777484" style="stroke: #000000; stroke-width: 0.6"/>
      </g>
     </g>
    </g>
    <g id="ytick_15">
     <g id="line2d_20">
      <g>
       <use xlink:href="#m6aaf0eda71" x="57.6" y="233.452023" style="stroke: #000000; stroke-width: 0.6"/>
      </g>
     </g>
    </g>
    <g id="ytick_16">
     <g id="line2d_21">
      <g>
       <use xlink:href="#m6aaf0eda71" x="57.6" y="210.907124" style="stroke: #000000; stroke-width: 0.6"/>
      </g>
     </g>
    </g>
    <g id="ytick_17">
     <g id="line2d_22">
      <g>
       <use xlink:href="#m6aaf0eda71" x="57.6" y="199.459308" style="stroke: #000000; stroke-width: 0.6"/>
      </g>
     </g>
    </g>
    <g id="ytick_18">
     <g id="line2d_23">
      <g>
       <use xlink:href="#m6aaf0eda71" x="57.6" y="191.336953" style="stroke: #000000; stroke-width: 0.6"/>
      </g>
     </g>
    </g>
    <g id="ytick_19">
     <g id="line2d_24">
      <g>
       <use xlink:href="#m6aaf0eda71" x="57.6" y="185.036764" style="stroke: #000000; stroke-width: 0.6"/>
      </g>
     </g>
    </g>
    <g id="ytick_20">
     <g id="line2d_25">
      <g>
       <use xlink:href="#m6aaf0eda71" x="57.6" y="179.889136" style="stroke: #000000; stroke-width: 0.6"/>
      </g>
     </g>
    </g>
    <g id="ytick_21">
     <g id="line2d_26">
      <g>
       <use xlink:href="#m6aaf0eda71" x="57.6" y="175.536878" style="stroke: #000000; stroke-width: 0.6"/>
      </g>
     </g>
    </g>
    <g id="ytick_22">
     <g id="line2d_27">
      <g>
       <use xlink:href="#m6aaf0eda71" x="57.6" y="171.766781" style="stroke: #000000; stroke-width: 0.6"/>
      </g>
     </g>
    </g>
    <g id="ytick_23">
     <g id="line2d_28">
      <g>
       <use xlink:href="#m6aaf0eda71" x="57.6" y="168.441319" style="stroke: #000000; stroke-width: 0.6"/>
      </g>
     </g>
    </g>
    <g id="ytick_24">
     <g id="line2d_29">
      <g>
       <use xlink:href="#m6aaf0eda71" x="57.6" y="145.896421" style="stroke: #000000; stroke-width: 0.6"/>
      </g>
     </g>
    </g>
    <g id="ytick_25">
     <g id="line2d_30">
      <g>
       <use xlink:href="#m6aaf0eda71" x="57.6" y="134.448604" style="stroke: #000000; stroke-width: 0.6"/>
      </g>
     </g>
    </g>
    <g id="ytick_26">
     <g id="line2d_31">
      <g>
       <use xlink:href="#m6aaf0eda71" x="57.6" y="126.326249" style="stroke: #000000; stroke-width: 0.6"/>
      </g>
     </g>
    </g>
    <g id="ytick_27">
     <g id="line2d_32">
      <g>
       <use xlink:href="#m6aaf0eda71" x="57.6" y="120.026061" style="stroke: #000000; stroke-width: 0.6"/>
      </g>
     </g>
    </g>
    <g id="ytick_28">
     <g id="line2d_33">
      <g>
       <use xlink:href="#m6aaf0eda71" x="57.6" y="114.878432" style="stroke: #000000; stroke-width: 0.6"/>
      </g>
     </g>
    </g>
    <g id="ytick_29">
     <g id="line2d_34">
      <g>
       <use xlink:href="#m6aaf0eda71" x="57.6" y="110.526174" style="stroke: #000000; stroke-width: 0.6"/>
      </g>
     </g>
    </g>
    <g id="ytick_30">
     <g id="line2d_35">
      <g>
       <use xlink:href="#m6aaf0eda71" x="57.6" y="106.756077" style="stroke: #000000; stroke-width: 0.6"/>
      </g>
     </g>
    </g>
    <g id="ytick_31">
     <g id="line2d_36">
      <g>
       <use xlink:href="#m6aaf0eda71" x="57.6" y="103.430616" style="stroke: #000000; stroke-width: 0.6"/>
      </g>
     </g>
    </g>
    <g id="ytick_32">
     <g id="line2d_37">
      <g>
       <use xlink:href="#m6aaf0eda71" x="57.6" y="80.885717" style="stroke: #000000; stroke-width: 0.6"/>
      </g>
     </g>
    </g>
    <g id="ytick_33">
     <g id="line2d_38">
      <g>
       <use xlink:href="#m6aaf0eda71" x="57.6" y="69.4379" style="stroke: #000000; stroke-width: 0.6"/>
      </g>
     </g>
    </g>
    <g id="ytick_34">
     <g id="line2d_39">
      <g>
       <use xlink:href="#m6aaf0eda71" x="57.6" y="61.315545" style="stroke: #000000; stroke-width: 0.6"/>
      </g>
     </g>
    </g>
    <g id="ytick_35">
     <g id="line2d_40">
      <g>
       <use xlink:href="#m6aaf0eda71" x="57.6" y="55.015357" style="stroke: #000000; stroke-width: 0.6"/>
      </g>
     </g>
    </g>
    <g id="ytick_36">
     <g id="line2d_41">
      <g>
       <use xlink:href="#m6aaf0eda71" x="57.6" y="49.867729" style="stroke: #000000; stroke-width: 0.6"/>
      </g>
     </g>
    </g>
    <g id="ytick_37">
     <g id="line2d_42">
      <g>
       <use xlink:href="#m6aaf0eda71" x="57.6" y="45.515471" style="stroke: #000000; stroke-width: 0.6"/>
      </g>
     </g>
    </g>
    <g id="ytick_38">
     <g id="line2d_43">
      <g>
       <use xlink:href="#m6aaf0eda71" x="57.6" y="41.745373" style="stroke: #000000; stroke-width: 0.6"/>
      </g>
     </g>
    </g>
    <g id="text_11">
     <!-- Number of Elements -->
     <g transform="translate(26.920312 225.917062) rotate(-90) scale(0.1 -0.1)">
      <defs>
       <path id="DejaVuSans-4e" d="M 628 4666 
L 1478 4666 
L 3547 763 
L 3547 4666 
L 4159 4666 
L 4159 0 
L 3309 0 
L 1241 3903 
L 1241 0 
L 628 0 
L 628 4666 
z
" transform="scale(0.015625)"/>
       <path id="DejaVuSans-75" d="M 544 1381 
L 544 3500 
L 1119 3500 
L 1119 1403 
Q 1119 906 1312 657 
Q 1506 409 1894 409 
Q 2359 409 2629 706 
Q 2900 1003 2900 1516 
L 2900 3500 
L 3475 3500 
L 3475 0 
L 2900 0 
L 2900 538 
Q 2691 219 2414 64 
Q 2138 -91 1772 -91 
Q 1169 -91 856 284 
Q 544 659 544 1381 
z
M 1991 3584 
L 1991 3584 
z
" transform="scale(0.015625)"/>
       <path id="DejaVuSans-62" d="M 3116 1747 
Q 3116 2381 2855 2742 
Q 2594 3103 2138 3103 
Q 1681 3103 1420 2742 
Q 1159 2381 1159 1747 
Q 1159 1113 1420 752 
Q 1681 391 2138 391 
Q 2594 391 2855 752 
Q 3116 1113 3116 1747 
z
M 1159 2969 
Q 1341 3281 1617 3432 
Q 1894 3584 2278 3584 
Q 2916 3584 3314 3078 
Q 3713 2572 3713 1747 
Q 3713 922 3314 415 
Q 2916 -91 2278 -91 
Q 1894 -91 1617 61 
Q 1341 213 1159 525 
L 1159 0 
L 581 0 
L 581 4863 
L 1159 4863 
L 1159 2969 
z
" transform="scale(0.015625)"/>
       <path id="DejaVuSans-72" d="M 2631 2963 
Q 2534 3019 2420 3045 
Q 2306 3072 2169 3072 
Q 1681 3072 1420 2755 
Q 1159 2438 1159 1844 
L 1159 0 
L 581 0 
L 581 3500 
L 1159 3500 
L 1159 2956 
Q 1341 3275 1631 3429 
Q 1922 3584 2338 3584 
Q 2397 3584 2469 3576 
Q 2541 3569 2628 3553 
L 2631 2963 
z
" transform="scale(0.015625)"/>
       <path id="DejaVuSans-73" d="M 2834 3397 
L 2834 2853 
Q 2591 2978 2328 3040 
Q 2066 3103 1784 3103 
Q 1356 3103 1142 2972 
Q 928 2841 928 2578 
Q 928 2378 1081 2264 
Q 1234 2150 1697 2047 
L 1894 2003 
Q 2506 1872 2764 1633 
Q 3022 1394 3022 966 
Q 3022 478 2636 193 
Q 2250 -91 1575 -91 
Q 1294 -91 989 -36 
Q 684 19 347 128 
L 347 722 
Q 666 556 975 473 
Q 1284 391 1588 391 
Q 1994 391 2212 530 
Q 2431 669 2431 922 
Q 2431 1156 2273 1281 
Q 2116 1406 1581 1522 
L 1381 1569 
Q 847 1681 609 1914 
Q 372 2147 372 2553 
Q 372 3047 722 3315 
Q 1072 3584 1716 3584 
Q 2034 3584 2315 3537 
Q 2597 3491 2834 3397 
z
" transform="scale(0.015625)"/>
      </defs>
      <use xlink:href="#DejaVuSans-4e"/>
      <use xlink:href="#DejaVuSans-75" x="74.804688"/>
      <use xlink:href="#DejaVuSans-6d" x="138.183594"/>
      <use xlink:href="#DejaVuSans-62" x="235.595703"/>
      <use xlink:href="#DejaVuSans-65" x="299.072266"/>
      <use xlink:href="#DejaVuSans-72" x="360.595703"/>
      <use xlink:href="#DejaVuSans-20" x="401.708984"/>
      <use xlink:href="#DejaVuSans-6f" x="433.496094"/>
      <use xlink:href="#DejaVuSans-66" x="494.677734"/>
      <use xlink:href="#DejaVuSans-20" x="529.882812"/>
      <use xlink:href="#DejaVuSans-45" x="561.669922"/>
      <use xlink:href="#DejaVuSans-6c" x="624.853516"/>
      <use xlink:href="#DejaVuSans-65" x="652.636719"/>
      <use xlink:href="#DejaVuSans-6d" x="714.160156"/>
      <use xlink:href="#DejaVuSans-65" x="811.572266"/>
      <use xlink:href="#DejaVuSans-6e" x="873.095703"/>
      <use xlink:href="#DejaVuSans-74" x="936.474609"/>
      <use xlink:href="#DejaVuSans-73" x="975.683594"/>
     </g>
    </g>
   </g>
   <g id="patch_142">
    <path d="M 57.6 307.584 
L 57.6 41.472 
" style="fill: none; stroke: #000000; stroke-width: 0.8; stroke-linejoin: miter; stroke-linecap: square"/>
   </g>
   <g id="patch_143">
    <path d="M 414.72 307.584 
L 414.72 41.472 
" style="fill: none; stroke: #000000; stroke-width: 0.8; stroke-linejoin: miter; stroke-linecap: square"/>
   </g>
   <g id="patch_144">
    <path d="M 57.6 307.584 
L 414.72 307.584 
" style="fill: none; stroke: #000000; stroke-width: 0.8; stroke-linejoin: miter; stroke-linecap: square"/>
   </g>
   <g id="patch_145">
    <path d="M 57.6 41.472 
L 414.72 41.472 
" style="fill: none; stroke: #000000; stroke-width: 0.8; stroke-linejoin: miter; stroke-linecap: square"/>
   </g>
  </g>
 </g>
 <defs>
  <clipPath id="p806c532067">
   <rect x="57.6" y="41.472" width="357.12" height="266.112"/>
  </clipPath>
 </defs>
</svg>
