<?xml version="1.0" encoding="utf-8" standalone="no"?>
<!DOCTYPE svg PUBLIC "-//W3C//DTD SVG 1.1//EN"
  "http://www.w3.org/Graphics/SVG/1.1/DTD/svg11.dtd">
<svg xmlns:xlink="http://www.w3.org/1999/xlink" width="460.8pt" height="345.6pt" viewBox="0 0 460.8 345.6" xmlns="http://www.w3.org/2000/svg" version="1.1">
 <metadata>
  <rdf:RDF xmlns:dc="http://purl.org/dc/elements/1.1/" xmlns:cc="http://creativecommons.org/ns#" xmlns:rdf="http://www.w3.org/1999/02/22-rdf-syntax-ns#">
   <cc:Work>
    <dc:type rdf:resource="http://purl.org/dc/dcmitype/StillImage"/>
    <dc:date>2024-02-20T22:46:24.082592</dc:date>
    <dc:format>image/svg+xml</dc:format>
    <dc:creator>
     <cc:Agent>
      <dc:title>Matplotlib v3.8.3, https://matplotlib.org/</dc:title>
     </cc:Agent>
    </dc:creator>
   </cc:Work>
  </rdf:RDF>
 </metadata>
 <defs>
  <style type="text/css">*{stroke-linejoin: round; stroke-linecap: butt}</style>
 </defs>
 <g id="figure_1">
  <g id="patch_1">
   <path d="M 0 345.6 
L 460.8 345.6 
L 460.8 0 
L 0 0 
z
" style="fill: #ffffff"/>
  </g>
  <g id="axes_1">
   <g id="patch_2">
    <path d="M 57.6 307.584 
L 414.72 307.584 
L 414.72 41.472 
L 57.6 41.472 
z
" style="fill: #ffffff"/>
   </g>
   <g id="patch_3">
    <path d="M 73.832727 307.584 
L 74.824796 307.584 
L 74.824796 306.850454 
L 73.832727 306.850454 
z
" clip-path="url(#p9b0f647164)" style="fill: #1f77b4"/>
   </g>
   <g id="patch_4">
    <path d="M 75.072813 307.584 
L 76.064882 307.584 
L 76.064882 305.750136 
L 75.072813 305.750136 
z
" clip-path="url(#p9b0f647164)" style="fill: #1f77b4"/>
   </g>
   <g id="patch_5">
    <path d="M 77.552986 307.584 
L 78.545055 307.584 
L 78.545055 299.331612 
L 77.552986 299.331612 
z
" clip-path="url(#p9b0f647164)" style="fill: #1f77b4"/>
   </g>
   <g id="patch_6">
    <path d="M 78.793072 307.584 
L 79.785141 307.584 
L 79.785141 287.22811 
L 78.793072 287.22811 
z
" clip-path="url(#p9b0f647164)" style="fill: #1f77b4"/>
   </g>
   <g id="patch_7">
    <path d="M 82.51333 307.584 
L 83.505399 307.584 
L 83.505399 198.285708 
L 82.51333 198.285708 
z
" clip-path="url(#p9b0f647164)" style="fill: #1f77b4"/>
   </g>
   <g id="patch_8">
    <path d="M 76.3129 307.584 
L 77.304968 307.584 
L 77.304968 304.099658 
L 76.3129 304.099658 
z
" clip-path="url(#p9b0f647164)" style="fill: #1f77b4"/>
   </g>
   <g id="patch_9">
    <path d="M 80.033158 307.584 
L 81.025227 307.584 
L 81.025227 273.290744 
L 80.033158 273.290744 
z
" clip-path="url(#p9b0f647164)" style="fill: #1f77b4"/>
   </g>
   <g id="patch_10">
    <path d="M 81.273244 307.584 
L 82.265313 307.584 
L 82.265313 246.149557 
L 81.273244 246.149557 
z
" clip-path="url(#p9b0f647164)" style="fill: #1f77b4"/>
   </g>
   <g id="patch_11">
    <path d="M 83.753416 307.584 
L 84.745485 307.584 
L 84.745485 172.061453 
L 83.753416 172.061453 
z
" clip-path="url(#p9b0f647164)" style="fill: #1f77b4"/>
   </g>
   <g id="patch_12">
    <path d="M 86.233588 307.584 
L 87.225657 307.584 
L 87.225657 82.202119 
L 86.233588 82.202119 
z
" clip-path="url(#p9b0f647164)" style="fill: #1f77b4"/>
   </g>
   <g id="patch_13">
    <path d="M 84.993502 307.584 
L 85.985571 307.584 
L 85.985571 130.616127 
L 84.993502 130.616127 
z
" clip-path="url(#p9b0f647164)" style="fill: #1f77b4"/>
   </g>
   <g id="patch_14">
    <path d="M 89.953847 307.584 
L 90.945916 307.584 
L 90.945916 99.073667 
L 89.953847 99.073667 
z
" clip-path="url(#p9b0f647164)" style="fill: #1f77b4"/>
   </g>
   <g id="patch_15">
    <path d="M 88.713761 307.584 
L 89.70583 307.584 
L 89.70583 54.144 
L 88.713761 54.144 
z
" clip-path="url(#p9b0f647164)" style="fill: #1f77b4"/>
   </g>
   <g id="patch_16">
    <path d="M 87.473675 307.584 
L 88.465743 307.584 
L 88.465743 63.129933 
L 87.473675 63.129933 
z
" clip-path="url(#p9b0f647164)" style="fill: #1f77b4"/>
   </g>
   <g id="patch_17">
    <path d="M 94.914191 307.584 
L 95.90626 307.584 
L 95.90626 279.159109 
L 94.914191 279.159109 
z
" clip-path="url(#p9b0f647164)" style="fill: #1f77b4"/>
   </g>
   <g id="patch_18">
    <path d="M 91.193933 307.584 
L 92.186002 307.584 
L 92.186002 172.061453 
L 91.193933 172.061453 
z
" clip-path="url(#p9b0f647164)" style="fill: #1f77b4"/>
   </g>
   <g id="patch_19">
    <path d="M 99.874536 307.584 
L 100.866605 307.584 
L 100.866605 290.529065 
L 99.874536 290.529065 
z
" clip-path="url(#p9b0f647164)" style="fill: #1f77b4"/>
   </g>
   <g id="patch_20">
    <path d="M 93.674105 307.584 
L 94.666174 307.584 
L 94.666174 263.021106 
L 93.674105 263.021106 
z
" clip-path="url(#p9b0f647164)" style="fill: #1f77b4"/>
   </g>
   <g id="patch_21">
    <path d="M 98.63445 307.584 
L 99.626519 307.584 
L 99.626519 287.044724 
L 98.63445 287.044724 
z
" clip-path="url(#p9b0f647164)" style="fill: #1f77b4"/>
   </g>
   <g id="patch_22">
    <path d="M 102.354708 307.584 
L 103.346777 307.584 
L 103.346777 292.546315 
L 102.354708 292.546315 
z
" clip-path="url(#p9b0f647164)" style="fill: #1f77b4"/>
   </g>
   <g id="patch_23">
    <path d="M 104.83488 307.584 
L 105.826949 307.584 
L 105.826949 291.996156 
L 104.83488 291.996156 
z
" clip-path="url(#p9b0f647164)" style="fill: #1f77b4"/>
   </g>
   <g id="patch_24">
    <path d="M 92.434019 307.584 
L 93.426088 307.584 
L 93.426088 238.080556 
L 92.434019 238.080556 
z
" clip-path="url(#p9b0f647164)" style="fill: #1f77b4"/>
   </g>
   <g id="patch_25">
    <path d="M 96.154277 307.584 
L 97.146346 307.584 
L 97.146346 283.010223 
L 96.154277 283.010223 
z
" clip-path="url(#p9b0f647164)" style="fill: #1f77b4"/>
   </g>
   <g id="patch_26">
    <path d="M 109.795225 307.584 
L 110.787294 307.584 
L 110.787294 294.746952 
L 109.795225 294.746952 
z
" clip-path="url(#p9b0f647164)" style="fill: #1f77b4"/>
   </g>
   <g id="patch_27">
    <path d="M 103.594794 307.584 
L 104.586863 307.584 
L 104.586863 293.279861 
L 103.594794 293.279861 
z
" clip-path="url(#p9b0f647164)" style="fill: #1f77b4"/>
   </g>
   <g id="patch_28">
    <path d="M 97.394363 307.584 
L 98.386432 307.584 
L 98.386432 283.927155 
L 97.394363 283.927155 
z
" clip-path="url(#p9b0f647164)" style="fill: #1f77b4"/>
   </g>
   <g id="patch_29">
    <path d="M 101.114622 307.584 
L 102.106691 307.584 
L 102.106691 291.996156 
L 101.114622 291.996156 
z
" clip-path="url(#p9b0f647164)" style="fill: #1f77b4"/>
   </g>
   <g id="patch_30">
    <path d="M 108.555139 307.584 
L 109.547207 307.584 
L 109.547207 291.996156 
L 108.555139 291.996156 
z
" clip-path="url(#p9b0f647164)" style="fill: #1f77b4"/>
   </g>
   <g id="patch_31">
    <path d="M 107.315052 307.584 
L 108.307121 307.584 
L 108.307121 292.913088 
L 107.315052 292.913088 
z
" clip-path="url(#p9b0f647164)" style="fill: #1f77b4"/>
   </g>
   <g id="patch_32">
    <path d="M 106.074966 307.584 
L 107.067035 307.584 
L 107.067035 291.81277 
L 106.074966 291.81277 
z
" clip-path="url(#p9b0f647164)" style="fill: #1f77b4"/>
   </g>
   <g id="patch_33">
    <path d="M 117.235741 307.584 
L 118.22781 307.584 
L 118.22781 294.746952 
L 117.235741 294.746952 
z
" clip-path="url(#p9b0f647164)" style="fill: #1f77b4"/>
   </g>
   <g id="patch_34">
    <path d="M 112.275397 307.584 
L 113.267466 307.584 
L 113.267466 294.380179 
L 112.275397 294.380179 
z
" clip-path="url(#p9b0f647164)" style="fill: #1f77b4"/>
   </g>
   <g id="patch_35">
    <path d="M 111.035311 307.584 
L 112.02738 307.584 
L 112.02738 291.629384 
L 111.035311 291.629384 
z
" clip-path="url(#p9b0f647164)" style="fill: #1f77b4"/>
   </g>
   <g id="patch_36">
    <path d="M 119.715914 307.584 
L 120.707982 307.584 
L 120.707982 295.663884 
L 119.715914 295.663884 
z
" clip-path="url(#p9b0f647164)" style="fill: #1f77b4"/>
   </g>
   <g id="patch_37">
    <path d="M 120.956 307.584 
L 121.948069 307.584 
L 121.948069 296.030657 
L 120.956 296.030657 
z
" clip-path="url(#p9b0f647164)" style="fill: #1f77b4"/>
   </g>
   <g id="patch_38">
    <path d="M 127.15643 307.584 
L 128.148499 307.584 
L 128.148499 296.947589 
L 127.15643 296.947589 
z
" clip-path="url(#p9b0f647164)" style="fill: #1f77b4"/>
   </g>
   <g id="patch_39">
    <path d="M 114.755569 307.584 
L 115.747638 307.584 
L 115.747638 295.663884 
L 114.755569 295.663884 
z
" clip-path="url(#p9b0f647164)" style="fill: #1f77b4"/>
   </g>
   <g id="patch_40">
    <path d="M 113.515483 307.584 
L 114.507552 307.584 
L 114.507552 294.563566 
L 113.515483 294.563566 
z
" clip-path="url(#p9b0f647164)" style="fill: #1f77b4"/>
   </g>
   <g id="patch_41">
    <path d="M 115.995655 307.584 
L 116.987724 307.584 
L 116.987724 295.847271 
L 115.995655 295.847271 
z
" clip-path="url(#p9b0f647164)" style="fill: #1f77b4"/>
   </g>
   <g id="patch_42">
    <path d="M 123.436172 307.584 
L 124.428241 307.584 
L 124.428241 296.580816 
L 123.436172 296.580816 
z
" clip-path="url(#p9b0f647164)" style="fill: #1f77b4"/>
   </g>
   <g id="patch_43">
    <path d="M 118.475827 307.584 
L 119.467896 307.584 
L 119.467896 295.113725 
L 118.475827 295.113725 
z
" clip-path="url(#p9b0f647164)" style="fill: #1f77b4"/>
   </g>
   <g id="patch_44">
    <path d="M 133.356861 307.584 
L 134.34893 307.584 
L 134.34893 300.065158 
L 133.356861 300.065158 
z
" clip-path="url(#p9b0f647164)" style="fill: #1f77b4"/>
   </g>
   <g id="patch_45">
    <path d="M 130.876689 307.584 
L 131.868758 307.584 
L 131.868758 300.065158 
L 130.876689 300.065158 
z
" clip-path="url(#p9b0f647164)" style="fill: #1f77b4"/>
   </g>
   <g id="patch_46">
    <path d="M 140.797378 307.584 
L 141.789446 307.584 
L 141.789446 299.148226 
L 140.797378 299.148226 
z
" clip-path="url(#p9b0f647164)" style="fill: #1f77b4"/>
   </g>
   <g id="patch_47">
    <path d="M 134.596947 307.584 
L 135.589016 307.584 
L 135.589016 299.148226 
L 134.596947 299.148226 
z
" clip-path="url(#p9b0f647164)" style="fill: #1f77b4"/>
   </g>
   <g id="patch_48">
    <path d="M 128.396516 307.584 
L 129.388585 307.584 
L 129.388585 297.497748 
L 128.396516 297.497748 
z
" clip-path="url(#p9b0f647164)" style="fill: #1f77b4"/>
   </g>
   <g id="patch_49">
    <path d="M 138.317205 307.584 
L 139.309274 307.584 
L 139.309274 299.331612 
L 138.317205 299.331612 
z
" clip-path="url(#p9b0f647164)" style="fill: #1f77b4"/>
   </g>
   <g id="patch_50">
    <path d="M 143.27755 307.584 
L 144.269619 307.584 
L 144.269619 300.065158 
L 143.27755 300.065158 
z
" clip-path="url(#p9b0f647164)" style="fill: #1f77b4"/>
   </g>
   <g id="patch_51">
    <path d="M 122.196086 307.584 
L 123.188155 307.584 
L 123.188155 298.047907 
L 122.196086 298.047907 
z
" clip-path="url(#p9b0f647164)" style="fill: #1f77b4"/>
   </g>
   <g id="patch_52">
    <path d="M 148.237894 307.584 
L 149.229963 307.584 
L 149.229963 302.082408 
L 148.237894 302.082408 
z
" clip-path="url(#p9b0f647164)" style="fill: #1f77b4"/>
   </g>
   <g id="patch_53">
    <path d="M 132.116775 307.584 
L 133.108844 307.584 
L 133.108844 299.698385 
L 132.116775 299.698385 
z
" clip-path="url(#p9b0f647164)" style="fill: #1f77b4"/>
   </g>
   <g id="patch_54">
    <path d="M 173.039617 307.584 
L 174.031686 307.584 
L 174.031686 303.549499 
L 173.039617 303.549499 
z
" clip-path="url(#p9b0f647164)" style="fill: #1f77b4"/>
   </g>
   <g id="patch_55">
    <path d="M 137.077119 307.584 
L 138.069188 307.584 
L 138.069188 299.881771 
L 137.077119 299.881771 
z
" clip-path="url(#p9b0f647164)" style="fill: #1f77b4"/>
   </g>
   <g id="patch_56">
    <path d="M 139.557291 307.584 
L 140.54936 307.584 
L 140.54936 300.98209 
L 139.557291 300.98209 
z
" clip-path="url(#p9b0f647164)" style="fill: #1f77b4"/>
   </g>
   <g id="patch_57">
    <path d="M 124.676258 307.584 
L 125.668327 307.584 
L 125.668327 298.047907 
L 124.676258 298.047907 
z
" clip-path="url(#p9b0f647164)" style="fill: #1f77b4"/>
   </g>
   <g id="patch_58">
    <path d="M 164.359014 307.584 
L 165.351083 307.584 
L 165.351083 303.549499 
L 164.359014 303.549499 
z
" clip-path="url(#p9b0f647164)" style="fill: #1f77b4"/>
   </g>
   <g id="patch_59">
    <path d="M 125.916344 307.584 
L 126.908413 307.584 
L 126.908413 296.030657 
L 125.916344 296.030657 
z
" clip-path="url(#p9b0f647164)" style="fill: #1f77b4"/>
   </g>
   <g id="patch_60">
    <path d="M 145.757722 307.584 
L 146.749791 307.584 
L 146.749791 299.331612 
L 145.757722 299.331612 
z
" clip-path="url(#p9b0f647164)" style="fill: #1f77b4"/>
   </g>
   <g id="patch_61">
    <path d="M 156.918497 307.584 
L 157.910566 307.584 
L 157.910566 302.082408 
L 156.918497 302.082408 
z
" clip-path="url(#p9b0f647164)" style="fill: #1f77b4"/>
   </g>
   <g id="patch_62">
    <path d="M 129.636603 307.584 
L 130.628671 307.584 
L 130.628671 298.047907 
L 129.636603 298.047907 
z
" clip-path="url(#p9b0f647164)" style="fill: #1f77b4"/>
   </g>
   <g id="patch_63">
    <path d="M 168.079272 307.584 
L 169.071341 307.584 
L 169.071341 302.815954 
L 168.079272 302.815954 
z
" clip-path="url(#p9b0f647164)" style="fill: #1f77b4"/>
   </g>
   <g id="patch_64">
    <path d="M 150.718067 307.584 
L 151.710135 307.584 
L 151.710135 300.798703 
L 150.718067 300.798703 
z
" clip-path="url(#p9b0f647164)" style="fill: #1f77b4"/>
   </g>
   <g id="patch_65">
    <path d="M 159.398669 307.584 
L 160.390738 307.584 
L 160.390738 301.715635 
L 159.398669 301.715635 
z
" clip-path="url(#p9b0f647164)" style="fill: #1f77b4"/>
   </g>
   <g id="patch_66">
    <path d="M 135.837033 307.584 
L 136.829102 307.584 
L 136.829102 298.231294 
L 135.837033 298.231294 
z
" clip-path="url(#p9b0f647164)" style="fill: #1f77b4"/>
   </g>
   <g id="patch_67">
    <path d="M 176.759875 307.584 
L 177.751944 307.584 
L 177.751944 303.732886 
L 176.759875 303.732886 
z
" clip-path="url(#p9b0f647164)" style="fill: #1f77b4"/>
   </g>
   <g id="patch_68">
    <path d="M 158.158583 307.584 
L 159.150652 307.584 
L 159.150652 303.732886 
L 158.158583 303.732886 
z
" clip-path="url(#p9b0f647164)" style="fill: #1f77b4"/>
   </g>
   <g id="patch_69">
    <path d="M 142.037464 307.584 
L 143.029533 307.584 
L 143.029533 301.348863 
L 142.037464 301.348863 
z
" clip-path="url(#p9b0f647164)" style="fill: #1f77b4"/>
   </g>
   <g id="patch_70">
    <path d="M 144.517636 307.584 
L 145.509705 307.584 
L 145.509705 300.065158 
L 144.517636 300.065158 
z
" clip-path="url(#p9b0f647164)" style="fill: #1f77b4"/>
   </g>
   <g id="patch_71">
    <path d="M 151.958153 307.584 
L 152.950222 307.584 
L 152.950222 302.632567 
L 151.958153 302.632567 
z
" clip-path="url(#p9b0f647164)" style="fill: #1f77b4"/>
   </g>
   <g id="patch_72">
    <path d="M 149.47798 307.584 
L 150.470049 307.584 
L 150.470049 303.549499 
L 149.47798 303.549499 
z
" clip-path="url(#p9b0f647164)" style="fill: #1f77b4"/>
   </g>
   <g id="patch_73">
    <path d="M 161.878842 307.584 
L 162.87091 307.584 
L 162.87091 302.265795 
L 161.878842 302.265795 
z
" clip-path="url(#p9b0f647164)" style="fill: #1f77b4"/>
   </g>
   <g id="patch_74">
    <path d="M 160.638755 307.584 
L 161.630824 307.584 
L 161.630824 301.532249 
L 160.638755 301.532249 
z
" clip-path="url(#p9b0f647164)" style="fill: #1f77b4"/>
   </g>
   <g id="patch_75">
    <path d="M 153.198239 307.584 
L 154.190308 307.584 
L 154.190308 302.632567 
L 153.198239 302.632567 
z
" clip-path="url(#p9b0f647164)" style="fill: #1f77b4"/>
   </g>
   <g id="patch_76">
    <path d="M 169.319358 307.584 
L 170.311427 307.584 
L 170.311427 303.732886 
L 169.319358 303.732886 
z
" clip-path="url(#p9b0f647164)" style="fill: #1f77b4"/>
   </g>
   <g id="patch_77">
    <path d="M 165.5991 307.584 
L 166.591169 307.584 
L 166.591169 303.182726 
L 165.5991 303.182726 
z
" clip-path="url(#p9b0f647164)" style="fill: #1f77b4"/>
   </g>
   <g id="patch_78">
    <path d="M 155.678411 307.584 
L 156.67048 307.584 
L 156.67048 302.082408 
L 155.678411 302.082408 
z
" clip-path="url(#p9b0f647164)" style="fill: #1f77b4"/>
   </g>
   <g id="patch_79">
    <path d="M 166.839186 307.584 
L 167.831255 307.584 
L 167.831255 302.815954 
L 166.839186 302.815954 
z
" clip-path="url(#p9b0f647164)" style="fill: #1f77b4"/>
   </g>
   <g id="patch_80">
    <path d="M 194.121081 307.584 
L 195.11315 307.584 
L 195.11315 304.283045 
L 194.121081 304.283045 
z
" clip-path="url(#p9b0f647164)" style="fill: #1f77b4"/>
   </g>
   <g id="patch_81">
    <path d="M 154.438325 307.584 
L 155.430394 307.584 
L 155.430394 303.549499 
L 154.438325 303.549499 
z
" clip-path="url(#p9b0f647164)" style="fill: #1f77b4"/>
   </g>
   <g id="patch_82">
    <path d="M 182.960306 307.584 
L 183.952374 307.584 
L 183.952374 304.283045 
L 182.960306 304.283045 
z
" clip-path="url(#p9b0f647164)" style="fill: #1f77b4"/>
   </g>
   <g id="patch_83">
    <path d="M 180.480133 307.584 
L 181.472202 307.584 
L 181.472202 304.649818 
L 180.480133 304.649818 
z
" clip-path="url(#p9b0f647164)" style="fill: #1f77b4"/>
   </g>
   <g id="patch_84">
    <path d="M 170.559444 307.584 
L 171.551513 307.584 
L 171.551513 301.715635 
L 170.559444 301.715635 
z
" clip-path="url(#p9b0f647164)" style="fill: #1f77b4"/>
   </g>
   <g id="patch_85">
    <path d="M 163.118928 307.584 
L 164.110997 307.584 
L 164.110997 301.165476 
L 163.118928 301.165476 
z
" clip-path="url(#p9b0f647164)" style="fill: #1f77b4"/>
   </g>
   <g id="patch_86">
    <path d="M 190.400822 307.584 
L 191.392891 307.584 
L 191.392891 305.750136 
L 190.400822 305.750136 
z
" clip-path="url(#p9b0f647164)" style="fill: #1f77b4"/>
   </g>
   <g id="patch_87">
    <path d="M 185.440478 307.584 
L 186.432547 307.584 
L 186.432547 305.383363 
L 185.440478 305.383363 
z
" clip-path="url(#p9b0f647164)" style="fill: #1f77b4"/>
   </g>
   <g id="patch_88">
    <path d="M 187.92065 307.584 
L 188.912719 307.584 
L 188.912719 305.01659 
L 187.92065 305.01659 
z
" clip-path="url(#p9b0f647164)" style="fill: #1f77b4"/>
   </g>
   <g id="patch_89">
    <path d="M 177.999961 307.584 
L 178.99203 307.584 
L 178.99203 303.916272 
L 177.999961 303.916272 
z
" clip-path="url(#p9b0f647164)" style="fill: #1f77b4"/>
   </g>
   <g id="patch_90">
    <path d="M 175.519789 307.584 
L 176.511858 307.584 
L 176.511858 304.283045 
L 175.519789 304.283045 
z
" clip-path="url(#p9b0f647164)" style="fill: #1f77b4"/>
   </g>
   <g id="patch_91">
    <path d="M 186.680564 307.584 
L 187.672633 307.584 
L 187.672633 305.933522 
L 186.680564 305.933522 
z
" clip-path="url(#p9b0f647164)" style="fill: #1f77b4"/>
   </g>
   <g id="patch_92">
    <path d="M 209.002114 307.584 
L 209.994183 307.584 
L 209.994183 306.116909 
L 209.002114 306.116909 
z
" clip-path="url(#p9b0f647164)" style="fill: #1f77b4"/>
   </g>
   <g id="patch_93">
    <path d="M 195.361167 307.584 
L 196.353236 307.584 
L 196.353236 304.649818 
L 195.361167 304.649818 
z
" clip-path="url(#p9b0f647164)" style="fill: #1f77b4"/>
   </g>
   <g id="patch_94">
    <path d="M 196.601253 307.584 
L 197.593322 307.584 
L 197.593322 305.750136 
L 196.601253 305.750136 
z
" clip-path="url(#p9b0f647164)" style="fill: #1f77b4"/>
   </g>
   <g id="patch_95">
    <path d="M 184.200392 307.584 
L 185.192461 307.584 
L 185.192461 302.99934 
L 184.200392 302.99934 
z
" clip-path="url(#p9b0f647164)" style="fill: #1f77b4"/>
   </g>
   <g id="patch_96">
    <path d="M 146.997808 307.584 
L 147.989877 307.584 
L 147.989877 301.165476 
L 146.997808 301.165476 
z
" clip-path="url(#p9b0f647164)" style="fill: #1f77b4"/>
   </g>
   <g id="patch_97">
    <path d="M 191.640908 307.584 
L 192.632977 307.584 
L 192.632977 305.01659 
L 191.640908 305.01659 
z
" clip-path="url(#p9b0f647164)" style="fill: #1f77b4"/>
   </g>
   <g id="patch_98">
    <path d="M 189.160736 307.584 
L 190.152805 307.584 
L 190.152805 304.833204 
L 189.160736 304.833204 
z
" clip-path="url(#p9b0f647164)" style="fill: #1f77b4"/>
   </g>
   <g id="patch_99">
    <path d="M 204.04177 307.584 
L 205.033838 307.584 
L 205.033838 305.750136 
L 204.04177 305.750136 
z
" clip-path="url(#p9b0f647164)" style="fill: #1f77b4"/>
   </g>
   <g id="patch_100">
    <path d="M 207.762028 307.584 
L 208.754097 307.584 
L 208.754097 305.56675 
L 207.762028 305.56675 
z
" clip-path="url(#p9b0f647164)" style="fill: #1f77b4"/>
   </g>
   <g id="patch_101">
    <path d="M 216.442631 307.584 
L 217.4347 307.584 
L 217.4347 305.750136 
L 216.442631 305.750136 
z
" clip-path="url(#p9b0f647164)" style="fill: #1f77b4"/>
   </g>
   <g id="patch_102">
    <path d="M 171.799531 307.584 
L 172.791599 307.584 
L 172.791599 304.466431 
L 171.799531 304.466431 
z
" clip-path="url(#p9b0f647164)" style="fill: #1f77b4"/>
   </g>
   <g id="patch_103">
    <path d="M 220.162889 307.584 
L 221.154958 307.584 
L 221.154958 307.033841 
L 220.162889 307.033841 
z
" clip-path="url(#p9b0f647164)" style="fill: #1f77b4"/>
   </g>
   <g id="patch_104">
    <path d="M 192.880995 307.584 
L 193.873063 307.584 
L 193.873063 305.383363 
L 192.880995 305.383363 
z
" clip-path="url(#p9b0f647164)" style="fill: #1f77b4"/>
   </g>
   <g id="patch_105">
    <path d="M 199.081425 307.584 
L 200.073494 307.584 
L 200.073494 306.116909 
L 199.081425 306.116909 
z
" clip-path="url(#p9b0f647164)" style="fill: #1f77b4"/>
   </g>
   <g id="patch_106">
    <path d="M 174.279703 307.584 
L 175.271772 307.584 
L 175.271772 304.649818 
L 174.279703 304.649818 
z
" clip-path="url(#p9b0f647164)" style="fill: #1f77b4"/>
   </g>
   <g id="patch_107">
    <path d="M 181.720219 307.584 
L 182.712288 307.584 
L 182.712288 305.199977 
L 181.720219 305.199977 
z
" clip-path="url(#p9b0f647164)" style="fill: #1f77b4"/>
   </g>
   <g id="patch_108">
    <path d="M 205.281856 307.584 
L 206.273925 307.584 
L 206.273925 305.933522 
L 205.281856 305.933522 
z
" clip-path="url(#p9b0f647164)" style="fill: #1f77b4"/>
   </g>
   <g id="patch_109">
    <path d="M 241.244353 307.584 
L 242.236422 307.584 
L 242.236422 307.217227 
L 241.244353 307.217227 
z
" clip-path="url(#p9b0f647164)" style="fill: #1f77b4"/>
   </g>
   <g id="patch_110">
    <path d="M 231.323664 307.584 
L 232.315733 307.584 
L 232.315733 307.217227 
L 231.323664 307.217227 
z
" clip-path="url(#p9b0f647164)" style="fill: #1f77b4"/>
   </g>
   <g id="patch_111">
    <path d="M 215.202545 307.584 
L 216.194614 307.584 
L 216.194614 306.483682 
L 215.202545 306.483682 
z
" clip-path="url(#p9b0f647164)" style="fill: #1f77b4"/>
   </g>
   <g id="patch_112">
    <path d="M 263.565903 307.584 
L 264.557972 307.584 
L 264.557972 307.217227 
L 263.565903 307.217227 
z
" clip-path="url(#p9b0f647164)" style="fill: #1f77b4"/>
   </g>
   <g id="patch_113">
    <path d="M 179.240047 307.584 
L 180.232116 307.584 
L 180.232116 305.199977 
L 179.240047 305.199977 
z
" clip-path="url(#p9b0f647164)" style="fill: #1f77b4"/>
   </g>
   <g id="patch_114">
    <path d="M 200.321511 307.584 
L 201.31358 307.584 
L 201.31358 305.56675 
L 200.321511 305.56675 
z
" clip-path="url(#p9b0f647164)" style="fill: #1f77b4"/>
   </g>
   <g id="patch_115">
    <path d="M 230.083578 307.584 
L 231.075647 307.584 
L 231.075647 306.667068 
L 230.083578 306.667068 
z
" clip-path="url(#p9b0f647164)" style="fill: #1f77b4"/>
   </g>
   <g id="patch_116">
    <path d="M 210.2422 307.584 
L 211.234269 307.584 
L 211.234269 305.199977 
L 210.2422 305.199977 
z
" clip-path="url(#p9b0f647164)" style="fill: #1f77b4"/>
   </g>
   <g id="patch_117">
    <path d="M 225.123234 307.584 
L 226.115302 307.584 
L 226.115302 306.850454 
L 225.123234 306.850454 
z
" clip-path="url(#p9b0f647164)" style="fill: #1f77b4"/>
   </g>
   <g id="patch_118">
    <path d="M 217.682717 307.584 
L 218.674786 307.584 
L 218.674786 306.850454 
L 217.682717 306.850454 
z
" clip-path="url(#p9b0f647164)" style="fill: #1f77b4"/>
   </g>
   <g id="patch_119">
    <path d="M 247.444784 307.584 
L 248.436853 307.584 
L 248.436853 307.033841 
L 247.444784 307.033841 
z
" clip-path="url(#p9b0f647164)" style="fill: #1f77b4"/>
   </g>
   <g id="patch_120">
    <path d="M 246.204698 307.584 
L 247.196766 307.584 
L 247.196766 307.217227 
L 246.204698 307.217227 
z
" clip-path="url(#p9b0f647164)" style="fill: #1f77b4"/>
   </g>
   <g id="patch_121">
    <path d="M 242.484439 307.584 
L 243.476508 307.584 
L 243.476508 307.217227 
L 242.484439 307.217227 
z
" clip-path="url(#p9b0f647164)" style="fill: #1f77b4"/>
   </g>
   <g id="patch_122">
    <path d="M 252.405128 307.584 
L 253.397197 307.584 
L 253.397197 307.217227 
L 252.405128 307.217227 
z
" clip-path="url(#p9b0f647164)" style="fill: #1f77b4"/>
   </g>
   <g id="patch_123">
    <path d="M 235.043922 307.584 
L 236.035991 307.584 
L 236.035991 307.217227 
L 235.043922 307.217227 
z
" clip-path="url(#p9b0f647164)" style="fill: #1f77b4"/>
   </g>
   <g id="patch_124">
    <path d="M 213.962459 307.584 
L 214.954527 307.584 
L 214.954527 306.116909 
L 213.962459 306.116909 
z
" clip-path="url(#p9b0f647164)" style="fill: #1f77b4"/>
   </g>
   <g id="patch_125">
    <path d="M 232.56375 307.584 
L 233.555819 307.584 
L 233.555819 307.033841 
L 232.56375 307.033841 
z
" clip-path="url(#p9b0f647164)" style="fill: #1f77b4"/>
   </g>
   <g id="patch_126">
    <path d="M 221.402975 307.584 
L 222.395044 307.584 
L 222.395044 307.033841 
L 221.402975 307.033841 
z
" clip-path="url(#p9b0f647164)" style="fill: #1f77b4"/>
   </g>
   <g id="patch_127">
    <path d="M 201.561597 307.584 
L 202.553666 307.584 
L 202.553666 306.116909 
L 201.561597 306.116909 
z
" clip-path="url(#p9b0f647164)" style="fill: #1f77b4"/>
   </g>
   <g id="patch_128">
    <path d="M 211.482286 307.584 
L 212.474355 307.584 
L 212.474355 306.483682 
L 211.482286 306.483682 
z
" clip-path="url(#p9b0f647164)" style="fill: #1f77b4"/>
   </g>
   <g id="patch_129">
    <path d="M 236.284009 307.584 
L 237.276078 307.584 
L 237.276078 307.033841 
L 236.284009 307.033841 
z
" clip-path="url(#p9b0f647164)" style="fill: #1f77b4"/>
   </g>
   <g id="patch_130">
    <path d="M 253.645214 307.584 
L 254.637283 307.584 
L 254.637283 307.400614 
L 253.645214 307.400614 
z
" clip-path="url(#p9b0f647164)" style="fill: #1f77b4"/>
   </g>
   <g id="patch_131">
    <path d="M 254.8853 307.584 
L 255.877369 307.584 
L 255.877369 307.400614 
L 254.8853 307.400614 
z
" clip-path="url(#p9b0f647164)" style="fill: #1f77b4"/>
   </g>
   <g id="patch_132">
    <path d="M 249.924956 307.584 
L 250.917025 307.584 
L 250.917025 307.033841 
L 249.924956 307.033841 
z
" clip-path="url(#p9b0f647164)" style="fill: #1f77b4"/>
   </g>
   <g id="patch_133">
    <path d="M 206.521942 307.584 
L 207.514011 307.584 
L 207.514011 307.033841 
L 206.521942 307.033841 
z
" clip-path="url(#p9b0f647164)" style="fill: #1f77b4"/>
   </g>
   <g id="patch_134">
    <path d="M 238.764181 307.584 
L 239.75625 307.584 
L 239.75625 307.400614 
L 238.764181 307.400614 
z
" clip-path="url(#p9b0f647164)" style="fill: #1f77b4"/>
   </g>
   <g id="patch_135">
    <path d="M 226.36332 307.584 
L 227.355389 307.584 
L 227.355389 306.850454 
L 226.36332 306.850454 
z
" clip-path="url(#p9b0f647164)" style="fill: #1f77b4"/>
   </g>
   <g id="patch_136">
    <path d="M 202.801683 307.584 
L 203.793752 307.584 
L 203.793752 306.300295 
L 202.801683 306.300295 
z
" clip-path="url(#p9b0f647164)" style="fill: #1f77b4"/>
   </g>
   <g id="patch_137">
    <path d="M 289.607712 307.584 
L 290.599781 307.584 
L 290.599781 307.400614 
L 289.607712 307.400614 
z
" clip-path="url(#p9b0f647164)" style="fill: #1f77b4"/>
   </g>
   <g id="patch_138">
    <path d="M 278.446937 307.584 
L 279.439005 307.584 
L 279.439005 307.400614 
L 278.446937 307.400614 
z
" clip-path="url(#p9b0f647164)" style="fill: #1f77b4"/>
   </g>
   <g id="patch_139">
    <path d="M 257.365473 307.584 
L 258.357541 307.584 
L 258.357541 307.400614 
L 257.365473 307.400614 
z
" clip-path="url(#p9b0f647164)" style="fill: #1f77b4"/>
   </g>
   <g id="patch_140">
    <path d="M 256.125386 307.584 
L 257.117455 307.584 
L 257.117455 307.033841 
L 256.125386 307.033841 
z
" clip-path="url(#p9b0f647164)" style="fill: #1f77b4"/>
   </g>
   <g id="patch_141">
    <path d="M 212.722372 307.584 
L 213.714441 307.584 
L 213.714441 306.667068 
L 212.722372 306.667068 
z
" clip-path="url(#p9b0f647164)" style="fill: #1f77b4"/>
   </g>
   <g id="patch_142">
    <path d="M 268.526248 307.584 
L 269.518317 307.584 
L 269.518317 307.217227 
L 268.526248 307.217227 
z
" clip-path="url(#p9b0f647164)" style="fill: #1f77b4"/>
   </g>
   <g id="patch_143">
    <path d="M 261.085731 307.584 
L 262.0778 307.584 
L 262.0778 307.400614 
L 261.085731 307.400614 
z
" clip-path="url(#p9b0f647164)" style="fill: #1f77b4"/>
   </g>
   <g id="patch_144">
    <path d="M 290.847798 307.584 
L 291.839867 307.584 
L 291.839867 307.217227 
L 290.847798 307.217227 
z
" clip-path="url(#p9b0f647164)" style="fill: #1f77b4"/>
   </g>
   <g id="patch_145">
    <path d="M 218.922803 307.584 
L 219.914872 307.584 
L 219.914872 306.667068 
L 218.922803 306.667068 
z
" clip-path="url(#p9b0f647164)" style="fill: #1f77b4"/>
   </g>
   <g id="patch_146">
    <path d="M 227.603406 307.584 
L 228.595475 307.584 
L 228.595475 307.217227 
L 227.603406 307.217227 
z
" clip-path="url(#p9b0f647164)" style="fill: #1f77b4"/>
   </g>
   <g id="patch_147">
    <path d="M 240.004267 307.584 
L 240.996336 307.584 
L 240.996336 307.033841 
L 240.004267 307.033841 
z
" clip-path="url(#p9b0f647164)" style="fill: #1f77b4"/>
   </g>
   <g id="patch_148">
    <path d="M 292.087884 307.584 
L 293.079953 307.584 
L 293.079953 307.400614 
L 292.087884 307.400614 
z
" clip-path="url(#p9b0f647164)" style="fill: #1f77b4"/>
   </g>
   <g id="patch_149">
    <path d="M 197.841339 307.584 
L 198.833408 307.584 
L 198.833408 306.300295 
L 197.841339 306.300295 
z
" clip-path="url(#p9b0f647164)" style="fill: #1f77b4"/>
   </g>
   <g id="patch_150">
    <path d="M 244.964611 307.584 
L 245.95668 307.584 
L 245.95668 307.217227 
L 244.964611 307.217227 
z
" clip-path="url(#p9b0f647164)" style="fill: #1f77b4"/>
   </g>
   <g id="patch_151">
    <path d="M 223.883147 307.584 
L 224.875216 307.584 
L 224.875216 306.667068 
L 223.883147 306.667068 
z
" clip-path="url(#p9b0f647164)" style="fill: #1f77b4"/>
   </g>
   <g id="patch_152">
    <path d="M 328.050381 307.584 
L 329.04245 307.584 
L 329.04245 307.400614 
L 328.050381 307.400614 
z
" clip-path="url(#p9b0f647164)" style="fill: #1f77b4"/>
   </g>
   <g id="patch_153">
    <path d="M 228.843492 307.584 
L 229.835561 307.584 
L 229.835561 307.033841 
L 228.843492 307.033841 
z
" clip-path="url(#p9b0f647164)" style="fill: #1f77b4"/>
   </g>
   <g id="patch_154">
    <path d="M 313.169348 307.584 
L 314.161417 307.584 
L 314.161417 307.217227 
L 313.169348 307.217227 
z
" clip-path="url(#p9b0f647164)" style="fill: #1f77b4"/>
   </g>
   <g id="patch_155">
    <path d="M 272.246506 307.584 
L 273.238575 307.584 
L 273.238575 307.400614 
L 272.246506 307.400614 
z
" clip-path="url(#p9b0f647164)" style="fill: #1f77b4"/>
   </g>
   <g id="patch_156">
    <path d="M 273.486592 307.584 
L 274.478661 307.584 
L 274.478661 307.400614 
L 273.486592 307.400614 
z
" clip-path="url(#p9b0f647164)" style="fill: #1f77b4"/>
   </g>
   <g id="patch_157">
    <path d="M 243.724525 307.584 
L 244.716594 307.584 
L 244.716594 307.400614 
L 243.724525 307.400614 
z
" clip-path="url(#p9b0f647164)" style="fill: #1f77b4"/>
   </g>
   <g id="patch_158">
    <path d="M 258.605559 307.584 
L 259.597628 307.584 
L 259.597628 307.217227 
L 258.605559 307.217227 
z
" clip-path="url(#p9b0f647164)" style="fill: #1f77b4"/>
   </g>
   <g id="patch_159">
    <path d="M 222.643061 307.584 
L 223.63513 307.584 
L 223.63513 307.217227 
L 222.643061 307.217227 
z
" clip-path="url(#p9b0f647164)" style="fill: #1f77b4"/>
   </g>
   <g id="patch_160">
    <path d="M 262.325817 307.584 
L 263.317886 307.584 
L 263.317886 307.217227 
L 262.325817 307.217227 
z
" clip-path="url(#p9b0f647164)" style="fill: #1f77b4"/>
   </g>
   <g id="patch_161">
    <path d="M 233.803836 307.584 
L 234.795905 307.584 
L 234.795905 307.033841 
L 233.803836 307.033841 
z
" clip-path="url(#p9b0f647164)" style="fill: #1f77b4"/>
   </g>
   <g id="patch_162">
    <path d="M 397.495204 307.584 
L 398.487273 307.584 
L 398.487273 307.400614 
L 397.495204 307.400614 
z
" clip-path="url(#p9b0f647164)" style="fill: #1f77b4"/>
   </g>
   <g id="patch_163">
    <path d="M 267.286162 307.584 
L 268.27823 307.584 
L 268.27823 307.217227 
L 267.286162 307.217227 
z
" clip-path="url(#p9b0f647164)" style="fill: #1f77b4"/>
   </g>
   <g id="patch_164">
    <path d="M 248.68487 307.584 
L 249.676939 307.584 
L 249.676939 307.400614 
L 248.68487 307.400614 
z
" clip-path="url(#p9b0f647164)" style="fill: #1f77b4"/>
   </g>
   <g id="patch_165">
    <path d="M 264.805989 307.584 
L 265.798058 307.584 
L 265.798058 307.217227 
L 264.805989 307.217227 
z
" clip-path="url(#p9b0f647164)" style="fill: #1f77b4"/>
   </g>
   <g id="patch_166">
    <path d="M 333.010726 307.584 
L 334.002795 307.584 
L 334.002795 307.400614 
L 333.010726 307.400614 
z
" clip-path="url(#p9b0f647164)" style="fill: #1f77b4"/>
   </g>
   <g id="matplotlib.axis_1">
    <g id="xtick_1">
     <g id="line2d_1">
      <defs>
       <path id="m39e0404805" d="M 0 0 
L 0 3.5 
" style="stroke: #000000; stroke-width: 0.8"/>
      </defs>
      <g>
       <use xlink:href="#m39e0404805" x="74.328762" y="307.584" style="stroke: #000000; stroke-width: 0.8"/>
      </g>
     </g>
     <g id="text_1">
      <!-- 0 -->
      <g transform="translate(71.147512 322.182437) scale(0.1 -0.1)">
       <defs>
        <path id="DejaVuSans-30" d="M 2034 4250 
Q 1547 4250 1301 3770 
Q 1056 3291 1056 2328 
Q 1056 1369 1301 889 
Q 1547 409 2034 409 
Q 2525 409 2770 889 
Q 3016 1369 3016 2328 
Q 3016 3291 2770 3770 
Q 2525 4250 2034 4250 
z
M 2034 4750 
Q 2819 4750 3233 4129 
Q 3647 3509 3647 2328 
Q 3647 1150 3233 529 
Q 2819 -91 2034 -91 
Q 1250 -91 836 529 
Q 422 1150 422 2328 
Q 422 3509 836 4129 
Q 1250 4750 2034 4750 
z
" transform="scale(0.015625)"/>
       </defs>
       <use xlink:href="#DejaVuSans-30"/>
      </g>
     </g>
    </g>
    <g id="xtick_2">
     <g id="line2d_2">
      <g>
       <use xlink:href="#m39e0404805" x="136.333068" y="307.584" style="stroke: #000000; stroke-width: 0.8"/>
      </g>
     </g>
     <g id="text_2">
      <!-- 50 -->
      <g transform="translate(129.970568 322.182437) scale(0.1 -0.1)">
       <defs>
        <path id="DejaVuSans-35" d="M 691 4666 
L 3169 4666 
L 3169 4134 
L 1269 4134 
L 1269 2991 
Q 1406 3038 1543 3061 
Q 1681 3084 1819 3084 
Q 2600 3084 3056 2656 
Q 3513 2228 3513 1497 
Q 3513 744 3044 326 
Q 2575 -91 1722 -91 
Q 1428 -91 1123 -41 
Q 819 9 494 109 
L 494 744 
Q 775 591 1075 516 
Q 1375 441 1709 441 
Q 2250 441 2565 725 
Q 2881 1009 2881 1497 
Q 2881 1984 2565 2268 
Q 2250 2553 1709 2553 
Q 1456 2553 1204 2497 
Q 953 2441 691 2322 
L 691 4666 
z
" transform="scale(0.015625)"/>
       </defs>
       <use xlink:href="#DejaVuSans-35"/>
       <use xlink:href="#DejaVuSans-30" x="63.623047"/>
      </g>
     </g>
    </g>
    <g id="xtick_3">
     <g id="line2d_3">
      <g>
       <use xlink:href="#m39e0404805" x="198.337373" y="307.584" style="stroke: #000000; stroke-width: 0.8"/>
      </g>
     </g>
     <g id="text_3">
      <!-- 100 -->
      <g transform="translate(188.793623 322.182437) scale(0.1 -0.1)">
       <defs>
        <path id="DejaVuSans-31" d="M 794 531 
L 1825 531 
L 1825 4091 
L 703 3866 
L 703 4441 
L 1819 4666 
L 2450 4666 
L 2450 531 
L 3481 531 
L 3481 0 
L 794 0 
L 794 531 
z
" transform="scale(0.015625)"/>
       </defs>
       <use xlink:href="#DejaVuSans-31"/>
       <use xlink:href="#DejaVuSans-30" x="63.623047"/>
       <use xlink:href="#DejaVuSans-30" x="127.246094"/>
      </g>
     </g>
    </g>
    <g id="xtick_4">
     <g id="line2d_4">
      <g>
       <use xlink:href="#m39e0404805" x="260.341679" y="307.584" style="stroke: #000000; stroke-width: 0.8"/>
      </g>
     </g>
     <g id="text_4">
      <!-- 150 -->
      <g transform="translate(250.797929 322.182437) scale(0.1 -0.1)">
       <use xlink:href="#DejaVuSans-31"/>
       <use xlink:href="#DejaVuSans-35" x="63.623047"/>
       <use xlink:href="#DejaVuSans-30" x="127.246094"/>
      </g>
     </g>
    </g>
    <g id="xtick_5">
     <g id="line2d_5">
      <g>
       <use xlink:href="#m39e0404805" x="322.345985" y="307.584" style="stroke: #000000; stroke-width: 0.8"/>
      </g>
     </g>
     <g id="text_5">
      <!-- 200 -->
      <g transform="translate(312.802235 322.182437) scale(0.1 -0.1)">
       <defs>
        <path id="DejaVuSans-32" d="M 1228 531 
L 3431 531 
L 3431 0 
L 469 0 
L 469 531 
Q 828 903 1448 1529 
Q 2069 2156 2228 2338 
Q 2531 2678 2651 2914 
Q 2772 3150 2772 3378 
Q 2772 3750 2511 3984 
Q 2250 4219 1831 4219 
Q 1534 4219 1204 4116 
Q 875 4013 500 3803 
L 500 4441 
Q 881 4594 1212 4672 
Q 1544 4750 1819 4750 
Q 2544 4750 2975 4387 
Q 3406 4025 3406 3419 
Q 3406 3131 3298 2873 
Q 3191 2616 2906 2266 
Q 2828 2175 2409 1742 
Q 1991 1309 1228 531 
z
" transform="scale(0.015625)"/>
       </defs>
       <use xlink:href="#DejaVuSans-32"/>
       <use xlink:href="#DejaVuSans-30" x="63.623047"/>
       <use xlink:href="#DejaVuSans-30" x="127.246094"/>
      </g>
     </g>
    </g>
    <g id="xtick_6">
     <g id="line2d_6">
      <g>
       <use xlink:href="#m39e0404805" x="384.350291" y="307.584" style="stroke: #000000; stroke-width: 0.8"/>
      </g>
     </g>
     <g id="text_6">
      <!-- 250 -->
      <g transform="translate(374.806541 322.182437) scale(0.1 -0.1)">
       <use xlink:href="#DejaVuSans-32"/>
       <use xlink:href="#DejaVuSans-35" x="63.623047"/>
       <use xlink:href="#DejaVuSans-30" x="127.246094"/>
      </g>
     </g>
    </g>
    <g id="text_7">
     <!-- Depth of Element -->
     <g transform="translate(192.231875 335.860562) scale(0.1 -0.1)">
      <defs>
       <path id="DejaVuSans-44" d="M 1259 4147 
L 1259 519 
L 2022 519 
Q 2988 519 3436 956 
Q 3884 1394 3884 2338 
Q 3884 3275 3436 3711 
Q 2988 4147 2022 4147 
L 1259 4147 
z
M 628 4666 
L 1925 4666 
Q 3281 4666 3915 4102 
Q 4550 3538 4550 2338 
Q 4550 1131 3912 565 
Q 3275 0 1925 0 
L 628 0 
L 628 4666 
z
" transform="scale(0.015625)"/>
       <path id="DejaVuSans-65" d="M 3597 1894 
L 3597 1613 
L 953 1613 
Q 991 1019 1311 708 
Q 1631 397 2203 397 
Q 2534 397 2845 478 
Q 3156 559 3463 722 
L 3463 178 
Q 3153 47 2828 -22 
Q 2503 -91 2169 -91 
Q 1331 -91 842 396 
Q 353 884 353 1716 
Q 353 2575 817 3079 
Q 1281 3584 2069 3584 
Q 2775 3584 3186 3129 
Q 3597 2675 3597 1894 
z
M 3022 2063 
Q 3016 2534 2758 2815 
Q 2500 3097 2075 3097 
Q 1594 3097 1305 2825 
Q 1016 2553 972 2059 
L 3022 2063 
z
" transform="scale(0.015625)"/>
       <path id="DejaVuSans-70" d="M 1159 525 
L 1159 -1331 
L 581 -1331 
L 581 3500 
L 1159 3500 
L 1159 2969 
Q 1341 3281 1617 3432 
Q 1894 3584 2278 3584 
Q 2916 3584 3314 3078 
Q 3713 2572 3713 1747 
Q 3713 922 3314 415 
Q 2916 -91 2278 -91 
Q 1894 -91 1617 61 
Q 1341 213 1159 525 
z
M 3116 1747 
Q 3116 2381 2855 2742 
Q 2594 3103 2138 3103 
Q 1681 3103 1420 2742 
Q 1159 2381 1159 1747 
Q 1159 1113 1420 752 
Q 1681 391 2138 391 
Q 2594 391 2855 752 
Q 3116 1113 3116 1747 
z
" transform="scale(0.015625)"/>
       <path id="DejaVuSans-74" d="M 1172 4494 
L 1172 3500 
L 2356 3500 
L 2356 3053 
L 1172 3053 
L 1172 1153 
Q 1172 725 1289 603 
Q 1406 481 1766 481 
L 2356 481 
L 2356 0 
L 1766 0 
Q 1100 0 847 248 
Q 594 497 594 1153 
L 594 3053 
L 172 3053 
L 172 3500 
L 594 3500 
L 594 4494 
L 1172 4494 
z
" transform="scale(0.015625)"/>
       <path id="DejaVuSans-68" d="M 3513 2113 
L 3513 0 
L 2938 0 
L 2938 2094 
Q 2938 2591 2744 2837 
Q 2550 3084 2163 3084 
Q 1697 3084 1428 2787 
Q 1159 2491 1159 1978 
L 1159 0 
L 581 0 
L 581 4863 
L 1159 4863 
L 1159 2956 
Q 1366 3272 1645 3428 
Q 1925 3584 2291 3584 
Q 2894 3584 3203 3211 
Q 3513 2838 3513 2113 
z
" transform="scale(0.015625)"/>
       <path id="DejaVuSans-20" transform="scale(0.015625)"/>
       <path id="DejaVuSans-6f" d="M 1959 3097 
Q 1497 3097 1228 2736 
Q 959 2375 959 1747 
Q 959 1119 1226 758 
Q 1494 397 1959 397 
Q 2419 397 2687 759 
Q 2956 1122 2956 1747 
Q 2956 2369 2687 2733 
Q 2419 3097 1959 3097 
z
M 1959 3584 
Q 2709 3584 3137 3096 
Q 3566 2609 3566 1747 
Q 3566 888 3137 398 
Q 2709 -91 1959 -91 
Q 1206 -91 779 398 
Q 353 888 353 1747 
Q 353 2609 779 3096 
Q 1206 3584 1959 3584 
z
" transform="scale(0.015625)"/>
       <path id="DejaVuSans-66" d="M 2375 4863 
L 2375 4384 
L 1825 4384 
Q 1516 4384 1395 4259 
Q 1275 4134 1275 3809 
L 1275 3500 
L 2222 3500 
L 2222 3053 
L 1275 3053 
L 1275 0 
L 697 0 
L 697 3053 
L 147 3053 
L 147 3500 
L 697 3500 
L 697 3744 
Q 697 4328 969 4595 
Q 1241 4863 1831 4863 
L 2375 4863 
z
" transform="scale(0.015625)"/>
       <path id="DejaVuSans-45" d="M 628 4666 
L 3578 4666 
L 3578 4134 
L 1259 4134 
L 1259 2753 
L 3481 2753 
L 3481 2222 
L 1259 2222 
L 1259 531 
L 3634 531 
L 3634 0 
L 628 0 
L 628 4666 
z
" transform="scale(0.015625)"/>
       <path id="DejaVuSans-6c" d="M 603 4863 
L 1178 4863 
L 1178 0 
L 603 0 
L 603 4863 
z
" transform="scale(0.015625)"/>
       <path id="DejaVuSans-6d" d="M 3328 2828 
Q 3544 3216 3844 3400 
Q 4144 3584 4550 3584 
Q 5097 3584 5394 3201 
Q 5691 2819 5691 2113 
L 5691 0 
L 5113 0 
L 5113 2094 
Q 5113 2597 4934 2840 
Q 4756 3084 4391 3084 
Q 3944 3084 3684 2787 
Q 3425 2491 3425 1978 
L 3425 0 
L 2847 0 
L 2847 2094 
Q 2847 2600 2669 2842 
Q 2491 3084 2119 3084 
Q 1678 3084 1418 2786 
Q 1159 2488 1159 1978 
L 1159 0 
L 581 0 
L 581 3500 
L 1159 3500 
L 1159 2956 
Q 1356 3278 1631 3431 
Q 1906 3584 2284 3584 
Q 2666 3584 2933 3390 
Q 3200 3197 3328 2828 
z
" transform="scale(0.015625)"/>
       <path id="DejaVuSans-6e" d="M 3513 2113 
L 3513 0 
L 2938 0 
L 2938 2094 
Q 2938 2591 2744 2837 
Q 2550 3084 2163 3084 
Q 1697 3084 1428 2787 
Q 1159 2491 1159 1978 
L 1159 0 
L 581 0 
L 581 3500 
L 1159 3500 
L 1159 2956 
Q 1366 3272 1645 3428 
Q 1925 3584 2291 3584 
Q 2894 3584 3203 3211 
Q 3513 2838 3513 2113 
z
" transform="scale(0.015625)"/>
      </defs>
      <use xlink:href="#DejaVuSans-44"/>
      <use xlink:href="#DejaVuSans-65" x="77.001953"/>
      <use xlink:href="#DejaVuSans-70" x="138.525391"/>
      <use xlink:href="#DejaVuSans-74" x="202.001953"/>
      <use xlink:href="#DejaVuSans-68" x="241.210938"/>
      <use xlink:href="#DejaVuSans-20" x="304.589844"/>
      <use xlink:href="#DejaVuSans-6f" x="336.376953"/>
      <use xlink:href="#DejaVuSans-66" x="397.558594"/>
      <use xlink:href="#DejaVuSans-20" x="432.763672"/>
      <use xlink:href="#DejaVuSans-45" x="464.550781"/>
      <use xlink:href="#DejaVuSans-6c" x="527.734375"/>
      <use xlink:href="#DejaVuSans-65" x="555.517578"/>
      <use xlink:href="#DejaVuSans-6d" x="617.041016"/>
      <use xlink:href="#DejaVuSans-65" x="714.453125"/>
      <use xlink:href="#DejaVuSans-6e" x="775.976562"/>
      <use xlink:href="#DejaVuSans-74" x="839.355469"/>
     </g>
    </g>
   </g>
   <g id="matplotlib.axis_2">
    <g id="ytick_1">
     <g id="line2d_7">
      <defs>
       <path id="m9c59f22fb4" d="M 0 0 
L -3.5 0 
" style="stroke: #000000; stroke-width: 0.8"/>
      </defs>
      <g>
       <use xlink:href="#m9c59f22fb4" x="57.6" y="307.584" style="stroke: #000000; stroke-width: 0.8"/>
      </g>
     </g>
     <g id="text_8">
      <!-- 0 -->
      <g transform="translate(44.2375 311.383219) scale(0.1 -0.1)">
       <use xlink:href="#DejaVuSans-30"/>
      </g>
     </g>
    </g>
    <g id="ytick_2">
     <g id="line2d_8">
      <g>
       <use xlink:href="#m9c59f22fb4" x="57.6" y="270.906721" style="stroke: #000000; stroke-width: 0.8"/>
      </g>
     </g>
     <g id="text_9">
      <!-- 200 -->
      <g transform="translate(31.5125 274.705939) scale(0.1 -0.1)">
       <use xlink:href="#DejaVuSans-32"/>
       <use xlink:href="#DejaVuSans-30" x="63.623047"/>
       <use xlink:href="#DejaVuSans-30" x="127.246094"/>
      </g>
     </g>
    </g>
    <g id="ytick_3">
     <g id="line2d_9">
      <g>
       <use xlink:href="#m9c59f22fb4" x="57.6" y="234.229441" style="stroke: #000000; stroke-width: 0.8"/>
      </g>
     </g>
     <g id="text_10">
      <!-- 400 -->
      <g transform="translate(31.5125 238.02866) scale(0.1 -0.1)">
       <defs>
        <path id="DejaVuSans-34" d="M 2419 4116 
L 825 1625 
L 2419 1625 
L 2419 4116 
z
M 2253 4666 
L 3047 4666 
L 3047 1625 
L 3713 1625 
L 3713 1100 
L 3047 1100 
L 3047 0 
L 2419 0 
L 2419 1100 
L 313 1100 
L 313 1709 
L 2253 4666 
z
" transform="scale(0.015625)"/>
       </defs>
       <use xlink:href="#DejaVuSans-34"/>
       <use xlink:href="#DejaVuSans-30" x="63.623047"/>
       <use xlink:href="#DejaVuSans-30" x="127.246094"/>
      </g>
     </g>
    </g>
    <g id="ytick_4">
     <g id="line2d_10">
      <g>
       <use xlink:href="#m9c59f22fb4" x="57.6" y="197.552162" style="stroke: #000000; stroke-width: 0.8"/>
      </g>
     </g>
     <g id="text_11">
      <!-- 600 -->
      <g transform="translate(31.5125 201.351381) scale(0.1 -0.1)">
       <defs>
        <path id="DejaVuSans-36" d="M 2113 2584 
Q 1688 2584 1439 2293 
Q 1191 2003 1191 1497 
Q 1191 994 1439 701 
Q 1688 409 2113 409 
Q 2538 409 2786 701 
Q 3034 994 3034 1497 
Q 3034 2003 2786 2293 
Q 2538 2584 2113 2584 
z
M 3366 4563 
L 3366 3988 
Q 3128 4100 2886 4159 
Q 2644 4219 2406 4219 
Q 1781 4219 1451 3797 
Q 1122 3375 1075 2522 
Q 1259 2794 1537 2939 
Q 1816 3084 2150 3084 
Q 2853 3084 3261 2657 
Q 3669 2231 3669 1497 
Q 3669 778 3244 343 
Q 2819 -91 2113 -91 
Q 1303 -91 875 529 
Q 447 1150 447 2328 
Q 447 3434 972 4092 
Q 1497 4750 2381 4750 
Q 2619 4750 2861 4703 
Q 3103 4656 3366 4563 
z
" transform="scale(0.015625)"/>
       </defs>
       <use xlink:href="#DejaVuSans-36"/>
       <use xlink:href="#DejaVuSans-30" x="63.623047"/>
       <use xlink:href="#DejaVuSans-30" x="127.246094"/>
      </g>
     </g>
    </g>
    <g id="ytick_5">
     <g id="line2d_11">
      <g>
       <use xlink:href="#m9c59f22fb4" x="57.6" y="160.874883" style="stroke: #000000; stroke-width: 0.8"/>
      </g>
     </g>
     <g id="text_12">
      <!-- 800 -->
      <g transform="translate(31.5125 164.674102) scale(0.1 -0.1)">
       <defs>
        <path id="DejaVuSans-38" d="M 2034 2216 
Q 1584 2216 1326 1975 
Q 1069 1734 1069 1313 
Q 1069 891 1326 650 
Q 1584 409 2034 409 
Q 2484 409 2743 651 
Q 3003 894 3003 1313 
Q 3003 1734 2745 1975 
Q 2488 2216 2034 2216 
z
M 1403 2484 
Q 997 2584 770 2862 
Q 544 3141 544 3541 
Q 544 4100 942 4425 
Q 1341 4750 2034 4750 
Q 2731 4750 3128 4425 
Q 3525 4100 3525 3541 
Q 3525 3141 3298 2862 
Q 3072 2584 2669 2484 
Q 3125 2378 3379 2068 
Q 3634 1759 3634 1313 
Q 3634 634 3220 271 
Q 2806 -91 2034 -91 
Q 1263 -91 848 271 
Q 434 634 434 1313 
Q 434 1759 690 2068 
Q 947 2378 1403 2484 
z
M 1172 3481 
Q 1172 3119 1398 2916 
Q 1625 2713 2034 2713 
Q 2441 2713 2670 2916 
Q 2900 3119 2900 3481 
Q 2900 3844 2670 4047 
Q 2441 4250 2034 4250 
Q 1625 4250 1398 4047 
Q 1172 3844 1172 3481 
z
" transform="scale(0.015625)"/>
       </defs>
       <use xlink:href="#DejaVuSans-38"/>
       <use xlink:href="#DejaVuSans-30" x="63.623047"/>
       <use xlink:href="#DejaVuSans-30" x="127.246094"/>
      </g>
     </g>
    </g>
    <g id="ytick_6">
     <g id="line2d_12">
      <g>
       <use xlink:href="#m9c59f22fb4" x="57.6" y="124.197603" style="stroke: #000000; stroke-width: 0.8"/>
      </g>
     </g>
     <g id="text_13">
      <!-- 1000 -->
      <g transform="translate(25.15 127.996822) scale(0.1 -0.1)">
       <use xlink:href="#DejaVuSans-31"/>
       <use xlink:href="#DejaVuSans-30" x="63.623047"/>
       <use xlink:href="#DejaVuSans-30" x="127.246094"/>
       <use xlink:href="#DejaVuSans-30" x="190.869141"/>
      </g>
     </g>
    </g>
    <g id="ytick_7">
     <g id="line2d_13">
      <g>
       <use xlink:href="#m9c59f22fb4" x="57.6" y="87.520324" style="stroke: #000000; stroke-width: 0.8"/>
      </g>
     </g>
     <g id="text_14">
      <!-- 1200 -->
      <g transform="translate(25.15 91.319543) scale(0.1 -0.1)">
       <use xlink:href="#DejaVuSans-31"/>
       <use xlink:href="#DejaVuSans-32" x="63.623047"/>
       <use xlink:href="#DejaVuSans-30" x="127.246094"/>
       <use xlink:href="#DejaVuSans-30" x="190.869141"/>
      </g>
     </g>
    </g>
    <g id="ytick_8">
     <g id="line2d_14">
      <g>
       <use xlink:href="#m9c59f22fb4" x="57.6" y="50.843045" style="stroke: #000000; stroke-width: 0.8"/>
      </g>
     </g>
     <g id="text_15">
      <!-- 1400 -->
      <g transform="translate(25.15 54.642264) scale(0.1 -0.1)">
       <use xlink:href="#DejaVuSans-31"/>
       <use xlink:href="#DejaVuSans-34" x="63.623047"/>
       <use xlink:href="#DejaVuSans-30" x="127.246094"/>
       <use xlink:href="#DejaVuSans-30" x="190.869141"/>
      </g>
     </g>
    </g>
    <g id="text_16">
     <!-- Number of Elements -->
     <g transform="translate(19.070312 225.917062) rotate(-90) scale(0.1 -0.1)">
      <defs>
       <path id="DejaVuSans-4e" d="M 628 4666 
L 1478 4666 
L 3547 763 
L 3547 4666 
L 4159 4666 
L 4159 0 
L 3309 0 
L 1241 3903 
L 1241 0 
L 628 0 
L 628 4666 
z
" transform="scale(0.015625)"/>
       <path id="DejaVuSans-75" d="M 544 1381 
L 544 3500 
L 1119 3500 
L 1119 1403 
Q 1119 906 1312 657 
Q 1506 409 1894 409 
Q 2359 409 2629 706 
Q 2900 1003 2900 1516 
L 2900 3500 
L 3475 3500 
L 3475 0 
L 2900 0 
L 2900 538 
Q 2691 219 2414 64 
Q 2138 -91 1772 -91 
Q 1169 -91 856 284 
Q 544 659 544 1381 
z
M 1991 3584 
L 1991 3584 
z
" transform="scale(0.015625)"/>
       <path id="DejaVuSans-62" d="M 3116 1747 
Q 3116 2381 2855 2742 
Q 2594 3103 2138 3103 
Q 1681 3103 1420 2742 
Q 1159 2381 1159 1747 
Q 1159 1113 1420 752 
Q 1681 391 2138 391 
Q 2594 391 2855 752 
Q 3116 1113 3116 1747 
z
M 1159 2969 
Q 1341 3281 1617 3432 
Q 1894 3584 2278 3584 
Q 2916 3584 3314 3078 
Q 3713 2572 3713 1747 
Q 3713 922 3314 415 
Q 2916 -91 2278 -91 
Q 1894 -91 1617 61 
Q 1341 213 1159 525 
L 1159 0 
L 581 0 
L 581 4863 
L 1159 4863 
L 1159 2969 
z
" transform="scale(0.015625)"/>
       <path id="DejaVuSans-72" d="M 2631 2963 
Q 2534 3019 2420 3045 
Q 2306 3072 2169 3072 
Q 1681 3072 1420 2755 
Q 1159 2438 1159 1844 
L 1159 0 
L 581 0 
L 581 3500 
L 1159 3500 
L 1159 2956 
Q 1341 3275 1631 3429 
Q 1922 3584 2338 3584 
Q 2397 3584 2469 3576 
Q 2541 3569 2628 3553 
L 2631 2963 
z
" transform="scale(0.015625)"/>
       <path id="DejaVuSans-73" d="M 2834 3397 
L 2834 2853 
Q 2591 2978 2328 3040 
Q 2066 3103 1784 3103 
Q 1356 3103 1142 2972 
Q 928 2841 928 2578 
Q 928 2378 1081 2264 
Q 1234 2150 1697 2047 
L 1894 2003 
Q 2506 1872 2764 1633 
Q 3022 1394 3022 966 
Q 3022 478 2636 193 
Q 2250 -91 1575 -91 
Q 1294 -91 989 -36 
Q 684 19 347 128 
L 347 722 
Q 666 556 975 473 
Q 1284 391 1588 391 
Q 1994 391 2212 530 
Q 2431 669 2431 922 
Q 2431 1156 2273 1281 
Q 2116 1406 1581 1522 
L 1381 1569 
Q 847 1681 609 1914 
Q 372 2147 372 2553 
Q 372 3047 722 3315 
Q 1072 3584 1716 3584 
Q 2034 3584 2315 3537 
Q 2597 3491 2834 3397 
z
" transform="scale(0.015625)"/>
      </defs>
      <use xlink:href="#DejaVuSans-4e"/>
      <use xlink:href="#DejaVuSans-75" x="74.804688"/>
      <use xlink:href="#DejaVuSans-6d" x="138.183594"/>
      <use xlink:href="#DejaVuSans-62" x="235.595703"/>
      <use xlink:href="#DejaVuSans-65" x="299.072266"/>
      <use xlink:href="#DejaVuSans-72" x="360.595703"/>
      <use xlink:href="#DejaVuSans-20" x="401.708984"/>
      <use xlink:href="#DejaVuSans-6f" x="433.496094"/>
      <use xlink:href="#DejaVuSans-66" x="494.677734"/>
      <use xlink:href="#DejaVuSans-20" x="529.882812"/>
      <use xlink:href="#DejaVuSans-45" x="561.669922"/>
      <use xlink:href="#DejaVuSans-6c" x="624.853516"/>
      <use xlink:href="#DejaVuSans-65" x="652.636719"/>
      <use xlink:href="#DejaVuSans-6d" x="714.160156"/>
      <use xlink:href="#DejaVuSans-65" x="811.572266"/>
      <use xlink:href="#DejaVuSans-6e" x="873.095703"/>
      <use xlink:href="#DejaVuSans-74" x="936.474609"/>
      <use xlink:href="#DejaVuSans-73" x="975.683594"/>
     </g>
    </g>
   </g>
   <g id="patch_167">
    <path d="M 57.6 307.584 
L 57.6 41.472 
" style="fill: none; stroke: #000000; stroke-width: 0.8; stroke-linejoin: miter; stroke-linecap: square"/>
   </g>
   <g id="patch_168">
    <path d="M 414.72 307.584 
L 414.72 41.472 
" style="fill: none; stroke: #000000; stroke-width: 0.8; stroke-linejoin: miter; stroke-linecap: square"/>
   </g>
   <g id="patch_169">
    <path d="M 57.6 307.584 
L 414.72 307.584 
" style="fill: none; stroke: #000000; stroke-width: 0.8; stroke-linejoin: miter; stroke-linecap: square"/>
   </g>
   <g id="patch_170">
    <path d="M 57.6 41.472 
L 414.72 41.472 
" style="fill: none; stroke: #000000; stroke-width: 0.8; stroke-linejoin: miter; stroke-linecap: square"/>
   </g>
  </g>
 </g>
 <defs>
  <clipPath id="p9b0f647164">
   <rect x="57.6" y="41.472" width="357.12" height="266.112"/>
  </clipPath>
 </defs>
</svg>
