<?xml version="1.0" encoding="utf-8" standalone="no"?>
<!DOCTYPE svg PUBLIC "-//W3C//DTD SVG 1.1//EN"
  "http://www.w3.org/Graphics/SVG/1.1/DTD/svg11.dtd">
<svg xmlns:xlink="http://www.w3.org/1999/xlink" width="460.8pt" height="345.6pt" viewBox="0 0 460.8 345.6" xmlns="http://www.w3.org/2000/svg" version="1.1">
 <metadata>
  <rdf:RDF xmlns:dc="http://purl.org/dc/elements/1.1/" xmlns:cc="http://creativecommons.org/ns#" xmlns:rdf="http://www.w3.org/1999/02/22-rdf-syntax-ns#">
   <cc:Work>
    <dc:type rdf:resource="http://purl.org/dc/dcmitype/StillImage"/>
    <dc:date>2024-02-23T19:03:34.256413</dc:date>
    <dc:format>image/svg+xml</dc:format>
    <dc:creator>
     <cc:Agent>
      <dc:title>Matplotlib v3.8.3, https://matplotlib.org/</dc:title>
     </cc:Agent>
    </dc:creator>
   </cc:Work>
  </rdf:RDF>
 </metadata>
 <defs>
  <style type="text/css">*{stroke-linejoin: round; stroke-linecap: butt}</style>
 </defs>
 <g id="figure_1">
  <g id="patch_1">
   <path d="M 0 345.6 
L 460.8 345.6 
L 460.8 0 
L 0 0 
z
" style="fill: #ffffff"/>
  </g>
  <g id="axes_1">
   <g id="patch_2">
    <path d="M 57.6 307.584 
L 414.72 307.584 
L 414.72 41.472 
L 57.6 41.472 
z
" style="fill: #ffffff"/>
   </g>
   <g id="patch_3">
    <path d="M 73.832727 307.584 
L 75.014363 307.584 
L 75.014363 307.218286 
L 73.832727 307.218286 
z
" clip-path="url(#p9100488f91)" style="fill: #1f77b4"/>
   </g>
   <g id="patch_4">
    <path d="M 75.309773 307.584 
L 76.491409 307.584 
L 76.491409 306.669714 
L 75.309773 306.669714 
z
" clip-path="url(#p9100488f91)" style="fill: #1f77b4"/>
   </g>
   <g id="patch_5">
    <path d="M 78.263863 307.584 
L 79.445499 307.584 
L 79.445499 303.104 
L 78.263863 303.104 
z
" clip-path="url(#p9100488f91)" style="fill: #1f77b4"/>
   </g>
   <g id="patch_6">
    <path d="M 79.740908 307.584 
L 80.922544 307.584 
L 80.922544 296.612571 
L 79.740908 296.612571 
z
" clip-path="url(#p9100488f91)" style="fill: #1f77b4"/>
   </g>
   <g id="patch_7">
    <path d="M 84.172044 307.584 
L 85.35368 307.584 
L 85.35368 232.338286 
L 84.172044 232.338286 
z
" clip-path="url(#p9100488f91)" style="fill: #1f77b4"/>
   </g>
   <g id="patch_8">
    <path d="M 76.786818 307.584 
L 77.968454 307.584 
L 77.968454 305.846857 
L 76.786818 305.846857 
z
" clip-path="url(#p9100488f91)" style="fill: #1f77b4"/>
   </g>
   <g id="patch_9">
    <path d="M 81.217954 307.584 
L 82.39959 307.584 
L 82.39959 287.104 
L 81.217954 287.104 
z
" clip-path="url(#p9100488f91)" style="fill: #1f77b4"/>
   </g>
   <g id="patch_10">
    <path d="M 85.649089 307.584 
L 86.830725 307.584 
L 86.830725 202.715429 
L 85.649089 202.715429 
z
" clip-path="url(#p9100488f91)" style="fill: #1f77b4"/>
   </g>
   <g id="patch_11">
    <path d="M 82.694999 307.584 
L 83.876635 307.584 
L 83.876635 269.092571 
L 82.694999 269.092571 
z
" clip-path="url(#p9100488f91)" style="fill: #1f77b4"/>
   </g>
   <g id="patch_12">
    <path d="M 88.60318 307.584 
L 89.784816 307.584 
L 89.784816 111.195429 
L 88.60318 111.195429 
z
" clip-path="url(#p9100488f91)" style="fill: #1f77b4"/>
   </g>
   <g id="patch_13">
    <path d="M 87.126135 307.584 
L 88.307771 307.584 
L 88.307771 166.418286 
L 87.126135 166.418286 
z
" clip-path="url(#p9100488f91)" style="fill: #1f77b4"/>
   </g>
   <g id="patch_14">
    <path d="M 91.55727 307.584 
L 92.738906 307.584 
L 92.738906 54.144 
L 91.55727 54.144 
z
" clip-path="url(#p9100488f91)" style="fill: #1f77b4"/>
   </g>
   <g id="patch_15">
    <path d="M 90.080225 307.584 
L 91.261861 307.584 
L 91.261861 68.864 
L 90.080225 68.864 
z
" clip-path="url(#p9100488f91)" style="fill: #1f77b4"/>
   </g>
   <g id="patch_16">
    <path d="M 97.465451 307.584 
L 98.647087 307.584 
L 98.647087 279.881143 
L 97.465451 279.881143 
z
" clip-path="url(#p9100488f91)" style="fill: #1f77b4"/>
   </g>
   <g id="patch_17">
    <path d="M 93.034315 307.584 
L 94.215952 307.584 
L 94.215952 79.286857 
L 93.034315 79.286857 
z
" clip-path="url(#p9100488f91)" style="fill: #1f77b4"/>
   </g>
   <g id="patch_18">
    <path d="M 101.896587 307.584 
L 103.078223 307.584 
L 103.078223 296.886857 
L 101.896587 296.886857 
z
" clip-path="url(#p9100488f91)" style="fill: #1f77b4"/>
   </g>
   <g id="patch_19">
    <path d="M 100.419542 307.584 
L 101.601178 307.584 
L 101.601178 294.966857 
L 100.419542 294.966857 
z
" clip-path="url(#p9100488f91)" style="fill: #1f77b4"/>
   </g>
   <g id="patch_20">
    <path d="M 94.511361 307.584 
L 95.692997 307.584 
L 95.692997 156.361143 
L 94.511361 156.361143 
z
" clip-path="url(#p9100488f91)" style="fill: #1f77b4"/>
   </g>
   <g id="patch_21">
    <path d="M 95.988406 307.584 
L 97.170042 307.584 
L 97.170042 235.446857 
L 95.988406 235.446857 
z
" clip-path="url(#p9100488f91)" style="fill: #1f77b4"/>
   </g>
   <g id="patch_22">
    <path d="M 103.373632 307.584 
L 104.555268 307.584 
L 104.555268 297.526857 
L 103.373632 297.526857 
z
" clip-path="url(#p9100488f91)" style="fill: #1f77b4"/>
   </g>
   <g id="patch_23">
    <path d="M 106.327723 307.584 
L 107.509359 307.584 
L 107.509359 298.532571 
L 106.327723 298.532571 
z
" clip-path="url(#p9100488f91)" style="fill: #1f77b4"/>
   </g>
   <g id="patch_24">
    <path d="M 107.804768 307.584 
L 108.986404 307.584 
L 108.986404 299.172571 
L 107.804768 299.172571 
z
" clip-path="url(#p9100488f91)" style="fill: #1f77b4"/>
   </g>
   <g id="patch_25">
    <path d="M 98.942496 307.584 
L 100.124133 307.584 
L 100.124133 294.418286 
L 98.942496 294.418286 
z
" clip-path="url(#p9100488f91)" style="fill: #1f77b4"/>
   </g>
   <g id="patch_26">
    <path d="M 110.758858 307.584 
L 111.940495 307.584 
L 111.940495 300.269714 
L 110.758858 300.269714 
z
" clip-path="url(#p9100488f91)" style="fill: #1f77b4"/>
   </g>
   <g id="patch_27">
    <path d="M 115.189994 307.584 
L 116.37163 307.584 
L 116.37163 301.092571 
L 115.189994 301.092571 
z
" clip-path="url(#p9100488f91)" style="fill: #1f77b4"/>
   </g>
   <g id="patch_28">
    <path d="M 104.850677 307.584 
L 106.032314 307.584 
L 106.032314 299.355429 
L 104.850677 299.355429 
z
" clip-path="url(#p9100488f91)" style="fill: #1f77b4"/>
   </g>
   <g id="patch_29">
    <path d="M 116.667039 307.584 
L 117.848676 307.584 
L 117.848676 300.726857 
L 116.667039 300.726857 
z
" clip-path="url(#p9100488f91)" style="fill: #1f77b4"/>
   </g>
   <g id="patch_30">
    <path d="M 109.281813 307.584 
L 110.463449 307.584 
L 110.463449 299.721143 
L 109.281813 299.721143 
z
" clip-path="url(#p9100488f91)" style="fill: #1f77b4"/>
   </g>
   <g id="patch_31">
    <path d="M 113.712949 307.584 
L 114.894585 307.584 
L 114.894585 299.721143 
L 113.712949 299.721143 
z
" clip-path="url(#p9100488f91)" style="fill: #1f77b4"/>
   </g>
   <g id="patch_32">
    <path d="M 112.235904 307.584 
L 113.41754 307.584 
L 113.41754 300.178286 
L 112.235904 300.178286 
z
" clip-path="url(#p9100488f91)" style="fill: #1f77b4"/>
   </g>
   <g id="patch_33">
    <path d="M 121.098175 307.584 
L 122.279811 307.584 
L 122.279811 299.995429 
L 121.098175 299.995429 
z
" clip-path="url(#p9100488f91)" style="fill: #1f77b4"/>
   </g>
   <g id="patch_34">
    <path d="M 124.052266 307.584 
L 125.233902 307.584 
L 125.233902 302.372571 
L 124.052266 302.372571 
z
" clip-path="url(#p9100488f91)" style="fill: #1f77b4"/>
   </g>
   <g id="patch_35">
    <path d="M 128.483401 307.584 
L 129.665038 307.584 
L 129.665038 302.738286 
L 128.483401 302.738286 
z
" clip-path="url(#p9100488f91)" style="fill: #1f77b4"/>
   </g>
   <g id="patch_36">
    <path d="M 127.006356 307.584 
L 128.187992 307.584 
L 128.187992 300.726857 
L 127.006356 300.726857 
z
" clip-path="url(#p9100488f91)" style="fill: #1f77b4"/>
   </g>
   <g id="patch_37">
    <path d="M 132.914537 307.584 
L 134.096173 307.584 
L 134.096173 302.646857 
L 132.914537 302.646857 
z
" clip-path="url(#p9100488f91)" style="fill: #1f77b4"/>
   </g>
   <g id="patch_38">
    <path d="M 122.57522 307.584 
L 123.756857 307.584 
L 123.756857 301.092571 
L 122.57522 301.092571 
z
" clip-path="url(#p9100488f91)" style="fill: #1f77b4"/>
   </g>
   <g id="patch_39">
    <path d="M 119.62113 307.584 
L 120.802766 307.584 
L 120.802766 301.549714 
L 119.62113 301.549714 
z
" clip-path="url(#p9100488f91)" style="fill: #1f77b4"/>
   </g>
   <g id="patch_40">
    <path d="M 118.144085 307.584 
L 119.325721 307.584 
L 119.325721 301.092571 
L 118.144085 301.092571 
z
" clip-path="url(#p9100488f91)" style="fill: #1f77b4"/>
   </g>
   <g id="patch_41">
    <path d="M 125.529311 307.584 
L 126.710947 307.584 
L 126.710947 302.189714 
L 125.529311 302.189714 
z
" clip-path="url(#p9100488f91)" style="fill: #1f77b4"/>
   </g>
   <g id="patch_42">
    <path d="M 137.345673 307.584 
L 138.527309 307.584 
L 138.527309 303.926857 
L 137.345673 303.926857 
z
" clip-path="url(#p9100488f91)" style="fill: #1f77b4"/>
   </g>
   <g id="patch_43">
    <path d="M 140.299763 307.584 
L 141.4814 307.584 
L 141.4814 303.652571 
L 140.299763 303.652571 
z
" clip-path="url(#p9100488f91)" style="fill: #1f77b4"/>
   </g>
   <g id="patch_44">
    <path d="M 143.253854 307.584 
L 144.43549 307.584 
L 144.43549 303.195429 
L 143.253854 303.195429 
z
" clip-path="url(#p9100488f91)" style="fill: #1f77b4"/>
   </g>
   <g id="patch_45">
    <path d="M 146.207944 307.584 
L 147.389581 307.584 
L 147.389581 304.109714 
L 146.207944 304.109714 
z
" clip-path="url(#p9100488f91)" style="fill: #1f77b4"/>
   </g>
   <g id="patch_46">
    <path d="M 147.68499 307.584 
L 148.866626 307.584 
L 148.866626 302.738286 
L 147.68499 302.738286 
z
" clip-path="url(#p9100488f91)" style="fill: #1f77b4"/>
   </g>
   <g id="patch_47">
    <path d="M 144.730899 307.584 
L 145.912535 307.584 
L 145.912535 303.926857 
L 144.730899 303.926857 
z
" clip-path="url(#p9100488f91)" style="fill: #1f77b4"/>
   </g>
   <g id="patch_48">
    <path d="M 134.391582 307.584 
L 135.573219 307.584 
L 135.573219 302.464 
L 134.391582 302.464 
z
" clip-path="url(#p9100488f91)" style="fill: #1f77b4"/>
   </g>
   <g id="patch_49">
    <path d="M 158.024306 307.584 
L 159.205943 307.584 
L 159.205943 304.201143 
L 158.024306 304.201143 
z
" clip-path="url(#p9100488f91)" style="fill: #1f77b4"/>
   </g>
   <g id="patch_50">
    <path d="M 131.437492 307.584 
L 132.619128 307.584 
L 132.619128 303.378286 
L 131.437492 303.378286 
z
" clip-path="url(#p9100488f91)" style="fill: #1f77b4"/>
   </g>
   <g id="patch_51">
    <path d="M 155.070216 307.584 
L 156.251852 307.584 
L 156.251852 304.109714 
L 155.070216 304.109714 
z
" clip-path="url(#p9100488f91)" style="fill: #1f77b4"/>
   </g>
   <g id="patch_52">
    <path d="M 129.960447 307.584 
L 131.142083 307.584 
L 131.142083 302.281143 
L 129.960447 302.281143 
z
" clip-path="url(#p9100488f91)" style="fill: #1f77b4"/>
   </g>
   <g id="patch_53">
    <path d="M 135.868628 307.584 
L 137.050264 307.584 
L 137.050264 301.824 
L 135.868628 301.824 
z
" clip-path="url(#p9100488f91)" style="fill: #1f77b4"/>
   </g>
   <g id="patch_54">
    <path d="M 181.65703 307.584 
L 182.838667 307.584 
L 182.838667 305.481143 
L 181.65703 305.481143 
z
" clip-path="url(#p9100488f91)" style="fill: #1f77b4"/>
   </g>
   <g id="patch_55">
    <path d="M 138.822718 307.584 
L 140.004354 307.584 
L 140.004354 302.829714 
L 138.822718 302.829714 
z
" clip-path="url(#p9100488f91)" style="fill: #1f77b4"/>
   </g>
   <g id="patch_56">
    <path d="M 177.225895 307.584 
L 178.407531 307.584 
L 178.407531 306.121143 
L 177.225895 306.121143 
z
" clip-path="url(#p9100488f91)" style="fill: #1f77b4"/>
   </g>
   <g id="patch_57">
    <path d="M 152.116125 307.584 
L 153.297762 307.584 
L 153.297762 303.926857 
L 152.116125 303.926857 
z
" clip-path="url(#p9100488f91)" style="fill: #1f77b4"/>
   </g>
   <g id="patch_58">
    <path d="M 156.547261 307.584 
L 157.728897 307.584 
L 157.728897 304.475429 
L 156.547261 304.475429 
z
" clip-path="url(#p9100488f91)" style="fill: #1f77b4"/>
   </g>
   <g id="patch_59">
    <path d="M 162.455442 307.584 
L 163.637078 307.584 
L 163.637078 305.024 
L 162.455442 305.024 
z
" clip-path="url(#p9100488f91)" style="fill: #1f77b4"/>
   </g>
   <g id="patch_60">
    <path d="M 149.162035 307.584 
L 150.343671 307.584 
L 150.343671 304.566857 
L 149.162035 304.566857 
z
" clip-path="url(#p9100488f91)" style="fill: #1f77b4"/>
   </g>
   <g id="patch_61">
    <path d="M 174.271804 307.584 
L 175.45344 307.584 
L 175.45344 305.572571 
L 174.271804 305.572571 
z
" clip-path="url(#p9100488f91)" style="fill: #1f77b4"/>
   </g>
   <g id="patch_62">
    <path d="M 141.776809 307.584 
L 142.958445 307.584 
L 142.958445 303.012571 
L 141.776809 303.012571 
z
" clip-path="url(#p9100488f91)" style="fill: #1f77b4"/>
   </g>
   <g id="patch_63">
    <path d="M 160.978397 307.584 
L 162.160033 307.584 
L 162.160033 305.115429 
L 160.978397 305.115429 
z
" clip-path="url(#p9100488f91)" style="fill: #1f77b4"/>
   </g>
   <g id="patch_64">
    <path d="M 153.593171 307.584 
L 154.774807 307.584 
L 154.774807 304.658286 
L 153.593171 304.658286 
z
" clip-path="url(#p9100488f91)" style="fill: #1f77b4"/>
   </g>
   <g id="patch_65">
    <path d="M 166.886578 307.584 
L 168.068214 307.584 
L 168.068214 305.115429 
L 166.886578 305.115429 
z
" clip-path="url(#p9100488f91)" style="fill: #1f77b4"/>
   </g>
   <g id="patch_66">
    <path d="M 190.519302 307.584 
L 191.700938 307.584 
L 191.700938 305.846857 
L 190.519302 305.846857 
z
" clip-path="url(#p9100488f91)" style="fill: #1f77b4"/>
   </g>
   <g id="patch_67">
    <path d="M 193.473392 307.584 
L 194.655029 307.584 
L 194.655029 305.664 
L 193.473392 305.664 
z
" clip-path="url(#p9100488f91)" style="fill: #1f77b4"/>
   </g>
   <g id="patch_68">
    <path d="M 163.932487 307.584 
L 165.114124 307.584 
L 165.114124 305.755429 
L 163.932487 305.755429 
z
" clip-path="url(#p9100488f91)" style="fill: #1f77b4"/>
   </g>
   <g id="patch_69">
    <path d="M 150.63908 307.584 
L 151.820716 307.584 
L 151.820716 304.201143 
L 150.63908 304.201143 
z
" clip-path="url(#p9100488f91)" style="fill: #1f77b4"/>
   </g>
   <g id="patch_70">
    <path d="M 159.501352 307.584 
L 160.682988 307.584 
L 160.682988 305.846857 
L 159.501352 305.846857 
z
" clip-path="url(#p9100488f91)" style="fill: #1f77b4"/>
   </g>
   <g id="patch_71">
    <path d="M 172.794759 307.584 
L 173.976395 307.584 
L 173.976395 304.932571 
L 172.794759 304.932571 
z
" clip-path="url(#p9100488f91)" style="fill: #1f77b4"/>
   </g>
   <g id="patch_72">
    <path d="M 169.840668 307.584 
L 171.022305 307.584 
L 171.022305 304.841143 
L 169.840668 304.841143 
z
" clip-path="url(#p9100488f91)" style="fill: #1f77b4"/>
   </g>
   <g id="patch_73">
    <path d="M 175.748849 307.584 
L 176.930486 307.584 
L 176.930486 306.212571 
L 175.748849 306.212571 
z
" clip-path="url(#p9100488f91)" style="fill: #1f77b4"/>
   </g>
   <g id="patch_74">
    <path d="M 211.197935 307.584 
L 212.379572 307.584 
L 212.379572 306.761143 
L 211.197935 306.761143 
z
" clip-path="url(#p9100488f91)" style="fill: #1f77b4"/>
   </g>
   <g id="patch_75">
    <path d="M 165.409533 307.584 
L 166.591169 307.584 
L 166.591169 305.024 
L 165.409533 305.024 
z
" clip-path="url(#p9100488f91)" style="fill: #1f77b4"/>
   </g>
   <g id="patch_76">
    <path d="M 168.363623 307.584 
L 169.545259 307.584 
L 169.545259 304.658286 
L 168.363623 304.658286 
z
" clip-path="url(#p9100488f91)" style="fill: #1f77b4"/>
   </g>
   <g id="patch_77">
    <path d="M 202.335664 307.584 
L 203.5173 307.584 
L 203.5173 306.486857 
L 202.335664 306.486857 
z
" clip-path="url(#p9100488f91)" style="fill: #1f77b4"/>
   </g>
   <g id="patch_78">
    <path d="M 197.904528 307.584 
L 199.086164 307.584 
L 199.086164 306.304 
L 197.904528 306.304 
z
" clip-path="url(#p9100488f91)" style="fill: #1f77b4"/>
   </g>
   <g id="patch_79">
    <path d="M 171.317714 307.584 
L 172.49935 307.584 
L 172.49935 306.029714 
L 171.317714 306.029714 
z
" clip-path="url(#p9100488f91)" style="fill: #1f77b4"/>
   </g>
   <g id="patch_80">
    <path d="M 180.179985 307.584 
L 181.361621 307.584 
L 181.361621 305.572571 
L 180.179985 305.572571 
z
" clip-path="url(#p9100488f91)" style="fill: #1f77b4"/>
   </g>
   <g id="patch_81">
    <path d="M 189.042257 307.584 
L 190.223893 307.584 
L 190.223893 305.481143 
L 189.042257 305.481143 
z
" clip-path="url(#p9100488f91)" style="fill: #1f77b4"/>
   </g>
   <g id="patch_82">
    <path d="M 178.70294 307.584 
L 179.884576 307.584 
L 179.884576 305.481143 
L 178.70294 305.481143 
z
" clip-path="url(#p9100488f91)" style="fill: #1f77b4"/>
   </g>
   <g id="patch_83">
    <path d="M 203.812709 307.584 
L 204.994345 307.584 
L 204.994345 307.035429 
L 203.812709 307.035429 
z
" clip-path="url(#p9100488f91)" style="fill: #1f77b4"/>
   </g>
   <g id="patch_84">
    <path d="M 194.950438 307.584 
L 196.132074 307.584 
L 196.132074 306.029714 
L 194.950438 306.029714 
z
" clip-path="url(#p9100488f91)" style="fill: #1f77b4"/>
   </g>
   <g id="patch_85">
    <path d="M 184.611121 307.584 
L 185.792757 307.584 
L 185.792757 304.841143 
L 184.611121 304.841143 
z
" clip-path="url(#p9100488f91)" style="fill: #1f77b4"/>
   </g>
   <g id="patch_86">
    <path d="M 183.134076 307.584 
L 184.315712 307.584 
L 184.315712 305.572571 
L 183.134076 305.572571 
z
" clip-path="url(#p9100488f91)" style="fill: #1f77b4"/>
   </g>
   <g id="patch_87">
    <path d="M 191.996347 307.584 
L 193.177983 307.584 
L 193.177983 306.212571 
L 191.996347 306.212571 
z
" clip-path="url(#p9100488f91)" style="fill: #1f77b4"/>
   </g>
   <g id="patch_88">
    <path d="M 205.289754 307.584 
L 206.471391 307.584 
L 206.471391 307.035429 
L 205.289754 307.035429 
z
" clip-path="url(#p9100488f91)" style="fill: #1f77b4"/>
   </g>
   <g id="patch_89">
    <path d="M 187.565211 307.584 
L 188.746848 307.584 
L 188.746848 306.395429 
L 187.565211 306.395429 
z
" clip-path="url(#p9100488f91)" style="fill: #1f77b4"/>
   </g>
   <g id="patch_90">
    <path d="M 227.445433 307.584 
L 228.627069 307.584 
L 228.627069 306.761143 
L 227.445433 306.761143 
z
" clip-path="url(#p9100488f91)" style="fill: #1f77b4"/>
   </g>
   <g id="patch_91">
    <path d="M 212.674981 307.584 
L 213.856617 307.584 
L 213.856617 306.578286 
L 212.674981 306.578286 
z
" clip-path="url(#p9100488f91)" style="fill: #1f77b4"/>
   </g>
   <g id="patch_92">
    <path d="M 196.427483 307.584 
L 197.609119 307.584 
L 197.609119 306.121143 
L 196.427483 306.121143 
z
" clip-path="url(#p9100488f91)" style="fill: #1f77b4"/>
   </g>
   <g id="patch_93">
    <path d="M 208.243845 307.584 
L 209.425481 307.584 
L 209.425481 306.761143 
L 208.243845 306.761143 
z
" clip-path="url(#p9100488f91)" style="fill: #1f77b4"/>
   </g>
   <g id="patch_94">
    <path d="M 199.381573 307.584 
L 200.56321 307.584 
L 200.56321 306.852571 
L 199.381573 306.852571 
z
" clip-path="url(#p9100488f91)" style="fill: #1f77b4"/>
   </g>
   <g id="patch_95">
    <path d="M 245.169976 307.584 
L 246.351612 307.584 
L 246.351612 307.309714 
L 245.169976 307.309714 
z
" clip-path="url(#p9100488f91)" style="fill: #1f77b4"/>
   </g>
   <g id="patch_96">
    <path d="M 237.78475 307.584 
L 238.966386 307.584 
L 238.966386 307.401143 
L 237.78475 307.401143 
z
" clip-path="url(#p9100488f91)" style="fill: #1f77b4"/>
   </g>
   <g id="patch_97">
    <path d="M 242.215886 307.584 
L 243.397522 307.584 
L 243.397522 307.401143 
L 242.215886 307.401143 
z
" clip-path="url(#p9100488f91)" style="fill: #1f77b4"/>
   </g>
   <g id="patch_98">
    <path d="M 186.088166 307.584 
L 187.269802 307.584 
L 187.269802 306.212571 
L 186.088166 306.212571 
z
" clip-path="url(#p9100488f91)" style="fill: #1f77b4"/>
   </g>
   <g id="patch_99">
    <path d="M 206.7668 307.584 
L 207.948436 307.584 
L 207.948436 306.486857 
L 206.7668 306.486857 
z
" clip-path="url(#p9100488f91)" style="fill: #1f77b4"/>
   </g>
   <g id="patch_100">
    <path d="M 220.060207 307.584 
L 221.241843 307.584 
L 221.241843 306.944 
L 220.060207 306.944 
z
" clip-path="url(#p9100488f91)" style="fill: #1f77b4"/>
   </g>
   <g id="patch_101">
    <path d="M 268.8027 307.584 
L 269.984336 307.584 
L 269.984336 307.309714 
L 268.8027 307.309714 
z
" clip-path="url(#p9100488f91)" style="fill: #1f77b4"/>
   </g>
   <g id="patch_102">
    <path d="M 271.75679 307.584 
L 272.938427 307.584 
L 272.938427 307.309714 
L 271.75679 307.309714 
z
" clip-path="url(#p9100488f91)" style="fill: #1f77b4"/>
   </g>
   <g id="patch_103">
    <path d="M 214.152026 307.584 
L 215.333662 307.584 
L 215.333662 306.669714 
L 214.152026 306.669714 
z
" clip-path="url(#p9100488f91)" style="fill: #1f77b4"/>
   </g>
   <g id="patch_104">
    <path d="M 221.537252 307.584 
L 222.718888 307.584 
L 222.718888 306.669714 
L 221.537252 306.669714 
z
" clip-path="url(#p9100488f91)" style="fill: #1f77b4"/>
   </g>
   <g id="patch_105">
    <path d="M 215.629071 307.584 
L 216.810707 307.584 
L 216.810707 306.395429 
L 215.629071 306.395429 
z
" clip-path="url(#p9100488f91)" style="fill: #1f77b4"/>
   </g>
   <g id="patch_106">
    <path d="M 255.509293 307.584 
L 256.690929 307.584 
L 256.690929 307.218286 
L 255.509293 307.218286 
z
" clip-path="url(#p9100488f91)" style="fill: #1f77b4"/>
   </g>
   <g id="patch_107">
    <path d="M 209.72089 307.584 
L 210.902526 307.584 
L 210.902526 306.852571 
L 209.72089 306.852571 
z
" clip-path="url(#p9100488f91)" style="fill: #1f77b4"/>
   </g>
   <g id="patch_108">
    <path d="M 233.353614 307.584 
L 234.53525 307.584 
L 234.53525 307.492571 
L 233.353614 307.492571 
z
" clip-path="url(#p9100488f91)" style="fill: #1f77b4"/>
   </g>
   <g id="patch_109">
    <path d="M 218.583162 307.584 
L 219.764798 307.584 
L 219.764798 307.035429 
L 218.583162 307.035429 
z
" clip-path="url(#p9100488f91)" style="fill: #1f77b4"/>
   </g>
   <g id="patch_110">
    <path d="M 254.032247 307.584 
L 255.213884 307.584 
L 255.213884 307.126857 
L 254.032247 307.126857 
z
" clip-path="url(#p9100488f91)" style="fill: #1f77b4"/>
   </g>
   <g id="patch_111">
    <path d="M 249.601112 307.584 
L 250.782748 307.584 
L 250.782748 307.401143 
L 249.601112 307.401143 
z
" clip-path="url(#p9100488f91)" style="fill: #1f77b4"/>
   </g>
   <g id="patch_112">
    <path d="M 258.463383 307.584 
L 259.645019 307.584 
L 259.645019 307.218286 
L 258.463383 307.218286 
z
" clip-path="url(#p9100488f91)" style="fill: #1f77b4"/>
   </g>
   <g id="patch_113">
    <path d="M 262.894519 307.584 
L 264.076155 307.584 
L 264.076155 307.309714 
L 262.894519 307.309714 
z
" clip-path="url(#p9100488f91)" style="fill: #1f77b4"/>
   </g>
   <g id="patch_114">
    <path d="M 231.876569 307.584 
L 233.058205 307.584 
L 233.058205 306.944 
L 231.876569 306.944 
z
" clip-path="url(#p9100488f91)" style="fill: #1f77b4"/>
   </g>
   <g id="patch_115">
    <path d="M 251.078157 307.584 
L 252.259793 307.584 
L 252.259793 307.401143 
L 251.078157 307.401143 
z
" clip-path="url(#p9100488f91)" style="fill: #1f77b4"/>
   </g>
   <g id="patch_116">
    <path d="M 224.491343 307.584 
L 225.672979 307.584 
L 225.672979 306.944 
L 224.491343 306.944 
z
" clip-path="url(#p9100488f91)" style="fill: #1f77b4"/>
   </g>
   <g id="patch_117">
    <path d="M 200.858619 307.584 
L 202.040255 307.584 
L 202.040255 306.669714 
L 200.858619 306.669714 
z
" clip-path="url(#p9100488f91)" style="fill: #1f77b4"/>
   </g>
   <g id="patch_118">
    <path d="M 217.106116 307.584 
L 218.287753 307.584 
L 218.287753 306.761143 
L 217.106116 306.761143 
z
" clip-path="url(#p9100488f91)" style="fill: #1f77b4"/>
   </g>
   <g id="patch_119">
    <path d="M 234.830659 307.584 
L 236.012295 307.584 
L 236.012295 307.218286 
L 234.830659 307.218286 
z
" clip-path="url(#p9100488f91)" style="fill: #1f77b4"/>
   </g>
   <g id="patch_120">
    <path d="M 259.940428 307.584 
L 261.122065 307.584 
L 261.122065 307.401143 
L 259.940428 307.401143 
z
" clip-path="url(#p9100488f91)" style="fill: #1f77b4"/>
   </g>
   <g id="patch_121">
    <path d="M 240.73884 307.584 
L 241.920476 307.584 
L 241.920476 307.035429 
L 240.73884 307.035429 
z
" clip-path="url(#p9100488f91)" style="fill: #1f77b4"/>
   </g>
   <g id="patch_122">
    <path d="M 228.922478 307.584 
L 230.104114 307.584 
L 230.104114 307.218286 
L 228.922478 307.218286 
z
" clip-path="url(#p9100488f91)" style="fill: #1f77b4"/>
   </g>
   <g id="patch_123">
    <path d="M 236.307705 307.584 
L 237.489341 307.584 
L 237.489341 307.126857 
L 236.307705 307.126857 
z
" clip-path="url(#p9100488f91)" style="fill: #1f77b4"/>
   </g>
   <g id="patch_124">
    <path d="M 230.399524 307.584 
L 231.58116 307.584 
L 231.58116 307.126857 
L 230.399524 307.126857 
z
" clip-path="url(#p9100488f91)" style="fill: #1f77b4"/>
   </g>
   <g id="patch_125">
    <path d="M 273.233836 307.584 
L 274.415472 307.584 
L 274.415472 307.492571 
L 273.233836 307.492571 
z
" clip-path="url(#p9100488f91)" style="fill: #1f77b4"/>
   </g>
   <g id="patch_126">
    <path d="M 252.555202 307.584 
L 253.736838 307.584 
L 253.736838 307.401143 
L 252.555202 307.401143 
z
" clip-path="url(#p9100488f91)" style="fill: #1f77b4"/>
   </g>
   <g id="patch_127">
    <path d="M 225.968388 307.584 
L 227.150024 307.584 
L 227.150024 307.035429 
L 225.968388 307.035429 
z
" clip-path="url(#p9100488f91)" style="fill: #1f77b4"/>
   </g>
   <g id="patch_128">
    <path d="M 277.664971 307.584 
L 278.846608 307.584 
L 278.846608 307.401143 
L 277.664971 307.401143 
z
" clip-path="url(#p9100488f91)" style="fill: #1f77b4"/>
   </g>
   <g id="patch_129">
    <path d="M 324.930419 307.584 
L 326.112056 307.584 
L 326.112056 307.492571 
L 324.930419 307.492571 
z
" clip-path="url(#p9100488f91)" style="fill: #1f77b4"/>
   </g>
   <g id="patch_130">
    <path d="M 256.986338 307.584 
L 258.167974 307.584 
L 258.167974 307.401143 
L 256.986338 307.401143 
z
" clip-path="url(#p9100488f91)" style="fill: #1f77b4"/>
   </g>
   <g id="patch_131">
    <path d="M 270.279745 307.584 
L 271.461381 307.584 
L 271.461381 307.492571 
L 270.279745 307.492571 
z
" clip-path="url(#p9100488f91)" style="fill: #1f77b4"/>
   </g>
   <g id="patch_132">
    <path d="M 261.417474 307.584 
L 262.59911 307.584 
L 262.59911 307.492571 
L 261.417474 307.492571 
z
" clip-path="url(#p9100488f91)" style="fill: #1f77b4"/>
   </g>
   <g id="patch_133">
    <path d="M 335.269736 307.584 
L 336.451372 307.584 
L 336.451372 307.401143 
L 335.269736 307.401143 
z
" clip-path="url(#p9100488f91)" style="fill: #1f77b4"/>
   </g>
   <g id="patch_134">
    <path d="M 276.187926 307.584 
L 277.369562 307.584 
L 277.369562 307.492571 
L 276.187926 307.492571 
z
" clip-path="url(#p9100488f91)" style="fill: #1f77b4"/>
   </g>
   <g id="patch_135">
    <path d="M 239.261795 307.584 
L 240.443431 307.584 
L 240.443431 307.401143 
L 239.261795 307.401143 
z
" clip-path="url(#p9100488f91)" style="fill: #1f77b4"/>
   </g>
   <g id="patch_136">
    <path d="M 265.848609 307.584 
L 267.030246 307.584 
L 267.030246 307.492571 
L 265.848609 307.492571 
z
" clip-path="url(#p9100488f91)" style="fill: #1f77b4"/>
   </g>
   <g id="patch_137">
    <path d="M 223.014297 307.584 
L 224.195933 307.584 
L 224.195933 307.309714 
L 223.014297 307.309714 
z
" clip-path="url(#p9100488f91)" style="fill: #1f77b4"/>
   </g>
   <g id="patch_138">
    <path d="M 246.647021 307.584 
L 247.828657 307.584 
L 247.828657 307.492571 
L 246.647021 307.492571 
z
" clip-path="url(#p9100488f91)" style="fill: #1f77b4"/>
   </g>
   <g id="patch_139">
    <path d="M 283.573152 307.584 
L 284.754789 307.584 
L 284.754789 307.401143 
L 283.573152 307.401143 
z
" clip-path="url(#p9100488f91)" style="fill: #1f77b4"/>
   </g>
   <g id="patch_140">
    <path d="M 243.692931 307.584 
L 244.874567 307.584 
L 244.874567 307.218286 
L 243.692931 307.218286 
z
" clip-path="url(#p9100488f91)" style="fill: #1f77b4"/>
   </g>
   <g id="patch_141">
    <path d="M 248.124067 307.584 
L 249.305703 307.584 
L 249.305703 307.401143 
L 248.124067 307.401143 
z
" clip-path="url(#p9100488f91)" style="fill: #1f77b4"/>
   </g>
   <g id="patch_142">
    <path d="M 289.481333 307.584 
L 290.66297 307.584 
L 290.66297 307.492571 
L 289.481333 307.492571 
z
" clip-path="url(#p9100488f91)" style="fill: #1f77b4"/>
   </g>
   <g id="patch_143">
    <path d="M 286.527243 307.584 
L 287.708879 307.584 
L 287.708879 307.492571 
L 286.527243 307.492571 
z
" clip-path="url(#p9100488f91)" style="fill: #1f77b4"/>
   </g>
   <g id="patch_144">
    <path d="M 267.325655 307.584 
L 268.507291 307.584 
L 268.507291 307.309714 
L 267.325655 307.309714 
z
" clip-path="url(#p9100488f91)" style="fill: #1f77b4"/>
   </g>
   <g id="patch_145">
    <path d="M 397.305637 307.584 
L 398.487273 307.584 
L 398.487273 307.492571 
L 397.305637 307.492571 
z
" clip-path="url(#p9100488f91)" style="fill: #1f77b4"/>
   </g>
   <g id="patch_146">
    <path d="M 295.389514 307.584 
L 296.571151 307.584 
L 296.571151 307.492571 
L 295.389514 307.492571 
z
" clip-path="url(#p9100488f91)" style="fill: #1f77b4"/>
   </g>
   <g id="patch_147">
    <path d="M 264.371564 307.584 
L 265.5532 307.584 
L 265.5532 307.401143 
L 264.371564 307.401143 
z
" clip-path="url(#p9100488f91)" style="fill: #1f77b4"/>
   </g>
   <g id="patch_148">
    <path d="M 280.619062 307.584 
L 281.800698 307.584 
L 281.800698 307.492571 
L 280.619062 307.492571 
z
" clip-path="url(#p9100488f91)" style="fill: #1f77b4"/>
   </g>
   <g id="patch_149">
    <path d="M 274.710881 307.584 
L 275.892517 307.584 
L 275.892517 307.492571 
L 274.710881 307.492571 
z
" clip-path="url(#p9100488f91)" style="fill: #1f77b4"/>
   </g>
   <g id="patch_150">
    <path d="M 347.086098 307.584 
L 348.267734 307.584 
L 348.267734 307.492571 
L 347.086098 307.492571 
z
" clip-path="url(#p9100488f91)" style="fill: #1f77b4"/>
   </g>
   <g id="patch_151">
    <path d="M 384.012229 307.584 
L 385.193865 307.584 
L 385.193865 307.492571 
L 384.012229 307.492571 
z
" clip-path="url(#p9100488f91)" style="fill: #1f77b4"/>
   </g>
   <g id="patch_152">
    <path d="M 299.82065 307.584 
L 301.002286 307.584 
L 301.002286 307.492571 
L 299.82065 307.492571 
z
" clip-path="url(#p9100488f91)" style="fill: #1f77b4"/>
   </g>
   <g id="patch_153">
    <path d="M 311.637012 307.584 
L 312.818648 307.584 
L 312.818648 307.492571 
L 311.637012 307.492571 
z
" clip-path="url(#p9100488f91)" style="fill: #1f77b4"/>
   </g>
   <g id="matplotlib.axis_1">
    <g id="xtick_1">
     <g id="line2d_1">
      <defs>
       <path id="medf988798c" d="M 0 0 
L 0 3.5 
" style="stroke: #000000; stroke-width: 0.8"/>
      </defs>
      <g>
       <use xlink:href="#medf988798c" x="74.423545" y="307.584" style="stroke: #000000; stroke-width: 0.8"/>
      </g>
     </g>
     <g id="text_1">
      <!-- 0 -->
      <g transform="translate(71.242295 322.182437) scale(0.1 -0.1)">
       <defs>
        <path id="DejaVuSans-30" d="M 2034 4250 
Q 1547 4250 1301 3770 
Q 1056 3291 1056 2328 
Q 1056 1369 1301 889 
Q 1547 409 2034 409 
Q 2525 409 2770 889 
Q 3016 1369 3016 2328 
Q 3016 3291 2770 3770 
Q 2525 4250 2034 4250 
z
M 2034 4750 
Q 2819 4750 3233 4129 
Q 3647 3509 3647 2328 
Q 3647 1150 3233 529 
Q 2819 -91 2034 -91 
Q 1250 -91 836 529 
Q 422 1150 422 2328 
Q 422 3509 836 4129 
Q 1250 4750 2034 4750 
z
" transform="scale(0.015625)"/>
       </defs>
       <use xlink:href="#DejaVuSans-30"/>
      </g>
     </g>
    </g>
    <g id="xtick_2">
     <g id="line2d_2">
      <g>
       <use xlink:href="#medf988798c" x="148.275808" y="307.584" style="stroke: #000000; stroke-width: 0.8"/>
      </g>
     </g>
     <g id="text_2">
      <!-- 50 -->
      <g transform="translate(141.913308 322.182437) scale(0.1 -0.1)">
       <defs>
        <path id="DejaVuSans-35" d="M 691 4666 
L 3169 4666 
L 3169 4134 
L 1269 4134 
L 1269 2991 
Q 1406 3038 1543 3061 
Q 1681 3084 1819 3084 
Q 2600 3084 3056 2656 
Q 3513 2228 3513 1497 
Q 3513 744 3044 326 
Q 2575 -91 1722 -91 
Q 1428 -91 1123 -41 
Q 819 9 494 109 
L 494 744 
Q 775 591 1075 516 
Q 1375 441 1709 441 
Q 2250 441 2565 725 
Q 2881 1009 2881 1497 
Q 2881 1984 2565 2268 
Q 2250 2553 1709 2553 
Q 1456 2553 1204 2497 
Q 953 2441 691 2322 
L 691 4666 
z
" transform="scale(0.015625)"/>
       </defs>
       <use xlink:href="#DejaVuSans-35"/>
       <use xlink:href="#DejaVuSans-30" x="63.623047"/>
      </g>
     </g>
    </g>
    <g id="xtick_3">
     <g id="line2d_3">
      <g>
       <use xlink:href="#medf988798c" x="222.12807" y="307.584" style="stroke: #000000; stroke-width: 0.8"/>
      </g>
     </g>
     <g id="text_3">
      <!-- 100 -->
      <g transform="translate(212.58432 322.182437) scale(0.1 -0.1)">
       <defs>
        <path id="DejaVuSans-31" d="M 794 531 
L 1825 531 
L 1825 4091 
L 703 3866 
L 703 4441 
L 1819 4666 
L 2450 4666 
L 2450 531 
L 3481 531 
L 3481 0 
L 794 0 
L 794 531 
z
" transform="scale(0.015625)"/>
       </defs>
       <use xlink:href="#DejaVuSans-31"/>
       <use xlink:href="#DejaVuSans-30" x="63.623047"/>
       <use xlink:href="#DejaVuSans-30" x="127.246094"/>
      </g>
     </g>
    </g>
    <g id="xtick_4">
     <g id="line2d_4">
      <g>
       <use xlink:href="#medf988798c" x="295.980333" y="307.584" style="stroke: #000000; stroke-width: 0.8"/>
      </g>
     </g>
     <g id="text_4">
      <!-- 150 -->
      <g transform="translate(286.436583 322.182437) scale(0.1 -0.1)">
       <use xlink:href="#DejaVuSans-31"/>
       <use xlink:href="#DejaVuSans-35" x="63.623047"/>
       <use xlink:href="#DejaVuSans-30" x="127.246094"/>
      </g>
     </g>
    </g>
    <g id="xtick_5">
     <g id="line2d_5">
      <g>
       <use xlink:href="#medf988798c" x="369.832595" y="307.584" style="stroke: #000000; stroke-width: 0.8"/>
      </g>
     </g>
     <g id="text_5">
      <!-- 200 -->
      <g transform="translate(360.288845 322.182437) scale(0.1 -0.1)">
       <defs>
        <path id="DejaVuSans-32" d="M 1228 531 
L 3431 531 
L 3431 0 
L 469 0 
L 469 531 
Q 828 903 1448 1529 
Q 2069 2156 2228 2338 
Q 2531 2678 2651 2914 
Q 2772 3150 2772 3378 
Q 2772 3750 2511 3984 
Q 2250 4219 1831 4219 
Q 1534 4219 1204 4116 
Q 875 4013 500 3803 
L 500 4441 
Q 881 4594 1212 4672 
Q 1544 4750 1819 4750 
Q 2544 4750 2975 4387 
Q 3406 4025 3406 3419 
Q 3406 3131 3298 2873 
Q 3191 2616 2906 2266 
Q 2828 2175 2409 1742 
Q 1991 1309 1228 531 
z
" transform="scale(0.015625)"/>
       </defs>
       <use xlink:href="#DejaVuSans-32"/>
       <use xlink:href="#DejaVuSans-30" x="63.623047"/>
       <use xlink:href="#DejaVuSans-30" x="127.246094"/>
      </g>
     </g>
    </g>
    <g id="text_6">
     <!-- Depth of Element -->
     <g transform="translate(192.231875 335.860562) scale(0.1 -0.1)">
      <defs>
       <path id="DejaVuSans-44" d="M 1259 4147 
L 1259 519 
L 2022 519 
Q 2988 519 3436 956 
Q 3884 1394 3884 2338 
Q 3884 3275 3436 3711 
Q 2988 4147 2022 4147 
L 1259 4147 
z
M 628 4666 
L 1925 4666 
Q 3281 4666 3915 4102 
Q 4550 3538 4550 2338 
Q 4550 1131 3912 565 
Q 3275 0 1925 0 
L 628 0 
L 628 4666 
z
" transform="scale(0.015625)"/>
       <path id="DejaVuSans-65" d="M 3597 1894 
L 3597 1613 
L 953 1613 
Q 991 1019 1311 708 
Q 1631 397 2203 397 
Q 2534 397 2845 478 
Q 3156 559 3463 722 
L 3463 178 
Q 3153 47 2828 -22 
Q 2503 -91 2169 -91 
Q 1331 -91 842 396 
Q 353 884 353 1716 
Q 353 2575 817 3079 
Q 1281 3584 2069 3584 
Q 2775 3584 3186 3129 
Q 3597 2675 3597 1894 
z
M 3022 2063 
Q 3016 2534 2758 2815 
Q 2500 3097 2075 3097 
Q 1594 3097 1305 2825 
Q 1016 2553 972 2059 
L 3022 2063 
z
" transform="scale(0.015625)"/>
       <path id="DejaVuSans-70" d="M 1159 525 
L 1159 -1331 
L 581 -1331 
L 581 3500 
L 1159 3500 
L 1159 2969 
Q 1341 3281 1617 3432 
Q 1894 3584 2278 3584 
Q 2916 3584 3314 3078 
Q 3713 2572 3713 1747 
Q 3713 922 3314 415 
Q 2916 -91 2278 -91 
Q 1894 -91 1617 61 
Q 1341 213 1159 525 
z
M 3116 1747 
Q 3116 2381 2855 2742 
Q 2594 3103 2138 3103 
Q 1681 3103 1420 2742 
Q 1159 2381 1159 1747 
Q 1159 1113 1420 752 
Q 1681 391 2138 391 
Q 2594 391 2855 752 
Q 3116 1113 3116 1747 
z
" transform="scale(0.015625)"/>
       <path id="DejaVuSans-74" d="M 1172 4494 
L 1172 3500 
L 2356 3500 
L 2356 3053 
L 1172 3053 
L 1172 1153 
Q 1172 725 1289 603 
Q 1406 481 1766 481 
L 2356 481 
L 2356 0 
L 1766 0 
Q 1100 0 847 248 
Q 594 497 594 1153 
L 594 3053 
L 172 3053 
L 172 3500 
L 594 3500 
L 594 4494 
L 1172 4494 
z
" transform="scale(0.015625)"/>
       <path id="DejaVuSans-68" d="M 3513 2113 
L 3513 0 
L 2938 0 
L 2938 2094 
Q 2938 2591 2744 2837 
Q 2550 3084 2163 3084 
Q 1697 3084 1428 2787 
Q 1159 2491 1159 1978 
L 1159 0 
L 581 0 
L 581 4863 
L 1159 4863 
L 1159 2956 
Q 1366 3272 1645 3428 
Q 1925 3584 2291 3584 
Q 2894 3584 3203 3211 
Q 3513 2838 3513 2113 
z
" transform="scale(0.015625)"/>
       <path id="DejaVuSans-20" transform="scale(0.015625)"/>
       <path id="DejaVuSans-6f" d="M 1959 3097 
Q 1497 3097 1228 2736 
Q 959 2375 959 1747 
Q 959 1119 1226 758 
Q 1494 397 1959 397 
Q 2419 397 2687 759 
Q 2956 1122 2956 1747 
Q 2956 2369 2687 2733 
Q 2419 3097 1959 3097 
z
M 1959 3584 
Q 2709 3584 3137 3096 
Q 3566 2609 3566 1747 
Q 3566 888 3137 398 
Q 2709 -91 1959 -91 
Q 1206 -91 779 398 
Q 353 888 353 1747 
Q 353 2609 779 3096 
Q 1206 3584 1959 3584 
z
" transform="scale(0.015625)"/>
       <path id="DejaVuSans-66" d="M 2375 4863 
L 2375 4384 
L 1825 4384 
Q 1516 4384 1395 4259 
Q 1275 4134 1275 3809 
L 1275 3500 
L 2222 3500 
L 2222 3053 
L 1275 3053 
L 1275 0 
L 697 0 
L 697 3053 
L 147 3053 
L 147 3500 
L 697 3500 
L 697 3744 
Q 697 4328 969 4595 
Q 1241 4863 1831 4863 
L 2375 4863 
z
" transform="scale(0.015625)"/>
       <path id="DejaVuSans-45" d="M 628 4666 
L 3578 4666 
L 3578 4134 
L 1259 4134 
L 1259 2753 
L 3481 2753 
L 3481 2222 
L 1259 2222 
L 1259 531 
L 3634 531 
L 3634 0 
L 628 0 
L 628 4666 
z
" transform="scale(0.015625)"/>
       <path id="DejaVuSans-6c" d="M 603 4863 
L 1178 4863 
L 1178 0 
L 603 0 
L 603 4863 
z
" transform="scale(0.015625)"/>
       <path id="DejaVuSans-6d" d="M 3328 2828 
Q 3544 3216 3844 3400 
Q 4144 3584 4550 3584 
Q 5097 3584 5394 3201 
Q 5691 2819 5691 2113 
L 5691 0 
L 5113 0 
L 5113 2094 
Q 5113 2597 4934 2840 
Q 4756 3084 4391 3084 
Q 3944 3084 3684 2787 
Q 3425 2491 3425 1978 
L 3425 0 
L 2847 0 
L 2847 2094 
Q 2847 2600 2669 2842 
Q 2491 3084 2119 3084 
Q 1678 3084 1418 2786 
Q 1159 2488 1159 1978 
L 1159 0 
L 581 0 
L 581 3500 
L 1159 3500 
L 1159 2956 
Q 1356 3278 1631 3431 
Q 1906 3584 2284 3584 
Q 2666 3584 2933 3390 
Q 3200 3197 3328 2828 
z
" transform="scale(0.015625)"/>
       <path id="DejaVuSans-6e" d="M 3513 2113 
L 3513 0 
L 2938 0 
L 2938 2094 
Q 2938 2591 2744 2837 
Q 2550 3084 2163 3084 
Q 1697 3084 1428 2787 
Q 1159 2491 1159 1978 
L 1159 0 
L 581 0 
L 581 3500 
L 1159 3500 
L 1159 2956 
Q 1366 3272 1645 3428 
Q 1925 3584 2291 3584 
Q 2894 3584 3203 3211 
Q 3513 2838 3513 2113 
z
" transform="scale(0.015625)"/>
      </defs>
      <use xlink:href="#DejaVuSans-44"/>
      <use xlink:href="#DejaVuSans-65" x="77.001953"/>
      <use xlink:href="#DejaVuSans-70" x="138.525391"/>
      <use xlink:href="#DejaVuSans-74" x="202.001953"/>
      <use xlink:href="#DejaVuSans-68" x="241.210938"/>
      <use xlink:href="#DejaVuSans-20" x="304.589844"/>
      <use xlink:href="#DejaVuSans-6f" x="336.376953"/>
      <use xlink:href="#DejaVuSans-66" x="397.558594"/>
      <use xlink:href="#DejaVuSans-20" x="432.763672"/>
      <use xlink:href="#DejaVuSans-45" x="464.550781"/>
      <use xlink:href="#DejaVuSans-6c" x="527.734375"/>
      <use xlink:href="#DejaVuSans-65" x="555.517578"/>
      <use xlink:href="#DejaVuSans-6d" x="617.041016"/>
      <use xlink:href="#DejaVuSans-65" x="714.453125"/>
      <use xlink:href="#DejaVuSans-6e" x="775.976562"/>
      <use xlink:href="#DejaVuSans-74" x="839.355469"/>
     </g>
    </g>
   </g>
   <g id="matplotlib.axis_2">
    <g id="ytick_1">
     <g id="line2d_6">
      <defs>
       <path id="m7588a0deff" d="M 0 0 
L -3.5 0 
" style="stroke: #000000; stroke-width: 0.8"/>
      </defs>
      <g>
       <use xlink:href="#m7588a0deff" x="57.6" y="307.584" style="stroke: #000000; stroke-width: 0.8"/>
      </g>
     </g>
     <g id="text_7">
      <!-- 0 -->
      <g transform="translate(44.2375 311.383219) scale(0.1 -0.1)">
       <use xlink:href="#DejaVuSans-30"/>
      </g>
     </g>
    </g>
    <g id="ytick_2">
     <g id="line2d_7">
      <g>
       <use xlink:href="#m7588a0deff" x="57.6" y="261.869714" style="stroke: #000000; stroke-width: 0.8"/>
      </g>
     </g>
     <g id="text_8">
      <!-- 500 -->
      <g transform="translate(31.5125 265.668933) scale(0.1 -0.1)">
       <use xlink:href="#DejaVuSans-35"/>
       <use xlink:href="#DejaVuSans-30" x="63.623047"/>
       <use xlink:href="#DejaVuSans-30" x="127.246094"/>
      </g>
     </g>
    </g>
    <g id="ytick_3">
     <g id="line2d_8">
      <g>
       <use xlink:href="#m7588a0deff" x="57.6" y="216.155429" style="stroke: #000000; stroke-width: 0.8"/>
      </g>
     </g>
     <g id="text_9">
      <!-- 1000 -->
      <g transform="translate(25.15 219.954647) scale(0.1 -0.1)">
       <use xlink:href="#DejaVuSans-31"/>
       <use xlink:href="#DejaVuSans-30" x="63.623047"/>
       <use xlink:href="#DejaVuSans-30" x="127.246094"/>
       <use xlink:href="#DejaVuSans-30" x="190.869141"/>
      </g>
     </g>
    </g>
    <g id="ytick_4">
     <g id="line2d_9">
      <g>
       <use xlink:href="#m7588a0deff" x="57.6" y="170.441143" style="stroke: #000000; stroke-width: 0.8"/>
      </g>
     </g>
     <g id="text_10">
      <!-- 1500 -->
      <g transform="translate(25.15 174.240362) scale(0.1 -0.1)">
       <use xlink:href="#DejaVuSans-31"/>
       <use xlink:href="#DejaVuSans-35" x="63.623047"/>
       <use xlink:href="#DejaVuSans-30" x="127.246094"/>
       <use xlink:href="#DejaVuSans-30" x="190.869141"/>
      </g>
     </g>
    </g>
    <g id="ytick_5">
     <g id="line2d_10">
      <g>
       <use xlink:href="#m7588a0deff" x="57.6" y="124.726857" style="stroke: #000000; stroke-width: 0.8"/>
      </g>
     </g>
     <g id="text_11">
      <!-- 2000 -->
      <g transform="translate(25.15 128.526076) scale(0.1 -0.1)">
       <use xlink:href="#DejaVuSans-32"/>
       <use xlink:href="#DejaVuSans-30" x="63.623047"/>
       <use xlink:href="#DejaVuSans-30" x="127.246094"/>
       <use xlink:href="#DejaVuSans-30" x="190.869141"/>
      </g>
     </g>
    </g>
    <g id="ytick_6">
     <g id="line2d_11">
      <g>
       <use xlink:href="#m7588a0deff" x="57.6" y="79.012571" style="stroke: #000000; stroke-width: 0.8"/>
      </g>
     </g>
     <g id="text_12">
      <!-- 2500 -->
      <g transform="translate(25.15 82.81179) scale(0.1 -0.1)">
       <use xlink:href="#DejaVuSans-32"/>
       <use xlink:href="#DejaVuSans-35" x="63.623047"/>
       <use xlink:href="#DejaVuSans-30" x="127.246094"/>
       <use xlink:href="#DejaVuSans-30" x="190.869141"/>
      </g>
     </g>
    </g>
    <g id="text_13">
     <!-- Number of Elements -->
     <g transform="translate(19.070312 225.917062) rotate(-90) scale(0.1 -0.1)">
      <defs>
       <path id="DejaVuSans-4e" d="M 628 4666 
L 1478 4666 
L 3547 763 
L 3547 4666 
L 4159 4666 
L 4159 0 
L 3309 0 
L 1241 3903 
L 1241 0 
L 628 0 
L 628 4666 
z
" transform="scale(0.015625)"/>
       <path id="DejaVuSans-75" d="M 544 1381 
L 544 3500 
L 1119 3500 
L 1119 1403 
Q 1119 906 1312 657 
Q 1506 409 1894 409 
Q 2359 409 2629 706 
Q 2900 1003 2900 1516 
L 2900 3500 
L 3475 3500 
L 3475 0 
L 2900 0 
L 2900 538 
Q 2691 219 2414 64 
Q 2138 -91 1772 -91 
Q 1169 -91 856 284 
Q 544 659 544 1381 
z
M 1991 3584 
L 1991 3584 
z
" transform="scale(0.015625)"/>
       <path id="DejaVuSans-62" d="M 3116 1747 
Q 3116 2381 2855 2742 
Q 2594 3103 2138 3103 
Q 1681 3103 1420 2742 
Q 1159 2381 1159 1747 
Q 1159 1113 1420 752 
Q 1681 391 2138 391 
Q 2594 391 2855 752 
Q 3116 1113 3116 1747 
z
M 1159 2969 
Q 1341 3281 1617 3432 
Q 1894 3584 2278 3584 
Q 2916 3584 3314 3078 
Q 3713 2572 3713 1747 
Q 3713 922 3314 415 
Q 2916 -91 2278 -91 
Q 1894 -91 1617 61 
Q 1341 213 1159 525 
L 1159 0 
L 581 0 
L 581 4863 
L 1159 4863 
L 1159 2969 
z
" transform="scale(0.015625)"/>
       <path id="DejaVuSans-72" d="M 2631 2963 
Q 2534 3019 2420 3045 
Q 2306 3072 2169 3072 
Q 1681 3072 1420 2755 
Q 1159 2438 1159 1844 
L 1159 0 
L 581 0 
L 581 3500 
L 1159 3500 
L 1159 2956 
Q 1341 3275 1631 3429 
Q 1922 3584 2338 3584 
Q 2397 3584 2469 3576 
Q 2541 3569 2628 3553 
L 2631 2963 
z
" transform="scale(0.015625)"/>
       <path id="DejaVuSans-73" d="M 2834 3397 
L 2834 2853 
Q 2591 2978 2328 3040 
Q 2066 3103 1784 3103 
Q 1356 3103 1142 2972 
Q 928 2841 928 2578 
Q 928 2378 1081 2264 
Q 1234 2150 1697 2047 
L 1894 2003 
Q 2506 1872 2764 1633 
Q 3022 1394 3022 966 
Q 3022 478 2636 193 
Q 2250 -91 1575 -91 
Q 1294 -91 989 -36 
Q 684 19 347 128 
L 347 722 
Q 666 556 975 473 
Q 1284 391 1588 391 
Q 1994 391 2212 530 
Q 2431 669 2431 922 
Q 2431 1156 2273 1281 
Q 2116 1406 1581 1522 
L 1381 1569 
Q 847 1681 609 1914 
Q 372 2147 372 2553 
Q 372 3047 722 3315 
Q 1072 3584 1716 3584 
Q 2034 3584 2315 3537 
Q 2597 3491 2834 3397 
z
" transform="scale(0.015625)"/>
      </defs>
      <use xlink:href="#DejaVuSans-4e"/>
      <use xlink:href="#DejaVuSans-75" x="74.804688"/>
      <use xlink:href="#DejaVuSans-6d" x="138.183594"/>
      <use xlink:href="#DejaVuSans-62" x="235.595703"/>
      <use xlink:href="#DejaVuSans-65" x="299.072266"/>
      <use xlink:href="#DejaVuSans-72" x="360.595703"/>
      <use xlink:href="#DejaVuSans-20" x="401.708984"/>
      <use xlink:href="#DejaVuSans-6f" x="433.496094"/>
      <use xlink:href="#DejaVuSans-66" x="494.677734"/>
      <use xlink:href="#DejaVuSans-20" x="529.882812"/>
      <use xlink:href="#DejaVuSans-45" x="561.669922"/>
      <use xlink:href="#DejaVuSans-6c" x="624.853516"/>
      <use xlink:href="#DejaVuSans-65" x="652.636719"/>
      <use xlink:href="#DejaVuSans-6d" x="714.160156"/>
      <use xlink:href="#DejaVuSans-65" x="811.572266"/>
      <use xlink:href="#DejaVuSans-6e" x="873.095703"/>
      <use xlink:href="#DejaVuSans-74" x="936.474609"/>
      <use xlink:href="#DejaVuSans-73" x="975.683594"/>
     </g>
    </g>
   </g>
   <g id="patch_154">
    <path d="M 57.6 307.584 
L 57.6 41.472 
" style="fill: none; stroke: #000000; stroke-width: 0.8; stroke-linejoin: miter; stroke-linecap: square"/>
   </g>
   <g id="patch_155">
    <path d="M 414.72 307.584 
L 414.72 41.472 
" style="fill: none; stroke: #000000; stroke-width: 0.8; stroke-linejoin: miter; stroke-linecap: square"/>
   </g>
   <g id="patch_156">
    <path d="M 57.6 307.584 
L 414.72 307.584 
" style="fill: none; stroke: #000000; stroke-width: 0.8; stroke-linejoin: miter; stroke-linecap: square"/>
   </g>
   <g id="patch_157">
    <path d="M 57.6 41.472 
L 414.72 41.472 
" style="fill: none; stroke: #000000; stroke-width: 0.8; stroke-linejoin: miter; stroke-linecap: square"/>
   </g>
  </g>
 </g>
 <defs>
  <clipPath id="p9100488f91">
   <rect x="57.6" y="41.472" width="357.12" height="266.112"/>
  </clipPath>
 </defs>
</svg>
