<?xml version="1.0" encoding="utf-8" standalone="no"?>
<!DOCTYPE svg PUBLIC "-//W3C//DTD SVG 1.1//EN"
  "http://www.w3.org/Graphics/SVG/1.1/DTD/svg11.dtd">
<svg xmlns:xlink="http://www.w3.org/1999/xlink" width="460.8pt" height="345.6pt" viewBox="0 0 460.8 345.6" xmlns="http://www.w3.org/2000/svg" version="1.1">
 <metadata>
  <rdf:RDF xmlns:dc="http://purl.org/dc/elements/1.1/" xmlns:cc="http://creativecommons.org/ns#" xmlns:rdf="http://www.w3.org/1999/02/22-rdf-syntax-ns#">
   <cc:Work>
    <dc:type rdf:resource="http://purl.org/dc/dcmitype/StillImage"/>
    <dc:date>2024-02-19T22:55:40.935973</dc:date>
    <dc:format>image/svg+xml</dc:format>
    <dc:creator>
     <cc:Agent>
      <dc:title>Matplotlib v3.8.3, https://matplotlib.org/</dc:title>
     </cc:Agent>
    </dc:creator>
   </cc:Work>
  </rdf:RDF>
 </metadata>
 <defs>
  <style type="text/css">*{stroke-linejoin: round; stroke-linecap: butt}</style>
 </defs>
 <g id="figure_1">
  <g id="patch_1">
   <path d="M 0 345.6 
L 460.8 345.6 
L 460.8 0 
L 0 0 
z
" style="fill: #ffffff"/>
  </g>
  <g id="axes_1">
   <g id="patch_2">
    <path d="M 57.6 307.584 
L 414.72 307.584 
L 414.72 41.472 
L 57.6 41.472 
z
" style="fill: #ffffff"/>
   </g>
   <g id="patch_3">
    <path d="M 73.832727 307.584 
L 74.821021 307.584 
L 74.821021 306.617594 
L 73.832727 306.617594 
z
" clip-path="url(#pb08663d916)" style="fill: #1f77b4"/>
   </g>
   <g id="patch_4">
    <path d="M 75.068095 307.584 
L 76.056389 307.584 
L 76.056389 305.409586 
L 75.068095 305.409586 
z
" clip-path="url(#pb08663d916)" style="fill: #1f77b4"/>
   </g>
   <g id="patch_5">
    <path d="M 77.538829 307.584 
L 78.527123 307.584 
L 78.527123 298.644744 
L 77.538829 298.644744 
z
" clip-path="url(#pb08663d916)" style="fill: #1f77b4"/>
   </g>
   <g id="patch_6">
    <path d="M 78.774197 307.584 
L 79.762491 307.584 
L 79.762491 286.081464 
L 78.774197 286.081464 
z
" clip-path="url(#pb08663d916)" style="fill: #1f77b4"/>
   </g>
   <g id="patch_7">
    <path d="M 82.480299 307.584 
L 83.468593 307.584 
L 83.468593 197.655306 
L 82.480299 197.655306 
z
" clip-path="url(#pb08663d916)" style="fill: #1f77b4"/>
   </g>
   <g id="patch_8">
    <path d="M 76.303462 307.584 
L 77.291756 307.584 
L 77.291756 303.718376 
L 76.303462 303.718376 
z
" clip-path="url(#pb08663d916)" style="fill: #1f77b4"/>
   </g>
   <g id="patch_9">
    <path d="M 80.009564 307.584 
L 80.997858 307.584 
L 80.997858 271.585373 
L 80.009564 271.585373 
z
" clip-path="url(#pb08663d916)" style="fill: #1f77b4"/>
   </g>
   <g id="patch_10">
    <path d="M 81.244932 307.584 
L 82.233225 307.584 
L 82.233225 241.626784 
L 81.244932 241.626784 
z
" clip-path="url(#pb08663d916)" style="fill: #1f77b4"/>
   </g>
   <g id="patch_11">
    <path d="M 83.715666 307.584 
L 84.70396 307.584 
L 84.70396 176.15277 
L 83.715666 176.15277 
z
" clip-path="url(#pb08663d916)" style="fill: #1f77b4"/>
   </g>
   <g id="patch_12">
    <path d="M 86.186401 307.584 
L 87.174695 307.584 
L 87.174695 101.256297 
L 86.186401 101.256297 
z
" clip-path="url(#pb08663d916)" style="fill: #1f77b4"/>
   </g>
   <g id="patch_13">
    <path d="M 84.951034 307.584 
L 85.939328 307.584 
L 85.939328 142.81176 
L 84.951034 142.81176 
z
" clip-path="url(#pb08663d916)" style="fill: #1f77b4"/>
   </g>
   <g id="patch_14">
    <path d="M 89.892503 307.584 
L 90.880797 307.584 
L 90.880797 86.518604 
L 89.892503 86.518604 
z
" clip-path="url(#pb08663d916)" style="fill: #1f77b4"/>
   </g>
   <g id="patch_15">
    <path d="M 88.657136 307.584 
L 89.64543 307.584 
L 89.64543 54.144 
L 88.657136 54.144 
z
" clip-path="url(#pb08663d916)" style="fill: #1f77b4"/>
   </g>
   <g id="patch_16">
    <path d="M 87.421768 307.584 
L 88.410062 307.584 
L 88.410062 71.056107 
L 87.421768 71.056107 
z
" clip-path="url(#pb08663d916)" style="fill: #1f77b4"/>
   </g>
   <g id="patch_17">
    <path d="M 92.363238 307.584 
L 93.351532 307.584 
L 93.351532 214.567413 
L 92.363238 214.567413 
z
" clip-path="url(#pb08663d916)" style="fill: #1f77b4"/>
   </g>
   <g id="patch_18">
    <path d="M 91.12787 307.584 
L 92.116164 307.584 
L 92.116164 153.200625 
L 91.12787 153.200625 
z
" clip-path="url(#pb08663d916)" style="fill: #1f77b4"/>
   </g>
   <g id="patch_19">
    <path d="M 97.304707 307.584 
L 98.293001 307.584 
L 98.293001 278.833418 
L 97.304707 278.833418 
z
" clip-path="url(#pb08663d916)" style="fill: #1f77b4"/>
   </g>
   <g id="patch_20">
    <path d="M 99.775442 307.584 
L 100.763736 307.584 
L 100.763736 285.839863 
L 99.775442 285.839863 
z
" clip-path="url(#pb08663d916)" style="fill: #1f77b4"/>
   </g>
   <g id="patch_21">
    <path d="M 93.598605 307.584 
L 94.586899 307.584 
L 94.586899 249.599634 
L 93.598605 249.599634 
z
" clip-path="url(#pb08663d916)" style="fill: #1f77b4"/>
   </g>
   <g id="patch_22">
    <path d="M 94.833973 307.584 
L 95.822267 307.584 
L 95.822267 269.894162 
L 94.833973 269.894162 
z
" clip-path="url(#pb08663d916)" style="fill: #1f77b4"/>
   </g>
   <g id="patch_23">
    <path d="M 98.540075 307.584 
L 99.528369 307.584 
L 99.528369 277.625411 
L 98.540075 277.625411 
z
" clip-path="url(#pb08663d916)" style="fill: #1f77b4"/>
   </g>
   <g id="patch_24">
    <path d="M 101.010809 307.584 
L 101.999103 307.584 
L 101.999103 283.907051 
L 101.010809 283.907051 
z
" clip-path="url(#pb08663d916)" style="fill: #1f77b4"/>
   </g>
   <g id="patch_25">
    <path d="M 104.716912 307.584 
L 105.705205 307.584 
L 105.705205 287.04787 
L 104.716912 287.04787 
z
" clip-path="url(#pb08663d916)" style="fill: #1f77b4"/>
   </g>
   <g id="patch_26">
    <path d="M 102.246177 307.584 
L 103.234471 307.584 
L 103.234471 285.598261 
L 102.246177 285.598261 
z
" clip-path="url(#pb08663d916)" style="fill: #1f77b4"/>
   </g>
   <g id="patch_27">
    <path d="M 96.06934 307.584 
L 97.057634 307.584 
L 97.057634 273.276583 
L 96.06934 273.276583 
z
" clip-path="url(#pb08663d916)" style="fill: #1f77b4"/>
   </g>
   <g id="patch_28">
    <path d="M 103.481544 307.584 
L 104.469838 307.584 
L 104.469838 286.564667 
L 103.481544 286.564667 
z
" clip-path="url(#pb08663d916)" style="fill: #1f77b4"/>
   </g>
   <g id="patch_29">
    <path d="M 109.658381 307.584 
L 110.646675 307.584 
L 110.646675 287.289472 
L 109.658381 287.289472 
z
" clip-path="url(#pb08663d916)" style="fill: #1f77b4"/>
   </g>
   <g id="patch_30">
    <path d="M 105.952279 307.584 
L 106.940573 307.584 
L 106.940573 288.980683 
L 105.952279 288.980683 
z
" clip-path="url(#pb08663d916)" style="fill: #1f77b4"/>
   </g>
   <g id="patch_31">
    <path d="M 110.893748 307.584 
L 111.882042 307.584 
L 111.882042 290.913495 
L 110.893748 290.913495 
z
" clip-path="url(#pb08663d916)" style="fill: #1f77b4"/>
   </g>
   <g id="patch_32">
    <path d="M 107.187646 307.584 
L 108.17594 307.584 
L 108.17594 289.947089 
L 107.187646 289.947089 
z
" clip-path="url(#pb08663d916)" style="fill: #1f77b4"/>
   </g>
   <g id="patch_33">
    <path d="M 108.423014 307.584 
L 109.411308 307.584 
L 109.411308 289.705487 
L 108.423014 289.705487 
z
" clip-path="url(#pb08663d916)" style="fill: #1f77b4"/>
   </g>
   <g id="patch_34">
    <path d="M 117.070585 307.584 
L 118.058879 307.584 
L 118.058879 289.463886 
L 117.070585 289.463886 
z
" clip-path="url(#pb08663d916)" style="fill: #1f77b4"/>
   </g>
   <g id="patch_35">
    <path d="M 115.835218 307.584 
L 116.823512 307.584 
L 116.823512 293.32951 
L 115.835218 293.32951 
z
" clip-path="url(#pb08663d916)" style="fill: #1f77b4"/>
   </g>
   <g id="patch_36">
    <path d="M 112.129116 307.584 
L 113.11741 307.584 
L 113.11741 287.04787 
L 112.129116 287.04787 
z
" clip-path="url(#pb08663d916)" style="fill: #1f77b4"/>
   </g>
   <g id="patch_37">
    <path d="M 119.54132 307.584 
L 120.529614 307.584 
L 120.529614 292.846307 
L 119.54132 292.846307 
z
" clip-path="url(#pb08663d916)" style="fill: #1f77b4"/>
   </g>
   <g id="patch_38">
    <path d="M 120.776687 307.584 
L 121.764981 307.584 
L 121.764981 292.604705 
L 120.776687 292.604705 
z
" clip-path="url(#pb08663d916)" style="fill: #1f77b4"/>
   </g>
   <g id="patch_39">
    <path d="M 125.718157 307.584 
L 126.706451 307.584 
L 126.706451 292.604705 
L 125.718157 292.604705 
z
" clip-path="url(#pb08663d916)" style="fill: #1f77b4"/>
   </g>
   <g id="patch_40">
    <path d="M 114.599851 307.584 
L 115.588144 307.584 
L 115.588144 290.913495 
L 114.599851 290.913495 
z
" clip-path="url(#pb08663d916)" style="fill: #1f77b4"/>
   </g>
   <g id="patch_41">
    <path d="M 118.305953 307.584 
L 119.294247 307.584 
L 119.294247 291.879901 
L 118.305953 291.879901 
z
" clip-path="url(#pb08663d916)" style="fill: #1f77b4"/>
   </g>
   <g id="patch_42">
    <path d="M 126.953524 307.584 
L 127.941818 307.584 
L 127.941818 295.503924 
L 126.953524 295.503924 
z
" clip-path="url(#pb08663d916)" style="fill: #1f77b4"/>
   </g>
   <g id="patch_43">
    <path d="M 122.012055 307.584 
L 123.000349 307.584 
L 123.000349 295.262322 
L 122.012055 295.262322 
z
" clip-path="url(#pb08663d916)" style="fill: #1f77b4"/>
   </g>
   <g id="patch_44">
    <path d="M 113.364483 307.584 
L 114.352777 307.584 
L 114.352777 288.739081 
L 113.364483 288.739081 
z
" clip-path="url(#pb08663d916)" style="fill: #1f77b4"/>
   </g>
   <g id="patch_45">
    <path d="M 123.247422 307.584 
L 124.235716 307.584 
L 124.235716 291.638299 
L 123.247422 291.638299 
z
" clip-path="url(#pb08663d916)" style="fill: #1f77b4"/>
   </g>
   <g id="patch_46">
    <path d="M 136.836463 307.584 
L 137.824757 307.584 
L 137.824757 295.020721 
L 136.836463 295.020721 
z
" clip-path="url(#pb08663d916)" style="fill: #1f77b4"/>
   </g>
   <g id="patch_47">
    <path d="M 130.659626 307.584 
L 131.64792 307.584 
L 131.64792 295.503924 
L 130.659626 295.503924 
z
" clip-path="url(#pb08663d916)" style="fill: #1f77b4"/>
   </g>
   <g id="patch_48">
    <path d="M 131.894994 307.584 
L 132.883288 307.584 
L 132.883288 294.537518 
L 131.894994 294.537518 
z
" clip-path="url(#pb08663d916)" style="fill: #1f77b4"/>
   </g>
   <g id="patch_49">
    <path d="M 141.777933 307.584 
L 142.766227 307.584 
L 142.766227 297.195134 
L 141.777933 297.195134 
z
" clip-path="url(#pb08663d916)" style="fill: #1f77b4"/>
   </g>
   <g id="patch_50">
    <path d="M 134.365729 307.584 
L 135.354022 307.584 
L 135.354022 294.054315 
L 134.365729 294.054315 
z
" clip-path="url(#pb08663d916)" style="fill: #1f77b4"/>
   </g>
   <g id="patch_51">
    <path d="M 128.188892 307.584 
L 129.177186 307.584 
L 129.177186 291.879901 
L 128.188892 291.879901 
z
" clip-path="url(#pb08663d916)" style="fill: #1f77b4"/>
   </g>
   <g id="patch_52">
    <path d="M 143.0133 307.584 
L 144.001594 307.584 
L 144.001594 297.919939 
L 143.0133 297.919939 
z
" clip-path="url(#pb08663d916)" style="fill: #1f77b4"/>
   </g>
   <g id="patch_53">
    <path d="M 144.248667 307.584 
L 145.236961 307.584 
L 145.236961 299.369548 
L 144.248667 299.369548 
z
" clip-path="url(#pb08663d916)" style="fill: #1f77b4"/>
   </g>
   <g id="patch_54">
    <path d="M 147.95477 307.584 
L 148.943064 307.584 
L 148.943064 297.678337 
L 147.95477 297.678337 
z
" clip-path="url(#pb08663d916)" style="fill: #1f77b4"/>
   </g>
   <g id="patch_55">
    <path d="M 155.366974 307.584 
L 156.355268 307.584 
L 156.355268 298.161541 
L 155.366974 298.161541 
z
" clip-path="url(#pb08663d916)" style="fill: #1f77b4"/>
   </g>
   <g id="patch_56">
    <path d="M 124.48279 307.584 
L 125.471083 307.584 
L 125.471083 292.846307 
L 124.48279 292.846307 
z
" clip-path="url(#pb08663d916)" style="fill: #1f77b4"/>
   </g>
   <g id="patch_57">
    <path d="M 146.719402 307.584 
L 147.707696 307.584 
L 147.707696 297.195134 
L 146.719402 297.195134 
z
" clip-path="url(#pb08663d916)" style="fill: #1f77b4"/>
   </g>
   <g id="patch_58">
    <path d="M 149.190137 307.584 
L 150.178431 307.584 
L 150.178431 300.094353 
L 149.190137 300.094353 
z
" clip-path="url(#pb08663d916)" style="fill: #1f77b4"/>
   </g>
   <g id="patch_59">
    <path d="M 133.130361 307.584 
L 134.118655 307.584 
L 134.118655 295.987127 
L 133.130361 295.987127 
z
" clip-path="url(#pb08663d916)" style="fill: #1f77b4"/>
   </g>
   <g id="patch_60">
    <path d="M 173.897484 307.584 
L 174.885778 307.584 
L 174.885778 302.027165 
L 173.897484 302.027165 
z
" clip-path="url(#pb08663d916)" style="fill: #1f77b4"/>
   </g>
   <g id="patch_61">
    <path d="M 154.131606 307.584 
L 155.1199 307.584 
L 155.1199 299.127947 
L 154.131606 299.127947 
z
" clip-path="url(#pb08663d916)" style="fill: #1f77b4"/>
   </g>
   <g id="patch_62">
    <path d="M 165.249913 307.584 
L 166.238207 307.584 
L 166.238207 299.127947 
L 165.249913 299.127947 
z
" clip-path="url(#pb08663d916)" style="fill: #1f77b4"/>
   </g>
   <g id="patch_63">
    <path d="M 161.543811 307.584 
L 162.532105 307.584 
L 162.532105 300.094353 
L 161.543811 300.094353 
z
" clip-path="url(#pb08663d916)" style="fill: #1f77b4"/>
   </g>
   <g id="patch_64">
    <path d="M 160.308443 307.584 
L 161.296737 307.584 
L 161.296737 300.819157 
L 160.308443 300.819157 
z
" clip-path="url(#pb08663d916)" style="fill: #1f77b4"/>
   </g>
   <g id="patch_65">
    <path d="M 139.307198 307.584 
L 140.295492 307.584 
L 140.295492 296.953533 
L 139.307198 296.953533 
z
" clip-path="url(#pb08663d916)" style="fill: #1f77b4"/>
   </g>
   <g id="patch_66">
    <path d="M 138.071831 307.584 
L 139.060125 307.584 
L 139.060125 298.644744 
L 138.071831 298.644744 
z
" clip-path="url(#pb08663d916)" style="fill: #1f77b4"/>
   </g>
   <g id="patch_67">
    <path d="M 159.073076 307.584 
L 160.06137 307.584 
L 160.06137 298.886345 
L 159.073076 298.886345 
z
" clip-path="url(#pb08663d916)" style="fill: #1f77b4"/>
   </g>
   <g id="patch_68">
    <path d="M 150.425504 307.584 
L 151.413798 307.584 
L 151.413798 300.335954 
L 150.425504 300.335954 
z
" clip-path="url(#pb08663d916)" style="fill: #1f77b4"/>
   </g>
   <g id="patch_69">
    <path d="M 135.601096 307.584 
L 136.58939 307.584 
L 136.58939 297.678337 
L 135.601096 297.678337 
z
" clip-path="url(#pb08663d916)" style="fill: #1f77b4"/>
   </g>
   <g id="patch_70">
    <path d="M 156.602341 307.584 
L 157.590635 307.584 
L 157.590635 299.61115 
L 156.602341 299.61115 
z
" clip-path="url(#pb08663d916)" style="fill: #1f77b4"/>
   </g>
   <g id="patch_71">
    <path d="M 140.542565 307.584 
L 141.530859 307.584 
L 141.530859 296.711931 
L 140.542565 296.711931 
z
" clip-path="url(#pb08663d916)" style="fill: #1f77b4"/>
   </g>
   <g id="patch_72">
    <path d="M 166.48528 307.584 
L 167.473574 307.584 
L 167.473574 300.577556 
L 166.48528 300.577556 
z
" clip-path="url(#pb08663d916)" style="fill: #1f77b4"/>
   </g>
   <g id="patch_73">
    <path d="M 129.424259 307.584 
L 130.412553 307.584 
L 130.412553 295.987127 
L 129.424259 295.987127 
z
" clip-path="url(#pb08663d916)" style="fill: #1f77b4"/>
   </g>
   <g id="patch_74">
    <path d="M 152.896239 307.584 
L 153.884533 307.584 
L 153.884533 300.577556 
L 152.896239 300.577556 
z
" clip-path="url(#pb08663d916)" style="fill: #1f77b4"/>
   </g>
   <g id="patch_75">
    <path d="M 162.779178 307.584 
L 163.767472 307.584 
L 163.767472 302.751969 
L 162.779178 302.751969 
z
" clip-path="url(#pb08663d916)" style="fill: #1f77b4"/>
   </g>
   <g id="patch_76">
    <path d="M 182.545056 307.584 
L 183.53335 307.584 
L 183.53335 303.959977 
L 182.545056 303.959977 
z
" clip-path="url(#pb08663d916)" style="fill: #1f77b4"/>
   </g>
   <g id="patch_77">
    <path d="M 157.837709 307.584 
L 158.826002 307.584 
L 158.826002 301.30236 
L 157.837709 301.30236 
z
" clip-path="url(#pb08663d916)" style="fill: #1f77b4"/>
   </g>
   <g id="patch_78">
    <path d="M 145.484035 307.584 
L 146.472329 307.584 
L 146.472329 299.127947 
L 145.484035 299.127947 
z
" clip-path="url(#pb08663d916)" style="fill: #1f77b4"/>
   </g>
   <g id="patch_79">
    <path d="M 164.014545 307.584 
L 165.002839 307.584 
L 165.002839 301.543962 
L 164.014545 301.543962 
z
" clip-path="url(#pb08663d916)" style="fill: #1f77b4"/>
   </g>
   <g id="patch_80">
    <path d="M 176.368219 307.584 
L 177.356513 307.584 
L 177.356513 301.543962 
L 176.368219 301.543962 
z
" clip-path="url(#pb08663d916)" style="fill: #1f77b4"/>
   </g>
   <g id="patch_81">
    <path d="M 168.956015 307.584 
L 169.944309 307.584 
L 169.944309 301.543962 
L 168.956015 301.543962 
z
" clip-path="url(#pb08663d916)" style="fill: #1f77b4"/>
   </g>
   <g id="patch_82">
    <path d="M 210.958506 307.584 
L 211.9468 307.584 
L 211.9468 305.651188 
L 210.958506 305.651188 
z
" clip-path="url(#pb08663d916)" style="fill: #1f77b4"/>
   </g>
   <g id="patch_83">
    <path d="M 167.720648 307.584 
L 168.708941 307.584 
L 168.708941 302.027165 
L 167.720648 302.027165 
z
" clip-path="url(#pb08663d916)" style="fill: #1f77b4"/>
   </g>
   <g id="patch_84">
    <path d="M 151.660872 307.584 
L 152.649166 307.584 
L 152.649166 299.852751 
L 151.660872 299.852751 
z
" clip-path="url(#pb08663d916)" style="fill: #1f77b4"/>
   </g>
   <g id="patch_85">
    <path d="M 202.310934 307.584 
L 203.299228 307.584 
L 203.299228 303.235173 
L 202.310934 303.235173 
z
" clip-path="url(#pb08663d916)" style="fill: #1f77b4"/>
   </g>
   <g id="patch_86">
    <path d="M 191.192628 307.584 
L 192.180922 307.584 
L 192.180922 304.44318 
L 191.192628 304.44318 
z
" clip-path="url(#pb08663d916)" style="fill: #1f77b4"/>
   </g>
   <g id="patch_87">
    <path d="M 178.838954 307.584 
L 179.827248 307.584 
L 179.827248 302.993571 
L 178.838954 302.993571 
z
" clip-path="url(#pb08663d916)" style="fill: #1f77b4"/>
   </g>
   <g id="patch_88">
    <path d="M 170.191382 307.584 
L 171.179676 307.584 
L 171.179676 301.30236 
L 170.191382 301.30236 
z
" clip-path="url(#pb08663d916)" style="fill: #1f77b4"/>
   </g>
   <g id="patch_89">
    <path d="M 171.42675 307.584 
L 172.415044 307.584 
L 172.415044 303.476774 
L 171.42675 303.476774 
z
" clip-path="url(#pb08663d916)" style="fill: #1f77b4"/>
   </g>
   <g id="patch_90">
    <path d="M 187.486526 307.584 
L 188.474819 307.584 
L 188.474819 302.993571 
L 187.486526 302.993571 
z
" clip-path="url(#pb08663d916)" style="fill: #1f77b4"/>
   </g>
   <g id="patch_91">
    <path d="M 181.309689 307.584 
L 182.297983 307.584 
L 182.297983 304.201579 
L 181.309689 304.201579 
z
" clip-path="url(#pb08663d916)" style="fill: #1f77b4"/>
   </g>
   <g id="patch_92">
    <path d="M 175.132852 307.584 
L 176.121146 307.584 
L 176.121146 301.785563 
L 175.132852 301.785563 
z
" clip-path="url(#pb08663d916)" style="fill: #1f77b4"/>
   </g>
   <g id="patch_93">
    <path d="M 172.662117 307.584 
L 173.650411 307.584 
L 173.650411 302.268766 
L 172.662117 302.268766 
z
" clip-path="url(#pb08663d916)" style="fill: #1f77b4"/>
   </g>
   <g id="patch_94">
    <path d="M 183.780423 307.584 
L 184.768717 307.584 
L 184.768717 302.993571 
L 183.780423 302.993571 
z
" clip-path="url(#pb08663d916)" style="fill: #1f77b4"/>
   </g>
   <g id="patch_95">
    <path d="M 177.603587 307.584 
L 178.59188 307.584 
L 178.59188 301.543962 
L 177.603587 301.543962 
z
" clip-path="url(#pb08663d916)" style="fill: #1f77b4"/>
   </g>
   <g id="patch_96">
    <path d="M 192.427995 307.584 
L 193.416289 307.584 
L 193.416289 304.44318 
L 192.427995 304.44318 
z
" clip-path="url(#pb08663d916)" style="fill: #1f77b4"/>
   </g>
   <g id="patch_97">
    <path d="M 188.721893 307.584 
L 189.710187 307.584 
L 189.710187 304.926383 
L 188.721893 304.926383 
z
" clip-path="url(#pb08663d916)" style="fill: #1f77b4"/>
   </g>
   <g id="patch_98">
    <path d="M 213.42924 307.584 
L 214.417534 307.584 
L 214.417534 305.892789 
L 213.42924 305.892789 
z
" clip-path="url(#pb08663d916)" style="fill: #1f77b4"/>
   </g>
   <g id="patch_99">
    <path d="M 197.369465 307.584 
L 198.357758 307.584 
L 198.357758 305.409586 
L 197.369465 305.409586 
z
" clip-path="url(#pb08663d916)" style="fill: #1f77b4"/>
   </g>
   <g id="patch_100">
    <path d="M 180.074321 307.584 
L 181.062615 307.584 
L 181.062615 302.027165 
L 180.074321 302.027165 
z
" clip-path="url(#pb08663d916)" style="fill: #1f77b4"/>
   </g>
   <g id="patch_101">
    <path d="M 194.89873 307.584 
L 195.887024 307.584 
L 195.887024 303.959977 
L 194.89873 303.959977 
z
" clip-path="url(#pb08663d916)" style="fill: #1f77b4"/>
   </g>
   <g id="patch_102">
    <path d="M 196.134097 307.584 
L 197.122391 307.584 
L 197.122391 303.476774 
L 196.134097 303.476774 
z
" clip-path="url(#pb08663d916)" style="fill: #1f77b4"/>
   </g>
   <g id="patch_103">
    <path d="M 189.95726 307.584 
L 190.945554 307.584 
L 190.945554 304.684782 
L 189.95726 304.684782 
z
" clip-path="url(#pb08663d916)" style="fill: #1f77b4"/>
   </g>
   <g id="patch_104">
    <path d="M 229.489016 307.584 
L 230.47731 307.584 
L 230.47731 306.617594 
L 229.489016 306.617594 
z
" clip-path="url(#pb08663d916)" style="fill: #1f77b4"/>
   </g>
   <g id="patch_105">
    <path d="M 215.899975 307.584 
L 216.888269 307.584 
L 216.888269 306.134391 
L 215.899975 306.134391 
z
" clip-path="url(#pb08663d916)" style="fill: #1f77b4"/>
   </g>
   <g id="patch_106">
    <path d="M 228.253649 307.584 
L 229.241943 307.584 
L 229.241943 306.859195 
L 228.253649 306.859195 
z
" clip-path="url(#pb08663d916)" style="fill: #1f77b4"/>
   </g>
   <g id="patch_107">
    <path d="M 185.015791 307.584 
L 186.004085 307.584 
L 186.004085 302.510368 
L 185.015791 302.510368 
z
" clip-path="url(#pb08663d916)" style="fill: #1f77b4"/>
   </g>
   <g id="patch_108">
    <path d="M 186.251158 307.584 
L 187.239452 307.584 
L 187.239452 302.027165 
L 186.251158 302.027165 
z
" clip-path="url(#pb08663d916)" style="fill: #1f77b4"/>
   </g>
   <g id="patch_109">
    <path d="M 198.604832 307.584 
L 199.593126 307.584 
L 199.593126 305.167985 
L 198.604832 305.167985 
z
" clip-path="url(#pb08663d916)" style="fill: #1f77b4"/>
   </g>
   <g id="patch_110">
    <path d="M 241.84269 307.584 
L 242.830984 307.584 
L 242.830984 306.134391 
L 241.84269 306.134391 
z
" clip-path="url(#pb08663d916)" style="fill: #1f77b4"/>
   </g>
   <g id="patch_111">
    <path d="M 254.196364 307.584 
L 255.184658 307.584 
L 255.184658 307.100797 
L 254.196364 307.100797 
z
" clip-path="url(#pb08663d916)" style="fill: #1f77b4"/>
   </g>
   <g id="patch_112">
    <path d="M 217.135342 307.584 
L 218.123636 307.584 
L 218.123636 305.651188 
L 217.135342 305.651188 
z
" clip-path="url(#pb08663d916)" style="fill: #1f77b4"/>
   </g>
   <g id="patch_113">
    <path d="M 264.079303 307.584 
L 265.067597 307.584 
L 265.067597 306.859195 
L 264.079303 306.859195 
z
" clip-path="url(#pb08663d916)" style="fill: #1f77b4"/>
   </g>
   <g id="patch_114">
    <path d="M 193.663362 307.584 
L 194.651656 307.584 
L 194.651656 304.201579 
L 193.663362 304.201579 
z
" clip-path="url(#pb08663d916)" style="fill: #1f77b4"/>
   </g>
   <g id="patch_115">
    <path d="M 207.252403 307.584 
L 208.240697 307.584 
L 208.240697 306.134391 
L 207.252403 306.134391 
z
" clip-path="url(#pb08663d916)" style="fill: #1f77b4"/>
   </g>
   <g id="patch_116">
    <path d="M 206.017036 307.584 
L 207.00533 307.584 
L 207.00533 304.684782 
L 206.017036 304.684782 
z
" clip-path="url(#pb08663d916)" style="fill: #1f77b4"/>
   </g>
   <g id="patch_117">
    <path d="M 225.782914 307.584 
L 226.771208 307.584 
L 226.771208 306.617594 
L 225.782914 306.617594 
z
" clip-path="url(#pb08663d916)" style="fill: #1f77b4"/>
   </g>
   <g id="patch_118">
    <path d="M 212.193873 307.584 
L 213.182167 307.584 
L 213.182167 305.651188 
L 212.193873 305.651188 
z
" clip-path="url(#pb08663d916)" style="fill: #1f77b4"/>
   </g>
   <g id="patch_119">
    <path d="M 218.37071 307.584 
L 219.359004 307.584 
L 219.359004 306.375992 
L 218.37071 306.375992 
z
" clip-path="url(#pb08663d916)" style="fill: #1f77b4"/>
   </g>
   <g id="patch_120">
    <path d="M 208.487771 307.584 
L 209.476065 307.584 
L 209.476065 305.167985 
L 208.487771 305.167985 
z
" clip-path="url(#pb08663d916)" style="fill: #1f77b4"/>
   </g>
   <g id="patch_121">
    <path d="M 219.606077 307.584 
L 220.594371 307.584 
L 220.594371 305.651188 
L 219.606077 305.651188 
z
" clip-path="url(#pb08663d916)" style="fill: #1f77b4"/>
   </g>
   <g id="patch_122">
    <path d="M 204.781669 307.584 
L 205.769963 307.584 
L 205.769963 305.409586 
L 204.781669 305.409586 
z
" clip-path="url(#pb08663d916)" style="fill: #1f77b4"/>
   </g>
   <g id="patch_123">
    <path d="M 220.841445 307.584 
L 221.829738 307.584 
L 221.829738 305.651188 
L 220.841445 305.651188 
z
" clip-path="url(#pb08663d916)" style="fill: #1f77b4"/>
   </g>
   <g id="patch_124">
    <path d="M 199.840199 307.584 
L 200.828493 307.584 
L 200.828493 303.476774 
L 199.840199 303.476774 
z
" clip-path="url(#pb08663d916)" style="fill: #1f77b4"/>
   </g>
   <g id="patch_125">
    <path d="M 224.547547 307.584 
L 225.535841 307.584 
L 225.535841 306.617594 
L 224.547547 306.617594 
z
" clip-path="url(#pb08663d916)" style="fill: #1f77b4"/>
   </g>
   <g id="patch_126">
    <path d="M 244.313425 307.584 
L 245.301719 307.584 
L 245.301719 306.375992 
L 244.313425 306.375992 
z
" clip-path="url(#pb08663d916)" style="fill: #1f77b4"/>
   </g>
   <g id="patch_127">
    <path d="M 290.022017 307.584 
L 291.010311 307.584 
L 291.010311 307.342398 
L 290.022017 307.342398 
z
" clip-path="url(#pb08663d916)" style="fill: #1f77b4"/>
   </g>
   <g id="patch_128">
    <path d="M 203.546301 307.584 
L 204.534595 307.584 
L 204.534595 305.167985 
L 203.546301 305.167985 
z
" clip-path="url(#pb08663d916)" style="fill: #1f77b4"/>
   </g>
   <g id="patch_129">
    <path d="M 245.548792 307.584 
L 246.537086 307.584 
L 246.537086 307.100797 
L 245.548792 307.100797 
z
" clip-path="url(#pb08663d916)" style="fill: #1f77b4"/>
   </g>
   <g id="patch_130">
    <path d="M 251.725629 307.584 
L 252.713923 307.584 
L 252.713923 307.342398 
L 251.725629 307.342398 
z
" clip-path="url(#pb08663d916)" style="fill: #1f77b4"/>
   </g>
   <g id="patch_131">
    <path d="M 238.136588 307.584 
L 239.124882 307.584 
L 239.124882 306.859195 
L 238.136588 306.859195 
z
" clip-path="url(#pb08663d916)" style="fill: #1f77b4"/>
   </g>
   <g id="patch_132">
    <path d="M 214.664608 307.584 
L 215.652902 307.584 
L 215.652902 305.409586 
L 214.664608 305.409586 
z
" clip-path="url(#pb08663d916)" style="fill: #1f77b4"/>
   </g>
   <g id="patch_133">
    <path d="M 262.843935 307.584 
L 263.832229 307.584 
L 263.832229 306.859195 
L 262.843935 306.859195 
z
" clip-path="url(#pb08663d916)" style="fill: #1f77b4"/>
   </g>
   <g id="patch_134">
    <path d="M 261.608568 307.584 
L 262.596862 307.584 
L 262.596862 307.100797 
L 261.608568 307.100797 
z
" clip-path="url(#pb08663d916)" style="fill: #1f77b4"/>
   </g>
   <g id="patch_135">
    <path d="M 259.137833 307.584 
L 260.126127 307.584 
L 260.126127 306.859195 
L 259.137833 306.859195 
z
" clip-path="url(#pb08663d916)" style="fill: #1f77b4"/>
   </g>
   <g id="patch_136">
    <path d="M 201.075567 307.584 
L 202.063861 307.584 
L 202.063861 304.926383 
L 201.075567 304.926383 
z
" clip-path="url(#pb08663d916)" style="fill: #1f77b4"/>
   </g>
   <g id="patch_137">
    <path d="M 230.724384 307.584 
L 231.712677 307.584 
L 231.712677 306.134391 
L 230.724384 306.134391 
z
" clip-path="url(#pb08663d916)" style="fill: #1f77b4"/>
   </g>
   <g id="patch_138">
    <path d="M 236.90122 307.584 
L 237.889514 307.584 
L 237.889514 306.617594 
L 236.90122 306.617594 
z
" clip-path="url(#pb08663d916)" style="fill: #1f77b4"/>
   </g>
   <g id="patch_139">
    <path d="M 235.665853 307.584 
L 236.654147 307.584 
L 236.654147 307.342398 
L 235.665853 307.342398 
z
" clip-path="url(#pb08663d916)" style="fill: #1f77b4"/>
   </g>
   <g id="patch_140">
    <path d="M 234.430486 307.584 
L 235.41878 307.584 
L 235.41878 306.859195 
L 234.430486 306.859195 
z
" clip-path="url(#pb08663d916)" style="fill: #1f77b4"/>
   </g>
   <g id="patch_141">
    <path d="M 246.784159 307.584 
L 247.772453 307.584 
L 247.772453 306.617594 
L 246.784159 306.617594 
z
" clip-path="url(#pb08663d916)" style="fill: #1f77b4"/>
   </g>
   <g id="patch_142">
    <path d="M 286.315915 307.584 
L 287.304209 307.584 
L 287.304209 307.342398 
L 286.315915 307.342398 
z
" clip-path="url(#pb08663d916)" style="fill: #1f77b4"/>
   </g>
   <g id="patch_143">
    <path d="M 277.668344 307.584 
L 278.656638 307.584 
L 278.656638 307.342398 
L 277.668344 307.342398 
z
" clip-path="url(#pb08663d916)" style="fill: #1f77b4"/>
   </g>
   <g id="patch_144">
    <path d="M 265.31467 307.584 
L 266.302964 307.584 
L 266.302964 306.617594 
L 265.31467 306.617594 
z
" clip-path="url(#pb08663d916)" style="fill: #1f77b4"/>
   </g>
   <g id="patch_145">
    <path d="M 223.312179 307.584 
L 224.300473 307.584 
L 224.300473 306.617594 
L 223.312179 306.617594 
z
" clip-path="url(#pb08663d916)" style="fill: #1f77b4"/>
   </g>
   <g id="patch_146">
    <path d="M 271.491507 307.584 
L 272.479801 307.584 
L 272.479801 306.859195 
L 271.491507 306.859195 
z
" clip-path="url(#pb08663d916)" style="fill: #1f77b4"/>
   </g>
   <g id="patch_147">
    <path d="M 298.669589 307.584 
L 299.657883 307.584 
L 299.657883 307.342398 
L 298.669589 307.342398 
z
" clip-path="url(#pb08663d916)" style="fill: #1f77b4"/>
   </g>
   <g id="patch_148">
    <path d="M 255.431731 307.584 
L 256.420025 307.584 
L 256.420025 307.100797 
L 255.431731 307.100797 
z
" clip-path="url(#pb08663d916)" style="fill: #1f77b4"/>
   </g>
   <g id="patch_149">
    <path d="M 285.080548 307.584 
L 286.068842 307.584 
L 286.068842 307.342398 
L 285.080548 307.342398 
z
" clip-path="url(#pb08663d916)" style="fill: #1f77b4"/>
   </g>
   <g id="patch_150">
    <path d="M 248.019527 307.584 
L 249.007821 307.584 
L 249.007821 307.342398 
L 248.019527 307.342398 
z
" clip-path="url(#pb08663d916)" style="fill: #1f77b4"/>
   </g>
   <g id="patch_151">
    <path d="M 222.076812 307.584 
L 223.065106 307.584 
L 223.065106 306.617594 
L 222.076812 306.617594 
z
" clip-path="url(#pb08663d916)" style="fill: #1f77b4"/>
   </g>
   <g id="patch_152">
    <path d="M 332.024508 307.584 
L 333.012802 307.584 
L 333.012802 307.342398 
L 332.024508 307.342398 
z
" clip-path="url(#pb08663d916)" style="fill: #1f77b4"/>
   </g>
   <g id="patch_153">
    <path d="M 257.902466 307.584 
L 258.89076 307.584 
L 258.89076 307.342398 
L 257.902466 307.342398 
z
" clip-path="url(#pb08663d916)" style="fill: #1f77b4"/>
   </g>
   <g id="patch_154">
    <path d="M 209.723138 307.584 
L 210.711432 307.584 
L 210.711432 306.859195 
L 209.723138 306.859195 
z
" clip-path="url(#pb08663d916)" style="fill: #1f77b4"/>
   </g>
   <g id="patch_155">
    <path d="M 275.197609 307.584 
L 276.185903 307.584 
L 276.185903 307.100797 
L 275.197609 307.100797 
z
" clip-path="url(#pb08663d916)" style="fill: #1f77b4"/>
   </g>
   <g id="patch_156">
    <path d="M 322.141569 307.584 
L 323.129863 307.584 
L 323.129863 307.342398 
L 322.141569 307.342398 
z
" clip-path="url(#pb08663d916)" style="fill: #1f77b4"/>
   </g>
   <g id="patch_157">
    <path d="M 281.374446 307.584 
L 282.36274 307.584 
L 282.36274 307.342398 
L 281.374446 307.342398 
z
" clip-path="url(#pb08663d916)" style="fill: #1f77b4"/>
   </g>
   <g id="patch_158">
    <path d="M 266.550037 307.584 
L 267.538331 307.584 
L 267.538331 307.342398 
L 266.550037 307.342398 
z
" clip-path="url(#pb08663d916)" style="fill: #1f77b4"/>
   </g>
   <g id="patch_159">
    <path d="M 243.078057 307.584 
L 244.066351 307.584 
L 244.066351 307.100797 
L 243.078057 307.100797 
z
" clip-path="url(#pb08663d916)" style="fill: #1f77b4"/>
   </g>
   <g id="patch_160">
    <path d="M 239.371955 307.584 
L 240.360249 307.584 
L 240.360249 306.859195 
L 239.371955 306.859195 
z
" clip-path="url(#pb08663d916)" style="fill: #1f77b4"/>
   </g>
   <g id="patch_161">
    <path d="M 231.959751 307.584 
L 232.948045 307.584 
L 232.948045 307.342398 
L 231.959751 307.342398 
z
" clip-path="url(#pb08663d916)" style="fill: #1f77b4"/>
   </g>
   <g id="patch_162">
    <path d="M 233.195118 307.584 
L 234.183412 307.584 
L 234.183412 306.859195 
L 233.195118 306.859195 
z
" clip-path="url(#pb08663d916)" style="fill: #1f77b4"/>
   </g>
   <g id="patch_163">
    <path d="M 397.498979 307.584 
L 398.487273 307.584 
L 398.487273 307.342398 
L 397.498979 307.342398 
z
" clip-path="url(#pb08663d916)" style="fill: #1f77b4"/>
   </g>
   <g id="patch_164">
    <path d="M 260.3732 307.584 
L 261.361494 307.584 
L 261.361494 307.342398 
L 260.3732 307.342398 
z
" clip-path="url(#pb08663d916)" style="fill: #1f77b4"/>
   </g>
   <g id="patch_165">
    <path d="M 267.785405 307.584 
L 268.773699 307.584 
L 268.773699 307.342398 
L 267.785405 307.342398 
z
" clip-path="url(#pb08663d916)" style="fill: #1f77b4"/>
   </g>
   <g id="patch_166">
    <path d="M 250.490262 307.584 
L 251.478555 307.584 
L 251.478555 307.342398 
L 250.490262 307.342398 
z
" clip-path="url(#pb08663d916)" style="fill: #1f77b4"/>
   </g>
   <g id="patch_167">
    <path d="M 307.317161 307.584 
L 308.305455 307.584 
L 308.305455 307.342398 
L 307.317161 307.342398 
z
" clip-path="url(#pb08663d916)" style="fill: #1f77b4"/>
   </g>
   <g id="patch_168">
    <path d="M 252.960996 307.584 
L 253.94929 307.584 
L 253.94929 307.342398 
L 252.960996 307.342398 
z
" clip-path="url(#pb08663d916)" style="fill: #1f77b4"/>
   </g>
   <g id="patch_169">
    <path d="M 269.020772 307.584 
L 270.009066 307.584 
L 270.009066 307.342398 
L 269.020772 307.342398 
z
" clip-path="url(#pb08663d916)" style="fill: #1f77b4"/>
   </g>
   <g id="patch_170">
    <path d="M 319.670834 307.584 
L 320.659128 307.584 
L 320.659128 307.342398 
L 319.670834 307.342398 
z
" clip-path="url(#pb08663d916)" style="fill: #1f77b4"/>
   </g>
   <g id="patch_171">
    <path d="M 292.492752 307.584 
L 293.481046 307.584 
L 293.481046 307.342398 
L 292.492752 307.342398 
z
" clip-path="url(#pb08663d916)" style="fill: #1f77b4"/>
   </g>
   <g id="matplotlib.axis_1">
    <g id="xtick_1">
     <g id="line2d_1">
      <defs>
       <path id="m64384392ca" d="M 0 0 
L 0 3.5 
" style="stroke: #000000; stroke-width: 0.8"/>
      </defs>
      <g>
       <use xlink:href="#m64384392ca" x="74.326874" y="307.584" style="stroke: #000000; stroke-width: 0.8"/>
      </g>
     </g>
     <g id="text_1">
      <!-- 0 -->
      <g transform="translate(71.145624 322.182437) scale(0.1 -0.1)">
       <defs>
        <path id="DejaVuSans-30" d="M 2034 4250 
Q 1547 4250 1301 3770 
Q 1056 3291 1056 2328 
Q 1056 1369 1301 889 
Q 1547 409 2034 409 
Q 2525 409 2770 889 
Q 3016 1369 3016 2328 
Q 3016 3291 2770 3770 
Q 2525 4250 2034 4250 
z
M 2034 4750 
Q 2819 4750 3233 4129 
Q 3647 3509 3647 2328 
Q 3647 1150 3233 529 
Q 2819 -91 2034 -91 
Q 1250 -91 836 529 
Q 422 1150 422 2328 
Q 422 3509 836 4129 
Q 1250 4750 2034 4750 
z
" transform="scale(0.015625)"/>
       </defs>
       <use xlink:href="#DejaVuSans-30"/>
      </g>
     </g>
    </g>
    <g id="xtick_2">
     <g id="line2d_2">
      <g>
       <use xlink:href="#m64384392ca" x="136.095243" y="307.584" style="stroke: #000000; stroke-width: 0.8"/>
      </g>
     </g>
     <g id="text_2">
      <!-- 50 -->
      <g transform="translate(129.732743 322.182437) scale(0.1 -0.1)">
       <defs>
        <path id="DejaVuSans-35" d="M 691 4666 
L 3169 4666 
L 3169 4134 
L 1269 4134 
L 1269 2991 
Q 1406 3038 1543 3061 
Q 1681 3084 1819 3084 
Q 2600 3084 3056 2656 
Q 3513 2228 3513 1497 
Q 3513 744 3044 326 
Q 2575 -91 1722 -91 
Q 1428 -91 1123 -41 
Q 819 9 494 109 
L 494 744 
Q 775 591 1075 516 
Q 1375 441 1709 441 
Q 2250 441 2565 725 
Q 2881 1009 2881 1497 
Q 2881 1984 2565 2268 
Q 2250 2553 1709 2553 
Q 1456 2553 1204 2497 
Q 953 2441 691 2322 
L 691 4666 
z
" transform="scale(0.015625)"/>
       </defs>
       <use xlink:href="#DejaVuSans-35"/>
       <use xlink:href="#DejaVuSans-30" x="63.623047"/>
      </g>
     </g>
    </g>
    <g id="xtick_3">
     <g id="line2d_3">
      <g>
       <use xlink:href="#m64384392ca" x="197.863611" y="307.584" style="stroke: #000000; stroke-width: 0.8"/>
      </g>
     </g>
     <g id="text_3">
      <!-- 100 -->
      <g transform="translate(188.319861 322.182437) scale(0.1 -0.1)">
       <defs>
        <path id="DejaVuSans-31" d="M 794 531 
L 1825 531 
L 1825 4091 
L 703 3866 
L 703 4441 
L 1819 4666 
L 2450 4666 
L 2450 531 
L 3481 531 
L 3481 0 
L 794 0 
L 794 531 
z
" transform="scale(0.015625)"/>
       </defs>
       <use xlink:href="#DejaVuSans-31"/>
       <use xlink:href="#DejaVuSans-30" x="63.623047"/>
       <use xlink:href="#DejaVuSans-30" x="127.246094"/>
      </g>
     </g>
    </g>
    <g id="xtick_4">
     <g id="line2d_4">
      <g>
       <use xlink:href="#m64384392ca" x="259.63198" y="307.584" style="stroke: #000000; stroke-width: 0.8"/>
      </g>
     </g>
     <g id="text_4">
      <!-- 150 -->
      <g transform="translate(250.08823 322.182437) scale(0.1 -0.1)">
       <use xlink:href="#DejaVuSans-31"/>
       <use xlink:href="#DejaVuSans-35" x="63.623047"/>
       <use xlink:href="#DejaVuSans-30" x="127.246094"/>
      </g>
     </g>
    </g>
    <g id="xtick_5">
     <g id="line2d_5">
      <g>
       <use xlink:href="#m64384392ca" x="321.400349" y="307.584" style="stroke: #000000; stroke-width: 0.8"/>
      </g>
     </g>
     <g id="text_5">
      <!-- 200 -->
      <g transform="translate(311.856599 322.182437) scale(0.1 -0.1)">
       <defs>
        <path id="DejaVuSans-32" d="M 1228 531 
L 3431 531 
L 3431 0 
L 469 0 
L 469 531 
Q 828 903 1448 1529 
Q 2069 2156 2228 2338 
Q 2531 2678 2651 2914 
Q 2772 3150 2772 3378 
Q 2772 3750 2511 3984 
Q 2250 4219 1831 4219 
Q 1534 4219 1204 4116 
Q 875 4013 500 3803 
L 500 4441 
Q 881 4594 1212 4672 
Q 1544 4750 1819 4750 
Q 2544 4750 2975 4387 
Q 3406 4025 3406 3419 
Q 3406 3131 3298 2873 
Q 3191 2616 2906 2266 
Q 2828 2175 2409 1742 
Q 1991 1309 1228 531 
z
" transform="scale(0.015625)"/>
       </defs>
       <use xlink:href="#DejaVuSans-32"/>
       <use xlink:href="#DejaVuSans-30" x="63.623047"/>
       <use xlink:href="#DejaVuSans-30" x="127.246094"/>
      </g>
     </g>
    </g>
    <g id="xtick_6">
     <g id="line2d_6">
      <g>
       <use xlink:href="#m64384392ca" x="383.168717" y="307.584" style="stroke: #000000; stroke-width: 0.8"/>
      </g>
     </g>
     <g id="text_6">
      <!-- 250 -->
      <g transform="translate(373.624967 322.182437) scale(0.1 -0.1)">
       <use xlink:href="#DejaVuSans-32"/>
       <use xlink:href="#DejaVuSans-35" x="63.623047"/>
       <use xlink:href="#DejaVuSans-30" x="127.246094"/>
      </g>
     </g>
    </g>
    <g id="text_7">
     <!-- Depth of Element -->
     <g transform="translate(192.231875 335.860562) scale(0.1 -0.1)">
      <defs>
       <path id="DejaVuSans-44" d="M 1259 4147 
L 1259 519 
L 2022 519 
Q 2988 519 3436 956 
Q 3884 1394 3884 2338 
Q 3884 3275 3436 3711 
Q 2988 4147 2022 4147 
L 1259 4147 
z
M 628 4666 
L 1925 4666 
Q 3281 4666 3915 4102 
Q 4550 3538 4550 2338 
Q 4550 1131 3912 565 
Q 3275 0 1925 0 
L 628 0 
L 628 4666 
z
" transform="scale(0.015625)"/>
       <path id="DejaVuSans-65" d="M 3597 1894 
L 3597 1613 
L 953 1613 
Q 991 1019 1311 708 
Q 1631 397 2203 397 
Q 2534 397 2845 478 
Q 3156 559 3463 722 
L 3463 178 
Q 3153 47 2828 -22 
Q 2503 -91 2169 -91 
Q 1331 -91 842 396 
Q 353 884 353 1716 
Q 353 2575 817 3079 
Q 1281 3584 2069 3584 
Q 2775 3584 3186 3129 
Q 3597 2675 3597 1894 
z
M 3022 2063 
Q 3016 2534 2758 2815 
Q 2500 3097 2075 3097 
Q 1594 3097 1305 2825 
Q 1016 2553 972 2059 
L 3022 2063 
z
" transform="scale(0.015625)"/>
       <path id="DejaVuSans-70" d="M 1159 525 
L 1159 -1331 
L 581 -1331 
L 581 3500 
L 1159 3500 
L 1159 2969 
Q 1341 3281 1617 3432 
Q 1894 3584 2278 3584 
Q 2916 3584 3314 3078 
Q 3713 2572 3713 1747 
Q 3713 922 3314 415 
Q 2916 -91 2278 -91 
Q 1894 -91 1617 61 
Q 1341 213 1159 525 
z
M 3116 1747 
Q 3116 2381 2855 2742 
Q 2594 3103 2138 3103 
Q 1681 3103 1420 2742 
Q 1159 2381 1159 1747 
Q 1159 1113 1420 752 
Q 1681 391 2138 391 
Q 2594 391 2855 752 
Q 3116 1113 3116 1747 
z
" transform="scale(0.015625)"/>
       <path id="DejaVuSans-74" d="M 1172 4494 
L 1172 3500 
L 2356 3500 
L 2356 3053 
L 1172 3053 
L 1172 1153 
Q 1172 725 1289 603 
Q 1406 481 1766 481 
L 2356 481 
L 2356 0 
L 1766 0 
Q 1100 0 847 248 
Q 594 497 594 1153 
L 594 3053 
L 172 3053 
L 172 3500 
L 594 3500 
L 594 4494 
L 1172 4494 
z
" transform="scale(0.015625)"/>
       <path id="DejaVuSans-68" d="M 3513 2113 
L 3513 0 
L 2938 0 
L 2938 2094 
Q 2938 2591 2744 2837 
Q 2550 3084 2163 3084 
Q 1697 3084 1428 2787 
Q 1159 2491 1159 1978 
L 1159 0 
L 581 0 
L 581 4863 
L 1159 4863 
L 1159 2956 
Q 1366 3272 1645 3428 
Q 1925 3584 2291 3584 
Q 2894 3584 3203 3211 
Q 3513 2838 3513 2113 
z
" transform="scale(0.015625)"/>
       <path id="DejaVuSans-20" transform="scale(0.015625)"/>
       <path id="DejaVuSans-6f" d="M 1959 3097 
Q 1497 3097 1228 2736 
Q 959 2375 959 1747 
Q 959 1119 1226 758 
Q 1494 397 1959 397 
Q 2419 397 2687 759 
Q 2956 1122 2956 1747 
Q 2956 2369 2687 2733 
Q 2419 3097 1959 3097 
z
M 1959 3584 
Q 2709 3584 3137 3096 
Q 3566 2609 3566 1747 
Q 3566 888 3137 398 
Q 2709 -91 1959 -91 
Q 1206 -91 779 398 
Q 353 888 353 1747 
Q 353 2609 779 3096 
Q 1206 3584 1959 3584 
z
" transform="scale(0.015625)"/>
       <path id="DejaVuSans-66" d="M 2375 4863 
L 2375 4384 
L 1825 4384 
Q 1516 4384 1395 4259 
Q 1275 4134 1275 3809 
L 1275 3500 
L 2222 3500 
L 2222 3053 
L 1275 3053 
L 1275 0 
L 697 0 
L 697 3053 
L 147 3053 
L 147 3500 
L 697 3500 
L 697 3744 
Q 697 4328 969 4595 
Q 1241 4863 1831 4863 
L 2375 4863 
z
" transform="scale(0.015625)"/>
       <path id="DejaVuSans-45" d="M 628 4666 
L 3578 4666 
L 3578 4134 
L 1259 4134 
L 1259 2753 
L 3481 2753 
L 3481 2222 
L 1259 2222 
L 1259 531 
L 3634 531 
L 3634 0 
L 628 0 
L 628 4666 
z
" transform="scale(0.015625)"/>
       <path id="DejaVuSans-6c" d="M 603 4863 
L 1178 4863 
L 1178 0 
L 603 0 
L 603 4863 
z
" transform="scale(0.015625)"/>
       <path id="DejaVuSans-6d" d="M 3328 2828 
Q 3544 3216 3844 3400 
Q 4144 3584 4550 3584 
Q 5097 3584 5394 3201 
Q 5691 2819 5691 2113 
L 5691 0 
L 5113 0 
L 5113 2094 
Q 5113 2597 4934 2840 
Q 4756 3084 4391 3084 
Q 3944 3084 3684 2787 
Q 3425 2491 3425 1978 
L 3425 0 
L 2847 0 
L 2847 2094 
Q 2847 2600 2669 2842 
Q 2491 3084 2119 3084 
Q 1678 3084 1418 2786 
Q 1159 2488 1159 1978 
L 1159 0 
L 581 0 
L 581 3500 
L 1159 3500 
L 1159 2956 
Q 1356 3278 1631 3431 
Q 1906 3584 2284 3584 
Q 2666 3584 2933 3390 
Q 3200 3197 3328 2828 
z
" transform="scale(0.015625)"/>
       <path id="DejaVuSans-6e" d="M 3513 2113 
L 3513 0 
L 2938 0 
L 2938 2094 
Q 2938 2591 2744 2837 
Q 2550 3084 2163 3084 
Q 1697 3084 1428 2787 
Q 1159 2491 1159 1978 
L 1159 0 
L 581 0 
L 581 3500 
L 1159 3500 
L 1159 2956 
Q 1366 3272 1645 3428 
Q 1925 3584 2291 3584 
Q 2894 3584 3203 3211 
Q 3513 2838 3513 2113 
z
" transform="scale(0.015625)"/>
      </defs>
      <use xlink:href="#DejaVuSans-44"/>
      <use xlink:href="#DejaVuSans-65" x="77.001953"/>
      <use xlink:href="#DejaVuSans-70" x="138.525391"/>
      <use xlink:href="#DejaVuSans-74" x="202.001953"/>
      <use xlink:href="#DejaVuSans-68" x="241.210938"/>
      <use xlink:href="#DejaVuSans-20" x="304.589844"/>
      <use xlink:href="#DejaVuSans-6f" x="336.376953"/>
      <use xlink:href="#DejaVuSans-66" x="397.558594"/>
      <use xlink:href="#DejaVuSans-20" x="432.763672"/>
      <use xlink:href="#DejaVuSans-45" x="464.550781"/>
      <use xlink:href="#DejaVuSans-6c" x="527.734375"/>
      <use xlink:href="#DejaVuSans-65" x="555.517578"/>
      <use xlink:href="#DejaVuSans-6d" x="617.041016"/>
      <use xlink:href="#DejaVuSans-65" x="714.453125"/>
      <use xlink:href="#DejaVuSans-6e" x="775.976562"/>
      <use xlink:href="#DejaVuSans-74" x="839.355469"/>
     </g>
    </g>
   </g>
   <g id="matplotlib.axis_2">
    <g id="ytick_1">
     <g id="line2d_7">
      <defs>
       <path id="m6a0ad507da" d="M 0 0 
L -3.5 0 
" style="stroke: #000000; stroke-width: 0.8"/>
      </defs>
      <g>
       <use xlink:href="#m6a0ad507da" x="57.6" y="307.584" style="stroke: #000000; stroke-width: 0.8"/>
      </g>
     </g>
     <g id="text_8">
      <!-- 0 -->
      <g transform="translate(44.2375 311.383219) scale(0.1 -0.1)">
       <use xlink:href="#DejaVuSans-30"/>
      </g>
     </g>
    </g>
    <g id="ytick_2">
     <g id="line2d_8">
      <g>
       <use xlink:href="#m6a0ad507da" x="57.6" y="259.263695" style="stroke: #000000; stroke-width: 0.8"/>
      </g>
     </g>
     <g id="text_9">
      <!-- 200 -->
      <g transform="translate(31.5125 263.062914) scale(0.1 -0.1)">
       <use xlink:href="#DejaVuSans-32"/>
       <use xlink:href="#DejaVuSans-30" x="63.623047"/>
       <use xlink:href="#DejaVuSans-30" x="127.246094"/>
      </g>
     </g>
    </g>
    <g id="ytick_3">
     <g id="line2d_9">
      <g>
       <use xlink:href="#m6a0ad507da" x="57.6" y="210.94339" style="stroke: #000000; stroke-width: 0.8"/>
      </g>
     </g>
     <g id="text_10">
      <!-- 400 -->
      <g transform="translate(31.5125 214.742609) scale(0.1 -0.1)">
       <defs>
        <path id="DejaVuSans-34" d="M 2419 4116 
L 825 1625 
L 2419 1625 
L 2419 4116 
z
M 2253 4666 
L 3047 4666 
L 3047 1625 
L 3713 1625 
L 3713 1100 
L 3047 1100 
L 3047 0 
L 2419 0 
L 2419 1100 
L 313 1100 
L 313 1709 
L 2253 4666 
z
" transform="scale(0.015625)"/>
       </defs>
       <use xlink:href="#DejaVuSans-34"/>
       <use xlink:href="#DejaVuSans-30" x="63.623047"/>
       <use xlink:href="#DejaVuSans-30" x="127.246094"/>
      </g>
     </g>
    </g>
    <g id="ytick_4">
     <g id="line2d_10">
      <g>
       <use xlink:href="#m6a0ad507da" x="57.6" y="162.623085" style="stroke: #000000; stroke-width: 0.8"/>
      </g>
     </g>
     <g id="text_11">
      <!-- 600 -->
      <g transform="translate(31.5125 166.422304) scale(0.1 -0.1)">
       <defs>
        <path id="DejaVuSans-36" d="M 2113 2584 
Q 1688 2584 1439 2293 
Q 1191 2003 1191 1497 
Q 1191 994 1439 701 
Q 1688 409 2113 409 
Q 2538 409 2786 701 
Q 3034 994 3034 1497 
Q 3034 2003 2786 2293 
Q 2538 2584 2113 2584 
z
M 3366 4563 
L 3366 3988 
Q 3128 4100 2886 4159 
Q 2644 4219 2406 4219 
Q 1781 4219 1451 3797 
Q 1122 3375 1075 2522 
Q 1259 2794 1537 2939 
Q 1816 3084 2150 3084 
Q 2853 3084 3261 2657 
Q 3669 2231 3669 1497 
Q 3669 778 3244 343 
Q 2819 -91 2113 -91 
Q 1303 -91 875 529 
Q 447 1150 447 2328 
Q 447 3434 972 4092 
Q 1497 4750 2381 4750 
Q 2619 4750 2861 4703 
Q 3103 4656 3366 4563 
z
" transform="scale(0.015625)"/>
       </defs>
       <use xlink:href="#DejaVuSans-36"/>
       <use xlink:href="#DejaVuSans-30" x="63.623047"/>
       <use xlink:href="#DejaVuSans-30" x="127.246094"/>
      </g>
     </g>
    </g>
    <g id="ytick_5">
     <g id="line2d_11">
      <g>
       <use xlink:href="#m6a0ad507da" x="57.6" y="114.30278" style="stroke: #000000; stroke-width: 0.8"/>
      </g>
     </g>
     <g id="text_12">
      <!-- 800 -->
      <g transform="translate(31.5125 118.101999) scale(0.1 -0.1)">
       <defs>
        <path id="DejaVuSans-38" d="M 2034 2216 
Q 1584 2216 1326 1975 
Q 1069 1734 1069 1313 
Q 1069 891 1326 650 
Q 1584 409 2034 409 
Q 2484 409 2743 651 
Q 3003 894 3003 1313 
Q 3003 1734 2745 1975 
Q 2488 2216 2034 2216 
z
M 1403 2484 
Q 997 2584 770 2862 
Q 544 3141 544 3541 
Q 544 4100 942 4425 
Q 1341 4750 2034 4750 
Q 2731 4750 3128 4425 
Q 3525 4100 3525 3541 
Q 3525 3141 3298 2862 
Q 3072 2584 2669 2484 
Q 3125 2378 3379 2068 
Q 3634 1759 3634 1313 
Q 3634 634 3220 271 
Q 2806 -91 2034 -91 
Q 1263 -91 848 271 
Q 434 634 434 1313 
Q 434 1759 690 2068 
Q 947 2378 1403 2484 
z
M 1172 3481 
Q 1172 3119 1398 2916 
Q 1625 2713 2034 2713 
Q 2441 2713 2670 2916 
Q 2900 3119 2900 3481 
Q 2900 3844 2670 4047 
Q 2441 4250 2034 4250 
Q 1625 4250 1398 4047 
Q 1172 3844 1172 3481 
z
" transform="scale(0.015625)"/>
       </defs>
       <use xlink:href="#DejaVuSans-38"/>
       <use xlink:href="#DejaVuSans-30" x="63.623047"/>
       <use xlink:href="#DejaVuSans-30" x="127.246094"/>
      </g>
     </g>
    </g>
    <g id="ytick_6">
     <g id="line2d_12">
      <g>
       <use xlink:href="#m6a0ad507da" x="57.6" y="65.982475" style="stroke: #000000; stroke-width: 0.8"/>
      </g>
     </g>
     <g id="text_13">
      <!-- 1000 -->
      <g transform="translate(25.15 69.781693) scale(0.1 -0.1)">
       <use xlink:href="#DejaVuSans-31"/>
       <use xlink:href="#DejaVuSans-30" x="63.623047"/>
       <use xlink:href="#DejaVuSans-30" x="127.246094"/>
       <use xlink:href="#DejaVuSans-30" x="190.869141"/>
      </g>
     </g>
    </g>
    <g id="text_14">
     <!-- Number of Elements -->
     <g transform="translate(19.070312 225.917062) rotate(-90) scale(0.1 -0.1)">
      <defs>
       <path id="DejaVuSans-4e" d="M 628 4666 
L 1478 4666 
L 3547 763 
L 3547 4666 
L 4159 4666 
L 4159 0 
L 3309 0 
L 1241 3903 
L 1241 0 
L 628 0 
L 628 4666 
z
" transform="scale(0.015625)"/>
       <path id="DejaVuSans-75" d="M 544 1381 
L 544 3500 
L 1119 3500 
L 1119 1403 
Q 1119 906 1312 657 
Q 1506 409 1894 409 
Q 2359 409 2629 706 
Q 2900 1003 2900 1516 
L 2900 3500 
L 3475 3500 
L 3475 0 
L 2900 0 
L 2900 538 
Q 2691 219 2414 64 
Q 2138 -91 1772 -91 
Q 1169 -91 856 284 
Q 544 659 544 1381 
z
M 1991 3584 
L 1991 3584 
z
" transform="scale(0.015625)"/>
       <path id="DejaVuSans-62" d="M 3116 1747 
Q 3116 2381 2855 2742 
Q 2594 3103 2138 3103 
Q 1681 3103 1420 2742 
Q 1159 2381 1159 1747 
Q 1159 1113 1420 752 
Q 1681 391 2138 391 
Q 2594 391 2855 752 
Q 3116 1113 3116 1747 
z
M 1159 2969 
Q 1341 3281 1617 3432 
Q 1894 3584 2278 3584 
Q 2916 3584 3314 3078 
Q 3713 2572 3713 1747 
Q 3713 922 3314 415 
Q 2916 -91 2278 -91 
Q 1894 -91 1617 61 
Q 1341 213 1159 525 
L 1159 0 
L 581 0 
L 581 4863 
L 1159 4863 
L 1159 2969 
z
" transform="scale(0.015625)"/>
       <path id="DejaVuSans-72" d="M 2631 2963 
Q 2534 3019 2420 3045 
Q 2306 3072 2169 3072 
Q 1681 3072 1420 2755 
Q 1159 2438 1159 1844 
L 1159 0 
L 581 0 
L 581 3500 
L 1159 3500 
L 1159 2956 
Q 1341 3275 1631 3429 
Q 1922 3584 2338 3584 
Q 2397 3584 2469 3576 
Q 2541 3569 2628 3553 
L 2631 2963 
z
" transform="scale(0.015625)"/>
       <path id="DejaVuSans-73" d="M 2834 3397 
L 2834 2853 
Q 2591 2978 2328 3040 
Q 2066 3103 1784 3103 
Q 1356 3103 1142 2972 
Q 928 2841 928 2578 
Q 928 2378 1081 2264 
Q 1234 2150 1697 2047 
L 1894 2003 
Q 2506 1872 2764 1633 
Q 3022 1394 3022 966 
Q 3022 478 2636 193 
Q 2250 -91 1575 -91 
Q 1294 -91 989 -36 
Q 684 19 347 128 
L 347 722 
Q 666 556 975 473 
Q 1284 391 1588 391 
Q 1994 391 2212 530 
Q 2431 669 2431 922 
Q 2431 1156 2273 1281 
Q 2116 1406 1581 1522 
L 1381 1569 
Q 847 1681 609 1914 
Q 372 2147 372 2553 
Q 372 3047 722 3315 
Q 1072 3584 1716 3584 
Q 2034 3584 2315 3537 
Q 2597 3491 2834 3397 
z
" transform="scale(0.015625)"/>
      </defs>
      <use xlink:href="#DejaVuSans-4e"/>
      <use xlink:href="#DejaVuSans-75" x="74.804688"/>
      <use xlink:href="#DejaVuSans-6d" x="138.183594"/>
      <use xlink:href="#DejaVuSans-62" x="235.595703"/>
      <use xlink:href="#DejaVuSans-65" x="299.072266"/>
      <use xlink:href="#DejaVuSans-72" x="360.595703"/>
      <use xlink:href="#DejaVuSans-20" x="401.708984"/>
      <use xlink:href="#DejaVuSans-6f" x="433.496094"/>
      <use xlink:href="#DejaVuSans-66" x="494.677734"/>
      <use xlink:href="#DejaVuSans-20" x="529.882812"/>
      <use xlink:href="#DejaVuSans-45" x="561.669922"/>
      <use xlink:href="#DejaVuSans-6c" x="624.853516"/>
      <use xlink:href="#DejaVuSans-65" x="652.636719"/>
      <use xlink:href="#DejaVuSans-6d" x="714.160156"/>
      <use xlink:href="#DejaVuSans-65" x="811.572266"/>
      <use xlink:href="#DejaVuSans-6e" x="873.095703"/>
      <use xlink:href="#DejaVuSans-74" x="936.474609"/>
      <use xlink:href="#DejaVuSans-73" x="975.683594"/>
     </g>
    </g>
   </g>
   <g id="patch_172">
    <path d="M 57.6 307.584 
L 57.6 41.472 
" style="fill: none; stroke: #000000; stroke-width: 0.8; stroke-linejoin: miter; stroke-linecap: square"/>
   </g>
   <g id="patch_173">
    <path d="M 414.72 307.584 
L 414.72 41.472 
" style="fill: none; stroke: #000000; stroke-width: 0.8; stroke-linejoin: miter; stroke-linecap: square"/>
   </g>
   <g id="patch_174">
    <path d="M 57.6 307.584 
L 414.72 307.584 
" style="fill: none; stroke: #000000; stroke-width: 0.8; stroke-linejoin: miter; stroke-linecap: square"/>
   </g>
   <g id="patch_175">
    <path d="M 57.6 41.472 
L 414.72 41.472 
" style="fill: none; stroke: #000000; stroke-width: 0.8; stroke-linejoin: miter; stroke-linecap: square"/>
   </g>
  </g>
 </g>
 <defs>
  <clipPath id="pb08663d916">
   <rect x="57.6" y="41.472" width="357.12" height="266.112"/>
  </clipPath>
 </defs>
</svg>
