<?xml version="1.0" encoding="utf-8" standalone="no"?>
<!DOCTYPE svg PUBLIC "-//W3C//DTD SVG 1.1//EN"
  "http://www.w3.org/Graphics/SVG/1.1/DTD/svg11.dtd">
<svg xmlns:xlink="http://www.w3.org/1999/xlink" width="460.8pt" height="345.6pt" viewBox="0 0 460.8 345.6" xmlns="http://www.w3.org/2000/svg" version="1.1">
 <metadata>
  <rdf:RDF xmlns:dc="http://purl.org/dc/elements/1.1/" xmlns:cc="http://creativecommons.org/ns#" xmlns:rdf="http://www.w3.org/1999/02/22-rdf-syntax-ns#">
   <cc:Work>
    <dc:type rdf:resource="http://purl.org/dc/dcmitype/StillImage"/>
    <dc:date>2024-02-19T21:16:55.445416</dc:date>
    <dc:format>image/svg+xml</dc:format>
    <dc:creator>
     <cc:Agent>
      <dc:title>Matplotlib v3.8.3, https://matplotlib.org/</dc:title>
     </cc:Agent>
    </dc:creator>
   </cc:Work>
  </rdf:RDF>
 </metadata>
 <defs>
  <style type="text/css">*{stroke-linejoin: round; stroke-linecap: butt}</style>
 </defs>
 <g id="figure_1">
  <g id="patch_1">
   <path d="M 0 345.6 
L 460.8 345.6 
L 460.8 0 
L 0 0 
z
" style="fill: #ffffff"/>
  </g>
  <g id="axes_1">
   <g id="patch_2">
    <path d="M 57.6 307.584 
L 414.72 307.584 
L 414.72 41.472 
L 57.6 41.472 
z
" style="fill: #ffffff"/>
   </g>
   <g id="patch_3">
    <path d="M 73.832727 307.584 
L 74.8286 307.584 
L 74.8286 306.46506 
L 73.832727 306.46506 
z
" clip-path="url(#pc5016cb746)" style="fill: #1f77b4"/>
   </g>
   <g id="patch_4">
    <path d="M 75.077568 307.584 
L 76.073441 307.584 
L 76.073441 305.066384 
L 75.077568 305.066384 
z
" clip-path="url(#pc5016cb746)" style="fill: #1f77b4"/>
   </g>
   <g id="patch_5">
    <path d="M 77.56725 307.584 
L 78.563123 307.584 
L 78.563123 298.073007 
L 77.56725 298.073007 
z
" clip-path="url(#pc5016cb746)" style="fill: #1f77b4"/>
   </g>
   <g id="patch_6">
    <path d="M 80.056933 307.584 
L 81.052805 307.584 
L 81.052805 269.260291 
L 80.056933 269.260291 
z
" clip-path="url(#pc5016cb746)" style="fill: #1f77b4"/>
   </g>
   <g id="patch_7">
    <path d="M 83.791456 307.584 
L 84.787328 307.584 
L 84.787328 173.590887 
L 83.791456 173.590887 
z
" clip-path="url(#pc5016cb746)" style="fill: #1f77b4"/>
   </g>
   <g id="patch_8">
    <path d="M 76.322409 307.584 
L 77.318282 307.584 
L 77.318282 303.387974 
L 76.322409 303.387974 
z
" clip-path="url(#pc5016cb746)" style="fill: #1f77b4"/>
   </g>
   <g id="patch_9">
    <path d="M 78.812091 307.584 
L 79.807964 307.584 
L 79.807964 284.925457 
L 78.812091 284.925457 
z
" clip-path="url(#pc5016cb746)" style="fill: #1f77b4"/>
   </g>
   <g id="patch_10">
    <path d="M 81.301774 307.584 
L 82.297646 307.584 
L 82.297646 239.608371 
L 81.301774 239.608371 
z
" clip-path="url(#pc5016cb746)" style="fill: #1f77b4"/>
   </g>
   <g id="patch_11">
    <path d="M 82.546615 307.584 
L 83.542487 307.584 
L 83.542487 197.368371 
L 82.546615 197.368371 
z
" clip-path="url(#pc5016cb746)" style="fill: #1f77b4"/>
   </g>
   <g id="patch_12">
    <path d="M 86.281138 307.584 
L 87.277011 307.584 
L 87.277011 99.181351 
L 86.281138 99.181351 
z
" clip-path="url(#pc5016cb746)" style="fill: #1f77b4"/>
   </g>
   <g id="patch_13">
    <path d="M 85.036297 307.584 
L 86.03217 307.584 
L 86.03217 141.421351 
L 85.036297 141.421351 
z
" clip-path="url(#pc5016cb746)" style="fill: #1f77b4"/>
   </g>
   <g id="patch_14">
    <path d="M 90.015661 307.584 
L 91.011534 307.584 
L 91.011534 80.439099 
L 90.015661 80.439099 
z
" clip-path="url(#pc5016cb746)" style="fill: #1f77b4"/>
   </g>
   <g id="patch_15">
    <path d="M 88.77082 307.584 
L 89.766693 307.584 
L 89.766693 54.144 
L 88.77082 54.144 
z
" clip-path="url(#pc5016cb746)" style="fill: #1f77b4"/>
   </g>
   <g id="patch_16">
    <path d="M 87.525979 307.584 
L 88.521852 307.584 
L 88.521852 72.886252 
L 87.525979 72.886252 
z
" clip-path="url(#pc5016cb746)" style="fill: #1f77b4"/>
   </g>
   <g id="patch_17">
    <path d="M 91.260502 307.584 
L 92.256375 307.584 
L 92.256375 138.344265 
L 91.260502 138.344265 
z
" clip-path="url(#pc5016cb746)" style="fill: #1f77b4"/>
   </g>
   <g id="patch_18">
    <path d="M 92.505343 307.584 
L 93.501216 307.584 
L 93.501216 200.445457 
L 92.505343 200.445457 
z
" clip-path="url(#pc5016cb746)" style="fill: #1f77b4"/>
   </g>
   <g id="patch_19">
    <path d="M 98.729548 307.584 
L 99.725421 307.584 
L 99.725421 272.617113 
L 98.729548 272.617113 
z
" clip-path="url(#pc5016cb746)" style="fill: #1f77b4"/>
   </g>
   <g id="patch_20">
    <path d="M 99.974389 307.584 
L 100.970262 307.584 
L 100.970262 282.128106 
L 99.974389 282.128106 
z
" clip-path="url(#pc5016cb746)" style="fill: #1f77b4"/>
   </g>
   <g id="patch_21">
    <path d="M 93.750184 307.584 
L 94.746057 307.584 
L 94.746057 239.888106 
L 93.750184 239.888106 
z
" clip-path="url(#pc5016cb746)" style="fill: #1f77b4"/>
   </g>
   <g id="patch_22">
    <path d="M 94.995025 307.584 
L 95.990898 307.584 
L 95.990898 259.469563 
L 94.995025 259.469563 
z
" clip-path="url(#pc5016cb746)" style="fill: #1f77b4"/>
   </g>
   <g id="patch_23">
    <path d="M 101.21923 307.584 
L 102.215103 307.584 
L 102.215103 281.288901 
L 101.21923 281.288901 
z
" clip-path="url(#pc5016cb746)" style="fill: #1f77b4"/>
   </g>
   <g id="patch_24">
    <path d="M 106.198595 307.584 
L 107.194467 307.584 
L 107.194467 286.883603 
L 106.198595 286.883603 
z
" clip-path="url(#pc5016cb746)" style="fill: #1f77b4"/>
   </g>
   <g id="patch_25">
    <path d="M 102.464071 307.584 
L 103.459944 307.584 
L 103.459944 280.72943 
L 102.464071 280.72943 
z
" clip-path="url(#pc5016cb746)" style="fill: #1f77b4"/>
   </g>
   <g id="patch_26">
    <path d="M 96.239866 307.584 
L 97.235739 307.584 
L 97.235739 271.498172 
L 96.239866 271.498172 
z
" clip-path="url(#pc5016cb746)" style="fill: #1f77b4"/>
   </g>
   <g id="patch_27">
    <path d="M 104.953753 307.584 
L 105.949626 307.584 
L 105.949626 284.086252 
L 104.953753 284.086252 
z
" clip-path="url(#pc5016cb746)" style="fill: #1f77b4"/>
   </g>
   <g id="patch_28">
    <path d="M 111.177959 307.584 
L 112.173832 307.584 
L 112.173832 288.562013 
L 111.177959 288.562013 
z
" clip-path="url(#pc5016cb746)" style="fill: #1f77b4"/>
   </g>
   <g id="patch_29">
    <path d="M 97.484707 307.584 
L 98.48058 307.584 
L 98.48058 272.617113 
L 97.484707 272.617113 
z
" clip-path="url(#pc5016cb746)" style="fill: #1f77b4"/>
   </g>
   <g id="patch_30">
    <path d="M 108.688277 307.584 
L 109.684149 307.584 
L 109.684149 284.365987 
L 108.688277 284.365987 
z
" clip-path="url(#pc5016cb746)" style="fill: #1f77b4"/>
   </g>
   <g id="patch_31">
    <path d="M 113.667641 307.584 
L 114.663514 307.584 
L 114.663514 288.282278 
L 113.667641 288.282278 
z
" clip-path="url(#pc5016cb746)" style="fill: #1f77b4"/>
   </g>
   <g id="patch_32">
    <path d="M 107.443436 307.584 
L 108.439308 307.584 
L 108.439308 283.806517 
L 107.443436 283.806517 
z
" clip-path="url(#pc5016cb746)" style="fill: #1f77b4"/>
   </g>
   <g id="patch_33">
    <path d="M 117.402164 307.584 
L 118.398037 307.584 
L 118.398037 288.282278 
L 117.402164 288.282278 
z
" clip-path="url(#pc5016cb746)" style="fill: #1f77b4"/>
   </g>
   <g id="patch_34">
    <path d="M 103.708912 307.584 
L 104.704785 307.584 
L 104.704785 282.128106 
L 103.708912 282.128106 
z
" clip-path="url(#pc5016cb746)" style="fill: #1f77b4"/>
   </g>
   <g id="patch_35">
    <path d="M 112.4228 307.584 
L 113.418673 307.584 
L 113.418673 284.645722 
L 112.4228 284.645722 
z
" clip-path="url(#pc5016cb746)" style="fill: #1f77b4"/>
   </g>
   <g id="patch_36">
    <path d="M 119.891846 307.584 
L 120.887719 307.584 
L 120.887719 288.002543 
L 119.891846 288.002543 
z
" clip-path="url(#pc5016cb746)" style="fill: #1f77b4"/>
   </g>
   <g id="patch_37">
    <path d="M 121.136687 307.584 
L 122.13256 307.584 
L 122.13256 293.037775 
L 121.136687 293.037775 
z
" clip-path="url(#pc5016cb746)" style="fill: #1f77b4"/>
   </g>
   <g id="patch_38">
    <path d="M 109.933118 307.584 
L 110.928991 307.584 
L 110.928991 284.365987 
L 109.933118 284.365987 
z
" clip-path="url(#pc5016cb746)" style="fill: #1f77b4"/>
   </g>
   <g id="patch_39">
    <path d="M 128.605733 307.584 
L 129.601606 307.584 
L 129.601606 291.079629 
L 128.605733 291.079629 
z
" clip-path="url(#pc5016cb746)" style="fill: #1f77b4"/>
   </g>
   <g id="patch_40">
    <path d="M 114.912482 307.584 
L 115.908355 307.584 
L 115.908355 287.443073 
L 114.912482 287.443073 
z
" clip-path="url(#pc5016cb746)" style="fill: #1f77b4"/>
   </g>
   <g id="patch_41">
    <path d="M 127.360892 307.584 
L 128.356765 307.584 
L 128.356765 291.639099 
L 127.360892 291.639099 
z
" clip-path="url(#pc5016cb746)" style="fill: #1f77b4"/>
   </g>
   <g id="patch_42">
    <path d="M 118.647005 307.584 
L 119.642878 307.584 
L 119.642878 285.205192 
L 118.647005 285.205192 
z
" clip-path="url(#pc5016cb746)" style="fill: #1f77b4"/>
   </g>
   <g id="patch_43">
    <path d="M 116.157323 307.584 
L 117.153196 307.584 
L 117.153196 290.240424 
L 116.157323 290.240424 
z
" clip-path="url(#pc5016cb746)" style="fill: #1f77b4"/>
   </g>
   <g id="patch_44">
    <path d="M 124.87121 307.584 
L 125.867083 307.584 
L 125.867083 291.359364 
L 124.87121 291.359364 
z
" clip-path="url(#pc5016cb746)" style="fill: #1f77b4"/>
   </g>
   <g id="patch_45">
    <path d="M 134.829939 307.584 
L 135.825811 307.584 
L 135.825811 293.87698 
L 134.829939 293.87698 
z
" clip-path="url(#pc5016cb746)" style="fill: #1f77b4"/>
   </g>
   <g id="patch_46">
    <path d="M 138.564462 307.584 
L 139.560335 307.584 
L 139.560335 295.835126 
L 138.564462 295.835126 
z
" clip-path="url(#pc5016cb746)" style="fill: #1f77b4"/>
   </g>
   <g id="patch_47">
    <path d="M 123.626369 307.584 
L 124.622242 307.584 
L 124.622242 291.359364 
L 123.626369 291.359364 
z
" clip-path="url(#pc5016cb746)" style="fill: #1f77b4"/>
   </g>
   <g id="patch_48">
    <path d="M 132.340257 307.584 
L 133.336129 307.584 
L 133.336129 292.19857 
L 132.340257 292.19857 
z
" clip-path="url(#pc5016cb746)" style="fill: #1f77b4"/>
   </g>
   <g id="patch_49">
    <path d="M 142.298985 307.584 
L 143.294858 307.584 
L 143.294858 295.555391 
L 142.298985 295.555391 
z
" clip-path="url(#pc5016cb746)" style="fill: #1f77b4"/>
   </g>
   <g id="patch_50">
    <path d="M 126.116051 307.584 
L 127.111924 307.584 
L 127.111924 287.722808 
L 126.116051 287.722808 
z
" clip-path="url(#pc5016cb746)" style="fill: #1f77b4"/>
   </g>
   <g id="patch_51">
    <path d="M 131.095416 307.584 
L 132.091288 307.584 
L 132.091288 288.841748 
L 131.095416 288.841748 
z
" clip-path="url(#pc5016cb746)" style="fill: #1f77b4"/>
   </g>
   <g id="patch_52">
    <path d="M 133.585098 307.584 
L 134.58097 307.584 
L 134.58097 295.275656 
L 133.585098 295.275656 
z
" clip-path="url(#pc5016cb746)" style="fill: #1f77b4"/>
   </g>
   <g id="patch_53">
    <path d="M 144.788667 307.584 
L 145.78454 307.584 
L 145.78454 296.114861 
L 144.788667 296.114861 
z
" clip-path="url(#pc5016cb746)" style="fill: #1f77b4"/>
   </g>
   <g id="patch_54">
    <path d="M 143.543826 307.584 
L 144.539699 307.584 
L 144.539699 298.073007 
L 143.543826 298.073007 
z
" clip-path="url(#pc5016cb746)" style="fill: #1f77b4"/>
   </g>
   <g id="patch_55">
    <path d="M 147.278349 307.584 
L 148.274222 307.584 
L 148.274222 295.835126 
L 147.278349 295.835126 
z
" clip-path="url(#pc5016cb746)" style="fill: #1f77b4"/>
   </g>
   <g id="patch_56">
    <path d="M 151.012872 307.584 
L 152.008745 307.584 
L 152.008745 296.954066 
L 151.012872 296.954066 
z
" clip-path="url(#pc5016cb746)" style="fill: #1f77b4"/>
   </g>
   <g id="patch_57">
    <path d="M 158.481919 307.584 
L 159.477791 307.584 
L 159.477791 298.073007 
L 158.481919 298.073007 
z
" clip-path="url(#pc5016cb746)" style="fill: #1f77b4"/>
   </g>
   <g id="patch_58">
    <path d="M 146.033508 307.584 
L 147.029381 307.584 
L 147.029381 295.835126 
L 146.033508 295.835126 
z
" clip-path="url(#pc5016cb746)" style="fill: #1f77b4"/>
   </g>
   <g id="patch_59">
    <path d="M 153.502554 307.584 
L 154.498427 307.584 
L 154.498427 301.150093 
L 153.502554 301.150093 
z
" clip-path="url(#pc5016cb746)" style="fill: #1f77b4"/>
   </g>
   <g id="patch_60">
    <path d="M 129.850574 307.584 
L 130.846447 307.584 
L 130.846447 293.87698 
L 129.850574 293.87698 
z
" clip-path="url(#pc5016cb746)" style="fill: #1f77b4"/>
   </g>
   <g id="patch_61">
    <path d="M 175.909693 307.584 
L 176.905566 307.584 
L 176.905566 300.031152 
L 175.909693 300.031152 
z
" clip-path="url(#pc5016cb746)" style="fill: #1f77b4"/>
   </g>
   <g id="patch_62">
    <path d="M 137.319621 307.584 
L 138.315494 307.584 
L 138.315494 293.597245 
L 137.319621 293.597245 
z
" clip-path="url(#pc5016cb746)" style="fill: #1f77b4"/>
   </g>
   <g id="patch_63">
    <path d="M 157.237078 307.584 
L 158.23295 307.584 
L 158.23295 296.114861 
L 157.237078 296.114861 
z
" clip-path="url(#pc5016cb746)" style="fill: #1f77b4"/>
   </g>
   <g id="patch_64">
    <path d="M 165.950965 307.584 
L 166.946838 307.584 
L 166.946838 298.632477 
L 165.950965 298.632477 
z
" clip-path="url(#pc5016cb746)" style="fill: #1f77b4"/>
   </g>
   <g id="patch_65">
    <path d="M 136.07478 307.584 
L 137.070653 307.584 
L 137.070653 294.716185 
L 136.07478 294.716185 
z
" clip-path="url(#pc5016cb746)" style="fill: #1f77b4"/>
   </g>
   <g id="patch_66">
    <path d="M 163.461283 307.584 
L 164.457156 307.584 
L 164.457156 300.870358 
L 163.461283 300.870358 
z
" clip-path="url(#pc5016cb746)" style="fill: #1f77b4"/>
   </g>
   <g id="patch_67">
    <path d="M 122.381528 307.584 
L 123.377401 307.584 
L 123.377401 292.75804 
L 122.381528 292.75804 
z
" clip-path="url(#pc5016cb746)" style="fill: #1f77b4"/>
   </g>
   <g id="patch_68">
    <path d="M 139.809303 307.584 
L 140.805176 307.584 
L 140.805176 295.835126 
L 139.809303 295.835126 
z
" clip-path="url(#pc5016cb746)" style="fill: #1f77b4"/>
   </g>
   <g id="patch_69">
    <path d="M 159.72676 307.584 
L 160.722632 307.584 
L 160.722632 300.870358 
L 159.72676 300.870358 
z
" clip-path="url(#pc5016cb746)" style="fill: #1f77b4"/>
   </g>
   <g id="patch_70">
    <path d="M 160.971601 307.584 
L 161.967474 307.584 
L 161.967474 299.191947 
L 160.971601 299.191947 
z
" clip-path="url(#pc5016cb746)" style="fill: #1f77b4"/>
   </g>
   <g id="patch_71">
    <path d="M 152.257713 307.584 
L 153.253586 307.584 
L 153.253586 298.912212 
L 152.257713 298.912212 
z
" clip-path="url(#pc5016cb746)" style="fill: #1f77b4"/>
   </g>
   <g id="patch_72">
    <path d="M 182.133898 307.584 
L 183.129771 307.584 
L 183.129771 301.709563 
L 182.133898 301.709563 
z
" clip-path="url(#pc5016cb746)" style="fill: #1f77b4"/>
   </g>
   <g id="patch_73">
    <path d="M 183.37874 307.584 
L 184.374612 307.584 
L 184.374612 303.387974 
L 183.37874 303.387974 
z
" clip-path="url(#pc5016cb746)" style="fill: #1f77b4"/>
   </g>
   <g id="patch_74">
    <path d="M 148.52319 307.584 
L 149.519063 307.584 
L 149.519063 300.870358 
L 148.52319 300.870358 
z
" clip-path="url(#pc5016cb746)" style="fill: #1f77b4"/>
   </g>
   <g id="patch_75">
    <path d="M 154.747395 307.584 
L 155.743268 307.584 
L 155.743268 295.835126 
L 154.747395 295.835126 
z
" clip-path="url(#pc5016cb746)" style="fill: #1f77b4"/>
   </g>
   <g id="patch_76">
    <path d="M 141.054144 307.584 
L 142.050017 307.584 
L 142.050017 295.275656 
L 141.054144 295.275656 
z
" clip-path="url(#pc5016cb746)" style="fill: #1f77b4"/>
   </g>
   <g id="patch_77">
    <path d="M 164.706124 307.584 
L 165.701997 307.584 
L 165.701997 300.590623 
L 164.706124 300.590623 
z
" clip-path="url(#pc5016cb746)" style="fill: #1f77b4"/>
   </g>
   <g id="patch_78">
    <path d="M 179.644216 307.584 
L 180.640089 307.584 
L 180.640089 302.269033 
L 179.644216 302.269033 
z
" clip-path="url(#pc5016cb746)" style="fill: #1f77b4"/>
   </g>
   <g id="patch_79">
    <path d="M 174.664852 307.584 
L 175.660725 307.584 
L 175.660725 300.310887 
L 174.664852 300.310887 
z
" clip-path="url(#pc5016cb746)" style="fill: #1f77b4"/>
   </g>
   <g id="patch_80">
    <path d="M 170.930329 307.584 
L 171.926202 307.584 
L 171.926202 301.989298 
L 170.930329 301.989298 
z
" clip-path="url(#pc5016cb746)" style="fill: #1f77b4"/>
   </g>
   <g id="patch_81">
    <path d="M 215.744607 307.584 
L 216.74048 307.584 
L 216.74048 305.346119 
L 215.744607 305.346119 
z
" clip-path="url(#pc5016cb746)" style="fill: #1f77b4"/>
   </g>
   <g id="patch_82">
    <path d="M 168.440647 307.584 
L 169.43652 307.584 
L 169.43652 300.590623 
L 168.440647 300.590623 
z
" clip-path="url(#pc5016cb746)" style="fill: #1f77b4"/>
   </g>
   <g id="patch_83">
    <path d="M 149.768031 307.584 
L 150.763904 307.584 
L 150.763904 297.233801 
L 149.768031 297.233801 
z
" clip-path="url(#pc5016cb746)" style="fill: #1f77b4"/>
   </g>
   <g id="patch_84">
    <path d="M 155.992236 307.584 
L 156.988109 307.584 
L 156.988109 299.471682 
L 155.992236 299.471682 
z
" clip-path="url(#pc5016cb746)" style="fill: #1f77b4"/>
   </g>
   <g id="patch_85">
    <path d="M 199.561673 307.584 
L 200.557546 307.584 
L 200.557546 303.387974 
L 199.561673 303.387974 
z
" clip-path="url(#pc5016cb746)" style="fill: #1f77b4"/>
   </g>
   <g id="patch_86">
    <path d="M 190.847786 307.584 
L 191.843659 307.584 
L 191.843659 304.227179 
L 190.847786 304.227179 
z
" clip-path="url(#pc5016cb746)" style="fill: #1f77b4"/>
   </g>
   <g id="patch_87">
    <path d="M 162.216442 307.584 
L 163.212315 307.584 
L 163.212315 298.073007 
L 162.216442 298.073007 
z
" clip-path="url(#pc5016cb746)" style="fill: #1f77b4"/>
   </g>
   <g id="patch_88">
    <path d="M 180.889057 307.584 
L 181.88493 307.584 
L 181.88493 302.828503 
L 180.889057 302.828503 
z
" clip-path="url(#pc5016cb746)" style="fill: #1f77b4"/>
   </g>
   <g id="patch_89">
    <path d="M 172.17517 307.584 
L 173.171043 307.584 
L 173.171043 301.989298 
L 172.17517 301.989298 
z
" clip-path="url(#pc5016cb746)" style="fill: #1f77b4"/>
   </g>
   <g id="patch_90">
    <path d="M 188.358104 307.584 
L 189.353977 307.584 
L 189.353977 301.429828 
L 188.358104 301.429828 
z
" clip-path="url(#pc5016cb746)" style="fill: #1f77b4"/>
   </g>
   <g id="patch_91">
    <path d="M 169.685488 307.584 
L 170.681361 307.584 
L 170.681361 297.513536 
L 169.685488 297.513536 
z
" clip-path="url(#pc5016cb746)" style="fill: #1f77b4"/>
   </g>
   <g id="patch_92">
    <path d="M 193.337468 307.584 
L 194.333341 307.584 
L 194.333341 304.227179 
L 193.337468 304.227179 
z
" clip-path="url(#pc5016cb746)" style="fill: #1f77b4"/>
   </g>
   <g id="patch_93">
    <path d="M 189.602945 307.584 
L 190.598818 307.584 
L 190.598818 302.269033 
L 189.602945 302.269033 
z
" clip-path="url(#pc5016cb746)" style="fill: #1f77b4"/>
   </g>
   <g id="patch_94">
    <path d="M 185.868422 307.584 
L 186.864294 307.584 
L 186.864294 302.269033 
L 185.868422 302.269033 
z
" clip-path="url(#pc5016cb746)" style="fill: #1f77b4"/>
   </g>
   <g id="patch_95">
    <path d="M 177.154534 307.584 
L 178.150407 307.584 
L 178.150407 299.191947 
L 177.154534 299.191947 
z
" clip-path="url(#pc5016cb746)" style="fill: #1f77b4"/>
   </g>
   <g id="patch_96">
    <path d="M 212.010084 307.584 
L 213.005956 307.584 
L 213.005956 305.346119 
L 212.010084 305.346119 
z
" clip-path="url(#pc5016cb746)" style="fill: #1f77b4"/>
   </g>
   <g id="patch_97">
    <path d="M 194.582309 307.584 
L 195.578182 307.584 
L 195.578182 301.989298 
L 194.582309 301.989298 
z
" clip-path="url(#pc5016cb746)" style="fill: #1f77b4"/>
   </g>
   <g id="patch_98">
    <path d="M 195.82715 307.584 
L 196.823023 307.584 
L 196.823023 304.506914 
L 195.82715 304.506914 
z
" clip-path="url(#pc5016cb746)" style="fill: #1f77b4"/>
   </g>
   <g id="patch_99">
    <path d="M 178.399375 307.584 
L 179.395248 307.584 
L 179.395248 302.548768 
L 178.399375 302.548768 
z
" clip-path="url(#pc5016cb746)" style="fill: #1f77b4"/>
   </g>
   <g id="patch_100">
    <path d="M 173.420011 307.584 
L 174.415884 307.584 
L 174.415884 300.870358 
L 173.420011 300.870358 
z
" clip-path="url(#pc5016cb746)" style="fill: #1f77b4"/>
   </g>
   <g id="patch_101">
    <path d="M 203.296196 307.584 
L 204.292069 307.584 
L 204.292069 303.108238 
L 203.296196 303.108238 
z
" clip-path="url(#pc5016cb746)" style="fill: #1f77b4"/>
   </g>
   <g id="patch_102">
    <path d="M 229.437858 307.584 
L 230.433731 307.584 
L 230.433731 306.744795 
L 229.437858 306.744795 
z
" clip-path="url(#pc5016cb746)" style="fill: #1f77b4"/>
   </g>
   <g id="patch_103">
    <path d="M 187.113263 307.584 
L 188.109136 307.584 
L 188.109136 302.828503 
L 187.113263 302.828503 
z
" clip-path="url(#pc5016cb746)" style="fill: #1f77b4"/>
   </g>
   <g id="patch_104">
    <path d="M 221.968812 307.584 
L 222.964685 307.584 
L 222.964685 305.625854 
L 221.968812 305.625854 
z
" clip-path="url(#pc5016cb746)" style="fill: #1f77b4"/>
   </g>
   <g id="patch_105">
    <path d="M 226.948176 307.584 
L 227.944049 307.584 
L 227.944049 305.905589 
L 226.948176 305.905589 
z
" clip-path="url(#pc5016cb746)" style="fill: #1f77b4"/>
   </g>
   <g id="patch_106">
    <path d="M 192.092627 307.584 
L 193.0885 307.584 
L 193.0885 303.947444 
L 192.092627 303.947444 
z
" clip-path="url(#pc5016cb746)" style="fill: #1f77b4"/>
   </g>
   <g id="patch_107">
    <path d="M 167.195806 307.584 
L 168.191679 307.584 
L 168.191679 300.590623 
L 167.195806 300.590623 
z
" clip-path="url(#pc5016cb746)" style="fill: #1f77b4"/>
   </g>
   <g id="patch_108">
    <path d="M 198.316832 307.584 
L 199.312705 307.584 
L 199.312705 305.346119 
L 198.316832 305.346119 
z
" clip-path="url(#pc5016cb746)" style="fill: #1f77b4"/>
   </g>
   <g id="patch_109">
    <path d="M 205.785878 307.584 
L 206.781751 307.584 
L 206.781751 305.066384 
L 205.785878 305.066384 
z
" clip-path="url(#pc5016cb746)" style="fill: #1f77b4"/>
   </g>
   <g id="patch_110">
    <path d="M 184.623581 307.584 
L 185.619453 307.584 
L 185.619453 300.310887 
L 184.623581 300.310887 
z
" clip-path="url(#pc5016cb746)" style="fill: #1f77b4"/>
   </g>
   <g id="patch_111">
    <path d="M 245.620792 307.584 
L 246.616665 307.584 
L 246.616665 306.744795 
L 245.620792 306.744795 
z
" clip-path="url(#pc5016cb746)" style="fill: #1f77b4"/>
   </g>
   <g id="patch_112">
    <path d="M 260.558885 307.584 
L 261.554757 307.584 
L 261.554757 306.46506 
L 260.558885 306.46506 
z
" clip-path="url(#pc5016cb746)" style="fill: #1f77b4"/>
   </g>
   <g id="patch_113">
    <path d="M 216.989448 307.584 
L 217.985321 307.584 
L 217.985321 303.667709 
L 216.989448 303.667709 
z
" clip-path="url(#pc5016cb746)" style="fill: #1f77b4"/>
   </g>
   <g id="patch_114">
    <path d="M 259.314044 307.584 
L 260.309916 307.584 
L 260.309916 307.02453 
L 259.314044 307.02453 
z
" clip-path="url(#pc5016cb746)" style="fill: #1f77b4"/>
   </g>
   <g id="patch_115">
    <path d="M 197.071991 307.584 
L 198.067864 307.584 
L 198.067864 304.506914 
L 197.071991 304.506914 
z
" clip-path="url(#pc5016cb746)" style="fill: #1f77b4"/>
   </g>
   <g id="patch_116">
    <path d="M 207.030719 307.584 
L 208.026592 307.584 
L 208.026592 305.066384 
L 207.030719 305.066384 
z
" clip-path="url(#pc5016cb746)" style="fill: #1f77b4"/>
   </g>
   <g id="patch_117">
    <path d="M 209.520402 307.584 
L 210.516274 307.584 
L 210.516274 304.506914 
L 209.520402 304.506914 
z
" clip-path="url(#pc5016cb746)" style="fill: #1f77b4"/>
   </g>
   <g id="patch_118">
    <path d="M 200.806514 307.584 
L 201.802387 307.584 
L 201.802387 304.227179 
L 200.806514 304.227179 
z
" clip-path="url(#pc5016cb746)" style="fill: #1f77b4"/>
   </g>
   <g id="patch_119">
    <path d="M 204.541037 307.584 
L 205.53691 307.584 
L 205.53691 304.506914 
L 204.541037 304.506914 
z
" clip-path="url(#pc5016cb746)" style="fill: #1f77b4"/>
   </g>
   <g id="patch_120">
    <path d="M 210.765243 307.584 
L 211.761115 307.584 
L 211.761115 305.346119 
L 210.765243 305.346119 
z
" clip-path="url(#pc5016cb746)" style="fill: #1f77b4"/>
   </g>
   <g id="patch_121">
    <path d="M 218.234289 307.584 
L 219.230162 307.584 
L 219.230162 305.066384 
L 218.234289 305.066384 
z
" clip-path="url(#pc5016cb746)" style="fill: #1f77b4"/>
   </g>
   <g id="patch_122">
    <path d="M 214.499766 307.584 
L 215.495639 307.584 
L 215.495639 306.744795 
L 214.499766 306.744795 
z
" clip-path="url(#pc5016cb746)" style="fill: #1f77b4"/>
   </g>
   <g id="patch_123">
    <path d="M 244.375951 307.584 
L 245.371824 307.584 
L 245.371824 306.185325 
L 244.375951 306.185325 
z
" clip-path="url(#pc5016cb746)" style="fill: #1f77b4"/>
   </g>
   <g id="patch_124">
    <path d="M 225.703335 307.584 
L 226.699208 307.584 
L 226.699208 306.46506 
L 225.703335 306.46506 
z
" clip-path="url(#pc5016cb746)" style="fill: #1f77b4"/>
   </g>
   <g id="patch_125">
    <path d="M 239.396587 307.584 
L 240.39246 307.584 
L 240.39246 306.46506 
L 239.396587 306.46506 
z
" clip-path="url(#pc5016cb746)" style="fill: #1f77b4"/>
   </g>
   <g id="patch_126">
    <path d="M 223.213653 307.584 
L 224.209526 307.584 
L 224.209526 305.905589 
L 223.213653 305.905589 
z
" clip-path="url(#pc5016cb746)" style="fill: #1f77b4"/>
   </g>
   <g id="patch_127">
    <path d="M 281.721182 307.584 
L 282.717055 307.584 
L 282.717055 307.304265 
L 281.721182 307.304265 
z
" clip-path="url(#pc5016cb746)" style="fill: #1f77b4"/>
   </g>
   <g id="patch_128">
    <path d="M 246.865633 307.584 
L 247.861506 307.584 
L 247.861506 306.744795 
L 246.865633 306.744795 
z
" clip-path="url(#pc5016cb746)" style="fill: #1f77b4"/>
   </g>
   <g id="patch_129">
    <path d="M 202.051355 307.584 
L 203.047228 307.584 
L 203.047228 303.667709 
L 202.051355 303.667709 
z
" clip-path="url(#pc5016cb746)" style="fill: #1f77b4"/>
   </g>
   <g id="patch_130">
    <path d="M 235.662064 307.584 
L 236.657936 307.584 
L 236.657936 306.46506 
L 235.662064 306.46506 
z
" clip-path="url(#pc5016cb746)" style="fill: #1f77b4"/>
   </g>
   <g id="patch_131">
    <path d="M 240.641428 307.584 
L 241.637301 307.584 
L 241.637301 305.905589 
L 240.641428 305.905589 
z
" clip-path="url(#pc5016cb746)" style="fill: #1f77b4"/>
   </g>
   <g id="patch_132">
    <path d="M 220.723971 307.584 
L 221.719844 307.584 
L 221.719844 306.744795 
L 220.723971 306.744795 
z
" clip-path="url(#pc5016cb746)" style="fill: #1f77b4"/>
   </g>
   <g id="patch_133">
    <path d="M 208.275561 307.584 
L 209.271433 307.584 
L 209.271433 305.346119 
L 208.275561 305.346119 
z
" clip-path="url(#pc5016cb746)" style="fill: #1f77b4"/>
   </g>
   <g id="patch_134">
    <path d="M 253.089838 307.584 
L 254.085711 307.584 
L 254.085711 307.304265 
L 253.089838 307.304265 
z
" clip-path="url(#pc5016cb746)" style="fill: #1f77b4"/>
   </g>
   <g id="patch_135">
    <path d="M 219.47913 307.584 
L 220.475003 307.584 
L 220.475003 305.625854 
L 219.47913 305.625854 
z
" clip-path="url(#pc5016cb746)" style="fill: #1f77b4"/>
   </g>
   <g id="patch_136">
    <path d="M 228.193017 307.584 
L 229.18889 307.584 
L 229.18889 305.625854 
L 228.193017 305.625854 
z
" clip-path="url(#pc5016cb746)" style="fill: #1f77b4"/>
   </g>
   <g id="patch_137">
    <path d="M 263.048567 307.584 
L 264.044439 307.584 
L 264.044439 306.744795 
L 263.048567 306.744795 
z
" clip-path="url(#pc5016cb746)" style="fill: #1f77b4"/>
   </g>
   <g id="patch_138">
    <path d="M 258.069202 307.584 
L 259.065075 307.584 
L 259.065075 307.02453 
L 258.069202 307.02453 
z
" clip-path="url(#pc5016cb746)" style="fill: #1f77b4"/>
   </g>
   <g id="patch_139">
    <path d="M 254.334679 307.584 
L 255.330552 307.584 
L 255.330552 307.304265 
L 254.334679 307.304265 
z
" clip-path="url(#pc5016cb746)" style="fill: #1f77b4"/>
   </g>
   <g id="patch_140">
    <path d="M 234.417223 307.584 
L 235.413095 307.584 
L 235.413095 306.185325 
L 234.417223 306.185325 
z
" clip-path="url(#pc5016cb746)" style="fill: #1f77b4"/>
   </g>
   <g id="patch_141">
    <path d="M 250.600156 307.584 
L 251.596029 307.584 
L 251.596029 307.304265 
L 250.600156 307.304265 
z
" clip-path="url(#pc5016cb746)" style="fill: #1f77b4"/>
   </g>
   <g id="patch_142">
    <path d="M 213.254925 307.584 
L 214.250798 307.584 
L 214.250798 305.346119 
L 213.254925 305.346119 
z
" clip-path="url(#pc5016cb746)" style="fill: #1f77b4"/>
   </g>
   <g id="patch_143">
    <path d="M 241.886269 307.584 
L 242.882142 307.584 
L 242.882142 307.02453 
L 241.886269 307.02453 
z
" clip-path="url(#pc5016cb746)" style="fill: #1f77b4"/>
   </g>
   <g id="patch_144">
    <path d="M 256.824361 307.584 
L 257.820234 307.584 
L 257.820234 307.02453 
L 256.824361 307.02453 
z
" clip-path="url(#pc5016cb746)" style="fill: #1f77b4"/>
   </g>
   <g id="patch_145">
    <path d="M 295.414434 307.584 
L 296.410307 307.584 
L 296.410307 307.304265 
L 295.414434 307.304265 
z
" clip-path="url(#pc5016cb746)" style="fill: #1f77b4"/>
   </g>
   <g id="patch_146">
    <path d="M 279.2315 307.584 
L 280.227373 307.584 
L 280.227373 307.304265 
L 279.2315 307.304265 
z
" clip-path="url(#pc5016cb746)" style="fill: #1f77b4"/>
   </g>
   <g id="patch_147">
    <path d="M 261.803726 307.584 
L 262.799598 307.584 
L 262.799598 307.02453 
L 261.803726 307.02453 
z
" clip-path="url(#pc5016cb746)" style="fill: #1f77b4"/>
   </g>
   <g id="patch_148">
    <path d="M 231.92754 307.584 
L 232.923413 307.584 
L 232.923413 307.304265 
L 231.92754 307.304265 
z
" clip-path="url(#pc5016cb746)" style="fill: #1f77b4"/>
   </g>
   <g id="patch_149">
    <path d="M 274.252136 307.584 
L 275.248009 307.584 
L 275.248009 306.744795 
L 274.252136 306.744795 
z
" clip-path="url(#pc5016cb746)" style="fill: #1f77b4"/>
   </g>
   <g id="patch_150">
    <path d="M 265.538249 307.584 
L 266.534122 307.584 
L 266.534122 306.46506 
L 265.538249 306.46506 
z
" clip-path="url(#pc5016cb746)" style="fill: #1f77b4"/>
   </g>
   <g id="patch_151">
    <path d="M 296.659275 307.584 
L 297.655148 307.584 
L 297.655148 307.304265 
L 296.659275 307.304265 
z
" clip-path="url(#pc5016cb746)" style="fill: #1f77b4"/>
   </g>
   <g id="patch_152">
    <path d="M 230.682699 307.584 
L 231.678572 307.584 
L 231.678572 305.905589 
L 230.682699 305.905589 
z
" clip-path="url(#pc5016cb746)" style="fill: #1f77b4"/>
   </g>
   <g id="patch_153">
    <path d="M 249.355315 307.584 
L 250.351188 307.584 
L 250.351188 306.744795 
L 249.355315 306.744795 
z
" clip-path="url(#pc5016cb746)" style="fill: #1f77b4"/>
   </g>
   <g id="patch_154">
    <path d="M 236.906905 307.584 
L 237.902777 307.584 
L 237.902777 307.304265 
L 236.906905 307.304265 
z
" clip-path="url(#pc5016cb746)" style="fill: #1f77b4"/>
   </g>
   <g id="patch_155">
    <path d="M 248.110474 307.584 
L 249.106347 307.584 
L 249.106347 307.02453 
L 248.110474 307.02453 
z
" clip-path="url(#pc5016cb746)" style="fill: #1f77b4"/>
   </g>
   <g id="patch_156">
    <path d="M 282.966023 307.584 
L 283.961896 307.584 
L 283.961896 307.304265 
L 282.966023 307.304265 
z
" clip-path="url(#pc5016cb746)" style="fill: #1f77b4"/>
   </g>
   <g id="patch_157">
    <path d="M 332.759665 307.584 
L 333.755538 307.584 
L 333.755538 307.304265 
L 332.759665 307.304265 
z
" clip-path="url(#pc5016cb746)" style="fill: #1f77b4"/>
   </g>
   <g id="patch_158">
    <path d="M 224.458494 307.584 
L 225.454367 307.584 
L 225.454367 306.744795 
L 224.458494 306.744795 
z
" clip-path="url(#pc5016cb746)" style="fill: #1f77b4"/>
   </g>
   <g id="patch_159">
    <path d="M 269.272772 307.584 
L 270.268645 307.584 
L 270.268645 307.304265 
L 269.272772 307.304265 
z
" clip-path="url(#pc5016cb746)" style="fill: #1f77b4"/>
   </g>
   <g id="patch_160">
    <path d="M 322.800937 307.584 
L 323.79681 307.584 
L 323.79681 307.304265 
L 322.800937 307.304265 
z
" clip-path="url(#pc5016cb746)" style="fill: #1f77b4"/>
   </g>
   <g id="patch_161">
    <path d="M 285.455706 307.584 
L 286.451578 307.584 
L 286.451578 307.304265 
L 285.455706 307.304265 
z
" clip-path="url(#pc5016cb746)" style="fill: #1f77b4"/>
   </g>
   <g id="patch_162">
    <path d="M 291.679911 307.584 
L 292.675784 307.584 
L 292.675784 307.304265 
L 291.679911 307.304265 
z
" clip-path="url(#pc5016cb746)" style="fill: #1f77b4"/>
   </g>
   <g id="patch_163">
    <path d="M 238.151746 307.584 
L 239.147619 307.584 
L 239.147619 307.02453 
L 238.151746 307.02453 
z
" clip-path="url(#pc5016cb746)" style="fill: #1f77b4"/>
   </g>
   <g id="patch_164">
    <path d="M 264.293408 307.584 
L 265.289281 307.584 
L 265.289281 307.304265 
L 264.293408 307.304265 
z
" clip-path="url(#pc5016cb746)" style="fill: #1f77b4"/>
   </g>
   <g id="patch_165">
    <path d="M 397.4914 307.584 
L 398.487273 307.584 
L 398.487273 307.304265 
L 397.4914 307.304265 
z
" clip-path="url(#pc5016cb746)" style="fill: #1f77b4"/>
   </g>
   <g id="patch_166">
    <path d="M 270.517613 307.584 
L 271.513486 307.584 
L 271.513486 307.304265 
L 270.517613 307.304265 
z
" clip-path="url(#pc5016cb746)" style="fill: #1f77b4"/>
   </g>
   <g id="patch_167">
    <path d="M 276.741818 307.584 
L 277.737691 307.584 
L 277.737691 307.02453 
L 276.741818 307.02453 
z
" clip-path="url(#pc5016cb746)" style="fill: #1f77b4"/>
   </g>
   <g id="patch_168">
    <path d="M 251.844997 307.584 
L 252.84087 307.584 
L 252.84087 307.304265 
L 251.844997 307.304265 
z
" clip-path="url(#pc5016cb746)" style="fill: #1f77b4"/>
   </g>
   <g id="patch_169">
    <path d="M 338.983871 307.584 
L 339.979743 307.584 
L 339.979743 307.304265 
L 338.983871 307.304265 
z
" clip-path="url(#pc5016cb746)" style="fill: #1f77b4"/>
   </g>
   <g id="patch_170">
    <path d="M 268.027931 307.584 
L 269.023804 307.584 
L 269.023804 307.02453 
L 268.027931 307.02453 
z
" clip-path="url(#pc5016cb746)" style="fill: #1f77b4"/>
   </g>
   <g id="patch_171">
    <path d="M 233.172381 307.584 
L 234.168254 307.584 
L 234.168254 307.304265 
L 233.172381 307.304265 
z
" clip-path="url(#pc5016cb746)" style="fill: #1f77b4"/>
   </g>
   <g id="patch_172">
    <path d="M 326.53546 307.584 
L 327.531333 307.584 
L 327.531333 307.304265 
L 326.53546 307.304265 
z
" clip-path="url(#pc5016cb746)" style="fill: #1f77b4"/>
   </g>
   <g id="patch_173">
    <path d="M 243.13111 307.584 
L 244.126983 307.584 
L 244.126983 307.304265 
L 243.13111 307.304265 
z
" clip-path="url(#pc5016cb746)" style="fill: #1f77b4"/>
   </g>
   <g id="patch_174">
    <path d="M 304.128321 307.584 
L 305.124194 307.584 
L 305.124194 307.304265 
L 304.128321 307.304265 
z
" clip-path="url(#pc5016cb746)" style="fill: #1f77b4"/>
   </g>
   <g id="matplotlib.axis_1">
    <g id="xtick_1">
     <g id="line2d_1">
      <defs>
       <path id="m64669cf51a" d="M 0 0 
L 0 3.5 
" style="stroke: #000000; stroke-width: 0.8"/>
      </defs>
      <g>
       <use xlink:href="#m64669cf51a" x="74.330664" y="307.584" style="stroke: #000000; stroke-width: 0.8"/>
      </g>
     </g>
     <g id="text_1">
      <!-- 0 -->
      <g transform="translate(71.149414 322.182437) scale(0.1 -0.1)">
       <defs>
        <path id="DejaVuSans-30" d="M 2034 4250 
Q 1547 4250 1301 3770 
Q 1056 3291 1056 2328 
Q 1056 1369 1301 889 
Q 1547 409 2034 409 
Q 2525 409 2770 889 
Q 3016 1369 3016 2328 
Q 3016 3291 2770 3770 
Q 2525 4250 2034 4250 
z
M 2034 4750 
Q 2819 4750 3233 4129 
Q 3647 3509 3647 2328 
Q 3647 1150 3233 529 
Q 2819 -91 2034 -91 
Q 1250 -91 836 529 
Q 422 1150 422 2328 
Q 422 3509 836 4129 
Q 1250 4750 2034 4750 
z
" transform="scale(0.015625)"/>
       </defs>
       <use xlink:href="#DejaVuSans-30"/>
      </g>
     </g>
    </g>
    <g id="xtick_2">
     <g id="line2d_2">
      <g>
       <use xlink:href="#m64669cf51a" x="136.572716" y="307.584" style="stroke: #000000; stroke-width: 0.8"/>
      </g>
     </g>
     <g id="text_2">
      <!-- 50 -->
      <g transform="translate(130.210216 322.182437) scale(0.1 -0.1)">
       <defs>
        <path id="DejaVuSans-35" d="M 691 4666 
L 3169 4666 
L 3169 4134 
L 1269 4134 
L 1269 2991 
Q 1406 3038 1543 3061 
Q 1681 3084 1819 3084 
Q 2600 3084 3056 2656 
Q 3513 2228 3513 1497 
Q 3513 744 3044 326 
Q 2575 -91 1722 -91 
Q 1428 -91 1123 -41 
Q 819 9 494 109 
L 494 744 
Q 775 591 1075 516 
Q 1375 441 1709 441 
Q 2250 441 2565 725 
Q 2881 1009 2881 1497 
Q 2881 1984 2565 2268 
Q 2250 2553 1709 2553 
Q 1456 2553 1204 2497 
Q 953 2441 691 2322 
L 691 4666 
z
" transform="scale(0.015625)"/>
       </defs>
       <use xlink:href="#DejaVuSans-35"/>
       <use xlink:href="#DejaVuSans-30" x="63.623047"/>
      </g>
     </g>
    </g>
    <g id="xtick_3">
     <g id="line2d_3">
      <g>
       <use xlink:href="#m64669cf51a" x="198.814769" y="307.584" style="stroke: #000000; stroke-width: 0.8"/>
      </g>
     </g>
     <g id="text_3">
      <!-- 100 -->
      <g transform="translate(189.271019 322.182437) scale(0.1 -0.1)">
       <defs>
        <path id="DejaVuSans-31" d="M 794 531 
L 1825 531 
L 1825 4091 
L 703 3866 
L 703 4441 
L 1819 4666 
L 2450 4666 
L 2450 531 
L 3481 531 
L 3481 0 
L 794 0 
L 794 531 
z
" transform="scale(0.015625)"/>
       </defs>
       <use xlink:href="#DejaVuSans-31"/>
       <use xlink:href="#DejaVuSans-30" x="63.623047"/>
       <use xlink:href="#DejaVuSans-30" x="127.246094"/>
      </g>
     </g>
    </g>
    <g id="xtick_4">
     <g id="line2d_4">
      <g>
       <use xlink:href="#m64669cf51a" x="261.056821" y="307.584" style="stroke: #000000; stroke-width: 0.8"/>
      </g>
     </g>
     <g id="text_4">
      <!-- 150 -->
      <g transform="translate(251.513071 322.182437) scale(0.1 -0.1)">
       <use xlink:href="#DejaVuSans-31"/>
       <use xlink:href="#DejaVuSans-35" x="63.623047"/>
       <use xlink:href="#DejaVuSans-30" x="127.246094"/>
      </g>
     </g>
    </g>
    <g id="xtick_5">
     <g id="line2d_5">
      <g>
       <use xlink:href="#m64669cf51a" x="323.298873" y="307.584" style="stroke: #000000; stroke-width: 0.8"/>
      </g>
     </g>
     <g id="text_5">
      <!-- 200 -->
      <g transform="translate(313.755123 322.182437) scale(0.1 -0.1)">
       <defs>
        <path id="DejaVuSans-32" d="M 1228 531 
L 3431 531 
L 3431 0 
L 469 0 
L 469 531 
Q 828 903 1448 1529 
Q 2069 2156 2228 2338 
Q 2531 2678 2651 2914 
Q 2772 3150 2772 3378 
Q 2772 3750 2511 3984 
Q 2250 4219 1831 4219 
Q 1534 4219 1204 4116 
Q 875 4013 500 3803 
L 500 4441 
Q 881 4594 1212 4672 
Q 1544 4750 1819 4750 
Q 2544 4750 2975 4387 
Q 3406 4025 3406 3419 
Q 3406 3131 3298 2873 
Q 3191 2616 2906 2266 
Q 2828 2175 2409 1742 
Q 1991 1309 1228 531 
z
" transform="scale(0.015625)"/>
       </defs>
       <use xlink:href="#DejaVuSans-32"/>
       <use xlink:href="#DejaVuSans-30" x="63.623047"/>
       <use xlink:href="#DejaVuSans-30" x="127.246094"/>
      </g>
     </g>
    </g>
    <g id="xtick_6">
     <g id="line2d_6">
      <g>
       <use xlink:href="#m64669cf51a" x="385.540926" y="307.584" style="stroke: #000000; stroke-width: 0.8"/>
      </g>
     </g>
     <g id="text_6">
      <!-- 250 -->
      <g transform="translate(375.997176 322.182437) scale(0.1 -0.1)">
       <use xlink:href="#DejaVuSans-32"/>
       <use xlink:href="#DejaVuSans-35" x="63.623047"/>
       <use xlink:href="#DejaVuSans-30" x="127.246094"/>
      </g>
     </g>
    </g>
    <g id="text_7">
     <!-- Depth of Element -->
     <g transform="translate(192.231875 335.860562) scale(0.1 -0.1)">
      <defs>
       <path id="DejaVuSans-44" d="M 1259 4147 
L 1259 519 
L 2022 519 
Q 2988 519 3436 956 
Q 3884 1394 3884 2338 
Q 3884 3275 3436 3711 
Q 2988 4147 2022 4147 
L 1259 4147 
z
M 628 4666 
L 1925 4666 
Q 3281 4666 3915 4102 
Q 4550 3538 4550 2338 
Q 4550 1131 3912 565 
Q 3275 0 1925 0 
L 628 0 
L 628 4666 
z
" transform="scale(0.015625)"/>
       <path id="DejaVuSans-65" d="M 3597 1894 
L 3597 1613 
L 953 1613 
Q 991 1019 1311 708 
Q 1631 397 2203 397 
Q 2534 397 2845 478 
Q 3156 559 3463 722 
L 3463 178 
Q 3153 47 2828 -22 
Q 2503 -91 2169 -91 
Q 1331 -91 842 396 
Q 353 884 353 1716 
Q 353 2575 817 3079 
Q 1281 3584 2069 3584 
Q 2775 3584 3186 3129 
Q 3597 2675 3597 1894 
z
M 3022 2063 
Q 3016 2534 2758 2815 
Q 2500 3097 2075 3097 
Q 1594 3097 1305 2825 
Q 1016 2553 972 2059 
L 3022 2063 
z
" transform="scale(0.015625)"/>
       <path id="DejaVuSans-70" d="M 1159 525 
L 1159 -1331 
L 581 -1331 
L 581 3500 
L 1159 3500 
L 1159 2969 
Q 1341 3281 1617 3432 
Q 1894 3584 2278 3584 
Q 2916 3584 3314 3078 
Q 3713 2572 3713 1747 
Q 3713 922 3314 415 
Q 2916 -91 2278 -91 
Q 1894 -91 1617 61 
Q 1341 213 1159 525 
z
M 3116 1747 
Q 3116 2381 2855 2742 
Q 2594 3103 2138 3103 
Q 1681 3103 1420 2742 
Q 1159 2381 1159 1747 
Q 1159 1113 1420 752 
Q 1681 391 2138 391 
Q 2594 391 2855 752 
Q 3116 1113 3116 1747 
z
" transform="scale(0.015625)"/>
       <path id="DejaVuSans-74" d="M 1172 4494 
L 1172 3500 
L 2356 3500 
L 2356 3053 
L 1172 3053 
L 1172 1153 
Q 1172 725 1289 603 
Q 1406 481 1766 481 
L 2356 481 
L 2356 0 
L 1766 0 
Q 1100 0 847 248 
Q 594 497 594 1153 
L 594 3053 
L 172 3053 
L 172 3500 
L 594 3500 
L 594 4494 
L 1172 4494 
z
" transform="scale(0.015625)"/>
       <path id="DejaVuSans-68" d="M 3513 2113 
L 3513 0 
L 2938 0 
L 2938 2094 
Q 2938 2591 2744 2837 
Q 2550 3084 2163 3084 
Q 1697 3084 1428 2787 
Q 1159 2491 1159 1978 
L 1159 0 
L 581 0 
L 581 4863 
L 1159 4863 
L 1159 2956 
Q 1366 3272 1645 3428 
Q 1925 3584 2291 3584 
Q 2894 3584 3203 3211 
Q 3513 2838 3513 2113 
z
" transform="scale(0.015625)"/>
       <path id="DejaVuSans-20" transform="scale(0.015625)"/>
       <path id="DejaVuSans-6f" d="M 1959 3097 
Q 1497 3097 1228 2736 
Q 959 2375 959 1747 
Q 959 1119 1226 758 
Q 1494 397 1959 397 
Q 2419 397 2687 759 
Q 2956 1122 2956 1747 
Q 2956 2369 2687 2733 
Q 2419 3097 1959 3097 
z
M 1959 3584 
Q 2709 3584 3137 3096 
Q 3566 2609 3566 1747 
Q 3566 888 3137 398 
Q 2709 -91 1959 -91 
Q 1206 -91 779 398 
Q 353 888 353 1747 
Q 353 2609 779 3096 
Q 1206 3584 1959 3584 
z
" transform="scale(0.015625)"/>
       <path id="DejaVuSans-66" d="M 2375 4863 
L 2375 4384 
L 1825 4384 
Q 1516 4384 1395 4259 
Q 1275 4134 1275 3809 
L 1275 3500 
L 2222 3500 
L 2222 3053 
L 1275 3053 
L 1275 0 
L 697 0 
L 697 3053 
L 147 3053 
L 147 3500 
L 697 3500 
L 697 3744 
Q 697 4328 969 4595 
Q 1241 4863 1831 4863 
L 2375 4863 
z
" transform="scale(0.015625)"/>
       <path id="DejaVuSans-45" d="M 628 4666 
L 3578 4666 
L 3578 4134 
L 1259 4134 
L 1259 2753 
L 3481 2753 
L 3481 2222 
L 1259 2222 
L 1259 531 
L 3634 531 
L 3634 0 
L 628 0 
L 628 4666 
z
" transform="scale(0.015625)"/>
       <path id="DejaVuSans-6c" d="M 603 4863 
L 1178 4863 
L 1178 0 
L 603 0 
L 603 4863 
z
" transform="scale(0.015625)"/>
       <path id="DejaVuSans-6d" d="M 3328 2828 
Q 3544 3216 3844 3400 
Q 4144 3584 4550 3584 
Q 5097 3584 5394 3201 
Q 5691 2819 5691 2113 
L 5691 0 
L 5113 0 
L 5113 2094 
Q 5113 2597 4934 2840 
Q 4756 3084 4391 3084 
Q 3944 3084 3684 2787 
Q 3425 2491 3425 1978 
L 3425 0 
L 2847 0 
L 2847 2094 
Q 2847 2600 2669 2842 
Q 2491 3084 2119 3084 
Q 1678 3084 1418 2786 
Q 1159 2488 1159 1978 
L 1159 0 
L 581 0 
L 581 3500 
L 1159 3500 
L 1159 2956 
Q 1356 3278 1631 3431 
Q 1906 3584 2284 3584 
Q 2666 3584 2933 3390 
Q 3200 3197 3328 2828 
z
" transform="scale(0.015625)"/>
       <path id="DejaVuSans-6e" d="M 3513 2113 
L 3513 0 
L 2938 0 
L 2938 2094 
Q 2938 2591 2744 2837 
Q 2550 3084 2163 3084 
Q 1697 3084 1428 2787 
Q 1159 2491 1159 1978 
L 1159 0 
L 581 0 
L 581 3500 
L 1159 3500 
L 1159 2956 
Q 1366 3272 1645 3428 
Q 1925 3584 2291 3584 
Q 2894 3584 3203 3211 
Q 3513 2838 3513 2113 
z
" transform="scale(0.015625)"/>
      </defs>
      <use xlink:href="#DejaVuSans-44"/>
      <use xlink:href="#DejaVuSans-65" x="77.001953"/>
      <use xlink:href="#DejaVuSans-70" x="138.525391"/>
      <use xlink:href="#DejaVuSans-74" x="202.001953"/>
      <use xlink:href="#DejaVuSans-68" x="241.210938"/>
      <use xlink:href="#DejaVuSans-20" x="304.589844"/>
      <use xlink:href="#DejaVuSans-6f" x="336.376953"/>
      <use xlink:href="#DejaVuSans-66" x="397.558594"/>
      <use xlink:href="#DejaVuSans-20" x="432.763672"/>
      <use xlink:href="#DejaVuSans-45" x="464.550781"/>
      <use xlink:href="#DejaVuSans-6c" x="527.734375"/>
      <use xlink:href="#DejaVuSans-65" x="555.517578"/>
      <use xlink:href="#DejaVuSans-6d" x="617.041016"/>
      <use xlink:href="#DejaVuSans-65" x="714.453125"/>
      <use xlink:href="#DejaVuSans-6e" x="775.976562"/>
      <use xlink:href="#DejaVuSans-74" x="839.355469"/>
     </g>
    </g>
   </g>
   <g id="matplotlib.axis_2">
    <g id="ytick_1">
     <g id="line2d_7">
      <defs>
       <path id="m7642383f71" d="M 0 0 
L -3.5 0 
" style="stroke: #000000; stroke-width: 0.8"/>
      </defs>
      <g>
       <use xlink:href="#m7642383f71" x="57.6" y="307.584" style="stroke: #000000; stroke-width: 0.8"/>
      </g>
     </g>
     <g id="text_8">
      <!-- 0 -->
      <g transform="translate(44.2375 311.383219) scale(0.1 -0.1)">
       <use xlink:href="#DejaVuSans-30"/>
      </g>
     </g>
    </g>
    <g id="ytick_2">
     <g id="line2d_8">
      <g>
       <use xlink:href="#m7642383f71" x="57.6" y="251.63698" style="stroke: #000000; stroke-width: 0.8"/>
      </g>
     </g>
     <g id="text_9">
      <!-- 200 -->
      <g transform="translate(31.5125 255.436199) scale(0.1 -0.1)">
       <use xlink:href="#DejaVuSans-32"/>
       <use xlink:href="#DejaVuSans-30" x="63.623047"/>
       <use xlink:href="#DejaVuSans-30" x="127.246094"/>
      </g>
     </g>
    </g>
    <g id="ytick_3">
     <g id="line2d_9">
      <g>
       <use xlink:href="#m7642383f71" x="57.6" y="195.68996" style="stroke: #000000; stroke-width: 0.8"/>
      </g>
     </g>
     <g id="text_10">
      <!-- 400 -->
      <g transform="translate(31.5125 199.489179) scale(0.1 -0.1)">
       <defs>
        <path id="DejaVuSans-34" d="M 2419 4116 
L 825 1625 
L 2419 1625 
L 2419 4116 
z
M 2253 4666 
L 3047 4666 
L 3047 1625 
L 3713 1625 
L 3713 1100 
L 3047 1100 
L 3047 0 
L 2419 0 
L 2419 1100 
L 313 1100 
L 313 1709 
L 2253 4666 
z
" transform="scale(0.015625)"/>
       </defs>
       <use xlink:href="#DejaVuSans-34"/>
       <use xlink:href="#DejaVuSans-30" x="63.623047"/>
       <use xlink:href="#DejaVuSans-30" x="127.246094"/>
      </g>
     </g>
    </g>
    <g id="ytick_4">
     <g id="line2d_10">
      <g>
       <use xlink:href="#m7642383f71" x="57.6" y="139.74294" style="stroke: #000000; stroke-width: 0.8"/>
      </g>
     </g>
     <g id="text_11">
      <!-- 600 -->
      <g transform="translate(31.5125 143.542159) scale(0.1 -0.1)">
       <defs>
        <path id="DejaVuSans-36" d="M 2113 2584 
Q 1688 2584 1439 2293 
Q 1191 2003 1191 1497 
Q 1191 994 1439 701 
Q 1688 409 2113 409 
Q 2538 409 2786 701 
Q 3034 994 3034 1497 
Q 3034 2003 2786 2293 
Q 2538 2584 2113 2584 
z
M 3366 4563 
L 3366 3988 
Q 3128 4100 2886 4159 
Q 2644 4219 2406 4219 
Q 1781 4219 1451 3797 
Q 1122 3375 1075 2522 
Q 1259 2794 1537 2939 
Q 1816 3084 2150 3084 
Q 2853 3084 3261 2657 
Q 3669 2231 3669 1497 
Q 3669 778 3244 343 
Q 2819 -91 2113 -91 
Q 1303 -91 875 529 
Q 447 1150 447 2328 
Q 447 3434 972 4092 
Q 1497 4750 2381 4750 
Q 2619 4750 2861 4703 
Q 3103 4656 3366 4563 
z
" transform="scale(0.015625)"/>
       </defs>
       <use xlink:href="#DejaVuSans-36"/>
       <use xlink:href="#DejaVuSans-30" x="63.623047"/>
       <use xlink:href="#DejaVuSans-30" x="127.246094"/>
      </g>
     </g>
    </g>
    <g id="ytick_5">
     <g id="line2d_11">
      <g>
       <use xlink:href="#m7642383f71" x="57.6" y="83.795921" style="stroke: #000000; stroke-width: 0.8"/>
      </g>
     </g>
     <g id="text_12">
      <!-- 800 -->
      <g transform="translate(31.5125 87.595139) scale(0.1 -0.1)">
       <defs>
        <path id="DejaVuSans-38" d="M 2034 2216 
Q 1584 2216 1326 1975 
Q 1069 1734 1069 1313 
Q 1069 891 1326 650 
Q 1584 409 2034 409 
Q 2484 409 2743 651 
Q 3003 894 3003 1313 
Q 3003 1734 2745 1975 
Q 2488 2216 2034 2216 
z
M 1403 2484 
Q 997 2584 770 2862 
Q 544 3141 544 3541 
Q 544 4100 942 4425 
Q 1341 4750 2034 4750 
Q 2731 4750 3128 4425 
Q 3525 4100 3525 3541 
Q 3525 3141 3298 2862 
Q 3072 2584 2669 2484 
Q 3125 2378 3379 2068 
Q 3634 1759 3634 1313 
Q 3634 634 3220 271 
Q 2806 -91 2034 -91 
Q 1263 -91 848 271 
Q 434 634 434 1313 
Q 434 1759 690 2068 
Q 947 2378 1403 2484 
z
M 1172 3481 
Q 1172 3119 1398 2916 
Q 1625 2713 2034 2713 
Q 2441 2713 2670 2916 
Q 2900 3119 2900 3481 
Q 2900 3844 2670 4047 
Q 2441 4250 2034 4250 
Q 1625 4250 1398 4047 
Q 1172 3844 1172 3481 
z
" transform="scale(0.015625)"/>
       </defs>
       <use xlink:href="#DejaVuSans-38"/>
       <use xlink:href="#DejaVuSans-30" x="63.623047"/>
       <use xlink:href="#DejaVuSans-30" x="127.246094"/>
      </g>
     </g>
    </g>
    <g id="text_13">
     <!-- Number of Elements -->
     <g transform="translate(25.432812 225.917062) rotate(-90) scale(0.1 -0.1)">
      <defs>
       <path id="DejaVuSans-4e" d="M 628 4666 
L 1478 4666 
L 3547 763 
L 3547 4666 
L 4159 4666 
L 4159 0 
L 3309 0 
L 1241 3903 
L 1241 0 
L 628 0 
L 628 4666 
z
" transform="scale(0.015625)"/>
       <path id="DejaVuSans-75" d="M 544 1381 
L 544 3500 
L 1119 3500 
L 1119 1403 
Q 1119 906 1312 657 
Q 1506 409 1894 409 
Q 2359 409 2629 706 
Q 2900 1003 2900 1516 
L 2900 3500 
L 3475 3500 
L 3475 0 
L 2900 0 
L 2900 538 
Q 2691 219 2414 64 
Q 2138 -91 1772 -91 
Q 1169 -91 856 284 
Q 544 659 544 1381 
z
M 1991 3584 
L 1991 3584 
z
" transform="scale(0.015625)"/>
       <path id="DejaVuSans-62" d="M 3116 1747 
Q 3116 2381 2855 2742 
Q 2594 3103 2138 3103 
Q 1681 3103 1420 2742 
Q 1159 2381 1159 1747 
Q 1159 1113 1420 752 
Q 1681 391 2138 391 
Q 2594 391 2855 752 
Q 3116 1113 3116 1747 
z
M 1159 2969 
Q 1341 3281 1617 3432 
Q 1894 3584 2278 3584 
Q 2916 3584 3314 3078 
Q 3713 2572 3713 1747 
Q 3713 922 3314 415 
Q 2916 -91 2278 -91 
Q 1894 -91 1617 61 
Q 1341 213 1159 525 
L 1159 0 
L 581 0 
L 581 4863 
L 1159 4863 
L 1159 2969 
z
" transform="scale(0.015625)"/>
       <path id="DejaVuSans-72" d="M 2631 2963 
Q 2534 3019 2420 3045 
Q 2306 3072 2169 3072 
Q 1681 3072 1420 2755 
Q 1159 2438 1159 1844 
L 1159 0 
L 581 0 
L 581 3500 
L 1159 3500 
L 1159 2956 
Q 1341 3275 1631 3429 
Q 1922 3584 2338 3584 
Q 2397 3584 2469 3576 
Q 2541 3569 2628 3553 
L 2631 2963 
z
" transform="scale(0.015625)"/>
       <path id="DejaVuSans-73" d="M 2834 3397 
L 2834 2853 
Q 2591 2978 2328 3040 
Q 2066 3103 1784 3103 
Q 1356 3103 1142 2972 
Q 928 2841 928 2578 
Q 928 2378 1081 2264 
Q 1234 2150 1697 2047 
L 1894 2003 
Q 2506 1872 2764 1633 
Q 3022 1394 3022 966 
Q 3022 478 2636 193 
Q 2250 -91 1575 -91 
Q 1294 -91 989 -36 
Q 684 19 347 128 
L 347 722 
Q 666 556 975 473 
Q 1284 391 1588 391 
Q 1994 391 2212 530 
Q 2431 669 2431 922 
Q 2431 1156 2273 1281 
Q 2116 1406 1581 1522 
L 1381 1569 
Q 847 1681 609 1914 
Q 372 2147 372 2553 
Q 372 3047 722 3315 
Q 1072 3584 1716 3584 
Q 2034 3584 2315 3537 
Q 2597 3491 2834 3397 
z
" transform="scale(0.015625)"/>
      </defs>
      <use xlink:href="#DejaVuSans-4e"/>
      <use xlink:href="#DejaVuSans-75" x="74.804688"/>
      <use xlink:href="#DejaVuSans-6d" x="138.183594"/>
      <use xlink:href="#DejaVuSans-62" x="235.595703"/>
      <use xlink:href="#DejaVuSans-65" x="299.072266"/>
      <use xlink:href="#DejaVuSans-72" x="360.595703"/>
      <use xlink:href="#DejaVuSans-20" x="401.708984"/>
      <use xlink:href="#DejaVuSans-6f" x="433.496094"/>
      <use xlink:href="#DejaVuSans-66" x="494.677734"/>
      <use xlink:href="#DejaVuSans-20" x="529.882812"/>
      <use xlink:href="#DejaVuSans-45" x="561.669922"/>
      <use xlink:href="#DejaVuSans-6c" x="624.853516"/>
      <use xlink:href="#DejaVuSans-65" x="652.636719"/>
      <use xlink:href="#DejaVuSans-6d" x="714.160156"/>
      <use xlink:href="#DejaVuSans-65" x="811.572266"/>
      <use xlink:href="#DejaVuSans-6e" x="873.095703"/>
      <use xlink:href="#DejaVuSans-74" x="936.474609"/>
      <use xlink:href="#DejaVuSans-73" x="975.683594"/>
     </g>
    </g>
   </g>
   <g id="patch_175">
    <path d="M 57.6 307.584 
L 57.6 41.472 
" style="fill: none; stroke: #000000; stroke-width: 0.8; stroke-linejoin: miter; stroke-linecap: square"/>
   </g>
   <g id="patch_176">
    <path d="M 414.72 307.584 
L 414.72 41.472 
" style="fill: none; stroke: #000000; stroke-width: 0.8; stroke-linejoin: miter; stroke-linecap: square"/>
   </g>
   <g id="patch_177">
    <path d="M 57.6 307.584 
L 414.72 307.584 
" style="fill: none; stroke: #000000; stroke-width: 0.8; stroke-linejoin: miter; stroke-linecap: square"/>
   </g>
   <g id="patch_178">
    <path d="M 57.6 41.472 
L 414.72 41.472 
" style="fill: none; stroke: #000000; stroke-width: 0.8; stroke-linejoin: miter; stroke-linecap: square"/>
   </g>
  </g>
 </g>
 <defs>
  <clipPath id="pc5016cb746">
   <rect x="57.6" y="41.472" width="357.12" height="266.112"/>
  </clipPath>
 </defs>
</svg>
