<?xml version="1.0" encoding="utf-8" standalone="no"?>
<!DOCTYPE svg PUBLIC "-//W3C//DTD SVG 1.1//EN"
  "http://www.w3.org/Graphics/SVG/1.1/DTD/svg11.dtd">
<svg xmlns:xlink="http://www.w3.org/1999/xlink" width="460.8pt" height="345.6pt" viewBox="0 0 460.8 345.6" xmlns="http://www.w3.org/2000/svg" version="1.1">
 <metadata>
  <rdf:RDF xmlns:dc="http://purl.org/dc/elements/1.1/" xmlns:cc="http://creativecommons.org/ns#" xmlns:rdf="http://www.w3.org/1999/02/22-rdf-syntax-ns#">
   <cc:Work>
    <dc:type rdf:resource="http://purl.org/dc/dcmitype/StillImage"/>
    <dc:date>2024-02-20T20:48:25.996275</dc:date>
    <dc:format>image/svg+xml</dc:format>
    <dc:creator>
     <cc:Agent>
      <dc:title>Matplotlib v3.8.3, https://matplotlib.org/</dc:title>
     </cc:Agent>
    </dc:creator>
   </cc:Work>
  </rdf:RDF>
 </metadata>
 <defs>
  <style type="text/css">*{stroke-linejoin: round; stroke-linecap: butt}</style>
 </defs>
 <g id="figure_1">
  <g id="patch_1">
   <path d="M 0 345.6 
L 460.8 345.6 
L 460.8 0 
L 0 0 
z
" style="fill: #ffffff"/>
  </g>
  <g id="axes_1">
   <g id="patch_2">
    <path d="M 57.6 307.584 
L 414.72 307.584 
L 414.72 41.472 
L 57.6 41.472 
z
" style="fill: #ffffff"/>
   </g>
   <g id="patch_3">
    <path d="M 73.832727 307.584 
L 74.817275 307.584 
L 74.817275 306.801174 
L 73.832727 306.801174 
z
" clip-path="url(#pb29e738dc9)" style="fill: #1f77b4"/>
   </g>
   <g id="patch_4">
    <path d="M 75.063412 307.584 
L 76.047959 307.584 
L 76.047959 305.626934 
L 75.063412 305.626934 
z
" clip-path="url(#pb29e738dc9)" style="fill: #1f77b4"/>
   </g>
   <g id="patch_5">
    <path d="M 77.52478 307.584 
L 78.509328 307.584 
L 78.509328 298.777205 
L 77.52478 298.777205 
z
" clip-path="url(#pb29e738dc9)" style="fill: #1f77b4"/>
   </g>
   <g id="patch_6">
    <path d="M 78.755465 307.584 
L 79.740012 307.584 
L 79.740012 285.860571 
L 78.755465 285.860571 
z
" clip-path="url(#pb29e738dc9)" style="fill: #1f77b4"/>
   </g>
   <g id="patch_7">
    <path d="M 82.447518 307.584 
L 83.432066 307.584 
L 83.432066 197.205498 
L 82.447518 197.205498 
z
" clip-path="url(#pb29e738dc9)" style="fill: #1f77b4"/>
   </g>
   <g id="patch_8">
    <path d="M 76.294096 307.584 
L 77.278644 307.584 
L 77.278644 303.865575 
L 76.294096 303.865575 
z
" clip-path="url(#pb29e738dc9)" style="fill: #1f77b4"/>
   </g>
   <g id="patch_9">
    <path d="M 79.986149 307.584 
L 80.970697 307.584 
L 80.970697 271.573992 
L 79.986149 271.573992 
z
" clip-path="url(#pb29e738dc9)" style="fill: #1f77b4"/>
   </g>
   <g id="patch_10">
    <path d="M 81.216834 307.584 
L 82.201381 307.584 
L 82.201381 244.175073 
L 81.216834 244.175073 
z
" clip-path="url(#pb29e738dc9)" style="fill: #1f77b4"/>
   </g>
   <g id="patch_11">
    <path d="M 83.678202 307.584 
L 84.66275 307.584 
L 84.66275 171.176525 
L 83.678202 171.176525 
z
" clip-path="url(#pb29e738dc9)" style="fill: #1f77b4"/>
   </g>
   <g id="patch_12">
    <path d="M 86.139571 307.584 
L 87.124119 307.584 
L 87.124119 84.282811 
L 86.139571 84.282811 
z
" clip-path="url(#pb29e738dc9)" style="fill: #1f77b4"/>
   </g>
   <g id="patch_13">
    <path d="M 84.908887 307.584 
L 85.893434 307.584 
L 85.893434 129.491027 
L 84.908887 129.491027 
z
" clip-path="url(#pb29e738dc9)" style="fill: #1f77b4"/>
   </g>
   <g id="patch_14">
    <path d="M 89.831625 307.584 
L 90.816172 307.584 
L 90.816172 98.177977 
L 89.831625 98.177977 
z
" clip-path="url(#pb29e738dc9)" style="fill: #1f77b4"/>
   </g>
   <g id="patch_15">
    <path d="M 88.60094 307.584 
L 89.585488 307.584 
L 89.585488 54.144 
L 88.60094 54.144 
z
" clip-path="url(#pb29e738dc9)" style="fill: #1f77b4"/>
   </g>
   <g id="patch_16">
    <path d="M 87.370256 307.584 
L 88.354803 307.584 
L 88.354803 64.516448 
L 87.370256 64.516448 
z
" clip-path="url(#pb29e738dc9)" style="fill: #1f77b4"/>
   </g>
   <g id="patch_17">
    <path d="M 92.292993 307.584 
L 93.277541 307.584 
L 93.277541 234.976865 
L 92.292993 234.976865 
z
" clip-path="url(#pb29e738dc9)" style="fill: #1f77b4"/>
   </g>
   <g id="patch_18">
    <path d="M 91.062309 307.584 
L 92.046856 307.584 
L 92.046856 170.197992 
L 91.062309 170.197992 
z
" clip-path="url(#pb29e738dc9)" style="fill: #1f77b4"/>
   </g>
   <g id="patch_19">
    <path d="M 94.754362 307.584 
L 95.73891 307.584 
L 95.73891 277.445189 
L 94.754362 277.445189 
z
" clip-path="url(#pb29e738dc9)" style="fill: #1f77b4"/>
   </g>
   <g id="patch_20">
    <path d="M 99.6771 307.584 
L 100.661647 307.584 
L 100.661647 289.970409 
L 99.6771 289.970409 
z
" clip-path="url(#pb29e738dc9)" style="fill: #1f77b4"/>
   </g>
   <g id="patch_21">
    <path d="M 93.523678 307.584 
L 94.508225 307.584 
L 94.508225 260.614425 
L 93.523678 260.614425 
z
" clip-path="url(#pb29e738dc9)" style="fill: #1f77b4"/>
   </g>
   <g id="patch_22">
    <path d="M 97.215731 307.584 
L 98.200278 307.584 
L 98.200278 285.077745 
L 97.215731 285.077745 
z
" clip-path="url(#pb29e738dc9)" style="fill: #1f77b4"/>
   </g>
   <g id="patch_23">
    <path d="M 98.446415 307.584 
L 99.430963 307.584 
L 99.430963 282.924973 
L 98.446415 282.924973 
z
" clip-path="url(#pb29e738dc9)" style="fill: #1f77b4"/>
   </g>
   <g id="patch_24">
    <path d="M 102.138469 307.584 
L 103.123016 307.584 
L 103.123016 291.731768 
L 102.138469 291.731768 
z
" clip-path="url(#pb29e738dc9)" style="fill: #1f77b4"/>
   </g>
   <g id="patch_25">
    <path d="M 104.599837 307.584 
L 105.584385 307.584 
L 105.584385 290.166116 
L 104.599837 290.166116 
z
" clip-path="url(#pb29e738dc9)" style="fill: #1f77b4"/>
   </g>
   <g id="patch_26">
    <path d="M 95.985047 307.584 
L 96.969594 307.584 
L 96.969594 279.597961 
L 95.985047 279.597961 
z
" clip-path="url(#pb29e738dc9)" style="fill: #1f77b4"/>
   </g>
   <g id="patch_27">
    <path d="M 109.522575 307.584 
L 110.507122 307.584 
L 110.507122 292.123181 
L 109.522575 292.123181 
z
" clip-path="url(#pb29e738dc9)" style="fill: #1f77b4"/>
   </g>
   <g id="patch_28">
    <path d="M 103.369153 307.584 
L 104.3537 307.584 
L 104.3537 292.123181 
L 103.369153 292.123181 
z
" clip-path="url(#pb29e738dc9)" style="fill: #1f77b4"/>
   </g>
   <g id="patch_29">
    <path d="M 100.907784 307.584 
L 101.892332 307.584 
L 101.892332 291.144649 
L 100.907784 291.144649 
z
" clip-path="url(#pb29e738dc9)" style="fill: #1f77b4"/>
   </g>
   <g id="patch_30">
    <path d="M 110.753259 307.584 
L 111.737807 307.584 
L 111.737807 292.123181 
L 110.753259 292.123181 
z
" clip-path="url(#pb29e738dc9)" style="fill: #1f77b4"/>
   </g>
   <g id="patch_31">
    <path d="M 107.061206 307.584 
L 108.045754 307.584 
L 108.045754 293.297421 
L 107.061206 293.297421 
z
" clip-path="url(#pb29e738dc9)" style="fill: #1f77b4"/>
   </g>
   <g id="patch_32">
    <path d="M 105.830522 307.584 
L 106.815069 307.584 
L 106.815069 290.753236 
L 105.830522 290.753236 
z
" clip-path="url(#pb29e738dc9)" style="fill: #1f77b4"/>
   </g>
   <g id="patch_33">
    <path d="M 108.291891 307.584 
L 109.276438 307.584 
L 109.276438 291.144649 
L 108.291891 291.144649 
z
" clip-path="url(#pb29e738dc9)" style="fill: #1f77b4"/>
   </g>
   <g id="patch_34">
    <path d="M 116.906681 307.584 
L 117.891229 307.584 
L 117.891229 294.275954 
L 116.906681 294.275954 
z
" clip-path="url(#pb29e738dc9)" style="fill: #1f77b4"/>
   </g>
   <g id="patch_35">
    <path d="M 111.983944 307.584 
L 112.968491 307.584 
L 112.968491 292.710301 
L 111.983944 292.710301 
z
" clip-path="url(#pb29e738dc9)" style="fill: #1f77b4"/>
   </g>
   <g id="patch_36">
    <path d="M 119.36805 307.584 
L 120.352598 307.584 
L 120.352598 295.841606 
L 119.36805 295.841606 
z
" clip-path="url(#pb29e738dc9)" style="fill: #1f77b4"/>
   </g>
   <g id="patch_37">
    <path d="M 120.598735 307.584 
L 121.583282 307.584 
L 121.583282 294.667367 
L 120.598735 294.667367 
z
" clip-path="url(#pb29e738dc9)" style="fill: #1f77b4"/>
   </g>
   <g id="patch_38">
    <path d="M 126.752157 307.584 
L 127.736704 307.584 
L 127.736704 296.820139 
L 126.752157 296.820139 
z
" clip-path="url(#pb29e738dc9)" style="fill: #1f77b4"/>
   </g>
   <g id="patch_39">
    <path d="M 114.445313 307.584 
L 115.42986 307.584 
L 115.42986 292.318888 
L 114.445313 292.318888 
z
" clip-path="url(#pb29e738dc9)" style="fill: #1f77b4"/>
   </g>
   <g id="patch_40">
    <path d="M 113.214628 307.584 
L 114.199176 307.584 
L 114.199176 294.667367 
L 113.214628 294.667367 
z
" clip-path="url(#pb29e738dc9)" style="fill: #1f77b4"/>
   </g>
   <g id="patch_41">
    <path d="M 121.829419 307.584 
L 122.813967 307.584 
L 122.813967 297.994378 
L 121.829419 297.994378 
z
" clip-path="url(#pb29e738dc9)" style="fill: #1f77b4"/>
   </g>
   <g id="patch_42">
    <path d="M 115.675997 307.584 
L 116.660544 307.584 
L 116.660544 295.450193 
L 115.675997 295.450193 
z
" clip-path="url(#pb29e738dc9)" style="fill: #1f77b4"/>
   </g>
   <g id="patch_43">
    <path d="M 136.597632 307.584 
L 137.582179 307.584 
L 137.582179 299.755737 
L 136.597632 299.755737 
z
" clip-path="url(#pb29e738dc9)" style="fill: #1f77b4"/>
   </g>
   <g id="patch_44">
    <path d="M 118.137366 307.584 
L 119.121913 307.584 
L 119.121913 295.254486 
L 118.137366 295.254486 
z
" clip-path="url(#pb29e738dc9)" style="fill: #1f77b4"/>
   </g>
   <g id="patch_45">
    <path d="M 130.44421 307.584 
L 131.428757 307.584 
L 131.428757 299.168618 
L 130.44421 299.168618 
z
" clip-path="url(#pb29e738dc9)" style="fill: #1f77b4"/>
   </g>
   <g id="patch_46">
    <path d="M 123.060103 307.584 
L 124.044651 307.584 
L 124.044651 296.428726 
L 123.060103 296.428726 
z
" clip-path="url(#pb29e738dc9)" style="fill: #1f77b4"/>
   </g>
   <g id="patch_47">
    <path d="M 135.366947 307.584 
L 136.351495 307.584 
L 136.351495 297.015846 
L 135.366947 297.015846 
z
" clip-path="url(#pb29e738dc9)" style="fill: #1f77b4"/>
   </g>
   <g id="patch_48">
    <path d="M 141.520369 307.584 
L 142.504917 307.584 
L 142.504917 300.538564 
L 141.520369 300.538564 
z
" clip-path="url(#pb29e738dc9)" style="fill: #1f77b4"/>
   </g>
   <g id="patch_49">
    <path d="M 137.828316 307.584 
L 138.812864 307.584 
L 138.812864 296.428726 
L 137.828316 296.428726 
z
" clip-path="url(#pb29e738dc9)" style="fill: #1f77b4"/>
   </g>
   <g id="patch_50">
    <path d="M 127.982841 307.584 
L 128.967389 307.584 
L 128.967389 297.602965 
L 127.982841 297.602965 
z
" clip-path="url(#pb29e738dc9)" style="fill: #1f77b4"/>
   </g>
   <g id="patch_51">
    <path d="M 143.981738 307.584 
L 144.966286 307.584 
L 144.966286 298.385792 
L 143.981738 298.385792 
z
" clip-path="url(#pb29e738dc9)" style="fill: #1f77b4"/>
   </g>
   <g id="patch_52">
    <path d="M 152.596529 307.584 
L 153.581077 307.584 
L 153.581077 301.712803 
L 152.596529 301.712803 
z
" clip-path="url(#pb29e738dc9)" style="fill: #1f77b4"/>
   </g>
   <g id="patch_53">
    <path d="M 146.443107 307.584 
L 147.427655 307.584 
L 147.427655 299.560031 
L 146.443107 299.560031 
z
" clip-path="url(#pb29e738dc9)" style="fill: #1f77b4"/>
   </g>
   <g id="patch_54">
    <path d="M 124.290788 307.584 
L 125.275335 307.584 
L 125.275335 294.863073 
L 124.290788 294.863073 
z
" clip-path="url(#pb29e738dc9)" style="fill: #1f77b4"/>
   </g>
   <g id="patch_55">
    <path d="M 172.287479 307.584 
L 173.272027 307.584 
L 173.272027 303.474162 
L 172.287479 303.474162 
z
" clip-path="url(#pb29e738dc9)" style="fill: #1f77b4"/>
   </g>
   <g id="patch_56">
    <path d="M 139.059001 307.584 
L 140.043548 307.584 
L 140.043548 300.73427 
L 139.059001 300.73427 
z
" clip-path="url(#pb29e738dc9)" style="fill: #1f77b4"/>
   </g>
   <g id="patch_57">
    <path d="M 125.521472 307.584 
L 126.50602 307.584 
L 126.50602 294.863073 
L 125.521472 294.863073 
z
" clip-path="url(#pb29e738dc9)" style="fill: #1f77b4"/>
   </g>
   <g id="patch_58">
    <path d="M 134.136263 307.584 
L 135.120811 307.584 
L 135.120811 298.190085 
L 134.136263 298.190085 
z
" clip-path="url(#pb29e738dc9)" style="fill: #1f77b4"/>
   </g>
   <g id="patch_59">
    <path d="M 167.364742 307.584 
L 168.349289 307.584 
L 168.349289 302.495629 
L 167.364742 302.495629 
z
" clip-path="url(#pb29e738dc9)" style="fill: #1f77b4"/>
   </g>
   <g id="patch_60">
    <path d="M 145.212423 307.584 
L 146.19697 307.584 
L 146.19697 299.364324 
L 145.212423 299.364324 
z
" clip-path="url(#pb29e738dc9)" style="fill: #1f77b4"/>
   </g>
   <g id="patch_61">
    <path d="M 140.289685 307.584 
L 141.274233 307.584 
L 141.274233 299.560031 
L 140.289685 299.560031 
z
" clip-path="url(#pb29e738dc9)" style="fill: #1f77b4"/>
   </g>
   <g id="patch_62">
    <path d="M 132.905579 307.584 
L 133.890126 307.584 
L 133.890126 299.951444 
L 132.905579 299.951444 
z
" clip-path="url(#pb29e738dc9)" style="fill: #1f77b4"/>
   </g>
   <g id="patch_63">
    <path d="M 129.213525 307.584 
L 130.198073 307.584 
L 130.198073 298.190085 
L 129.213525 298.190085 
z
" clip-path="url(#pb29e738dc9)" style="fill: #1f77b4"/>
   </g>
   <g id="patch_64">
    <path d="M 155.057898 307.584 
L 156.042445 307.584 
L 156.042445 301.517097 
L 155.057898 301.517097 
z
" clip-path="url(#pb29e738dc9)" style="fill: #1f77b4"/>
   </g>
   <g id="patch_65">
    <path d="M 147.673791 307.584 
L 148.658339 307.584 
L 148.658339 301.32139 
L 147.673791 301.32139 
z
" clip-path="url(#pb29e738dc9)" style="fill: #1f77b4"/>
   </g>
   <g id="patch_66">
    <path d="M 131.674894 307.584 
L 132.659442 307.584 
L 132.659442 298.385792 
L 131.674894 298.385792 
z
" clip-path="url(#pb29e738dc9)" style="fill: #1f77b4"/>
   </g>
   <g id="patch_67">
    <path d="M 166.134057 307.584 
L 167.118605 307.584 
L 167.118605 302.887042 
L 166.134057 302.887042 
z
" clip-path="url(#pb29e738dc9)" style="fill: #1f77b4"/>
   </g>
   <g id="patch_68">
    <path d="M 161.21132 307.584 
L 162.195867 307.584 
L 162.195867 301.712803 
L 161.21132 301.712803 
z
" clip-path="url(#pb29e738dc9)" style="fill: #1f77b4"/>
   </g>
   <g id="patch_69">
    <path d="M 150.13516 307.584 
L 151.119708 307.584 
L 151.119708 300.929977 
L 150.13516 300.929977 
z
" clip-path="url(#pb29e738dc9)" style="fill: #1f77b4"/>
   </g>
   <g id="patch_70">
    <path d="M 174.748848 307.584 
L 175.733396 307.584 
L 175.733396 302.104216 
L 174.748848 302.104216 
z
" clip-path="url(#pb29e738dc9)" style="fill: #1f77b4"/>
   </g>
   <g id="patch_71">
    <path d="M 175.979533 307.584 
L 176.96408 307.584 
L 176.96408 304.256988 
L 175.979533 304.256988 
z
" clip-path="url(#pb29e738dc9)" style="fill: #1f77b4"/>
   </g>
   <g id="patch_72">
    <path d="M 157.519267 307.584 
L 158.503814 307.584 
L 158.503814 302.887042 
L 157.519267 302.887042 
z
" clip-path="url(#pb29e738dc9)" style="fill: #1f77b4"/>
   </g>
   <g id="patch_73">
    <path d="M 142.751054 307.584 
L 143.735601 307.584 
L 143.735601 300.342857 
L 142.751054 300.342857 
z
" clip-path="url(#pb29e738dc9)" style="fill: #1f77b4"/>
   </g>
   <g id="patch_74">
    <path d="M 151.365845 307.584 
L 152.350392 307.584 
L 152.350392 302.299923 
L 151.365845 302.299923 
z
" clip-path="url(#pb29e738dc9)" style="fill: #1f77b4"/>
   </g>
   <g id="patch_75">
    <path d="M 148.904476 307.584 
L 149.889023 307.584 
L 149.889023 302.887042 
L 148.904476 302.887042 
z
" clip-path="url(#pb29e738dc9)" style="fill: #1f77b4"/>
   </g>
   <g id="patch_76">
    <path d="M 156.288582 307.584 
L 157.27313 307.584 
L 157.27313 301.712803 
L 156.288582 301.712803 
z
" clip-path="url(#pb29e738dc9)" style="fill: #1f77b4"/>
   </g>
   <g id="patch_77">
    <path d="M 159.980635 307.584 
L 160.965183 307.584 
L 160.965183 302.495629 
L 159.980635 302.495629 
z
" clip-path="url(#pb29e738dc9)" style="fill: #1f77b4"/>
   </g>
   <g id="patch_78">
    <path d="M 163.672689 307.584 
L 164.657236 307.584 
L 164.657236 302.691336 
L 163.672689 302.691336 
z
" clip-path="url(#pb29e738dc9)" style="fill: #1f77b4"/>
   </g>
   <g id="patch_79">
    <path d="M 177.210217 307.584 
L 178.194765 307.584 
L 178.194765 303.474162 
L 177.210217 303.474162 
z
" clip-path="url(#pb29e738dc9)" style="fill: #1f77b4"/>
   </g>
   <g id="patch_80">
    <path d="M 164.903373 307.584 
L 165.887921 307.584 
L 165.887921 302.887042 
L 164.903373 302.887042 
z
" clip-path="url(#pb29e738dc9)" style="fill: #1f77b4"/>
   </g>
   <g id="patch_81">
    <path d="M 158.749951 307.584 
L 159.734499 307.584 
L 159.734499 302.299923 
L 158.749951 302.299923 
z
" clip-path="url(#pb29e738dc9)" style="fill: #1f77b4"/>
   </g>
   <g id="patch_82">
    <path d="M 193.209114 307.584 
L 194.193662 307.584 
L 194.193662 305.039815 
L 193.209114 305.039815 
z
" clip-path="url(#pb29e738dc9)" style="fill: #1f77b4"/>
   </g>
   <g id="patch_83">
    <path d="M 171.056795 307.584 
L 172.041343 307.584 
L 172.041343 302.887042 
L 171.056795 302.887042 
z
" clip-path="url(#pb29e738dc9)" style="fill: #1f77b4"/>
   </g>
   <g id="patch_84">
    <path d="M 153.827213 307.584 
L 154.811761 307.584 
L 154.811761 303.082749 
L 153.827213 303.082749 
z
" clip-path="url(#pb29e738dc9)" style="fill: #1f77b4"/>
   </g>
   <g id="patch_85">
    <path d="M 184.594324 307.584 
L 185.578871 307.584 
L 185.578871 304.256988 
L 184.594324 304.256988 
z
" clip-path="url(#pb29e738dc9)" style="fill: #1f77b4"/>
   </g>
   <g id="patch_86">
    <path d="M 183.363639 307.584 
L 184.348187 307.584 
L 184.348187 301.90851 
L 183.363639 301.90851 
z
" clip-path="url(#pb29e738dc9)" style="fill: #1f77b4"/>
   </g>
   <g id="patch_87">
    <path d="M 169.826111 307.584 
L 170.810658 307.584 
L 170.810658 302.495629 
L 169.826111 302.495629 
z
" clip-path="url(#pb29e738dc9)" style="fill: #1f77b4"/>
   </g>
   <g id="patch_88">
    <path d="M 189.517061 307.584 
L 190.501609 307.584 
L 190.501609 305.235521 
L 189.517061 305.235521 
z
" clip-path="url(#pb29e738dc9)" style="fill: #1f77b4"/>
   </g>
   <g id="patch_89">
    <path d="M 185.825008 307.584 
L 186.809555 307.584 
L 186.809555 305.431228 
L 185.825008 305.431228 
z
" clip-path="url(#pb29e738dc9)" style="fill: #1f77b4"/>
   </g>
   <g id="patch_90">
    <path d="M 162.442004 307.584 
L 163.426552 307.584 
L 163.426552 302.299923 
L 162.442004 302.299923 
z
" clip-path="url(#pb29e738dc9)" style="fill: #1f77b4"/>
   </g>
   <g id="patch_91">
    <path d="M 187.055692 307.584 
L 188.04024 307.584 
L 188.04024 305.039815 
L 187.055692 305.039815 
z
" clip-path="url(#pb29e738dc9)" style="fill: #1f77b4"/>
   </g>
   <g id="patch_92">
    <path d="M 168.595426 307.584 
L 169.579974 307.584 
L 169.579974 303.865575 
L 168.595426 303.865575 
z
" clip-path="url(#pb29e738dc9)" style="fill: #1f77b4"/>
   </g>
   <g id="patch_93">
    <path d="M 190.747746 307.584 
L 191.732293 307.584 
L 191.732293 304.648402 
L 190.747746 304.648402 
z
" clip-path="url(#pb29e738dc9)" style="fill: #1f77b4"/>
   </g>
   <g id="patch_94">
    <path d="M 210.438696 307.584 
L 211.423244 307.584 
L 211.423244 305.039815 
L 210.438696 305.039815 
z
" clip-path="url(#pb29e738dc9)" style="fill: #1f77b4"/>
   </g>
   <g id="patch_95">
    <path d="M 194.439799 307.584 
L 195.424346 307.584 
L 195.424346 305.431228 
L 194.439799 305.431228 
z
" clip-path="url(#pb29e738dc9)" style="fill: #1f77b4"/>
   </g>
   <g id="patch_96">
    <path d="M 195.670483 307.584 
L 196.655031 307.584 
L 196.655031 304.256988 
L 195.670483 304.256988 
z
" clip-path="url(#pb29e738dc9)" style="fill: #1f77b4"/>
   </g>
   <g id="patch_97">
    <path d="M 178.440902 307.584 
L 179.425449 307.584 
L 179.425449 304.256988 
L 178.440902 304.256988 
z
" clip-path="url(#pb29e738dc9)" style="fill: #1f77b4"/>
   </g>
   <g id="patch_98">
    <path d="M 191.97843 307.584 
L 192.962977 307.584 
L 192.962977 304.648402 
L 191.97843 304.648402 
z
" clip-path="url(#pb29e738dc9)" style="fill: #1f77b4"/>
   </g>
   <g id="patch_99">
    <path d="M 188.286377 307.584 
L 189.270924 307.584 
L 189.270924 305.431228 
L 188.286377 305.431228 
z
" clip-path="url(#pb29e738dc9)" style="fill: #1f77b4"/>
   </g>
   <g id="patch_100">
    <path d="M 205.515958 307.584 
L 206.500506 307.584 
L 206.500506 306.214054 
L 205.515958 306.214054 
z
" clip-path="url(#pb29e738dc9)" style="fill: #1f77b4"/>
   </g>
   <g id="patch_101">
    <path d="M 225.206909 307.584 
L 226.191456 307.584 
L 226.191456 306.605467 
L 225.206909 306.605467 
z
" clip-path="url(#pb29e738dc9)" style="fill: #1f77b4"/>
   </g>
   <g id="patch_102">
    <path d="M 216.592118 307.584 
L 217.576666 307.584 
L 217.576666 306.409761 
L 216.592118 306.409761 
z
" clip-path="url(#pb29e738dc9)" style="fill: #1f77b4"/>
   </g>
   <g id="patch_103">
    <path d="M 221.514856 307.584 
L 222.499403 307.584 
L 222.499403 306.801174 
L 221.514856 306.801174 
z
" clip-path="url(#pb29e738dc9)" style="fill: #1f77b4"/>
   </g>
   <g id="patch_104">
    <path d="M 199.362536 307.584 
L 200.347084 307.584 
L 200.347084 305.431228 
L 199.362536 305.431228 
z
" clip-path="url(#pb29e738dc9)" style="fill: #1f77b4"/>
   </g>
   <g id="patch_105">
    <path d="M 173.518164 307.584 
L 174.502711 307.584 
L 174.502711 303.082749 
L 173.518164 303.082749 
z
" clip-path="url(#pb29e738dc9)" style="fill: #1f77b4"/>
   </g>
   <g id="patch_106">
    <path d="M 180.90227 307.584 
L 181.886818 307.584 
L 181.886818 304.648402 
L 180.90227 304.648402 
z
" clip-path="url(#pb29e738dc9)" style="fill: #1f77b4"/>
   </g>
   <g id="patch_107">
    <path d="M 204.285274 307.584 
L 205.269821 307.584 
L 205.269821 305.039815 
L 204.285274 305.039815 
z
" clip-path="url(#pb29e738dc9)" style="fill: #1f77b4"/>
   </g>
   <g id="patch_108">
    <path d="M 214.130749 307.584 
L 215.115297 307.584 
L 215.115297 306.409761 
L 214.130749 306.409761 
z
" clip-path="url(#pb29e738dc9)" style="fill: #1f77b4"/>
   </g>
   <g id="patch_109">
    <path d="M 238.744437 307.584 
L 239.728985 307.584 
L 239.728985 307.388293 
L 238.744437 307.388293 
z
" clip-path="url(#pb29e738dc9)" style="fill: #1f77b4"/>
   </g>
   <g id="patch_110">
    <path d="M 244.897859 307.584 
L 245.882407 307.584 
L 245.882407 306.801174 
L 244.897859 306.801174 
z
" clip-path="url(#pb29e738dc9)" style="fill: #1f77b4"/>
   </g>
   <g id="patch_111">
    <path d="M 217.822802 307.584 
L 218.80735 307.584 
L 218.80735 306.801174 
L 217.822802 306.801174 
z
" clip-path="url(#pb29e738dc9)" style="fill: #1f77b4"/>
   </g>
   <g id="patch_112">
    <path d="M 264.58881 307.584 
L 265.573357 307.584 
L 265.573357 307.192587 
L 264.58881 307.192587 
z
" clip-path="url(#pb29e738dc9)" style="fill: #1f77b4"/>
   </g>
   <g id="patch_113">
    <path d="M 196.901168 307.584 
L 197.885715 307.584 
L 197.885715 306.018347 
L 196.901168 306.018347 
z
" clip-path="url(#pb29e738dc9)" style="fill: #1f77b4"/>
   </g>
   <g id="patch_114">
    <path d="M 203.05459 307.584 
L 204.039137 307.584 
L 204.039137 305.431228 
L 203.05459 305.431228 
z
" clip-path="url(#pb29e738dc9)" style="fill: #1f77b4"/>
   </g>
   <g id="patch_115">
    <path d="M 179.671586 307.584 
L 180.656133 307.584 
L 180.656133 305.235521 
L 179.671586 305.235521 
z
" clip-path="url(#pb29e738dc9)" style="fill: #1f77b4"/>
   </g>
   <g id="patch_116">
    <path d="M 230.129646 307.584 
L 231.114194 307.584 
L 231.114194 306.409761 
L 230.129646 306.409761 
z
" clip-path="url(#pb29e738dc9)" style="fill: #1f77b4"/>
   </g>
   <g id="patch_117">
    <path d="M 211.66938 307.584 
L 212.653928 307.584 
L 212.653928 306.409761 
L 211.66938 306.409761 
z
" clip-path="url(#pb29e738dc9)" style="fill: #1f77b4"/>
   </g>
   <g id="patch_118">
    <path d="M 215.361434 307.584 
L 216.345981 307.584 
L 216.345981 306.409761 
L 215.361434 306.409761 
z
" clip-path="url(#pb29e738dc9)" style="fill: #1f77b4"/>
   </g>
   <g id="patch_119">
    <path d="M 207.977327 307.584 
L 208.961875 307.584 
L 208.961875 306.409761 
L 207.977327 306.409761 
z
" clip-path="url(#pb29e738dc9)" style="fill: #1f77b4"/>
   </g>
   <g id="patch_120">
    <path d="M 220.284171 307.584 
L 221.268719 307.584 
L 221.268719 306.605467 
L 220.284171 306.605467 
z
" clip-path="url(#pb29e738dc9)" style="fill: #1f77b4"/>
   </g>
   <g id="patch_121">
    <path d="M 226.437593 307.584 
L 227.422141 307.584 
L 227.422141 306.605467 
L 226.437593 306.605467 
z
" clip-path="url(#pb29e738dc9)" style="fill: #1f77b4"/>
   </g>
   <g id="patch_122">
    <path d="M 246.128544 307.584 
L 247.113091 307.584 
L 247.113091 307.192587 
L 246.128544 307.192587 
z
" clip-path="url(#pb29e738dc9)" style="fill: #1f77b4"/>
   </g>
   <g id="patch_123">
    <path d="M 249.820597 307.584 
L 250.805144 307.584 
L 250.805144 307.388293 
L 249.820597 307.388293 
z
" clip-path="url(#pb29e738dc9)" style="fill: #1f77b4"/>
   </g>
   <g id="patch_124">
    <path d="M 182.132955 307.584 
L 183.117502 307.584 
L 183.117502 304.648402 
L 182.132955 304.648402 
z
" clip-path="url(#pb29e738dc9)" style="fill: #1f77b4"/>
   </g>
   <g id="patch_125">
    <path d="M 251.051281 307.584 
L 252.035829 307.584 
L 252.035829 306.801174 
L 251.051281 306.801174 
z
" clip-path="url(#pb29e738dc9)" style="fill: #1f77b4"/>
   </g>
   <g id="patch_126">
    <path d="M 239.975122 307.584 
L 240.959669 307.584 
L 240.959669 307.192587 
L 239.975122 307.192587 
z
" clip-path="url(#pb29e738dc9)" style="fill: #1f77b4"/>
   </g>
   <g id="patch_127">
    <path d="M 212.900065 307.584 
L 213.884612 307.584 
L 213.884612 306.409761 
L 212.900065 306.409761 
z
" clip-path="url(#pb29e738dc9)" style="fill: #1f77b4"/>
   </g>
   <g id="patch_128">
    <path d="M 201.823905 307.584 
L 202.808453 307.584 
L 202.808453 305.431228 
L 201.823905 305.431228 
z
" clip-path="url(#pb29e738dc9)" style="fill: #1f77b4"/>
   </g>
   <g id="patch_129">
    <path d="M 231.360331 307.584 
L 232.344878 307.584 
L 232.344878 307.192587 
L 231.360331 307.192587 
z
" clip-path="url(#pb29e738dc9)" style="fill: #1f77b4"/>
   </g>
   <g id="patch_130">
    <path d="M 200.593221 307.584 
L 201.577768 307.584 
L 201.577768 306.018347 
L 200.593221 306.018347 
z
" clip-path="url(#pb29e738dc9)" style="fill: #1f77b4"/>
   </g>
   <g id="patch_131">
    <path d="M 248.589912 307.584 
L 249.57446 307.584 
L 249.57446 307.192587 
L 248.589912 307.192587 
z
" clip-path="url(#pb29e738dc9)" style="fill: #1f77b4"/>
   </g>
   <g id="patch_132">
    <path d="M 222.74554 307.584 
L 223.730088 307.584 
L 223.730088 307.192587 
L 222.74554 307.192587 
z
" clip-path="url(#pb29e738dc9)" style="fill: #1f77b4"/>
   </g>
   <g id="patch_133">
    <path d="M 206.746643 307.584 
L 207.73119 307.584 
L 207.73119 305.431228 
L 206.746643 305.431228 
z
" clip-path="url(#pb29e738dc9)" style="fill: #1f77b4"/>
   </g>
   <g id="patch_134">
    <path d="M 223.976224 307.584 
L 224.960772 307.584 
L 224.960772 306.99688 
L 223.976224 306.99688 
z
" clip-path="url(#pb29e738dc9)" style="fill: #1f77b4"/>
   </g>
   <g id="patch_135">
    <path d="M 228.898962 307.584 
L 229.88351 307.584 
L 229.88351 307.192587 
L 228.898962 307.192587 
z
" clip-path="url(#pb29e738dc9)" style="fill: #1f77b4"/>
   </g>
   <g id="patch_136">
    <path d="M 198.131852 307.584 
L 199.116399 307.584 
L 199.116399 306.409761 
L 198.131852 306.409761 
z
" clip-path="url(#pb29e738dc9)" style="fill: #1f77b4"/>
   </g>
   <g id="patch_137">
    <path d="M 242.43649 307.584 
L 243.421038 307.584 
L 243.421038 306.99688 
L 242.43649 306.99688 
z
" clip-path="url(#pb29e738dc9)" style="fill: #1f77b4"/>
   </g>
   <g id="patch_138">
    <path d="M 209.208012 307.584 
L 210.192559 307.584 
L 210.192559 306.214054 
L 209.208012 306.214054 
z
" clip-path="url(#pb29e738dc9)" style="fill: #1f77b4"/>
   </g>
   <g id="patch_139">
    <path d="M 254.743334 307.584 
L 255.727882 307.584 
L 255.727882 307.388293 
L 254.743334 307.388293 
z
" clip-path="url(#pb29e738dc9)" style="fill: #1f77b4"/>
   </g>
   <g id="patch_140">
    <path d="M 232.591015 307.584 
L 233.575563 307.584 
L 233.575563 306.214054 
L 232.591015 306.214054 
z
" clip-path="url(#pb29e738dc9)" style="fill: #1f77b4"/>
   </g>
   <g id="patch_141">
    <path d="M 247.359228 307.584 
L 248.343776 307.584 
L 248.343776 306.99688 
L 247.359228 306.99688 
z
" clip-path="url(#pb29e738dc9)" style="fill: #1f77b4"/>
   </g>
   <g id="patch_142">
    <path d="M 286.741129 307.584 
L 287.725676 307.584 
L 287.725676 307.388293 
L 286.741129 307.388293 
z
" clip-path="url(#pb29e738dc9)" style="fill: #1f77b4"/>
   </g>
   <g id="patch_143">
    <path d="M 276.895654 307.584 
L 277.880201 307.584 
L 277.880201 307.388293 
L 276.895654 307.388293 
z
" clip-path="url(#pb29e738dc9)" style="fill: #1f77b4"/>
   </g>
   <g id="patch_144">
    <path d="M 258.435388 307.584 
L 259.419935 307.584 
L 259.419935 307.192587 
L 258.435388 307.192587 
z
" clip-path="url(#pb29e738dc9)" style="fill: #1f77b4"/>
   </g>
   <g id="patch_145">
    <path d="M 255.974019 307.584 
L 256.958566 307.584 
L 256.958566 307.192587 
L 255.974019 307.192587 
z
" clip-path="url(#pb29e738dc9)" style="fill: #1f77b4"/>
   </g>
   <g id="patch_146">
    <path d="M 265.819494 307.584 
L 266.804042 307.584 
L 266.804042 307.388293 
L 265.819494 307.388293 
z
" clip-path="url(#pb29e738dc9)" style="fill: #1f77b4"/>
   </g>
   <g id="patch_147">
    <path d="M 260.896756 307.584 
L 261.881304 307.584 
L 261.881304 306.801174 
L 260.896756 306.801174 
z
" clip-path="url(#pb29e738dc9)" style="fill: #1f77b4"/>
   </g>
   <g id="patch_148">
    <path d="M 292.894551 307.584 
L 293.879098 307.584 
L 293.879098 307.192587 
L 292.894551 307.192587 
z
" clip-path="url(#pb29e738dc9)" style="fill: #1f77b4"/>
   </g>
   <g id="patch_149">
    <path d="M 219.053487 307.584 
L 220.038034 307.584 
L 220.038034 306.801174 
L 219.053487 306.801174 
z
" clip-path="url(#pb29e738dc9)" style="fill: #1f77b4"/>
   </g>
   <g id="patch_150">
    <path d="M 243.667175 307.584 
L 244.651722 307.584 
L 244.651722 307.388293 
L 243.667175 307.388293 
z
" clip-path="url(#pb29e738dc9)" style="fill: #1f77b4"/>
   </g>
   <g id="patch_151">
    <path d="M 289.202498 307.584 
L 290.187045 307.584 
L 290.187045 307.388293 
L 289.202498 307.388293 
z
" clip-path="url(#pb29e738dc9)" style="fill: #1f77b4"/>
   </g>
   <g id="patch_152">
    <path d="M 237.513753 307.584 
L 238.4983 307.584 
L 238.4983 307.192587 
L 237.513753 307.192587 
z
" clip-path="url(#pb29e738dc9)" style="fill: #1f77b4"/>
   </g>
   <g id="patch_153">
    <path d="M 253.51265 307.584 
L 254.497198 307.584 
L 254.497198 307.388293 
L 253.51265 307.388293 
z
" clip-path="url(#pb29e738dc9)" style="fill: #1f77b4"/>
   </g>
   <g id="patch_154">
    <path d="M 326.12303 307.584 
L 327.107577 307.584 
L 327.107577 307.388293 
L 326.12303 307.388293 
z
" clip-path="url(#pb29e738dc9)" style="fill: #1f77b4"/>
   </g>
   <g id="patch_155">
    <path d="M 313.816186 307.584 
L 314.800733 307.584 
L 314.800733 307.192587 
L 313.816186 307.192587 
z
" clip-path="url(#pb29e738dc9)" style="fill: #1f77b4"/>
   </g>
   <g id="patch_156">
    <path d="M 241.205806 307.584 
L 242.190354 307.584 
L 242.190354 307.192587 
L 241.205806 307.192587 
z
" clip-path="url(#pb29e738dc9)" style="fill: #1f77b4"/>
   </g>
   <g id="patch_157">
    <path d="M 227.668278 307.584 
L 228.652825 307.584 
L 228.652825 307.388293 
L 227.668278 307.388293 
z
" clip-path="url(#pb29e738dc9)" style="fill: #1f77b4"/>
   </g>
   <g id="patch_158">
    <path d="M 252.281966 307.584 
L 253.266513 307.584 
L 253.266513 307.388293 
L 252.281966 307.388293 
z
" clip-path="url(#pb29e738dc9)" style="fill: #1f77b4"/>
   </g>
   <g id="patch_159">
    <path d="M 274.434285 307.584 
L 275.418832 307.584 
L 275.418832 307.388293 
L 274.434285 307.388293 
z
" clip-path="url(#pb29e738dc9)" style="fill: #1f77b4"/>
   </g>
   <g id="patch_160">
    <path d="M 275.664969 307.584 
L 276.649517 307.584 
L 276.649517 307.388293 
L 275.664969 307.388293 
z
" clip-path="url(#pb29e738dc9)" style="fill: #1f77b4"/>
   </g>
   <g id="patch_161">
    <path d="M 268.280863 307.584 
L 269.26541 307.584 
L 269.26541 307.192587 
L 268.280863 307.192587 
z
" clip-path="url(#pb29e738dc9)" style="fill: #1f77b4"/>
   </g>
   <g id="patch_162">
    <path d="M 269.511547 307.584 
L 270.496095 307.584 
L 270.496095 307.388293 
L 269.511547 307.388293 
z
" clip-path="url(#pb29e738dc9)" style="fill: #1f77b4"/>
   </g>
   <g id="patch_163">
    <path d="M 233.8217 307.584 
L 234.806247 307.584 
L 234.806247 306.99688 
L 233.8217 306.99688 
z
" clip-path="url(#pb29e738dc9)" style="fill: #1f77b4"/>
   </g>
   <g id="patch_164">
    <path d="M 235.052384 307.584 
L 236.036932 307.584 
L 236.036932 307.192587 
L 235.052384 307.192587 
z
" clip-path="url(#pb29e738dc9)" style="fill: #1f77b4"/>
   </g>
   <g id="patch_165">
    <path d="M 397.502725 307.584 
L 398.487273 307.584 
L 398.487273 307.388293 
L 397.502725 307.388293 
z
" clip-path="url(#pb29e738dc9)" style="fill: #1f77b4"/>
   </g>
   <g id="patch_166">
    <path d="M 267.050179 307.584 
L 268.034726 307.584 
L 268.034726 307.192587 
L 267.050179 307.192587 
z
" clip-path="url(#pb29e738dc9)" style="fill: #1f77b4"/>
   </g>
   <g id="patch_167">
    <path d="M 263.358125 307.584 
L 264.342673 307.584 
L 264.342673 307.388293 
L 263.358125 307.388293 
z
" clip-path="url(#pb29e738dc9)" style="fill: #1f77b4"/>
   </g>
   <g id="patch_168">
    <path d="M 333.507136 307.584 
L 334.491684 307.584 
L 334.491684 307.388293 
L 333.507136 307.388293 
z
" clip-path="url(#pb29e738dc9)" style="fill: #1f77b4"/>
   </g>
   <g id="matplotlib.axis_1">
    <g id="xtick_1">
     <g id="line2d_1">
      <defs>
       <path id="m11847e620c" d="M 0 0 
L 0 3.5 
" style="stroke: #000000; stroke-width: 0.8"/>
      </defs>
      <g>
       <use xlink:href="#m11847e620c" x="74.325001" y="307.584" style="stroke: #000000; stroke-width: 0.8"/>
      </g>
     </g>
     <g id="text_1">
      <!-- 0 -->
      <g transform="translate(71.143751 322.182437) scale(0.1 -0.1)">
       <defs>
        <path id="DejaVuSans-30" d="M 2034 4250 
Q 1547 4250 1301 3770 
Q 1056 3291 1056 2328 
Q 1056 1369 1301 889 
Q 1547 409 2034 409 
Q 2525 409 2770 889 
Q 3016 1369 3016 2328 
Q 3016 3291 2770 3770 
Q 2525 4250 2034 4250 
z
M 2034 4750 
Q 2819 4750 3233 4129 
Q 3647 3509 3647 2328 
Q 3647 1150 3233 529 
Q 2819 -91 2034 -91 
Q 1250 -91 836 529 
Q 422 1150 422 2328 
Q 422 3509 836 4129 
Q 1250 4750 2034 4750 
z
" transform="scale(0.015625)"/>
       </defs>
       <use xlink:href="#DejaVuSans-30"/>
      </g>
     </g>
    </g>
    <g id="xtick_2">
     <g id="line2d_2">
      <g>
       <use xlink:href="#m11847e620c" x="135.859221" y="307.584" style="stroke: #000000; stroke-width: 0.8"/>
      </g>
     </g>
     <g id="text_2">
      <!-- 50 -->
      <g transform="translate(129.496721 322.182437) scale(0.1 -0.1)">
       <defs>
        <path id="DejaVuSans-35" d="M 691 4666 
L 3169 4666 
L 3169 4134 
L 1269 4134 
L 1269 2991 
Q 1406 3038 1543 3061 
Q 1681 3084 1819 3084 
Q 2600 3084 3056 2656 
Q 3513 2228 3513 1497 
Q 3513 744 3044 326 
Q 2575 -91 1722 -91 
Q 1428 -91 1123 -41 
Q 819 9 494 109 
L 494 744 
Q 775 591 1075 516 
Q 1375 441 1709 441 
Q 2250 441 2565 725 
Q 2881 1009 2881 1497 
Q 2881 1984 2565 2268 
Q 2250 2553 1709 2553 
Q 1456 2553 1204 2497 
Q 953 2441 691 2322 
L 691 4666 
z
" transform="scale(0.015625)"/>
       </defs>
       <use xlink:href="#DejaVuSans-35"/>
       <use xlink:href="#DejaVuSans-30" x="63.623047"/>
      </g>
     </g>
    </g>
    <g id="xtick_3">
     <g id="line2d_3">
      <g>
       <use xlink:href="#m11847e620c" x="197.393441" y="307.584" style="stroke: #000000; stroke-width: 0.8"/>
      </g>
     </g>
     <g id="text_3">
      <!-- 100 -->
      <g transform="translate(187.849691 322.182437) scale(0.1 -0.1)">
       <defs>
        <path id="DejaVuSans-31" d="M 794 531 
L 1825 531 
L 1825 4091 
L 703 3866 
L 703 4441 
L 1819 4666 
L 2450 4666 
L 2450 531 
L 3481 531 
L 3481 0 
L 794 0 
L 794 531 
z
" transform="scale(0.015625)"/>
       </defs>
       <use xlink:href="#DejaVuSans-31"/>
       <use xlink:href="#DejaVuSans-30" x="63.623047"/>
       <use xlink:href="#DejaVuSans-30" x="127.246094"/>
      </g>
     </g>
    </g>
    <g id="xtick_4">
     <g id="line2d_4">
      <g>
       <use xlink:href="#m11847e620c" x="258.927661" y="307.584" style="stroke: #000000; stroke-width: 0.8"/>
      </g>
     </g>
     <g id="text_4">
      <!-- 150 -->
      <g transform="translate(249.383911 322.182437) scale(0.1 -0.1)">
       <use xlink:href="#DejaVuSans-31"/>
       <use xlink:href="#DejaVuSans-35" x="63.623047"/>
       <use xlink:href="#DejaVuSans-30" x="127.246094"/>
      </g>
     </g>
    </g>
    <g id="xtick_5">
     <g id="line2d_5">
      <g>
       <use xlink:href="#m11847e620c" x="320.461882" y="307.584" style="stroke: #000000; stroke-width: 0.8"/>
      </g>
     </g>
     <g id="text_5">
      <!-- 200 -->
      <g transform="translate(310.918132 322.182437) scale(0.1 -0.1)">
       <defs>
        <path id="DejaVuSans-32" d="M 1228 531 
L 3431 531 
L 3431 0 
L 469 0 
L 469 531 
Q 828 903 1448 1529 
Q 2069 2156 2228 2338 
Q 2531 2678 2651 2914 
Q 2772 3150 2772 3378 
Q 2772 3750 2511 3984 
Q 2250 4219 1831 4219 
Q 1534 4219 1204 4116 
Q 875 4013 500 3803 
L 500 4441 
Q 881 4594 1212 4672 
Q 1544 4750 1819 4750 
Q 2544 4750 2975 4387 
Q 3406 4025 3406 3419 
Q 3406 3131 3298 2873 
Q 3191 2616 2906 2266 
Q 2828 2175 2409 1742 
Q 1991 1309 1228 531 
z
" transform="scale(0.015625)"/>
       </defs>
       <use xlink:href="#DejaVuSans-32"/>
       <use xlink:href="#DejaVuSans-30" x="63.623047"/>
       <use xlink:href="#DejaVuSans-30" x="127.246094"/>
      </g>
     </g>
    </g>
    <g id="xtick_6">
     <g id="line2d_6">
      <g>
       <use xlink:href="#m11847e620c" x="381.996102" y="307.584" style="stroke: #000000; stroke-width: 0.8"/>
      </g>
     </g>
     <g id="text_6">
      <!-- 250 -->
      <g transform="translate(372.452352 322.182437) scale(0.1 -0.1)">
       <use xlink:href="#DejaVuSans-32"/>
       <use xlink:href="#DejaVuSans-35" x="63.623047"/>
       <use xlink:href="#DejaVuSans-30" x="127.246094"/>
      </g>
     </g>
    </g>
    <g id="text_7">
     <!-- Depth of Element -->
     <g transform="translate(192.231875 335.860562) scale(0.1 -0.1)">
      <defs>
       <path id="DejaVuSans-44" d="M 1259 4147 
L 1259 519 
L 2022 519 
Q 2988 519 3436 956 
Q 3884 1394 3884 2338 
Q 3884 3275 3436 3711 
Q 2988 4147 2022 4147 
L 1259 4147 
z
M 628 4666 
L 1925 4666 
Q 3281 4666 3915 4102 
Q 4550 3538 4550 2338 
Q 4550 1131 3912 565 
Q 3275 0 1925 0 
L 628 0 
L 628 4666 
z
" transform="scale(0.015625)"/>
       <path id="DejaVuSans-65" d="M 3597 1894 
L 3597 1613 
L 953 1613 
Q 991 1019 1311 708 
Q 1631 397 2203 397 
Q 2534 397 2845 478 
Q 3156 559 3463 722 
L 3463 178 
Q 3153 47 2828 -22 
Q 2503 -91 2169 -91 
Q 1331 -91 842 396 
Q 353 884 353 1716 
Q 353 2575 817 3079 
Q 1281 3584 2069 3584 
Q 2775 3584 3186 3129 
Q 3597 2675 3597 1894 
z
M 3022 2063 
Q 3016 2534 2758 2815 
Q 2500 3097 2075 3097 
Q 1594 3097 1305 2825 
Q 1016 2553 972 2059 
L 3022 2063 
z
" transform="scale(0.015625)"/>
       <path id="DejaVuSans-70" d="M 1159 525 
L 1159 -1331 
L 581 -1331 
L 581 3500 
L 1159 3500 
L 1159 2969 
Q 1341 3281 1617 3432 
Q 1894 3584 2278 3584 
Q 2916 3584 3314 3078 
Q 3713 2572 3713 1747 
Q 3713 922 3314 415 
Q 2916 -91 2278 -91 
Q 1894 -91 1617 61 
Q 1341 213 1159 525 
z
M 3116 1747 
Q 3116 2381 2855 2742 
Q 2594 3103 2138 3103 
Q 1681 3103 1420 2742 
Q 1159 2381 1159 1747 
Q 1159 1113 1420 752 
Q 1681 391 2138 391 
Q 2594 391 2855 752 
Q 3116 1113 3116 1747 
z
" transform="scale(0.015625)"/>
       <path id="DejaVuSans-74" d="M 1172 4494 
L 1172 3500 
L 2356 3500 
L 2356 3053 
L 1172 3053 
L 1172 1153 
Q 1172 725 1289 603 
Q 1406 481 1766 481 
L 2356 481 
L 2356 0 
L 1766 0 
Q 1100 0 847 248 
Q 594 497 594 1153 
L 594 3053 
L 172 3053 
L 172 3500 
L 594 3500 
L 594 4494 
L 1172 4494 
z
" transform="scale(0.015625)"/>
       <path id="DejaVuSans-68" d="M 3513 2113 
L 3513 0 
L 2938 0 
L 2938 2094 
Q 2938 2591 2744 2837 
Q 2550 3084 2163 3084 
Q 1697 3084 1428 2787 
Q 1159 2491 1159 1978 
L 1159 0 
L 581 0 
L 581 4863 
L 1159 4863 
L 1159 2956 
Q 1366 3272 1645 3428 
Q 1925 3584 2291 3584 
Q 2894 3584 3203 3211 
Q 3513 2838 3513 2113 
z
" transform="scale(0.015625)"/>
       <path id="DejaVuSans-20" transform="scale(0.015625)"/>
       <path id="DejaVuSans-6f" d="M 1959 3097 
Q 1497 3097 1228 2736 
Q 959 2375 959 1747 
Q 959 1119 1226 758 
Q 1494 397 1959 397 
Q 2419 397 2687 759 
Q 2956 1122 2956 1747 
Q 2956 2369 2687 2733 
Q 2419 3097 1959 3097 
z
M 1959 3584 
Q 2709 3584 3137 3096 
Q 3566 2609 3566 1747 
Q 3566 888 3137 398 
Q 2709 -91 1959 -91 
Q 1206 -91 779 398 
Q 353 888 353 1747 
Q 353 2609 779 3096 
Q 1206 3584 1959 3584 
z
" transform="scale(0.015625)"/>
       <path id="DejaVuSans-66" d="M 2375 4863 
L 2375 4384 
L 1825 4384 
Q 1516 4384 1395 4259 
Q 1275 4134 1275 3809 
L 1275 3500 
L 2222 3500 
L 2222 3053 
L 1275 3053 
L 1275 0 
L 697 0 
L 697 3053 
L 147 3053 
L 147 3500 
L 697 3500 
L 697 3744 
Q 697 4328 969 4595 
Q 1241 4863 1831 4863 
L 2375 4863 
z
" transform="scale(0.015625)"/>
       <path id="DejaVuSans-45" d="M 628 4666 
L 3578 4666 
L 3578 4134 
L 1259 4134 
L 1259 2753 
L 3481 2753 
L 3481 2222 
L 1259 2222 
L 1259 531 
L 3634 531 
L 3634 0 
L 628 0 
L 628 4666 
z
" transform="scale(0.015625)"/>
       <path id="DejaVuSans-6c" d="M 603 4863 
L 1178 4863 
L 1178 0 
L 603 0 
L 603 4863 
z
" transform="scale(0.015625)"/>
       <path id="DejaVuSans-6d" d="M 3328 2828 
Q 3544 3216 3844 3400 
Q 4144 3584 4550 3584 
Q 5097 3584 5394 3201 
Q 5691 2819 5691 2113 
L 5691 0 
L 5113 0 
L 5113 2094 
Q 5113 2597 4934 2840 
Q 4756 3084 4391 3084 
Q 3944 3084 3684 2787 
Q 3425 2491 3425 1978 
L 3425 0 
L 2847 0 
L 2847 2094 
Q 2847 2600 2669 2842 
Q 2491 3084 2119 3084 
Q 1678 3084 1418 2786 
Q 1159 2488 1159 1978 
L 1159 0 
L 581 0 
L 581 3500 
L 1159 3500 
L 1159 2956 
Q 1356 3278 1631 3431 
Q 1906 3584 2284 3584 
Q 2666 3584 2933 3390 
Q 3200 3197 3328 2828 
z
" transform="scale(0.015625)"/>
       <path id="DejaVuSans-6e" d="M 3513 2113 
L 3513 0 
L 2938 0 
L 2938 2094 
Q 2938 2591 2744 2837 
Q 2550 3084 2163 3084 
Q 1697 3084 1428 2787 
Q 1159 2491 1159 1978 
L 1159 0 
L 581 0 
L 581 3500 
L 1159 3500 
L 1159 2956 
Q 1366 3272 1645 3428 
Q 1925 3584 2291 3584 
Q 2894 3584 3203 3211 
Q 3513 2838 3513 2113 
z
" transform="scale(0.015625)"/>
      </defs>
      <use xlink:href="#DejaVuSans-44"/>
      <use xlink:href="#DejaVuSans-65" x="77.001953"/>
      <use xlink:href="#DejaVuSans-70" x="138.525391"/>
      <use xlink:href="#DejaVuSans-74" x="202.001953"/>
      <use xlink:href="#DejaVuSans-68" x="241.210938"/>
      <use xlink:href="#DejaVuSans-20" x="304.589844"/>
      <use xlink:href="#DejaVuSans-6f" x="336.376953"/>
      <use xlink:href="#DejaVuSans-66" x="397.558594"/>
      <use xlink:href="#DejaVuSans-20" x="432.763672"/>
      <use xlink:href="#DejaVuSans-45" x="464.550781"/>
      <use xlink:href="#DejaVuSans-6c" x="527.734375"/>
      <use xlink:href="#DejaVuSans-65" x="555.517578"/>
      <use xlink:href="#DejaVuSans-6d" x="617.041016"/>
      <use xlink:href="#DejaVuSans-65" x="714.453125"/>
      <use xlink:href="#DejaVuSans-6e" x="775.976562"/>
      <use xlink:href="#DejaVuSans-74" x="839.355469"/>
     </g>
    </g>
   </g>
   <g id="matplotlib.axis_2">
    <g id="ytick_1">
     <g id="line2d_7">
      <defs>
       <path id="mb6e90613f7" d="M 0 0 
L -3.5 0 
" style="stroke: #000000; stroke-width: 0.8"/>
      </defs>
      <g>
       <use xlink:href="#mb6e90613f7" x="57.6" y="307.584" style="stroke: #000000; stroke-width: 0.8"/>
      </g>
     </g>
     <g id="text_8">
      <!-- 0 -->
      <g transform="translate(44.2375 311.383219) scale(0.1 -0.1)">
       <use xlink:href="#DejaVuSans-30"/>
      </g>
     </g>
    </g>
    <g id="ytick_2">
     <g id="line2d_8">
      <g>
       <use xlink:href="#mb6e90613f7" x="57.6" y="268.442687" style="stroke: #000000; stroke-width: 0.8"/>
      </g>
     </g>
     <g id="text_9">
      <!-- 200 -->
      <g transform="translate(31.5125 272.241906) scale(0.1 -0.1)">
       <use xlink:href="#DejaVuSans-32"/>
       <use xlink:href="#DejaVuSans-30" x="63.623047"/>
       <use xlink:href="#DejaVuSans-30" x="127.246094"/>
      </g>
     </g>
    </g>
    <g id="ytick_3">
     <g id="line2d_9">
      <g>
       <use xlink:href="#mb6e90613f7" x="57.6" y="229.301375" style="stroke: #000000; stroke-width: 0.8"/>
      </g>
     </g>
     <g id="text_10">
      <!-- 400 -->
      <g transform="translate(31.5125 233.100593) scale(0.1 -0.1)">
       <defs>
        <path id="DejaVuSans-34" d="M 2419 4116 
L 825 1625 
L 2419 1625 
L 2419 4116 
z
M 2253 4666 
L 3047 4666 
L 3047 1625 
L 3713 1625 
L 3713 1100 
L 3047 1100 
L 3047 0 
L 2419 0 
L 2419 1100 
L 313 1100 
L 313 1709 
L 2253 4666 
z
" transform="scale(0.015625)"/>
       </defs>
       <use xlink:href="#DejaVuSans-34"/>
       <use xlink:href="#DejaVuSans-30" x="63.623047"/>
       <use xlink:href="#DejaVuSans-30" x="127.246094"/>
      </g>
     </g>
    </g>
    <g id="ytick_4">
     <g id="line2d_10">
      <g>
       <use xlink:href="#mb6e90613f7" x="57.6" y="190.160062" style="stroke: #000000; stroke-width: 0.8"/>
      </g>
     </g>
     <g id="text_11">
      <!-- 600 -->
      <g transform="translate(31.5125 193.959281) scale(0.1 -0.1)">
       <defs>
        <path id="DejaVuSans-36" d="M 2113 2584 
Q 1688 2584 1439 2293 
Q 1191 2003 1191 1497 
Q 1191 994 1439 701 
Q 1688 409 2113 409 
Q 2538 409 2786 701 
Q 3034 994 3034 1497 
Q 3034 2003 2786 2293 
Q 2538 2584 2113 2584 
z
M 3366 4563 
L 3366 3988 
Q 3128 4100 2886 4159 
Q 2644 4219 2406 4219 
Q 1781 4219 1451 3797 
Q 1122 3375 1075 2522 
Q 1259 2794 1537 2939 
Q 1816 3084 2150 3084 
Q 2853 3084 3261 2657 
Q 3669 2231 3669 1497 
Q 3669 778 3244 343 
Q 2819 -91 2113 -91 
Q 1303 -91 875 529 
Q 447 1150 447 2328 
Q 447 3434 972 4092 
Q 1497 4750 2381 4750 
Q 2619 4750 2861 4703 
Q 3103 4656 3366 4563 
z
" transform="scale(0.015625)"/>
       </defs>
       <use xlink:href="#DejaVuSans-36"/>
       <use xlink:href="#DejaVuSans-30" x="63.623047"/>
       <use xlink:href="#DejaVuSans-30" x="127.246094"/>
      </g>
     </g>
    </g>
    <g id="ytick_5">
     <g id="line2d_11">
      <g>
       <use xlink:href="#mb6e90613f7" x="57.6" y="151.018749" style="stroke: #000000; stroke-width: 0.8"/>
      </g>
     </g>
     <g id="text_12">
      <!-- 800 -->
      <g transform="translate(31.5125 154.817968) scale(0.1 -0.1)">
       <defs>
        <path id="DejaVuSans-38" d="M 2034 2216 
Q 1584 2216 1326 1975 
Q 1069 1734 1069 1313 
Q 1069 891 1326 650 
Q 1584 409 2034 409 
Q 2484 409 2743 651 
Q 3003 894 3003 1313 
Q 3003 1734 2745 1975 
Q 2488 2216 2034 2216 
z
M 1403 2484 
Q 997 2584 770 2862 
Q 544 3141 544 3541 
Q 544 4100 942 4425 
Q 1341 4750 2034 4750 
Q 2731 4750 3128 4425 
Q 3525 4100 3525 3541 
Q 3525 3141 3298 2862 
Q 3072 2584 2669 2484 
Q 3125 2378 3379 2068 
Q 3634 1759 3634 1313 
Q 3634 634 3220 271 
Q 2806 -91 2034 -91 
Q 1263 -91 848 271 
Q 434 634 434 1313 
Q 434 1759 690 2068 
Q 947 2378 1403 2484 
z
M 1172 3481 
Q 1172 3119 1398 2916 
Q 1625 2713 2034 2713 
Q 2441 2713 2670 2916 
Q 2900 3119 2900 3481 
Q 2900 3844 2670 4047 
Q 2441 4250 2034 4250 
Q 1625 4250 1398 4047 
Q 1172 3844 1172 3481 
z
" transform="scale(0.015625)"/>
       </defs>
       <use xlink:href="#DejaVuSans-38"/>
       <use xlink:href="#DejaVuSans-30" x="63.623047"/>
       <use xlink:href="#DejaVuSans-30" x="127.246094"/>
      </g>
     </g>
    </g>
    <g id="ytick_6">
     <g id="line2d_12">
      <g>
       <use xlink:href="#mb6e90613f7" x="57.6" y="111.877436" style="stroke: #000000; stroke-width: 0.8"/>
      </g>
     </g>
     <g id="text_13">
      <!-- 1000 -->
      <g transform="translate(25.15 115.676655) scale(0.1 -0.1)">
       <use xlink:href="#DejaVuSans-31"/>
       <use xlink:href="#DejaVuSans-30" x="63.623047"/>
       <use xlink:href="#DejaVuSans-30" x="127.246094"/>
       <use xlink:href="#DejaVuSans-30" x="190.869141"/>
      </g>
     </g>
    </g>
    <g id="ytick_7">
     <g id="line2d_13">
      <g>
       <use xlink:href="#mb6e90613f7" x="57.6" y="72.736124" style="stroke: #000000; stroke-width: 0.8"/>
      </g>
     </g>
     <g id="text_14">
      <!-- 1200 -->
      <g transform="translate(25.15 76.535342) scale(0.1 -0.1)">
       <use xlink:href="#DejaVuSans-31"/>
       <use xlink:href="#DejaVuSans-32" x="63.623047"/>
       <use xlink:href="#DejaVuSans-30" x="127.246094"/>
       <use xlink:href="#DejaVuSans-30" x="190.869141"/>
      </g>
     </g>
    </g>
    <g id="text_15">
     <!-- Number of Elements -->
     <g transform="translate(19.070312 225.917062) rotate(-90) scale(0.1 -0.1)">
      <defs>
       <path id="DejaVuSans-4e" d="M 628 4666 
L 1478 4666 
L 3547 763 
L 3547 4666 
L 4159 4666 
L 4159 0 
L 3309 0 
L 1241 3903 
L 1241 0 
L 628 0 
L 628 4666 
z
" transform="scale(0.015625)"/>
       <path id="DejaVuSans-75" d="M 544 1381 
L 544 3500 
L 1119 3500 
L 1119 1403 
Q 1119 906 1312 657 
Q 1506 409 1894 409 
Q 2359 409 2629 706 
Q 2900 1003 2900 1516 
L 2900 3500 
L 3475 3500 
L 3475 0 
L 2900 0 
L 2900 538 
Q 2691 219 2414 64 
Q 2138 -91 1772 -91 
Q 1169 -91 856 284 
Q 544 659 544 1381 
z
M 1991 3584 
L 1991 3584 
z
" transform="scale(0.015625)"/>
       <path id="DejaVuSans-62" d="M 3116 1747 
Q 3116 2381 2855 2742 
Q 2594 3103 2138 3103 
Q 1681 3103 1420 2742 
Q 1159 2381 1159 1747 
Q 1159 1113 1420 752 
Q 1681 391 2138 391 
Q 2594 391 2855 752 
Q 3116 1113 3116 1747 
z
M 1159 2969 
Q 1341 3281 1617 3432 
Q 1894 3584 2278 3584 
Q 2916 3584 3314 3078 
Q 3713 2572 3713 1747 
Q 3713 922 3314 415 
Q 2916 -91 2278 -91 
Q 1894 -91 1617 61 
Q 1341 213 1159 525 
L 1159 0 
L 581 0 
L 581 4863 
L 1159 4863 
L 1159 2969 
z
" transform="scale(0.015625)"/>
       <path id="DejaVuSans-72" d="M 2631 2963 
Q 2534 3019 2420 3045 
Q 2306 3072 2169 3072 
Q 1681 3072 1420 2755 
Q 1159 2438 1159 1844 
L 1159 0 
L 581 0 
L 581 3500 
L 1159 3500 
L 1159 2956 
Q 1341 3275 1631 3429 
Q 1922 3584 2338 3584 
Q 2397 3584 2469 3576 
Q 2541 3569 2628 3553 
L 2631 2963 
z
" transform="scale(0.015625)"/>
       <path id="DejaVuSans-73" d="M 2834 3397 
L 2834 2853 
Q 2591 2978 2328 3040 
Q 2066 3103 1784 3103 
Q 1356 3103 1142 2972 
Q 928 2841 928 2578 
Q 928 2378 1081 2264 
Q 1234 2150 1697 2047 
L 1894 2003 
Q 2506 1872 2764 1633 
Q 3022 1394 3022 966 
Q 3022 478 2636 193 
Q 2250 -91 1575 -91 
Q 1294 -91 989 -36 
Q 684 19 347 128 
L 347 722 
Q 666 556 975 473 
Q 1284 391 1588 391 
Q 1994 391 2212 530 
Q 2431 669 2431 922 
Q 2431 1156 2273 1281 
Q 2116 1406 1581 1522 
L 1381 1569 
Q 847 1681 609 1914 
Q 372 2147 372 2553 
Q 372 3047 722 3315 
Q 1072 3584 1716 3584 
Q 2034 3584 2315 3537 
Q 2597 3491 2834 3397 
z
" transform="scale(0.015625)"/>
      </defs>
      <use xlink:href="#DejaVuSans-4e"/>
      <use xlink:href="#DejaVuSans-75" x="74.804688"/>
      <use xlink:href="#DejaVuSans-6d" x="138.183594"/>
      <use xlink:href="#DejaVuSans-62" x="235.595703"/>
      <use xlink:href="#DejaVuSans-65" x="299.072266"/>
      <use xlink:href="#DejaVuSans-72" x="360.595703"/>
      <use xlink:href="#DejaVuSans-20" x="401.708984"/>
      <use xlink:href="#DejaVuSans-6f" x="433.496094"/>
      <use xlink:href="#DejaVuSans-66" x="494.677734"/>
      <use xlink:href="#DejaVuSans-20" x="529.882812"/>
      <use xlink:href="#DejaVuSans-45" x="561.669922"/>
      <use xlink:href="#DejaVuSans-6c" x="624.853516"/>
      <use xlink:href="#DejaVuSans-65" x="652.636719"/>
      <use xlink:href="#DejaVuSans-6d" x="714.160156"/>
      <use xlink:href="#DejaVuSans-65" x="811.572266"/>
      <use xlink:href="#DejaVuSans-6e" x="873.095703"/>
      <use xlink:href="#DejaVuSans-74" x="936.474609"/>
      <use xlink:href="#DejaVuSans-73" x="975.683594"/>
     </g>
    </g>
   </g>
   <g id="patch_169">
    <path d="M 57.6 307.584 
L 57.6 41.472 
" style="fill: none; stroke: #000000; stroke-width: 0.8; stroke-linejoin: miter; stroke-linecap: square"/>
   </g>
   <g id="patch_170">
    <path d="M 414.72 307.584 
L 414.72 41.472 
" style="fill: none; stroke: #000000; stroke-width: 0.8; stroke-linejoin: miter; stroke-linecap: square"/>
   </g>
   <g id="patch_171">
    <path d="M 57.6 307.584 
L 414.72 307.584 
" style="fill: none; stroke: #000000; stroke-width: 0.8; stroke-linejoin: miter; stroke-linecap: square"/>
   </g>
   <g id="patch_172">
    <path d="M 57.6 41.472 
L 414.72 41.472 
" style="fill: none; stroke: #000000; stroke-width: 0.8; stroke-linejoin: miter; stroke-linecap: square"/>
   </g>
  </g>
 </g>
 <defs>
  <clipPath id="pb29e738dc9">
   <rect x="57.6" y="41.472" width="357.12" height="266.112"/>
  </clipPath>
 </defs>
</svg>
