<?xml version="1.0" encoding="utf-8" standalone="no"?>
<!DOCTYPE svg PUBLIC "-//W3C//DTD SVG 1.1//EN"
  "http://www.w3.org/Graphics/SVG/1.1/DTD/svg11.dtd">
<svg xmlns:xlink="http://www.w3.org/1999/xlink" width="460.8pt" height="345.6pt" viewBox="0 0 460.8 345.6" xmlns="http://www.w3.org/2000/svg" version="1.1">
 <metadata>
  <rdf:RDF xmlns:dc="http://purl.org/dc/elements/1.1/" xmlns:cc="http://creativecommons.org/ns#" xmlns:rdf="http://www.w3.org/1999/02/22-rdf-syntax-ns#">
   <cc:Work>
    <dc:type rdf:resource="http://purl.org/dc/dcmitype/StillImage"/>
    <dc:date>2024-03-01T13:02:54.915878</dc:date>
    <dc:format>image/svg+xml</dc:format>
    <dc:creator>
     <cc:Agent>
      <dc:title>Matplotlib v3.8.3, https://matplotlib.org/</dc:title>
     </cc:Agent>
    </dc:creator>
   </cc:Work>
  </rdf:RDF>
 </metadata>
 <defs>
  <style type="text/css">*{stroke-linejoin: round; stroke-linecap: butt}</style>
 </defs>
 <g id="figure_1">
  <g id="patch_1">
   <path d="M 0 345.6 
L 460.8 345.6 
L 460.8 0 
L 0 0 
z
" style="fill: #ffffff"/>
  </g>
  <g id="axes_1">
   <g id="patch_2">
    <path d="M 57.6 307.584 
L 414.72 307.584 
L 414.72 41.472 
L 57.6 41.472 
z
" style="fill: #ffffff"/>
   </g>
   <g id="patch_3">
    <path d="M 73.832727 62369.277199 
L 75.29349 62369.277199 
L 75.29349 258.115855 
L 73.832727 258.115855 
z
" clip-path="url(#p1568642cd5)" style="fill: #1f77b4"/>
   </g>
   <g id="patch_4">
    <path d="M 75.658681 62369.277199 
L 77.119444 62369.277199 
L 77.119444 233.414211 
L 75.658681 233.414211 
z
" clip-path="url(#p1568642cd5)" style="fill: #1f77b4"/>
   </g>
   <g id="patch_5">
    <path d="M 79.310588 62369.277199 
L 80.771351 62369.277199 
L 80.771351 190.026494 
L 79.310588 190.026494 
z
" clip-path="url(#p1568642cd5)" style="fill: #1f77b4"/>
   </g>
   <g id="patch_6">
    <path d="M 81.136542 62369.277199 
L 82.597304 62369.277199 
L 82.597304 166.425342 
L 81.136542 166.425342 
z
" clip-path="url(#p1568642cd5)" style="fill: #1f77b4"/>
   </g>
   <g id="patch_7">
    <path d="M 86.614402 62369.277199 
L 88.075165 62369.277199 
L 88.075165 110.311019 
L 86.614402 110.311019 
z
" clip-path="url(#p1568642cd5)" style="fill: #1f77b4"/>
   </g>
   <g id="patch_8">
    <path d="M 77.484634 62369.277199 
L 78.945397 62369.277199 
L 78.945397 216.110919 
L 77.484634 216.110919 
z
" clip-path="url(#p1568642cd5)" style="fill: #1f77b4"/>
   </g>
   <g id="patch_9">
    <path d="M 82.962495 62369.277199 
L 84.423258 62369.277199 
L 84.423258 147.739269 
L 82.962495 147.739269 
z
" clip-path="url(#p1568642cd5)" style="fill: #1f77b4"/>
   </g>
   <g id="patch_10">
    <path d="M 88.440356 62369.277199 
L 89.901119 62369.277199 
L 89.901119 96.111888 
L 88.440356 96.111888 
z
" clip-path="url(#p1568642cd5)" style="fill: #1f77b4"/>
   </g>
   <g id="patch_11">
    <path d="M 84.788449 62369.277199 
L 86.249212 62369.277199 
L 86.249212 129.27879 
L 84.788449 129.27879 
z
" clip-path="url(#p1568642cd5)" style="fill: #1f77b4"/>
   </g>
   <g id="patch_12">
    <path d="M 92.092263 62369.277199 
L 93.553026 62369.277199 
L 93.553026 74.274499 
L 92.092263 74.274499 
z
" clip-path="url(#p1568642cd5)" style="fill: #1f77b4"/>
   </g>
   <g id="patch_13">
    <path d="M 90.266309 62369.277199 
L 91.727072 62369.277199 
L 91.727072 84.211467 
L 90.266309 84.211467 
z
" clip-path="url(#p1568642cd5)" style="fill: #1f77b4"/>
   </g>
   <g id="patch_14">
    <path d="M 95.74417 62369.277199 
L 97.204933 62369.277199 
L 97.204933 57.286102 
L 95.74417 57.286102 
z
" clip-path="url(#p1568642cd5)" style="fill: #1f77b4"/>
   </g>
   <g id="patch_15">
    <path d="M 93.918217 62369.277199 
L 95.378979 62369.277199 
L 95.378979 64.847526 
L 93.918217 64.847526 
z
" clip-path="url(#p1568642cd5)" style="fill: #1f77b4"/>
   </g>
   <g id="patch_16">
    <path d="M 103.047984 62369.277199 
L 104.508747 62369.277199 
L 104.508747 75.929088 
L 103.047984 75.929088 
z
" clip-path="url(#p1568642cd5)" style="fill: #1f77b4"/>
   </g>
   <g id="patch_17">
    <path d="M 97.570124 62369.277199 
L 99.030887 62369.277199 
L 99.030887 53.568 
L 97.570124 53.568 
z
" clip-path="url(#p1568642cd5)" style="fill: #1f77b4"/>
   </g>
   <g id="patch_18">
    <path d="M 108.525845 62369.277199 
L 109.986608 62369.277199 
L 109.986608 162.853658 
L 108.525845 162.853658 
z
" clip-path="url(#p1568642cd5)" style="fill: #1f77b4"/>
   </g>
   <g id="patch_19">
    <path d="M 106.699892 62369.277199 
L 108.160654 62369.277199 
L 108.160654 134.375715 
L 106.699892 134.375715 
z
" clip-path="url(#p1568642cd5)" style="fill: #1f77b4"/>
   </g>
   <g id="patch_20">
    <path d="M 101.222031 62369.277199 
L 102.682794 62369.277199 
L 102.682794 60.324478 
L 101.222031 60.324478 
z
" clip-path="url(#p1568642cd5)" style="fill: #1f77b4"/>
   </g>
   <g id="patch_21">
    <path d="M 112.177752 62369.277199 
L 113.638515 62369.277199 
L 113.638515 171.611362 
L 112.177752 171.611362 
z
" clip-path="url(#p1568642cd5)" style="fill: #1f77b4"/>
   </g>
   <g id="patch_22">
    <path d="M 99.396077 62369.277199 
L 100.85684 62369.277199 
L 100.85684 54.905165 
L 99.396077 54.905165 
z
" clip-path="url(#p1568642cd5)" style="fill: #1f77b4"/>
   </g>
   <g id="patch_23">
    <path d="M 104.873938 62369.277199 
L 106.334701 62369.277199 
L 106.334701 101.700583 
L 104.873938 101.700583 
z
" clip-path="url(#p1568642cd5)" style="fill: #1f77b4"/>
   </g>
   <g id="patch_24">
    <path d="M 124.959427 62369.277199 
L 126.42019 62369.277199 
L 126.42019 178.386372 
L 124.959427 178.386372 
z
" clip-path="url(#p1568642cd5)" style="fill: #1f77b4"/>
   </g>
   <g id="patch_25">
    <path d="M 114.003706 62369.277199 
L 115.464469 62369.277199 
L 115.464469 170.806576 
L 114.003706 170.806576 
z
" clip-path="url(#p1568642cd5)" style="fill: #1f77b4"/>
   </g>
   <g id="patch_26">
    <path d="M 110.351799 62369.277199 
L 111.812562 62369.277199 
L 111.812562 169.265682 
L 110.351799 169.265682 
z
" clip-path="url(#p1568642cd5)" style="fill: #1f77b4"/>
   </g>
   <g id="patch_27">
    <path d="M 123.133474 62369.277199 
L 124.594237 62369.277199 
L 124.594237 175.094691 
L 123.133474 175.094691 
z
" clip-path="url(#p1568642cd5)" style="fill: #1f77b4"/>
   </g>
   <g id="patch_28">
    <path d="M 115.829659 62369.277199 
L 117.290422 62369.277199 
L 117.290422 168.771021 
L 115.829659 168.771021 
z
" clip-path="url(#p1568642cd5)" style="fill: #1f77b4"/>
   </g>
   <g id="patch_29">
    <path d="M 117.655613 62369.277199 
L 119.116376 62369.277199 
L 119.116376 179.82449 
L 117.655613 179.82449 
z
" clip-path="url(#p1568642cd5)" style="fill: #1f77b4"/>
   </g>
   <g id="patch_30">
    <path d="M 121.30752 62369.277199 
L 122.768283 62369.277199 
L 122.768283 176.690322 
L 121.30752 176.690322 
z
" clip-path="url(#p1568642cd5)" style="fill: #1f77b4"/>
   </g>
   <g id="patch_31">
    <path d="M 141.39301 62369.277199 
L 142.853772 62369.277199 
L 142.853772 184.227456 
L 141.39301 184.227456 
z
" clip-path="url(#p1568642cd5)" style="fill: #1f77b4"/>
   </g>
   <g id="patch_32">
    <path d="M 139.567056 62369.277199 
L 141.027819 62369.277199 
L 141.027819 186.025342 
L 139.567056 186.025342 
z
" clip-path="url(#p1568642cd5)" style="fill: #1f77b4"/>
   </g>
   <g id="patch_33">
    <path d="M 126.785381 62369.277199 
L 128.246144 62369.277199 
L 128.246144 182.136618 
L 126.785381 182.136618 
z
" clip-path="url(#p1568642cd5)" style="fill: #1f77b4"/>
   </g>
   <g id="patch_34">
    <path d="M 132.263242 62369.277199 
L 133.724004 62369.277199 
L 133.724004 184.227456 
L 132.263242 184.227456 
z
" clip-path="url(#p1568642cd5)" style="fill: #1f77b4"/>
   </g>
   <g id="patch_35">
    <path d="M 128.611334 62369.277199 
L 130.072097 62369.277199 
L 130.072097 180.196334 
L 128.611334 180.196334 
z
" clip-path="url(#p1568642cd5)" style="fill: #1f77b4"/>
   </g>
   <g id="patch_36">
    <path d="M 134.089195 62369.277199 
L 135.549958 62369.277199 
L 135.549958 181.343669 
L 134.089195 181.343669 
z
" clip-path="url(#p1568642cd5)" style="fill: #1f77b4"/>
   </g>
   <g id="patch_37">
    <path d="M 119.481567 62369.277199 
L 120.942329 62369.277199 
L 120.942329 169.769591 
L 119.481567 169.769591 
z
" clip-path="url(#p1568642cd5)" style="fill: #1f77b4"/>
   </g>
   <g id="patch_38">
    <path d="M 148.696824 62369.277199 
L 150.157587 62369.277199 
L 150.157587 189.492649 
L 148.696824 189.492649 
z
" clip-path="url(#p1568642cd5)" style="fill: #1f77b4"/>
   </g>
   <g id="patch_39">
    <path d="M 135.915149 62369.277199 
L 137.375912 62369.277199 
L 137.375912 191.69455 
L 135.915149 191.69455 
z
" clip-path="url(#p1568642cd5)" style="fill: #1f77b4"/>
   </g>
   <g id="patch_40">
    <path d="M 156.000638 62369.277199 
L 157.461401 62369.277199 
L 157.461401 201.228086 
L 156.000638 201.228086 
z
" clip-path="url(#p1568642cd5)" style="fill: #1f77b4"/>
   </g>
   <g id="patch_41">
    <path d="M 130.437288 62369.277199 
L 131.898051 62369.277199 
L 131.898051 179.095842 
L 130.437288 179.095842 
z
" clip-path="url(#p1568642cd5)" style="fill: #1f77b4"/>
   </g>
   <g id="patch_42">
    <path d="M 154.174685 62369.277199 
L 155.635447 62369.277199 
L 155.635447 194.726766 
L 154.174685 194.726766 
z
" clip-path="url(#p1568642cd5)" style="fill: #1f77b4"/>
   </g>
   <g id="patch_43">
    <path d="M 159.652545 62369.277199 
L 161.113308 62369.277199 
L 161.113308 196.724591 
L 159.652545 196.724591 
z
" clip-path="url(#p1568642cd5)" style="fill: #1f77b4"/>
   </g>
   <g id="patch_44">
    <path d="M 163.304452 62369.277199 
L 164.765215 62369.277199 
L 164.765215 200.423301 
L 163.304452 200.423301 
z
" clip-path="url(#p1568642cd5)" style="fill: #1f77b4"/>
   </g>
   <g id="patch_45">
    <path d="M 146.87087 62369.277199 
L 148.331633 62369.277199 
L 148.331633 193.472665 
L 146.87087 193.472665 
z
" clip-path="url(#p1568642cd5)" style="fill: #1f77b4"/>
   </g>
   <g id="patch_46">
    <path d="M 143.218963 62369.277199 
L 144.679726 62369.277199 
L 144.679726 196.724591 
L 143.218963 196.724591 
z
" clip-path="url(#p1568642cd5)" style="fill: #1f77b4"/>
   </g>
   <g id="patch_47">
    <path d="M 176.086127 62369.277199 
L 177.54689 62369.277199 
L 177.54689 203.797487 
L 176.086127 203.797487 
z
" clip-path="url(#p1568642cd5)" style="fill: #1f77b4"/>
   </g>
   <g id="patch_48">
    <path d="M 170.608267 62369.277199 
L 172.06903 62369.277199 
L 172.06903 210.960393 
L 170.608267 210.960393 
z
" clip-path="url(#p1568642cd5)" style="fill: #1f77b4"/>
   </g>
   <g id="patch_49">
    <path d="M 172.43422 62369.277199 
L 173.894983 62369.277199 
L 173.894983 207.655243 
L 172.43422 207.655243 
z
" clip-path="url(#p1568642cd5)" style="fill: #1f77b4"/>
   </g>
   <g id="patch_50">
    <path d="M 207.127338 62369.277199 
L 208.588101 62369.277199 
L 208.588101 228.499131 
L 207.127338 228.499131 
z
" clip-path="url(#p1568642cd5)" style="fill: #1f77b4"/>
   </g>
   <g id="patch_51">
    <path d="M 137.741102 62369.277199 
L 139.201865 62369.277199 
L 139.201865 192.866835 
L 137.741102 192.866835 
z
" clip-path="url(#p1568642cd5)" style="fill: #1f77b4"/>
   </g>
   <g id="patch_52">
    <path d="M 145.044917 62369.277199 
L 146.50568 62369.277199 
L 146.50568 194.092423 
L 145.044917 194.092423 
z
" clip-path="url(#p1568642cd5)" style="fill: #1f77b4"/>
   </g>
   <g id="patch_53">
    <path d="M 199.823524 62369.277199 
L 201.284287 62369.277199 
L 201.284287 228.499131 
L 199.823524 228.499131 
z
" clip-path="url(#p1568642cd5)" style="fill: #1f77b4"/>
   </g>
   <g id="patch_54">
    <path d="M 161.478499 62369.277199 
L 162.939262 62369.277199 
L 162.939262 200.423301 
L 161.478499 200.423301 
z
" clip-path="url(#p1568642cd5)" style="fill: #1f77b4"/>
   </g>
   <g id="patch_55">
    <path d="M 150.522777 62369.277199 
L 151.98354 62369.277199 
L 151.98354 189.492649 
L 150.522777 189.492649 
z
" clip-path="url(#p1568642cd5)" style="fill: #1f77b4"/>
   </g>
   <g id="patch_56">
    <path d="M 185.215895 62369.277199 
L 186.676658 62369.277199 
L 186.676658 203.797487 
L 185.215895 203.797487 
z
" clip-path="url(#p1568642cd5)" style="fill: #1f77b4"/>
   </g>
   <g id="patch_57">
    <path d="M 152.348731 62369.277199 
L 153.809494 62369.277199 
L 153.809494 196.724591 
L 152.348731 196.724591 
z
" clip-path="url(#p1568642cd5)" style="fill: #1f77b4"/>
   </g>
   <g id="patch_58">
    <path d="M 157.826592 62369.277199 
L 159.287355 62369.277199 
L 159.287355 198.882407 
L 157.826592 198.882407 
z
" clip-path="url(#p1568642cd5)" style="fill: #1f77b4"/>
   </g>
   <g id="patch_59">
    <path d="M 190.693756 62369.277199 
L 192.154519 62369.277199 
L 192.154519 228.499131 
L 190.693756 228.499131 
z
" clip-path="url(#p1568642cd5)" style="fill: #1f77b4"/>
   </g>
   <g id="patch_60">
    <path d="M 183.389942 62369.277199 
L 184.850705 62369.277199 
L 184.850705 213.412838 
L 183.389942 213.412838 
z
" clip-path="url(#p1568642cd5)" style="fill: #1f77b4"/>
   </g>
   <g id="patch_61">
    <path d="M 179.738035 62369.277199 
L 181.198797 62369.277199 
L 181.198797 208.712567 
L 179.738035 208.712567 
z
" clip-path="url(#p1568642cd5)" style="fill: #1f77b4"/>
   </g>
   <g id="patch_62">
    <path d="M 216.257106 62369.277199 
L 217.717869 62369.277199 
L 217.717869 230.84481 
L 216.257106 230.84481 
z
" clip-path="url(#p1568642cd5)" style="fill: #1f77b4"/>
   </g>
   <g id="patch_63">
    <path d="M 165.130406 62369.277199 
L 166.591169 62369.277199 
L 166.591169 198.143777 
L 165.130406 198.143777 
z
" clip-path="url(#p1568642cd5)" style="fill: #1f77b4"/>
   </g>
   <g id="patch_64">
    <path d="M 197.99757 62369.277199 
L 199.458333 62369.277199 
L 199.458333 220.74371 
L 197.99757 220.74371 
z
" clip-path="url(#p1568642cd5)" style="fill: #1f77b4"/>
   </g>
   <g id="patch_65">
    <path d="M 205.301385 62369.277199 
L 206.762147 62369.277199 
L 206.762147 217.568479 
L 205.301385 217.568479 
z
" clip-path="url(#p1568642cd5)" style="fill: #1f77b4"/>
   </g>
   <g id="patch_66">
    <path d="M 181.563988 62369.277199 
L 183.024751 62369.277199 
L 183.024751 206.637827 
L 181.563988 206.637827 
z
" clip-path="url(#p1568642cd5)" style="fill: #1f77b4"/>
   </g>
   <g id="patch_67">
    <path d="M 168.782313 62369.277199 
L 170.243076 62369.277199 
L 170.243076 198.882407 
L 168.782313 198.882407 
z
" clip-path="url(#p1568642cd5)" style="fill: #1f77b4"/>
   </g>
   <g id="patch_68">
    <path d="M 188.867802 62369.277199 
L 190.328565 62369.277199 
L 190.328565 219.109373 
L 188.867802 219.109373 
z
" clip-path="url(#p1568642cd5)" style="fill: #1f77b4"/>
   </g>
   <g id="patch_69">
    <path d="M 201.649477 62369.277199 
L 203.11024 62369.277199 
L 203.11024 219.109373 
L 201.649477 219.109373 
z
" clip-path="url(#p1568642cd5)" style="fill: #1f77b4"/>
   </g>
   <g id="patch_70">
    <path d="M 166.95636 62369.277199 
L 168.417122 62369.277199 
L 168.417122 204.711415 
L 166.95636 204.711415 
z
" clip-path="url(#p1568642cd5)" style="fill: #1f77b4"/>
   </g>
   <g id="patch_71">
    <path d="M 174.260174 62369.277199 
L 175.720937 62369.277199 
L 175.720937 202.057638 
L 174.260174 202.057638 
z
" clip-path="url(#p1568642cd5)" style="fill: #1f77b4"/>
   </g>
   <g id="patch_72">
    <path d="M 196.171617 62369.277199 
L 197.63238 62369.277199 
L 197.63238 222.483559 
L 196.171617 222.483559 
z
" clip-path="url(#p1568642cd5)" style="fill: #1f77b4"/>
   </g>
   <g id="patch_73">
    <path d="M 230.864735 62369.277199 
L 232.325497 62369.277199 
L 232.325497 239.429783 
L 230.864735 239.429783 
z
" clip-path="url(#p1568642cd5)" style="fill: #1f77b4"/>
   </g>
   <g id="patch_74">
    <path d="M 187.041849 62369.277199 
L 188.502612 62369.277199 
L 188.502612 216.110919 
L 187.041849 216.110919 
z
" clip-path="url(#p1568642cd5)" style="fill: #1f77b4"/>
   </g>
   <g id="patch_75">
    <path d="M 194.345663 62369.277199 
L 195.806426 62369.277199 
L 195.806426 217.568479 
L 194.345663 217.568479 
z
" clip-path="url(#p1568642cd5)" style="fill: #1f77b4"/>
   </g>
   <g id="patch_76">
    <path d="M 234.516642 62369.277199 
L 235.977405 62369.277199 
L 235.977405 239.429783 
L 234.516642 239.429783 
z
" clip-path="url(#p1568642cd5)" style="fill: #1f77b4"/>
   </g>
   <g id="patch_77">
    <path d="M 177.912081 62369.277199 
L 179.372844 62369.277199 
L 179.372844 217.568479 
L 177.912081 217.568479 
z
" clip-path="url(#p1568642cd5)" style="fill: #1f77b4"/>
   </g>
   <g id="patch_78">
    <path d="M 212.605199 62369.277199 
L 214.065962 62369.277199 
L 214.065962 219.109373 
L 212.605199 219.109373 
z
" clip-path="url(#p1568642cd5)" style="fill: #1f77b4"/>
   </g>
   <g id="patch_79">
    <path d="M 203.475431 62369.277199 
L 204.936194 62369.277199 
L 204.936194 222.483559 
L 203.475431 222.483559 
z
" clip-path="url(#p1568642cd5)" style="fill: #1f77b4"/>
   </g>
   <g id="patch_80">
    <path d="M 225.386874 62369.277199 
L 226.847637 62369.277199 
L 226.847637 243.029562 
L 225.386874 243.029562 
z
" clip-path="url(#p1568642cd5)" style="fill: #1f77b4"/>
   </g>
   <g id="patch_81">
    <path d="M 208.953292 62369.277199 
L 210.414055 62369.277199 
L 210.414055 220.74371 
L 208.953292 220.74371 
z
" clip-path="url(#p1568642cd5)" style="fill: #1f77b4"/>
   </g>
   <g id="patch_82">
    <path d="M 219.909013 62369.277199 
L 221.369776 62369.277199 
L 221.369776 236.254552 
L 219.909013 236.254552 
z
" clip-path="url(#p1568642cd5)" style="fill: #1f77b4"/>
   </g>
   <g id="patch_83">
    <path d="M 265.557853 62369.277199 
L 267.018615 62369.277199 
L 267.018615 265.871276 
L 265.557853 265.871276 
z
" clip-path="url(#p1568642cd5)" style="fill: #1f77b4"/>
   </g>
   <g id="patch_84">
    <path d="M 192.51971 62369.277199 
L 193.980472 62369.277199 
L 193.980472 209.813058 
L 192.51971 209.813058 
z
" clip-path="url(#p1568642cd5)" style="fill: #1f77b4"/>
   </g>
   <g id="patch_85">
    <path d="M 241.820456 62369.277199 
L 243.281219 62369.277199 
L 243.281219 239.429783 
L 241.820456 239.429783 
z
" clip-path="url(#p1568642cd5)" style="fill: #1f77b4"/>
   </g>
   <g id="patch_86">
    <path d="M 221.734967 62369.277199 
L 223.19573 62369.277199 
L 223.19573 239.429783 
L 221.734967 239.429783 
z
" clip-path="url(#p1568642cd5)" style="fill: #1f77b4"/>
   </g>
   <g id="patch_87">
    <path d="M 272.861667 62369.277199 
L 274.32243 62369.277199 
L 274.32243 276.801928 
L 272.861667 276.801928 
z
" clip-path="url(#p1568642cd5)" style="fill: #1f77b4"/>
   </g>
   <g id="patch_88">
    <path d="M 210.779245 62369.277199 
L 212.240008 62369.277199 
L 212.240008 226.341315 
L 210.779245 226.341315 
z
" clip-path="url(#p1568642cd5)" style="fill: #1f77b4"/>
   </g>
   <g id="patch_89">
    <path d="M 283.817388 62369.277199 
L 285.278151 62369.277199 
L 285.278151 295.488 
L 283.817388 295.488 
z
" clip-path="url(#p1568642cd5)" style="fill: #1f77b4"/>
   </g>
   <g id="patch_90">
    <path d="M 232.690688 62369.277199 
L 234.151451 62369.277199 
L 234.151451 247.185203 
L 232.690688 247.185203 
z
" clip-path="url(#p1568642cd5)" style="fill: #1f77b4"/>
   </g>
   <g id="patch_91">
    <path d="M 218.08306 62369.277199 
L 219.543822 62369.277199 
L 219.543822 247.185203 
L 218.08306 247.185203 
z
" clip-path="url(#p1568642cd5)" style="fill: #1f77b4"/>
   </g>
   <g id="patch_92">
    <path d="M 214.431152 62369.277199 
L 215.891915 62369.277199 
L 215.891915 230.84481 
L 214.431152 230.84481 
z
" clip-path="url(#p1568642cd5)" style="fill: #1f77b4"/>
   </g>
   <g id="patch_93">
    <path d="M 256.428085 62369.277199 
L 257.888848 62369.277199 
L 257.888848 258.115855 
L 256.428085 258.115855 
z
" clip-path="url(#p1568642cd5)" style="fill: #1f77b4"/>
   </g>
   <g id="patch_94">
    <path d="M 252.776178 62369.277199 
L 254.23694 62369.277199 
L 254.23694 252.100283 
L 252.776178 252.100283 
z
" clip-path="url(#p1568642cd5)" style="fill: #1f77b4"/>
   </g>
   <g id="patch_95">
    <path d="M 229.038781 62369.277199 
L 230.499544 62369.277199 
L 230.499544 243.029562 
L 229.038781 243.029562 
z
" clip-path="url(#p1568642cd5)" style="fill: #1f77b4"/>
   </g>
   <g id="patch_96">
    <path d="M 280.165481 62369.277199 
L 281.626244 62369.277199 
L 281.626244 295.488 
L 280.165481 295.488 
z
" clip-path="url(#p1568642cd5)" style="fill: #1f77b4"/>
   </g>
   <g id="patch_97">
    <path d="M 269.20976 62369.277199 
L 270.670523 62369.277199 
L 270.670523 258.115855 
L 269.20976 258.115855 
z
" clip-path="url(#p1568642cd5)" style="fill: #1f77b4"/>
   </g>
   <g id="patch_98">
    <path d="M 239.994503 62369.277199 
L 241.455265 62369.277199 
L 241.455265 236.254552 
L 239.994503 236.254552 
z
" clip-path="url(#p1568642cd5)" style="fill: #1f77b4"/>
   </g>
   <g id="patch_99">
    <path d="M 250.950224 62369.277199 
L 252.410987 62369.277199 
L 252.410987 247.185203 
L 250.950224 247.185203 
z
" clip-path="url(#p1568642cd5)" style="fill: #1f77b4"/>
   </g>
   <g id="patch_100">
    <path d="M 227.212827 62369.277199 
L 228.67359 62369.277199 
L 228.67359 252.100283 
L 227.212827 252.100283 
z
" clip-path="url(#p1568642cd5)" style="fill: #1f77b4"/>
   </g>
   <g id="patch_101">
    <path d="M 302.076924 62369.277199 
L 303.537687 62369.277199 
L 303.537687 295.488 
L 302.076924 295.488 
z
" clip-path="url(#p1568642cd5)" style="fill: #1f77b4"/>
   </g>
   <g id="patch_102">
    <path d="M 274.68762 62369.277199 
L 276.148383 62369.277199 
L 276.148383 265.871276 
L 274.68762 265.871276 
z
" clip-path="url(#p1568642cd5)" style="fill: #1f77b4"/>
   </g>
   <g id="patch_103">
    <path d="M 305.728831 62369.277199 
L 307.189594 62369.277199 
L 307.189594 295.488 
L 305.728831 295.488 
z
" clip-path="url(#p1568642cd5)" style="fill: #1f77b4"/>
   </g>
   <g id="patch_104">
    <path d="M 245.472363 62369.277199 
L 246.933126 62369.277199 
L 246.933126 265.871276 
L 245.472363 265.871276 
z
" clip-path="url(#p1568642cd5)" style="fill: #1f77b4"/>
   </g>
   <g id="patch_105">
    <path d="M 247.298317 62369.277199 
L 248.75908 62369.277199 
L 248.75908 252.100283 
L 247.298317 252.100283 
z
" clip-path="url(#p1568642cd5)" style="fill: #1f77b4"/>
   </g>
   <g id="patch_106">
    <path d="M 260.079992 62369.277199 
L 261.540755 62369.277199 
L 261.540755 295.488 
L 260.079992 295.488 
z
" clip-path="url(#p1568642cd5)" style="fill: #1f77b4"/>
   </g>
   <g id="patch_107">
    <path d="M 236.342595 62369.277199 
L 237.803358 62369.277199 
L 237.803358 252.100283 
L 236.342595 252.100283 
z
" clip-path="url(#p1568642cd5)" style="fill: #1f77b4"/>
   </g>
   <g id="patch_108">
    <path d="M 261.905945 62369.277199 
L 263.366708 62369.277199 
L 263.366708 295.488 
L 261.905945 295.488 
z
" clip-path="url(#p1568642cd5)" style="fill: #1f77b4"/>
   </g>
   <g id="patch_109">
    <path d="M 223.56092 62369.277199 
L 225.021683 62369.277199 
L 225.021683 252.100283 
L 223.56092 252.100283 
z
" clip-path="url(#p1568642cd5)" style="fill: #1f77b4"/>
   </g>
   <g id="patch_110">
    <path d="M 254.602131 62369.277199 
L 256.062894 62369.277199 
L 256.062894 252.100283 
L 254.602131 252.100283 
z
" clip-path="url(#p1568642cd5)" style="fill: #1f77b4"/>
   </g>
   <g id="patch_111">
    <path d="M 238.168549 62369.277199 
L 239.629312 62369.277199 
L 239.629312 252.100283 
L 238.168549 252.100283 
z
" clip-path="url(#p1568642cd5)" style="fill: #1f77b4"/>
   </g>
   <g id="patch_112">
    <path d="M 296.599063 62369.277199 
L 298.059826 62369.277199 
L 298.059826 295.488 
L 296.599063 295.488 
z
" clip-path="url(#p1568642cd5)" style="fill: #1f77b4"/>
   </g>
   <g id="patch_113">
    <path d="M 243.64641 62369.277199 
L 245.107173 62369.277199 
L 245.107173 247.185203 
L 243.64641 247.185203 
z
" clip-path="url(#p1568642cd5)" style="fill: #1f77b4"/>
   </g>
   <g id="patch_114">
    <path d="M 258.254038 62369.277199 
L 259.714801 62369.277199 
L 259.714801 276.801928 
L 258.254038 276.801928 
z
" clip-path="url(#p1568642cd5)" style="fill: #1f77b4"/>
   </g>
   <g id="patch_115">
    <path d="M 292.947156 62369.277199 
L 294.407919 62369.277199 
L 294.407919 276.801928 
L 292.947156 276.801928 
z
" clip-path="url(#p1568642cd5)" style="fill: #1f77b4"/>
   </g>
   <g id="patch_116">
    <path d="M 281.991435 62369.277199 
L 283.452198 62369.277199 
L 283.452198 276.801928 
L 281.991435 276.801928 
z
" clip-path="url(#p1568642cd5)" style="fill: #1f77b4"/>
   </g>
   <g id="patch_117">
    <path d="M 249.12427 62369.277199 
L 250.585033 62369.277199 
L 250.585033 276.801928 
L 249.12427 276.801928 
z
" clip-path="url(#p1568642cd5)" style="fill: #1f77b4"/>
   </g>
   <g id="patch_118">
    <path d="M 365.985299 62369.277199 
L 367.446062 62369.277199 
L 367.446062 276.801928 
L 365.985299 276.801928 
z
" clip-path="url(#p1568642cd5)" style="fill: #1f77b4"/>
   </g>
   <g id="patch_119">
    <path d="M 327.640274 62369.277199 
L 329.101037 62369.277199 
L 329.101037 295.488 
L 327.640274 295.488 
z
" clip-path="url(#p1568642cd5)" style="fill: #1f77b4"/>
   </g>
   <g id="patch_120">
    <path d="M 291.121203 62369.277199 
L 292.581965 62369.277199 
L 292.581965 276.801928 
L 291.121203 276.801928 
z
" clip-path="url(#p1568642cd5)" style="fill: #1f77b4"/>
   </g>
   <g id="patch_121">
    <path d="M 313.032645 62369.277199 
L 314.493408 62369.277199 
L 314.493408 295.488 
L 313.032645 295.488 
z
" clip-path="url(#p1568642cd5)" style="fill: #1f77b4"/>
   </g>
   <g id="patch_122">
    <path d="M 325.81432 62369.277199 
L 327.275083 62369.277199 
L 327.275083 295.488 
L 325.81432 295.488 
z
" clip-path="url(#p1568642cd5)" style="fill: #1f77b4"/>
   </g>
   <g id="patch_123">
    <path d="M 278.339528 62369.277199 
L 279.80029 62369.277199 
L 279.80029 295.488 
L 278.339528 295.488 
z
" clip-path="url(#p1568642cd5)" style="fill: #1f77b4"/>
   </g>
   <g id="patch_124">
    <path d="M 333.118135 62369.277199 
L 334.578898 62369.277199 
L 334.578898 295.488 
L 333.118135 295.488 
z
" clip-path="url(#p1568642cd5)" style="fill: #1f77b4"/>
   </g>
   <g id="patch_125">
    <path d="M 309.380738 62369.277199 
L 310.841501 62369.277199 
L 310.841501 295.488 
L 309.380738 295.488 
z
" clip-path="url(#p1568642cd5)" style="fill: #1f77b4"/>
   </g>
   <g id="patch_126">
    <path d="M 316.684553 62369.277199 
L 318.145315 62369.277199 
L 318.145315 295.488 
L 316.684553 295.488 
z
" clip-path="url(#p1568642cd5)" style="fill: #1f77b4"/>
   </g>
   <g id="patch_127">
    <path d="M 267.383806 62369.277199 
L 268.844569 62369.277199 
L 268.844569 276.801928 
L 267.383806 276.801928 
z
" clip-path="url(#p1568642cd5)" style="fill: #1f77b4"/>
   </g>
   <g id="patch_128">
    <path d="M 300.25097 62369.277199 
L 301.711733 62369.277199 
L 301.711733 295.488 
L 300.25097 295.488 
z
" clip-path="url(#p1568642cd5)" style="fill: #1f77b4"/>
   </g>
   <g id="patch_129">
    <path d="M 287.469295 62369.277199 
L 288.930058 62369.277199 
L 288.930058 276.801928 
L 287.469295 276.801928 
z
" clip-path="url(#p1568642cd5)" style="fill: #1f77b4"/>
   </g>
   <g id="patch_130">
    <path d="M 276.513574 62369.277199 
L 277.974337 62369.277199 
L 277.974337 295.488 
L 276.513574 295.488 
z
" clip-path="url(#p1568642cd5)" style="fill: #1f77b4"/>
   </g>
   <g id="patch_131">
    <path d="M 314.858599 62369.277199 
L 316.319362 62369.277199 
L 316.319362 295.488 
L 314.858599 295.488 
z
" clip-path="url(#p1568642cd5)" style="fill: #1f77b4"/>
   </g>
   <g id="patch_132">
    <path d="M 397.02651 62369.277199 
L 398.487273 62369.277199 
L 398.487273 295.488 
L 397.02651 295.488 
z
" clip-path="url(#p1568642cd5)" style="fill: #1f77b4"/>
   </g>
   <g id="patch_133">
    <path d="M 263.731899 62369.277199 
L 265.192662 62369.277199 
L 265.192662 276.801928 
L 263.731899 276.801928 
z
" clip-path="url(#p1568642cd5)" style="fill: #1f77b4"/>
   </g>
   <g id="patch_134">
    <path d="M 289.295249 62369.277199 
L 290.756012 62369.277199 
L 290.756012 295.488 
L 289.295249 295.488 
z
" clip-path="url(#p1568642cd5)" style="fill: #1f77b4"/>
   </g>
   <g id="patch_135">
    <path d="M 307.554785 62369.277199 
L 309.015548 62369.277199 
L 309.015548 295.488 
L 307.554785 295.488 
z
" clip-path="url(#p1568642cd5)" style="fill: #1f77b4"/>
   </g>
   <g id="matplotlib.axis_1">
    <g id="xtick_1">
     <g id="line2d_1">
      <defs>
       <path id="m7f26ec8ab9" d="M 0 0 
L 0 3.5 
" style="stroke: #000000; stroke-width: 0.8"/>
      </defs>
      <g>
       <use xlink:href="#m7f26ec8ab9" x="74.563109" y="307.584" style="stroke: #000000; stroke-width: 0.8"/>
      </g>
     </g>
     <g id="text_1">
      <!-- 0 -->
      <g transform="translate(71.381859 322.182437) scale(0.1 -0.1)">
       <defs>
        <path id="DejaVuSans-30" d="M 2034 4250 
Q 1547 4250 1301 3770 
Q 1056 3291 1056 2328 
Q 1056 1369 1301 889 
Q 1547 409 2034 409 
Q 2525 409 2770 889 
Q 3016 1369 3016 2328 
Q 3016 3291 2770 3770 
Q 2525 4250 2034 4250 
z
M 2034 4750 
Q 2819 4750 3233 4129 
Q 3647 3509 3647 2328 
Q 3647 1150 3233 529 
Q 2819 -91 2034 -91 
Q 1250 -91 836 529 
Q 422 1150 422 2328 
Q 422 3509 836 4129 
Q 1250 4750 2034 4750 
z
" transform="scale(0.015625)"/>
       </defs>
       <use xlink:href="#DejaVuSans-30"/>
      </g>
     </g>
    </g>
    <g id="xtick_2">
     <g id="line2d_2">
      <g>
       <use xlink:href="#m7f26ec8ab9" x="120.211948" y="307.584" style="stroke: #000000; stroke-width: 0.8"/>
      </g>
     </g>
     <g id="text_2">
      <!-- 25 -->
      <g transform="translate(113.849448 322.182437) scale(0.1 -0.1)">
       <defs>
        <path id="DejaVuSans-32" d="M 1228 531 
L 3431 531 
L 3431 0 
L 469 0 
L 469 531 
Q 828 903 1448 1529 
Q 2069 2156 2228 2338 
Q 2531 2678 2651 2914 
Q 2772 3150 2772 3378 
Q 2772 3750 2511 3984 
Q 2250 4219 1831 4219 
Q 1534 4219 1204 4116 
Q 875 4013 500 3803 
L 500 4441 
Q 881 4594 1212 4672 
Q 1544 4750 1819 4750 
Q 2544 4750 2975 4387 
Q 3406 4025 3406 3419 
Q 3406 3131 3298 2873 
Q 3191 2616 2906 2266 
Q 2828 2175 2409 1742 
Q 1991 1309 1228 531 
z
" transform="scale(0.015625)"/>
        <path id="DejaVuSans-35" d="M 691 4666 
L 3169 4666 
L 3169 4134 
L 1269 4134 
L 1269 2991 
Q 1406 3038 1543 3061 
Q 1681 3084 1819 3084 
Q 2600 3084 3056 2656 
Q 3513 2228 3513 1497 
Q 3513 744 3044 326 
Q 2575 -91 1722 -91 
Q 1428 -91 1123 -41 
Q 819 9 494 109 
L 494 744 
Q 775 591 1075 516 
Q 1375 441 1709 441 
Q 2250 441 2565 725 
Q 2881 1009 2881 1497 
Q 2881 1984 2565 2268 
Q 2250 2553 1709 2553 
Q 1456 2553 1204 2497 
Q 953 2441 691 2322 
L 691 4666 
z
" transform="scale(0.015625)"/>
       </defs>
       <use xlink:href="#DejaVuSans-32"/>
       <use xlink:href="#DejaVuSans-35" x="63.623047"/>
      </g>
     </g>
    </g>
    <g id="xtick_3">
     <g id="line2d_3">
      <g>
       <use xlink:href="#m7f26ec8ab9" x="165.860787" y="307.584" style="stroke: #000000; stroke-width: 0.8"/>
      </g>
     </g>
     <g id="text_3">
      <!-- 50 -->
      <g transform="translate(159.498287 322.182437) scale(0.1 -0.1)">
       <use xlink:href="#DejaVuSans-35"/>
       <use xlink:href="#DejaVuSans-30" x="63.623047"/>
      </g>
     </g>
    </g>
    <g id="xtick_4">
     <g id="line2d_4">
      <g>
       <use xlink:href="#m7f26ec8ab9" x="211.509627" y="307.584" style="stroke: #000000; stroke-width: 0.8"/>
      </g>
     </g>
     <g id="text_4">
      <!-- 75 -->
      <g transform="translate(205.147127 322.182437) scale(0.1 -0.1)">
       <defs>
        <path id="DejaVuSans-37" d="M 525 4666 
L 3525 4666 
L 3525 4397 
L 1831 0 
L 1172 0 
L 2766 4134 
L 525 4134 
L 525 4666 
z
" transform="scale(0.015625)"/>
       </defs>
       <use xlink:href="#DejaVuSans-37"/>
       <use xlink:href="#DejaVuSans-35" x="63.623047"/>
      </g>
     </g>
    </g>
    <g id="xtick_5">
     <g id="line2d_5">
      <g>
       <use xlink:href="#m7f26ec8ab9" x="257.158466" y="307.584" style="stroke: #000000; stroke-width: 0.8"/>
      </g>
     </g>
     <g id="text_5">
      <!-- 100 -->
      <g transform="translate(247.614716 322.182437) scale(0.1 -0.1)">
       <defs>
        <path id="DejaVuSans-31" d="M 794 531 
L 1825 531 
L 1825 4091 
L 703 3866 
L 703 4441 
L 1819 4666 
L 2450 4666 
L 2450 531 
L 3481 531 
L 3481 0 
L 794 0 
L 794 531 
z
" transform="scale(0.015625)"/>
       </defs>
       <use xlink:href="#DejaVuSans-31"/>
       <use xlink:href="#DejaVuSans-30" x="63.623047"/>
       <use xlink:href="#DejaVuSans-30" x="127.246094"/>
      </g>
     </g>
    </g>
    <g id="xtick_6">
     <g id="line2d_6">
      <g>
       <use xlink:href="#m7f26ec8ab9" x="302.807305" y="307.584" style="stroke: #000000; stroke-width: 0.8"/>
      </g>
     </g>
     <g id="text_6">
      <!-- 125 -->
      <g transform="translate(293.263555 322.182437) scale(0.1 -0.1)">
       <use xlink:href="#DejaVuSans-31"/>
       <use xlink:href="#DejaVuSans-32" x="63.623047"/>
       <use xlink:href="#DejaVuSans-35" x="127.246094"/>
      </g>
     </g>
    </g>
    <g id="xtick_7">
     <g id="line2d_7">
      <g>
       <use xlink:href="#m7f26ec8ab9" x="348.456145" y="307.584" style="stroke: #000000; stroke-width: 0.8"/>
      </g>
     </g>
     <g id="text_7">
      <!-- 150 -->
      <g transform="translate(338.912395 322.182437) scale(0.1 -0.1)">
       <use xlink:href="#DejaVuSans-31"/>
       <use xlink:href="#DejaVuSans-35" x="63.623047"/>
       <use xlink:href="#DejaVuSans-30" x="127.246094"/>
      </g>
     </g>
    </g>
    <g id="xtick_8">
     <g id="line2d_8">
      <g>
       <use xlink:href="#m7f26ec8ab9" x="394.104984" y="307.584" style="stroke: #000000; stroke-width: 0.8"/>
      </g>
     </g>
     <g id="text_8">
      <!-- 175 -->
      <g transform="translate(384.561234 322.182437) scale(0.1 -0.1)">
       <use xlink:href="#DejaVuSans-31"/>
       <use xlink:href="#DejaVuSans-37" x="63.623047"/>
       <use xlink:href="#DejaVuSans-35" x="127.246094"/>
      </g>
     </g>
    </g>
    <g id="text_9">
     <!-- Depth of Element -->
     <g transform="translate(192.231875 335.860562) scale(0.1 -0.1)">
      <defs>
       <path id="DejaVuSans-44" d="M 1259 4147 
L 1259 519 
L 2022 519 
Q 2988 519 3436 956 
Q 3884 1394 3884 2338 
Q 3884 3275 3436 3711 
Q 2988 4147 2022 4147 
L 1259 4147 
z
M 628 4666 
L 1925 4666 
Q 3281 4666 3915 4102 
Q 4550 3538 4550 2338 
Q 4550 1131 3912 565 
Q 3275 0 1925 0 
L 628 0 
L 628 4666 
z
" transform="scale(0.015625)"/>
       <path id="DejaVuSans-65" d="M 3597 1894 
L 3597 1613 
L 953 1613 
Q 991 1019 1311 708 
Q 1631 397 2203 397 
Q 2534 397 2845 478 
Q 3156 559 3463 722 
L 3463 178 
Q 3153 47 2828 -22 
Q 2503 -91 2169 -91 
Q 1331 -91 842 396 
Q 353 884 353 1716 
Q 353 2575 817 3079 
Q 1281 3584 2069 3584 
Q 2775 3584 3186 3129 
Q 3597 2675 3597 1894 
z
M 3022 2063 
Q 3016 2534 2758 2815 
Q 2500 3097 2075 3097 
Q 1594 3097 1305 2825 
Q 1016 2553 972 2059 
L 3022 2063 
z
" transform="scale(0.015625)"/>
       <path id="DejaVuSans-70" d="M 1159 525 
L 1159 -1331 
L 581 -1331 
L 581 3500 
L 1159 3500 
L 1159 2969 
Q 1341 3281 1617 3432 
Q 1894 3584 2278 3584 
Q 2916 3584 3314 3078 
Q 3713 2572 3713 1747 
Q 3713 922 3314 415 
Q 2916 -91 2278 -91 
Q 1894 -91 1617 61 
Q 1341 213 1159 525 
z
M 3116 1747 
Q 3116 2381 2855 2742 
Q 2594 3103 2138 3103 
Q 1681 3103 1420 2742 
Q 1159 2381 1159 1747 
Q 1159 1113 1420 752 
Q 1681 391 2138 391 
Q 2594 391 2855 752 
Q 3116 1113 3116 1747 
z
" transform="scale(0.015625)"/>
       <path id="DejaVuSans-74" d="M 1172 4494 
L 1172 3500 
L 2356 3500 
L 2356 3053 
L 1172 3053 
L 1172 1153 
Q 1172 725 1289 603 
Q 1406 481 1766 481 
L 2356 481 
L 2356 0 
L 1766 0 
Q 1100 0 847 248 
Q 594 497 594 1153 
L 594 3053 
L 172 3053 
L 172 3500 
L 594 3500 
L 594 4494 
L 1172 4494 
z
" transform="scale(0.015625)"/>
       <path id="DejaVuSans-68" d="M 3513 2113 
L 3513 0 
L 2938 0 
L 2938 2094 
Q 2938 2591 2744 2837 
Q 2550 3084 2163 3084 
Q 1697 3084 1428 2787 
Q 1159 2491 1159 1978 
L 1159 0 
L 581 0 
L 581 4863 
L 1159 4863 
L 1159 2956 
Q 1366 3272 1645 3428 
Q 1925 3584 2291 3584 
Q 2894 3584 3203 3211 
Q 3513 2838 3513 2113 
z
" transform="scale(0.015625)"/>
       <path id="DejaVuSans-20" transform="scale(0.015625)"/>
       <path id="DejaVuSans-6f" d="M 1959 3097 
Q 1497 3097 1228 2736 
Q 959 2375 959 1747 
Q 959 1119 1226 758 
Q 1494 397 1959 397 
Q 2419 397 2687 759 
Q 2956 1122 2956 1747 
Q 2956 2369 2687 2733 
Q 2419 3097 1959 3097 
z
M 1959 3584 
Q 2709 3584 3137 3096 
Q 3566 2609 3566 1747 
Q 3566 888 3137 398 
Q 2709 -91 1959 -91 
Q 1206 -91 779 398 
Q 353 888 353 1747 
Q 353 2609 779 3096 
Q 1206 3584 1959 3584 
z
" transform="scale(0.015625)"/>
       <path id="DejaVuSans-66" d="M 2375 4863 
L 2375 4384 
L 1825 4384 
Q 1516 4384 1395 4259 
Q 1275 4134 1275 3809 
L 1275 3500 
L 2222 3500 
L 2222 3053 
L 1275 3053 
L 1275 0 
L 697 0 
L 697 3053 
L 147 3053 
L 147 3500 
L 697 3500 
L 697 3744 
Q 697 4328 969 4595 
Q 1241 4863 1831 4863 
L 2375 4863 
z
" transform="scale(0.015625)"/>
       <path id="DejaVuSans-45" d="M 628 4666 
L 3578 4666 
L 3578 4134 
L 1259 4134 
L 1259 2753 
L 3481 2753 
L 3481 2222 
L 1259 2222 
L 1259 531 
L 3634 531 
L 3634 0 
L 628 0 
L 628 4666 
z
" transform="scale(0.015625)"/>
       <path id="DejaVuSans-6c" d="M 603 4863 
L 1178 4863 
L 1178 0 
L 603 0 
L 603 4863 
z
" transform="scale(0.015625)"/>
       <path id="DejaVuSans-6d" d="M 3328 2828 
Q 3544 3216 3844 3400 
Q 4144 3584 4550 3584 
Q 5097 3584 5394 3201 
Q 5691 2819 5691 2113 
L 5691 0 
L 5113 0 
L 5113 2094 
Q 5113 2597 4934 2840 
Q 4756 3084 4391 3084 
Q 3944 3084 3684 2787 
Q 3425 2491 3425 1978 
L 3425 0 
L 2847 0 
L 2847 2094 
Q 2847 2600 2669 2842 
Q 2491 3084 2119 3084 
Q 1678 3084 1418 2786 
Q 1159 2488 1159 1978 
L 1159 0 
L 581 0 
L 581 3500 
L 1159 3500 
L 1159 2956 
Q 1356 3278 1631 3431 
Q 1906 3584 2284 3584 
Q 2666 3584 2933 3390 
Q 3200 3197 3328 2828 
z
" transform="scale(0.015625)"/>
       <path id="DejaVuSans-6e" d="M 3513 2113 
L 3513 0 
L 2938 0 
L 2938 2094 
Q 2938 2591 2744 2837 
Q 2550 3084 2163 3084 
Q 1697 3084 1428 2787 
Q 1159 2491 1159 1978 
L 1159 0 
L 581 0 
L 581 3500 
L 1159 3500 
L 1159 2956 
Q 1366 3272 1645 3428 
Q 1925 3584 2291 3584 
Q 2894 3584 3203 3211 
Q 3513 2838 3513 2113 
z
" transform="scale(0.015625)"/>
      </defs>
      <use xlink:href="#DejaVuSans-44"/>
      <use xlink:href="#DejaVuSans-65" x="77.001953"/>
      <use xlink:href="#DejaVuSans-70" x="138.525391"/>
      <use xlink:href="#DejaVuSans-74" x="202.001953"/>
      <use xlink:href="#DejaVuSans-68" x="241.210938"/>
      <use xlink:href="#DejaVuSans-20" x="304.589844"/>
      <use xlink:href="#DejaVuSans-6f" x="336.376953"/>
      <use xlink:href="#DejaVuSans-66" x="397.558594"/>
      <use xlink:href="#DejaVuSans-20" x="432.763672"/>
      <use xlink:href="#DejaVuSans-45" x="464.550781"/>
      <use xlink:href="#DejaVuSans-6c" x="527.734375"/>
      <use xlink:href="#DejaVuSans-65" x="555.517578"/>
      <use xlink:href="#DejaVuSans-6d" x="617.041016"/>
      <use xlink:href="#DejaVuSans-65" x="714.453125"/>
      <use xlink:href="#DejaVuSans-6e" x="775.976562"/>
      <use xlink:href="#DejaVuSans-74" x="839.355469"/>
     </g>
    </g>
   </g>
   <g id="matplotlib.axis_2">
    <g id="ytick_1">
     <g id="line2d_9">
      <defs>
       <path id="m524cad02ca" d="M 0 0 
L -3.5 0 
" style="stroke: #000000; stroke-width: 0.8"/>
      </defs>
      <g>
       <use xlink:href="#m524cad02ca" x="57.6" y="295.488" style="stroke: #000000; stroke-width: 0.8"/>
      </g>
     </g>
     <g id="text_10">
      <!-- $\mathdefault{10^{0}}$ -->
      <g transform="translate(33 299.287219) scale(0.1 -0.1)">
       <use xlink:href="#DejaVuSans-31" transform="translate(0 0.765625)"/>
       <use xlink:href="#DejaVuSans-30" transform="translate(63.623047 0.765625)"/>
       <use xlink:href="#DejaVuSans-30" transform="translate(128.203125 39.046875) scale(0.7)"/>
      </g>
     </g>
    </g>
    <g id="ytick_2">
     <g id="line2d_10">
      <g>
       <use xlink:href="#m524cad02ca" x="57.6" y="233.414211" style="stroke: #000000; stroke-width: 0.8"/>
      </g>
     </g>
     <g id="text_11">
      <!-- $\mathdefault{10^{1}}$ -->
      <g transform="translate(33 237.21343) scale(0.1 -0.1)">
       <use xlink:href="#DejaVuSans-31" transform="translate(0 0.684375)"/>
       <use xlink:href="#DejaVuSans-30" transform="translate(63.623047 0.684375)"/>
       <use xlink:href="#DejaVuSans-31" transform="translate(128.203125 38.965625) scale(0.7)"/>
      </g>
     </g>
    </g>
    <g id="ytick_3">
     <g id="line2d_11">
      <g>
       <use xlink:href="#m524cad02ca" x="57.6" y="171.340422" style="stroke: #000000; stroke-width: 0.8"/>
      </g>
     </g>
     <g id="text_12">
      <!-- $\mathdefault{10^{2}}$ -->
      <g transform="translate(33 175.13964) scale(0.1 -0.1)">
       <use xlink:href="#DejaVuSans-31" transform="translate(0 0.765625)"/>
       <use xlink:href="#DejaVuSans-30" transform="translate(63.623047 0.765625)"/>
       <use xlink:href="#DejaVuSans-32" transform="translate(128.203125 39.046875) scale(0.7)"/>
      </g>
     </g>
    </g>
    <g id="ytick_4">
     <g id="line2d_12">
      <g>
       <use xlink:href="#m524cad02ca" x="57.6" y="109.266632" style="stroke: #000000; stroke-width: 0.8"/>
      </g>
     </g>
     <g id="text_13">
      <!-- $\mathdefault{10^{3}}$ -->
      <g transform="translate(33 113.065851) scale(0.1 -0.1)">
       <defs>
        <path id="DejaVuSans-33" d="M 2597 2516 
Q 3050 2419 3304 2112 
Q 3559 1806 3559 1356 
Q 3559 666 3084 287 
Q 2609 -91 1734 -91 
Q 1441 -91 1130 -33 
Q 819 25 488 141 
L 488 750 
Q 750 597 1062 519 
Q 1375 441 1716 441 
Q 2309 441 2620 675 
Q 2931 909 2931 1356 
Q 2931 1769 2642 2001 
Q 2353 2234 1838 2234 
L 1294 2234 
L 1294 2753 
L 1863 2753 
Q 2328 2753 2575 2939 
Q 2822 3125 2822 3475 
Q 2822 3834 2567 4026 
Q 2313 4219 1838 4219 
Q 1578 4219 1281 4162 
Q 984 4106 628 3988 
L 628 4550 
Q 988 4650 1302 4700 
Q 1616 4750 1894 4750 
Q 2613 4750 3031 4423 
Q 3450 4097 3450 3541 
Q 3450 3153 3228 2886 
Q 3006 2619 2597 2516 
z
" transform="scale(0.015625)"/>
       </defs>
       <use xlink:href="#DejaVuSans-31" transform="translate(0 0.765625)"/>
       <use xlink:href="#DejaVuSans-30" transform="translate(63.623047 0.765625)"/>
       <use xlink:href="#DejaVuSans-33" transform="translate(128.203125 39.046875) scale(0.7)"/>
      </g>
     </g>
    </g>
    <g id="ytick_5">
     <g id="line2d_13">
      <g>
       <use xlink:href="#m524cad02ca" x="57.6" y="47.192843" style="stroke: #000000; stroke-width: 0.8"/>
      </g>
     </g>
     <g id="text_14">
      <!-- $\mathdefault{10^{4}}$ -->
      <g transform="translate(33 50.992062) scale(0.1 -0.1)">
       <defs>
        <path id="DejaVuSans-34" d="M 2419 4116 
L 825 1625 
L 2419 1625 
L 2419 4116 
z
M 2253 4666 
L 3047 4666 
L 3047 1625 
L 3713 1625 
L 3713 1100 
L 3047 1100 
L 3047 0 
L 2419 0 
L 2419 1100 
L 313 1100 
L 313 1709 
L 2253 4666 
z
" transform="scale(0.015625)"/>
       </defs>
       <use xlink:href="#DejaVuSans-31" transform="translate(0 0.684375)"/>
       <use xlink:href="#DejaVuSans-30" transform="translate(63.623047 0.684375)"/>
       <use xlink:href="#DejaVuSans-34" transform="translate(128.203125 38.965625) scale(0.7)"/>
      </g>
     </g>
    </g>
    <g id="ytick_6">
     <g id="line2d_14">
      <defs>
       <path id="mbc57bff4bc" d="M 0 0 
L -2 0 
" style="stroke: #000000; stroke-width: 0.6"/>
      </defs>
      <g>
       <use xlink:href="#mbc57bff4bc" x="57.6" y="305.103352" style="stroke: #000000; stroke-width: 0.6"/>
      </g>
     </g>
    </g>
    <g id="ytick_7">
     <g id="line2d_15">
      <g>
       <use xlink:href="#mbc57bff4bc" x="57.6" y="301.503572" style="stroke: #000000; stroke-width: 0.6"/>
      </g>
     </g>
    </g>
    <g id="ytick_8">
     <g id="line2d_16">
      <g>
       <use xlink:href="#mbc57bff4bc" x="57.6" y="298.328341" style="stroke: #000000; stroke-width: 0.6"/>
      </g>
     </g>
    </g>
    <g id="ytick_9">
     <g id="line2d_17">
      <g>
       <use xlink:href="#mbc57bff4bc" x="57.6" y="276.801928" style="stroke: #000000; stroke-width: 0.6"/>
      </g>
     </g>
    </g>
    <g id="ytick_10">
     <g id="line2d_18">
      <g>
       <use xlink:href="#mbc57bff4bc" x="57.6" y="265.871276" style="stroke: #000000; stroke-width: 0.6"/>
      </g>
     </g>
    </g>
    <g id="ytick_11">
     <g id="line2d_19">
      <g>
       <use xlink:href="#mbc57bff4bc" x="57.6" y="258.115855" style="stroke: #000000; stroke-width: 0.6"/>
      </g>
     </g>
    </g>
    <g id="ytick_12">
     <g id="line2d_20">
      <g>
       <use xlink:href="#mbc57bff4bc" x="57.6" y="252.100283" style="stroke: #000000; stroke-width: 0.6"/>
      </g>
     </g>
    </g>
    <g id="ytick_13">
     <g id="line2d_21">
      <g>
       <use xlink:href="#mbc57bff4bc" x="57.6" y="247.185203" style="stroke: #000000; stroke-width: 0.6"/>
      </g>
     </g>
    </g>
    <g id="ytick_14">
     <g id="line2d_22">
      <g>
       <use xlink:href="#mbc57bff4bc" x="57.6" y="243.029562" style="stroke: #000000; stroke-width: 0.6"/>
      </g>
     </g>
    </g>
    <g id="ytick_15">
     <g id="line2d_23">
      <g>
       <use xlink:href="#mbc57bff4bc" x="57.6" y="239.429783" style="stroke: #000000; stroke-width: 0.6"/>
      </g>
     </g>
    </g>
    <g id="ytick_16">
     <g id="line2d_24">
      <g>
       <use xlink:href="#mbc57bff4bc" x="57.6" y="236.254552" style="stroke: #000000; stroke-width: 0.6"/>
      </g>
     </g>
    </g>
    <g id="ytick_17">
     <g id="line2d_25">
      <g>
       <use xlink:href="#mbc57bff4bc" x="57.6" y="214.728138" style="stroke: #000000; stroke-width: 0.6"/>
      </g>
     </g>
    </g>
    <g id="ytick_18">
     <g id="line2d_26">
      <g>
       <use xlink:href="#mbc57bff4bc" x="57.6" y="203.797487" style="stroke: #000000; stroke-width: 0.6"/>
      </g>
     </g>
    </g>
    <g id="ytick_19">
     <g id="line2d_27">
      <g>
       <use xlink:href="#mbc57bff4bc" x="57.6" y="196.042066" style="stroke: #000000; stroke-width: 0.6"/>
      </g>
     </g>
    </g>
    <g id="ytick_20">
     <g id="line2d_28">
      <g>
       <use xlink:href="#mbc57bff4bc" x="57.6" y="190.026494" style="stroke: #000000; stroke-width: 0.6"/>
      </g>
     </g>
    </g>
    <g id="ytick_21">
     <g id="line2d_29">
      <g>
       <use xlink:href="#mbc57bff4bc" x="57.6" y="185.111414" style="stroke: #000000; stroke-width: 0.6"/>
      </g>
     </g>
    </g>
    <g id="ytick_22">
     <g id="line2d_30">
      <g>
       <use xlink:href="#mbc57bff4bc" x="57.6" y="180.955773" style="stroke: #000000; stroke-width: 0.6"/>
      </g>
     </g>
    </g>
    <g id="ytick_23">
     <g id="line2d_31">
      <g>
       <use xlink:href="#mbc57bff4bc" x="57.6" y="177.355993" style="stroke: #000000; stroke-width: 0.6"/>
      </g>
     </g>
    </g>
    <g id="ytick_24">
     <g id="line2d_32">
      <g>
       <use xlink:href="#mbc57bff4bc" x="57.6" y="174.180762" style="stroke: #000000; stroke-width: 0.6"/>
      </g>
     </g>
    </g>
    <g id="ytick_25">
     <g id="line2d_33">
      <g>
       <use xlink:href="#mbc57bff4bc" x="57.6" y="152.654349" style="stroke: #000000; stroke-width: 0.6"/>
      </g>
     </g>
    </g>
    <g id="ytick_26">
     <g id="line2d_34">
      <g>
       <use xlink:href="#mbc57bff4bc" x="57.6" y="141.723697" style="stroke: #000000; stroke-width: 0.6"/>
      </g>
     </g>
    </g>
    <g id="ytick_27">
     <g id="line2d_35">
      <g>
       <use xlink:href="#mbc57bff4bc" x="57.6" y="133.968277" style="stroke: #000000; stroke-width: 0.6"/>
      </g>
     </g>
    </g>
    <g id="ytick_28">
     <g id="line2d_36">
      <g>
       <use xlink:href="#mbc57bff4bc" x="57.6" y="127.952705" style="stroke: #000000; stroke-width: 0.6"/>
      </g>
     </g>
    </g>
    <g id="ytick_29">
     <g id="line2d_37">
      <g>
       <use xlink:href="#mbc57bff4bc" x="57.6" y="123.037625" style="stroke: #000000; stroke-width: 0.6"/>
      </g>
     </g>
    </g>
    <g id="ytick_30">
     <g id="line2d_38">
      <g>
       <use xlink:href="#mbc57bff4bc" x="57.6" y="118.881984" style="stroke: #000000; stroke-width: 0.6"/>
      </g>
     </g>
    </g>
    <g id="ytick_31">
     <g id="line2d_39">
      <g>
       <use xlink:href="#mbc57bff4bc" x="57.6" y="115.282204" style="stroke: #000000; stroke-width: 0.6"/>
      </g>
     </g>
    </g>
    <g id="ytick_32">
     <g id="line2d_40">
      <g>
       <use xlink:href="#mbc57bff4bc" x="57.6" y="112.106973" style="stroke: #000000; stroke-width: 0.6"/>
      </g>
     </g>
    </g>
    <g id="ytick_33">
     <g id="line2d_41">
      <g>
       <use xlink:href="#mbc57bff4bc" x="57.6" y="90.58056" style="stroke: #000000; stroke-width: 0.6"/>
      </g>
     </g>
    </g>
    <g id="ytick_34">
     <g id="line2d_42">
      <g>
       <use xlink:href="#mbc57bff4bc" x="57.6" y="79.649908" style="stroke: #000000; stroke-width: 0.6"/>
      </g>
     </g>
    </g>
    <g id="ytick_35">
     <g id="line2d_43">
      <g>
       <use xlink:href="#mbc57bff4bc" x="57.6" y="71.894487" style="stroke: #000000; stroke-width: 0.6"/>
      </g>
     </g>
    </g>
    <g id="ytick_36">
     <g id="line2d_44">
      <g>
       <use xlink:href="#mbc57bff4bc" x="57.6" y="65.878916" style="stroke: #000000; stroke-width: 0.6"/>
      </g>
     </g>
    </g>
    <g id="ytick_37">
     <g id="line2d_45">
      <g>
       <use xlink:href="#mbc57bff4bc" x="57.6" y="60.963836" style="stroke: #000000; stroke-width: 0.6"/>
      </g>
     </g>
    </g>
    <g id="ytick_38">
     <g id="line2d_46">
      <g>
       <use xlink:href="#mbc57bff4bc" x="57.6" y="56.808195" style="stroke: #000000; stroke-width: 0.6"/>
      </g>
     </g>
    </g>
    <g id="ytick_39">
     <g id="line2d_47">
      <g>
       <use xlink:href="#mbc57bff4bc" x="57.6" y="53.208415" style="stroke: #000000; stroke-width: 0.6"/>
      </g>
     </g>
    </g>
    <g id="ytick_40">
     <g id="line2d_48">
      <g>
       <use xlink:href="#mbc57bff4bc" x="57.6" y="50.033184" style="stroke: #000000; stroke-width: 0.6"/>
      </g>
     </g>
    </g>
    <g id="text_15">
     <!-- Number of Elements -->
     <g transform="translate(26.920312 225.917062) rotate(-90) scale(0.1 -0.1)">
      <defs>
       <path id="DejaVuSans-4e" d="M 628 4666 
L 1478 4666 
L 3547 763 
L 3547 4666 
L 4159 4666 
L 4159 0 
L 3309 0 
L 1241 3903 
L 1241 0 
L 628 0 
L 628 4666 
z
" transform="scale(0.015625)"/>
       <path id="DejaVuSans-75" d="M 544 1381 
L 544 3500 
L 1119 3500 
L 1119 1403 
Q 1119 906 1312 657 
Q 1506 409 1894 409 
Q 2359 409 2629 706 
Q 2900 1003 2900 1516 
L 2900 3500 
L 3475 3500 
L 3475 0 
L 2900 0 
L 2900 538 
Q 2691 219 2414 64 
Q 2138 -91 1772 -91 
Q 1169 -91 856 284 
Q 544 659 544 1381 
z
M 1991 3584 
L 1991 3584 
z
" transform="scale(0.015625)"/>
       <path id="DejaVuSans-62" d="M 3116 1747 
Q 3116 2381 2855 2742 
Q 2594 3103 2138 3103 
Q 1681 3103 1420 2742 
Q 1159 2381 1159 1747 
Q 1159 1113 1420 752 
Q 1681 391 2138 391 
Q 2594 391 2855 752 
Q 3116 1113 3116 1747 
z
M 1159 2969 
Q 1341 3281 1617 3432 
Q 1894 3584 2278 3584 
Q 2916 3584 3314 3078 
Q 3713 2572 3713 1747 
Q 3713 922 3314 415 
Q 2916 -91 2278 -91 
Q 1894 -91 1617 61 
Q 1341 213 1159 525 
L 1159 0 
L 581 0 
L 581 4863 
L 1159 4863 
L 1159 2969 
z
" transform="scale(0.015625)"/>
       <path id="DejaVuSans-72" d="M 2631 2963 
Q 2534 3019 2420 3045 
Q 2306 3072 2169 3072 
Q 1681 3072 1420 2755 
Q 1159 2438 1159 1844 
L 1159 0 
L 581 0 
L 581 3500 
L 1159 3500 
L 1159 2956 
Q 1341 3275 1631 3429 
Q 1922 3584 2338 3584 
Q 2397 3584 2469 3576 
Q 2541 3569 2628 3553 
L 2631 2963 
z
" transform="scale(0.015625)"/>
       <path id="DejaVuSans-73" d="M 2834 3397 
L 2834 2853 
Q 2591 2978 2328 3040 
Q 2066 3103 1784 3103 
Q 1356 3103 1142 2972 
Q 928 2841 928 2578 
Q 928 2378 1081 2264 
Q 1234 2150 1697 2047 
L 1894 2003 
Q 2506 1872 2764 1633 
Q 3022 1394 3022 966 
Q 3022 478 2636 193 
Q 2250 -91 1575 -91 
Q 1294 -91 989 -36 
Q 684 19 347 128 
L 347 722 
Q 666 556 975 473 
Q 1284 391 1588 391 
Q 1994 391 2212 530 
Q 2431 669 2431 922 
Q 2431 1156 2273 1281 
Q 2116 1406 1581 1522 
L 1381 1569 
Q 847 1681 609 1914 
Q 372 2147 372 2553 
Q 372 3047 722 3315 
Q 1072 3584 1716 3584 
Q 2034 3584 2315 3537 
Q 2597 3491 2834 3397 
z
" transform="scale(0.015625)"/>
      </defs>
      <use xlink:href="#DejaVuSans-4e"/>
      <use xlink:href="#DejaVuSans-75" x="74.804688"/>
      <use xlink:href="#DejaVuSans-6d" x="138.183594"/>
      <use xlink:href="#DejaVuSans-62" x="235.595703"/>
      <use xlink:href="#DejaVuSans-65" x="299.072266"/>
      <use xlink:href="#DejaVuSans-72" x="360.595703"/>
      <use xlink:href="#DejaVuSans-20" x="401.708984"/>
      <use xlink:href="#DejaVuSans-6f" x="433.496094"/>
      <use xlink:href="#DejaVuSans-66" x="494.677734"/>
      <use xlink:href="#DejaVuSans-20" x="529.882812"/>
      <use xlink:href="#DejaVuSans-45" x="561.669922"/>
      <use xlink:href="#DejaVuSans-6c" x="624.853516"/>
      <use xlink:href="#DejaVuSans-65" x="652.636719"/>
      <use xlink:href="#DejaVuSans-6d" x="714.160156"/>
      <use xlink:href="#DejaVuSans-65" x="811.572266"/>
      <use xlink:href="#DejaVuSans-6e" x="873.095703"/>
      <use xlink:href="#DejaVuSans-74" x="936.474609"/>
      <use xlink:href="#DejaVuSans-73" x="975.683594"/>
     </g>
    </g>
   </g>
   <g id="patch_136">
    <path d="M 57.6 307.584 
L 57.6 41.472 
" style="fill: none; stroke: #000000; stroke-width: 0.8; stroke-linejoin: miter; stroke-linecap: square"/>
   </g>
   <g id="patch_137">
    <path d="M 414.72 307.584 
L 414.72 41.472 
" style="fill: none; stroke: #000000; stroke-width: 0.8; stroke-linejoin: miter; stroke-linecap: square"/>
   </g>
   <g id="patch_138">
    <path d="M 57.6 307.584 
L 414.72 307.584 
" style="fill: none; stroke: #000000; stroke-width: 0.8; stroke-linejoin: miter; stroke-linecap: square"/>
   </g>
   <g id="patch_139">
    <path d="M 57.6 41.472 
L 414.72 41.472 
" style="fill: none; stroke: #000000; stroke-width: 0.8; stroke-linejoin: miter; stroke-linecap: square"/>
   </g>
  </g>
 </g>
 <defs>
  <clipPath id="p1568642cd5">
   <rect x="57.6" y="41.472" width="357.12" height="266.112"/>
  </clipPath>
 </defs>
</svg>
