<?xml version="1.0" encoding="utf-8" standalone="no"?>
<!DOCTYPE svg PUBLIC "-//W3C//DTD SVG 1.1//EN"
  "http://www.w3.org/Graphics/SVG/1.1/DTD/svg11.dtd">
<svg xmlns:xlink="http://www.w3.org/1999/xlink" width="460.8pt" height="345.6pt" viewBox="0 0 460.8 345.6" xmlns="http://www.w3.org/2000/svg" version="1.1">
 <metadata>
  <rdf:RDF xmlns:dc="http://purl.org/dc/elements/1.1/" xmlns:cc="http://creativecommons.org/ns#" xmlns:rdf="http://www.w3.org/1999/02/22-rdf-syntax-ns#">
   <cc:Work>
    <dc:type rdf:resource="http://purl.org/dc/dcmitype/StillImage"/>
    <dc:date>2024-02-18T23:27:08.307749</dc:date>
    <dc:format>image/svg+xml</dc:format>
    <dc:creator>
     <cc:Agent>
      <dc:title>Matplotlib v3.8.3, https://matplotlib.org/</dc:title>
     </cc:Agent>
    </dc:creator>
   </cc:Work>
  </rdf:RDF>
 </metadata>
 <defs>
  <style type="text/css">*{stroke-linejoin: round; stroke-linecap: butt}</style>
 </defs>
 <g id="figure_1">
  <g id="patch_1">
   <path d="M 0 345.6 
L 460.8 345.6 
L 460.8 0 
L 0 0 
z
" style="fill: #ffffff"/>
  </g>
  <g id="axes_1">
   <g id="patch_2">
    <path d="M 57.6 307.584 
L 414.72 307.584 
L 414.72 41.472 
L 57.6 41.472 
z
" style="fill: #ffffff"/>
   </g>
   <g id="patch_3">
    <path d="M 73.832727 307.584 
L 74.657771 307.584 
L 74.657771 305.111415 
L 73.832727 305.111415 
z
" clip-path="url(#pa611e653b5)" style="fill: #1f77b4"/>
   </g>
   <g id="patch_4">
    <path d="M 74.864031 307.584 
L 75.689075 307.584 
L 75.689075 302.638829 
L 74.864031 302.638829 
z
" clip-path="url(#pa611e653b5)" style="fill: #1f77b4"/>
   </g>
   <g id="patch_5">
    <path d="M 76.92664 307.584 
L 77.751683 307.584 
L 77.751683 295.221073 
L 76.92664 295.221073 
z
" clip-path="url(#pa611e653b5)" style="fill: #1f77b4"/>
   </g>
   <g id="patch_6">
    <path d="M 78.989248 307.584 
L 79.814291 307.584 
L 79.814291 256.896 
L 78.989248 256.896 
z
" clip-path="url(#pa611e653b5)" style="fill: #1f77b4"/>
   </g>
   <g id="patch_7">
    <path d="M 82.08316 307.584 
L 82.908204 307.584 
L 82.908204 175.918829 
L 82.08316 175.918829 
z
" clip-path="url(#pa611e653b5)" style="fill: #1f77b4"/>
   </g>
   <g id="patch_8">
    <path d="M 75.895336 307.584 
L 76.720379 307.584 
L 76.720379 300.166244 
L 75.895336 300.166244 
z
" clip-path="url(#pa611e653b5)" style="fill: #1f77b4"/>
   </g>
   <g id="patch_9">
    <path d="M 77.957944 307.584 
L 78.782987 307.584 
L 78.782987 279.767415 
L 77.957944 279.767415 
z
" clip-path="url(#pa611e653b5)" style="fill: #1f77b4"/>
   </g>
   <g id="patch_10">
    <path d="M 81.051856 307.584 
L 81.8769 307.584 
L 81.8769 207.444293 
L 81.051856 207.444293 
z
" clip-path="url(#pa611e653b5)" style="fill: #1f77b4"/>
   </g>
   <g id="patch_11">
    <path d="M 80.020552 307.584 
L 80.845595 307.584 
L 80.845595 229.079415 
L 80.020552 229.079415 
z
" clip-path="url(#pa611e653b5)" style="fill: #1f77b4"/>
   </g>
   <g id="patch_12">
    <path d="M 84.145769 307.584 
L 84.970812 307.584 
L 84.970812 118.43122 
L 84.145769 118.43122 
z
" clip-path="url(#pa611e653b5)" style="fill: #1f77b4"/>
   </g>
   <g id="patch_13">
    <path d="M 83.114465 307.584 
L 83.939508 307.584 
L 83.939508 136.97561 
L 83.114465 136.97561 
z
" clip-path="url(#pa611e653b5)" style="fill: #1f77b4"/>
   </g>
   <g id="patch_14">
    <path d="M 85.177073 307.584 
L 86.002116 307.584 
L 86.002116 88.142049 
L 85.177073 88.142049 
z
" clip-path="url(#pa611e653b5)" style="fill: #1f77b4"/>
   </g>
   <g id="patch_15">
    <path d="M 88.270985 307.584 
L 89.096029 307.584 
L 89.096029 86.28761 
L 88.270985 86.28761 
z
" clip-path="url(#pa611e653b5)" style="fill: #1f77b4"/>
   </g>
   <g id="patch_16">
    <path d="M 86.208377 307.584 
L 87.03342 307.584 
L 87.03342 74.542829 
L 86.208377 74.542829 
z
" clip-path="url(#pa611e653b5)" style="fill: #1f77b4"/>
   </g>
   <g id="patch_17">
    <path d="M 87.239681 307.584 
L 88.064725 307.584 
L 88.064725 54.144 
L 87.239681 54.144 
z
" clip-path="url(#pa611e653b5)" style="fill: #1f77b4"/>
   </g>
   <g id="patch_18">
    <path d="M 89.302289 307.584 
L 90.127333 307.584 
L 90.127333 115.340488 
L 89.302289 115.340488 
z
" clip-path="url(#pa611e653b5)" style="fill: #1f77b4"/>
   </g>
   <g id="patch_19">
    <path d="M 90.333594 307.584 
L 91.158637 307.584 
L 91.158637 154.283707 
L 90.333594 154.283707 
z
" clip-path="url(#pa611e653b5)" style="fill: #1f77b4"/>
   </g>
   <g id="patch_20">
    <path d="M 94.45881 307.584 
L 95.283854 307.584 
L 95.283854 234.024585 
L 94.45881 234.024585 
z
" clip-path="url(#pa611e653b5)" style="fill: #1f77b4"/>
   </g>
   <g id="patch_21">
    <path d="M 91.364898 307.584 
L 92.189941 307.584 
L 92.189941 174.06439 
L 91.364898 174.06439 
z
" clip-path="url(#pa611e653b5)" style="fill: #1f77b4"/>
   </g>
   <g id="patch_22">
    <path d="M 100.646635 307.584 
L 101.471678 307.584 
L 101.471678 256.896 
L 100.646635 256.896 
z
" clip-path="url(#pa611e653b5)" style="fill: #1f77b4"/>
   </g>
   <g id="patch_23">
    <path d="M 93.427506 307.584 
L 94.252549 307.584 
L 94.252549 226.606829 
L 93.427506 226.606829 
z
" clip-path="url(#pa611e653b5)" style="fill: #1f77b4"/>
   </g>
   <g id="patch_24">
    <path d="M 98.584027 307.584 
L 99.40907 307.584 
L 99.40907 253.187122 
L 98.584027 253.187122 
z
" clip-path="url(#pa611e653b5)" style="fill: #1f77b4"/>
   </g>
   <g id="patch_25">
    <path d="M 96.521419 307.584 
L 97.346462 307.584 
L 97.346462 253.805268 
L 96.521419 253.805268 
z
" clip-path="url(#pa611e653b5)" style="fill: #1f77b4"/>
   </g>
   <g id="patch_26">
    <path d="M 92.396202 307.584 
L 93.221245 307.584 
L 93.221245 214.862049 
L 92.396202 214.862049 
z
" clip-path="url(#pa611e653b5)" style="fill: #1f77b4"/>
   </g>
   <g id="patch_27">
    <path d="M 95.490114 307.584 
L 96.315158 307.584 
L 96.315158 253.187122 
L 95.490114 253.187122 
z
" clip-path="url(#pa611e653b5)" style="fill: #1f77b4"/>
   </g>
   <g id="patch_28">
    <path d="M 97.552723 307.584 
L 98.377766 307.584 
L 98.377766 249.478244 
L 97.552723 249.478244 
z
" clip-path="url(#pa611e653b5)" style="fill: #1f77b4"/>
   </g>
   <g id="patch_29">
    <path d="M 105.803156 307.584 
L 106.628199 307.584 
L 106.628199 263.077463 
L 105.803156 263.077463 
z
" clip-path="url(#pa611e653b5)" style="fill: #1f77b4"/>
   </g>
   <g id="patch_30">
    <path d="M 106.83446 307.584 
L 107.659503 307.584 
L 107.659503 272.967805 
L 106.83446 272.967805 
z
" clip-path="url(#pa611e653b5)" style="fill: #1f77b4"/>
   </g>
   <g id="patch_31">
    <path d="M 107.865764 307.584 
L 108.690807 307.584 
L 108.690807 261.841171 
L 107.865764 261.841171 
z
" clip-path="url(#pa611e653b5)" style="fill: #1f77b4"/>
   </g>
   <g id="patch_32">
    <path d="M 108.897068 307.584 
L 109.722112 307.584 
L 109.722112 256.277854 
L 108.897068 256.277854 
z
" clip-path="url(#pa611e653b5)" style="fill: #1f77b4"/>
   </g>
   <g id="patch_33">
    <path d="M 99.615331 307.584 
L 100.440374 307.584 
L 100.440374 265.550049 
L 99.615331 265.550049 
z
" clip-path="url(#pa611e653b5)" style="fill: #1f77b4"/>
   </g>
   <g id="patch_34">
    <path d="M 101.677939 307.584 
L 102.502983 307.584 
L 102.502983 260.604878 
L 101.677939 260.604878 
z
" clip-path="url(#pa611e653b5)" style="fill: #1f77b4"/>
   </g>
   <g id="patch_35">
    <path d="M 102.709243 307.584 
L 103.534287 307.584 
L 103.534287 255.041561 
L 102.709243 255.041561 
z
" clip-path="url(#pa611e653b5)" style="fill: #1f77b4"/>
   </g>
   <g id="patch_36">
    <path d="M 104.771852 307.584 
L 105.596895 307.584 
L 105.596895 259.368585 
L 104.771852 259.368585 
z
" clip-path="url(#pa611e653b5)" style="fill: #1f77b4"/>
   </g>
   <g id="patch_37">
    <path d="M 103.740548 307.584 
L 104.565591 307.584 
L 104.565591 257.514146 
L 103.740548 257.514146 
z
" clip-path="url(#pa611e653b5)" style="fill: #1f77b4"/>
   </g>
   <g id="patch_38">
    <path d="M 119.21011 307.584 
L 120.035153 307.584 
L 120.035153 277.912976 
L 119.21011 277.912976 
z
" clip-path="url(#pa611e653b5)" style="fill: #1f77b4"/>
   </g>
   <g id="patch_39">
    <path d="M 110.959677 307.584 
L 111.78472 307.584 
L 111.78472 266.168195 
L 110.959677 266.168195 
z
" clip-path="url(#pa611e653b5)" style="fill: #1f77b4"/>
   </g>
   <g id="patch_40">
    <path d="M 117.147501 307.584 
L 117.972545 307.584 
L 117.972545 280.385561 
L 117.147501 280.385561 
z
" clip-path="url(#pa611e653b5)" style="fill: #1f77b4"/>
   </g>
   <g id="patch_41">
    <path d="M 111.990981 307.584 
L 112.816024 307.584 
L 112.816024 265.550049 
L 111.990981 265.550049 
z
" clip-path="url(#pa611e653b5)" style="fill: #1f77b4"/>
   </g>
   <g id="patch_42">
    <path d="M 115.084893 307.584 
L 115.909936 307.584 
L 115.909936 263.077463 
L 115.084893 263.077463 
z
" clip-path="url(#pa611e653b5)" style="fill: #1f77b4"/>
   </g>
   <g id="patch_43">
    <path d="M 120.241414 307.584 
L 121.066457 307.584 
L 121.066457 268.64078 
L 120.241414 268.64078 
z
" clip-path="url(#pa611e653b5)" style="fill: #1f77b4"/>
   </g>
   <g id="patch_44">
    <path d="M 121.272718 307.584 
L 122.097761 307.584 
L 122.097761 271.113366 
L 121.272718 271.113366 
z
" clip-path="url(#pa611e653b5)" style="fill: #1f77b4"/>
   </g>
   <g id="patch_45">
    <path d="M 114.053589 307.584 
L 114.878632 307.584 
L 114.878632 261.841171 
L 114.053589 261.841171 
z
" clip-path="url(#pa611e653b5)" style="fill: #1f77b4"/>
   </g>
   <g id="patch_46">
    <path d="M 109.928372 307.584 
L 110.753416 307.584 
L 110.753416 265.550049 
L 109.928372 265.550049 
z
" clip-path="url(#pa611e653b5)" style="fill: #1f77b4"/>
   </g>
   <g id="patch_47">
    <path d="M 135.710976 307.584 
L 136.536019 307.584 
L 136.536019 278.531122 
L 135.710976 278.531122 
z
" clip-path="url(#pa611e653b5)" style="fill: #1f77b4"/>
   </g>
   <g id="patch_48">
    <path d="M 125.397935 307.584 
L 126.222978 307.584 
L 126.222978 280.385561 
L 125.397935 280.385561 
z
" clip-path="url(#pa611e653b5)" style="fill: #1f77b4"/>
   </g>
   <g id="patch_49">
    <path d="M 126.429239 307.584 
L 127.254282 307.584 
L 127.254282 273.585951 
L 126.429239 273.585951 
z
" clip-path="url(#pa611e653b5)" style="fill: #1f77b4"/>
   </g>
   <g id="patch_50">
    <path d="M 113.022285 307.584 
L 113.847328 307.584 
L 113.847328 268.64078 
L 113.022285 268.64078 
z
" clip-path="url(#pa611e653b5)" style="fill: #1f77b4"/>
   </g>
   <g id="patch_51">
    <path d="M 137.773584 307.584 
L 138.598628 307.584 
L 138.598628 277.912976 
L 137.773584 277.912976 
z
" clip-path="url(#pa611e653b5)" style="fill: #1f77b4"/>
   </g>
   <g id="patch_52">
    <path d="M 118.178806 307.584 
L 119.003849 307.584 
L 119.003849 264.313756 
L 118.178806 264.313756 
z
" clip-path="url(#pa611e653b5)" style="fill: #1f77b4"/>
   </g>
   <g id="patch_53">
    <path d="M 124.36663 307.584 
L 125.191674 307.584 
L 125.191674 266.168195 
L 124.36663 266.168195 
z
" clip-path="url(#pa611e653b5)" style="fill: #1f77b4"/>
   </g>
   <g id="patch_54">
    <path d="M 132.617064 307.584 
L 133.442107 307.584 
L 133.442107 274.822244 
L 132.617064 274.822244 
z
" clip-path="url(#pa611e653b5)" style="fill: #1f77b4"/>
   </g>
   <g id="patch_55">
    <path d="M 116.116197 307.584 
L 116.941241 307.584 
L 116.941241 271.113366 
L 116.116197 271.113366 
z
" clip-path="url(#pa611e653b5)" style="fill: #1f77b4"/>
   </g>
   <g id="patch_56">
    <path d="M 127.460543 307.584 
L 128.285586 307.584 
L 128.285586 281.621854 
L 127.460543 281.621854 
z
" clip-path="url(#pa611e653b5)" style="fill: #1f77b4"/>
   </g>
   <g id="patch_57">
    <path d="M 130.554455 307.584 
L 131.379499 307.584 
L 131.379499 271.731512 
L 130.554455 271.731512 
z
" clip-path="url(#pa611e653b5)" style="fill: #1f77b4"/>
   </g>
   <g id="patch_58">
    <path d="M 129.523151 307.584 
L 130.348195 307.584 
L 130.348195 277.294829 
L 129.523151 277.294829 
z
" clip-path="url(#pa611e653b5)" style="fill: #1f77b4"/>
   </g>
   <g id="patch_59">
    <path d="M 143.961409 307.584 
L 144.786453 307.584 
L 144.786453 281.621854 
L 143.961409 281.621854 
z
" clip-path="url(#pa611e653b5)" style="fill: #1f77b4"/>
   </g>
   <g id="patch_60">
    <path d="M 134.679672 307.584 
L 135.504715 307.584 
L 135.504715 277.294829 
L 134.679672 277.294829 
z
" clip-path="url(#pa611e653b5)" style="fill: #1f77b4"/>
   </g>
   <g id="patch_61">
    <path d="M 122.304022 307.584 
L 123.129065 307.584 
L 123.129065 272.967805 
L 122.304022 272.967805 
z
" clip-path="url(#pa611e653b5)" style="fill: #1f77b4"/>
   </g>
   <g id="patch_62">
    <path d="M 133.648368 307.584 
L 134.473411 307.584 
L 134.473411 274.822244 
L 133.648368 274.822244 
z
" clip-path="url(#pa611e653b5)" style="fill: #1f77b4"/>
   </g>
   <g id="patch_63">
    <path d="M 152.211842 307.584 
L 153.036886 307.584 
L 153.036886 285.330732 
L 152.211842 285.330732 
z
" clip-path="url(#pa611e653b5)" style="fill: #1f77b4"/>
   </g>
   <g id="patch_64">
    <path d="M 156.337059 307.584 
L 157.162102 307.584 
L 157.162102 286.567024 
L 156.337059 286.567024 
z
" clip-path="url(#pa611e653b5)" style="fill: #1f77b4"/>
   </g>
   <g id="patch_65">
    <path d="M 176.963142 307.584 
L 177.788185 307.584 
L 177.788185 295.221073 
L 176.963142 295.221073 
z
" clip-path="url(#pa611e653b5)" style="fill: #1f77b4"/>
   </g>
   <g id="patch_66">
    <path d="M 139.836193 307.584 
L 140.661236 307.584 
L 140.661236 283.476293 
L 139.836193 283.476293 
z
" clip-path="url(#pa611e653b5)" style="fill: #1f77b4"/>
   </g>
   <g id="patch_67">
    <path d="M 123.335326 307.584 
L 124.16037 307.584 
L 124.16037 276.676683 
L 123.335326 276.676683 
z
" clip-path="url(#pa611e653b5)" style="fill: #1f77b4"/>
   </g>
   <g id="patch_68">
    <path d="M 163.556188 307.584 
L 164.381231 307.584 
L 164.381231 283.476293 
L 163.556188 283.476293 
z
" clip-path="url(#pa611e653b5)" style="fill: #1f77b4"/>
   </g>
   <g id="patch_69">
    <path d="M 162.524884 307.584 
L 163.349927 307.584 
L 163.349927 287.803317 
L 162.524884 287.803317 
z
" clip-path="url(#pa611e653b5)" style="fill: #1f77b4"/>
   </g>
   <g id="patch_70">
    <path d="M 168.712709 307.584 
L 169.537752 307.584 
L 169.537752 296.457366 
L 168.712709 296.457366 
z
" clip-path="url(#pa611e653b5)" style="fill: #1f77b4"/>
   </g>
   <g id="patch_71">
    <path d="M 144.992713 307.584 
L 145.817757 307.584 
L 145.817757 287.803317 
L 144.992713 287.803317 
z
" clip-path="url(#pa611e653b5)" style="fill: #1f77b4"/>
   </g>
   <g id="patch_72">
    <path d="M 165.618796 307.584 
L 166.44384 307.584 
L 166.44384 297.693659 
L 165.618796 297.693659 
z
" clip-path="url(#pa611e653b5)" style="fill: #1f77b4"/>
   </g>
   <g id="patch_73">
    <path d="M 141.898801 307.584 
L 142.723844 307.584 
L 142.723844 275.44039 
L 141.898801 275.44039 
z
" clip-path="url(#pa611e653b5)" style="fill: #1f77b4"/>
   </g>
   <g id="patch_74">
    <path d="M 136.74228 307.584 
L 137.567324 307.584 
L 137.567324 281.621854 
L 136.74228 281.621854 
z
" clip-path="url(#pa611e653b5)" style="fill: #1f77b4"/>
   </g>
   <g id="patch_75">
    <path d="M 151.180538 307.584 
L 152.005582 307.584 
L 152.005582 286.567024 
L 151.180538 286.567024 
z
" clip-path="url(#pa611e653b5)" style="fill: #1f77b4"/>
   </g>
   <g id="patch_76">
    <path d="M 148.086626 307.584 
L 148.911669 307.584 
L 148.911669 281.003707 
L 148.086626 281.003707 
z
" clip-path="url(#pa611e653b5)" style="fill: #1f77b4"/>
   </g>
   <g id="patch_77">
    <path d="M 153.243147 307.584 
L 154.06819 307.584 
L 154.06819 287.185171 
L 153.243147 287.185171 
z
" clip-path="url(#pa611e653b5)" style="fill: #1f77b4"/>
   </g>
   <g id="patch_78">
    <path d="M 142.930105 307.584 
L 143.755148 307.584 
L 143.755148 286.567024 
L 142.930105 286.567024 
z
" clip-path="url(#pa611e653b5)" style="fill: #1f77b4"/>
   </g>
   <g id="patch_79">
    <path d="M 131.58576 307.584 
L 132.410803 307.584 
L 132.410803 277.294829 
L 131.58576 277.294829 
z
" clip-path="url(#pa611e653b5)" style="fill: #1f77b4"/>
   </g>
   <g id="patch_80">
    <path d="M 159.430971 307.584 
L 160.256015 307.584 
L 160.256015 287.803317 
L 159.430971 287.803317 
z
" clip-path="url(#pa611e653b5)" style="fill: #1f77b4"/>
   </g>
   <g id="patch_81">
    <path d="M 169.744013 307.584 
L 170.569056 307.584 
L 170.569056 288.421463 
L 169.744013 288.421463 
z
" clip-path="url(#pa611e653b5)" style="fill: #1f77b4"/>
   </g>
   <g id="patch_82">
    <path d="M 182.119663 307.584 
L 182.944706 307.584 
L 182.944706 302.020683 
L 182.119663 302.020683 
z
" clip-path="url(#pa611e653b5)" style="fill: #1f77b4"/>
   </g>
   <g id="patch_83">
    <path d="M 172.837925 307.584 
L 173.662969 307.584 
L 173.662969 292.748488 
L 172.837925 292.748488 
z
" clip-path="url(#pa611e653b5)" style="fill: #1f77b4"/>
   </g>
   <g id="patch_84">
    <path d="M 140.867497 307.584 
L 141.69254 307.584 
L 141.69254 282.858146 
L 140.867497 282.858146 
z
" clip-path="url(#pa611e653b5)" style="fill: #1f77b4"/>
   </g>
   <g id="patch_85">
    <path d="M 147.055322 307.584 
L 147.880365 307.584 
L 147.880365 287.803317 
L 147.055322 287.803317 
z
" clip-path="url(#pa611e653b5)" style="fill: #1f77b4"/>
   </g>
   <g id="patch_86">
    <path d="M 138.804889 307.584 
L 139.629932 307.584 
L 139.629932 285.948878 
L 138.804889 285.948878 
z
" clip-path="url(#pa611e653b5)" style="fill: #1f77b4"/>
   </g>
   <g id="patch_87">
    <path d="M 128.491847 307.584 
L 129.31689 307.584 
L 129.31689 279.149268 
L 128.491847 279.149268 
z
" clip-path="url(#pa611e653b5)" style="fill: #1f77b4"/>
   </g>
   <g id="patch_88">
    <path d="M 149.11793 307.584 
L 149.942973 307.584 
L 149.942973 287.185171 
L 149.11793 287.185171 
z
" clip-path="url(#pa611e653b5)" style="fill: #1f77b4"/>
   </g>
   <g id="patch_89">
    <path d="M 157.368363 307.584 
L 158.193406 307.584 
L 158.193406 295.83922 
L 157.368363 295.83922 
z
" clip-path="url(#pa611e653b5)" style="fill: #1f77b4"/>
   </g>
   <g id="patch_90">
    <path d="M 170.775317 307.584 
L 171.60036 307.584 
L 171.60036 294.602927 
L 170.775317 294.602927 
z
" clip-path="url(#pa611e653b5)" style="fill: #1f77b4"/>
   </g>
   <g id="patch_91">
    <path d="M 150.149234 307.584 
L 150.974277 307.584 
L 150.974277 286.567024 
L 150.149234 286.567024 
z
" clip-path="url(#pa611e653b5)" style="fill: #1f77b4"/>
   </g>
   <g id="patch_92">
    <path d="M 146.024018 307.584 
L 146.849061 307.584 
L 146.849061 290.275902 
L 146.024018 290.275902 
z
" clip-path="url(#pa611e653b5)" style="fill: #1f77b4"/>
   </g>
   <g id="patch_93">
    <path d="M 155.305755 307.584 
L 156.130798 307.584 
L 156.130798 276.676683 
L 155.305755 276.676683 
z
" clip-path="url(#pa611e653b5)" style="fill: #1f77b4"/>
   </g>
   <g id="patch_94">
    <path d="M 183.150967 307.584 
L 183.97601 307.584 
L 183.97601 297.693659 
L 183.150967 297.693659 
z
" clip-path="url(#pa611e653b5)" style="fill: #1f77b4"/>
   </g>
   <g id="patch_95">
    <path d="M 171.806621 307.584 
L 172.631665 307.584 
L 172.631665 297.075512 
L 171.806621 297.075512 
z
" clip-path="url(#pa611e653b5)" style="fill: #1f77b4"/>
   </g>
   <g id="patch_96">
    <path d="M 160.462276 307.584 
L 161.287319 307.584 
L 161.287319 291.512195 
L 160.462276 291.512195 
z
" clip-path="url(#pa611e653b5)" style="fill: #1f77b4"/>
   </g>
   <g id="patch_97">
    <path d="M 185.213575 307.584 
L 186.038618 307.584 
L 186.038618 295.83922 
L 185.213575 295.83922 
z
" clip-path="url(#pa611e653b5)" style="fill: #1f77b4"/>
   </g>
   <g id="patch_98">
    <path d="M 194.495312 307.584 
L 195.320356 307.584 
L 195.320356 300.78439 
L 194.495312 300.78439 
z
" clip-path="url(#pa611e653b5)" style="fill: #1f77b4"/>
   </g>
   <g id="patch_99">
    <path d="M 158.399667 307.584 
L 159.224711 307.584 
L 159.224711 292.130341 
L 158.399667 292.130341 
z
" clip-path="url(#pa611e653b5)" style="fill: #1f77b4"/>
   </g>
   <g id="patch_100">
    <path d="M 167.681405 307.584 
L 168.506448 307.584 
L 168.506448 299.548098 
L 167.681405 299.548098 
z
" clip-path="url(#pa611e653b5)" style="fill: #1f77b4"/>
   </g>
   <g id="patch_101">
    <path d="M 191.4014 307.584 
L 192.226443 307.584 
L 192.226443 297.075512 
L 191.4014 297.075512 
z
" clip-path="url(#pa611e653b5)" style="fill: #1f77b4"/>
   </g>
   <g id="patch_102">
    <path d="M 197.589225 307.584 
L 198.414268 307.584 
L 198.414268 298.311805 
L 197.589225 298.311805 
z
" clip-path="url(#pa611e653b5)" style="fill: #1f77b4"/>
   </g>
   <g id="patch_103">
    <path d="M 174.900534 307.584 
L 175.725577 307.584 
L 175.725577 295.221073 
L 174.900534 295.221073 
z
" clip-path="url(#pa611e653b5)" style="fill: #1f77b4"/>
   </g>
   <g id="patch_104">
    <path d="M 189.338792 307.584 
L 190.163835 307.584 
L 190.163835 297.693659 
L 189.338792 297.693659 
z
" clip-path="url(#pa611e653b5)" style="fill: #1f77b4"/>
   </g>
   <g id="patch_105">
    <path d="M 180.057054 307.584 
L 180.882098 307.584 
L 180.882098 294.602927 
L 180.057054 294.602927 
z
" clip-path="url(#pa611e653b5)" style="fill: #1f77b4"/>
   </g>
   <g id="patch_106">
    <path d="M 175.931838 307.584 
L 176.756881 307.584 
L 176.756881 293.98478 
L 175.931838 293.98478 
z
" clip-path="url(#pa611e653b5)" style="fill: #1f77b4"/>
   </g>
   <g id="patch_107">
    <path d="M 177.994446 307.584 
L 178.819489 307.584 
L 178.819489 292.748488 
L 177.994446 292.748488 
z
" clip-path="url(#pa611e653b5)" style="fill: #1f77b4"/>
   </g>
   <g id="patch_108">
    <path d="M 154.274451 307.584 
L 155.099494 307.584 
L 155.099494 286.567024 
L 154.274451 286.567024 
z
" clip-path="url(#pa611e653b5)" style="fill: #1f77b4"/>
   </g>
   <g id="patch_109">
    <path d="M 173.86923 307.584 
L 174.694273 307.584 
L 174.694273 297.693659 
L 173.86923 297.693659 
z
" clip-path="url(#pa611e653b5)" style="fill: #1f77b4"/>
   </g>
   <g id="patch_110">
    <path d="M 195.526617 307.584 
L 196.35166 307.584 
L 196.35166 295.83922 
L 195.526617 295.83922 
z
" clip-path="url(#pa611e653b5)" style="fill: #1f77b4"/>
   </g>
   <g id="patch_111">
    <path d="M 200.683137 307.584 
L 201.508181 307.584 
L 201.508181 297.693659 
L 200.683137 297.693659 
z
" clip-path="url(#pa611e653b5)" style="fill: #1f77b4"/>
   </g>
   <g id="patch_112">
    <path d="M 192.432704 307.584 
L 193.257747 307.584 
L 193.257747 297.693659 
L 192.432704 297.693659 
z
" clip-path="url(#pa611e653b5)" style="fill: #1f77b4"/>
   </g>
   <g id="patch_113">
    <path d="M 186.244879 307.584 
L 187.069923 307.584 
L 187.069923 295.83922 
L 186.244879 295.83922 
z
" clip-path="url(#pa611e653b5)" style="fill: #1f77b4"/>
   </g>
   <g id="patch_114">
    <path d="M 190.370096 307.584 
L 191.195139 307.584 
L 191.195139 300.78439 
L 190.370096 300.78439 
z
" clip-path="url(#pa611e653b5)" style="fill: #1f77b4"/>
   </g>
   <g id="patch_115">
    <path d="M 166.6501 307.584 
L 167.475144 307.584 
L 167.475144 288.421463 
L 166.6501 288.421463 
z
" clip-path="url(#pa611e653b5)" style="fill: #1f77b4"/>
   </g>
   <g id="patch_116">
    <path d="M 161.49358 307.584 
L 162.318623 307.584 
L 162.318623 293.366634 
L 161.49358 293.366634 
z
" clip-path="url(#pa611e653b5)" style="fill: #1f77b4"/>
   </g>
   <g id="patch_117">
    <path d="M 184.182271 307.584 
L 185.007314 307.584 
L 185.007314 298.311805 
L 184.182271 298.311805 
z
" clip-path="url(#pa611e653b5)" style="fill: #1f77b4"/>
   </g>
   <g id="patch_118">
    <path d="M 179.02575 307.584 
L 179.850794 307.584 
L 179.850794 295.83922 
L 179.02575 295.83922 
z
" clip-path="url(#pa611e653b5)" style="fill: #1f77b4"/>
   </g>
   <g id="patch_119">
    <path d="M 181.088359 307.584 
L 181.913402 307.584 
L 181.913402 298.311805 
L 181.088359 298.311805 
z
" clip-path="url(#pa611e653b5)" style="fill: #1f77b4"/>
   </g>
   <g id="patch_120">
    <path d="M 201.714441 307.584 
L 202.539485 307.584 
L 202.539485 299.548098 
L 201.714441 299.548098 
z
" clip-path="url(#pa611e653b5)" style="fill: #1f77b4"/>
   </g>
   <g id="patch_121">
    <path d="M 222.340524 307.584 
L 223.165568 307.584 
L 223.165568 305.729561 
L 222.340524 305.729561 
z
" clip-path="url(#pa611e653b5)" style="fill: #1f77b4"/>
   </g>
   <g id="patch_122">
    <path d="M 210.996179 307.584 
L 211.821222 307.584 
L 211.821222 303.875122 
L 210.996179 303.875122 
z
" clip-path="url(#pa611e653b5)" style="fill: #1f77b4"/>
   </g>
   <g id="patch_123">
    <path d="M 216.1527 307.584 
L 216.977743 307.584 
L 216.977743 304.493268 
L 216.1527 304.493268 
z
" clip-path="url(#pa611e653b5)" style="fill: #1f77b4"/>
   </g>
   <g id="patch_124">
    <path d="M 196.557921 307.584 
L 197.382964 307.584 
L 197.382964 303.256976 
L 196.557921 303.256976 
z
" clip-path="url(#pa611e653b5)" style="fill: #1f77b4"/>
   </g>
   <g id="patch_125">
    <path d="M 209.964875 307.584 
L 210.789918 307.584 
L 210.789918 302.638829 
L 209.964875 302.638829 
z
" clip-path="url(#pa611e653b5)" style="fill: #1f77b4"/>
   </g>
   <g id="patch_126">
    <path d="M 188.307488 307.584 
L 189.132531 307.584 
L 189.132531 298.929951 
L 188.307488 298.929951 
z
" clip-path="url(#pa611e653b5)" style="fill: #1f77b4"/>
   </g>
   <g id="patch_127">
    <path d="M 230.590958 307.584 
L 231.416001 307.584 
L 231.416001 306.347707 
L 230.590958 306.347707 
z
" clip-path="url(#pa611e653b5)" style="fill: #1f77b4"/>
   </g>
   <g id="patch_128">
    <path d="M 243.997912 307.584 
L 244.822955 307.584 
L 244.822955 303.875122 
L 243.997912 303.875122 
z
" clip-path="url(#pa611e653b5)" style="fill: #1f77b4"/>
   </g>
   <g id="patch_129">
    <path d="M 236.778782 307.584 
L 237.603826 307.584 
L 237.603826 306.347707 
L 236.778782 306.347707 
z
" clip-path="url(#pa611e653b5)" style="fill: #1f77b4"/>
   </g>
   <g id="patch_130">
    <path d="M 187.276183 307.584 
L 188.101227 307.584 
L 188.101227 297.693659 
L 187.276183 297.693659 
z
" clip-path="url(#pa611e653b5)" style="fill: #1f77b4"/>
   </g>
   <g id="patch_131">
    <path d="M 223.371829 307.584 
L 224.196872 307.584 
L 224.196872 301.402537 
L 223.371829 301.402537 
z
" clip-path="url(#pa611e653b5)" style="fill: #1f77b4"/>
   </g>
   <g id="patch_132">
    <path d="M 206.870962 307.584 
L 207.696006 307.584 
L 207.696006 300.78439 
L 206.870962 300.78439 
z
" clip-path="url(#pa611e653b5)" style="fill: #1f77b4"/>
   </g>
   <g id="patch_133">
    <path d="M 202.745746 307.584 
L 203.570789 307.584 
L 203.570789 304.493268 
L 202.745746 304.493268 
z
" clip-path="url(#pa611e653b5)" style="fill: #1f77b4"/>
   </g>
   <g id="patch_134">
    <path d="M 198.620529 307.584 
L 199.445572 307.584 
L 199.445572 298.929951 
L 198.620529 298.929951 
z
" clip-path="url(#pa611e653b5)" style="fill: #1f77b4"/>
   </g>
   <g id="patch_135">
    <path d="M 219.246612 307.584 
L 220.071655 307.584 
L 220.071655 304.493268 
L 219.246612 304.493268 
z
" clip-path="url(#pa611e653b5)" style="fill: #1f77b4"/>
   </g>
   <g id="patch_136">
    <path d="M 193.464008 307.584 
L 194.289052 307.584 
L 194.289052 303.875122 
L 193.464008 303.875122 
z
" clip-path="url(#pa611e653b5)" style="fill: #1f77b4"/>
   </g>
   <g id="patch_137">
    <path d="M 205.839658 307.584 
L 206.664701 307.584 
L 206.664701 303.875122 
L 205.839658 303.875122 
z
" clip-path="url(#pa611e653b5)" style="fill: #1f77b4"/>
   </g>
   <g id="patch_138">
    <path d="M 164.587492 307.584 
L 165.412536 307.584 
L 165.412536 299.548098 
L 164.587492 299.548098 
z
" clip-path="url(#pa611e653b5)" style="fill: #1f77b4"/>
   </g>
   <g id="patch_139">
    <path d="M 215.121395 307.584 
L 215.946439 307.584 
L 215.946439 303.875122 
L 215.121395 303.875122 
z
" clip-path="url(#pa611e653b5)" style="fill: #1f77b4"/>
   </g>
   <g id="patch_140">
    <path d="M 204.808354 307.584 
L 205.633397 307.584 
L 205.633397 301.402537 
L 204.808354 301.402537 
z
" clip-path="url(#pa611e653b5)" style="fill: #1f77b4"/>
   </g>
   <g id="patch_141">
    <path d="M 214.090091 307.584 
L 214.915135 307.584 
L 214.915135 301.402537 
L 214.090091 301.402537 
z
" clip-path="url(#pa611e653b5)" style="fill: #1f77b4"/>
   </g>
   <g id="patch_142">
    <path d="M 228.528349 307.584 
L 229.353393 307.584 
L 229.353393 305.111415 
L 228.528349 305.111415 
z
" clip-path="url(#pa611e653b5)" style="fill: #1f77b4"/>
   </g>
   <g id="patch_143">
    <path d="M 213.058787 307.584 
L 213.88383 307.584 
L 213.88383 302.638829 
L 213.058787 302.638829 
z
" clip-path="url(#pa611e653b5)" style="fill: #1f77b4"/>
   </g>
   <g id="patch_144">
    <path d="M 254.310953 307.584 
L 255.135996 307.584 
L 255.135996 306.347707 
L 254.310953 306.347707 
z
" clip-path="url(#pa611e653b5)" style="fill: #1f77b4"/>
   </g>
   <g id="patch_145">
    <path d="M 221.30922 307.584 
L 222.134264 307.584 
L 222.134264 305.729561 
L 221.30922 305.729561 
z
" clip-path="url(#pa611e653b5)" style="fill: #1f77b4"/>
   </g>
   <g id="patch_146">
    <path d="M 283.187469 307.584 
L 284.012512 307.584 
L 284.012512 306.965854 
L 283.187469 306.965854 
z
" clip-path="url(#pa611e653b5)" style="fill: #1f77b4"/>
   </g>
   <g id="patch_147">
    <path d="M 251.217041 307.584 
L 252.042084 307.584 
L 252.042084 306.965854 
L 251.217041 306.965854 
z
" clip-path="url(#pa611e653b5)" style="fill: #1f77b4"/>
   </g>
   <g id="patch_148">
    <path d="M 239.872695 307.584 
L 240.697738 307.584 
L 240.697738 305.729561 
L 239.872695 305.729561 
z
" clip-path="url(#pa611e653b5)" style="fill: #1f77b4"/>
   </g>
   <g id="patch_149">
    <path d="M 245.029216 307.584 
L 245.854259 307.584 
L 245.854259 305.729561 
L 245.029216 305.729561 
z
" clip-path="url(#pa611e653b5)" style="fill: #1f77b4"/>
   </g>
   <g id="patch_150">
    <path d="M 208.933571 307.584 
L 209.758614 307.584 
L 209.758614 305.111415 
L 208.933571 305.111415 
z
" clip-path="url(#pa611e653b5)" style="fill: #1f77b4"/>
   </g>
   <g id="patch_151">
    <path d="M 199.651833 307.584 
L 200.476877 307.584 
L 200.476877 300.78439 
L 199.651833 300.78439 
z
" clip-path="url(#pa611e653b5)" style="fill: #1f77b4"/>
   </g>
   <g id="patch_152">
    <path d="M 261.530082 307.584 
L 262.355125 307.584 
L 262.355125 306.965854 
L 261.530082 306.965854 
z
" clip-path="url(#pa611e653b5)" style="fill: #1f77b4"/>
   </g>
   <g id="patch_153">
    <path d="M 242.966607 307.584 
L 243.791651 307.584 
L 243.791651 306.965854 
L 242.966607 306.965854 
z
" clip-path="url(#pa611e653b5)" style="fill: #1f77b4"/>
   </g>
   <g id="patch_154">
    <path d="M 232.653566 307.584 
L 233.478609 307.584 
L 233.478609 303.875122 
L 232.653566 303.875122 
z
" clip-path="url(#pa611e653b5)" style="fill: #1f77b4"/>
   </g>
   <g id="patch_155">
    <path d="M 207.902266 307.584 
L 208.72731 307.584 
L 208.72731 305.111415 
L 207.902266 305.111415 
z
" clip-path="url(#pa611e653b5)" style="fill: #1f77b4"/>
   </g>
   <g id="patch_156">
    <path d="M 218.215308 307.584 
L 219.040351 307.584 
L 219.040351 304.493268 
L 218.215308 304.493268 
z
" clip-path="url(#pa611e653b5)" style="fill: #1f77b4"/>
   </g>
   <g id="patch_157">
    <path d="M 240.903999 307.584 
L 241.729042 307.584 
L 241.729042 304.493268 
L 240.903999 304.493268 
z
" clip-path="url(#pa611e653b5)" style="fill: #1f77b4"/>
   </g>
   <g id="patch_158">
    <path d="M 212.027483 307.584 
L 212.852526 307.584 
L 212.852526 305.111415 
L 212.027483 305.111415 
z
" clip-path="url(#pa611e653b5)" style="fill: #1f77b4"/>
   </g>
   <g id="patch_159">
    <path d="M 234.716174 307.584 
L 235.541218 307.584 
L 235.541218 305.729561 
L 234.716174 305.729561 
z
" clip-path="url(#pa611e653b5)" style="fill: #1f77b4"/>
   </g>
   <g id="patch_160">
    <path d="M 237.810087 307.584 
L 238.63513 307.584 
L 238.63513 305.729561 
L 237.810087 305.729561 
z
" clip-path="url(#pa611e653b5)" style="fill: #1f77b4"/>
   </g>
   <g id="patch_161">
    <path d="M 224.403133 307.584 
L 225.228176 307.584 
L 225.228176 305.111415 
L 224.403133 305.111415 
z
" clip-path="url(#pa611e653b5)" style="fill: #1f77b4"/>
   </g>
   <g id="patch_162">
    <path d="M 255.342257 307.584 
L 256.1673 307.584 
L 256.1673 306.347707 
L 255.342257 306.347707 
z
" clip-path="url(#pa611e653b5)" style="fill: #1f77b4"/>
   </g>
   <g id="patch_163">
    <path d="M 246.06052 307.584 
L 246.885563 307.584 
L 246.885563 305.111415 
L 246.06052 305.111415 
z
" clip-path="url(#pa611e653b5)" style="fill: #1f77b4"/>
   </g>
   <g id="patch_164">
    <path d="M 217.184004 307.584 
L 218.009047 307.584 
L 218.009047 305.729561 
L 217.184004 305.729561 
z
" clip-path="url(#pa611e653b5)" style="fill: #1f77b4"/>
   </g>
   <g id="patch_165">
    <path d="M 238.841391 307.584 
L 239.666434 307.584 
L 239.666434 305.729561 
L 238.841391 305.729561 
z
" clip-path="url(#pa611e653b5)" style="fill: #1f77b4"/>
   </g>
   <g id="patch_166">
    <path d="M 269.780515 307.584 
L 270.605559 307.584 
L 270.605559 306.965854 
L 269.780515 306.965854 
z
" clip-path="url(#pa611e653b5)" style="fill: #1f77b4"/>
   </g>
   <g id="patch_167">
    <path d="M 267.717907 307.584 
L 268.54295 307.584 
L 268.54295 306.347707 
L 267.717907 306.347707 
z
" clip-path="url(#pa611e653b5)" style="fill: #1f77b4"/>
   </g>
   <g id="patch_168">
    <path d="M 247.091824 307.584 
L 247.916867 307.584 
L 247.916867 306.965854 
L 247.091824 306.965854 
z
" clip-path="url(#pa611e653b5)" style="fill: #1f77b4"/>
   </g>
   <g id="patch_169">
    <path d="M 252.248345 307.584 
L 253.073388 307.584 
L 253.073388 306.347707 
L 252.248345 306.347707 
z
" clip-path="url(#pa611e653b5)" style="fill: #1f77b4"/>
   </g>
   <g id="patch_170">
    <path d="M 231.622262 307.584 
L 232.447305 307.584 
L 232.447305 305.111415 
L 231.622262 305.111415 
z
" clip-path="url(#pa611e653b5)" style="fill: #1f77b4"/>
   </g>
   <g id="patch_171">
    <path d="M 294.531815 307.584 
L 295.356858 307.584 
L 295.356858 306.965854 
L 294.531815 306.965854 
z
" clip-path="url(#pa611e653b5)" style="fill: #1f77b4"/>
   </g>
   <g id="patch_172">
    <path d="M 257.404865 307.584 
L 258.229909 307.584 
L 258.229909 305.729561 
L 257.404865 305.729561 
z
" clip-path="url(#pa611e653b5)" style="fill: #1f77b4"/>
   </g>
   <g id="patch_173">
    <path d="M 203.77705 307.584 
L 204.602093 307.584 
L 204.602093 303.256976 
L 203.77705 303.256976 
z
" clip-path="url(#pa611e653b5)" style="fill: #1f77b4"/>
   </g>
   <g id="patch_174">
    <path d="M 306.907464 307.584 
L 307.732508 307.584 
L 307.732508 306.965854 
L 306.907464 306.965854 
z
" clip-path="url(#pa611e653b5)" style="fill: #1f77b4"/>
   </g>
   <g id="patch_175">
    <path d="M 241.935303 307.584 
L 242.760347 307.584 
L 242.760347 306.965854 
L 241.935303 306.965854 
z
" clip-path="url(#pa611e653b5)" style="fill: #1f77b4"/>
   </g>
   <g id="patch_176">
    <path d="M 227.497045 307.584 
L 228.322088 307.584 
L 228.322088 305.111415 
L 227.497045 305.111415 
z
" clip-path="url(#pa611e653b5)" style="fill: #1f77b4"/>
   </g>
   <g id="patch_177">
    <path d="M 248.123128 307.584 
L 248.948171 307.584 
L 248.948171 305.729561 
L 248.123128 305.729561 
z
" clip-path="url(#pa611e653b5)" style="fill: #1f77b4"/>
   </g>
   <g id="patch_178">
    <path d="M 220.277916 307.584 
L 221.102959 307.584 
L 221.102959 304.493268 
L 220.277916 304.493268 
z
" clip-path="url(#pa611e653b5)" style="fill: #1f77b4"/>
   </g>
   <g id="patch_179">
    <path d="M 264.623994 307.584 
L 265.449038 307.584 
L 265.449038 306.347707 
L 264.623994 306.347707 
z
" clip-path="url(#pa611e653b5)" style="fill: #1f77b4"/>
   </g>
   <g id="patch_180">
    <path d="M 249.154432 307.584 
L 249.979476 307.584 
L 249.979476 306.347707 
L 249.154432 306.347707 
z
" clip-path="url(#pa611e653b5)" style="fill: #1f77b4"/>
   </g>
   <g id="patch_181">
    <path d="M 282.156165 307.584 
L 282.981208 307.584 
L 282.981208 306.965854 
L 282.156165 306.965854 
z
" clip-path="url(#pa611e653b5)" style="fill: #1f77b4"/>
   </g>
   <g id="patch_182">
    <path d="M 274.937036 307.584 
L 275.762079 307.584 
L 275.762079 306.965854 
L 274.937036 306.965854 
z
" clip-path="url(#pa611e653b5)" style="fill: #1f77b4"/>
   </g>
   <g id="patch_183">
    <path d="M 334.752676 307.584 
L 335.57772 307.584 
L 335.57772 306.965854 
L 334.752676 306.965854 
z
" clip-path="url(#pa611e653b5)" style="fill: #1f77b4"/>
   </g>
   <g id="patch_184">
    <path d="M 305.87616 307.584 
L 306.701204 307.584 
L 306.701204 306.965854 
L 305.87616 306.965854 
z
" clip-path="url(#pa611e653b5)" style="fill: #1f77b4"/>
   </g>
   <g id="patch_185">
    <path d="M 233.68487 307.584 
L 234.509913 307.584 
L 234.509913 305.729561 
L 233.68487 305.729561 
z
" clip-path="url(#pa611e653b5)" style="fill: #1f77b4"/>
   </g>
   <g id="patch_186">
    <path d="M 265.655299 307.584 
L 266.480342 307.584 
L 266.480342 306.965854 
L 265.655299 306.965854 
z
" clip-path="url(#pa611e653b5)" style="fill: #1f77b4"/>
   </g>
   <g id="patch_187">
    <path d="M 262.561386 307.584 
L 263.386429 307.584 
L 263.386429 306.965854 
L 262.561386 306.965854 
z
" clip-path="url(#pa611e653b5)" style="fill: #1f77b4"/>
   </g>
   <g id="patch_188">
    <path d="M 279.062253 307.584 
L 279.887296 307.584 
L 279.887296 306.965854 
L 279.062253 306.965854 
z
" clip-path="url(#pa611e653b5)" style="fill: #1f77b4"/>
   </g>
   <g id="patch_189">
    <path d="M 225.434437 307.584 
L 226.25948 307.584 
L 226.25948 305.111415 
L 225.434437 305.111415 
z
" clip-path="url(#pa611e653b5)" style="fill: #1f77b4"/>
   </g>
   <g id="patch_190">
    <path d="M 397.662229 307.584 
L 398.487273 307.584 
L 398.487273 306.965854 
L 397.662229 306.965854 
z
" clip-path="url(#pa611e653b5)" style="fill: #1f77b4"/>
   </g>
   <g id="patch_191">
    <path d="M 260.498778 307.584 
L 261.323821 307.584 
L 261.323821 306.965854 
L 260.498778 306.965854 
z
" clip-path="url(#pa611e653b5)" style="fill: #1f77b4"/>
   </g>
   <g id="patch_192">
    <path d="M 263.59269 307.584 
L 264.417734 307.584 
L 264.417734 306.347707 
L 263.59269 306.347707 
z
" clip-path="url(#pa611e653b5)" style="fill: #1f77b4"/>
   </g>
   <g id="patch_193">
    <path d="M 235.747478 307.584 
L 236.572522 307.584 
L 236.572522 306.965854 
L 235.747478 306.965854 
z
" clip-path="url(#pa611e653b5)" style="fill: #1f77b4"/>
   </g>
   <g id="patch_194">
    <path d="M 322.377027 307.584 
L 323.20207 307.584 
L 323.20207 306.965854 
L 322.377027 306.965854 
z
" clip-path="url(#pa611e653b5)" style="fill: #1f77b4"/>
   </g>
   <g id="patch_195">
    <path d="M 324.439635 307.584 
L 325.264678 307.584 
L 325.264678 306.965854 
L 324.439635 306.965854 
z
" clip-path="url(#pa611e653b5)" style="fill: #1f77b4"/>
   </g>
   <g id="patch_196">
    <path d="M 256.373561 307.584 
L 257.198605 307.584 
L 257.198605 306.965854 
L 256.373561 306.965854 
z
" clip-path="url(#pa611e653b5)" style="fill: #1f77b4"/>
   </g>
   <g id="patch_197">
    <path d="M 290.406598 307.584 
L 291.231641 307.584 
L 291.231641 306.965854 
L 290.406598 306.965854 
z
" clip-path="url(#pa611e653b5)" style="fill: #1f77b4"/>
   </g>
   <g id="matplotlib.axis_1">
    <g id="xtick_1">
     <g id="line2d_1">
      <defs>
       <path id="m2c88d26bd1" d="M 0 0 
L 0 3.5 
" style="stroke: #000000; stroke-width: 0.8"/>
      </defs>
      <g>
       <use xlink:href="#m2c88d26bd1" x="74.245249" y="307.584" style="stroke: #000000; stroke-width: 0.8"/>
      </g>
     </g>
     <g id="text_1">
      <!-- 0 -->
      <g transform="translate(71.063999 322.182437) scale(0.1 -0.1)">
       <defs>
        <path id="DejaVuSans-30" d="M 2034 4250 
Q 1547 4250 1301 3770 
Q 1056 3291 1056 2328 
Q 1056 1369 1301 889 
Q 1547 409 2034 409 
Q 2525 409 2770 889 
Q 3016 1369 3016 2328 
Q 3016 3291 2770 3770 
Q 2525 4250 2034 4250 
z
M 2034 4750 
Q 2819 4750 3233 4129 
Q 3647 3509 3647 2328 
Q 3647 1150 3233 529 
Q 2819 -91 2034 -91 
Q 1250 -91 836 529 
Q 422 1150 422 2328 
Q 422 3509 836 4129 
Q 1250 4750 2034 4750 
z
" transform="scale(0.015625)"/>
       </defs>
       <use xlink:href="#DejaVuSans-30"/>
      </g>
     </g>
    </g>
    <g id="xtick_2">
     <g id="line2d_2">
      <g>
       <use xlink:href="#m2c88d26bd1" x="125.810456" y="307.584" style="stroke: #000000; stroke-width: 0.8"/>
      </g>
     </g>
     <g id="text_2">
      <!-- 50 -->
      <g transform="translate(119.447956 322.182437) scale(0.1 -0.1)">
       <defs>
        <path id="DejaVuSans-35" d="M 691 4666 
L 3169 4666 
L 3169 4134 
L 1269 4134 
L 1269 2991 
Q 1406 3038 1543 3061 
Q 1681 3084 1819 3084 
Q 2600 3084 3056 2656 
Q 3513 2228 3513 1497 
Q 3513 744 3044 326 
Q 2575 -91 1722 -91 
Q 1428 -91 1123 -41 
Q 819 9 494 109 
L 494 744 
Q 775 591 1075 516 
Q 1375 441 1709 441 
Q 2250 441 2565 725 
Q 2881 1009 2881 1497 
Q 2881 1984 2565 2268 
Q 2250 2553 1709 2553 
Q 1456 2553 1204 2497 
Q 953 2441 691 2322 
L 691 4666 
z
" transform="scale(0.015625)"/>
       </defs>
       <use xlink:href="#DejaVuSans-35"/>
       <use xlink:href="#DejaVuSans-30" x="63.623047"/>
      </g>
     </g>
    </g>
    <g id="xtick_3">
     <g id="line2d_3">
      <g>
       <use xlink:href="#m2c88d26bd1" x="177.375664" y="307.584" style="stroke: #000000; stroke-width: 0.8"/>
      </g>
     </g>
     <g id="text_3">
      <!-- 100 -->
      <g transform="translate(167.831914 322.182437) scale(0.1 -0.1)">
       <defs>
        <path id="DejaVuSans-31" d="M 794 531 
L 1825 531 
L 1825 4091 
L 703 3866 
L 703 4441 
L 1819 4666 
L 2450 4666 
L 2450 531 
L 3481 531 
L 3481 0 
L 794 0 
L 794 531 
z
" transform="scale(0.015625)"/>
       </defs>
       <use xlink:href="#DejaVuSans-31"/>
       <use xlink:href="#DejaVuSans-30" x="63.623047"/>
       <use xlink:href="#DejaVuSans-30" x="127.246094"/>
      </g>
     </g>
    </g>
    <g id="xtick_4">
     <g id="line2d_4">
      <g>
       <use xlink:href="#m2c88d26bd1" x="228.940871" y="307.584" style="stroke: #000000; stroke-width: 0.8"/>
      </g>
     </g>
     <g id="text_4">
      <!-- 150 -->
      <g transform="translate(219.397121 322.182437) scale(0.1 -0.1)">
       <use xlink:href="#DejaVuSans-31"/>
       <use xlink:href="#DejaVuSans-35" x="63.623047"/>
       <use xlink:href="#DejaVuSans-30" x="127.246094"/>
      </g>
     </g>
    </g>
    <g id="xtick_5">
     <g id="line2d_5">
      <g>
       <use xlink:href="#m2c88d26bd1" x="280.506078" y="307.584" style="stroke: #000000; stroke-width: 0.8"/>
      </g>
     </g>
     <g id="text_5">
      <!-- 200 -->
      <g transform="translate(270.962328 322.182437) scale(0.1 -0.1)">
       <defs>
        <path id="DejaVuSans-32" d="M 1228 531 
L 3431 531 
L 3431 0 
L 469 0 
L 469 531 
Q 828 903 1448 1529 
Q 2069 2156 2228 2338 
Q 2531 2678 2651 2914 
Q 2772 3150 2772 3378 
Q 2772 3750 2511 3984 
Q 2250 4219 1831 4219 
Q 1534 4219 1204 4116 
Q 875 4013 500 3803 
L 500 4441 
Q 881 4594 1212 4672 
Q 1544 4750 1819 4750 
Q 2544 4750 2975 4387 
Q 3406 4025 3406 3419 
Q 3406 3131 3298 2873 
Q 3191 2616 2906 2266 
Q 2828 2175 2409 1742 
Q 1991 1309 1228 531 
z
" transform="scale(0.015625)"/>
       </defs>
       <use xlink:href="#DejaVuSans-32"/>
       <use xlink:href="#DejaVuSans-30" x="63.623047"/>
       <use xlink:href="#DejaVuSans-30" x="127.246094"/>
      </g>
     </g>
    </g>
    <g id="xtick_6">
     <g id="line2d_6">
      <g>
       <use xlink:href="#m2c88d26bd1" x="332.071286" y="307.584" style="stroke: #000000; stroke-width: 0.8"/>
      </g>
     </g>
     <g id="text_6">
      <!-- 250 -->
      <g transform="translate(322.527536 322.182437) scale(0.1 -0.1)">
       <use xlink:href="#DejaVuSans-32"/>
       <use xlink:href="#DejaVuSans-35" x="63.623047"/>
       <use xlink:href="#DejaVuSans-30" x="127.246094"/>
      </g>
     </g>
    </g>
    <g id="xtick_7">
     <g id="line2d_7">
      <g>
       <use xlink:href="#m2c88d26bd1" x="383.636493" y="307.584" style="stroke: #000000; stroke-width: 0.8"/>
      </g>
     </g>
     <g id="text_7">
      <!-- 300 -->
      <g transform="translate(374.092743 322.182437) scale(0.1 -0.1)">
       <defs>
        <path id="DejaVuSans-33" d="M 2597 2516 
Q 3050 2419 3304 2112 
Q 3559 1806 3559 1356 
Q 3559 666 3084 287 
Q 2609 -91 1734 -91 
Q 1441 -91 1130 -33 
Q 819 25 488 141 
L 488 750 
Q 750 597 1062 519 
Q 1375 441 1716 441 
Q 2309 441 2620 675 
Q 2931 909 2931 1356 
Q 2931 1769 2642 2001 
Q 2353 2234 1838 2234 
L 1294 2234 
L 1294 2753 
L 1863 2753 
Q 2328 2753 2575 2939 
Q 2822 3125 2822 3475 
Q 2822 3834 2567 4026 
Q 2313 4219 1838 4219 
Q 1578 4219 1281 4162 
Q 984 4106 628 3988 
L 628 4550 
Q 988 4650 1302 4700 
Q 1616 4750 1894 4750 
Q 2613 4750 3031 4423 
Q 3450 4097 3450 3541 
Q 3450 3153 3228 2886 
Q 3006 2619 2597 2516 
z
" transform="scale(0.015625)"/>
       </defs>
       <use xlink:href="#DejaVuSans-33"/>
       <use xlink:href="#DejaVuSans-30" x="63.623047"/>
       <use xlink:href="#DejaVuSans-30" x="127.246094"/>
      </g>
     </g>
    </g>
    <g id="text_8">
     <!-- Depth of Element -->
     <g transform="translate(192.231875 335.860562) scale(0.1 -0.1)">
      <defs>
       <path id="DejaVuSans-44" d="M 1259 4147 
L 1259 519 
L 2022 519 
Q 2988 519 3436 956 
Q 3884 1394 3884 2338 
Q 3884 3275 3436 3711 
Q 2988 4147 2022 4147 
L 1259 4147 
z
M 628 4666 
L 1925 4666 
Q 3281 4666 3915 4102 
Q 4550 3538 4550 2338 
Q 4550 1131 3912 565 
Q 3275 0 1925 0 
L 628 0 
L 628 4666 
z
" transform="scale(0.015625)"/>
       <path id="DejaVuSans-65" d="M 3597 1894 
L 3597 1613 
L 953 1613 
Q 991 1019 1311 708 
Q 1631 397 2203 397 
Q 2534 397 2845 478 
Q 3156 559 3463 722 
L 3463 178 
Q 3153 47 2828 -22 
Q 2503 -91 2169 -91 
Q 1331 -91 842 396 
Q 353 884 353 1716 
Q 353 2575 817 3079 
Q 1281 3584 2069 3584 
Q 2775 3584 3186 3129 
Q 3597 2675 3597 1894 
z
M 3022 2063 
Q 3016 2534 2758 2815 
Q 2500 3097 2075 3097 
Q 1594 3097 1305 2825 
Q 1016 2553 972 2059 
L 3022 2063 
z
" transform="scale(0.015625)"/>
       <path id="DejaVuSans-70" d="M 1159 525 
L 1159 -1331 
L 581 -1331 
L 581 3500 
L 1159 3500 
L 1159 2969 
Q 1341 3281 1617 3432 
Q 1894 3584 2278 3584 
Q 2916 3584 3314 3078 
Q 3713 2572 3713 1747 
Q 3713 922 3314 415 
Q 2916 -91 2278 -91 
Q 1894 -91 1617 61 
Q 1341 213 1159 525 
z
M 3116 1747 
Q 3116 2381 2855 2742 
Q 2594 3103 2138 3103 
Q 1681 3103 1420 2742 
Q 1159 2381 1159 1747 
Q 1159 1113 1420 752 
Q 1681 391 2138 391 
Q 2594 391 2855 752 
Q 3116 1113 3116 1747 
z
" transform="scale(0.015625)"/>
       <path id="DejaVuSans-74" d="M 1172 4494 
L 1172 3500 
L 2356 3500 
L 2356 3053 
L 1172 3053 
L 1172 1153 
Q 1172 725 1289 603 
Q 1406 481 1766 481 
L 2356 481 
L 2356 0 
L 1766 0 
Q 1100 0 847 248 
Q 594 497 594 1153 
L 594 3053 
L 172 3053 
L 172 3500 
L 594 3500 
L 594 4494 
L 1172 4494 
z
" transform="scale(0.015625)"/>
       <path id="DejaVuSans-68" d="M 3513 2113 
L 3513 0 
L 2938 0 
L 2938 2094 
Q 2938 2591 2744 2837 
Q 2550 3084 2163 3084 
Q 1697 3084 1428 2787 
Q 1159 2491 1159 1978 
L 1159 0 
L 581 0 
L 581 4863 
L 1159 4863 
L 1159 2956 
Q 1366 3272 1645 3428 
Q 1925 3584 2291 3584 
Q 2894 3584 3203 3211 
Q 3513 2838 3513 2113 
z
" transform="scale(0.015625)"/>
       <path id="DejaVuSans-20" transform="scale(0.015625)"/>
       <path id="DejaVuSans-6f" d="M 1959 3097 
Q 1497 3097 1228 2736 
Q 959 2375 959 1747 
Q 959 1119 1226 758 
Q 1494 397 1959 397 
Q 2419 397 2687 759 
Q 2956 1122 2956 1747 
Q 2956 2369 2687 2733 
Q 2419 3097 1959 3097 
z
M 1959 3584 
Q 2709 3584 3137 3096 
Q 3566 2609 3566 1747 
Q 3566 888 3137 398 
Q 2709 -91 1959 -91 
Q 1206 -91 779 398 
Q 353 888 353 1747 
Q 353 2609 779 3096 
Q 1206 3584 1959 3584 
z
" transform="scale(0.015625)"/>
       <path id="DejaVuSans-66" d="M 2375 4863 
L 2375 4384 
L 1825 4384 
Q 1516 4384 1395 4259 
Q 1275 4134 1275 3809 
L 1275 3500 
L 2222 3500 
L 2222 3053 
L 1275 3053 
L 1275 0 
L 697 0 
L 697 3053 
L 147 3053 
L 147 3500 
L 697 3500 
L 697 3744 
Q 697 4328 969 4595 
Q 1241 4863 1831 4863 
L 2375 4863 
z
" transform="scale(0.015625)"/>
       <path id="DejaVuSans-45" d="M 628 4666 
L 3578 4666 
L 3578 4134 
L 1259 4134 
L 1259 2753 
L 3481 2753 
L 3481 2222 
L 1259 2222 
L 1259 531 
L 3634 531 
L 3634 0 
L 628 0 
L 628 4666 
z
" transform="scale(0.015625)"/>
       <path id="DejaVuSans-6c" d="M 603 4863 
L 1178 4863 
L 1178 0 
L 603 0 
L 603 4863 
z
" transform="scale(0.015625)"/>
       <path id="DejaVuSans-6d" d="M 3328 2828 
Q 3544 3216 3844 3400 
Q 4144 3584 4550 3584 
Q 5097 3584 5394 3201 
Q 5691 2819 5691 2113 
L 5691 0 
L 5113 0 
L 5113 2094 
Q 5113 2597 4934 2840 
Q 4756 3084 4391 3084 
Q 3944 3084 3684 2787 
Q 3425 2491 3425 1978 
L 3425 0 
L 2847 0 
L 2847 2094 
Q 2847 2600 2669 2842 
Q 2491 3084 2119 3084 
Q 1678 3084 1418 2786 
Q 1159 2488 1159 1978 
L 1159 0 
L 581 0 
L 581 3500 
L 1159 3500 
L 1159 2956 
Q 1356 3278 1631 3431 
Q 1906 3584 2284 3584 
Q 2666 3584 2933 3390 
Q 3200 3197 3328 2828 
z
" transform="scale(0.015625)"/>
       <path id="DejaVuSans-6e" d="M 3513 2113 
L 3513 0 
L 2938 0 
L 2938 2094 
Q 2938 2591 2744 2837 
Q 2550 3084 2163 3084 
Q 1697 3084 1428 2787 
Q 1159 2491 1159 1978 
L 1159 0 
L 581 0 
L 581 3500 
L 1159 3500 
L 1159 2956 
Q 1366 3272 1645 3428 
Q 1925 3584 2291 3584 
Q 2894 3584 3203 3211 
Q 3513 2838 3513 2113 
z
" transform="scale(0.015625)"/>
      </defs>
      <use xlink:href="#DejaVuSans-44"/>
      <use xlink:href="#DejaVuSans-65" x="77.001953"/>
      <use xlink:href="#DejaVuSans-70" x="138.525391"/>
      <use xlink:href="#DejaVuSans-74" x="202.001953"/>
      <use xlink:href="#DejaVuSans-68" x="241.210938"/>
      <use xlink:href="#DejaVuSans-20" x="304.589844"/>
      <use xlink:href="#DejaVuSans-6f" x="336.376953"/>
      <use xlink:href="#DejaVuSans-66" x="397.558594"/>
      <use xlink:href="#DejaVuSans-20" x="432.763672"/>
      <use xlink:href="#DejaVuSans-45" x="464.550781"/>
      <use xlink:href="#DejaVuSans-6c" x="527.734375"/>
      <use xlink:href="#DejaVuSans-65" x="555.517578"/>
      <use xlink:href="#DejaVuSans-6d" x="617.041016"/>
      <use xlink:href="#DejaVuSans-65" x="714.453125"/>
      <use xlink:href="#DejaVuSans-6e" x="775.976562"/>
      <use xlink:href="#DejaVuSans-74" x="839.355469"/>
     </g>
    </g>
   </g>
   <g id="matplotlib.axis_2">
    <g id="ytick_1">
     <g id="line2d_8">
      <defs>
       <path id="me3ba687b6e" d="M 0 0 
L -3.5 0 
" style="stroke: #000000; stroke-width: 0.8"/>
      </defs>
      <g>
       <use xlink:href="#me3ba687b6e" x="57.6" y="307.584" style="stroke: #000000; stroke-width: 0.8"/>
      </g>
     </g>
     <g id="text_9">
      <!-- 0 -->
      <g transform="translate(44.2375 311.383219) scale(0.1 -0.1)">
       <use xlink:href="#DejaVuSans-30"/>
      </g>
     </g>
    </g>
    <g id="ytick_2">
     <g id="line2d_9">
      <g>
       <use xlink:href="#me3ba687b6e" x="57.6" y="276.676683" style="stroke: #000000; stroke-width: 0.8"/>
      </g>
     </g>
     <g id="text_10">
      <!-- 50 -->
      <g transform="translate(37.875 280.475902) scale(0.1 -0.1)">
       <use xlink:href="#DejaVuSans-35"/>
       <use xlink:href="#DejaVuSans-30" x="63.623047"/>
      </g>
     </g>
    </g>
    <g id="ytick_3">
     <g id="line2d_10">
      <g>
       <use xlink:href="#me3ba687b6e" x="57.6" y="245.769366" style="stroke: #000000; stroke-width: 0.8"/>
      </g>
     </g>
     <g id="text_11">
      <!-- 100 -->
      <g transform="translate(31.5125 249.568585) scale(0.1 -0.1)">
       <use xlink:href="#DejaVuSans-31"/>
       <use xlink:href="#DejaVuSans-30" x="63.623047"/>
       <use xlink:href="#DejaVuSans-30" x="127.246094"/>
      </g>
     </g>
    </g>
    <g id="ytick_4">
     <g id="line2d_11">
      <g>
       <use xlink:href="#me3ba687b6e" x="57.6" y="214.862049" style="stroke: #000000; stroke-width: 0.8"/>
      </g>
     </g>
     <g id="text_12">
      <!-- 150 -->
      <g transform="translate(31.5125 218.661268) scale(0.1 -0.1)">
       <use xlink:href="#DejaVuSans-31"/>
       <use xlink:href="#DejaVuSans-35" x="63.623047"/>
       <use xlink:href="#DejaVuSans-30" x="127.246094"/>
      </g>
     </g>
    </g>
    <g id="ytick_5">
     <g id="line2d_12">
      <g>
       <use xlink:href="#me3ba687b6e" x="57.6" y="183.954732" style="stroke: #000000; stroke-width: 0.8"/>
      </g>
     </g>
     <g id="text_13">
      <!-- 200 -->
      <g transform="translate(31.5125 187.75395) scale(0.1 -0.1)">
       <use xlink:href="#DejaVuSans-32"/>
       <use xlink:href="#DejaVuSans-30" x="63.623047"/>
       <use xlink:href="#DejaVuSans-30" x="127.246094"/>
      </g>
     </g>
    </g>
    <g id="ytick_6">
     <g id="line2d_13">
      <g>
       <use xlink:href="#me3ba687b6e" x="57.6" y="153.047415" style="stroke: #000000; stroke-width: 0.8"/>
      </g>
     </g>
     <g id="text_14">
      <!-- 250 -->
      <g transform="translate(31.5125 156.846633) scale(0.1 -0.1)">
       <use xlink:href="#DejaVuSans-32"/>
       <use xlink:href="#DejaVuSans-35" x="63.623047"/>
       <use xlink:href="#DejaVuSans-30" x="127.246094"/>
      </g>
     </g>
    </g>
    <g id="ytick_7">
     <g id="line2d_14">
      <g>
       <use xlink:href="#me3ba687b6e" x="57.6" y="122.140098" style="stroke: #000000; stroke-width: 0.8"/>
      </g>
     </g>
     <g id="text_15">
      <!-- 300 -->
      <g transform="translate(31.5125 125.939316) scale(0.1 -0.1)">
       <use xlink:href="#DejaVuSans-33"/>
       <use xlink:href="#DejaVuSans-30" x="63.623047"/>
       <use xlink:href="#DejaVuSans-30" x="127.246094"/>
      </g>
     </g>
    </g>
    <g id="ytick_8">
     <g id="line2d_15">
      <g>
       <use xlink:href="#me3ba687b6e" x="57.6" y="91.23278" style="stroke: #000000; stroke-width: 0.8"/>
      </g>
     </g>
     <g id="text_16">
      <!-- 350 -->
      <g transform="translate(31.5125 95.031999) scale(0.1 -0.1)">
       <use xlink:href="#DejaVuSans-33"/>
       <use xlink:href="#DejaVuSans-35" x="63.623047"/>
       <use xlink:href="#DejaVuSans-30" x="127.246094"/>
      </g>
     </g>
    </g>
    <g id="ytick_9">
     <g id="line2d_16">
      <g>
       <use xlink:href="#me3ba687b6e" x="57.6" y="60.325463" style="stroke: #000000; stroke-width: 0.8"/>
      </g>
     </g>
     <g id="text_17">
      <!-- 400 -->
      <g transform="translate(31.5125 64.124682) scale(0.1 -0.1)">
       <defs>
        <path id="DejaVuSans-34" d="M 2419 4116 
L 825 1625 
L 2419 1625 
L 2419 4116 
z
M 2253 4666 
L 3047 4666 
L 3047 1625 
L 3713 1625 
L 3713 1100 
L 3047 1100 
L 3047 0 
L 2419 0 
L 2419 1100 
L 313 1100 
L 313 1709 
L 2253 4666 
z
" transform="scale(0.015625)"/>
       </defs>
       <use xlink:href="#DejaVuSans-34"/>
       <use xlink:href="#DejaVuSans-30" x="63.623047"/>
       <use xlink:href="#DejaVuSans-30" x="127.246094"/>
      </g>
     </g>
    </g>
    <g id="text_18">
     <!-- Number of Elements -->
     <g transform="translate(25.432812 225.917062) rotate(-90) scale(0.1 -0.1)">
      <defs>
       <path id="DejaVuSans-4e" d="M 628 4666 
L 1478 4666 
L 3547 763 
L 3547 4666 
L 4159 4666 
L 4159 0 
L 3309 0 
L 1241 3903 
L 1241 0 
L 628 0 
L 628 4666 
z
" transform="scale(0.015625)"/>
       <path id="DejaVuSans-75" d="M 544 1381 
L 544 3500 
L 1119 3500 
L 1119 1403 
Q 1119 906 1312 657 
Q 1506 409 1894 409 
Q 2359 409 2629 706 
Q 2900 1003 2900 1516 
L 2900 3500 
L 3475 3500 
L 3475 0 
L 2900 0 
L 2900 538 
Q 2691 219 2414 64 
Q 2138 -91 1772 -91 
Q 1169 -91 856 284 
Q 544 659 544 1381 
z
M 1991 3584 
L 1991 3584 
z
" transform="scale(0.015625)"/>
       <path id="DejaVuSans-62" d="M 3116 1747 
Q 3116 2381 2855 2742 
Q 2594 3103 2138 3103 
Q 1681 3103 1420 2742 
Q 1159 2381 1159 1747 
Q 1159 1113 1420 752 
Q 1681 391 2138 391 
Q 2594 391 2855 752 
Q 3116 1113 3116 1747 
z
M 1159 2969 
Q 1341 3281 1617 3432 
Q 1894 3584 2278 3584 
Q 2916 3584 3314 3078 
Q 3713 2572 3713 1747 
Q 3713 922 3314 415 
Q 2916 -91 2278 -91 
Q 1894 -91 1617 61 
Q 1341 213 1159 525 
L 1159 0 
L 581 0 
L 581 4863 
L 1159 4863 
L 1159 2969 
z
" transform="scale(0.015625)"/>
       <path id="DejaVuSans-72" d="M 2631 2963 
Q 2534 3019 2420 3045 
Q 2306 3072 2169 3072 
Q 1681 3072 1420 2755 
Q 1159 2438 1159 1844 
L 1159 0 
L 581 0 
L 581 3500 
L 1159 3500 
L 1159 2956 
Q 1341 3275 1631 3429 
Q 1922 3584 2338 3584 
Q 2397 3584 2469 3576 
Q 2541 3569 2628 3553 
L 2631 2963 
z
" transform="scale(0.015625)"/>
       <path id="DejaVuSans-73" d="M 2834 3397 
L 2834 2853 
Q 2591 2978 2328 3040 
Q 2066 3103 1784 3103 
Q 1356 3103 1142 2972 
Q 928 2841 928 2578 
Q 928 2378 1081 2264 
Q 1234 2150 1697 2047 
L 1894 2003 
Q 2506 1872 2764 1633 
Q 3022 1394 3022 966 
Q 3022 478 2636 193 
Q 2250 -91 1575 -91 
Q 1294 -91 989 -36 
Q 684 19 347 128 
L 347 722 
Q 666 556 975 473 
Q 1284 391 1588 391 
Q 1994 391 2212 530 
Q 2431 669 2431 922 
Q 2431 1156 2273 1281 
Q 2116 1406 1581 1522 
L 1381 1569 
Q 847 1681 609 1914 
Q 372 2147 372 2553 
Q 372 3047 722 3315 
Q 1072 3584 1716 3584 
Q 2034 3584 2315 3537 
Q 2597 3491 2834 3397 
z
" transform="scale(0.015625)"/>
      </defs>
      <use xlink:href="#DejaVuSans-4e"/>
      <use xlink:href="#DejaVuSans-75" x="74.804688"/>
      <use xlink:href="#DejaVuSans-6d" x="138.183594"/>
      <use xlink:href="#DejaVuSans-62" x="235.595703"/>
      <use xlink:href="#DejaVuSans-65" x="299.072266"/>
      <use xlink:href="#DejaVuSans-72" x="360.595703"/>
      <use xlink:href="#DejaVuSans-20" x="401.708984"/>
      <use xlink:href="#DejaVuSans-6f" x="433.496094"/>
      <use xlink:href="#DejaVuSans-66" x="494.677734"/>
      <use xlink:href="#DejaVuSans-20" x="529.882812"/>
      <use xlink:href="#DejaVuSans-45" x="561.669922"/>
      <use xlink:href="#DejaVuSans-6c" x="624.853516"/>
      <use xlink:href="#DejaVuSans-65" x="652.636719"/>
      <use xlink:href="#DejaVuSans-6d" x="714.160156"/>
      <use xlink:href="#DejaVuSans-65" x="811.572266"/>
      <use xlink:href="#DejaVuSans-6e" x="873.095703"/>
      <use xlink:href="#DejaVuSans-74" x="936.474609"/>
      <use xlink:href="#DejaVuSans-73" x="975.683594"/>
     </g>
    </g>
   </g>
   <g id="patch_198">
    <path d="M 57.6 307.584 
L 57.6 41.472 
" style="fill: none; stroke: #000000; stroke-width: 0.8; stroke-linejoin: miter; stroke-linecap: square"/>
   </g>
   <g id="patch_199">
    <path d="M 414.72 307.584 
L 414.72 41.472 
" style="fill: none; stroke: #000000; stroke-width: 0.8; stroke-linejoin: miter; stroke-linecap: square"/>
   </g>
   <g id="patch_200">
    <path d="M 57.6 307.584 
L 414.72 307.584 
" style="fill: none; stroke: #000000; stroke-width: 0.8; stroke-linejoin: miter; stroke-linecap: square"/>
   </g>
   <g id="patch_201">
    <path d="M 57.6 41.472 
L 414.72 41.472 
" style="fill: none; stroke: #000000; stroke-width: 0.8; stroke-linejoin: miter; stroke-linecap: square"/>
   </g>
  </g>
 </g>
 <defs>
  <clipPath id="pa611e653b5">
   <rect x="57.6" y="41.472" width="357.12" height="266.112"/>
  </clipPath>
 </defs>
</svg>
