<?xml version="1.0" encoding="utf-8" standalone="no"?>
<!DOCTYPE svg PUBLIC "-//W3C//DTD SVG 1.1//EN"
  "http://www.w3.org/Graphics/SVG/1.1/DTD/svg11.dtd">
<svg xmlns:xlink="http://www.w3.org/1999/xlink" width="460.8pt" height="345.6pt" viewBox="0 0 460.8 345.6" xmlns="http://www.w3.org/2000/svg" version="1.1">
 <metadata>
  <rdf:RDF xmlns:dc="http://purl.org/dc/elements/1.1/" xmlns:cc="http://creativecommons.org/ns#" xmlns:rdf="http://www.w3.org/1999/02/22-rdf-syntax-ns#">
   <cc:Work>
    <dc:type rdf:resource="http://purl.org/dc/dcmitype/StillImage"/>
    <dc:date>2024-02-26T22:59:20.406598</dc:date>
    <dc:format>image/svg+xml</dc:format>
    <dc:creator>
     <cc:Agent>
      <dc:title>Matplotlib v3.8.3, https://matplotlib.org/</dc:title>
     </cc:Agent>
    </dc:creator>
   </cc:Work>
  </rdf:RDF>
 </metadata>
 <defs>
  <style type="text/css">*{stroke-linejoin: round; stroke-linecap: butt}</style>
 </defs>
 <g id="figure_1">
  <g id="patch_1">
   <path d="M 0 345.6 
L 460.8 345.6 
L 460.8 0 
L 0 0 
z
" style="fill: #ffffff"/>
  </g>
  <g id="axes_1">
   <g id="patch_2">
    <path d="M 57.6 307.584 
L 414.72 307.584 
L 414.72 41.472 
L 57.6 41.472 
z
" style="fill: #ffffff"/>
   </g>
   <g id="patch_3">
    <path d="M 73.832727 63557.00462 
L 75.107132 63557.00462 
L 75.107132 257.400772 
L 73.832727 257.400772 
z
" clip-path="url(#p3533579661)" style="fill: #1f77b4"/>
   </g>
   <g id="patch_4">
    <path d="M 75.425733 63557.00462 
L 76.700137 63557.00462 
L 76.700137 232.226483 
L 75.425733 232.226483 
z
" clip-path="url(#p3533579661)" style="fill: #1f77b4"/>
   </g>
   <g id="patch_5">
    <path d="M 78.611744 63557.00462 
L 79.886149 63557.00462 
L 79.886149 188.008581 
L 78.611744 188.008581 
z
" clip-path="url(#p3533579661)" style="fill: #1f77b4"/>
   </g>
   <g id="patch_6">
    <path d="M 80.20475 63557.00462 
L 81.479154 63557.00462 
L 81.479154 163.955841 
L 80.20475 163.955841 
z
" clip-path="url(#p3533579661)" style="fill: #1f77b4"/>
   </g>
   <g id="patch_7">
    <path d="M 84.983767 63557.00462 
L 86.258171 63557.00462 
L 86.258171 107.054909 
L 84.983767 107.054909 
z
" clip-path="url(#p3533579661)" style="fill: #1f77b4"/>
   </g>
   <g id="patch_8">
    <path d="M 77.018739 63557.00462 
L 78.293143 63557.00462 
L 78.293143 214.592108 
L 77.018739 214.592108 
z
" clip-path="url(#p3533579661)" style="fill: #1f77b4"/>
   </g>
   <g id="patch_9">
    <path d="M 81.797755 63557.00462 
L 83.07216 63557.00462 
L 83.07216 145.026942 
L 81.797755 145.026942 
z
" clip-path="url(#p3533579661)" style="fill: #1f77b4"/>
   </g>
   <g id="patch_10">
    <path d="M 86.576772 63557.00462 
L 87.851177 63557.00462 
L 87.851177 93.468489 
L 86.576772 93.468489 
z
" clip-path="url(#p3533579661)" style="fill: #1f77b4"/>
   </g>
   <g id="patch_11">
    <path d="M 83.390761 63557.00462 
L 84.665165 63557.00462 
L 84.665165 126.388643 
L 83.390761 126.388643 
z
" clip-path="url(#p3533579661)" style="fill: #1f77b4"/>
   </g>
   <g id="patch_12">
    <path d="M 89.762783 63557.00462 
L 91.037188 63557.00462 
L 91.037188 72.15411 
L 89.762783 72.15411 
z
" clip-path="url(#p3533579661)" style="fill: #1f77b4"/>
   </g>
   <g id="patch_13">
    <path d="M 88.169778 63557.00462 
L 89.444182 63557.00462 
L 89.444182 82.089198 
L 88.169778 82.089198 
z
" clip-path="url(#p3533579661)" style="fill: #1f77b4"/>
   </g>
   <g id="patch_14">
    <path d="M 92.948795 63557.00462 
L 94.223199 63557.00462 
L 94.223199 56.262046 
L 92.948795 56.262046 
z
" clip-path="url(#p3533579661)" style="fill: #1f77b4"/>
   </g>
   <g id="patch_15">
    <path d="M 91.355789 63557.00462 
L 92.630194 63557.00462 
L 92.630194 63.379104 
L 91.355789 63.379104 
z
" clip-path="url(#p3533579661)" style="fill: #1f77b4"/>
   </g>
   <g id="patch_16">
    <path d="M 99.320817 63557.00462 
L 100.595222 63557.00462 
L 100.595222 85.397979 
L 99.320817 85.397979 
z
" clip-path="url(#p3533579661)" style="fill: #1f77b4"/>
   </g>
   <g id="patch_17">
    <path d="M 94.5418 63557.00462 
L 95.816205 63557.00462 
L 95.816205 53.568 
L 94.5418 53.568 
z
" clip-path="url(#p3533579661)" style="fill: #1f77b4"/>
   </g>
   <g id="patch_18">
    <path d="M 104.099834 63557.00462 
L 105.374239 63557.00462 
L 105.374239 164.185751 
L 104.099834 164.185751 
z
" clip-path="url(#p3533579661)" style="fill: #1f77b4"/>
   </g>
   <g id="patch_19">
    <path d="M 102.506828 63557.00462 
L 103.781233 63557.00462 
L 103.781233 145.490651 
L 102.506828 145.490651 
z
" clip-path="url(#p3533579661)" style="fill: #1f77b4"/>
   </g>
   <g id="patch_20">
    <path d="M 96.134806 63557.00462 
L 97.40921 63557.00462 
L 97.40921 56.752546 
L 96.134806 56.752546 
z
" clip-path="url(#p3533579661)" style="fill: #1f77b4"/>
   </g>
   <g id="patch_21">
    <path d="M 107.285845 63557.00462 
L 108.56025 63557.00462 
L 108.56025 170.958783 
L 107.285845 170.958783 
z
" clip-path="url(#p3533579661)" style="fill: #1f77b4"/>
   </g>
   <g id="patch_22">
    <path d="M 97.727812 63557.00462 
L 99.002216 63557.00462 
L 99.002216 65.330606 
L 97.727812 65.330606 
z
" clip-path="url(#p3533579661)" style="fill: #1f77b4"/>
   </g>
   <g id="patch_23">
    <path d="M 100.913823 63557.00462 
L 102.188227 63557.00462 
L 102.188227 118.31039 
L 100.913823 118.31039 
z
" clip-path="url(#p3533579661)" style="fill: #1f77b4"/>
   </g>
   <g id="patch_24">
    <path d="M 118.436885 63557.00462 
L 119.711289 63557.00462 
L 119.711289 175.095641 
L 118.436885 175.095641 
z
" clip-path="url(#p3533579661)" style="fill: #1f77b4"/>
   </g>
   <g id="patch_25">
    <path d="M 108.878851 63557.00462 
L 110.153255 63557.00462 
L 110.153255 166.59731 
L 108.878851 166.59731 
z
" clip-path="url(#p3533579661)" style="fill: #1f77b4"/>
   </g>
   <g id="patch_26">
    <path d="M 105.69284 63557.00462 
L 106.967244 63557.00462 
L 106.967244 167.364079 
L 105.69284 167.364079 
z
" clip-path="url(#p3533579661)" style="fill: #1f77b4"/>
   </g>
   <g id="patch_27">
    <path d="M 116.843879 63557.00462 
L 118.118284 63557.00462 
L 118.118284 174.754343 
L 116.843879 174.754343 
z
" clip-path="url(#p3533579661)" style="fill: #1f77b4"/>
   </g>
   <g id="patch_28">
    <path d="M 110.471857 63557.00462 
L 111.746261 63557.00462 
L 111.746261 168.152864 
L 110.471857 168.152864 
z
" clip-path="url(#p3533579661)" style="fill: #1f77b4"/>
   </g>
   <g id="patch_29">
    <path d="M 112.064862 63557.00462 
L 113.339267 63557.00462 
L 113.339267 175.441232 
L 112.064862 175.441232 
z
" clip-path="url(#p3533579661)" style="fill: #1f77b4"/>
   </g>
   <g id="patch_30">
    <path d="M 115.250873 63557.00462 
L 116.525278 63557.00462 
L 116.525278 175.095641 
L 115.250873 175.095641 
z
" clip-path="url(#p3533579661)" style="fill: #1f77b4"/>
   </g>
   <g id="patch_31">
    <path d="M 113.657868 63557.00462 
L 114.932272 63557.00462 
L 114.932272 167.106104 
L 113.657868 167.106104 
z
" clip-path="url(#p3533579661)" style="fill: #1f77b4"/>
   </g>
   <g id="patch_32">
    <path d="M 132.773935 63557.00462 
L 134.04834 63557.00462 
L 134.04834 181.658988 
L 132.773935 181.658988 
z
" clip-path="url(#p3533579661)" style="fill: #1f77b4"/>
   </g>
   <g id="patch_33">
    <path d="M 131.18093 63557.00462 
L 132.455334 63557.00462 
L 132.455334 181.226316 
L 131.18093 181.226316 
z
" clip-path="url(#p3533579661)" style="fill: #1f77b4"/>
   </g>
   <g id="patch_34">
    <path d="M 120.02989 63557.00462 
L 121.304295 63557.00462 
L 121.304295 177.237566 
L 120.02989 177.237566 
z
" clip-path="url(#p3533579661)" style="fill: #1f77b4"/>
   </g>
   <g id="patch_35">
    <path d="M 124.808907 63557.00462 
L 126.083312 63557.00462 
L 126.083312 180.800352 
L 124.808907 180.800352 
z
" clip-path="url(#p3533579661)" style="fill: #1f77b4"/>
   </g>
   <g id="patch_36">
    <path d="M 121.622896 63557.00462 
L 122.8973 63557.00462 
L 122.8973 179.560707 
L 121.622896 179.560707 
z
" clip-path="url(#p3533579661)" style="fill: #1f77b4"/>
   </g>
   <g id="patch_37">
    <path d="M 126.401913 63557.00462 
L 127.676317 63557.00462 
L 127.676317 178.374589 
L 126.401913 178.374589 
z
" clip-path="url(#p3533579661)" style="fill: #1f77b4"/>
   </g>
   <g id="patch_38">
    <path d="M 139.145958 63557.00462 
L 140.420362 63557.00462 
L 140.420362 191.520691 
L 139.145958 191.520691 
z
" clip-path="url(#p3533579661)" style="fill: #1f77b4"/>
   </g>
   <g id="patch_39">
    <path d="M 127.994918 63557.00462 
L 129.269323 63557.00462 
L 129.269323 183.930871 
L 127.994918 183.930871 
z
" clip-path="url(#p3533579661)" style="fill: #1f77b4"/>
   </g>
   <g id="patch_40">
    <path d="M 145.51798 63557.00462 
L 146.792385 63557.00462 
L 146.792385 200.26993 
L 145.51798 200.26993 
z
" clip-path="url(#p3533579661)" style="fill: #1f77b4"/>
   </g>
   <g id="patch_41">
    <path d="M 123.215902 63557.00462 
L 124.490306 63557.00462 
L 124.490306 176.50488 
L 123.215902 176.50488 
z
" clip-path="url(#p3533579661)" style="fill: #1f77b4"/>
   </g>
   <g id="patch_42">
    <path d="M 143.924975 63557.00462 
L 145.199379 63557.00462 
L 145.199379 189.13013 
L 143.924975 189.13013 
z
" clip-path="url(#p3533579661)" style="fill: #1f77b4"/>
   </g>
   <g id="patch_43">
    <path d="M 148.703991 63557.00462 
L 149.978396 63557.00462 
L 149.978396 199.424505 
L 148.703991 199.424505 
z
" clip-path="url(#p3533579661)" style="fill: #1f77b4"/>
   </g>
   <g id="patch_44">
    <path d="M 151.890003 63557.00462 
L 153.164407 63557.00462 
L 153.164407 197.807914 
L 151.890003 197.807914 
z
" clip-path="url(#p3533579661)" style="fill: #1f77b4"/>
   </g>
   <g id="patch_45">
    <path d="M 137.552952 63557.00462 
L 138.827357 63557.00462 
L 138.827357 194.139255 
L 137.552952 194.139255 
z
" clip-path="url(#p3533579661)" style="fill: #1f77b4"/>
   </g>
   <g id="patch_46">
    <path d="M 134.366941 63557.00462 
L 135.641345 63557.00462 
L 135.641345 192.798788 
L 134.366941 192.798788 
z
" clip-path="url(#p3533579661)" style="fill: #1f77b4"/>
   </g>
   <g id="patch_47">
    <path d="M 163.041042 63557.00462 
L 164.315447 63557.00462 
L 164.315447 199.424505 
L 163.041042 199.424505 
z
" clip-path="url(#p3533579661)" style="fill: #1f77b4"/>
   </g>
   <g id="patch_48">
    <path d="M 158.262025 63557.00462 
L 159.53643 63557.00462 
L 159.53643 207.052195 
L 158.262025 207.052195 
z
" clip-path="url(#p3533579661)" style="fill: #1f77b4"/>
   </g>
   <g id="patch_49">
    <path d="M 159.855031 63557.00462 
L 161.129435 63557.00462 
L 161.129435 210.564305 
L 159.855031 210.564305 
z
" clip-path="url(#p3533579661)" style="fill: #1f77b4"/>
   </g>
   <g id="patch_50">
    <path d="M 129.587924 63557.00462 
L 130.862328 63557.00462 
L 130.862328 191.520691 
L 129.587924 191.520691 
z
" clip-path="url(#p3533579661)" style="fill: #1f77b4"/>
   </g>
   <g id="patch_51">
    <path d="M 190.122138 63557.00462 
L 191.396542 63557.00462 
L 191.396542 217.647935 
L 190.122138 217.647935 
z
" clip-path="url(#p3533579661)" style="fill: #1f77b4"/>
   </g>
   <g id="patch_52">
    <path d="M 135.959946 63557.00462 
L 137.234351 63557.00462 
L 137.234351 190.903269 
L 135.959946 190.903269 
z
" clip-path="url(#p3533579661)" style="fill: #1f77b4"/>
   </g>
   <g id="patch_53">
    <path d="M 183.750115 63557.00462 
L 185.02452 63557.00462 
L 185.02452 227.217358 
L 183.750115 227.217358 
z
" clip-path="url(#p3533579661)" style="fill: #1f77b4"/>
   </g>
   <g id="patch_54">
    <path d="M 150.296997 63557.00462 
L 151.571402 63557.00462 
L 151.571402 194.139255 
L 150.296997 194.139255 
z
" clip-path="url(#p3533579661)" style="fill: #1f77b4"/>
   </g>
   <g id="patch_55">
    <path d="M 140.738963 63557.00462 
L 142.013368 63557.00462 
L 142.013368 185.894143 
L 140.738963 185.894143 
z
" clip-path="url(#p3533579661)" style="fill: #1f77b4"/>
   </g>
   <g id="patch_56">
    <path d="M 171.00607 63557.00462 
L 172.280475 63557.00462 
L 172.280475 202.043069 
L 171.00607 202.043069 
z
" clip-path="url(#p3533579661)" style="fill: #1f77b4"/>
   </g>
   <g id="patch_57">
    <path d="M 142.331969 63557.00462 
L 143.606373 63557.00462 
L 143.606373 193.460847 
L 142.331969 193.460847 
z
" clip-path="url(#p3533579661)" style="fill: #1f77b4"/>
   </g>
   <g id="patch_58">
    <path d="M 147.110986 63557.00462 
L 148.38539 63557.00462 
L 148.38539 197.807914 
L 147.110986 197.807914 
z
" clip-path="url(#p3533579661)" style="fill: #1f77b4"/>
   </g>
   <g id="patch_59">
    <path d="M 175.785087 63557.00462 
L 177.059491 63557.00462 
L 177.059491 219.313544 
L 175.785087 219.313544 
z
" clip-path="url(#p3533579661)" style="fill: #1f77b4"/>
   </g>
   <g id="patch_60">
    <path d="M 169.413065 63557.00462 
L 170.687469 63557.00462 
L 170.687469 207.052195 
L 169.413065 207.052195 
z
" clip-path="url(#p3533579661)" style="fill: #1f77b4"/>
   </g>
   <g id="patch_61">
    <path d="M 166.227053 63557.00462 
L 167.501458 63557.00462 
L 167.501458 205.97464 
L 166.227053 205.97464 
z
" clip-path="url(#p3533579661)" style="fill: #1f77b4"/>
   </g>
   <g id="patch_62">
    <path d="M 198.087166 63557.00462 
L 199.36157 63557.00462 
L 199.36157 222.982202 
L 198.087166 222.982202 
z
" clip-path="url(#p3533579661)" style="fill: #1f77b4"/>
   </g>
   <g id="patch_63">
    <path d="M 153.483008 63557.00462 
L 154.757413 63557.00462 
L 154.757413 197.807914 
L 153.483008 197.807914 
z
" clip-path="url(#p3533579661)" style="fill: #1f77b4"/>
   </g>
   <g id="patch_64">
    <path d="M 182.157109 63557.00462 
L 183.431514 63557.00462 
L 183.431514 213.182869 
L 182.157109 213.182869 
z
" clip-path="url(#p3533579661)" style="fill: #1f77b4"/>
   </g>
   <g id="patch_65">
    <path d="M 188.529132 63557.00462 
L 189.803536 63557.00462 
L 189.803536 213.182869 
L 188.529132 213.182869 
z
" clip-path="url(#p3533579661)" style="fill: #1f77b4"/>
   </g>
   <g id="patch_66">
    <path d="M 161.448036 63557.00462 
L 162.722441 63557.00462 
L 162.722441 197.807914 
L 161.448036 197.807914 
z
" clip-path="url(#p3533579661)" style="fill: #1f77b4"/>
   </g>
   <g id="patch_67">
    <path d="M 155.076014 63557.00462 
L 156.350418 63557.00462 
L 156.350418 201.142197 
L 155.076014 201.142197 
z
" clip-path="url(#p3533579661)" style="fill: #1f77b4"/>
   </g>
   <g id="patch_68">
    <path d="M 174.192081 63557.00462 
L 175.466486 63557.00462 
L 175.466486 216.077558 
L 174.192081 216.077558 
z
" clip-path="url(#p3533579661)" style="fill: #1f77b4"/>
   </g>
   <g id="patch_69">
    <path d="M 185.343121 63557.00462 
L 186.617525 63557.00462 
L 186.617525 221.086683 
L 185.343121 221.086683 
z
" clip-path="url(#p3533579661)" style="fill: #1f77b4"/>
   </g>
   <g id="patch_70">
    <path d="M 156.66902 63557.00462 
L 157.943424 63557.00462 
L 157.943424 194.83484 
L 156.66902 194.83484 
z
" clip-path="url(#p3533579661)" style="fill: #1f77b4"/>
   </g>
   <g id="patch_71">
    <path d="M 180.564104 63557.00462 
L 181.838508 63557.00462 
L 181.838508 216.077558 
L 180.564104 216.077558 
z
" clip-path="url(#p3533579661)" style="fill: #1f77b4"/>
   </g>
   <g id="patch_72">
    <path d="M 210.831211 63557.00462 
L 212.105615 63557.00462 
L 212.105615 238.357158 
L 210.831211 238.357158 
z
" clip-path="url(#p3533579661)" style="fill: #1f77b4"/>
   </g>
   <g id="patch_73">
    <path d="M 172.599076 63557.00462 
L 173.87348 63557.00462 
L 173.87348 204.937757 
L 172.599076 204.937757 
z
" clip-path="url(#p3533579661)" style="fill: #1f77b4"/>
   </g>
   <g id="patch_74">
    <path d="M 178.971098 63557.00462 
L 180.245503 63557.00462 
L 180.245503 222.982202 
L 178.971098 222.982202 
z
" clip-path="url(#p3533579661)" style="fill: #1f77b4"/>
   </g>
   <g id="patch_75">
    <path d="M 164.634048 63557.00462 
L 165.908452 63557.00462 
L 165.908452 216.077558 
L 164.634048 216.077558 
z
" clip-path="url(#p3533579661)" style="fill: #1f77b4"/>
   </g>
   <g id="patch_76">
    <path d="M 214.017222 63557.00462 
L 215.291626 63557.00462 
L 215.291626 232.226483 
L 214.017222 232.226483 
z
" clip-path="url(#p3533579661)" style="fill: #1f77b4"/>
   </g>
   <g id="patch_77">
    <path d="M 194.901154 63557.00462 
L 196.175559 63557.00462 
L 196.175559 219.313544 
L 194.901154 219.313544 
z
" clip-path="url(#p3533579661)" style="fill: #1f77b4"/>
   </g>
   <g id="patch_78">
    <path d="M 186.936126 63557.00462 
L 188.210531 63557.00462 
L 188.210531 216.077558 
L 186.936126 216.077558 
z
" clip-path="url(#p3533579661)" style="fill: #1f77b4"/>
   </g>
   <g id="patch_79">
    <path d="M 206.052194 63557.00462 
L 207.326598 63557.00462 
L 207.326598 265.304586 
L 206.052194 265.304586 
z
" clip-path="url(#p3533579661)" style="fill: #1f77b4"/>
   </g>
   <g id="patch_80">
    <path d="M 191.715143 63557.00462 
L 192.989548 63557.00462 
L 192.989548 221.086683 
L 191.715143 221.086683 
z
" clip-path="url(#p3533579661)" style="fill: #1f77b4"/>
   </g>
   <g id="patch_81">
    <path d="M 201.273177 63557.00462 
L 202.547581 63557.00462 
L 202.547581 235.121172 
L 201.273177 235.121172 
z
" clip-path="url(#p3533579661)" style="fill: #1f77b4"/>
   </g>
   <g id="patch_82">
    <path d="M 241.098317 63557.00462 
L 242.372722 63557.00462 
L 242.372722 242.025816 
L 241.098317 242.025816 
z
" clip-path="url(#p3533579661)" style="fill: #1f77b4"/>
   </g>
   <g id="patch_83">
    <path d="M 167.820059 63557.00462 
L 169.094463 63557.00462 
L 169.094463 208.173744 
L 167.820059 208.173744 
z
" clip-path="url(#p3533579661)" style="fill: #1f77b4"/>
   </g>
   <g id="patch_84">
    <path d="M 177.378093 63557.00462 
L 178.652497 63557.00462 
L 178.652497 207.052195 
L 177.378093 207.052195 
z
" clip-path="url(#p3533579661)" style="fill: #1f77b4"/>
   </g>
   <g id="patch_85">
    <path d="M 220.389244 63557.00462 
L 221.663649 63557.00462 
L 221.663649 238.357158 
L 220.389244 238.357158 
z
" clip-path="url(#p3533579661)" style="fill: #1f77b4"/>
   </g>
   <g id="patch_86">
    <path d="M 202.866183 63557.00462 
L 204.140587 63557.00462 
L 204.140587 235.121172 
L 202.866183 235.121172 
z
" clip-path="url(#p3533579661)" style="fill: #1f77b4"/>
   </g>
   <g id="patch_87">
    <path d="M 247.47034 63557.00462 
L 248.744744 63557.00462 
L 248.744744 265.304586 
L 247.47034 265.304586 
z
" clip-path="url(#p3533579661)" style="fill: #1f77b4"/>
   </g>
   <g id="patch_88">
    <path d="M 237.912306 63557.00462 
L 239.186711 63557.00462 
L 239.186711 276.444386 
L 237.912306 276.444386 
z
" clip-path="url(#p3533579661)" style="fill: #1f77b4"/>
   </g>
   <g id="patch_89">
    <path d="M 257.028374 63557.00462 
L 258.302778 63557.00462 
L 258.302778 295.488 
L 257.028374 295.488 
z
" clip-path="url(#p3533579661)" style="fill: #1f77b4"/>
   </g>
   <g id="patch_90">
    <path d="M 212.424216 63557.00462 
L 213.698621 63557.00462 
L 213.698621 246.260972 
L 212.424216 246.260972 
z
" clip-path="url(#p3533579661)" style="fill: #1f77b4"/>
   </g>
   <g id="patch_91">
    <path d="M 199.680171 63557.00462 
L 200.954576 63557.00462 
L 200.954576 227.217358 
L 199.680171 227.217358 
z
" clip-path="url(#p3533579661)" style="fill: #1f77b4"/>
   </g>
   <g id="patch_92">
    <path d="M 196.49416 63557.00462 
L 197.768565 63557.00462 
L 197.768565 235.121172 
L 196.49416 235.121172 
z
" clip-path="url(#p3533579661)" style="fill: #1f77b4"/>
   </g>
   <g id="patch_93">
    <path d="M 233.133289 63557.00462 
L 234.407694 63557.00462 
L 234.407694 251.270097 
L 233.133289 251.270097 
z
" clip-path="url(#p3533579661)" style="fill: #1f77b4"/>
   </g>
   <g id="patch_94">
    <path d="M 229.947278 63557.00462 
L 231.221683 63557.00462 
L 231.221683 257.400772 
L 229.947278 257.400772 
z
" clip-path="url(#p3533579661)" style="fill: #1f77b4"/>
   </g>
   <g id="patch_95">
    <path d="M 209.238205 63557.00462 
L 210.51261 63557.00462 
L 210.51261 235.121172 
L 209.238205 235.121172 
z
" clip-path="url(#p3533579661)" style="fill: #1f77b4"/>
   </g>
   <g id="patch_96">
    <path d="M 193.308149 63557.00462 
L 194.582553 63557.00462 
L 194.582553 232.226483 
L 193.308149 232.226483 
z
" clip-path="url(#p3533579661)" style="fill: #1f77b4"/>
   </g>
   <g id="patch_97">
    <path d="M 207.645199 63557.00462 
L 208.919604 63557.00462 
L 208.919604 242.025816 
L 207.645199 242.025816 
z
" clip-path="url(#p3533579661)" style="fill: #1f77b4"/>
   </g>
   <g id="patch_98">
    <path d="M 253.842362 63557.00462 
L 255.116767 63557.00462 
L 255.116767 295.488 
L 253.842362 295.488 
z
" clip-path="url(#p3533579661)" style="fill: #1f77b4"/>
   </g>
   <g id="patch_99">
    <path d="M 244.284329 63557.00462 
L 245.558733 63557.00462 
L 245.558733 295.488 
L 244.284329 295.488 
z
" clip-path="url(#p3533579661)" style="fill: #1f77b4"/>
   </g>
   <g id="patch_100">
    <path d="M 218.796239 63557.00462 
L 220.070643 63557.00462 
L 220.070643 235.121172 
L 218.796239 235.121172 
z
" clip-path="url(#p3533579661)" style="fill: #1f77b4"/>
   </g>
   <g id="patch_101">
    <path d="M 228.354272 63557.00462 
L 229.628677 63557.00462 
L 229.628677 242.025816 
L 228.354272 242.025816 
z
" clip-path="url(#p3533579661)" style="fill: #1f77b4"/>
   </g>
   <g id="patch_102">
    <path d="M 272.95843 63557.00462 
L 274.232834 63557.00462 
L 274.232834 276.444386 
L 272.95843 276.444386 
z
" clip-path="url(#p3533579661)" style="fill: #1f77b4"/>
   </g>
   <g id="patch_103">
    <path d="M 249.063346 63557.00462 
L 250.33775 63557.00462 
L 250.33775 265.304586 
L 249.063346 265.304586 
z
" clip-path="url(#p3533579661)" style="fill: #1f77b4"/>
   </g>
   <g id="patch_104">
    <path d="M 276.144441 63557.00462 
L 277.418846 63557.00462 
L 277.418846 295.488 
L 276.144441 295.488 
z
" clip-path="url(#p3533579661)" style="fill: #1f77b4"/>
   </g>
   <g id="patch_105">
    <path d="M 225.168261 63557.00462 
L 226.442666 63557.00462 
L 226.442666 246.260972 
L 225.168261 246.260972 
z
" clip-path="url(#p3533579661)" style="fill: #1f77b4"/>
   </g>
   <g id="patch_106">
    <path d="M 236.319301 63557.00462 
L 237.593705 63557.00462 
L 237.593705 295.488 
L 236.319301 295.488 
z
" clip-path="url(#p3533579661)" style="fill: #1f77b4"/>
   </g>
   <g id="patch_107">
    <path d="M 215.610227 63557.00462 
L 216.884632 63557.00462 
L 216.884632 251.270097 
L 215.610227 251.270097 
z
" clip-path="url(#p3533579661)" style="fill: #1f77b4"/>
   </g>
   <g id="patch_108">
    <path d="M 204.459188 63557.00462 
L 205.733593 63557.00462 
L 205.733593 257.400772 
L 204.459188 257.400772 
z
" clip-path="url(#p3533579661)" style="fill: #1f77b4"/>
   </g>
   <g id="patch_109">
    <path d="M 231.540284 63557.00462 
L 232.814688 63557.00462 
L 232.814688 276.444386 
L 231.540284 276.444386 
z
" clip-path="url(#p3533579661)" style="fill: #1f77b4"/>
   </g>
   <g id="patch_110">
    <path d="M 223.575256 63557.00462 
L 224.84966 63557.00462 
L 224.84966 265.304586 
L 223.575256 265.304586 
z
" clip-path="url(#p3533579661)" style="fill: #1f77b4"/>
   </g>
   <g id="patch_111">
    <path d="M 250.656351 63557.00462 
L 251.930756 63557.00462 
L 251.930756 276.444386 
L 250.656351 276.444386 
z
" clip-path="url(#p3533579661)" style="fill: #1f77b4"/>
   </g>
   <g id="patch_112">
    <path d="M 268.179413 63557.00462 
L 269.453817 63557.00462 
L 269.453817 295.488 
L 268.179413 295.488 
z
" clip-path="url(#p3533579661)" style="fill: #1f77b4"/>
   </g>
   <g id="patch_113">
    <path d="M 221.98225 63557.00462 
L 223.256654 63557.00462 
L 223.256654 232.226483 
L 221.98225 232.226483 
z
" clip-path="url(#p3533579661)" style="fill: #1f77b4"/>
   </g>
   <g id="patch_114">
    <path d="M 255.435368 63557.00462 
L 256.709773 63557.00462 
L 256.709773 265.304586 
L 255.435368 265.304586 
z
" clip-path="url(#p3533579661)" style="fill: #1f77b4"/>
   </g>
   <g id="patch_115">
    <path d="M 234.726295 63557.00462 
L 236.000699 63557.00462 
L 236.000699 265.304586 
L 234.726295 265.304586 
z
" clip-path="url(#p3533579661)" style="fill: #1f77b4"/>
   </g>
   <g id="patch_116">
    <path d="M 263.400396 63557.00462 
L 264.674801 63557.00462 
L 264.674801 257.400772 
L 263.400396 257.400772 
z
" clip-path="url(#p3533579661)" style="fill: #1f77b4"/>
   </g>
   <g id="patch_117">
    <path d="M 226.761267 63557.00462 
L 228.035671 63557.00462 
L 228.035671 276.444386 
L 226.761267 276.444386 
z
" clip-path="url(#p3533579661)" style="fill: #1f77b4"/>
   </g>
   <g id="patch_118">
    <path d="M 242.691323 63557.00462 
L 243.965728 63557.00462 
L 243.965728 265.304586 
L 242.691323 265.304586 
z
" clip-path="url(#p3533579661)" style="fill: #1f77b4"/>
   </g>
   <g id="patch_119">
    <path d="M 330.306632 63557.00462 
L 331.581037 63557.00462 
L 331.581037 295.488 
L 330.306632 295.488 
z
" clip-path="url(#p3533579661)" style="fill: #1f77b4"/>
   </g>
   <g id="patch_120">
    <path d="M 295.260509 63557.00462 
L 296.534913 63557.00462 
L 296.534913 295.488 
L 295.260509 295.488 
z
" clip-path="url(#p3533579661)" style="fill: #1f77b4"/>
   </g>
   <g id="patch_121">
    <path d="M 282.516464 63557.00462 
L 283.790868 63557.00462 
L 283.790868 276.444386 
L 282.516464 276.444386 
z
" clip-path="url(#p3533579661)" style="fill: #1f77b4"/>
   </g>
   <g id="patch_122">
    <path d="M 331.899638 63557.00462 
L 333.174042 63557.00462 
L 333.174042 295.488 
L 331.899638 295.488 
z
" clip-path="url(#p3533579661)" style="fill: #1f77b4"/>
   </g>
   <g id="patch_123">
    <path d="M 239.505312 63557.00462 
L 240.779716 63557.00462 
L 240.779716 276.444386 
L 239.505312 276.444386 
z
" clip-path="url(#p3533579661)" style="fill: #1f77b4"/>
   </g>
   <g id="patch_124">
    <path d="M 217.203233 63557.00462 
L 218.477638 63557.00462 
L 218.477638 265.304586 
L 217.203233 265.304586 
z
" clip-path="url(#p3533579661)" style="fill: #1f77b4"/>
   </g>
   <g id="patch_125">
    <path d="M 293.667503 63557.00462 
L 294.941907 63557.00462 
L 294.941907 295.488 
L 293.667503 295.488 
z
" clip-path="url(#p3533579661)" style="fill: #1f77b4"/>
   </g>
   <g id="patch_126">
    <path d="M 252.249357 63557.00462 
L 253.523761 63557.00462 
L 253.523761 295.488 
L 252.249357 295.488 
z
" clip-path="url(#p3533579661)" style="fill: #1f77b4"/>
   </g>
   <g id="patch_127">
    <path d="M 300.039525 63557.00462 
L 301.31393 63557.00462 
L 301.31393 295.488 
L 300.039525 295.488 
z
" clip-path="url(#p3533579661)" style="fill: #1f77b4"/>
   </g>
   <g id="patch_128">
    <path d="M 290.481492 63557.00462 
L 291.755896 63557.00462 
L 291.755896 295.488 
L 290.481492 295.488 
z
" clip-path="url(#p3533579661)" style="fill: #1f77b4"/>
   </g>
   <g id="patch_129">
    <path d="M 279.330452 63557.00462 
L 280.604857 63557.00462 
L 280.604857 295.488 
L 279.330452 295.488 
z
" clip-path="url(#p3533579661)" style="fill: #1f77b4"/>
   </g>
   <g id="patch_130">
    <path d="M 271.365424 63557.00462 
L 272.639829 63557.00462 
L 272.639829 295.488 
L 271.365424 295.488 
z
" clip-path="url(#p3533579661)" style="fill: #1f77b4"/>
   </g>
   <g id="patch_131">
    <path d="M 260.214385 63557.00462 
L 261.488789 63557.00462 
L 261.488789 276.444386 
L 260.214385 276.444386 
z
" clip-path="url(#p3533579661)" style="fill: #1f77b4"/>
   </g>
   <g id="patch_132">
    <path d="M 397.212868 63557.00462 
L 398.487273 63557.00462 
L 398.487273 295.488 
L 397.212868 295.488 
z
" clip-path="url(#p3533579661)" style="fill: #1f77b4"/>
   </g>
   <g id="patch_133">
    <path d="M 284.109469 63557.00462 
L 285.383874 63557.00462 
L 285.383874 295.488 
L 284.109469 295.488 
z
" clip-path="url(#p3533579661)" style="fill: #1f77b4"/>
   </g>
   <g id="patch_134">
    <path d="M 366.945761 63557.00462 
L 368.220166 63557.00462 
L 368.220166 295.488 
L 366.945761 295.488 
z
" clip-path="url(#p3533579661)" style="fill: #1f77b4"/>
   </g>
   <g id="patch_135">
    <path d="M 371.724778 63557.00462 
L 372.999183 63557.00462 
L 372.999183 295.488 
L 371.724778 295.488 
z
" clip-path="url(#p3533579661)" style="fill: #1f77b4"/>
   </g>
   <g id="patch_136">
    <path d="M 277.737447 63557.00462 
L 279.011851 63557.00462 
L 279.011851 295.488 
L 277.737447 295.488 
z
" clip-path="url(#p3533579661)" style="fill: #1f77b4"/>
   </g>
   <g id="patch_137">
    <path d="M 328.713627 63557.00462 
L 329.988031 63557.00462 
L 329.988031 295.488 
L 328.713627 295.488 
z
" clip-path="url(#p3533579661)" style="fill: #1f77b4"/>
   </g>
   <g id="matplotlib.axis_1">
    <g id="xtick_1">
     <g id="line2d_1">
      <defs>
       <path id="md4dfd91180" d="M 0 0 
L 0 3.5 
" style="stroke: #000000; stroke-width: 0.8"/>
      </defs>
      <g>
       <use xlink:href="#md4dfd91180" x="74.46993" y="307.584" style="stroke: #000000; stroke-width: 0.8"/>
      </g>
     </g>
     <g id="text_1">
      <!-- 0 -->
      <g transform="translate(71.28868 322.182437) scale(0.1 -0.1)">
       <defs>
        <path id="DejaVuSans-30" d="M 2034 4250 
Q 1547 4250 1301 3770 
Q 1056 3291 1056 2328 
Q 1056 1369 1301 889 
Q 1547 409 2034 409 
Q 2525 409 2770 889 
Q 3016 1369 3016 2328 
Q 3016 3291 2770 3770 
Q 2525 4250 2034 4250 
z
M 2034 4750 
Q 2819 4750 3233 4129 
Q 3647 3509 3647 2328 
Q 3647 1150 3233 529 
Q 2819 -91 2034 -91 
Q 1250 -91 836 529 
Q 422 1150 422 2328 
Q 422 3509 836 4129 
Q 1250 4750 2034 4750 
z
" transform="scale(0.015625)"/>
       </defs>
       <use xlink:href="#DejaVuSans-30"/>
      </g>
     </g>
    </g>
    <g id="xtick_2">
     <g id="line2d_2">
      <g>
       <use xlink:href="#md4dfd91180" x="114.29507" y="307.584" style="stroke: #000000; stroke-width: 0.8"/>
      </g>
     </g>
     <g id="text_2">
      <!-- 25 -->
      <g transform="translate(107.93257 322.182437) scale(0.1 -0.1)">
       <defs>
        <path id="DejaVuSans-32" d="M 1228 531 
L 3431 531 
L 3431 0 
L 469 0 
L 469 531 
Q 828 903 1448 1529 
Q 2069 2156 2228 2338 
Q 2531 2678 2651 2914 
Q 2772 3150 2772 3378 
Q 2772 3750 2511 3984 
Q 2250 4219 1831 4219 
Q 1534 4219 1204 4116 
Q 875 4013 500 3803 
L 500 4441 
Q 881 4594 1212 4672 
Q 1544 4750 1819 4750 
Q 2544 4750 2975 4387 
Q 3406 4025 3406 3419 
Q 3406 3131 3298 2873 
Q 3191 2616 2906 2266 
Q 2828 2175 2409 1742 
Q 1991 1309 1228 531 
z
" transform="scale(0.015625)"/>
        <path id="DejaVuSans-35" d="M 691 4666 
L 3169 4666 
L 3169 4134 
L 1269 4134 
L 1269 2991 
Q 1406 3038 1543 3061 
Q 1681 3084 1819 3084 
Q 2600 3084 3056 2656 
Q 3513 2228 3513 1497 
Q 3513 744 3044 326 
Q 2575 -91 1722 -91 
Q 1428 -91 1123 -41 
Q 819 9 494 109 
L 494 744 
Q 775 591 1075 516 
Q 1375 441 1709 441 
Q 2250 441 2565 725 
Q 2881 1009 2881 1497 
Q 2881 1984 2565 2268 
Q 2250 2553 1709 2553 
Q 1456 2553 1204 2497 
Q 953 2441 691 2322 
L 691 4666 
z
" transform="scale(0.015625)"/>
       </defs>
       <use xlink:href="#DejaVuSans-32"/>
       <use xlink:href="#DejaVuSans-35" x="63.623047"/>
      </g>
     </g>
    </g>
    <g id="xtick_3">
     <g id="line2d_3">
      <g>
       <use xlink:href="#md4dfd91180" x="154.120211" y="307.584" style="stroke: #000000; stroke-width: 0.8"/>
      </g>
     </g>
     <g id="text_3">
      <!-- 50 -->
      <g transform="translate(147.757711 322.182437) scale(0.1 -0.1)">
       <use xlink:href="#DejaVuSans-35"/>
       <use xlink:href="#DejaVuSans-30" x="63.623047"/>
      </g>
     </g>
    </g>
    <g id="xtick_4">
     <g id="line2d_4">
      <g>
       <use xlink:href="#md4dfd91180" x="193.945351" y="307.584" style="stroke: #000000; stroke-width: 0.8"/>
      </g>
     </g>
     <g id="text_4">
      <!-- 75 -->
      <g transform="translate(187.582851 322.182437) scale(0.1 -0.1)">
       <defs>
        <path id="DejaVuSans-37" d="M 525 4666 
L 3525 4666 
L 3525 4397 
L 1831 0 
L 1172 0 
L 2766 4134 
L 525 4134 
L 525 4666 
z
" transform="scale(0.015625)"/>
       </defs>
       <use xlink:href="#DejaVuSans-37"/>
       <use xlink:href="#DejaVuSans-35" x="63.623047"/>
      </g>
     </g>
    </g>
    <g id="xtick_5">
     <g id="line2d_5">
      <g>
       <use xlink:href="#md4dfd91180" x="233.770492" y="307.584" style="stroke: #000000; stroke-width: 0.8"/>
      </g>
     </g>
     <g id="text_5">
      <!-- 100 -->
      <g transform="translate(224.226742 322.182437) scale(0.1 -0.1)">
       <defs>
        <path id="DejaVuSans-31" d="M 794 531 
L 1825 531 
L 1825 4091 
L 703 3866 
L 703 4441 
L 1819 4666 
L 2450 4666 
L 2450 531 
L 3481 531 
L 3481 0 
L 794 0 
L 794 531 
z
" transform="scale(0.015625)"/>
       </defs>
       <use xlink:href="#DejaVuSans-31"/>
       <use xlink:href="#DejaVuSans-30" x="63.623047"/>
       <use xlink:href="#DejaVuSans-30" x="127.246094"/>
      </g>
     </g>
    </g>
    <g id="xtick_6">
     <g id="line2d_6">
      <g>
       <use xlink:href="#md4dfd91180" x="273.595632" y="307.584" style="stroke: #000000; stroke-width: 0.8"/>
      </g>
     </g>
     <g id="text_6">
      <!-- 125 -->
      <g transform="translate(264.051882 322.182437) scale(0.1 -0.1)">
       <use xlink:href="#DejaVuSans-31"/>
       <use xlink:href="#DejaVuSans-32" x="63.623047"/>
       <use xlink:href="#DejaVuSans-35" x="127.246094"/>
      </g>
     </g>
    </g>
    <g id="xtick_7">
     <g id="line2d_7">
      <g>
       <use xlink:href="#md4dfd91180" x="313.420773" y="307.584" style="stroke: #000000; stroke-width: 0.8"/>
      </g>
     </g>
     <g id="text_7">
      <!-- 150 -->
      <g transform="translate(303.877023 322.182437) scale(0.1 -0.1)">
       <use xlink:href="#DejaVuSans-31"/>
       <use xlink:href="#DejaVuSans-35" x="63.623047"/>
       <use xlink:href="#DejaVuSans-30" x="127.246094"/>
      </g>
     </g>
    </g>
    <g id="xtick_8">
     <g id="line2d_8">
      <g>
       <use xlink:href="#md4dfd91180" x="353.245913" y="307.584" style="stroke: #000000; stroke-width: 0.8"/>
      </g>
     </g>
     <g id="text_8">
      <!-- 175 -->
      <g transform="translate(343.702163 322.182437) scale(0.1 -0.1)">
       <use xlink:href="#DejaVuSans-31"/>
       <use xlink:href="#DejaVuSans-37" x="63.623047"/>
       <use xlink:href="#DejaVuSans-35" x="127.246094"/>
      </g>
     </g>
    </g>
    <g id="xtick_9">
     <g id="line2d_9">
      <g>
       <use xlink:href="#md4dfd91180" x="393.071054" y="307.584" style="stroke: #000000; stroke-width: 0.8"/>
      </g>
     </g>
     <g id="text_9">
      <!-- 200 -->
      <g transform="translate(383.527304 322.182437) scale(0.1 -0.1)">
       <use xlink:href="#DejaVuSans-32"/>
       <use xlink:href="#DejaVuSans-30" x="63.623047"/>
       <use xlink:href="#DejaVuSans-30" x="127.246094"/>
      </g>
     </g>
    </g>
    <g id="text_10">
     <!-- Depth of Element -->
     <g transform="translate(192.231875 335.860562) scale(0.1 -0.1)">
      <defs>
       <path id="DejaVuSans-44" d="M 1259 4147 
L 1259 519 
L 2022 519 
Q 2988 519 3436 956 
Q 3884 1394 3884 2338 
Q 3884 3275 3436 3711 
Q 2988 4147 2022 4147 
L 1259 4147 
z
M 628 4666 
L 1925 4666 
Q 3281 4666 3915 4102 
Q 4550 3538 4550 2338 
Q 4550 1131 3912 565 
Q 3275 0 1925 0 
L 628 0 
L 628 4666 
z
" transform="scale(0.015625)"/>
       <path id="DejaVuSans-65" d="M 3597 1894 
L 3597 1613 
L 953 1613 
Q 991 1019 1311 708 
Q 1631 397 2203 397 
Q 2534 397 2845 478 
Q 3156 559 3463 722 
L 3463 178 
Q 3153 47 2828 -22 
Q 2503 -91 2169 -91 
Q 1331 -91 842 396 
Q 353 884 353 1716 
Q 353 2575 817 3079 
Q 1281 3584 2069 3584 
Q 2775 3584 3186 3129 
Q 3597 2675 3597 1894 
z
M 3022 2063 
Q 3016 2534 2758 2815 
Q 2500 3097 2075 3097 
Q 1594 3097 1305 2825 
Q 1016 2553 972 2059 
L 3022 2063 
z
" transform="scale(0.015625)"/>
       <path id="DejaVuSans-70" d="M 1159 525 
L 1159 -1331 
L 581 -1331 
L 581 3500 
L 1159 3500 
L 1159 2969 
Q 1341 3281 1617 3432 
Q 1894 3584 2278 3584 
Q 2916 3584 3314 3078 
Q 3713 2572 3713 1747 
Q 3713 922 3314 415 
Q 2916 -91 2278 -91 
Q 1894 -91 1617 61 
Q 1341 213 1159 525 
z
M 3116 1747 
Q 3116 2381 2855 2742 
Q 2594 3103 2138 3103 
Q 1681 3103 1420 2742 
Q 1159 2381 1159 1747 
Q 1159 1113 1420 752 
Q 1681 391 2138 391 
Q 2594 391 2855 752 
Q 3116 1113 3116 1747 
z
" transform="scale(0.015625)"/>
       <path id="DejaVuSans-74" d="M 1172 4494 
L 1172 3500 
L 2356 3500 
L 2356 3053 
L 1172 3053 
L 1172 1153 
Q 1172 725 1289 603 
Q 1406 481 1766 481 
L 2356 481 
L 2356 0 
L 1766 0 
Q 1100 0 847 248 
Q 594 497 594 1153 
L 594 3053 
L 172 3053 
L 172 3500 
L 594 3500 
L 594 4494 
L 1172 4494 
z
" transform="scale(0.015625)"/>
       <path id="DejaVuSans-68" d="M 3513 2113 
L 3513 0 
L 2938 0 
L 2938 2094 
Q 2938 2591 2744 2837 
Q 2550 3084 2163 3084 
Q 1697 3084 1428 2787 
Q 1159 2491 1159 1978 
L 1159 0 
L 581 0 
L 581 4863 
L 1159 4863 
L 1159 2956 
Q 1366 3272 1645 3428 
Q 1925 3584 2291 3584 
Q 2894 3584 3203 3211 
Q 3513 2838 3513 2113 
z
" transform="scale(0.015625)"/>
       <path id="DejaVuSans-20" transform="scale(0.015625)"/>
       <path id="DejaVuSans-6f" d="M 1959 3097 
Q 1497 3097 1228 2736 
Q 959 2375 959 1747 
Q 959 1119 1226 758 
Q 1494 397 1959 397 
Q 2419 397 2687 759 
Q 2956 1122 2956 1747 
Q 2956 2369 2687 2733 
Q 2419 3097 1959 3097 
z
M 1959 3584 
Q 2709 3584 3137 3096 
Q 3566 2609 3566 1747 
Q 3566 888 3137 398 
Q 2709 -91 1959 -91 
Q 1206 -91 779 398 
Q 353 888 353 1747 
Q 353 2609 779 3096 
Q 1206 3584 1959 3584 
z
" transform="scale(0.015625)"/>
       <path id="DejaVuSans-66" d="M 2375 4863 
L 2375 4384 
L 1825 4384 
Q 1516 4384 1395 4259 
Q 1275 4134 1275 3809 
L 1275 3500 
L 2222 3500 
L 2222 3053 
L 1275 3053 
L 1275 0 
L 697 0 
L 697 3053 
L 147 3053 
L 147 3500 
L 697 3500 
L 697 3744 
Q 697 4328 969 4595 
Q 1241 4863 1831 4863 
L 2375 4863 
z
" transform="scale(0.015625)"/>
       <path id="DejaVuSans-45" d="M 628 4666 
L 3578 4666 
L 3578 4134 
L 1259 4134 
L 1259 2753 
L 3481 2753 
L 3481 2222 
L 1259 2222 
L 1259 531 
L 3634 531 
L 3634 0 
L 628 0 
L 628 4666 
z
" transform="scale(0.015625)"/>
       <path id="DejaVuSans-6c" d="M 603 4863 
L 1178 4863 
L 1178 0 
L 603 0 
L 603 4863 
z
" transform="scale(0.015625)"/>
       <path id="DejaVuSans-6d" d="M 3328 2828 
Q 3544 3216 3844 3400 
Q 4144 3584 4550 3584 
Q 5097 3584 5394 3201 
Q 5691 2819 5691 2113 
L 5691 0 
L 5113 0 
L 5113 2094 
Q 5113 2597 4934 2840 
Q 4756 3084 4391 3084 
Q 3944 3084 3684 2787 
Q 3425 2491 3425 1978 
L 3425 0 
L 2847 0 
L 2847 2094 
Q 2847 2600 2669 2842 
Q 2491 3084 2119 3084 
Q 1678 3084 1418 2786 
Q 1159 2488 1159 1978 
L 1159 0 
L 581 0 
L 581 3500 
L 1159 3500 
L 1159 2956 
Q 1356 3278 1631 3431 
Q 1906 3584 2284 3584 
Q 2666 3584 2933 3390 
Q 3200 3197 3328 2828 
z
" transform="scale(0.015625)"/>
       <path id="DejaVuSans-6e" d="M 3513 2113 
L 3513 0 
L 2938 0 
L 2938 2094 
Q 2938 2591 2744 2837 
Q 2550 3084 2163 3084 
Q 1697 3084 1428 2787 
Q 1159 2491 1159 1978 
L 1159 0 
L 581 0 
L 581 3500 
L 1159 3500 
L 1159 2956 
Q 1366 3272 1645 3428 
Q 1925 3584 2291 3584 
Q 2894 3584 3203 3211 
Q 3513 2838 3513 2113 
z
" transform="scale(0.015625)"/>
      </defs>
      <use xlink:href="#DejaVuSans-44"/>
      <use xlink:href="#DejaVuSans-65" x="77.001953"/>
      <use xlink:href="#DejaVuSans-70" x="138.525391"/>
      <use xlink:href="#DejaVuSans-74" x="202.001953"/>
      <use xlink:href="#DejaVuSans-68" x="241.210938"/>
      <use xlink:href="#DejaVuSans-20" x="304.589844"/>
      <use xlink:href="#DejaVuSans-6f" x="336.376953"/>
      <use xlink:href="#DejaVuSans-66" x="397.558594"/>
      <use xlink:href="#DejaVuSans-20" x="432.763672"/>
      <use xlink:href="#DejaVuSans-45" x="464.550781"/>
      <use xlink:href="#DejaVuSans-6c" x="527.734375"/>
      <use xlink:href="#DejaVuSans-65" x="555.517578"/>
      <use xlink:href="#DejaVuSans-6d" x="617.041016"/>
      <use xlink:href="#DejaVuSans-65" x="714.453125"/>
      <use xlink:href="#DejaVuSans-6e" x="775.976562"/>
      <use xlink:href="#DejaVuSans-74" x="839.355469"/>
     </g>
    </g>
   </g>
   <g id="matplotlib.axis_2">
    <g id="ytick_1">
     <g id="line2d_10">
      <defs>
       <path id="mbd737195ab" d="M 0 0 
L -3.5 0 
" style="stroke: #000000; stroke-width: 0.8"/>
      </defs>
      <g>
       <use xlink:href="#mbd737195ab" x="57.6" y="295.488" style="stroke: #000000; stroke-width: 0.8"/>
      </g>
     </g>
     <g id="text_11">
      <!-- $\mathdefault{10^{0}}$ -->
      <g transform="translate(33 299.287219) scale(0.1 -0.1)">
       <use xlink:href="#DejaVuSans-31" transform="translate(0 0.765625)"/>
       <use xlink:href="#DejaVuSans-30" transform="translate(63.623047 0.765625)"/>
       <use xlink:href="#DejaVuSans-30" transform="translate(128.203125 39.046875) scale(0.7)"/>
      </g>
     </g>
    </g>
    <g id="ytick_2">
     <g id="line2d_11">
      <g>
       <use xlink:href="#mbd737195ab" x="57.6" y="232.226483" style="stroke: #000000; stroke-width: 0.8"/>
      </g>
     </g>
     <g id="text_12">
      <!-- $\mathdefault{10^{1}}$ -->
      <g transform="translate(33 236.025702) scale(0.1 -0.1)">
       <use xlink:href="#DejaVuSans-31" transform="translate(0 0.684375)"/>
       <use xlink:href="#DejaVuSans-30" transform="translate(63.623047 0.684375)"/>
       <use xlink:href="#DejaVuSans-31" transform="translate(128.203125 38.965625) scale(0.7)"/>
      </g>
     </g>
    </g>
    <g id="ytick_3">
     <g id="line2d_12">
      <g>
       <use xlink:href="#mbd737195ab" x="57.6" y="168.964967" style="stroke: #000000; stroke-width: 0.8"/>
      </g>
     </g>
     <g id="text_13">
      <!-- $\mathdefault{10^{2}}$ -->
      <g transform="translate(33 172.764186) scale(0.1 -0.1)">
       <use xlink:href="#DejaVuSans-31" transform="translate(0 0.765625)"/>
       <use xlink:href="#DejaVuSans-30" transform="translate(63.623047 0.765625)"/>
       <use xlink:href="#DejaVuSans-32" transform="translate(128.203125 39.046875) scale(0.7)"/>
      </g>
     </g>
    </g>
    <g id="ytick_4">
     <g id="line2d_13">
      <g>
       <use xlink:href="#mbd737195ab" x="57.6" y="105.70345" style="stroke: #000000; stroke-width: 0.8"/>
      </g>
     </g>
     <g id="text_14">
      <!-- $\mathdefault{10^{3}}$ -->
      <g transform="translate(33 109.502669) scale(0.1 -0.1)">
       <defs>
        <path id="DejaVuSans-33" d="M 2597 2516 
Q 3050 2419 3304 2112 
Q 3559 1806 3559 1356 
Q 3559 666 3084 287 
Q 2609 -91 1734 -91 
Q 1441 -91 1130 -33 
Q 819 25 488 141 
L 488 750 
Q 750 597 1062 519 
Q 1375 441 1716 441 
Q 2309 441 2620 675 
Q 2931 909 2931 1356 
Q 2931 1769 2642 2001 
Q 2353 2234 1838 2234 
L 1294 2234 
L 1294 2753 
L 1863 2753 
Q 2328 2753 2575 2939 
Q 2822 3125 2822 3475 
Q 2822 3834 2567 4026 
Q 2313 4219 1838 4219 
Q 1578 4219 1281 4162 
Q 984 4106 628 3988 
L 628 4550 
Q 988 4650 1302 4700 
Q 1616 4750 1894 4750 
Q 2613 4750 3031 4423 
Q 3450 4097 3450 3541 
Q 3450 3153 3228 2886 
Q 3006 2619 2597 2516 
z
" transform="scale(0.015625)"/>
       </defs>
       <use xlink:href="#DejaVuSans-31" transform="translate(0 0.765625)"/>
       <use xlink:href="#DejaVuSans-30" transform="translate(63.623047 0.765625)"/>
       <use xlink:href="#DejaVuSans-33" transform="translate(128.203125 39.046875) scale(0.7)"/>
      </g>
     </g>
    </g>
    <g id="ytick_5">
     <g id="line2d_14">
      <g>
       <use xlink:href="#mbd737195ab" x="57.6" y="42.441934" style="stroke: #000000; stroke-width: 0.8"/>
      </g>
     </g>
     <g id="text_15">
      <!-- $\mathdefault{10^{4}}$ -->
      <g transform="translate(33 46.241152) scale(0.1 -0.1)">
       <defs>
        <path id="DejaVuSans-34" d="M 2419 4116 
L 825 1625 
L 2419 1625 
L 2419 4116 
z
M 2253 4666 
L 3047 4666 
L 3047 1625 
L 3713 1625 
L 3713 1100 
L 3047 1100 
L 3047 0 
L 2419 0 
L 2419 1100 
L 313 1100 
L 313 1709 
L 2253 4666 
z
" transform="scale(0.015625)"/>
       </defs>
       <use xlink:href="#DejaVuSans-31" transform="translate(0 0.684375)"/>
       <use xlink:href="#DejaVuSans-30" transform="translate(63.623047 0.684375)"/>
       <use xlink:href="#DejaVuSans-34" transform="translate(128.203125 38.965625) scale(0.7)"/>
      </g>
     </g>
    </g>
    <g id="ytick_6">
     <g id="line2d_15">
      <defs>
       <path id="mdf5e3fcdad" d="M 0 0 
L -2 0 
" style="stroke: #000000; stroke-width: 0.6"/>
      </defs>
      <g>
       <use xlink:href="#mdf5e3fcdad" x="57.6" y="305.287333" style="stroke: #000000; stroke-width: 0.6"/>
      </g>
     </g>
    </g>
    <g id="ytick_7">
     <g id="line2d_16">
      <g>
       <use xlink:href="#mdf5e3fcdad" x="57.6" y="301.618674" style="stroke: #000000; stroke-width: 0.6"/>
      </g>
     </g>
    </g>
    <g id="ytick_8">
     <g id="line2d_17">
      <g>
       <use xlink:href="#mdf5e3fcdad" x="57.6" y="298.382688" style="stroke: #000000; stroke-width: 0.6"/>
      </g>
     </g>
    </g>
    <g id="ytick_9">
     <g id="line2d_18">
      <g>
       <use xlink:href="#mdf5e3fcdad" x="57.6" y="276.444386" style="stroke: #000000; stroke-width: 0.6"/>
      </g>
     </g>
    </g>
    <g id="ytick_10">
     <g id="line2d_19">
      <g>
       <use xlink:href="#mdf5e3fcdad" x="57.6" y="265.304586" style="stroke: #000000; stroke-width: 0.6"/>
      </g>
     </g>
    </g>
    <g id="ytick_11">
     <g id="line2d_20">
      <g>
       <use xlink:href="#mdf5e3fcdad" x="57.6" y="257.400772" style="stroke: #000000; stroke-width: 0.6"/>
      </g>
     </g>
    </g>
    <g id="ytick_12">
     <g id="line2d_21">
      <g>
       <use xlink:href="#mdf5e3fcdad" x="57.6" y="251.270097" style="stroke: #000000; stroke-width: 0.6"/>
      </g>
     </g>
    </g>
    <g id="ytick_13">
     <g id="line2d_22">
      <g>
       <use xlink:href="#mdf5e3fcdad" x="57.6" y="246.260972" style="stroke: #000000; stroke-width: 0.6"/>
      </g>
     </g>
    </g>
    <g id="ytick_14">
     <g id="line2d_23">
      <g>
       <use xlink:href="#mdf5e3fcdad" x="57.6" y="242.025816" style="stroke: #000000; stroke-width: 0.6"/>
      </g>
     </g>
    </g>
    <g id="ytick_15">
     <g id="line2d_24">
      <g>
       <use xlink:href="#mdf5e3fcdad" x="57.6" y="238.357158" style="stroke: #000000; stroke-width: 0.6"/>
      </g>
     </g>
    </g>
    <g id="ytick_16">
     <g id="line2d_25">
      <g>
       <use xlink:href="#mdf5e3fcdad" x="57.6" y="235.121172" style="stroke: #000000; stroke-width: 0.6"/>
      </g>
     </g>
    </g>
    <g id="ytick_17">
     <g id="line2d_26">
      <g>
       <use xlink:href="#mdf5e3fcdad" x="57.6" y="213.182869" style="stroke: #000000; stroke-width: 0.6"/>
      </g>
     </g>
    </g>
    <g id="ytick_18">
     <g id="line2d_27">
      <g>
       <use xlink:href="#mdf5e3fcdad" x="57.6" y="202.043069" style="stroke: #000000; stroke-width: 0.6"/>
      </g>
     </g>
    </g>
    <g id="ytick_19">
     <g id="line2d_28">
      <g>
       <use xlink:href="#mdf5e3fcdad" x="57.6" y="194.139255" style="stroke: #000000; stroke-width: 0.6"/>
      </g>
     </g>
    </g>
    <g id="ytick_20">
     <g id="line2d_29">
      <g>
       <use xlink:href="#mdf5e3fcdad" x="57.6" y="188.008581" style="stroke: #000000; stroke-width: 0.6"/>
      </g>
     </g>
    </g>
    <g id="ytick_21">
     <g id="line2d_30">
      <g>
       <use xlink:href="#mdf5e3fcdad" x="57.6" y="182.999455" style="stroke: #000000; stroke-width: 0.6"/>
      </g>
     </g>
    </g>
    <g id="ytick_22">
     <g id="line2d_31">
      <g>
       <use xlink:href="#mdf5e3fcdad" x="57.6" y="178.7643" style="stroke: #000000; stroke-width: 0.6"/>
      </g>
     </g>
    </g>
    <g id="ytick_23">
     <g id="line2d_32">
      <g>
       <use xlink:href="#mdf5e3fcdad" x="57.6" y="175.095641" style="stroke: #000000; stroke-width: 0.6"/>
      </g>
     </g>
    </g>
    <g id="ytick_24">
     <g id="line2d_33">
      <g>
       <use xlink:href="#mdf5e3fcdad" x="57.6" y="171.859655" style="stroke: #000000; stroke-width: 0.6"/>
      </g>
     </g>
    </g>
    <g id="ytick_25">
     <g id="line2d_34">
      <g>
       <use xlink:href="#mdf5e3fcdad" x="57.6" y="149.921353" style="stroke: #000000; stroke-width: 0.6"/>
      </g>
     </g>
    </g>
    <g id="ytick_26">
     <g id="line2d_35">
      <g>
       <use xlink:href="#mdf5e3fcdad" x="57.6" y="138.781553" style="stroke: #000000; stroke-width: 0.6"/>
      </g>
     </g>
    </g>
    <g id="ytick_27">
     <g id="line2d_36">
      <g>
       <use xlink:href="#mdf5e3fcdad" x="57.6" y="130.877739" style="stroke: #000000; stroke-width: 0.6"/>
      </g>
     </g>
    </g>
    <g id="ytick_28">
     <g id="line2d_37">
      <g>
       <use xlink:href="#mdf5e3fcdad" x="57.6" y="124.747064" style="stroke: #000000; stroke-width: 0.6"/>
      </g>
     </g>
    </g>
    <g id="ytick_29">
     <g id="line2d_38">
      <g>
       <use xlink:href="#mdf5e3fcdad" x="57.6" y="119.737939" style="stroke: #000000; stroke-width: 0.6"/>
      </g>
     </g>
    </g>
    <g id="ytick_30">
     <g id="line2d_39">
      <g>
       <use xlink:href="#mdf5e3fcdad" x="57.6" y="115.502783" style="stroke: #000000; stroke-width: 0.6"/>
      </g>
     </g>
    </g>
    <g id="ytick_31">
     <g id="line2d_40">
      <g>
       <use xlink:href="#mdf5e3fcdad" x="57.6" y="111.834125" style="stroke: #000000; stroke-width: 0.6"/>
      </g>
     </g>
    </g>
    <g id="ytick_32">
     <g id="line2d_41">
      <g>
       <use xlink:href="#mdf5e3fcdad" x="57.6" y="108.598138" style="stroke: #000000; stroke-width: 0.6"/>
      </g>
     </g>
    </g>
    <g id="ytick_33">
     <g id="line2d_42">
      <g>
       <use xlink:href="#mdf5e3fcdad" x="57.6" y="86.659836" style="stroke: #000000; stroke-width: 0.6"/>
      </g>
     </g>
    </g>
    <g id="ytick_34">
     <g id="line2d_43">
      <g>
       <use xlink:href="#mdf5e3fcdad" x="57.6" y="75.520036" style="stroke: #000000; stroke-width: 0.6"/>
      </g>
     </g>
    </g>
    <g id="ytick_35">
     <g id="line2d_44">
      <g>
       <use xlink:href="#mdf5e3fcdad" x="57.6" y="67.616222" style="stroke: #000000; stroke-width: 0.6"/>
      </g>
     </g>
    </g>
    <g id="ytick_36">
     <g id="line2d_45">
      <g>
       <use xlink:href="#mdf5e3fcdad" x="57.6" y="61.485548" style="stroke: #000000; stroke-width: 0.6"/>
      </g>
     </g>
    </g>
    <g id="ytick_37">
     <g id="line2d_46">
      <g>
       <use xlink:href="#mdf5e3fcdad" x="57.6" y="56.476422" style="stroke: #000000; stroke-width: 0.6"/>
      </g>
     </g>
    </g>
    <g id="ytick_38">
     <g id="line2d_47">
      <g>
       <use xlink:href="#mdf5e3fcdad" x="57.6" y="52.241266" style="stroke: #000000; stroke-width: 0.6"/>
      </g>
     </g>
    </g>
    <g id="ytick_39">
     <g id="line2d_48">
      <g>
       <use xlink:href="#mdf5e3fcdad" x="57.6" y="48.572608" style="stroke: #000000; stroke-width: 0.6"/>
      </g>
     </g>
    </g>
    <g id="ytick_40">
     <g id="line2d_49">
      <g>
       <use xlink:href="#mdf5e3fcdad" x="57.6" y="45.336622" style="stroke: #000000; stroke-width: 0.6"/>
      </g>
     </g>
    </g>
    <g id="text_16">
     <!-- Number of Elements -->
     <g transform="translate(26.920312 225.917062) rotate(-90) scale(0.1 -0.1)">
      <defs>
       <path id="DejaVuSans-4e" d="M 628 4666 
L 1478 4666 
L 3547 763 
L 3547 4666 
L 4159 4666 
L 4159 0 
L 3309 0 
L 1241 3903 
L 1241 0 
L 628 0 
L 628 4666 
z
" transform="scale(0.015625)"/>
       <path id="DejaVuSans-75" d="M 544 1381 
L 544 3500 
L 1119 3500 
L 1119 1403 
Q 1119 906 1312 657 
Q 1506 409 1894 409 
Q 2359 409 2629 706 
Q 2900 1003 2900 1516 
L 2900 3500 
L 3475 3500 
L 3475 0 
L 2900 0 
L 2900 538 
Q 2691 219 2414 64 
Q 2138 -91 1772 -91 
Q 1169 -91 856 284 
Q 544 659 544 1381 
z
M 1991 3584 
L 1991 3584 
z
" transform="scale(0.015625)"/>
       <path id="DejaVuSans-62" d="M 3116 1747 
Q 3116 2381 2855 2742 
Q 2594 3103 2138 3103 
Q 1681 3103 1420 2742 
Q 1159 2381 1159 1747 
Q 1159 1113 1420 752 
Q 1681 391 2138 391 
Q 2594 391 2855 752 
Q 3116 1113 3116 1747 
z
M 1159 2969 
Q 1341 3281 1617 3432 
Q 1894 3584 2278 3584 
Q 2916 3584 3314 3078 
Q 3713 2572 3713 1747 
Q 3713 922 3314 415 
Q 2916 -91 2278 -91 
Q 1894 -91 1617 61 
Q 1341 213 1159 525 
L 1159 0 
L 581 0 
L 581 4863 
L 1159 4863 
L 1159 2969 
z
" transform="scale(0.015625)"/>
       <path id="DejaVuSans-72" d="M 2631 2963 
Q 2534 3019 2420 3045 
Q 2306 3072 2169 3072 
Q 1681 3072 1420 2755 
Q 1159 2438 1159 1844 
L 1159 0 
L 581 0 
L 581 3500 
L 1159 3500 
L 1159 2956 
Q 1341 3275 1631 3429 
Q 1922 3584 2338 3584 
Q 2397 3584 2469 3576 
Q 2541 3569 2628 3553 
L 2631 2963 
z
" transform="scale(0.015625)"/>
       <path id="DejaVuSans-73" d="M 2834 3397 
L 2834 2853 
Q 2591 2978 2328 3040 
Q 2066 3103 1784 3103 
Q 1356 3103 1142 2972 
Q 928 2841 928 2578 
Q 928 2378 1081 2264 
Q 1234 2150 1697 2047 
L 1894 2003 
Q 2506 1872 2764 1633 
Q 3022 1394 3022 966 
Q 3022 478 2636 193 
Q 2250 -91 1575 -91 
Q 1294 -91 989 -36 
Q 684 19 347 128 
L 347 722 
Q 666 556 975 473 
Q 1284 391 1588 391 
Q 1994 391 2212 530 
Q 2431 669 2431 922 
Q 2431 1156 2273 1281 
Q 2116 1406 1581 1522 
L 1381 1569 
Q 847 1681 609 1914 
Q 372 2147 372 2553 
Q 372 3047 722 3315 
Q 1072 3584 1716 3584 
Q 2034 3584 2315 3537 
Q 2597 3491 2834 3397 
z
" transform="scale(0.015625)"/>
      </defs>
      <use xlink:href="#DejaVuSans-4e"/>
      <use xlink:href="#DejaVuSans-75" x="74.804688"/>
      <use xlink:href="#DejaVuSans-6d" x="138.183594"/>
      <use xlink:href="#DejaVuSans-62" x="235.595703"/>
      <use xlink:href="#DejaVuSans-65" x="299.072266"/>
      <use xlink:href="#DejaVuSans-72" x="360.595703"/>
      <use xlink:href="#DejaVuSans-20" x="401.708984"/>
      <use xlink:href="#DejaVuSans-6f" x="433.496094"/>
      <use xlink:href="#DejaVuSans-66" x="494.677734"/>
      <use xlink:href="#DejaVuSans-20" x="529.882812"/>
      <use xlink:href="#DejaVuSans-45" x="561.669922"/>
      <use xlink:href="#DejaVuSans-6c" x="624.853516"/>
      <use xlink:href="#DejaVuSans-65" x="652.636719"/>
      <use xlink:href="#DejaVuSans-6d" x="714.160156"/>
      <use xlink:href="#DejaVuSans-65" x="811.572266"/>
      <use xlink:href="#DejaVuSans-6e" x="873.095703"/>
      <use xlink:href="#DejaVuSans-74" x="936.474609"/>
      <use xlink:href="#DejaVuSans-73" x="975.683594"/>
     </g>
    </g>
   </g>
   <g id="patch_138">
    <path d="M 57.6 307.584 
L 57.6 41.472 
" style="fill: none; stroke: #000000; stroke-width: 0.8; stroke-linejoin: miter; stroke-linecap: square"/>
   </g>
   <g id="patch_139">
    <path d="M 414.72 307.584 
L 414.72 41.472 
" style="fill: none; stroke: #000000; stroke-width: 0.8; stroke-linejoin: miter; stroke-linecap: square"/>
   </g>
   <g id="patch_140">
    <path d="M 57.6 307.584 
L 414.72 307.584 
" style="fill: none; stroke: #000000; stroke-width: 0.8; stroke-linejoin: miter; stroke-linecap: square"/>
   </g>
   <g id="patch_141">
    <path d="M 57.6 41.472 
L 414.72 41.472 
" style="fill: none; stroke: #000000; stroke-width: 0.8; stroke-linejoin: miter; stroke-linecap: square"/>
   </g>
  </g>
 </g>
 <defs>
  <clipPath id="p3533579661">
   <rect x="57.6" y="41.472" width="357.12" height="266.112"/>
  </clipPath>
 </defs>
</svg>
