<?xml version="1.0" encoding="utf-8" standalone="no"?>
<!DOCTYPE svg PUBLIC "-//W3C//DTD SVG 1.1//EN"
  "http://www.w3.org/Graphics/SVG/1.1/DTD/svg11.dtd">
<svg xmlns:xlink="http://www.w3.org/1999/xlink" width="460.8pt" height="345.6pt" viewBox="0 0 460.8 345.6" xmlns="http://www.w3.org/2000/svg" version="1.1">
 <metadata>
  <rdf:RDF xmlns:dc="http://purl.org/dc/elements/1.1/" xmlns:cc="http://creativecommons.org/ns#" xmlns:rdf="http://www.w3.org/1999/02/22-rdf-syntax-ns#">
   <cc:Work>
    <dc:type rdf:resource="http://purl.org/dc/dcmitype/StillImage"/>
    <dc:date>2024-02-23T21:46:28.874681</dc:date>
    <dc:format>image/svg+xml</dc:format>
    <dc:creator>
     <cc:Agent>
      <dc:title>Matplotlib v3.8.3, https://matplotlib.org/</dc:title>
     </cc:Agent>
    </dc:creator>
   </cc:Work>
  </rdf:RDF>
 </metadata>
 <defs>
  <style type="text/css">*{stroke-linejoin: round; stroke-linecap: butt}</style>
 </defs>
 <g id="figure_1">
  <g id="patch_1">
   <path d="M 0 345.6 
L 460.8 345.6 
L 460.8 0 
L 0 0 
z
" style="fill: #ffffff"/>
  </g>
  <g id="axes_1">
   <g id="patch_2">
    <path d="M 57.6 307.584 
L 414.72 307.584 
L 414.72 41.472 
L 57.6 41.472 
z
" style="fill: #ffffff"/>
   </g>
   <g id="patch_3">
    <path d="M 73.832727 307.584 
L 75.025214 307.584 
L 75.025214 307.251729 
L 73.832727 307.251729 
z
" clip-path="url(#pba57ea6a5c)" style="fill: #1f77b4"/>
   </g>
   <g id="patch_4">
    <path d="M 75.323336 307.584 
L 76.515823 307.584 
L 76.515823 306.753322 
L 75.323336 306.753322 
z
" clip-path="url(#pba57ea6a5c)" style="fill: #1f77b4"/>
   </g>
   <g id="patch_5">
    <path d="M 78.304553 307.584 
L 79.49704 307.584 
L 79.49704 303.513676 
L 78.304553 303.513676 
z
" clip-path="url(#pba57ea6a5c)" style="fill: #1f77b4"/>
   </g>
   <g id="patch_6">
    <path d="M 79.795162 307.584 
L 80.987648 307.584 
L 80.987648 297.615858 
L 79.795162 297.615858 
z
" clip-path="url(#pba57ea6a5c)" style="fill: #1f77b4"/>
   </g>
   <g id="patch_7">
    <path d="M 84.266987 307.584 
L 85.459474 307.584 
L 85.459474 237.640873 
L 84.266987 237.640873 
z
" clip-path="url(#pba57ea6a5c)" style="fill: #1f77b4"/>
   </g>
   <g id="patch_8">
    <path d="M 76.813944 307.584 
L 78.006431 307.584 
L 78.006431 306.005711 
L 76.813944 306.005711 
z
" clip-path="url(#pba57ea6a5c)" style="fill: #1f77b4"/>
   </g>
   <g id="patch_9">
    <path d="M 81.28577 307.584 
L 82.478257 307.584 
L 82.478257 288.810667 
L 81.28577 288.810667 
z
" clip-path="url(#pba57ea6a5c)" style="fill: #1f77b4"/>
   </g>
   <g id="patch_10">
    <path d="M 85.757596 307.584 
L 86.950083 307.584 
L 86.950083 207.653381 
L 85.757596 207.653381 
z
" clip-path="url(#pba57ea6a5c)" style="fill: #1f77b4"/>
   </g>
   <g id="patch_11">
    <path d="M 82.776379 307.584 
L 83.968866 307.584 
L 83.968866 272.114029 
L 82.776379 272.114029 
z
" clip-path="url(#pba57ea6a5c)" style="fill: #1f77b4"/>
   </g>
   <g id="patch_12">
    <path d="M 88.738813 307.584 
L 89.9313 307.584 
L 89.9313 117.441699 
L 88.738813 117.441699 
z
" clip-path="url(#pba57ea6a5c)" style="fill: #1f77b4"/>
   </g>
   <g id="patch_13">
    <path d="M 87.248204 307.584 
L 88.440691 307.584 
L 88.440691 171.601935 
L 87.248204 171.601935 
z
" clip-path="url(#pba57ea6a5c)" style="fill: #1f77b4"/>
   </g>
   <g id="patch_14">
    <path d="M 91.72003 307.584 
L 92.912517 307.584 
L 92.912517 54.144 
L 91.72003 54.144 
z
" clip-path="url(#pba57ea6a5c)" style="fill: #1f77b4"/>
   </g>
   <g id="patch_15">
    <path d="M 90.229421 307.584 
L 91.421908 307.584 
L 91.421908 77.153794 
L 90.229421 77.153794 
z
" clip-path="url(#pba57ea6a5c)" style="fill: #1f77b4"/>
   </g>
   <g id="patch_16">
    <path d="M 97.682464 307.584 
L 98.874951 307.584 
L 98.874951 280.171611 
L 97.682464 280.171611 
z
" clip-path="url(#pba57ea6a5c)" style="fill: #1f77b4"/>
   </g>
   <g id="patch_17">
    <path d="M 93.210639 307.584 
L 94.403125 307.584 
L 94.403125 81.224118 
L 93.210639 81.224118 
z
" clip-path="url(#pba57ea6a5c)" style="fill: #1f77b4"/>
   </g>
   <g id="patch_18">
    <path d="M 102.15429 307.584 
L 103.346777 307.584 
L 103.346777 297.865062 
L 102.15429 297.865062 
z
" clip-path="url(#pba57ea6a5c)" style="fill: #1f77b4"/>
   </g>
   <g id="patch_19">
    <path d="M 100.663681 307.584 
L 101.856168 307.584 
L 101.856168 296.203705 
L 100.663681 296.203705 
z
" clip-path="url(#pba57ea6a5c)" style="fill: #1f77b4"/>
   </g>
   <g id="patch_20">
    <path d="M 94.701247 307.584 
L 95.893734 307.584 
L 95.893734 152.080991 
L 94.701247 152.080991 
z
" clip-path="url(#pba57ea6a5c)" style="fill: #1f77b4"/>
   </g>
   <g id="patch_21">
    <path d="M 96.191856 307.584 
L 97.384343 307.584 
L 97.384343 232.075327 
L 96.191856 232.075327 
z
" clip-path="url(#pba57ea6a5c)" style="fill: #1f77b4"/>
   </g>
   <g id="patch_22">
    <path d="M 103.644899 307.584 
L 104.837385 307.584 
L 104.837385 299.360283 
L 103.644899 299.360283 
z
" clip-path="url(#pba57ea6a5c)" style="fill: #1f77b4"/>
   </g>
   <g id="patch_23">
    <path d="M 106.626116 307.584 
L 107.818603 307.584 
L 107.818603 299.526419 
L 106.626116 299.526419 
z
" clip-path="url(#pba57ea6a5c)" style="fill: #1f77b4"/>
   </g>
   <g id="patch_24">
    <path d="M 108.116724 307.584 
L 109.309211 307.584 
L 109.309211 299.775622 
L 108.116724 299.775622 
z
" clip-path="url(#pba57ea6a5c)" style="fill: #1f77b4"/>
   </g>
   <g id="patch_25">
    <path d="M 99.173073 307.584 
L 100.36556 307.584 
L 100.36556 295.456094 
L 99.173073 295.456094 
z
" clip-path="url(#pba57ea6a5c)" style="fill: #1f77b4"/>
   </g>
   <g id="patch_26">
    <path d="M 111.097941 307.584 
L 112.290428 307.584 
L 112.290428 300.772437 
L 111.097941 300.772437 
z
" clip-path="url(#pba57ea6a5c)" style="fill: #1f77b4"/>
   </g>
   <g id="patch_27">
    <path d="M 115.569767 307.584 
L 116.762254 307.584 
L 116.762254 302.516861 
L 115.569767 302.516861 
z
" clip-path="url(#pba57ea6a5c)" style="fill: #1f77b4"/>
   </g>
   <g id="patch_28">
    <path d="M 105.135507 307.584 
L 106.327994 307.584 
L 106.327994 299.775622 
L 105.135507 299.775622 
z
" clip-path="url(#pba57ea6a5c)" style="fill: #1f77b4"/>
   </g>
   <g id="patch_29">
    <path d="M 117.060376 307.584 
L 118.252863 307.584 
L 118.252863 300.938572 
L 117.060376 300.938572 
z
" clip-path="url(#pba57ea6a5c)" style="fill: #1f77b4"/>
   </g>
   <g id="patch_30">
    <path d="M 109.607333 307.584 
L 110.79982 307.584 
L 110.79982 300.523233 
L 109.607333 300.523233 
z
" clip-path="url(#pba57ea6a5c)" style="fill: #1f77b4"/>
   </g>
   <g id="patch_31">
    <path d="M 114.079159 307.584 
L 115.271645 307.584 
L 115.271645 299.775622 
L 114.079159 299.775622 
z
" clip-path="url(#pba57ea6a5c)" style="fill: #1f77b4"/>
   </g>
   <g id="patch_32">
    <path d="M 112.58855 307.584 
L 113.781037 307.584 
L 113.781037 300.606301 
L 112.58855 300.606301 
z
" clip-path="url(#pba57ea6a5c)" style="fill: #1f77b4"/>
   </g>
   <g id="patch_33">
    <path d="M 121.532201 307.584 
L 122.724688 307.584 
L 122.724688 300.855504 
L 121.532201 300.855504 
z
" clip-path="url(#pba57ea6a5c)" style="fill: #1f77b4"/>
   </g>
   <g id="patch_34">
    <path d="M 124.513418 307.584 
L 125.705905 307.584 
L 125.705905 302.682997 
L 124.513418 302.682997 
z
" clip-path="url(#pba57ea6a5c)" style="fill: #1f77b4"/>
   </g>
   <g id="patch_35">
    <path d="M 128.985244 307.584 
L 130.177731 307.584 
L 130.177731 303.264472 
L 128.985244 303.264472 
z
" clip-path="url(#pba57ea6a5c)" style="fill: #1f77b4"/>
   </g>
   <g id="patch_36">
    <path d="M 127.494636 307.584 
L 128.687122 307.584 
L 128.687122 300.938572 
L 127.494636 300.938572 
z
" clip-path="url(#pba57ea6a5c)" style="fill: #1f77b4"/>
   </g>
   <g id="patch_37">
    <path d="M 133.45707 307.584 
L 134.649557 307.584 
L 134.649557 303.264472 
L 133.45707 303.264472 
z
" clip-path="url(#pba57ea6a5c)" style="fill: #1f77b4"/>
   </g>
   <g id="patch_38">
    <path d="M 123.02281 307.584 
L 124.215297 307.584 
L 124.215297 301.520047 
L 123.02281 301.520047 
z
" clip-path="url(#pba57ea6a5c)" style="fill: #1f77b4"/>
   </g>
   <g id="patch_39">
    <path d="M 118.550984 307.584 
L 119.743471 307.584 
L 119.743471 301.686183 
L 118.550984 301.686183 
z
" clip-path="url(#pba57ea6a5c)" style="fill: #1f77b4"/>
   </g>
   <g id="patch_40">
    <path d="M 126.004027 307.584 
L 127.196514 307.584 
L 127.196514 302.932201 
L 126.004027 302.932201 
z
" clip-path="url(#pba57ea6a5c)" style="fill: #1f77b4"/>
   </g>
   <g id="patch_41">
    <path d="M 137.928896 307.584 
L 139.121382 307.584 
L 139.121382 304.012083 
L 137.928896 304.012083 
z
" clip-path="url(#pba57ea6a5c)" style="fill: #1f77b4"/>
   </g>
   <g id="patch_42">
    <path d="M 140.910113 307.584 
L 142.1026 307.584 
L 142.1026 304.09515 
L 140.910113 304.09515 
z
" clip-path="url(#pba57ea6a5c)" style="fill: #1f77b4"/>
   </g>
   <g id="patch_43">
    <path d="M 120.041593 307.584 
L 121.23408 307.584 
L 121.23408 302.018454 
L 120.041593 302.018454 
z
" clip-path="url(#pba57ea6a5c)" style="fill: #1f77b4"/>
   </g>
   <g id="patch_44">
    <path d="M 143.89133 307.584 
L 145.083817 307.584 
L 145.083817 303.679811 
L 143.89133 303.679811 
z
" clip-path="url(#pba57ea6a5c)" style="fill: #1f77b4"/>
   </g>
   <g id="patch_45">
    <path d="M 146.872547 307.584 
L 148.065034 307.584 
L 148.065034 304.178218 
L 146.872547 304.178218 
z
" clip-path="url(#pba57ea6a5c)" style="fill: #1f77b4"/>
   </g>
   <g id="patch_46">
    <path d="M 148.363156 307.584 
L 149.555642 307.584 
L 149.555642 303.34754 
L 148.363156 303.34754 
z
" clip-path="url(#pba57ea6a5c)" style="fill: #1f77b4"/>
   </g>
   <g id="patch_47">
    <path d="M 145.381938 307.584 
L 146.574425 307.584 
L 146.574425 304.593558 
L 145.381938 304.593558 
z
" clip-path="url(#pba57ea6a5c)" style="fill: #1f77b4"/>
   </g>
   <g id="patch_48">
    <path d="M 134.947678 307.584 
L 136.140165 307.584 
L 136.140165 303.845947 
L 134.947678 303.845947 
z
" clip-path="url(#pba57ea6a5c)" style="fill: #1f77b4"/>
   </g>
   <g id="patch_49">
    <path d="M 158.797415 307.584 
L 159.989902 307.584 
L 159.989902 304.842761 
L 158.797415 304.842761 
z
" clip-path="url(#pba57ea6a5c)" style="fill: #1f77b4"/>
   </g>
   <g id="patch_50">
    <path d="M 131.966461 307.584 
L 133.158948 307.584 
L 133.158948 303.596743 
L 131.966461 303.596743 
z
" clip-path="url(#pba57ea6a5c)" style="fill: #1f77b4"/>
   </g>
   <g id="patch_51">
    <path d="M 155.816198 307.584 
L 157.008685 307.584 
L 157.008685 304.676625 
L 155.816198 304.676625 
z
" clip-path="url(#pba57ea6a5c)" style="fill: #1f77b4"/>
   </g>
   <g id="patch_52">
    <path d="M 130.475853 307.584 
L 131.66834 307.584 
L 131.66834 302.682997 
L 130.475853 302.682997 
z
" clip-path="url(#pba57ea6a5c)" style="fill: #1f77b4"/>
   </g>
   <g id="patch_53">
    <path d="M 136.438287 307.584 
L 137.630774 307.584 
L 137.630774 302.018454 
L 136.438287 302.018454 
z
" clip-path="url(#pba57ea6a5c)" style="fill: #1f77b4"/>
   </g>
   <g id="patch_54">
    <path d="M 182.647153 307.584 
L 183.839639 307.584 
L 183.839639 306.171847 
L 182.647153 306.171847 
z
" clip-path="url(#pba57ea6a5c)" style="fill: #1f77b4"/>
   </g>
   <g id="patch_55">
    <path d="M 139.419504 307.584 
L 140.611991 307.584 
L 140.611991 303.264472 
L 139.419504 303.264472 
z
" clip-path="url(#pba57ea6a5c)" style="fill: #1f77b4"/>
   </g>
   <g id="patch_56">
    <path d="M 179.665935 307.584 
L 180.858422 307.584 
L 180.858422 305.839575 
L 179.665935 305.839575 
z
" clip-path="url(#pba57ea6a5c)" style="fill: #1f77b4"/>
   </g>
   <g id="patch_57">
    <path d="M 152.834981 307.584 
L 154.027468 307.584 
L 154.027468 304.593558 
L 152.834981 304.593558 
z
" clip-path="url(#pba57ea6a5c)" style="fill: #1f77b4"/>
   </g>
   <g id="patch_58">
    <path d="M 163.269241 307.584 
L 164.461728 307.584 
L 164.461728 305.175032 
L 163.269241 305.175032 
z
" clip-path="url(#pba57ea6a5c)" style="fill: #1f77b4"/>
   </g>
   <g id="patch_59">
    <path d="M 149.853764 307.584 
L 151.046251 307.584 
L 151.046251 304.925829 
L 149.853764 304.925829 
z
" clip-path="url(#pba57ea6a5c)" style="fill: #1f77b4"/>
   </g>
   <g id="patch_60">
    <path d="M 175.19411 307.584 
L 176.386597 307.584 
L 176.386597 305.839575 
L 175.19411 305.839575 
z
" clip-path="url(#pba57ea6a5c)" style="fill: #1f77b4"/>
   </g>
   <g id="patch_61">
    <path d="M 142.400721 307.584 
L 143.593208 307.584 
L 143.593208 303.596743 
L 142.400721 303.596743 
z
" clip-path="url(#pba57ea6a5c)" style="fill: #1f77b4"/>
   </g>
   <g id="patch_62">
    <path d="M 161.778633 307.584 
L 162.971119 307.584 
L 162.971119 305.2581 
L 161.778633 305.2581 
z
" clip-path="url(#pba57ea6a5c)" style="fill: #1f77b4"/>
   </g>
   <g id="patch_63">
    <path d="M 154.32559 307.584 
L 155.518077 307.584 
L 155.518077 304.593558 
L 154.32559 304.593558 
z
" clip-path="url(#pba57ea6a5c)" style="fill: #1f77b4"/>
   </g>
   <g id="patch_64">
    <path d="M 167.741067 307.584 
L 168.933554 307.584 
L 168.933554 305.091965 
L 167.741067 305.091965 
z
" clip-path="url(#pba57ea6a5c)" style="fill: #1f77b4"/>
   </g>
   <g id="patch_65">
    <path d="M 191.590804 307.584 
L 192.783291 307.584 
L 192.783291 306.171847 
L 191.590804 306.171847 
z
" clip-path="url(#pba57ea6a5c)" style="fill: #1f77b4"/>
   </g>
   <g id="patch_66">
    <path d="M 194.572021 307.584 
L 195.764508 307.584 
L 195.764508 306.005711 
L 194.572021 306.005711 
z
" clip-path="url(#pba57ea6a5c)" style="fill: #1f77b4"/>
   </g>
   <g id="patch_67">
    <path d="M 164.75985 307.584 
L 165.952337 307.584 
L 165.952337 306.254914 
L 164.75985 306.254914 
z
" clip-path="url(#pba57ea6a5c)" style="fill: #1f77b4"/>
   </g>
   <g id="patch_68">
    <path d="M 151.344373 307.584 
L 152.53686 307.584 
L 152.53686 304.676625 
L 151.344373 304.676625 
z
" clip-path="url(#pba57ea6a5c)" style="fill: #1f77b4"/>
   </g>
   <g id="patch_69">
    <path d="M 160.288024 307.584 
L 161.480511 307.584 
L 161.480511 306.171847 
L 160.288024 306.171847 
z
" clip-path="url(#pba57ea6a5c)" style="fill: #1f77b4"/>
   </g>
   <g id="patch_70">
    <path d="M 173.703501 307.584 
L 174.895988 307.584 
L 174.895988 305.67344 
L 173.703501 305.67344 
z
" clip-path="url(#pba57ea6a5c)" style="fill: #1f77b4"/>
   </g>
   <g id="patch_71">
    <path d="M 176.684718 307.584 
L 177.877205 307.584 
L 177.877205 306.005711 
L 176.684718 306.005711 
z
" clip-path="url(#pba57ea6a5c)" style="fill: #1f77b4"/>
   </g>
   <g id="patch_72">
    <path d="M 169.231675 307.584 
L 170.424162 307.584 
L 170.424162 304.842761 
L 169.231675 304.842761 
z
" clip-path="url(#pba57ea6a5c)" style="fill: #1f77b4"/>
   </g>
   <g id="patch_73">
    <path d="M 212.459324 307.584 
L 213.651811 307.584 
L 213.651811 306.919457 
L 212.459324 306.919457 
z
" clip-path="url(#pba57ea6a5c)" style="fill: #1f77b4"/>
   </g>
   <g id="patch_74">
    <path d="M 166.250458 307.584 
L 167.442945 307.584 
L 167.442945 305.175032 
L 166.250458 305.175032 
z
" clip-path="url(#pba57ea6a5c)" style="fill: #1f77b4"/>
   </g>
   <g id="patch_75">
    <path d="M 157.306807 307.584 
L 158.499294 307.584 
L 158.499294 304.759693 
L 157.306807 304.759693 
z
" clip-path="url(#pba57ea6a5c)" style="fill: #1f77b4"/>
   </g>
   <g id="patch_76">
    <path d="M 203.515672 307.584 
L 204.708159 307.584 
L 204.708159 306.670254 
L 203.515672 306.670254 
z
" clip-path="url(#pba57ea6a5c)" style="fill: #1f77b4"/>
   </g>
   <g id="patch_77">
    <path d="M 199.043847 307.584 
L 200.236334 307.584 
L 200.236334 306.42105 
L 199.043847 306.42105 
z
" clip-path="url(#pba57ea6a5c)" style="fill: #1f77b4"/>
   </g>
   <g id="patch_78">
    <path d="M 172.212893 307.584 
L 173.405379 307.584 
L 173.405379 306.088779 
L 172.212893 306.088779 
z
" clip-path="url(#pba57ea6a5c)" style="fill: #1f77b4"/>
   </g>
   <g id="patch_79">
    <path d="M 181.156544 307.584 
L 182.349031 307.584 
L 182.349031 305.590372 
L 181.156544 305.590372 
z
" clip-path="url(#pba57ea6a5c)" style="fill: #1f77b4"/>
   </g>
   <g id="patch_80">
    <path d="M 190.100195 307.584 
L 191.292682 307.584 
L 191.292682 305.2581 
L 190.100195 305.2581 
z
" clip-path="url(#pba57ea6a5c)" style="fill: #1f77b4"/>
   </g>
   <g id="patch_81">
    <path d="M 170.722284 307.584 
L 171.914771 307.584 
L 171.914771 305.008897 
L 170.722284 305.008897 
z
" clip-path="url(#pba57ea6a5c)" style="fill: #1f77b4"/>
   </g>
   <g id="patch_82">
    <path d="M 205.006281 307.584 
L 206.198768 307.584 
L 206.198768 306.919457 
L 205.006281 306.919457 
z
" clip-path="url(#pba57ea6a5c)" style="fill: #1f77b4"/>
   </g>
   <g id="patch_83">
    <path d="M 178.175327 307.584 
L 179.367814 307.584 
L 179.367814 306.254914 
L 178.175327 306.254914 
z
" clip-path="url(#pba57ea6a5c)" style="fill: #1f77b4"/>
   </g>
   <g id="patch_84">
    <path d="M 196.06263 307.584 
L 197.255116 307.584 
L 197.255116 306.254914 
L 196.06263 306.254914 
z
" clip-path="url(#pba57ea6a5c)" style="fill: #1f77b4"/>
   </g>
   <g id="patch_85">
    <path d="M 187.118978 307.584 
L 188.311465 307.584 
L 188.311465 306.587186 
L 187.118978 306.587186 
z
" clip-path="url(#pba57ea6a5c)" style="fill: #1f77b4"/>
   </g>
   <g id="patch_86">
    <path d="M 184.137761 307.584 
L 185.330248 307.584 
L 185.330248 305.922643 
L 184.137761 305.922643 
z
" clip-path="url(#pba57ea6a5c)" style="fill: #1f77b4"/>
   </g>
   <g id="patch_87">
    <path d="M 193.081412 307.584 
L 194.273899 307.584 
L 194.273899 306.42105 
L 193.081412 306.42105 
z
" clip-path="url(#pba57ea6a5c)" style="fill: #1f77b4"/>
   </g>
   <g id="patch_88">
    <path d="M 188.609587 307.584 
L 189.802074 307.584 
L 189.802074 306.088779 
L 188.609587 306.088779 
z
" clip-path="url(#pba57ea6a5c)" style="fill: #1f77b4"/>
   </g>
   <g id="patch_89">
    <path d="M 228.856018 307.584 
L 230.048505 307.584 
L 230.048505 306.919457 
L 228.856018 306.919457 
z
" clip-path="url(#pba57ea6a5c)" style="fill: #1f77b4"/>
   </g>
   <g id="patch_90">
    <path d="M 213.949932 307.584 
L 215.142419 307.584 
L 215.142419 306.836389 
L 213.949932 306.836389 
z
" clip-path="url(#pba57ea6a5c)" style="fill: #1f77b4"/>
   </g>
   <g id="patch_91">
    <path d="M 197.553238 307.584 
L 198.745725 307.584 
L 198.745725 306.088779 
L 197.553238 306.088779 
z
" clip-path="url(#pba57ea6a5c)" style="fill: #1f77b4"/>
   </g>
   <g id="patch_92">
    <path d="M 185.62837 307.584 
L 186.820856 307.584 
L 186.820856 305.507304 
L 185.62837 305.507304 
z
" clip-path="url(#pba57ea6a5c)" style="fill: #1f77b4"/>
   </g>
   <g id="patch_93">
    <path d="M 209.478107 307.584 
L 210.670594 307.584 
L 210.670594 307.002525 
L 209.478107 307.002525 
z
" clip-path="url(#pba57ea6a5c)" style="fill: #1f77b4"/>
   </g>
   <g id="patch_94">
    <path d="M 200.534455 307.584 
L 201.726942 307.584 
L 201.726942 307.085593 
L 200.534455 307.085593 
z
" clip-path="url(#pba57ea6a5c)" style="fill: #1f77b4"/>
   </g>
   <g id="patch_95">
    <path d="M 246.743321 307.584 
L 247.935808 307.584 
L 247.935808 307.334796 
L 246.743321 307.334796 
z
" clip-path="url(#pba57ea6a5c)" style="fill: #1f77b4"/>
   </g>
   <g id="patch_96">
    <path d="M 239.290278 307.584 
L 240.482765 307.584 
L 240.482765 307.417864 
L 239.290278 307.417864 
z
" clip-path="url(#pba57ea6a5c)" style="fill: #1f77b4"/>
   </g>
   <g id="patch_97">
    <path d="M 243.762104 307.584 
L 244.954591 307.584 
L 244.954591 307.500932 
L 243.762104 307.500932 
z
" clip-path="url(#pba57ea6a5c)" style="fill: #1f77b4"/>
   </g>
   <g id="patch_98">
    <path d="M 206.49689 307.584 
L 207.689376 307.584 
L 207.689376 307.002525 
L 206.49689 307.002525 
z
" clip-path="url(#pba57ea6a5c)" style="fill: #1f77b4"/>
   </g>
   <g id="patch_99">
    <path d="M 207.987498 307.584 
L 209.179985 307.584 
L 209.179985 306.836389 
L 207.987498 306.836389 
z
" clip-path="url(#pba57ea6a5c)" style="fill: #1f77b4"/>
   </g>
   <g id="patch_100">
    <path d="M 202.025064 307.584 
L 203.217551 307.584 
L 203.217551 306.587186 
L 202.025064 306.587186 
z
" clip-path="url(#pba57ea6a5c)" style="fill: #1f77b4"/>
   </g>
   <g id="patch_101">
    <path d="M 221.402975 307.584 
L 222.595462 307.584 
L 222.595462 306.919457 
L 221.402975 306.919457 
z
" clip-path="url(#pba57ea6a5c)" style="fill: #1f77b4"/>
   </g>
   <g id="patch_102">
    <path d="M 272.083666 307.584 
L 273.276153 307.584 
L 273.276153 307.417864 
L 272.083666 307.417864 
z
" clip-path="url(#pba57ea6a5c)" style="fill: #1f77b4"/>
   </g>
   <g id="patch_103">
    <path d="M 273.574275 307.584 
L 274.766762 307.584 
L 274.766762 307.417864 
L 273.574275 307.417864 
z
" clip-path="url(#pba57ea6a5c)" style="fill: #1f77b4"/>
   </g>
   <g id="patch_104">
    <path d="M 222.893584 307.584 
L 224.086071 307.584 
L 224.086071 306.919457 
L 222.893584 306.919457 
z
" clip-path="url(#pba57ea6a5c)" style="fill: #1f77b4"/>
   </g>
   <g id="patch_105">
    <path d="M 216.93115 307.584 
L 218.123636 307.584 
L 218.123636 306.753322 
L 216.93115 306.753322 
z
" clip-path="url(#pba57ea6a5c)" style="fill: #1f77b4"/>
   </g>
   <g id="patch_106">
    <path d="M 257.177581 307.584 
L 258.370068 307.584 
L 258.370068 307.417864 
L 257.177581 307.417864 
z
" clip-path="url(#pba57ea6a5c)" style="fill: #1f77b4"/>
   </g>
   <g id="patch_107">
    <path d="M 234.818452 307.584 
L 236.010939 307.584 
L 236.010939 307.417864 
L 234.818452 307.417864 
z
" clip-path="url(#pba57ea6a5c)" style="fill: #1f77b4"/>
   </g>
   <g id="patch_108">
    <path d="M 215.440541 307.584 
L 216.633028 307.584 
L 216.633028 307.002525 
L 215.440541 307.002525 
z
" clip-path="url(#pba57ea6a5c)" style="fill: #1f77b4"/>
   </g>
   <g id="patch_109">
    <path d="M 219.912367 307.584 
L 221.104853 307.584 
L 221.104853 306.919457 
L 219.912367 306.919457 
z
" clip-path="url(#pba57ea6a5c)" style="fill: #1f77b4"/>
   </g>
   <g id="patch_110">
    <path d="M 218.421758 307.584 
L 219.614245 307.584 
L 219.614245 306.836389 
L 218.421758 306.836389 
z
" clip-path="url(#pba57ea6a5c)" style="fill: #1f77b4"/>
   </g>
   <g id="patch_111">
    <path d="M 245.252712 307.584 
L 246.445199 307.584 
L 246.445199 307.085593 
L 245.252712 307.085593 
z
" clip-path="url(#pba57ea6a5c)" style="fill: #1f77b4"/>
   </g>
   <g id="patch_112">
    <path d="M 251.215147 307.584 
L 252.407633 307.584 
L 252.407633 307.334796 
L 251.215147 307.334796 
z
" clip-path="url(#pba57ea6a5c)" style="fill: #1f77b4"/>
   </g>
   <g id="patch_113">
    <path d="M 260.158798 307.584 
L 261.351285 307.584 
L 261.351285 307.251729 
L 260.158798 307.251729 
z
" clip-path="url(#pba57ea6a5c)" style="fill: #1f77b4"/>
   </g>
   <g id="patch_114">
    <path d="M 258.668189 307.584 
L 259.860676 307.584 
L 259.860676 307.334796 
L 258.668189 307.334796 
z
" clip-path="url(#pba57ea6a5c)" style="fill: #1f77b4"/>
   </g>
   <g id="patch_115">
    <path d="M 264.630624 307.584 
L 265.82311 307.584 
L 265.82311 307.251729 
L 264.630624 307.251729 
z
" clip-path="url(#pba57ea6a5c)" style="fill: #1f77b4"/>
   </g>
   <g id="patch_116">
    <path d="M 233.327844 307.584 
L 234.520331 307.584 
L 234.520331 306.919457 
L 233.327844 306.919457 
z
" clip-path="url(#pba57ea6a5c)" style="fill: #1f77b4"/>
   </g>
   <g id="patch_117">
    <path d="M 252.705755 307.584 
L 253.898242 307.584 
L 253.898242 307.417864 
L 252.705755 307.417864 
z
" clip-path="url(#pba57ea6a5c)" style="fill: #1f77b4"/>
   </g>
   <g id="patch_118">
    <path d="M 225.874801 307.584 
L 227.067288 307.584 
L 227.067288 307.085593 
L 225.874801 307.085593 
z
" clip-path="url(#pba57ea6a5c)" style="fill: #1f77b4"/>
   </g>
   <g id="patch_119">
    <path d="M 210.968715 307.584 
L 212.161202 307.584 
L 212.161202 306.919457 
L 210.968715 306.919457 
z
" clip-path="url(#pba57ea6a5c)" style="fill: #1f77b4"/>
   </g>
   <g id="patch_120">
    <path d="M 236.309061 307.584 
L 237.501548 307.584 
L 237.501548 307.251729 
L 236.309061 307.251729 
z
" clip-path="url(#pba57ea6a5c)" style="fill: #1f77b4"/>
   </g>
   <g id="patch_121">
    <path d="M 261.649406 307.584 
L 262.841893 307.584 
L 262.841893 307.417864 
L 261.649406 307.417864 
z
" clip-path="url(#pba57ea6a5c)" style="fill: #1f77b4"/>
   </g>
   <g id="patch_122">
    <path d="M 242.271495 307.584 
L 243.463982 307.584 
L 243.463982 307.251729 
L 242.271495 307.251729 
z
" clip-path="url(#pba57ea6a5c)" style="fill: #1f77b4"/>
   </g>
   <g id="patch_123">
    <path d="M 230.346627 307.584 
L 231.539113 307.584 
L 231.539113 307.168661 
L 230.346627 307.168661 
z
" clip-path="url(#pba57ea6a5c)" style="fill: #1f77b4"/>
   </g>
   <g id="patch_124">
    <path d="M 237.799669 307.584 
L 238.992156 307.584 
L 238.992156 307.251729 
L 237.799669 307.251729 
z
" clip-path="url(#pba57ea6a5c)" style="fill: #1f77b4"/>
   </g>
   <g id="patch_125">
    <path d="M 275.064884 307.584 
L 276.25737 307.584 
L 276.25737 307.500932 
L 275.064884 307.500932 
z
" clip-path="url(#pba57ea6a5c)" style="fill: #1f77b4"/>
   </g>
   <g id="patch_126">
    <path d="M 254.196364 307.584 
L 255.38885 307.584 
L 255.38885 307.417864 
L 254.196364 307.417864 
z
" clip-path="url(#pba57ea6a5c)" style="fill: #1f77b4"/>
   </g>
   <g id="patch_127">
    <path d="M 227.365409 307.584 
L 228.557896 307.584 
L 228.557896 307.251729 
L 227.365409 307.251729 
z
" clip-path="url(#pba57ea6a5c)" style="fill: #1f77b4"/>
   </g>
   <g id="patch_128">
    <path d="M 279.536709 307.584 
L 280.729196 307.584 
L 280.729196 307.334796 
L 279.536709 307.334796 
z
" clip-path="url(#pba57ea6a5c)" style="fill: #1f77b4"/>
   </g>
   <g id="patch_129">
    <path d="M 330.2174 307.584 
L 331.409887 307.584 
L 331.409887 307.500932 
L 330.2174 307.500932 
z
" clip-path="url(#pba57ea6a5c)" style="fill: #1f77b4"/>
   </g>
   <g id="patch_130">
    <path d="M 231.837235 307.584 
L 233.029722 307.584 
L 233.029722 307.251729 
L 231.837235 307.251729 
z
" clip-path="url(#pba57ea6a5c)" style="fill: #1f77b4"/>
   </g>
   <g id="patch_131">
    <path d="M 263.140015 307.584 
L 264.332502 307.584 
L 264.332502 307.500932 
L 263.140015 307.500932 
z
" clip-path="url(#pba57ea6a5c)" style="fill: #1f77b4"/>
   </g>
   <g id="patch_132">
    <path d="M 337.670443 307.584 
L 338.86293 307.584 
L 338.86293 307.500932 
L 337.670443 307.500932 
z
" clip-path="url(#pba57ea6a5c)" style="fill: #1f77b4"/>
   </g>
   <g id="patch_133">
    <path d="M 282.517926 307.584 
L 283.710413 307.584 
L 283.710413 307.500932 
L 282.517926 307.500932 
z
" clip-path="url(#pba57ea6a5c)" style="fill: #1f77b4"/>
   </g>
   <g id="patch_134">
    <path d="M 240.780887 307.584 
L 241.973373 307.584 
L 241.973373 307.500932 
L 240.780887 307.500932 
z
" clip-path="url(#pba57ea6a5c)" style="fill: #1f77b4"/>
   </g>
   <g id="patch_135">
    <path d="M 255.686972 307.584 
L 256.879459 307.584 
L 256.879459 307.251729 
L 255.686972 307.251729 
z
" clip-path="url(#pba57ea6a5c)" style="fill: #1f77b4"/>
   </g>
   <g id="patch_136">
    <path d="M 267.611841 307.584 
L 268.804328 307.584 
L 268.804328 307.500932 
L 267.611841 307.500932 
z
" clip-path="url(#pba57ea6a5c)" style="fill: #1f77b4"/>
   </g>
   <g id="patch_137">
    <path d="M 343.632878 307.584 
L 344.825364 307.584 
L 344.825364 307.500932 
L 343.632878 307.500932 
z
" clip-path="url(#pba57ea6a5c)" style="fill: #1f77b4"/>
   </g>
   <g id="patch_138">
    <path d="M 224.384192 307.584 
L 225.576679 307.584 
L 225.576679 307.334796 
L 224.384192 307.334796 
z
" clip-path="url(#pba57ea6a5c)" style="fill: #1f77b4"/>
   </g>
   <g id="patch_139">
    <path d="M 249.724538 307.584 
L 250.917025 307.584 
L 250.917025 307.417864 
L 249.724538 307.417864 
z
" clip-path="url(#pba57ea6a5c)" style="fill: #1f77b4"/>
   </g>
   <g id="patch_140">
    <path d="M 285.499144 307.584 
L 286.69163 307.584 
L 286.69163 307.417864 
L 285.499144 307.417864 
z
" clip-path="url(#pba57ea6a5c)" style="fill: #1f77b4"/>
   </g>
   <g id="patch_141">
    <path d="M 284.008535 307.584 
L 285.201022 307.584 
L 285.201022 307.500932 
L 284.008535 307.500932 
z
" clip-path="url(#pba57ea6a5c)" style="fill: #1f77b4"/>
   </g>
   <g id="patch_142">
    <path d="M 292.952186 307.584 
L 294.144673 307.584 
L 294.144673 307.500932 
L 292.952186 307.500932 
z
" clip-path="url(#pba57ea6a5c)" style="fill: #1f77b4"/>
   </g>
   <g id="patch_143">
    <path d="M 288.480361 307.584 
L 289.672847 307.584 
L 289.672847 307.500932 
L 288.480361 307.500932 
z
" clip-path="url(#pba57ea6a5c)" style="fill: #1f77b4"/>
   </g>
   <g id="patch_144">
    <path d="M 269.102449 307.584 
L 270.294936 307.584 
L 270.294936 307.417864 
L 269.102449 307.417864 
z
" clip-path="url(#pba57ea6a5c)" style="fill: #1f77b4"/>
   </g>
   <g id="patch_145">
    <path d="M 270.593058 307.584 
L 271.785545 307.584 
L 271.785545 307.417864 
L 270.593058 307.417864 
z
" clip-path="url(#pba57ea6a5c)" style="fill: #1f77b4"/>
   </g>
   <g id="patch_146">
    <path d="M 397.294786 307.584 
L 398.487273 307.584 
L 398.487273 307.500932 
L 397.294786 307.500932 
z
" clip-path="url(#pba57ea6a5c)" style="fill: #1f77b4"/>
   </g>
   <g id="patch_147">
    <path d="M 298.914621 307.584 
L 300.107107 307.584 
L 300.107107 307.500932 
L 298.914621 307.500932 
z
" clip-path="url(#pba57ea6a5c)" style="fill: #1f77b4"/>
   </g>
   <g id="patch_148">
    <path d="M 266.121232 307.584 
L 267.313719 307.584 
L 267.313719 307.417864 
L 266.121232 307.417864 
z
" clip-path="url(#pba57ea6a5c)" style="fill: #1f77b4"/>
   </g>
   <g id="patch_149">
    <path d="M 276.555492 307.584 
L 277.747979 307.584 
L 277.747979 307.500932 
L 276.555492 307.500932 
z
" clip-path="url(#pba57ea6a5c)" style="fill: #1f77b4"/>
   </g>
   <g id="patch_150">
    <path d="M 345.123486 307.584 
L 346.315973 307.584 
L 346.315973 307.500932 
L 345.123486 307.500932 
z
" clip-path="url(#pba57ea6a5c)" style="fill: #1f77b4"/>
   </g>
   <g id="patch_151">
    <path d="M 388.351134 307.584 
L 389.543621 307.584 
L 389.543621 307.500932 
L 388.351134 307.500932 
z
" clip-path="url(#pba57ea6a5c)" style="fill: #1f77b4"/>
   </g>
   <g id="patch_152">
    <path d="M 303.386446 307.584 
L 304.578933 307.584 
L 304.578933 307.500932 
L 303.386446 307.500932 
z
" clip-path="url(#pba57ea6a5c)" style="fill: #1f77b4"/>
   </g>
   <g id="patch_153">
    <path d="M 316.801923 307.584 
L 317.99441 307.584 
L 317.99441 307.500932 
L 316.801923 307.500932 
z
" clip-path="url(#pba57ea6a5c)" style="fill: #1f77b4"/>
   </g>
   <g id="matplotlib.axis_1">
    <g id="xtick_1">
     <g id="line2d_1">
      <defs>
       <path id="m01f4049fc7" d="M 0 0 
L 0 3.5 
" style="stroke: #000000; stroke-width: 0.8"/>
      </defs>
      <g>
       <use xlink:href="#m01f4049fc7" x="74.428971" y="307.584" style="stroke: #000000; stroke-width: 0.8"/>
      </g>
     </g>
     <g id="text_1">
      <!-- 0 -->
      <g transform="translate(71.247721 322.182437) scale(0.1 -0.1)">
       <defs>
        <path id="DejaVuSans-30" d="M 2034 4250 
Q 1547 4250 1301 3770 
Q 1056 3291 1056 2328 
Q 1056 1369 1301 889 
Q 1547 409 2034 409 
Q 2525 409 2770 889 
Q 3016 1369 3016 2328 
Q 3016 3291 2770 3770 
Q 2525 4250 2034 4250 
z
M 2034 4750 
Q 2819 4750 3233 4129 
Q 3647 3509 3647 2328 
Q 3647 1150 3233 529 
Q 2819 -91 2034 -91 
Q 1250 -91 836 529 
Q 422 1150 422 2328 
Q 422 3509 836 4129 
Q 1250 4750 2034 4750 
z
" transform="scale(0.015625)"/>
       </defs>
       <use xlink:href="#DejaVuSans-30"/>
      </g>
     </g>
    </g>
    <g id="xtick_2">
     <g id="line2d_2">
      <g>
       <use xlink:href="#m01f4049fc7" x="148.959399" y="307.584" style="stroke: #000000; stroke-width: 0.8"/>
      </g>
     </g>
     <g id="text_2">
      <!-- 50 -->
      <g transform="translate(142.596899 322.182437) scale(0.1 -0.1)">
       <defs>
        <path id="DejaVuSans-35" d="M 691 4666 
L 3169 4666 
L 3169 4134 
L 1269 4134 
L 1269 2991 
Q 1406 3038 1543 3061 
Q 1681 3084 1819 3084 
Q 2600 3084 3056 2656 
Q 3513 2228 3513 1497 
Q 3513 744 3044 326 
Q 2575 -91 1722 -91 
Q 1428 -91 1123 -41 
Q 819 9 494 109 
L 494 744 
Q 775 591 1075 516 
Q 1375 441 1709 441 
Q 2250 441 2565 725 
Q 2881 1009 2881 1497 
Q 2881 1984 2565 2268 
Q 2250 2553 1709 2553 
Q 1456 2553 1204 2497 
Q 953 2441 691 2322 
L 691 4666 
z
" transform="scale(0.015625)"/>
       </defs>
       <use xlink:href="#DejaVuSans-35"/>
       <use xlink:href="#DejaVuSans-30" x="63.623047"/>
      </g>
     </g>
    </g>
    <g id="xtick_3">
     <g id="line2d_3">
      <g>
       <use xlink:href="#m01f4049fc7" x="223.489827" y="307.584" style="stroke: #000000; stroke-width: 0.8"/>
      </g>
     </g>
     <g id="text_3">
      <!-- 100 -->
      <g transform="translate(213.946077 322.182437) scale(0.1 -0.1)">
       <defs>
        <path id="DejaVuSans-31" d="M 794 531 
L 1825 531 
L 1825 4091 
L 703 3866 
L 703 4441 
L 1819 4666 
L 2450 4666 
L 2450 531 
L 3481 531 
L 3481 0 
L 794 0 
L 794 531 
z
" transform="scale(0.015625)"/>
       </defs>
       <use xlink:href="#DejaVuSans-31"/>
       <use xlink:href="#DejaVuSans-30" x="63.623047"/>
       <use xlink:href="#DejaVuSans-30" x="127.246094"/>
      </g>
     </g>
    </g>
    <g id="xtick_4">
     <g id="line2d_4">
      <g>
       <use xlink:href="#m01f4049fc7" x="298.020255" y="307.584" style="stroke: #000000; stroke-width: 0.8"/>
      </g>
     </g>
     <g id="text_4">
      <!-- 150 -->
      <g transform="translate(288.476505 322.182437) scale(0.1 -0.1)">
       <use xlink:href="#DejaVuSans-31"/>
       <use xlink:href="#DejaVuSans-35" x="63.623047"/>
       <use xlink:href="#DejaVuSans-30" x="127.246094"/>
      </g>
     </g>
    </g>
    <g id="xtick_5">
     <g id="line2d_5">
      <g>
       <use xlink:href="#m01f4049fc7" x="372.550684" y="307.584" style="stroke: #000000; stroke-width: 0.8"/>
      </g>
     </g>
     <g id="text_5">
      <!-- 200 -->
      <g transform="translate(363.006934 322.182437) scale(0.1 -0.1)">
       <defs>
        <path id="DejaVuSans-32" d="M 1228 531 
L 3431 531 
L 3431 0 
L 469 0 
L 469 531 
Q 828 903 1448 1529 
Q 2069 2156 2228 2338 
Q 2531 2678 2651 2914 
Q 2772 3150 2772 3378 
Q 2772 3750 2511 3984 
Q 2250 4219 1831 4219 
Q 1534 4219 1204 4116 
Q 875 4013 500 3803 
L 500 4441 
Q 881 4594 1212 4672 
Q 1544 4750 1819 4750 
Q 2544 4750 2975 4387 
Q 3406 4025 3406 3419 
Q 3406 3131 3298 2873 
Q 3191 2616 2906 2266 
Q 2828 2175 2409 1742 
Q 1991 1309 1228 531 
z
" transform="scale(0.015625)"/>
       </defs>
       <use xlink:href="#DejaVuSans-32"/>
       <use xlink:href="#DejaVuSans-30" x="63.623047"/>
       <use xlink:href="#DejaVuSans-30" x="127.246094"/>
      </g>
     </g>
    </g>
    <g id="text_6">
     <!-- Depth of Element -->
     <g transform="translate(192.231875 335.860562) scale(0.1 -0.1)">
      <defs>
       <path id="DejaVuSans-44" d="M 1259 4147 
L 1259 519 
L 2022 519 
Q 2988 519 3436 956 
Q 3884 1394 3884 2338 
Q 3884 3275 3436 3711 
Q 2988 4147 2022 4147 
L 1259 4147 
z
M 628 4666 
L 1925 4666 
Q 3281 4666 3915 4102 
Q 4550 3538 4550 2338 
Q 4550 1131 3912 565 
Q 3275 0 1925 0 
L 628 0 
L 628 4666 
z
" transform="scale(0.015625)"/>
       <path id="DejaVuSans-65" d="M 3597 1894 
L 3597 1613 
L 953 1613 
Q 991 1019 1311 708 
Q 1631 397 2203 397 
Q 2534 397 2845 478 
Q 3156 559 3463 722 
L 3463 178 
Q 3153 47 2828 -22 
Q 2503 -91 2169 -91 
Q 1331 -91 842 396 
Q 353 884 353 1716 
Q 353 2575 817 3079 
Q 1281 3584 2069 3584 
Q 2775 3584 3186 3129 
Q 3597 2675 3597 1894 
z
M 3022 2063 
Q 3016 2534 2758 2815 
Q 2500 3097 2075 3097 
Q 1594 3097 1305 2825 
Q 1016 2553 972 2059 
L 3022 2063 
z
" transform="scale(0.015625)"/>
       <path id="DejaVuSans-70" d="M 1159 525 
L 1159 -1331 
L 581 -1331 
L 581 3500 
L 1159 3500 
L 1159 2969 
Q 1341 3281 1617 3432 
Q 1894 3584 2278 3584 
Q 2916 3584 3314 3078 
Q 3713 2572 3713 1747 
Q 3713 922 3314 415 
Q 2916 -91 2278 -91 
Q 1894 -91 1617 61 
Q 1341 213 1159 525 
z
M 3116 1747 
Q 3116 2381 2855 2742 
Q 2594 3103 2138 3103 
Q 1681 3103 1420 2742 
Q 1159 2381 1159 1747 
Q 1159 1113 1420 752 
Q 1681 391 2138 391 
Q 2594 391 2855 752 
Q 3116 1113 3116 1747 
z
" transform="scale(0.015625)"/>
       <path id="DejaVuSans-74" d="M 1172 4494 
L 1172 3500 
L 2356 3500 
L 2356 3053 
L 1172 3053 
L 1172 1153 
Q 1172 725 1289 603 
Q 1406 481 1766 481 
L 2356 481 
L 2356 0 
L 1766 0 
Q 1100 0 847 248 
Q 594 497 594 1153 
L 594 3053 
L 172 3053 
L 172 3500 
L 594 3500 
L 594 4494 
L 1172 4494 
z
" transform="scale(0.015625)"/>
       <path id="DejaVuSans-68" d="M 3513 2113 
L 3513 0 
L 2938 0 
L 2938 2094 
Q 2938 2591 2744 2837 
Q 2550 3084 2163 3084 
Q 1697 3084 1428 2787 
Q 1159 2491 1159 1978 
L 1159 0 
L 581 0 
L 581 4863 
L 1159 4863 
L 1159 2956 
Q 1366 3272 1645 3428 
Q 1925 3584 2291 3584 
Q 2894 3584 3203 3211 
Q 3513 2838 3513 2113 
z
" transform="scale(0.015625)"/>
       <path id="DejaVuSans-20" transform="scale(0.015625)"/>
       <path id="DejaVuSans-6f" d="M 1959 3097 
Q 1497 3097 1228 2736 
Q 959 2375 959 1747 
Q 959 1119 1226 758 
Q 1494 397 1959 397 
Q 2419 397 2687 759 
Q 2956 1122 2956 1747 
Q 2956 2369 2687 2733 
Q 2419 3097 1959 3097 
z
M 1959 3584 
Q 2709 3584 3137 3096 
Q 3566 2609 3566 1747 
Q 3566 888 3137 398 
Q 2709 -91 1959 -91 
Q 1206 -91 779 398 
Q 353 888 353 1747 
Q 353 2609 779 3096 
Q 1206 3584 1959 3584 
z
" transform="scale(0.015625)"/>
       <path id="DejaVuSans-66" d="M 2375 4863 
L 2375 4384 
L 1825 4384 
Q 1516 4384 1395 4259 
Q 1275 4134 1275 3809 
L 1275 3500 
L 2222 3500 
L 2222 3053 
L 1275 3053 
L 1275 0 
L 697 0 
L 697 3053 
L 147 3053 
L 147 3500 
L 697 3500 
L 697 3744 
Q 697 4328 969 4595 
Q 1241 4863 1831 4863 
L 2375 4863 
z
" transform="scale(0.015625)"/>
       <path id="DejaVuSans-45" d="M 628 4666 
L 3578 4666 
L 3578 4134 
L 1259 4134 
L 1259 2753 
L 3481 2753 
L 3481 2222 
L 1259 2222 
L 1259 531 
L 3634 531 
L 3634 0 
L 628 0 
L 628 4666 
z
" transform="scale(0.015625)"/>
       <path id="DejaVuSans-6c" d="M 603 4863 
L 1178 4863 
L 1178 0 
L 603 0 
L 603 4863 
z
" transform="scale(0.015625)"/>
       <path id="DejaVuSans-6d" d="M 3328 2828 
Q 3544 3216 3844 3400 
Q 4144 3584 4550 3584 
Q 5097 3584 5394 3201 
Q 5691 2819 5691 2113 
L 5691 0 
L 5113 0 
L 5113 2094 
Q 5113 2597 4934 2840 
Q 4756 3084 4391 3084 
Q 3944 3084 3684 2787 
Q 3425 2491 3425 1978 
L 3425 0 
L 2847 0 
L 2847 2094 
Q 2847 2600 2669 2842 
Q 2491 3084 2119 3084 
Q 1678 3084 1418 2786 
Q 1159 2488 1159 1978 
L 1159 0 
L 581 0 
L 581 3500 
L 1159 3500 
L 1159 2956 
Q 1356 3278 1631 3431 
Q 1906 3584 2284 3584 
Q 2666 3584 2933 3390 
Q 3200 3197 3328 2828 
z
" transform="scale(0.015625)"/>
       <path id="DejaVuSans-6e" d="M 3513 2113 
L 3513 0 
L 2938 0 
L 2938 2094 
Q 2938 2591 2744 2837 
Q 2550 3084 2163 3084 
Q 1697 3084 1428 2787 
Q 1159 2491 1159 1978 
L 1159 0 
L 581 0 
L 581 3500 
L 1159 3500 
L 1159 2956 
Q 1366 3272 1645 3428 
Q 1925 3584 2291 3584 
Q 2894 3584 3203 3211 
Q 3513 2838 3513 2113 
z
" transform="scale(0.015625)"/>
      </defs>
      <use xlink:href="#DejaVuSans-44"/>
      <use xlink:href="#DejaVuSans-65" x="77.001953"/>
      <use xlink:href="#DejaVuSans-70" x="138.525391"/>
      <use xlink:href="#DejaVuSans-74" x="202.001953"/>
      <use xlink:href="#DejaVuSans-68" x="241.210938"/>
      <use xlink:href="#DejaVuSans-20" x="304.589844"/>
      <use xlink:href="#DejaVuSans-6f" x="336.376953"/>
      <use xlink:href="#DejaVuSans-66" x="397.558594"/>
      <use xlink:href="#DejaVuSans-20" x="432.763672"/>
      <use xlink:href="#DejaVuSans-45" x="464.550781"/>
      <use xlink:href="#DejaVuSans-6c" x="527.734375"/>
      <use xlink:href="#DejaVuSans-65" x="555.517578"/>
      <use xlink:href="#DejaVuSans-6d" x="617.041016"/>
      <use xlink:href="#DejaVuSans-65" x="714.453125"/>
      <use xlink:href="#DejaVuSans-6e" x="775.976562"/>
      <use xlink:href="#DejaVuSans-74" x="839.355469"/>
     </g>
    </g>
   </g>
   <g id="matplotlib.axis_2">
    <g id="ytick_1">
     <g id="line2d_6">
      <defs>
       <path id="m4f6fa52b1f" d="M 0 0 
L -3.5 0 
" style="stroke: #000000; stroke-width: 0.8"/>
      </defs>
      <g>
       <use xlink:href="#m4f6fa52b1f" x="57.6" y="307.584" style="stroke: #000000; stroke-width: 0.8"/>
      </g>
     </g>
     <g id="text_7">
      <!-- 0 -->
      <g transform="translate(44.2375 311.383219) scale(0.1 -0.1)">
       <use xlink:href="#DejaVuSans-30"/>
      </g>
     </g>
    </g>
    <g id="ytick_2">
     <g id="line2d_7">
      <g>
       <use xlink:href="#m4f6fa52b1f" x="57.6" y="266.050077" style="stroke: #000000; stroke-width: 0.8"/>
      </g>
     </g>
     <g id="text_8">
      <!-- 500 -->
      <g transform="translate(31.5125 269.849295) scale(0.1 -0.1)">
       <use xlink:href="#DejaVuSans-35"/>
       <use xlink:href="#DejaVuSans-30" x="63.623047"/>
       <use xlink:href="#DejaVuSans-30" x="127.246094"/>
      </g>
     </g>
    </g>
    <g id="ytick_3">
     <g id="line2d_8">
      <g>
       <use xlink:href="#m4f6fa52b1f" x="57.6" y="224.516153" style="stroke: #000000; stroke-width: 0.8"/>
      </g>
     </g>
     <g id="text_9">
      <!-- 1000 -->
      <g transform="translate(25.15 228.315372) scale(0.1 -0.1)">
       <use xlink:href="#DejaVuSans-31"/>
       <use xlink:href="#DejaVuSans-30" x="63.623047"/>
       <use xlink:href="#DejaVuSans-30" x="127.246094"/>
       <use xlink:href="#DejaVuSans-30" x="190.869141"/>
      </g>
     </g>
    </g>
    <g id="ytick_4">
     <g id="line2d_9">
      <g>
       <use xlink:href="#m4f6fa52b1f" x="57.6" y="182.98223" style="stroke: #000000; stroke-width: 0.8"/>
      </g>
     </g>
     <g id="text_10">
      <!-- 1500 -->
      <g transform="translate(25.15 186.781449) scale(0.1 -0.1)">
       <use xlink:href="#DejaVuSans-31"/>
       <use xlink:href="#DejaVuSans-35" x="63.623047"/>
       <use xlink:href="#DejaVuSans-30" x="127.246094"/>
       <use xlink:href="#DejaVuSans-30" x="190.869141"/>
      </g>
     </g>
    </g>
    <g id="ytick_5">
     <g id="line2d_10">
      <g>
       <use xlink:href="#m4f6fa52b1f" x="57.6" y="141.448307" style="stroke: #000000; stroke-width: 0.8"/>
      </g>
     </g>
     <g id="text_11">
      <!-- 2000 -->
      <g transform="translate(25.15 145.247526) scale(0.1 -0.1)">
       <use xlink:href="#DejaVuSans-32"/>
       <use xlink:href="#DejaVuSans-30" x="63.623047"/>
       <use xlink:href="#DejaVuSans-30" x="127.246094"/>
       <use xlink:href="#DejaVuSans-30" x="190.869141"/>
      </g>
     </g>
    </g>
    <g id="ytick_6">
     <g id="line2d_11">
      <g>
       <use xlink:href="#m4f6fa52b1f" x="57.6" y="99.914383" style="stroke: #000000; stroke-width: 0.8"/>
      </g>
     </g>
     <g id="text_12">
      <!-- 2500 -->
      <g transform="translate(25.15 103.713602) scale(0.1 -0.1)">
       <use xlink:href="#DejaVuSans-32"/>
       <use xlink:href="#DejaVuSans-35" x="63.623047"/>
       <use xlink:href="#DejaVuSans-30" x="127.246094"/>
       <use xlink:href="#DejaVuSans-30" x="190.869141"/>
      </g>
     </g>
    </g>
    <g id="ytick_7">
     <g id="line2d_12">
      <g>
       <use xlink:href="#m4f6fa52b1f" x="57.6" y="58.38046" style="stroke: #000000; stroke-width: 0.8"/>
      </g>
     </g>
     <g id="text_13">
      <!-- 3000 -->
      <g transform="translate(25.15 62.179679) scale(0.1 -0.1)">
       <defs>
        <path id="DejaVuSans-33" d="M 2597 2516 
Q 3050 2419 3304 2112 
Q 3559 1806 3559 1356 
Q 3559 666 3084 287 
Q 2609 -91 1734 -91 
Q 1441 -91 1130 -33 
Q 819 25 488 141 
L 488 750 
Q 750 597 1062 519 
Q 1375 441 1716 441 
Q 2309 441 2620 675 
Q 2931 909 2931 1356 
Q 2931 1769 2642 2001 
Q 2353 2234 1838 2234 
L 1294 2234 
L 1294 2753 
L 1863 2753 
Q 2328 2753 2575 2939 
Q 2822 3125 2822 3475 
Q 2822 3834 2567 4026 
Q 2313 4219 1838 4219 
Q 1578 4219 1281 4162 
Q 984 4106 628 3988 
L 628 4550 
Q 988 4650 1302 4700 
Q 1616 4750 1894 4750 
Q 2613 4750 3031 4423 
Q 3450 4097 3450 3541 
Q 3450 3153 3228 2886 
Q 3006 2619 2597 2516 
z
" transform="scale(0.015625)"/>
       </defs>
       <use xlink:href="#DejaVuSans-33"/>
       <use xlink:href="#DejaVuSans-30" x="63.623047"/>
       <use xlink:href="#DejaVuSans-30" x="127.246094"/>
       <use xlink:href="#DejaVuSans-30" x="190.869141"/>
      </g>
     </g>
    </g>
    <g id="text_14">
     <!-- Number of Elements -->
     <g transform="translate(19.070312 225.917062) rotate(-90) scale(0.1 -0.1)">
      <defs>
       <path id="DejaVuSans-4e" d="M 628 4666 
L 1478 4666 
L 3547 763 
L 3547 4666 
L 4159 4666 
L 4159 0 
L 3309 0 
L 1241 3903 
L 1241 0 
L 628 0 
L 628 4666 
z
" transform="scale(0.015625)"/>
       <path id="DejaVuSans-75" d="M 544 1381 
L 544 3500 
L 1119 3500 
L 1119 1403 
Q 1119 906 1312 657 
Q 1506 409 1894 409 
Q 2359 409 2629 706 
Q 2900 1003 2900 1516 
L 2900 3500 
L 3475 3500 
L 3475 0 
L 2900 0 
L 2900 538 
Q 2691 219 2414 64 
Q 2138 -91 1772 -91 
Q 1169 -91 856 284 
Q 544 659 544 1381 
z
M 1991 3584 
L 1991 3584 
z
" transform="scale(0.015625)"/>
       <path id="DejaVuSans-62" d="M 3116 1747 
Q 3116 2381 2855 2742 
Q 2594 3103 2138 3103 
Q 1681 3103 1420 2742 
Q 1159 2381 1159 1747 
Q 1159 1113 1420 752 
Q 1681 391 2138 391 
Q 2594 391 2855 752 
Q 3116 1113 3116 1747 
z
M 1159 2969 
Q 1341 3281 1617 3432 
Q 1894 3584 2278 3584 
Q 2916 3584 3314 3078 
Q 3713 2572 3713 1747 
Q 3713 922 3314 415 
Q 2916 -91 2278 -91 
Q 1894 -91 1617 61 
Q 1341 213 1159 525 
L 1159 0 
L 581 0 
L 581 4863 
L 1159 4863 
L 1159 2969 
z
" transform="scale(0.015625)"/>
       <path id="DejaVuSans-72" d="M 2631 2963 
Q 2534 3019 2420 3045 
Q 2306 3072 2169 3072 
Q 1681 3072 1420 2755 
Q 1159 2438 1159 1844 
L 1159 0 
L 581 0 
L 581 3500 
L 1159 3500 
L 1159 2956 
Q 1341 3275 1631 3429 
Q 1922 3584 2338 3584 
Q 2397 3584 2469 3576 
Q 2541 3569 2628 3553 
L 2631 2963 
z
" transform="scale(0.015625)"/>
       <path id="DejaVuSans-73" d="M 2834 3397 
L 2834 2853 
Q 2591 2978 2328 3040 
Q 2066 3103 1784 3103 
Q 1356 3103 1142 2972 
Q 928 2841 928 2578 
Q 928 2378 1081 2264 
Q 1234 2150 1697 2047 
L 1894 2003 
Q 2506 1872 2764 1633 
Q 3022 1394 3022 966 
Q 3022 478 2636 193 
Q 2250 -91 1575 -91 
Q 1294 -91 989 -36 
Q 684 19 347 128 
L 347 722 
Q 666 556 975 473 
Q 1284 391 1588 391 
Q 1994 391 2212 530 
Q 2431 669 2431 922 
Q 2431 1156 2273 1281 
Q 2116 1406 1581 1522 
L 1381 1569 
Q 847 1681 609 1914 
Q 372 2147 372 2553 
Q 372 3047 722 3315 
Q 1072 3584 1716 3584 
Q 2034 3584 2315 3537 
Q 2597 3491 2834 3397 
z
" transform="scale(0.015625)"/>
      </defs>
      <use xlink:href="#DejaVuSans-4e"/>
      <use xlink:href="#DejaVuSans-75" x="74.804688"/>
      <use xlink:href="#DejaVuSans-6d" x="138.183594"/>
      <use xlink:href="#DejaVuSans-62" x="235.595703"/>
      <use xlink:href="#DejaVuSans-65" x="299.072266"/>
      <use xlink:href="#DejaVuSans-72" x="360.595703"/>
      <use xlink:href="#DejaVuSans-20" x="401.708984"/>
      <use xlink:href="#DejaVuSans-6f" x="433.496094"/>
      <use xlink:href="#DejaVuSans-66" x="494.677734"/>
      <use xlink:href="#DejaVuSans-20" x="529.882812"/>
      <use xlink:href="#DejaVuSans-45" x="561.669922"/>
      <use xlink:href="#DejaVuSans-6c" x="624.853516"/>
      <use xlink:href="#DejaVuSans-65" x="652.636719"/>
      <use xlink:href="#DejaVuSans-6d" x="714.160156"/>
      <use xlink:href="#DejaVuSans-65" x="811.572266"/>
      <use xlink:href="#DejaVuSans-6e" x="873.095703"/>
      <use xlink:href="#DejaVuSans-74" x="936.474609"/>
      <use xlink:href="#DejaVuSans-73" x="975.683594"/>
     </g>
    </g>
   </g>
   <g id="patch_154">
    <path d="M 57.6 307.584 
L 57.6 41.472 
" style="fill: none; stroke: #000000; stroke-width: 0.8; stroke-linejoin: miter; stroke-linecap: square"/>
   </g>
   <g id="patch_155">
    <path d="M 414.72 307.584 
L 414.72 41.472 
" style="fill: none; stroke: #000000; stroke-width: 0.8; stroke-linejoin: miter; stroke-linecap: square"/>
   </g>
   <g id="patch_156">
    <path d="M 57.6 307.584 
L 414.72 307.584 
" style="fill: none; stroke: #000000; stroke-width: 0.8; stroke-linejoin: miter; stroke-linecap: square"/>
   </g>
   <g id="patch_157">
    <path d="M 57.6 41.472 
L 414.72 41.472 
" style="fill: none; stroke: #000000; stroke-width: 0.8; stroke-linejoin: miter; stroke-linecap: square"/>
   </g>
  </g>
 </g>
 <defs>
  <clipPath id="pba57ea6a5c">
   <rect x="57.6" y="41.472" width="357.12" height="266.112"/>
  </clipPath>
 </defs>
</svg>
